<?xml version="1.0" encoding="UTF-8"?>
<svg id="Layer_2" data-name="Layer 2" xmlns="http://www.w3.org/2000/svg" viewBox="0 0 23.85 22.18">
  <g id="Cresce">
    <path d="M23.79,4.55c-.07-1.24-.61-2.27-1.75-2.85-.9-.46-1.86-.81-2.8-1.19-1.01-.38-2.13-.3-3.08.23-1.67.81-3.09,2.08-4.08,3.65-.2-.39-.37-.8-.59-1.17-.54-.89-1.04-1.78-1.97-2.37C7.92-.14,6.25-.16,4.57.44,2.27,1.27.7,2.86.23,5.28-.01,6.53.04,7.85.05,9.14c0,1.07.41,1.35,1.49,1.28.8-.05,1.61-.05,2.41-.14.32-.05.61-.21.82-.45.39-.53.66-1.13,1.01-1.69.37-.6.76-1.18,1.21-1.88.56,1.38,1.03,2.6,1.56,3.8.15.34.42.8.7.85.25.05.64-.36.87-.64.36-.49.7-1.01,1-1.54.07.28.17.54.31.79.14.22.36.38.61.45.18.02.42-.21.59-.37.11-.15.2-.32.27-.5l1.91-3.71.19.08c.31.94.66,1.87.91,2.83.35,1.28.61,2.59.94,3.87.06.22.29.54.46.56.18.02.49-.23.59-.43.26-.53.4-1.12.65-1.65.11-.2.31-.33.54-.35.99.06,1.98.18,2.97.29.43.05.78.04.97-.47.62-1.79.88-3.68.76-5.58ZM21.38,12.19c-.62,0-1.23.04-1.84.11-.21.02-.4.1-.56.23-.56.52-1.1,1.06-1.62,1.62-.22.28-.43.57-.61.87l-.26-.19c-.42-1.27-.84-2.53-1.27-3.79-.12-.41-.28-.8-.47-1.18-.37-.69-.82-.71-1.23-.05-.39.61-.72,1.25-1.07,1.88-.22.39-.44.79-.72,1.3-.09-.39-.2-.77-.34-1.14-.1-.22-.27-.55-.45-.57-.26.01-.5.15-.66.36-.42.61-.79,1.25-1.16,1.89-.23.4-.44.8-.71,1.3-.13-.3-.21-.47-.27-.65-.33-1.12-.63-2.25-.98-3.36-.14-.3-.33-.59-.55-.85-.29.16-.56.37-.79.61-.3.4-.48.9-.77,1.31-.14.2-.36.34-.61.38-.87.07-1.74.06-2.61.09-.54.02-.81.41-.54.78.22.3.46.59.73.86,1.83,1.86,3.64,3.74,5.51,5.54,1.2,1.15,2.53,2.14,4.19,2.57.28.06.58.02.83-.12.64-.37,1.25-.8,1.85-1.23,2.13-1.54,4.12-3.28,5.92-5.2.66-.68,1.27-1.4,1.85-2.16.16-.28.17-.62.04-.91-.22-.21-.52-.33-.82-.31Z" fill="#f9c215" stroke="#f9c215" stroke-miterlimit="10" stroke-width=".07"/>
  </g>
</svg>