<?xml version="1.0" encoding="UTF-8"?>
<svg id="Layer_2" data-name="Layer 2" xmlns="http://www.w3.org/2000/svg" viewBox="0 0 38.6 38.55">
  <g id="Layer_1-2" data-name="Layer 1">
    <g>
      <g>
        <path d="M32.92,19.72s.73,11.58,2.07,12.67c1.34,1.09,3.99.96,3.56,1.4s-2.81.36-2.81.36c0,0,3.33.42,2.31.73s-2.81-.05-2.81-.05c0,0,2.44.75,1.12.85-2.14.16-3.38.1-6.15-2.77s-5.27-12.15-3.56-14.94c1.7-2.8,5.98-1.73,6.26,1.76Z" fill="#ef9da0"/>
        <path d="M16.31,19.15s-1,7.48-2.62,10.08c-1.62,2.6-9.42,1.26-10.62,2.37S-.15,34.25,0,33.22s1.32-4.28,2.73-5.07,4.68-.31,4.42-1.88c-.25-1.57,1.91-.41,1.95-4.51.04-4.06,6.28-4.07,7.19-2.62Z" fill="#d37382"/>
        <path d="M31.48,14.33s3.15,4.23.31,11.35c-1.69,4.26-10.34,7.1-14.61,6.59s-10.71-2.21-10.42-8.21c.51-10.45,13.38-4.58,15.37-10.89.73-2.33,8.86-1.12,9.35,1.16Z" fill="#f9c215"/>
        <path d="M14.85,18.76s4.05,12.86,2.43,15.45c-1.62,2.6-9.42,1.26-10.62,2.37-1.2,1.11-3.22,2.66-3.06,1.62s1.32-4.28,2.73-5.07,4.68-.31,4.42-1.88c-.25-1.57-3.91-2.58-3.87-6.68.04-4.06,7.05-7.27,7.97-5.82Z" fill="#ef9da0"/>
        <path d="M17.7,31.34s-2.26-4.58-4.94-3.88-2.81,3.18-4.09,1.93-5.81-8.35,6.24-11.95c0,0,3.98,6.67,2.8,13.91Z" fill="#f9c215"/>
        <path d="M25.48,22.07s.73,11.58,2.07,12.67,3.99.96,3.56,1.4-2.81.36-2.81.36c0,0,3.33.42,2.31.73s-2.81-.05-2.81-.05c0,0,2.44.75,1.12.85-2.14.16-3.38.1-6.15-2.77-2.76-2.88-5.27-12.15-3.56-14.94,1.7-2.8,5.98-1.73,6.26,1.76Z" fill="#ef9da0"/>
        <ellipse cx="27.08" cy="8.97" rx="7.34" ry="8.58" transform="translate(-.74 2.66) rotate(-5.54)" fill="#ef9da0"/>
        <circle cx="23.15" cy="12.53" r="1.08" fill="#db5c5e" opacity=".38"/>
        <circle cx="31.27" cy="11.84" r="1.08" fill="#db5c5e" opacity=".38"/>
        <ellipse cx="23.33" cy="9.67" rx=".63" ry=".86" transform="translate(-1.69 6.24) rotate(-14.71)" fill="#422a4a"/>
        <ellipse cx="30.78" cy="9.04" rx=".86" ry=".63" transform="translate(21.31 39.68) rotate(-89.2)" fill="#422a4a"/>
        <path d="M31.46,6.79c.03.4-.47.04-1.05.09s-1.02.49-1.05.09.41-.76.99-.81,1.08.23,1.11.62Z" fill="#422a4a"/>
        <path d="M23.88,7.59c.06.39-.47.07-1.04.16s-.98.56-1.04.16.35-.78.93-.87,1.09.15,1.15.54Z" fill="#422a4a"/>
        <path d="M20.38,10.71s-.33-2.09-1.62-1.68-.89,4.16.89,4.13c.64-.01,1.34-.97.73-2.44Z" fill="#ef9da0"/>
        <path d="M19.68,12.54s-.04,0-.06-.01c-.46-.12-.99-1.04-.95-1.91.02-.46.14-.75.34-.86.2-.11.4,0,.4,0l-.1.18s-.11-.06-.2,0c-.08.04-.21.19-.23.69-.04.79.47,1.61.8,1.7.06.02.15.02.22-.14l.19.09c-.09.18-.23.28-.4.26Z" fill="#df6b71"/>
        <path d="M33.61,9.01s-.13-2.11,1.22-2,1.78,3.87.03,4.22c-.63.13-1.51-.65-1.25-2.22Z" fill="#ef9da0"/>
        <path d="M34.7,10.65s.04-.01.06-.02c.42-.21.74-1.23.51-2.07-.12-.45-.3-.7-.52-.77-.22-.06-.39.09-.39.09l.14.15s.09-.08.2-.05c.08.02.24.14.38.62.21.76-.1,1.68-.41,1.83-.05.03-.14.05-.25-.09l-.16.13c.13.16.29.22.44.17Z" fill="#df6b71"/>
        <path d="M27.09,14.47c-.62,0-1.24-.42-1.84-1.25l.24-.17c.57.79,1.15,1.17,1.69,1.12.95-.08,1.58-1.38,1.59-1.4l.27.13c-.03.06-.71,1.46-1.83,1.56-.04,0-.08,0-.12,0Z" fill="#df6b71"/>
      </g>
      <path d="M29.43,3.39s-2.82.19-4.39-1.38c-1.57-1.57-.14-1.07,1.38-1.86,1.52-.79,3.33,1.62,3.01,3.23Z" fill="#422a4a"/>
    </g>
  </g>
</svg>