<?xml version="1.0" encoding="UTF-8"?>
<svg id="Layer_2" data-name="Layer 2" xmlns="http://www.w3.org/2000/svg" viewBox="0 0 216.25 284.88">
  <g id="Layer_1-2" data-name="Layer 1">
    <g>
      <path d="M197.95,173.04c.02.94.56,1.88,1.34,2.56.18.17.39.35.6.49-.03,1.33-.87,2.76-.21,4.1.04.12.09.27.17.39.14.37.34.73.7,1.04.04.02.07.04.07.07-.51,1.22-1.03,2.57-.6,3.78,0,.07.03.22.13.29.6,1.16.85,2.24.3,3.54-.22.72-.54,1.4-.32,2.14.23.86.56,1.75,1.34,2.4-.89,1.32-1.36,2.77-1.03,4.17.03.33.1.64.19.94.05.88.55,1.72,1.36,2.32.18.17.35.32.59.45-.08,1.24-.97,2.48-.41,3.73.03.09.1.22.17.33,0,.02.04.07.04.11-.9,1.08-1.78,2.18-1.65,3.25,0,.28.02.5.04.75-.09.68.26,1.34.89,1.94.08.1.2.19.28.27-.69.96-1.28,1.06-1.11,2.27.39.61-.44.98-.95,1.11-.21.07-.5.1-.7.17-.2.07-.37.18-.47.39-.14.23-.27.49-.39.8-.1.31-.14.69-.13,1.14-1.37-.21-2.61-.12-3.5.72-.22.14-.44.35-.65.53-.64.37-1.13,1.19-1.32,2.14-.05.22-.11.48-.13.72-1.11.48-2.65.22-3.54,1.29-.09.08-.2.18-.28.29-.27.25-.51.56-.65,1.01,0,.04-.01.08-.03.09-1.27-.05-2.67-.09-3.61.72-.07.03-.2.1-.22.22-.85.95-1.75,1.54-3.17,1.47-.74.03-1.5-.03-2.14.45-.74.53-1.49,1.18-1.84,2.14-1.59-.34-3.16-.25-4.41.61-.31.16-.59.34-.85.55-.85.39-1.5,1.21-1.76,2.2-.1.24-.18.46-.2.73-1.24.45-2.86.19-3.88,1.31-.07.07-.18.2-.26.32-.02.01-.05.06-.1.09l.02.04c-1.18.31-2.45.41-3.53,1.23-2.39,1.83-2.69,3.56-2.69,3.56-.27.8-.37,1.81-.21,2.72.63,3.68,4.38,6.55,7.38,6.11l1.54-.23c1.54.08,2.78-1.16,3.7-2.14l.09.17c1.66.08,2.93-.93,3.88-2.01.1-.08.45-.39.65-.55.14,0,.26-.02.39-.05.42.01.81-.3,1.25-.19.04.02.1.03.12.02.35.08.64,0,.97-.05.11-.05.25-.1.36-.15.83-.09,1.54-.63,2.15-1.13.4-.24.65-.7.88-1.16.02,0,.11,0,.14,0,.48.02,1.03.25,1.5.16.42.08.82-.05,1.2-.17.06-.03.17-.05.3-.16.61-.2,1.27-.47,1.77-.94.42-.28.77-.68,1-1.16.27-.47.41-1.05.84-1.31.43-.03.88-.14,1.39-.14l.17-.05c.16,0,.36-.07.66-.14,1.28-.28,2.27-1.26,2.79-2.58,1.97.36,3.47-.94,4.56-2.25.07-.08.5-.39.68-.62.14.03.27,0,.41-.05.48-.13.95-.33,1.45-.36.38.03.7-.09,1.05-.2.13-.05.29-.11.43-.2.88-.26,1.65-.97,2.33-1.65.44-.42.66-.93.87-1.51.04,0,.14-.03.16-.05.59-.15,1.23-.1,1.77-.42.53-.09.99-.48,1.43-.8.07-.03.17-.13.33-.3.36-.31.71-.64,1.04-1,.32-.39.61-.8.83-1.22.37-.62.61-1.38.67-2.06.12-.7,0-1.43.27-2.07.45-.4.76-.92,1.22-1.47,0,0,.15-.21.12-.22.15-.21.3-.42.44-.71l.05-.13c.97-2.01.62-3.54.3-4.56.23-.44.22-1.03.61-1.43.01-.03.03-.09.04-.12.26-.31.36-.66.5-1.05.05-.15.1-.33.11-.51.31-.9.21-1.99.07-2.88-.06-.43-.29-1.36-.64-1.91.81-1.62.37-3.37-.26-4.75-.04-.13-.18-.61-.26-.87.05-.13.08-.26.1-.39.16-.4.02-.9.29-1.29.03-.03.06-.08.06-.11.21-.3.25-.62.31-.96,0-.13,0-.28,0-.41.22-.84-.04-1.74-.29-2.52-.08-.47-.43-.89-.77-1.28,0-.02.04-.11.05-.13.18-.45.6-.9.68-1.39.22-.38.24-.81.26-1.21,0-.07.01-.18-.04-.35.03-.65,0-1.4-.26-2.02-.12-.48-.38-.96-.75-1.33-.35-.4-.85-.74-.94-1.22.12-.41.17-.85.35-1.32v-.17c.06-.15.07-.35.11-.65.2-1.24-.36-2.46-1.39-3.37,1.08-1.61.49-3.32-.22-4.72-.04-.09-.14-.56-.26-.79.09-.1.12-.22.14-.34.1-.43.13-.89.34-1.28.22-.27.02-2.01.02-2.01-.01-.84-.51-1.7-1.26-2.35-.17-.16-.38-.34-.58-.47.11-1.23,1.05-2.47.54-3.73-.03-.12-.06-.25-.13-.37-.09-.35-.25-.7-.58-1.03-.03-.02-.07-.05-.06-.07.66-1.06,1.38-2.17,1.16-3.33,0-.09,0-.26-.09-.35-.44-1.43-.47-2.63.16-4.1.26-.82.61-1.62.43-2.52-.19-1.05-.64-2.16-1.43-2.91.2-.4.38-.82.5-1.25.11-.43.18-.87.21-1.31.05-.89-.01-1.8-.4-2.66-.14-.41-.29-.79-.48-1.15-.17-.55-.45-1.07-.81-1.51-.39-.43-.88-.78-1.39-1.02-.25-.16-.49-.28-.77-.35-.12-.37-.19-.76-.26-1.17-.08-.4-.17-.79-.27-1.19-.22-.79-.51-1.59-1.19-2.18-.09-.08-.25-.2-.39-.29-.02-.02-.08-.06-.11-.11,0-.84-.07-1.73-.28-2.59-.25-.82-.66-1.59-1.29-2.2-.28-.33-.57-.62-.88-.87-.76-.84-1.89-1.38-2.99-1.43-.18-.03-.36,0-.51-.02-.52-.79-.85-1.41-1.31-1.97-.47-.55-1.11-.98-2.22-1.43-.98-.05-1.88-1.21-2.44-2-.5-.72-.96-1.44-1.79-1.74-.48-.23-.99-.43-1.51-.55-.52-.1-1.06-.1-1.6.02-.74-1.61-1.95-2.86-3.58-3.38-.34-.16-.71-.24-1.06-.34-.9-.4-2.03-.38-3.02.04-.23.09-.5.2-.72.33-1.24-.62-2.27-1.99-3.83-1.94-.14-.01-.3-.03-.44,0-.41-.02-.83.02-1.28.23-.03.02-.07.05-.09.04-.97-.97-2.08-1.98-3.41-2.04-.08-.02-.23-.06-.33.01-1.35.12-2.47-.04-3.56-1.03-.63-.46-1.19-1-2-1.06-.93-.08-1.92-.07-2.82.44-1.01-1.28-2.3-2.22-3.81-2.34-.34-.07-.67-.11-1-.11-.9-.23-1.9,0-2.74.6-.23.12-.43.25-.62.44-1.22-.43-2.29-1.64-3.75-1.41-.1.01-.26.05-.39.08-.02,0-.08.02-.13,0v.05c-1.09-.5-2.07-1.22-3.37-1.26-2.89-.1-4.23,1.02-4.23,1.02-.72.43-1.46,1.13-1.98,1.92-2.08,3.17-1.38,7.75,1.3,9.37l1.35.82c1.15,1.05,2.97.9,4.33.72l-.04.19c1.25,1.12,2.92,1.13,4.35.9.13,0,.6-.01.86-.02.11.09.22.15.34.21.32.27.82.28,1.1.64.02.04.06.08.08.09.22.28.49.41.78.58.12.04.26.08.38.11.7.46,1.6.48,2.38.49.46.07.94-.13,1.41-.33.02.02.09.07.1.09.35.32.63.86,1.04,1.09.27.33.65.49,1.01.64.07.02.16.07.33.08.58.24,1.25.47,1.9.43.48.05.98-.04,1.45-.25.48-.18.96-.54,1.43-.45.32.26.72.46,1.06.8l.15.08c.12.1.29.19.54.33,1.04.63,2.32.58,3.53-.02,1.01,1.61,2.73,1.73,4.24,1.68.1,0,.55.1.8.09.05.13.15.2.24.27.33.28.7.51.95.86.14.31.37.47.6.68.09.07.2.16.33.21.51.53,1.27.7,1.96.87.43.11.87.03,1.33-.07,0,.04.05.1.07.11.23.42.31.95.61,1.25.13.39.43.61.68.84.02.05.09.09.21.17.42.38.93.69,1.46.85.39.15.83.21,1.3.13.45,0,1.01-.21,1.37,0,.12.39.36.66.54,1.06,0,0,.07.14.09.11.07.14.14.28.26.42l.06.05c.75,1.02,1.77,1.11,2.55,1.21.09.34.42.55.37.98,0,.02.02.06.03.08-.02.32.09.53.19.78.05.09.09.21.16.29.16.64.71,1.05,1.19,1.45.2.2.73.58,1.24.73-.01.68.13,1.25.45,1.74.32.47.78.87,1.21,1.26.07.08.31.36.44.52-.02.11-.01.21,0,.31-.05.33.17.65-.04,1.01-.03.03-.05.08-.04.09-.16.28-.15.51-.17.77.02.09.04.2.06.29-.07.63.19,1.25.5,1.8.11.34.5.6.84.87,0,.02-.04.09-.05.11-.19.37-.6.75-.69,1.13-.23.3-.25.62-.27.92,0,.06,0,.13.03.26-.08.51-.12,1.08.1,1.57.08.38.33.75.63,1.1.28.36.74.69.76,1.1-.18.32-.29.69-.53,1.04l-.04.14c-.07.11-.12.36-.2.66-.42,1.33-.04,2.78.87,3.9-1.27,1.62-.82,3.6-.19,5.17.04.1.12.62.23.88-.09.09-2.47,1.22-.54,3.99Z" fill="#f9c316"/>
      <path d="M114.73.72c-1.43.08-2.9.66-3.9,1.57-.25.2-.52.44-.71.67-.99.08-2.02.04-3.07.05-1.04.06-2.09.22-3.03.77-.17.09-.38.19-.55.32-.52.27-1.01.61-1.41,1.09-.02.04-.05.09-.09.1-.92.01-1.9.05-2.86.21-.95.19-1.88.53-2.69,1.06-.1.05-.31.16-.36.31-.72.65-1.45,1.18-2.21,1.63-.76.47-1.6.79-2.59,1.02-1.04.36-2.13.58-3,1.42-1.03.95-2.04,2.04-2.42,3.33-.52.12-1.05.27-1.57.46-.48.2-.95.43-1.4.7-.91.54-1.75,1.23-2.45,2.09-.36.37-.68.73-.96,1.12-.25.24-.47.5-.67.77-.18.29-.34.6-.47.91-.26.63-.42,1.29-.46,1.92-.06.33-.09.63-.05.95-1.31,1.33-3.33,2.16-4.03,4.21-.06.14-.13.35-.18.54-.02.03-.03.11-.08.17-.86.43-1.76.93-2.56,1.55-.4.31-.78.65-1.12,1.03-.32.39-.58.82-.8,1.29-.26.44-.44.89-.65,1.31-.71,1.15-1.01,2.59-.87,3.81,0,.2.04.39.06.56-1.41,1.8-2.29,2.44-2.92,5.29.07,1.14-1.01,2.61-1.73,3.53-.64.83-1.37,1.6-1.61,2.67-.43,1.27-.59,2.67-.21,3.93-.77.69-1.45,1.49-2,2.39-.54.9-1,1.88-1.12,2.98-.11.46-.16.97-.23,1.44-.32,1.27-.18,2.72.31,3.88.11.28.24.6.39.84-.46,1.79-1.66,3.53-1.44,5.57,0,.18,0,.4.05.59.03.55.08,1.09.38,1.63.03.04.06.08.06.11-.76,1.56-1.56,3.35-1.4,5.17,0,.11-.02.32.07.44.14.89.28,1.73.29,2.57,0,.84-.14,1.68-.5,2.58-.3,1.01-.7,1.96-.57,3.09.19,1.3.55,2.68,1.31,3.71-.89,1.86-1.43,4.03-.85,6.18.08.51.18.98.31,1.44.17,1.35.78,2.66,1.72,3.52.23.25.45.47.72.64.25,1.85-.25,3.93.74,5.83.07.13.17.33.29.49.01.03.07.1.09.17h.05c.26,1.69.31,3.46,1.15,5.24.23.5.46.95.69,1.35.23.41.51.75.75,1.07.49.63.94,1.11,1.31,1.47.76.71,1.23.95,1.23.95.89.61,2,1.03,2.99,1.08,1.98.1,3.67-.93,4.83-2.39,1.15-1.47,1.78-3.37,1.54-5.21-.07-.63-.19-1.24-.22-1.88.22-1.84-.92-3.68-1.87-5.11l.18-.05c.32-1.95-.38-3.85-1.3-5.4-.06-.15-.3-.7-.43-.99.03-.16.05-.33.06-.49.13-.5-.06-1.1.18-1.58.03-.04.05-.1.05-.13.18-.37.19-.75.23-1.16-.01-.15-.03-.34-.04-.49.17-1.02-.21-2.08-.44-3.05-.07-.58-.4-1.11-.74-1.61,0-.03.05-.13.06-.16.2-.55.62-1.07.72-1.66.23-.44.26-.97.29-1.46,0-.09.02-.21-.03-.43.04-.8.16-1.72-.05-2.51-.06-.61-.26-1.22-.59-1.75-.3-.56-.76-1.07-.79-1.69.15-.49.3-1.05.58-1.59l.05-.21c.08-.18.13-.43.23-.79.46-1.52.13-3.17-.65-4.58,1.52-1.76,1.43-4.05,1.14-6.04,0-.13.07-.75.05-1.07.13-.1.19-.25.26-.39.26-.52.45-1.08.79-1.51.3-.28.45-.63.64-.99.07-.14.14-.31.18-.49.24-.43.36-.93.47-1.44.13-.5.21-1.02.3-1.51.12-.61-.01-1.19-.15-1.78.04-.02.1-.1.11-.13.42-.45.96-.76,1.26-1.28.42-.31.57-.84.83-1.26.05-.05.1-.16.18-.36.39-.73.75-1.54.88-2.33.13-.6.17-1.24.05-1.86-.04-.61-.32-1.27-.09-1.84.43-.35.72-.79,1.15-1.23,0,0,.15-.16.12-.18.15-.16.31-.33.46-.56l.05-.11c1.06-1.59,1.06-3.02,1.14-4.07.38-.32.59-.87,1.09-1.08.02-.02.07-.07.09-.09.37-.17.61-.46.9-.75.11-.11.23-.26.32-.41.35-.34.63-.76.86-1.22.25-.45.5-.9.72-1.33.21-.41.59-1.36.68-2.07.85-.48,1.47-1.19,1.99-1.96.56-.73.98-1.57,1.31-2.38.08-.14.36-.65.51-.92.15-.07.27-.17.39-.26.44-.22.75-.75,1.24-.88.04,0,.11-.03.13-.05.41-.08.71-.29,1.06-.49.11-.1.25-.22.36-.32.89-.47,1.52-1.34,2.08-2.14.38-.41.54-1.05.71-1.59.03,0,.13-.04.15-.04.52-.14,1.16-.09,1.65-.33.45-.06.88-.28,1.26-.49.07-.05.17-.09.3-.23.61-.37,1.32-.76,1.79-1.32.4-.38.76-.82.99-1.34.27-.5.41-1.16.89-1.44.48-.06.97-.21,1.51-.23l.19-.06c.18-.02.39-.07.72-.15,1.37-.28,2.51-1.19,3.34-2.44,2.01.57,3.78-.23,5.36-1.12.1-.05.64-.19.9-.32.12.08.26.1.4.11.51.04,1.04.11,1.49.29.32.17,2.32.03,2.32.03.49-.01.98-.06,1.47-.26.49-.19.96-.47,1.39-.78.21-.15.45-.32.64-.5,1.48.27,2.73,1.5,4.32,1.32.14,0,.31.02.46,0,.43.02.87-.03,1.35-.24.04-.02.07-.05.1-.04.53.5,1.06,1.04,1.63,1.45.56.46,1.15.8,1.84.94.07.04.22.11.34.06,1.4.16,2.59.66,3.37,1.99.48.67.83,1.37,1.56,1.78.87.45,1.75.97,2.86.99.32,1.72.9,3.19,2.04,4.31.23.29.48.54.75.77.54.83,1.51,1.38,2.54,1.66.26.1.5.18.79.21.34.66.42,1.46.6,2.21.2.74.39,1.49.97,2.11.08.09.21.22.33.32.01.03.07.06.09.12-.25,1.78-.33,3.8.58,5.44.18.43.41.8.61,1.19.45,1.14,1.37,2.12,2.4,2.69.16.11.33.18.47.27.39,2.1.21,3.08,1.82,5.23.92.63,1.05,2.33,1.11,3.38.06.96.01,1.91.53,2.76.52,1.08,1.15,2.14,2.17,2.79-.22.94-.31,1.89-.26,2.81.03.93.22,1.84.61,2.71.13.39.33.79.49,1.17.35,1.09,1.08,2.09,2.05,2.76.22.16.48.35.73.48.16.81.14,1.68.18,2.53,0,.85.1,1.69.55,2.46.07.14.14.32.24.45.21.43.48.85.9,1.2.04.02.08.05.09.08-.3,1.54-.73,3.18-.15,4.64.02.09.05.27.16.35.72,1.4.93,2.74.43,4.3-.1.43-.23.85-.3,1.27-.08.42-.15.84-.06,1.3.17,1.06.45,2.16,1.18,3.05-.98,1.51-1.78,3.11-1.62,4.86-.01.41,0,.78,0,1.16-.18,1.05.11,2.18.76,3.11.13.26.27.49.48.7-.15.76-.62,1.46-.98,2.18-.36.72-.64,1.47-.56,2.35,0,.12.03.31.07.47,0,.03.01.09,0,.15h.05c-.25.66-.69,1.26-1.01,1.9-.34.64-.62,1.31-.74,2.08-.21,1.75-.31,3.02-.21,3.9.08.88.27,1.33.27,1.33.24.94.74,1.96,1.39,2.71,1.3,1.52,3.12,2.26,4.95,2.13,1.83-.12,3.67-1.13,4.93-2.88.42-.59.88-1.18,1.23-1.81,1.3-1.6,1.62-4.18,1.65-6.11l.19.05c1.24-1.85,1.52-4.31,1.3-6.36,0-.19-.03-.88-.04-1.25.09-.17.14-.35.2-.52.27-.51.26-1.25.62-1.72.04-.03.08-.1.08-.14.28-.37.4-.8.56-1.27.03-.18.08-.4.09-.58.35-1.15.24-2.49.12-3.66,0-.7-.28-1.36-.55-1.98.01-.03.06-.15.07-.18.23-.61.66-1.2.77-1.9.24-.52.28-1.14.32-1.73,0-.11.02-.26-.02-.51.05-.96.11-2.08-.23-3-.15-.72-.43-1.42-.83-2-.37-.61-.9-1.13-1.01-1.84.1-.59.12-1.25.22-1.91v-.25c.02-.22,0-.51-.01-.94-.01-1.81-.71-3.65-2-4.86.68-2.39-.32-4.89-1.53-6.74-.07-.13-.33-.78-.52-1.08.06-.16.04-.34.02-.52-.05-.64-.17-1.3-.11-1.91.1-.43.03-.85-.02-1.31-.02-.17-.06-.38-.12-.58-.09-1.11-.65-2.25-1.13-3.26-.28-.64-.78-1.08-1.26-1.53.02-.04.01-.15,0-.18.03-.67.26-1.3.15-1.96.11-.56-.08-1.15-.21-1.69,0-.08-.04-.21-.13-.43-.24-.91-.58-1.83-1.06-2.6-.35-.6-.78-1.16-1.31-1.58-.48-.47-1.1-.81-1.42-1.41,0-.59-.15-1.14-.21-1.81,0,0-.03-.24-.06-.23-.03-.24-.06-.49-.15-.78l-.05-.12c-.56-2.05-1.66-3.11-2.52-3.87-.04-.53-.38-1.07-.26-1.64,0-.03-.02-.1-.02-.14.07-.43-.03-.83-.11-1.27-.03-.17-.08-.37-.16-.55-.16-1.05-.78-2.09-1.31-3.01-.26-.43-.9-1.35-1.47-1.86-.08-1.16-.45-2.34-1.03-3.38-.62-1.03-1.32-1.99-2.13-2.75-.13-.15-.61-.71-.86-1.02-.05-.2-.12-.38-.2-.57-.16-.6-.7-1.17-.77-1.79,0-.05-.01-.13-.04-.17-.07-.49-.27-.92-.53-1.38-.12-.16-.26-.36-.37-.52-.29-.59-.68-1.15-1.15-1.65-.48-.49-1-.94-1.49-1.35-.53-.55-1.28-.82-1.97-1.07-.02-.03-.08-.15-.1-.19-.32-.64-.47-1.42-.98-2.01-.26-.57-.74-1.07-1.2-1.53-.1-.07-.21-.2-.46-.34-.79-.71-1.73-1.52-2.74-1.92-.72-.39-1.5-.68-2.27-.72-.78-.1-1.56-.02-2.27-.37-.49-.43-1.09-.83-1.63-1.36l-.24-.15c-.19-.17-.47-.32-.89-.57-.86-.54-1.83-.93-2.84-1.07-1-.16-2-.14-2.93.1-2.01-1.89-5.12-2.02-7.55-1.67-.16.02-.95,0-1.35.07-.07-.06-.43-.73-1.37-1.14-.47-.21-1.08-.37-1.85-.37-.77.04-1.7.24-2.78.72Z" fill="#f9c316"/>
      <g>
        <path d="M109.61,181c-.24-.13-.55-.17-.88-.08-.33.1-.7.29-1.05.56-.17.12-.36.27-.52.43-.31-.12-.54-.46-.81-.71-.26-.21-.57-.36-1.02-.12-.07.03-.16.07-.25.14-.22.1-.46.28-.75.64-.02.04-.05.07-.06.07-.16-.34-.34-.65-.56-.84-.22-.19-.5-.29-.85-.05-.04,0-.11.02-.17.14-.36.33-.68.56-.95.63-.27.07-.51.01-.71-.33-.26-.26-.48-.7-.9-.37-.48.35-.99.8-1.47,1.89-.22-.51-.5-.88-.83-1.04-.17-.08-.34-.11-.53-.08-.19.04-.39.18-.6.36-.19.12-.37.27-.54.47-.25.13-.5.42-.74.83-.23.42-.45,1-.61,1.63-.09.3-.17.58-.23.94-.33.15-.68.04-1.05.06-.37.04-.76.26-1.08.92-.05.09-.11.24-.16.38-.01.01-.03.08-.06.1-.4-.28-.86-.54-1.31-.53-.45.01-.9.23-1.27.74-.2.2-.36.46-.53.69-.55.48-.88,1.63-.91,2.76-.02.17,0,.36-.01.52-.51.23-.94.32-1.32.6-.37.29-.71.75-1.01,1.65.02.93-.93,1.28-1.54,1.56-.55.23-1.2.42-1.46,1.04-.19.33-.39.72-.46,1.08,0,.27.07.57.26.93-1.22-.14-2.16.05-2.43.74-.09.12-.14.3-.21.44-.29.33-.18.96.22,1.65.09.16.2.35.32.52-.47.42-1.64.39-1.59,1.22,0,.07-.02.14,0,.23-.01.1,0,.21.02.33.03.13.07.27.21.36.03.02.05.04.05.04-.63-.23-1.18-.65-1.01-.39,0,0-.01,0,.06.09.27.39.25.63-.24.06-.22-.24-.46-.62-.4-.49.14.38.29.77.44,1.18-.56-1.07-.81-1.92-.75-1.71l.02.1c-.02-.07.11.48.28,1.6.04.29.08.55.12.84-.13-.16-.34-1.69-.29-.83,0,.07,0,.18,0,.28,0,.01,0,.04,0,.06v.08c-.08-.41-.13-1.31-.14-.89-.02.94-.23,3.89-.23,3.89-.12,1.58-.26,3.37-.39,5-.05.64-.1,1.26-.14,1.87-.2,2.59-.38,5.16-.46,7.52-.18,4.4.07,7.47.71,7.59.18.05.36.08.56.1.53.67,1.25-1.52,1.7-3.11l.02.34c.68.54,1.37-1.19,1.78-2.85.04-.12.2-.59.29-.83.07.02.13,0,.19-.04.21.06.38-.41.62-.21.02.03.05.05.06.03.19.15.34.04.51-.05.06-.07.13-.16.18-.23.45-.14.79-1,1.07-1.74.19-.36.26-1.03.3-1.65.01,0,.07,0,.08,0,.29,0,.68.24.96.06.29.04.52-.19.73-.4.03-.05.1-.09.16-.25.35-.36.74-.84.92-1.49.19-.42.3-.96.28-1.53.01-.57-.12-1.21.07-1.55.28-.12.55-.34.91-.47l.1-.09c.12-.05.23-.16.41-.32.79-.6,1.16-1.9.77-2.95,1.42.12,1.55-.78,1.46-1.67,0-.05.08-.27.06-.42.11.02.17,0,.23-.03.23-.08.41-.22.71-.22.26.03.4-.03.57-.09.06-.03.13-.06.17-.11.42-.12.52-.53.63-.89.08-.21-.05-.53-.18-.86.03.01.08,0,.09,0,.34,0,.79.12,1.02.03.17.03.29,0,.38-.04.08-.02.1.01.14.01.03.02.04.01.04,0,.12.03.17.02.09-.13-.05-.09-.16-.27-.36-.55-.16-.22-.43-.62-.43-.72.18.15.25.18.41.32,0,0,.05.05.03.02.05.05.1.1.13.11h0c.23.16-.03-.45-.18-1.05.11.14.1,0,.27.33,0,0,.02.02.02.03.12.24.16.3.22.39.02.03.04.06.05.06.14.27.12.06.12-.15,0-.1-.02-.43-.06-.9.3,1.01.26.57.33-.32,0-.05.04-.25.05-.36.01.09.02.14.04.18.03.28.07.1.09.56,0,.03,0,.08,0,.1.01.22.02.4.04.61l.02.04c.02.47.05.19.11-.12.02-.07.09-.6.18-1.16,0,.02,0,.09,0,.11-.02.4-.11,1.23-.13,1.47-.03.25-.05.5-.08.74,0,0,0,.06,0,0-.02.19-.04.33.04-.05.1-.39.19-.79.29-1.19.15-.6.4-1.56.46-1.64-.06.33-.08.52-.19,1v.07c-.03.08-.05.19-.08.34-.15.7.13-.2.96-2.26-.83,2.68-.5,1.78.27.46.04-.08.15-.2.28-.42-.1.23-.12.31-.15.38-.11.31-.14.48-.38,1.02-.25.53-.05.41-.05.41,0,.12.63-.83,1.67-2.26.26-.35.55-.75.81-1.11-.07.5-1.4,2.54-.58,1.69.05-.05.11-.09.21-.19.16-.13.42-.39.94-.93.05-.06.1-.11.1-.11-.82,1.23-1.74,2.38-1.56,2.33.02,0,.05-.02.09-.05,0,0,0,.03.16-.13.72-.59.92-.54-.2.62-.48.52-1.13,1.11-.94,1,.18-.09.52-.3,1.56-1.02-1.65,1.4-2.64,2.11-2.39,2-.01.02.03,0,.11-.03-.08.09.52-.24,1.57-.76.26-.13.5-.24.77-.37-.34.35-1.74,1.1-1.1.92.05-.01.13-.03.2-.05,0,0,.04,0,.04,0-1.33.66-2.47,1.07-2.26,1.03-.01.01.06,0,.09,0-.07.04.46-.05,1.27-.12.13,0,.26-.02.37-.03-.65.26-1.24.27-.62.43.6.09-.01.21-.38.19-.34,0-.75-.06-.61.01.03.04.07.14.2.25.12.12.34.2.58.59-1.25.28-2.15.91-2.25,1.9-.06.2-.06.44-.09.65-.19.57.1,1.31.72,1.92.14.15.31.32.49.45-.29.8-1.38,1.68-.88,2.77.03.09.06.21.12.3.08.28.27.58.6.82.03.02.07.03.07.05-.62.85-1.14,2.1-.64,3.01.01.06.04.18.15.21.66.86,1.03,1.53.7,2.65-.09.56-.27,1.22.08,1.63.39.52.88.99,1.71,1.04-.26.61-.41,1.19-.42,1.69,0,.52.14.95.44,1.25.11.17.24.31.39.43.24.43.88.62,1.69.46.19-.02.37-.04.6-.12.23.64-.2,1.71.58,1.92.05.02.14.03.22.04,0,0,.04,0,.06.03l.04-.03c.08.59-.07,1.26.41,1.56.52.32,1.1.35,1.56.32.47-.03.81-.13.81-.13.59-.12,1.42-.38,2.25-.71,1.66-.67,3.37-1.64,4.64-2.74,1.27-1.09,2.08-2.35,2.07-3.28v-.94c.25-1.04-.69-1.47-1.4-1.7l.15-.11c.27-1.08-.42-1.5-1.17-1.68-.05-.03-.26-.13-.37-.19.02-.08.02-.15.02-.21.08-.25-.11-.36.05-.66.02-.03.04-.06.03-.07.13-.23.11-.37.13-.53-.02-.05-.03-.1-.05-.15.09-.43-.22-.62-.48-.77-.1-.12-.44-.1-.76-.08,0-.01.03-.06.04-.07.14-.24.49-.59.54-.78.18-.23.19-.36.22-.48,0-.02.01-.06-.03-.08.01-.2.02-.38-.2-.42-.09-.07-.32-.1-.64-.06-.3.02-.76.09-.82-.01.13-.13.23-.24.44-.37l.03-.04c.06-.04.09-.08.14-.14.33-.23-.1-.27-1.01-.47,1.25-.33.86-.6.37-1.12-.03-.03-.06-.17-.15-.26.1,0,.14-.04.19-.07.17-.1.27-.22.53-.28.24-.02.33-.09.46-.15.04-.03.09-.06.1-.1.32-.14.26-.45.23-.74-.01-.17-.23-.41-.46-.65.03,0,.08-.01.08-.02.15-.03.35-.04.52-.05.17-.01.32,0,.47-.19.38-.14.55-.46.74-.73.05-.03.08-.1.13-.22.31-.47.64-1.08.71-1.62.08-.42.08-.84-.11-1.21-.11-.38-.46-.71-.36-1.08.39-.28.61-.59,1-.95,0,0,.14-.13.1-.13.14-.13.27-.27.39-.44l.03-.08c.86-1.21.5-1.94.14-2.38.32-.31.32-.61.81-.95.02-.02.05-.06.07-.08.35-.26.52-.5.72-.77.08-.1.16-.23.19-.33.49-.64.53-1.26.5-1.74-.02-.23-.13-.7-.45-.87,1.22-1.35.99-2.28.47-2.75-.03-.06-.12-.26-.17-.37.08-.11.13-.21.17-.3.25-.35.14-.56.48-.96.04-.04.08-.09.08-.1.26-.31.34-.53.45-.78,0-.08.02-.17.03-.25.31-.65.11-1.05-.11-1.36-.06-.23-.38-.26-.71-.26.01-.02.05-.09.06-.11.2-.39.62-.95.71-1.3.22-.38.22-.66.24-.92,0-.04,0-.12-.04-.19.01-.42-.07-.86-.35-1.04-.15-.21-.42-.31-.77-.27-.32,0-.79.17-.91-.06.05-.33.05-.63.12-1.05v-.12c0-.09,0-.17-.03-.31,0-.03,0-.09-.01-.16-.08-.87-.81-1.19-1.76-.93.36-1.76-.74-2.2-1.67-2.34-.06-.01-.33-.14-.5-.15,0-.06.23-.69.15-1.24-.03-.28-.16-.53-.43-.67-.27-.13-.65-.22-1.25.01Z" fill="#f9c316"/>
        <path d="M9.87,188.14c-.62.65-.77,1.72-.59,2.7.04.23.09.5.17.73-.85.9-2.31,1.5-2.55,2.9-.03.12-.08.26-.08.39-.11.35-.14.74,0,1.2.02.04.04.07.03.09-1.04.67-2.26,1.46-2.46,2.71-.03.07-.08.2-.02.31-.02,1.29-.36,2.25-1.38,3.2-.5.55-1.09,1.05-1.2,1.83-.13.9-.11,1.92.38,2.79-1.34.95-2.12,2.42-2.16,4.01-.05.37-.01.74.03,1.1-.07,1.02.29,2.07,1.09,2.81.18.21.36.4.6.55-.03.7-.26,1.43-.39,2.19-.11.72-.09,1.31.28,1.94.05.09.14.21.22.32,0,.02.05.06.05.11-.72,1.24-1.38,2.69-.79,4.01.09.34.23.63.35.93.22.9.85,1.67,1.81,2.1.14.09.3.14.42.2.05.81.01,1.43.13,2.04.11.61.36,1.23,1.15,2.01.86.39.99,1.76,1.09,2.65.14.79.23,1.63.82,2.22.33.39.69.77,1.09,1.08.4.31.93.49,1.47.57.08,1.69.71,3.43,2.17,4.35.28.24.62.45.92.67.74.73,1.91.92,2.96.75.25-.03.53-.08.77-.16.54.41.97,1.09,1.49,1.55.52.48,1.1.9,1.86.98.13.03.28.07.43.07.39.08.8.12,1.25-.06.04-.02.07-.04.1-.03.8.99,1.78,2.08,3.06,2.24.07.03.21.07.31,0,1.28-.11,2.3.05,3.3,1.05.59.49,1.09.97,1.84,1,.86.05,1.79,0,2.59-.54.96,1.23,2.16,2.03,3.56,2.05.32.05.62.06.92.04.83.14,1.72-.21,2.41-.9.19-.15.36-.29.52-.51,1.12.29,2.21,1.38,3.48.92.09-.03.22-.08.34-.14.02,0,.07-.03.11-.03v-.05c1.01.34,2,.89,3.17.73.21-.23.46-.7.74-1.1.34-.51.49-.74.49-.74.59-.82,1.19-1.64,1.65-2.28,1.27-1.76,2.53-3.7,2.77-5.35.28-1.65-.54-2.99-2.28-3.53l-1.82-.55c-.21-.1-.43-.18-.66-.25-.21-.07-.54-.11-.64-.15-.29-.07-.6-.08-.9-.06-.61.05-1.23.26-1.76.45v-.19c-.54-.46-1.15-.62-1.75-.62-.6-.02-1.2.13-1.76.33-.1.02-.48.09-.68.12-.09-.08-.19-.12-.28-.16-.27-.23-.67-.17-.91-.5-.02-.04-.05-.07-.07-.07-.19-.25-.42-.34-.65-.48-.09-.03-.2-.06-.3-.08-.56-.39-1.25-.34-1.88-.27-.36-.02-.74.22-1.11.46-.01-.01-.07-.07-.08-.08-.28-.28-.48-.81-.8-1.01-.2-.32-.49-.45-.76-.57-.05-.01-.12-.06-.25-.05-.44-.2-.95-.37-1.46-.28-.35-.04-.73.06-1.1.29-.38.2-.78.57-1.13.5-.23-.24-.51-.42-.75-.73l-.11-.07c-.07-.1-.19-.18-.35-.32-.66-.63-1.63-.51-2.65.05-.21-.8-.59-1.23-1.08-1.45-.24-.11-.53-.16-.8-.21-.26-.06-.53-.08-.81-.09-.07,0-.36-.13-.55-.13,0-.12-.04-.19-.09-.26-.15-.27-.38-.46-.41-.82.02-.29-.06-.46-.14-.67-.03-.07-.07-.16-.14-.21-.14-.51-.68-.66-1.05-.93-.23-.17-.6-.15-.98-.14.01-.03.01-.09,0-.1.02-.38.21-.81.14-1.09.09-.31,0-.57-.07-.79.01-.04-.02-.09-.07-.17-.12-.38-.31-.72-.66-.93-.26-.16-.53-.36-.94-.42-.35-.12-.87-.13-1.07-.38.1-.33.04-.59.08-.94,0,0,.01-.12-.02-.11.02-.13.05-.27.03-.42l-.02-.06c-.08-1.04-.88-1.46-1.53-1.8.09-.3-.08-.6.17-.93,0-.02.01-.06.01-.08.18-.25.19-.47.23-.71.01-.09.02-.2,0-.3.14-.59-.22-1.09-.42-1.65-.11-.25-.43-.79-.82-1.1.32-.59.35-1.16.21-1.69-.09-.46-.3-.79-.6-1.16-.04-.07-.17-.32-.24-.46.05-.07.1-.15.14-.22.21-.22.13-.52.44-.72.03-.01.07-.04.07-.06.24-.15.31-.32.42-.49.01-.07.03-.15.04-.22.34-.43.29-.98.19-1.48.02-.29-.27-.6-.48-.93.02-.01.07-.05.09-.07.3-.22.81-.37,1.01-.62.31-.15.44-.39.56-.61.01-.05.06-.1.05-.21.22-.36.45-.79.39-1.24.04-.32-.05-.69-.27-1.07-.17-.38-.49-.79-.38-1.12.26-.19.47-.43.8-.61l.08-.09c.1-.07.18-.17.32-.33.68-.61.7-1.56.22-2.66.82-.16,1.29-.54,1.57-1.05.14-.25.22-.54.29-.83.08-.28.12-.58.16-.88.01-.07.16-.39.18-.59.12,0,.2-.05.27-.1.29-.17.52-.4.88-.47.31,0,1.03-1,1.03-1,.21-.21.32-.53.36-.88.06-.34.03-.74-.05-1.16-.04-.2-.08-.43-.15-.65.37-.26.86-.41,1.33-.56.47-.14.87-.33,1.05-.83.04-.08.1-.17.12-.27.13-.23.21-.54.2-.92,0-.04-.01-.07,0-.08.51.04,1.02.09,1.45.04.44-.05.8-.21,1.06-.49.04-.02.12-.06.11-.17.42-.73,1-1.26,1.94-.81.49.14.94.37,1.28.11.41-.21.81-.54,1.07-1.33.11.11.2.2.32.29.14.1.28.18.42.26.28.16.57.29.85.38.56.18,1.12.2,1.65.05.26-.03.49-.09.72-.18.69-.06,1.3-.51,1.75-1.32.13-.18.25-.35.34-.59.97.12,1.92,1.04,2.87.54.07-.03.17-.1.26-.16.02,0,.05-.03.09-.03.79.96,1.57,1.87,2.4,1.79.21.02.41-.02.59-.01.51.13,1.11-.24,1.66-.83.09-.08.18-.19.26-.28.78.7.88,1.3,2.11,1.1.58-.36,1.01.38,1.17.9.17.45.24.96.64,1.07.46.18.97.37,1.79.08-.07.66-.08,1.24.02,1.7.09.5.3.88.67,1.15.13.16.31.28.47.42.33.43,1.05.66,1.93.61.2,0,.44-.01.67-.05.42.85.14,2.14,1.1,2.71.08.06.16.13.26.17.23.17.51.33.92.39.04,0,.08,0,.09.01-.1,1.07-.21,2.22.49,2.91.03.05.08.15.2.15.84.6,1.35,1.31,1.17,2.49-.02.63-.16,1.26.23,1.74.43.57.95,1.16,1.83,1.39-.25.67-.41,1.33-.42,1.96,0,.31.03.61.1.89.2.55.47,1.14.76,1.67.24.53.48,1.01.76,1.46.59,1.43,1.59,2.59,2.57,2.97.24.15.47.26.72.27.33.97.53,2.16.83,3.33.29,1.16.67,2.32,1.26,3.05.08.11.21.25.32.34.02.04.06.07.1.14l.03-.06c.58,2.03,1.11,4.51,2.07,6.16,2.14,3.67,3.08,2.37,3.08,2.37.5-.29.97-1.31,1.27-2.81.61-2.99.74-7.6.83-11.37.07-3.84.13-6.95.08-8.32-.02-.48-.03-.93-.04-1.36.12-1.67-.2-1.19-.61-1.06l.1-.25c.27-1.48.02-1.34-.51-1.29-.03,0-.16-.05-.23-.08.03-.09.04-.16.05-.22.11-.26-.02-.33.18-.62.02-.03.05-.06.04-.07.16-.22.19-.33.25-.46,0-.03,0-.07,0-.1.1-.16.1-.26.06-.32,0-.01-.02-.03-.04-.04l-.14-.21c-.11-.15-.22-.29-.32-.43-.2-.36-.62-.58-1.04-.78,0-.02.01-.1.01-.13.06-.43.33-.94.27-1.37.11-.39.01-.75-.08-1.09-.03-.06-.03-.15-.13-.27-.16-.55-.39-1.17-.82-1.6-.25-.36-.62-.66-1.09-.84-.45-.21-1.02-.31-1.25-.68-.02-.39-.1-.79-.1-1.25l-.05-.15c0-.15-.06-.32-.13-.59-.24-1.14-1.23-1.98-2.5-2.31.32-1.85-1.01-3.1-2.32-3.92-.08-.06-.42-.4-.64-.53.02-.14-.02-.25-.07-.37-.16-.42-.37-.83-.44-1.29,0-.36-.14-.63-.27-.94-.06-.12-.13-.26-.22-.37-.29-.78-1.09-1.35-1.74-1.85-.42-.32-.96-.41-1.48-.49,0-.04-.03-.12-.05-.14-.16-.52-.19-1.11-.51-1.54-.11-.47-.47-.82-.78-1.15-.03-.06-.12-.13-.28-.24-.57-.52-1.21-1.05-1.95-1.28-.55-.21-1.13-.34-1.71-.27-.58,0-1.18.22-1.7.04-.29-.42-.71-.63-1.12-1.02,0,0-.16-.13-.17-.1-.16-.13-.31-.27-.54-.39l-.1-.04c-.77-.4-1.49-.54-2.12-.54-.63.03-1.17.17-1.62.32-.35-.27-.86-.25-1.16-.64-.02-.01-.07-.04-.1-.05-.25-.28-.55-.4-.88-.55-.13-.06-.28-.12-.43-.13-.76-.34-1.74-.32-2.54-.22-.38.05-1.23.23-1.75.54-.69-.42-1.47-.55-2.21-.49-.73.07-1.44.32-2.08.61-.11.04-.54.18-.77.26-.12-.06-.24-.08-.36-.1-.37-.17-.82-.03-1.17-.3-.03-.03-.08-.06-.1-.06-.28-.2-.56-.23-.87-.3-.12,0-.26,0-.37.01-.78-.21-1.58.06-2.26.33-.42.1-.78.45-1.1.8-.02,0-.1-.04-.12-.05-.44-.16-1.03-.49-1.59-.5-.46-.16-.97-.11-1.45-.05-.09.02-.21.02-.41.1-.81.07-1.6.38-2.25.82-.52.27-.98.67-1.28,1.16-.36.45-.5,1.1-.97,1.37-.45.05-.93.2-1.47.23l-.18.06c-.18.02-.38.1-.71.2-1.29.44-2.24,1.63-2.54,2.99-1.95.04-3.24,1.62-3.82,3.14-.05.09-.35.49-.45.74-.07,0-.7-.25-1.41-.08-.7.17-1.42.82-1.63,2.42Z" fill="#f9c316"/>
        <path d="M93.84,284.06c.65-.03,1.21-.62,1.52-1.45.08-.19.16-.41.22-.63.83-.07,2.01.7,2.69-.11.07-.06.15-.12.21-.21.2-.17.38-.4.48-.79,0-.04,0-.07.02-.08.9.37,1.95.73,2.56.12.04-.02.13-.06.14-.17.53-.73,1.1-1.11,2.13-.8.52.07,1.06.24,1.43-.1.44-.38.86-.86.92-1.67,1.2.55,2.25.6,2.94-.04.18-.11.34-.24.47-.4.51-.27.77-.93.67-1.8,0-.2,0-.4-.06-.64.72-.29,1.92.06,2.3-.85.03-.06.06-.16.08-.26.01,0,.02-.05.04-.07,1.11.34,2.27.54,2.81-.12.16-.12.28-.29.41-.43.45-.31.62-1,.46-1.82,0-.12-.05-.26-.07-.37.99-.21,1.63-.06,2.07-1.28-.09-.71.8-.78,1.35-.83.5-.04,1.05,0,1.26-.41.33-.42.57-.96.39-1.77,1.25.3,2.31.21,2.78-.52.13-.13.23-.31.34-.46.39-.32.46-1.02.24-1.82-.05-.18-.11-.4-.19-.6.62-.4,1.86-.24,2.01-1.16.03-.07.06-.15.06-.25.08-.22.1-.48,0-.84-.01-.03-.03-.07-.02-.08.91-.01,1.89-.06,2.17-.76.03-.03.09-.09.05-.19.15-.8.47-1.32,1.46-1.35.49-.08,1.03-.07,1.23-.47.25-.45.44-.99.2-1.75.31.05.61.07.89.07.14,0,.27,0,.4-.02l.19-.02s.04.08.05.11c.2.19.29.28.23.22,0,0-.01-.01-.05-.06.03.04-.21-.3-.55-1.05-.08-.2-.16-.37-.24-.56.21.05.64,1.08.51.47,0-.05-.02-.13-.03-.2v-.04s-.02-.06-.02-.06c.16.26.29.9.28.58-.03-.71.09-3,.09-3,.09-1.28.19-2.67.27-3.91.05-.75.1-1.46.15-2.16.09-1.47.17-2.94.17-4.26.01-1.84-.1-3.42-.37-4.47-.27-1.06-.71-1.58-1.24-1.47-.28.06-.56.13-.86.21-.86-.21-1.82,1.75-2.39,3.13l-.06-.23c-1.08-.05-2.03,1.54-2.56,2.95-.06.11-.28.53-.39.75-.11.02-.19.07-.28.12-.32.06-.56.48-.94.45-.03-.01-.08,0-.1,0-.3-.02-.52.14-.78.28-.08.08-.18.17-.27.25-.69.32-1.15,1.12-1.53,1.79-.06.08-.14.2-.21.33-.06.12-.03.16-.04.25,0,.16.04.34.07.52-.02,0-.08,0-.09,0-.33,0-.82-.15-1.09-.07-.32-.05-.52.07-.71.17-.03.03-.09.04-.12.13-.31.18-.62.41-.71.79-.13.23-.16.55-.07.93.06.37.26.84.1,1.04-.27.03-.51.13-.84.13l-.09.04c-.1,0-.2.06-.36.12-.7.23-.86,1-.58,2.02-1.45-.28-1.81.68-1.96,1.62-.01.06-.15.28-.18.44-.11-.04-.18-.02-.25,0-.26.06-.49.18-.8.16-.26-.07-.42-.01-.61.03-.07.02-.15.05-.2.1-.47.08-.69.52-.9.88-.14.21-.1.57-.05.93-.03-.02-.08-.01-.09,0-.35-.04-.79-.23-1.06-.17-.33-.1-.52.02-.72.11-.04,0-.08.03-.14.08-.32.15-.61.36-.74.7-.12.24-.17.56-.11.93,0,.34.16.81.01,1.02-.31-.05-.51.04-.83.03,0,0-.11,0-.09.03-.11,0-.22,0-.33.05l-.04.03c-.76.28-.77,1.07-.76,1.69-.25-.02-.38.2-.72.04-.01,0-.05,0-.06,0-.25-.1-.41-.06-.6-.05-.07.01-.15.03-.21.07-.46.02-.71.41-.94.74-.11.16-.28.59-.29,1-1.07-.28-1.51.41-1.75,1.22-.03.06-.16.28-.22.39-.09-.02-.15-.01-.22,0-.26-.06-.4.14-.7-.03-.03-.02-.07-.04-.08-.03-.24-.13-.39-.12-.57-.12-.05.02-.12.05-.17.07-.47-.07-.73.28-.96.61-.17.14-.19.5-.21.86-.01,0-.07-.03-.08-.03-.29-.12-.67-.44-.92-.46-.26-.16-.46-.14-.64-.12-.03.01-.08,0-.13.07-.3.04-.61.12-.77.43-.16.17-.26.41-.28.78-.05.34,0,.83-.19.94-.23-.09-.44-.1-.71-.24h-.08c-.08-.04-.17-.04-.31-.05-.61-.08-.93.4-1.05,1.44-.5-.49-.88-.55-1.19-.45-.31.09-.55.4-.78.76-.03.04-.21.15-.28.27-.06-.09-.11-.11-.17-.13-.2-.09-.39-.11-.57-.34-.14-.22-.79-.05-.79-.05-.32,0-.61.54-.84,1.24-.06.16-.12.36-.17.56-.53-.16-1.01-1.04-1.52-.6-.05.03-.1.05-.15.11-.14.08-.3.23-.46.55-.01.03-.03.06-.03.06-.19-.34-.38-.68-.58-.91-.2-.24-.4-.4-.65-.3-.03,0-.08-.02-.13.07-.52.35-1,.42-1.25-.44-.17-.38-.26-.83-.57-.79-.35.04-.75.1-1.29.61-.06-1.19-.25-1.89-.83-2.04-.12-.07-.24-.1-.38-.11-.29-.21-.82-.02-1.47.49-.16.1-.3.19-.48.35-.38-.48-.29-1.6-1.09-1.51-.05,0-.15.02-.23.04,0,0-.05,0-.06,0,.14-1.09.24-2.14-.34-2.36-.11-.09-.26-.13-.39-.19-.28-.28-.88-.24-1.6.09-.11.03-.23.1-.33.14-.21-.86-.07-1.39-1.16-1.6-.64.19-.7-.6-.71-1.1,0-.45.06-.94-.29-1.09-.36-.27-.82-.45-1.59-.24.4-1.18.44-2.07-.15-2.52-.09-.13-.25-.22-.37-.32-.24-.37-.87-.44-1.66-.26-.18.04-.4.08-.6.15-.29-.59.08-1.71-.73-1.95-.06-.03-.13-.07-.22-.08-.19-.09-.43-.14-.79-.09-.03,0-.07.02-.08,0,.17-.86.33-1.75-.25-2.1-.02-.03-.06-.09-.16-.07-.72-.24-1.13-.63-.91-1.56.05-.47.2-.96-.13-1.21-.36-.29-.8-.58-1.58-.51.52-1.12.67-2.08.11-2.62-.09-.15-.21-.27-.35-.38-.22-.41-.82-.61-1.64-.5-.19,0-.37.01-.61.07-.2-.67.29-1.76-.53-2.11-.05-.03-.15-.06-.24-.08,0-.01-.05-.02-.06-.04l-.04.03c-.02-.17-.03-.34-.03-.51-.06-.25-.16-.59-.26-.88-.2-.6-.48-1.2-.92-1.71-1.97-2.31-3.37-1.94-3.37-1.94-.67,0-1.44.36-2.08,1-1.3,1.27-2.29,3.41-3.11,5.23-.8,1.85-1.45,3.34-1.64,4.02-.06.24-.13.46-.21.67-.22.4-.22.54-.09.61.07.03.16.05.28.05h.04c-.03-.06-.01-.04,0-.03l.04.02.15.08c.1.05.2.1.29.15l-.16.1c-.3,1.13.44,1.74,1.26,2.11.06.04.28.21.4.3-.02.09-.01.17,0,.25-.06.29.16.47,0,.8-.02.03-.04.07-.03.08-.11.26-.08.43-.07.64.03.06.06.14.09.21-.02.54.38.88.75,1.17.17.21.55.26.92.29,0,.02-.02.08-.02.1-.07.33-.33.78-.3,1.08-.12.31-.04.55.02.78.02.04.03.1.11.16.12.36.3.75.67.94.21.2.53.32.93.33.38.04.89-.05,1.07.17-.01.28.05.55,0,.9l.03.1c0,.11.03.22.07.4.14.77.93,1.14,2.02,1.06-.47,1.45.48,2.06,1.49,2.37.06.02.29.21.45.26-.04.11-.02.19,0,.26.05.29.17.54.13.87-.08.27-.03.45.01.66.02.08.05.17.1.24.06.53.53.83.94,1.1.24.18.63.17,1.01.16-.01.03-.01.09,0,.1-.03.38-.2.83-.12,1.13-.09.36.06.58.17.81,0,.04.03.09.1.17.18.37.48.71.86.88.28.15.63.23,1.04.18.37,0,.87-.15,1.12.02,0,.34.13.57.19.92,0,0,.03.12.05.1.02.12.06.24.14.36l.04.04c.51.85,1.39.85,2.06.79.06.28.33.4.27.8,0,.02.02.05.02.07-.03.29.07.46.17.67.04.08.09.16.16.22.21.52.76.75,1.23.97.22.1.77.24,1.22.18.27,1.21,1.37,1.57,2.37,1.62.08.02.39.1.57.13.04.1.09.17.14.24.11.29.45.37.5.75,0,.04.01.08.03.09.05.29.19.45.33.65.07.05.15.11.22.16.33.53.94.69,1.53.76.32.11.72-.03,1.11-.19,0,.02.04.08.05.1.17.33.25.87.51,1.13.13.34.37.54.63.69.05.02.11.07.24.08.41.25.92.49,1.43.45.37.05.77-.03,1.15-.26.39-.19.78-.6,1.13-.55.24.22.53.39.81.68l.12.06c.09.09.23.15.43.26.83.55,1.9.17,2.7-.67,1.01,1.38,2.43.92,3.47.3.07-.03.42-.11.59-.21.04.04.27.69.73,1.02.45.34,1.17.42,2.01-.58Z" fill="#f9c316"/>
        <path d="M134.29,256.33s.31-.27.86-.76c.12-.11.27-.24.42-.37-.08.14-.8.82-.39.5.03-.02.06-.04.1-.07.1-.07.22-.16.47-.35.03-.02.05-.04.05-.04-.47.44-.99.88-.75.73,0,0,0,0,.08-.05.39-.23.48-.31-.04.18-.21.23-.51.51-.36.5.15,0,.38-.05.99-.39-.78.7-1.23,1.18-1,1.19.02.03.06.04.13.03.02.1.41-.07,1.07-.45.14-.08.29-.16.48-.28-.08.21-.81.87-.31.69.03-.01.09-.04.15-.06h.03c-.71.63-1.36,1.24-1.13,1.25.02.03.08.02.12.03.01.1.43-.08,1.06-.44.09-.05.2-.11.29-.16-.31.4-.72.76-.09.55.52-.28.17.11-.07.37-.21.23-.51.52-.34.49.12.02.35-.03.98-.38-.81.72-1.27,1.2-1.05,1.22.01.03.08.02.12.03,0,.1.43-.08,1.05-.44.14-.08.31-.18.48-.28-.06.19-.79.86-.3.68.03,0,.06-.01.12-.04.1-.02.25-.09.53-.24.03-.02.06-.03.06-.03-.47.46-.96.96-.67.9,0,0,0,.02.09-.03.43-.16.58-.14.06.38-.22.23-.52.52-.38.51.14,0,.37-.04.97-.38-.79.7-1.26,1.2-1.05,1.22.01.03.05.04.12.03,0,.1.39-.06,1.04-.43.14-.08.28-.16.48-.27-.09.21-.83.89-.35.71.03-.01.09-.04.15-.06h.03s.04-.04.04-.04c-.18.26-.53.65-.29.63.55-.04,1.75-.75,1.75-.75.5-.28,1.23-.72,1.97-1.2,2.97-1.93,6.4-4.55,7.09-5.37l.35-.42c.58-.56.08-.41-.35-.27l.16-.11c.63-.61.3-.57-.19-.39-.03,0-.14.03-.19.04.05-.05.07-.08.09-.11.15-.15.05-.14.28-.34.03-.02.05-.05.05-.05.18-.16.22-.22.29-.31v-.06c.23-.25.06-.23-.1-.21-.04-.02-.3.11-.56.24,0,0,.04-.04.05-.05.18-.17.54-.47.63-.59.2-.18.24-.26.28-.33,0,0,.02-.03-.01-.03.06-.11.08-.22-.11-.16-.07,0-.26.06-.54.22-.26.13-.66.36-.7.34.12-.13.18-.23.35-.4l.02-.03c.05-.05.07-.09.11-.15.22-.3-.18-.17-.99.27.94-.84.52-.76-.03-.55-.03.01-.11,0-.2.04.08-.07.1-.1.12-.13.09-.12.13-.2.3-.37.18-.16.22-.22.29-.31.02-.03.04-.06.04-.08.19-.22.01-.21-.13-.2-.08,0-.34.13-.6.26.03-.02.05-.05.05-.05.2-.19.53-.47.62-.59.23-.2.24-.26.27-.33.02-.02.02-.03.01-.05.05-.12.05-.2-.12-.16-.1.01-.29.08-.58.24-.24.11-.63.35-.71.34.17-.17.21-.24.35-.4,0,0,.05-.05.02-.03.05-.05.09-.11.11-.15h0c.15-.3-.38-.04-.82.17.12-.13.02-.11.27-.33,0,0,.02-.02.02-.03.18-.16.22-.22.29-.31.02-.03.04-.06.04-.08.18-.22,0-.2-.13-.2-.07,0-.3.07-.59.21.62-.6.27-.55-.22-.37-.03,0-.14.03-.2.04.05-.05.07-.08.09-.11.15-.15.04-.13.27-.33.03-.02.05-.05.05-.05.18-.16.22-.22.28-.31v-.05c.22-.24.04-.22-.13-.19-.05-.02-.31.11-.58.25,0,0,.04-.04.05-.05.17-.17.53-.47.62-.59.2-.18.24-.26.27-.33,0,0,.02-.03-.02-.03.05-.11.07-.21-.12-.16-.08,0-.25.08-.58.19-.29.1-.7.32-.77.26.1-.16.14-.28.28-.49v-.05c.05-.06.06-.11.08-.2.15-.4-.33-.34-1.13.1.81-1.02.29-1.04-.29-.85-.03,0-.13-.02-.22.01.06-.08.08-.12.09-.17.06-.16.06-.28.19-.5.14-.21-.11-.42-.11-.42-.06-.16-.48.03-1.05.48-.13.1-.29.22-.43.35-.01-.27.52-1.22.04-1-.03,0-.07.01-.12.05-.1.03-.24.1-.49.32-.02.02-.05.04-.05.04.32-.66.63-1.4.32-1.34,0-.01-.02-.03-.09.04-.4.21-.57.18-.26-.61.12-.36.3-.82.14-.82-.16-.02-.39.04-.86.57.49-1.12.7-1.94.44-1.99-.03-.06-.08-.08-.15-.06-.07-.18-.4.09-.87.73-.11.13-.21.27-.34.48-.02-.35.35-1.52-.04-1.2-.03.02-.07.06-.12.11,0,0-.02.02-.03.02.36-1.13.64-2.26.41-2.29-.03-.06-.1-.04-.15-.06-.08-.19-.38.15-.78.84-.05.09-.13.22-.18.31.07-.75.23-1.46-.24-1.02-.32.57-.22-.19-.16-.7.06-.46.15-1.04,0-.97-.13-.03-.31.08-.66.84.28-1.47.36-2.49.14-2.51-.03-.06-.09-.04-.14-.05-.08-.2-.33.22-.64,1.02-.07.19-.15.41-.23.63-.07-.37.1-1.85-.19-1.39-.02.02-.05.04-.08.11-.06.07-.15.22-.28.61-.01.04-.03.08-.03.08.08-1.02.13-2.14-.07-1.95,0-.01-.02-.04-.06.08-.24.42-.37.44-.32-.75,0-.54.03-1.21-.08-1.16-.12.03-.27.19-.49,1.06.1-1.69.07-2.89-.13-2.89-.04-.07-.08-.08-.12-.04-.09-.23-.27.23-.46,1.25-.05.21-.09.43-.14.75-.09-.47-.09-2.19-.31-1.64-.01.03-.04.11-.06.19,0,0-.01.04-.02.03v.08c-.09-.62-.15-1.61-.32-1.48-.37.3-.59,2.4-.59,2.4-.11.84-.22,2.14-.31,3.55-.34,5.68-.5,12.93-.56,14.65l-.02.89c-.06,1.31.02.55.11-.07l-.02.3c-.08,1.38-.03.95.08.24,0-.04.03-.17.05-.25,0,.1-.01.16-.02.22-.03.32,0,.21-.05.67,0,.05,0,.1-.01.11-.03.34-.04.46-.06.64,0,.02,0,.05,0,.07-.05.49-.01.29.03.09.01-.02.07-.43.14-.84,0,.02-.01.09-.01.1-.05.36-.13,1-.16,1.26-.04.34-.06.47-.08.62,0,0,0,.05,0,.01-.02.17-.03.29.02.03.03-.15.08-.38.15-.77.08-.4.2-1.02.21-1.04-.04.24-.06.42-.11.74v.05c-.02.08-.03.14-.05.25-.08.5.04-.03.32-1.21-.34,1.7-.21,1.19,0,.5.01-.03.04-.13.07-.21-.03.12-.04.17-.05.23-.04.19-.07.32-.13.61-.07.28-.09.38-.13.53,0,.04-.01.07-.02.1-.09.36-.03.19.02.05.05-.14.14-.43.25-.76-.01.04-.02.08-.02.08-.1.34-.24.84-.3,1.04-.09.31-.11.39-.15.51-.01.04-.01.05-.01.05-.04.14-.05.19.01.01.06-.15.13-.36.26-.69.11-.29.31-.81.34-.87-.09.26-.12.37-.2.61,0,0-.03.08-.01.04-.02.07-.05.14-.07.21h0c-.11.35.15-.29.39-.8-.07.19-.02.11-.17.48,0,0-.01.03-.01.04-.1.24-.13.33-.18.46-.01.03-.02.06-.03.08-.12.3-.04.15.02.04.05-.09.17-.32.32-.6-.4.9-.25.59.04.12.02-.03.08-.12.11-.17-.03.06-.05.1-.07.14-.1.21-.05.12-.21.42-.02.03-.03.06-.04.07-.11.22-.15.29-.21.41l-.02.04c-.16.3-.07.16.02.02.06-.09.2-.31.36-.55,0,.01-.03.05-.04.06-.14.23-.38.63-.48.79-.13.21-.18.29-.24.38,0,0-.02.03,0,0-.06.1-.11.17.01,0,.07-.1.18-.25.36-.5.18-.25.47-.64.49-.65-.1.15-.17.26-.31.45l-.02.03c-.03.05-.06.09-.11.15-.21.3.06-.04.68-.75-.8,1.02-.53.7-.11.29.02-.02.08-.08.14-.13-.06.09-1.75,1.86-.5.62Z" fill="#f9c316"/>
        <path d="M132.53,217.03c-.29,0-.53.14-.71.36-.19.22-.36.54-.47.92-.06.17-.12.38-.16.59-.59-.07-1.33-.92-1.83-.31-.05.04-.1.08-.14.16-.14.13-.26.32-.34.67,0,.03,0,.07-.02.07-.6-.53-1.28-1.07-1.71-.67-.03,0-.09.02-.1.12-.38.56-.77.78-1.44.23-.35-.22-.71-.54-.98-.34-.32.22-.61.54-.7,1.28-.77-.86-1.49-1.31-2-.96-.13.04-.24.11-.34.2-.35.07-.58.58-.59,1.38-.02.18-.03.36-.01.59-.52-.02-1.3-.79-1.65-.13-.03.04-.06.12-.08.2,0,0-.02.04-.03.05-.72-.75-1.49-1.41-1.93-1.07-.12.04-.22.14-.32.2-.34.07-.52.61-.52,1.38-.01.11,0,.24,0,.35-.7-.26-1.11-.69-1.57.15-.04.64-.64.31-1.02.08-.34-.21-.71-.51-.9-.27-.28.19-.53.51-.53,1.28-.78-.87-1.46-1.32-1.88-.99-.11.03-.2.13-.29.19-.32.06-.39.55-.66,1.42-.04.19-.09.42-.1.63-.76.11-1.88-.43-2.35.39-.05.06-.1.13-.13.22-.13.18-.23.42-.23.8,0,.03.01.07,0,.08-.84-.26-1.8-.45-2.16.15-.03.02-.09.06-.07.16-.25.72-.57,1.11-1.48.92-.46-.03-.94-.16-1.13.17-.25.36-.41.8-.19,1.52-1.11-.42-1.99-.5-2.32.04-.1.09-.18.2-.23.33-.3.22-.28.76.06,1.48.06.17.12.33.24.53-.49.2-1.49-.2-1.5.5,0,.05,0,.13.02.2,0,0,0,.04,0,.05l.03.04c-.49.07-1.12-.04-1.27.39-.33.96.33,2.21.33,2.21.24.55.65,1.31,1.14,2.06.98,1.5,2.24,3,3.48,4.11,1.23,1.11,2.49,1.8,3.27,1.79h.8c.93.21,1.1-.64,1.15-1.29l.13.14c1,.23,1.23-.4,1.23-1.1.01-.05.06-.24.09-.34.08.02.14.01.19,0,.24.06.31-.13.6,0,.03.02.07.03.07.03.23.11.36.09.51.09.04-.02.09-.04.13-.06.42.04.52-.26.61-.54.09-.12,0-.44-.09-.73.01,0,.06.02.07.02.26.09.67.36.87.37.26.14.4.1.53.08.02-.01.06,0,.08-.06.21-.03.42-.1.43-.36.06-.12.04-.35-.07-.67-.09-.3-.28-.74-.19-.83.19.08.34.1.57.23h.06c.07.04.13.04.23.06.43.15.42-.35.15-1.23.91.92.92.47.94-.14,0-.03.05-.12.06-.22.05.09.08.12.11.14.04.06.14.08.24.11.1.04.21.08.32.17.17.19.31.22.46.28.06.02.12.03.18.02.37.17.64-.09.88-.3.16-.12.21-.45.26-.77.02.03.06.05.07.05.25.2.53.56.74.64.22.24.39.22.55.24.03.02.06.01.13,0,.27.02.54-.03.7-.26.14-.15.25-.39.28-.75.07-.3.05-.78.2-.9.22.17.38.19.62.33,0,0,.08.04.07.01.08.04.16.09.25.09h.03c.62.07.77-.6.87-1.15.18.12.31-.03.54.25.01,0,.03.02.04.02.17.19.29.22.44.28.05.02.11.04.17.02.35.17.6-.08.82-.29.1-.1.3-.4.37-.77.75.64,1.19.16,1.47-.47.03-.04.15-.19.22-.27.06.05.11.07.16.09.19.15.32.01.52.26.02.03.04.06.05.05.16.2.28.23.41.29.04,0,.1,0,.14,0,.35.21.58-.02.79-.25.14-.07.2-.4.25-.72.01,0,.05.04.06.05.2.19.46.6.65.69.19.22.34.25.48.29.02,0,.06.02.11-.03.23.05.48.05.62-.19.13-.1.23-.33.28-.68.06-.32.07-.8.21-.86.16.13.32.2.51.4l.06.02c.06.06.13.07.23.12.44.26.72-.24.84-1.2.69,1.13,1.09.64,1.39.01.02-.04.14-.11.19-.22.04.1.08.12.11.16.12.13.25.18.36.41.1.22.17.14.17.14.05.04.1-.42.24-1.15.04-.17.08-.38.11-.56.17.16.08,1.14.32.65.02-.03.04-.06.08-.12.07-.09.15-.24.31-.54.01-.03.03-.06.03-.06-.06.67-.28,1.35-.06,1.13,0,0,.02.01.07-.08.31-.35.5-.33.16.33v.03c-.13.31-.31.65-.17.62.16-.01.37-.13.97-.49-.47,1.02-.66,1.77-.21,1.97.07.08.16.13.27.16.16.23.67.16,1.38-.16.16-.06.32-.12.53-.24.13.44-.35,1.38.33,1.4.04,0,.13,0,.2-.01,0,0,.04,0,.05.01-.49.88-.93,1.77-.52,2,.06.09.17.13.26.2.14.26.68.22,1.4-.03.1-.03.23-.08.32-.11-.09.71-.41,1.19.48,1.35.61-.15.43.48.29.88-.13.37-.34.78-.08.9.24.2.59.34,1.33.16-.67.93-.96,1.67-.56,2.01.05.09.17.16.25.24.12.28.66.31,1.4.14.17-.04.37-.08.57-.14.1.45-.51,1.36.16,1.5.05.02.1.05.18.05.15.06.35.09.69.03.03,0,.07-.02.07-.01-.36.67-.73,1.39-.27,1.63.01.02.04.07.13.04.6.15.88.42.48,1.16-.15.36-.39.76-.16.93.26.22.61.4,1.33.3-.7.9-1.04,1.65-.64,2.03.05.11.13.2.24.27.11.31.63.41,1.41.27.18-.01.35-.04.57-.1.05.5-.6,1.38.09,1.59.04.02.13.03.2.04,0,0,.04,0,.05.03l.04-.02c-.05.51-.3,1.13.12,1.45.93.71,2.35.41,2.35.41.61-.07,1.46-.29,2.29-.61,3.34-1.29,6.79-3.94,7.2-5.34l.21-.72c.47-.81-.27-1.12-.88-1.33l.17-.09c.51-.87-.04-1.26-.72-1.46-.05-.03-.22-.13-.31-.19.04-.07.05-.13.06-.19.12-.22-.05-.34.16-.6.03-.02.05-.06.04-.07.16-.2.17-.33.21-.49-.01-.05-.02-.1-.03-.15.14-.41-.16-.63-.43-.82-.11-.14-.44-.15-.77-.15,0-.01.03-.06.04-.07.14-.25.47-.61.51-.84.17-.25.16-.42.15-.58-.01-.03,0-.07-.06-.12-.02-.26-.09-.55-.38-.67-.14-.13-.4-.2-.76-.18-.34,0-.81.09-.92-.06.08-.22.08-.41.21-.68v-.08c.03-.08.03-.17.03-.3.08-.58-.55-.82-1.53-.69.78-1.14.08-1.55-.71-1.75-.05-.02-.2-.15-.33-.18.07-.09.07-.14.08-.2.03-.22,0-.41.12-.67.14-.21.14-.35.17-.51,0-.06,0-.13-.02-.18.08-.4-.24-.62-.5-.82-.16-.13-.49-.11-.83-.09.02-.03.03-.07.03-.08.13-.29.41-.66.43-.89.18-.28.11-.45.08-.62.02-.03,0-.07-.04-.13-.06-.28-.18-.55-.45-.67-.18-.11-.45-.17-.82-.12-.32,0-.78.13-.95,0,.1-.26.06-.44.12-.72,0,0,.02-.1-.01-.08.02-.1.03-.19,0-.29l-.02-.03c-.13-.67-.83-.67-1.42-.62.05-.22-.14-.32.04-.63,0-.01,0-.04,0-.05.12-.23.1-.37.1-.54,0-.06-.01-.13-.05-.18.03-.42-.32-.61-.61-.79-.14-.08-.51-.21-.91-.17.28-.99-.41-1.32-1.16-1.41-.05-.02-.26-.1-.37-.14.02-.08.01-.14,0-.21.06-.25-.15-.34-.03-.65.02-.03.03-.07.02-.08.1-.24.06-.38.05-.55-.03-.05-.06-.1-.09-.15,0-.45-.38-.63-.72-.76-.16-.13-.5-.06-.83.02,0-.02.01-.07.01-.09.05-.29.28-.73.14-1.06.03-.34-.12-.58-.26-.81-.03-.03-.06-.1-.16-.16-.23-.37-.54-.76-.96-.9-.07-.04-.15-.08-.22-.11-.26-.08-.55-.09-.85-.02-.41.06-.84.27-1.12.12-.13-.28-.31-.53-.45-.9l-.09-.09c-.05-.11-.16-.2-.3-.36-.58-.71-1.64-.63-2.55.05-.57-1.45-2-1.29-3.02-.75-.07.03-.39.06-.56.16-.03-.05-.14-.68-.53-1.08-.37-.4-1.08-.55-1.95.39Z" fill="#f9c316"/>
      </g>
      <path d="M23.68,138.04c-.25.4-.06,1.05.43,1.68.11.15.24.32.39.47-.39.51-1.53.75-1.31,1.58,0,.07,0,.15.04.23.02.21.1.44.35.71.03.02.05.05.05.06-.78.3-1.62.69-1.54,1.37-.01.04-.04.11.05.17.23.71.25,1.23-.6,1.64-.38.25-.85.47-.83.87,0,.46.16.95.76,1.44-1.12.37-1.92.96-1.83,1.7-.03.17-.02.32.02.49-.1.43.25.94.96,1.36.15.11.3.21.52.31-.26.57-1.27,1.07-.82,1.77.03.05.09.12.14.18,0,.01.03.04.03.06-1,.46-1.91,1.04-1.75,1.69-.01.16.04.31.07.47-.06.43.37.88,1.07,1.22.1.06.23.11.33.15-.49.69-1.03.98-.4,1.87.58.31.07.87-.26,1.21-.3.31-.7.62-.53.95.1.41.33.82,1.06,1.12-1.05.59-1.66,1.25-1.45,1.9,0,.14.07.29.11.43-.03.4.45.79,1.19,1.04.17.06.37.13.57.18-.11.56-1.04,1.21-.49,1.76.03.05.07.11.14.16.1.15.28.3.62.41.03,0,.07.02.07.03-.6.54-1.23,1.15-.9,1.66,0,.03,0,.1.11.12.49.47.65.92,0,1.53-.27.33-.65.65-.49.96.16.36.42.74,1.14.97-.98.65-1.56,1.33-1.31,1.93.01.15.06.28.13.41,0,.39.46.73,1.24.92.17.06.34.11.58.14-.12.56-1.02,1.23-.44,1.75.04.04.11.09.18.13,0,.01.04.03.04.05h.05c-.22.52-.66,1.07-.36,1.58.66,1.14,2.1,1.39,2.1,1.39.61.17,1.48.28,2.37.28,3.59,0,7.73-1.39,8.57-2.7l.43-.67c.71-.65.11-1.26-.39-1.71l.19-.03c.77-.69.38-1.3-.19-1.78-.03-.05-.16-.22-.23-.31.06-.06.09-.11.12-.17.19-.18.07-.36.36-.54.03-.01.06-.04.06-.05.22-.14.28-.27.37-.41,0-.05.01-.11.02-.16.27-.35.08-.69-.11-.98-.05-.18-.36-.32-.67-.45.01-.01.05-.05.06-.06.22-.2.67-.41.79-.61.25-.17.31-.34.36-.51,0-.03.03-.07,0-.14.08-.26.13-.56-.09-.79-.08-.19-.29-.36-.63-.49-.31-.14-.78-.25-.82-.44.16-.17.24-.36.46-.56l.03-.07c.06-.06.09-.15.15-.27.3-.52-.15-.98-1.1-1.31,1.2-.71.75-1.37.13-1.92-.03-.04-.11-.22-.21-.31.1-.05.13-.1.16-.15.12-.18.19-.37.42-.54.23-.12.29-.24.39-.37.03-.05.07-.11.06-.16.26-.31.09-.64-.04-.93-.07-.18-.37-.33-.67-.48.03-.01.07-.04.06-.05.26-.18.69-.34.83-.52.3-.14.33-.31.4-.46.03-.02.03-.06.03-.12.1-.25.14-.52-.03-.75-.1-.18-.29-.36-.62-.51-.27-.16-.72-.3-.78-.49.24-.15.31-.3.52-.48,0,0,.07-.06.04-.06.07-.06.14-.13.17-.21v-.04c.3-.56-.3-.95-.77-1.24.18-.13.09-.3.43-.42,0,0,.03-.03.04-.03.24-.09.32-.19.42-.3.04-.04.08-.09.08-.15.29-.26.15-.59.04-.88-.05-.14-.24-.43-.55-.64.89-.44.62-1.02.17-1.56-.02-.05-.1-.22-.15-.31.07-.03.11-.07.15-.11.22-.1.15-.28.46-.36.03,0,.07-.02.07-.02.25-.06.33-.15.44-.24.02-.04.04-.09.05-.13.33-.22.23-.53.13-.81,0-.16-.26-.35-.52-.55.01,0,.06-.02.07-.03.26-.09.74-.13.91-.25.28-.06.38-.17.47-.28,0-.02.04-.05.03-.11.16-.17.29-.37.15-.61-.02-.16-.17-.36-.45-.57-.25-.21-.66-.46-.65-.63.19-.08.35-.18.61-.24l.05-.04c.08-.02.13-.07.23-.14.45-.25.16-.76-.58-1.39,1.35,0,1.16-.63.81-1.31-.02-.04,0-.2-.05-.31.1.02.15,0,.2-.02.18-.06.31-.16.58-.16.25.03.41-.49.41-.49.16-.21-.09-.66-.59-1.22-.11-.13-.25-.28-.39-.43.34-.28,1.35-.09,1.18-.71,0-.05,0-.1-.03-.17,0-.15-.07-.34-.27-.62-.02-.03-.04-.05-.04-.06.72.08,1.48.2,1.52-.26.01-.02.05-.05-.02-.13-.1-.57.03-.94.81-.73.38.06.81.21.88-.04.1-.28.15-.64-.16-1.31,1,.49,1.75.72,1.97.29.08-.07.14-.15.17-.26.22-.16.23-.64-.05-1.38-.05-.17-.1-.33-.19-.55.47-.11,1.34.44,1.45-.24.01-.04.02-.12.02-.2,0,0,0-.04.02-.05.86.58,1.68,1.1,1.96.71.1-.06.15-.16.22-.24.29-.11.34-.64.2-1.38,0-.1-.04-.24-.06-.34.71.17,1.12.54,1.44-.33-.04-.63.59-.35.97-.15.35.18.72.45.89.2.24-.22.46-.55.43-1.3.83.83,1.52,1.25,1.94.9.11-.04.2-.14.29-.21.3-.08.47-.59.48-1.35,0-.17,0-.38,0-.58.5,0,1.27.77,1.57.13.03-.04.07-.09.1-.17.1-.13.18-.33.21-.68,0-.03,0-.07,0-.07.61.5,1.25,1.03,1.61.63.03,0,.08-.02.08-.12.31-.55.67-.78,1.3-.22.33.23.67.57.92.39.29-.19.58-.49.68-1.22.71.91,1.36,1.42,1.86,1.14.13-.02.24-.07.35-.15.35-.02.6-.49.71-1.28.04-.17.07-.34.08-.58.52.09,1.2.96,1.62.36.03-.04.07-.11.11-.18,0,0,.02-.04.04-.04v-.05c.49.2,1.01.64,1.47.34,1.02-.67,1.22-2.11,1.22-2.11.14-.61.23-1.48.22-2.38-.05-3.59-1.43-7.72-2.83-8.52l-.71-.41c-.7-.68-1.34-.06-1.8.46l-.04-.19c-.77-.72-1.41-.28-1.89.33-.05.04-.22.18-.32.25-.07-.06-.13-.08-.19-.1-.2-.17-.39-.04-.6-.31-.02-.03-.05-.06-.06-.06-.17-.21-.31-.25-.47-.33-.06,0-.12,0-.18,0-.41-.24-.76,0-1.06.23-.2.07-.32.4-.43.73-.01,0-.06-.04-.07-.05-.24-.19-.52-.6-.75-.69-.21-.23-.41-.25-.6-.28-.03,0-.08-.02-.15.03-.3-.04-.65-.03-.87.22-.2.11-.36.36-.46.72-.11.34-.16.83-.36.91-.22-.12-.43-.16-.69-.34h-.08c-.08-.06-.18-.07-.33-.1-.63-.18-1.08.37-1.24,1.38-1.03-.97-1.71-.32-2.15.44-.03.04-.22.17-.29.3-.08-.08-.14-.1-.2-.11-.24-.07-.46-.07-.71-.23-.2-.18-.35-.19-.52-.24-.07-.01-.14-.02-.21,0-.43-.13-.76.17-1.05.41-.19.14-.26.48-.33.83-.02-.03-.07-.05-.08-.04-.29-.17-.62-.51-.88-.56-.27-.22-.48-.18-.68-.16-.03-.02-.08,0-.15.03-.33.03-.66.14-.87.41-.17.18-.31.46-.35.84-.08.32-.05.81-.23.96-.27-.13-.48-.12-.77-.2,0,0-.1-.02-.09,0-.1-.02-.21-.04-.32-.03l-.04.02c-.78.1-.95.85-1.03,1.45-.24-.07-.39.12-.7-.09-.01,0-.04,0-.06,0-.23-.14-.39-.14-.58-.14-.07,0-.15,0-.21.05-.46-.04-.76.33-1.02.64-.12.15-.34.55-.38.95-1.06-.36-1.56.43-1.79,1.23-.03.06-.16.28-.22.4-.09-.02-.16,0-.23,0-.27-.05-.41.17-.73.03-.03-.02-.07-.03-.08-.02-.25-.1-.41-.05-.6-.03-.06.03-.12.07-.18.1-.51.03-.76.45-.97.83-.17.18-.14.55-.11.9-.02,0-.08,0-.09,0-.32-.04-.78-.23-1.05-.16-.31-.07-.52.04-.72.14-.03.03-.09.04-.13.13-.32.17-.65.4-.76.77-.14.23-.18.55-.08.94.06.38.27.84.13,1.05-.26.04-.49.15-.82.18l-.09.05c-.1.02-.2.07-.35.15-.71.27-.78,1.13-.35,2.09-.74-.04-1.17.2-1.41.58-.23.38-.24.9-.2,1.38,0,.06-.08.31-.06.47-.06,0-.66-.21-1.17-.14-.51.06-.91.43-.45,1.48Z" fill="#f9c316"/>
      <path d="M121,145.12c-.15.37.17.89.78,1.41.14.12.3.26.47.38-.3.51-1.41.77-1.09,1.49.01.06.02.13.07.2.04.18.15.39.42.63.03.02.06.04.05.05-.76.29-1.57.61-1.46,1.22,0,.03-.03.09.05.15.27.65.24,1.14-.61,1.43-.39.19-.86.33-.85.68,0,.4.07.86.62,1.39-1.16.17-1.96.53-1.99,1.2-.05.14-.07.28-.06.43-.18.35.08.87.68,1.41.12.14.25.26.44.4-.37.46-1.48.63-1.21,1.38.01.05.05.13.09.21,0,0,.02.04.01.06-1.06.13-2.06.35-2.13.94-.06.13-.06.28-.08.42-.19.34.07.87.62,1.42.07.09.17.18.25.25-.7.43-1.3.46-1.04,1.48.43.51-.25.79-.71.93-.41.14-.89.22-.89.56-.08.38-.05.83.46,1.42-1.19,0-2.02.25-2.13.88-.06.12-.07.27-.11.4-.22.3,0,.84.49,1.44.11.14.24.3.39.45-.39.41-1.52.42-1.34,1.16,0,.06,0,.13.03.21,0,.18.07.4.29.68.02.03.05.05.04.06-.78.11-1.64.21-1.67.78-.02.03-.05.08.02.15.12.65-.02,1.1-.9,1.16-.41.08-.89.09-.96.42-.09.37-.11.82.31,1.45-1.16-.15-2.04-.07-2.24.51-.09.11-.14.23-.16.37-.25.27-.13.81.31,1.48.08.16.17.31.32.5-.47.31-1.53.18-1.5.91,0,.05.01.14.03.21,0,0,0,.04,0,.06l.04.03c-.53.19-1.22.23-1.39.78-.36,1.22.41,2.47.41,2.47.28.57.77,1.31,1.35,1.99,2.33,2.76,6.07,4.98,7.75,4.53l.85-.22c1.02,0,1.16-.98,1.21-1.73l.15.12c1.14-.01,1.35-.86,1.33-1.69.01-.07.06-.31.09-.44.09,0,.15-.04.22-.07.27-.03.34-.28.68-.24.03,0,.08.01.08,0,.27.03.41-.05.59-.12.05-.04.1-.09.15-.14.48-.14.62-.58.72-.98.11-.2,0-.54-.12-.87.02,0,.08,0,.09-.01.32-.03.81.06,1.05-.06.32,0,.49-.13.65-.26.02-.03.08-.05.09-.14.26-.21.52-.48.52-.85.08-.24.04-.55-.13-.89-.13-.34-.43-.74-.32-.96.25-.08.45-.21.77-.27l.08-.05c.1-.03.18-.09.32-.18.63-.33.58-1.11.02-1.99,1.44-.04,1.52-1.03,1.36-1.94,0-.06.06-.29.03-.44.11,0,.17-.03.23-.07.23-.12.4-.29.7-.35.27,0,.4-.1.57-.19.06-.04.13-.08.16-.15.41-.21.46-.67.52-1.07.05-.24-.13-.55-.3-.86.03,0,.08-.01.09-.02.34-.08.81-.05,1.03-.2.34-.02.47-.2.62-.35.04,0,.06-.05.1-.13.24-.25.42-.55.42-.9.02-.26-.05-.55-.26-.87-.14-.3-.49-.66-.45-.9.29-.08.43-.24.71-.36,0,0,.09-.05.06-.06.09-.05.19-.1.26-.18l.02-.04c.55-.57.2-1.26-.1-1.78.23-.1.23-.34.6-.37.01,0,.04-.02.05-.03.27-.03.39-.14.54-.24.06-.04.12-.09.15-.16.39-.24.43-.69.44-1.09,0-.19-.06-.63-.28-.98,1.03-.33,1.02-1.18.76-1.96,0-.07-.03-.31-.04-.44.08-.03.14-.07.19-.12.25-.1.25-.35.59-.4.04,0,.08-.01.08-.02.27-.04.38-.15.53-.26.03-.05.07-.11.1-.16.41-.25.4-.7.37-1.11.05-.22-.17-.52-.38-.8.01,0,.07-.03.08-.03.29-.11.79-.14.99-.3.31-.07.44-.23.56-.39.01-.03.06-.07.06-.15.2-.25.38-.57.3-.91.02-.24-.09-.52-.34-.81-.21-.29-.59-.61-.55-.84.22-.12.38-.29.66-.42l.06-.07c.09-.05.15-.12.25-.23.5-.45.29-1.16-.45-1.89,1.4-.31,1.27-1.26.91-2.09-.02-.05-.01-.29-.07-.43.11-.02.16-.06.21-.11.19-.16.32-.35.59-.46.26-.05.42-.9.42-.9.15-.38-.16-.93-.76-1.45-.14-.12-.3-.26-.47-.38.31-.53,1.41-.84,1.08-1.58-.01-.06-.03-.14-.07-.21-.05-.19-.16-.4-.43-.64-.03-.02-.06-.04-.05-.05.76-.33,1.56-.7,1.44-1.32,0-.03.03-.1-.06-.16-.29-.65-.27-1.17.57-1.52.38-.22.84-.4.82-.76-.01-.42-.11-.89-.69-1.4,1.15-.26,1.94-.71,1.94-1.41.04-.15.05-.3.03-.46.15-.39-.14-.91-.79-1.41-.13-.13-.27-.25-.48-.37.33-.51,1.43-.81,1.1-1.55-.02-.05-.06-.13-.11-.2,0-.01-.02-.04-.02-.06,1.05-.25,2.05-.59,2.05-1.24.05-.15.03-.3.04-.45.15-.38-.17-.9-.77-1.39-.08-.08-.19-.16-.28-.23.66-.54,1.25-.66.88-1.67-.48-.46.16-.85.58-1.08.38-.21.86-.37.8-.73.03-.41-.06-.87-.66-1.39,1.19-.21,1.99-.62,2.01-1.29.05-.13.03-.3.05-.44.16-.36-.15-.88-.73-1.39-.13-.12-.29-.26-.46-.38.32-.49,1.43-.73,1.13-1.45-.01-.06-.02-.13-.07-.2-.04-.18-.14-.39-.4-.63-.03-.02-.06-.04-.05-.05.26-.09.52-.18.75-.29.12-.07.21-.07.33-.21.13-.16.24-.32.34-.5.16-.31.31-.63.26-1,.02-.06.05-.18-.04-.26-.1-.53-.13-1.01-.09-1.48.06-.47.24-.92.59-1.43.32-.57.69-1.15.49-1.81-.19-.76-.58-1.55-1.37-1.99.8-1.15,1.18-2.21.73-3.01-.06-.19-.15-.36-.27-.52-.13-.54-.69-.83-1.52-.91-.19-.04-.37-.06-.61-.04-.06-.67.63-1.61-.08-2.01-.04-.03-.13-.06-.21-.09,0-.01-.04-.02-.05-.04l-.05.02c.07-.59.38-1.21-.02-1.62-.42-.42-.98-.6-1.43-.67-.46-.08-.82-.06-.82-.06-.6-.01-1.47.05-2.35.18-1.77.27-3.67.79-5.16,1.55-1.5.76-2.58,1.77-2.8,2.66l-.23.89c-.5.93.28,1.52.9,1.9l-.18.07c-.54.95,0,1.49.67,1.83.04.04.21.18.3.26-.05.07-.06.13-.08.19-.14.21.01.36-.23.6-.03.02-.05.05-.05.06-.18.18-.22.3-.28.45,0,.05,0,.1,0,.15-.2.38.01.58.23.78.07.14.37.16.68.21-.01,0-.05.04-.06.05-.21.16-.65.33-.78.39-.26.08-.33.13-.39.16,0,0-.03.02,0,.03-.11.06-.18.1,0,.15.06.03.25.07.57.14.28.06.73.16.75.23-.17.03-.3.07-.55.08h-.04c-.07.01-.11.03-.19.04-.07,0-.12.02-.14.04-.02,0,0-.02.03.04,0,.12.03.26.09.39.11.27.31.57.6.87-1.41.29-1.29,1.23-.97,2.07.02.05,0,.29.06.43-.11.01-.16.06-.21.1-.2.16-.34.34-.62.45-.26.05-.37.16-.51.27-.05.04-.1.1-.13.17-.37.26-.34.7-.33,1.09,0,.24.21.51.44.78-.03,0-.08.02-.08.04-.32.12-.79.16-.98.33-.34.07-.43.25-.55.41-.04.01-.05.06-.08.13-.19.27-.33.58-.26.91.02.25.15.52.41.79.19.27.58.57.58.81-.28.11-.4.28-.66.43,0,0-.09.06-.06.07-.09.06-.18.12-.24.2v.04c-.48.6-.05,1.22.32,1.69-.21.12-.18.35-.55.41-.01,0-.03.03-.05.03-.26.06-.37.17-.51.28-.05.05-.1.1-.12.17-.36.26-.32.7-.3,1.08.01.18.13.6.38.91-.99.4-.89,1.2-.56,1.94.01.06.06.29.08.42-.08.04-.13.08-.18.13-.24.11-.21.35-.54.42-.04,0-.07.01-.08.03-.26.06-.36.17-.5.28-.03.05-.06.11-.08.16-.39.26-.35.69-.29,1.08-.03.21.2.48.43.74-.01,0-.07.03-.08.04-.28.12-.78.17-.96.34-.3.08-.42.24-.53.4,0,.03-.05.07-.04.15-.18.25-.34.55-.23.89,0,.23.13.49.39.76.23.27.63.56.59.78-.21.12-.36.29-.65.42l-.05.07c-.08.05-.14.12-.24.23-.48.44-.24,1.11.52,1.81-1.38.33-1.2,1.22-.84,2.02.02.05.02.28.08.41-.11.02-2.53-.26-1.2,1.39Z" fill="#f9c316"/>
      <path d="M104.46,58.48c-.38.24-.43.88-.25,1.66.04.18.09.39.15.59-.57.27-1.68-.09-1.86.73-.03.06-.06.13-.07.22-.08.19-.11.42-.03.78.01.03.02.07.01.07-.82-.16-1.71-.3-1.98.29-.03.02-.08.07-.05.16-.16.71-.48,1.14-1.37.95-.44-.03-.93-.16-1.13.16-.24.36-.44.8-.28,1.56-1.1-.44-2-.56-2.41,0-.12.09-.22.21-.3.35-.35.22-.42.82-.21,1.61.03.19.07.36.16.59-.57.21-1.62-.23-1.81.56-.02.05-.03.14-.04.23,0,0,0,.05-.02.06-.98-.45-1.97-.78-2.35-.3-.12.08-.2.21-.3.31-.35.19-.41.79-.25,1.56.01.11.05.24.07.35-.83,0-1.35-.29-1.7.68.07.65-.65.51-1.1.4-.41-.1-.86-.29-1.04,0-.28.27-.5.64-.4,1.41-.99-.67-1.79-.96-2.23-.51-.11.06-.21.18-.31.25-.34.11-.46.67-.4,1.44,0,.18.02.39.06.59-.55.09-1.42-.54-1.71.12-.03.05-.07.1-.09.17-.1.14-.17.34-.17.69,0,.03,0,.07,0,.07-.68-.43-1.38-.88-1.72-.44-.03.01-.08.03-.07.13-.28.62-.67.81-1.34.28-.35-.22-.7-.53-.94-.33-.29.21-.56.54-.66,1.27-.74-.92-1.38-1.46-1.87-1.18-.12.02-.23.07-.34.16-.34.01-.58.52-.73,1.27-.05.17-.09.33-.11.57-.53-.13-1.13-1.05-1.59-.49-.03.04-.08.11-.12.17,0,0-.02.04-.04.04v.05c-.46-.22-.92-.68-1.4-.48-1.06.51-1.49,1.91-1.49,1.91-.24.58-.48,1.44-.63,2.33-.29,1.78-.3,3.75,0,5.38.3,1.64.91,2.95,1.69,3.44l.81.5c.76.78,1.67.24,2.32-.3l.02.19c.86.76,1.74.35,2.39-.24.06-.04.3-.17.42-.24.08.06.15.09.22.11.23.17.48.02.72.28.02.03.05.06.07.06.19.2.36.24.56.3.07,0,.15,0,.22,0,.49.22.95-.04,1.34-.28.25-.08.42-.41.57-.75.01,0,.07.04.08.05.28.18.62.6.9.65.25.2.5.2.73.21.04-.01.1,0,.19-.05.37,0,.8-.05,1.08-.34.25-.14.45-.4.57-.78.14-.35.2-.85.44-.95.27.1.52.1.83.24h.1c.1.03.21.03.39.03.75.08,1.28-.58,1.43-1.63,1.27.86,2,.03,2.47-.83.03-.05.24-.22.32-.36.09.07.17.07.24.07.27.02.53-.02.83.09.24.14.41.14.62.15.08,0,.16,0,.24-.04.49.04.83-.32,1.13-.64.2-.18.25-.55.29-.91.03.02.08.03.09.03.34.12.73.4,1.01.39.31.17.54.08.76.04.04.01.09,0,.17-.05.36-.09.69-.26.9-.58.17-.22.28-.52.29-.92.06-.34-.02-.84.16-1.03.3.09.52.03.84.07,0,0,.11,0,.09-.02.11,0,.23.02.34-.02l.04-.03c.82-.21.91-1,.95-1.62.25.03.39-.18.73,0,.01,0,.05,0,.06,0,.25.11.41.08.61.07.07,0,.15-.02.22-.07.48,0,.77-.39,1-.73.11-.16.3-.58.32-1,1.08.25,1.55-.5,1.77-1.31.03-.06.14-.28.2-.4.09.02.16,0,.23,0,.27.05.4-.18.72-.05.03.02.07.03.08.02.25.1.41.07.59.05.05-.03.12-.06.17-.09.49,0,.74-.4.95-.76.16-.16.15-.53.12-.89.02,0,.07.01.09.02.3.06.75.3,1.01.27.3.1.5.03.69-.03.03-.02.09-.03.13-.1.31-.11.63-.28.75-.62.15-.2.21-.5.16-.88-.02-.36-.17-.83,0-1,.25.01.48-.04.79.01l.08-.03c.1,0,.19-.02.34-.06.67-.1.88-.81.68-1.83,1.34.51,1.73-.33,1.91-1.22.02-.05.15-.24.18-.39.1.05.16.04.23.03.24-.02.46-.1.74-.03.24.11.84-.47.84-.47.34-.21.39-.83.2-1.6-.04-.18-.09-.39-.16-.59.55-.25,1.61.17,1.78-.59.03-.06.06-.12.06-.21.08-.17.11-.4.04-.76-.01-.03-.02-.07-.01-.07.79.21,1.63.43,1.91-.13.03-.02.08-.06.06-.16.2-.69.54-1.08,1.41-.83.44.06.91.22,1.13-.08.27-.34.5-.77.38-1.53,1.07.53,1.96.68,2.43.14.13-.09.24-.2.33-.33.37-.21.49-.8.33-1.6-.02-.19-.04-.37-.11-.6.6-.19,1.64.29,1.9-.51.02-.05.04-.14.05-.23,0,0,.01-.05.03-.06.97.48,1.98.86,2.41.35.14-.09.23-.22.33-.33.38-.2.49-.82.36-1.6,0-.11-.04-.25-.06-.36.87,0,1.42.28,1.83-.75-.05-.67.71-.56,1.2-.47.44.08.92.25,1.13-.07.31-.31.56-.73.45-1.53,1.07.58,1.98.76,2.47.24.13-.08.23-.22.34-.32.38-.19.5-.8.39-1.59-.02-.18-.05-.4-.1-.6.59-.2,1.64.29,1.9-.48.03-.06.07-.12.09-.21.1-.17.16-.4.11-.76,0-.03-.02-.07,0-.07.8.25,1.67.51,2.01-.04.03-.02.09-.05.07-.16.24-.68.61-1.06,1.48-.77.44.08.92.26,1.16-.04.29-.33.54-.75.47-1.51,1.06.56,1.98.76,2.48.24.14-.08.25-.19.35-.32.39-.19.54-.78.41-1.58,0-.19-.03-.37-.09-.6.62-.17,1.66.33,1.95-.46.02-.05.05-.14.06-.23.01,0,.01-.05.03-.06l-.03-.04c.62-.06,1.36.07,1.76-.45.9-1.17.58-2.62.58-2.62-.07-.64-.3-1.5-.66-2.32-1.44-3.3-4.51-6.43-6.2-6.55l-.86-.06c-.96-.33-1.35.53-1.63,1.23l-.1-.16c-1.03-.35-1.51.31-1.78,1.08-.03.05-.16.26-.23.37-.09-.03-.15-.02-.22-.02-.26-.08-.41.12-.71-.05-.03-.02-.07-.04-.08-.03-.24-.13-.39-.11-.58-.12-.06.02-.12.05-.18.07-.48-.06-.76.29-.99.61-.17.14-.19.5-.2.85-.01,0-.07-.02-.09-.03-.3-.1-.71-.39-.97-.39-.28-.14-.49-.09-.69-.05-.03.02-.09.01-.14.08-.31.07-.65.2-.8.52-.16.18-.26.46-.25.84-.02.36.07.84-.11.99-.25-.04-.48-.02-.79-.1h-.09c-.1,0-.19.01-.35.03-.68.02-.98.7-.9,1.73-1.29-.66-1.8.15-2.09,1.02-.02.05-.19.23-.23.37-.09-.06-.16-.06-.23-.05-.25,0-.48.06-.77-.04-.24-.13-.39-.11-.58-.11-.07,0-.15.01-.21.05-.46-.03-.73.32-.98.63-.16.18-.17.53-.18.89-.03-.02-.08-.03-.09-.02-.33-.11-.71-.38-.97-.37-.3-.16-.5-.08-.7-.04-.04-.01-.08,0-.15.05-.32.09-.63.24-.8.54-.15.21-.24.5-.22.88-.03.33.06.82-.1,1-.29-.09-.49-.04-.79-.09,0,0-.11-.01-.09.02-.11-.01-.21-.02-.32,0l-.04.03c-.77.17-.86.93-.89,1.54-.24-.04-.38.16-.7-.03-.01,0-.04,0-.06,0-.24-.12-.4-.1-.58-.1-.07,0-.15.01-.21.05-.46-.02-.73.34-.97.65-.11.15-.31.55-.34.96-1.04-.32-1.52.38-1.77,1.17-.03.06-.16.27-.22.38-.09-.02-.16-.02-.22-.01-.26-.07-.4.15-.71,0-.03-.02-.07-.04-.08-.03-.24-.12-.4-.1-.58-.09-.06.02-.12.05-.18.08-.49-.04-.75.33-.97.68-.17.15-.18.52-.18.87-.02,0-.07-.02-.09-.02-.3-.08-.72-.35-.99-.34-.29-.12-.5-.07-.69-.02-.03.02-.09.02-.14.09-.31.09-.65.24-.79.57-.16.19-.24.49-.22.87,0,.36.11.85-.07,1.01-.25-.03-.49.01-.8-.06l-.09.02c-.1-.02-.2.02-.36.05-.7.09-1,.83-.87,1.87-1.36-.54-1.87.34-2.08,1.26-.02.06-.17.25-.21.4-.1-.05-1.94-1.66-1.93.54Z" fill="#f9c316"/>
      <path d="M55.23,163.62c-.11.2.26.56.9.94.14.09.32.19.49.29-.23.26-1.26.28-.87.75.02.04.04.08.09.13.06.12.19.25.48.43.03.02.06.03.06.04-.7.08-1.44.19-1.26.56,0,.02-.02.05.07.1.34.42.38.72-.39.81-.34.08-.78.12-.71.35.05.25.2.54.8.92-1.09,0-1.81.19-1.74.61-.03.09-.02.17.01.27-.11.22.23.56.91.94.14.09.29.18.5.28-.26.27-1.3.35-.9.84.02.03.08.09.13.13,0,0,.03.03.02.04-.99.05-1.93.19-1.85.6-.03.09.01.19.02.28-.1.23.27.59.93.93.09.05.21.11.3.16-.57.3-1.13.37-.62,1.02.53.31-.04.53-.42.67-.34.13-.77.24-.66.48.04.27.21.58.88.91-1.12.15-1.84.46-1.73.93-.02.09.03.2.04.3-.09.26.32.59,1,.89.15.07.34.15.53.22-.2.35-1.21.65-.75,1.1.03.04.05.09.11.13.08.12.23.24.54.37.03,0,.06.02.06.03-.68.27-1.38.65-1.12,1.05,0,.02,0,.07.09.1.43.4.51.72-.2,1.12-.31.22-.71.44-.59.7.12.3.34.61,1.03.82-1.03.45-1.65,1.02-1.44,1.53,0,.12.04.24.11.34-.03.33.44.63,1.21.77.17.05.34.08.57.1-.12.47-1.03,1.11-.42,1.52.04.03.11.07.19.1,0,0,.04.02.04.04h.05c-.18.47-.57,1.03-.23,1.46.38.47.98.7,1.43.79.46.09.82.06.82.06.61.01,1.47-.12,2.32-.36,1.71-.48,3.49-1.32,4.97-2.08,1.48-.76,2.66-1.43,3.07-1.79l.43-.36c.71-.42.19-.5-.29-.6l.19-.04c.77-.38.48-.56-.06-.69-.03-.02-.14-.07-.2-.11.06-.03.1-.05.13-.08.2-.09.09-.15.39-.24.03,0,.07-.02.07-.02.23-.07.3-.13.41-.19l.04-.07c.31-.16.15-.28,0-.39-.03-.07-.32-.12-.62-.18.01,0,.06-.02.07-.02.23-.08.71-.17.85-.26.27-.07.34-.14.42-.2,0-.01.04-.03,0-.06.11-.11.19-.22,0-.33-.06-.08-.25-.16-.57-.24-.29-.08-.74-.17-.76-.26.18-.07.29-.15.53-.22l.04-.03c.07-.02.11-.06.18-.11.36-.2-.04-.45-.92-.74,1.28-.2.92-.56.38-.93-.03-.02-.07-.13-.16-.19.1,0,.14-.03.18-.05.15-.07.24-.16.49-.2.24-.02.32-.07.43-.12.04-.02.08-.04.08-.07.3-.11.17-.3.08-.48-.04-.11-.31-.24-.58-.38.03,0,.07,0,.07-.01.28-.05.73-.05.88-.12.31-.02.37-.1.45-.16.03,0,.04-.02.05-.06.13-.11.2-.25.07-.4-.07-.12-.24-.26-.54-.41-.23-.14-.66-.32-.7-.44.25-.03.34-.11.56-.16,0,0,.07-.02.04-.03.07-.02.15-.04.2-.08v-.02c.35-.25-.17-.6-.6-.88.19-.04.12-.16.47-.16,0,0,.03-.01.04-.01.24,0,.33-.05.44-.09.04-.02.08-.04.09-.07.31-.1.2-.32.13-.52-.04-.09-.21-.33-.49-.52.9-.1.7-.52.28-.96-.02-.03-.09-.16-.13-.23.07,0,.11-.03.15-.05.22-.03.16-.16.47-.16.03,0,.07,0,.07,0,.24,0,.33-.04.45-.09.02-.02.04-.05.06-.08.35-.09.25-.33.15-.54,0-.11-.25-.29-.51-.46.01,0,.06,0,.07,0,.25-.03.73.02.89-.05.28,0,.38-.07.47-.14,0-.02.04-.03.03-.08.14-.11.26-.25.12-.45-.03-.13-.18-.29-.46-.48-.25-.18-.67-.4-.66-.52.19-.04.32-.11.58-.14l.05-.03c.08-.01.12-.05.21-.09.42-.18.11-.59-.69-1.1,1.29.02,1.04-.52.59-1.04-.02-.03-.05-.16-.12-.25.1,0,.14-.01.19-.03.16-.06.26-.15.52-.17.24,0,.3-.44.3-.44.1-.19-.26-.55-.9-.93-.14-.09-.32-.19-.49-.29.23-.26,1.26-.27.87-.74-.02-.04-.04-.08-.09-.13-.06-.12-.19-.25-.48-.43-.03-.02-.06-.03-.06-.04.7-.08,1.44-.17,1.26-.55,0-.02.02-.05-.07-.1-.34-.42-.38-.72.39-.81.34-.08.78-.11.72-.33-.05-.25-.19-.54-.8-.92,1.09,0,1.81-.17,1.74-.58.03-.08.02-.17-.01-.27.11-.21-.23-.57-.91-.95-.14-.09-.29-.18-.5-.28.26-.27,1.3-.32.91-.81-.02-.03-.07-.09-.13-.13,0,0-.03-.03-.02-.04.99-.04,1.93-.16,1.85-.57.03-.09,0-.19-.02-.28.11-.23-.26-.58-.92-.93-.09-.06-.21-.11-.3-.16.57-.29,1.13-.34.64-.99-.53-.32.05-.52.43-.65.34-.12.78-.22.67-.45-.03-.27-.19-.57-.85-.91,1.13-.11,1.84-.41,1.74-.86.02-.09-.02-.2-.03-.3.09-.25-.3-.59-.97-.9-.15-.08-.34-.16-.53-.23.2-.34,1.23-.59.79-1.05-.03-.04-.05-.09-.11-.13-.08-.12-.22-.24-.53-.38-.03-.01-.06-.02-.06-.03.68-.25,1.4-.58,1.16-.98,0-.02,0-.07-.09-.1-.41-.41-.49-.72.24-1.08.32-.2.74-.39.63-.64-.11-.29-.31-.6-.99-.84,1.05-.39,1.7-.89,1.52-1.4,0-.12-.03-.23-.09-.34.05-.31-.4-.64-1.16-.81-.17-.05-.33-.1-.56-.13.15-.44,1.11-1,.53-1.44-.04-.03-.11-.08-.18-.11,0,0-.04-.02-.04-.04h-.05c.22-.45.65-.96.35-1.39-.34-.48-.91-.75-1.36-.87-.45-.12-.81-.12-.81-.12-.61-.06-1.47,0-2.34.16-1.75.33-3.59,1.01-5.13,1.63-1.54.63-2.77,1.2-3.21,1.54l-.45.34c-.74.37-.22.51.25.66l-.19.03c-.8.34-.51.55.01.74.03.02.14.09.19.13-.07.03-.1.05-.13.07-.2.08-.1.15-.4.23-.03,0-.07.02-.07.02-.23.06-.31.12-.41.17l-.04.07c-.32.15-.17.29-.02.42.02.08.31.15.61.22-.01,0-.06.02-.07.02-.24.07-.71.14-.86.22-.27.06-.35.13-.43.2,0,.01-.04.03,0,.06-.12.11-.2.23-.02.35.05.09.24.18.56.28.29.1.73.21.75.3-.18.06-.29.14-.54.21l-.04.03c-.07.02-.11.06-.19.11-.38.2.02.47.89.8-1.29.16-.94.55-.42.95.03.02.07.13.16.2-.1,0-.14.02-.18.04-.16.07-.25.15-.5.2-.24.02-.32.06-.44.11-.04.02-.08.04-.09.07-.3.11-.19.31-.1.49.04.11.31.25.58.4-.03,0-.07,0-.07.01-.29.04-.73.03-.89.1-.31.01-.37.09-.46.16-.03,0-.04.02-.05.06-.14.11-.21.25-.08.42.07.12.24.26.53.42.23.15.66.34.69.46-.25.03-.34.1-.57.16,0,0-.08.02-.04.03-.08.02-.15.04-.2.08v.02c-.36.26.15.61.58.9-.19.04-.13.16-.47.16,0,0-.03,0-.04.01-.24,0-.33.05-.45.09-.04.02-.08.04-.09.07-.31.1-.21.32-.14.53.04.1.21.33.49.53-.91.09-.71.53-.3.97.02.04.09.17.13.24-.07,0-.11.03-.15.04-.22.03-.16.16-.47.15-.03,0-.07,0-.07,0-.24,0-.33.04-.45.08-.02.02-.04.05-.06.08-.35.09-.26.33-.16.55,0,.11.25.29.5.47-.01,0-.06,0-.07,0-.25.03-.73-.02-.89.04-.28,0-.38.07-.47.14,0,.02-.04.03-.03.08-.15.11-.27.26-.13.46.02.13.18.3.46.49.25.19.66.41.65.53-.19.04-.32.11-.58.14l-.05.03c-.08.01-.12.05-.21.1-.42.18-.11.6.69,1.12-1.3-.02-1.04.52-.6,1.05.02.03.05.17.12.25-.1,0-2.46-.51-1,.65Z" fill="#f9c316"/>
      <path d="M84.8,110.39c-.17.02-.17.5-.02,1.22.03.17.08.36.11.55-.3-.04-.9-.86-.96-.29-.01.04-.03.08-.03.15-.04.11-.05.29,0,.62,0,.03,0,.07,0,.07-.44-.52-.9-1.07-1.03-.72-.01,0-.04.01-.02.11-.08.51-.24.71-.71.1-.23-.25-.48-.6-.6-.44-.14.17-.26.43-.21,1.13-.55-.92-1.01-1.47-1.25-1.21-.07.02-.12.06-.17.14-.19.01-.26.47-.2,1.24,0,.17.01.34.04.57-.31-.1-.8-.97-.97-.4-.01.03-.03.1-.04.17,0,0,0,.04-.02.04-.48-.86-.96-1.66-1.21-1.42-.07.01-.13.09-.19.13-.2,0-.29.48-.28,1.21,0,.11,0,.23,0,.33-.44-.4-.69-.9-.96-.19-.02.61-.39.16-.62-.14-.21-.27-.43-.64-.55-.45-.18.13-.32.39-.35,1.12-.48-1.01-.9-1.6-1.19-1.38-.07,0-.13.08-.2.12-.2-.02-.32.46-.35,1.19,0,.17-.02.37-.02.56-.31-.1-.76-1.03-.97-.48-.02.03-.05.07-.07.14-.07.11-.12.28-.14.61,0,.03,0,.07,0,.07-.36-.6-.74-1.23-.97-.91-.02,0-.05,0-.05.1-.19.48-.42.63-.79-.03-.2-.28-.4-.66-.55-.52-.18.14-.36.38-.42,1.08-.43-1.01-.83-1.62-1.14-1.42-.08,0-.14.04-.21.1-.21-.03-.36.4-.41,1.16-.02.16-.04.33-.04.56-.31-.16-.73-1.1-.98-.57-.02.03-.04.1-.06.17,0,0-.01.03-.02.03v.05c-.29-.26-.61-.73-.87-.48-.59.56-.68,1.97-.68,1.97-.07.59-.11,1.44-.08,2.33.11,3.56,1.01,7.79,1.83,8.72l.42.48c.42.75.77.2,1.03-.27l.02.19c.45.81.81.47,1.07-.07.03-.03.13-.14.18-.2.04.06.07.1.11.13.12.19.22.09.35.38.01.03.03.07.03.07.1.23.18.29.27.39.03,0,.07.02.1.03.24.29.43.12.6-.05.11-.04.18-.34.24-.64,0,.01.03.05.04.06.14.23.3.68.43.8.12.26.24.32.34.38.02,0,.05.03.09,0,.17.09.36.15.49-.07.11-.08.21-.29.26-.62.06-.31.09-.77.21-.82.12.15.25.24.39.46l.05.03c.05.06.1.09.19.15.36.3.62-.16.72-1.1.58,1.17.97.7,1.23.08.02-.03.13-.11.17-.22.04.1.08.13.11.15.13.12.26.17.4.39.11.22.19.28.29.37.04.03.08.06.12.05.24.24.43.06.6-.09.11-.08.16-.38.2-.69.01.03.04.06.04.06.16.25.33.66.48.78.14.28.26.29.38.34.02.03.04.03.09.02.19.07.38.07.51-.12.1-.12.19-.33.23-.67.06-.28.06-.75.17-.83.15.21.27.26.43.43,0,0,.06.06.05.02.06.06.12.11.18.14h.02c.44.19.57-.44.65-.95.13.15.22.03.39.34,0,0,.02.02.03.03.12.21.21.27.32.35.04.03.08.05.12.05.25.23.44.03.61-.14.08-.08.23-.34.28-.68.56.75.91.32,1.11-.27.02-.04.11-.17.16-.24.05.06.09.08.13.11.15.17.25.04.41.31.02.03.04.06.04.06.13.21.23.25.34.33.03,0,.08,0,.11,0,.29.24.47.02.63-.19.11-.06.14-.38.16-.69,0,.01.04.05.05.06.17.2.41.61.57.71.17.23.3.27.42.31.02,0,.05.02.09-.02.2.05.41.07.52-.16.11-.1.18-.32.18-.66.02-.32-.02-.79.1-.87.16.12.3.18.5.36l.06.02c.06.05.12.06.22.1.44.21.65-.32.59-1.27.83,1.02,1.17.45,1.34-.23.01-.04.12-.14.14-.26.06.08.11.1.15.12.17.08.31.1.51.28.16.21.62-.11.62-.11.26-.08.32-.61.2-1.36-.02-.17-.06-.37-.1-.57.38-.02,1.16.68,1.28.05.02-.04.04-.09.04-.16.05-.13.07-.32,0-.65,0-.03-.02-.06-.01-.07.59.41,1.24.89,1.43.41.02-.01.06-.04.03-.13.09-.59.3-.86,1-.47.34.14.74.37.87.14.17-.26.3-.6.09-1.29.46.32.88.56,1.23.63.35.06.61,0,.76-.25.1-.08.16-.17.21-.29.27-.17.25-.71-.07-1.43-.06-.17-.12-.33-.24-.53.43-.14,1.44.31,1.42-.42,0-.05,0-.13-.03-.21,0,0,0-.04,0-.05.94.36,1.94.56,2.15.04.09-.1.12-.23.18-.34.26-.24.13-.79-.29-1.41-.05-.09-.13-.2-.19-.28.7-.17,1.29-.1,1.13-1.05-.37-.52.3-.63.74-.71.39-.07.9-.1.88-.42.06-.35,0-.76-.55-1.3,1.15.04,1.97-.23,2.02-.81.05-.11.04-.25.06-.37.14-.29-.2-.74-.81-1.18-.14-.1-.31-.22-.48-.32.26-.35,1.33-.54.96-1.1-.02-.05-.04-.1-.09-.16-.06-.14-.18-.3-.48-.47-.03-.01-.06-.03-.06-.04.7-.2,1.44-.46,1.23-.89,0-.02.02-.07-.08-.11-.37-.45-.43-.78.34-1.06.35-.18.76-.29.67-.53-.09-.27-.28-.56-.93-.84,1.08-.23,1.78-.58,1.66-1.02.02-.1,0-.18-.06-.27.07-.23-.32-.5-1.06-.73-.16-.06-.32-.12-.54-.17.22-.31,1.23-.58.75-.97-.03-.03-.09-.07-.15-.1,0,0-.03-.02-.03-.03h-.05c.31-.28.84-.5.64-.83-.44-.71-1.81-1.04-1.81-1.04-.56-.18-1.4-.36-2.28-.48-3.52-.5-7.84-.32-8.91.3l-.55.32c-.81.27-.34.71.08,1.02h-.19c-.88.26-.61.62-.13.96.02.03.12.14.17.2-.07.02-.11.05-.15.07-.21.07-.13.18-.44.23-.03,0-.07.01-.07.02-.24.04-.32.1-.43.16-.01.03-.03.06-.05.08-.33.14-.21.31-.08.48.01.09.29.21.57.32-.01,0-.06.01-.07.02-.25.06-.72.09-.87.16-.28.04-.36.11-.44.17,0,.01-.04.03-.01.06-.12.11-.22.24-.04.38.04.09.22.19.52.3.27.11.71.25.72.34-.18.04-.3.1-.55.13l-.04.02c-.07.01-.11.04-.19.08-.38.14-.01.42.84.79-1.29-.05-.97.25-.48.64.03.02.06.11.14.17-.1-.01-.14,0-.18,0-.15.02-.24.07-.48.05-.23-.04-.31-.01-.43-.02-.04,0-.08,0-.09.02-.3-.02-.2.12-.13.25.03.07.28.23.53.39-.03-.01-.07-.01-.07-.01-.27-.06-.68-.19-.83-.21-.29-.09-.34-.07-.42-.06-.03,0-.04,0-.04.01-.11.02-.19.05-.09.17.05.08.2.21.46.4.2.16.57.43.59.51-.23-.08-.31-.08-.51-.15,0,0-.07-.02-.04,0-.07-.02-.13-.04-.17-.04h0c-.31-.02.13.41.44.77-.17-.07-.13.03-.43-.15,0,0-.03,0-.03-.01-.21-.12-.28-.14-.39-.18-.04-.01-.07-.02-.09-.01-.27-.12-.2.05-.17.2.02.07.13.29.33.56-.68-.45-.67-.14-.45.36,0,.03.03.15.04.21-.06-.04-.09-.06-.13-.07-.17-.12-.16,0-.39-.21-.02-.02-.05-.04-.05-.04-.18-.16-.25-.19-.34-.24h-.06c-.26-.17-.24.02-.22.21-.02.06.08.33.2.6-.01,0-.05-.04-.06-.05-.19-.16-.52-.51-.65-.59-.2-.19-.29-.22-.37-.25,0,0-.04-.02-.04.02-.14-.04-.26-.05-.24.16-.03.09.02.29.14.6.1.29.29.71.24.78-.14-.11-.25-.16-.42-.33l-.04-.02c-.05-.05-.09-.06-.17-.1-.34-.2-.35.25-.09,1.14-.82-.99-.9-.49-.9.15,0,.04-.06.13-.05.24-.07-.08-1.2-2.2-.91-.4Z" fill="#f9c316"/>
      <path d="M127.63,95.2c-.33.12-.43.7-.37,1.48.01.18.03.4.06.6-.57.09-1.43-.58-1.73.1-.03.05-.08.1-.1.17-.11.14-.19.34-.21.7,0,.03,0,.07,0,.07-.66-.42-1.33-.93-1.71-.53-.03,0-.08.02-.09.13-.33.59-.76.77-1.37.18-.32-.24-.62-.59-.89-.44-.31.16-.63.44-.85,1.16-.59-1.03-1.11-1.59-1.65-1.43-.13,0-.25.02-.37.08-.34-.04-.69.38-1.02,1.1-.09.16-.17.31-.25.54-.52-.21-.9-1.23-1.53-.83-.04.02-.11.08-.17.14,0,0-.04.03-.05.02-.32-.98-.63-1.98-1.18-1.91-.13-.03-.26,0-.39,0-.33-.15-.8.19-1.28.8-.08.08-.16.19-.22.28-.48-.64-.53-1.27-1.52-.93-.49.45-.79-.25-.95-.69-.15-.4-.23-.86-.58-.87-.38-.09-.83-.07-1.45.43,0-1.18-.18-2.07-.82-2.22-.12-.07-.28-.09-.41-.14-.3-.25-.88-.08-1.53.35-.15.1-.33.21-.5.34-.42-.43-.34-1.61-1.13-1.53-.06,0-.14-.02-.22,0-.19-.02-.42.01-.75.18-.03.02-.06.04-.07.03-.04-.85-.07-1.74-.69-1.86-.03-.02-.08-.06-.17,0-.71,0-1.18-.25-1.16-1.16-.04-.45,0-.93-.35-1.08-.38-.19-.85-.32-1.57-.05.27-1.16.26-2.08-.34-2.45-.11-.12-.24-.2-.38-.27-.27-.33-.86-.34-1.67-.09-.19.04-.37.09-.59.19-.34-.62-.11-1.79-.99-1.97-.06-.02-.16-.03-.25-.03,0,0-.05,0-.07-.02l-.03.03c-.23-.64-.29-1.43-.93-1.77-1.43-.76-2.83-.21-2.83-.21-.64.17-1.46.54-2.21,1.04-3.01,2-5.41,5.69-5.07,7.5l.17.92c-.07,1.06.92,1.35,1.71,1.53l-.14.13c-.08,1.14.74,1.55,1.6,1.71.07.03.31.13.44.19,0,.09.02.17.04.24-.02.28.26.42.18.77-.01.03-.02.08,0,.09-.06.28.01.45.07.65.04.06.09.13.13.19.11.54.58.8,1.01,1.01.21.17.61.13.98.09,0,.02,0,.08,0,.1.01.34-.13.84-.02,1.13-.03.34.1.56.23.77.03.03.05.1.15.14.2.34.49.68.91.78.26.14.61.19,1.01.1.39-.06.86-.26,1.09-.1.07.28.2.53.26.88l.06.09c.03.11.1.21.19.37.37.72,1.24.89,2.27.5.01,1.53,1.15,1.86,2.22,1.86.07,0,.35.11.53.11,0,.12.04.19.08.25.15.26.35.47.43.8.02.29.13.44.24.64.05.07.11.14.19.19.27.47.83.61,1.31.74.3.1.66-.03,1.02-.17,0,.04.02.09.04.09.12.36.13.85.33,1.11.06.37.3.53.49.7.01.04.07.07.17.12.33.29.73.52,1.18.53.33.04.7-.01,1.07-.21.36-.13.76-.46,1.07-.4.14.31.37.46.58.76,0,0,.08.1.09.07.08.1.16.2.28.28l.06.02c.83.61,1.67.25,2.27-.09.18.23.49.22.62.61.01.01.04.04.05.05.11.27.27.4.45.55.07.05.16.11.25.13.43.38,1.05.36,1.58.35.25,0,.82-.13,1.22-.4.79.99,1.95.83,2.89.37.08-.02.4-.1.57-.15.08.07.16.11.24.15.23.23.57.13.79.44.02.03.05.07.06.07.18.24.38.31.6.41.08.01.19.03.27.04.54.32,1.16.15,1.69-.05.32-.05.61-.36.87-.67.02.01.07.05.09.06.3.22.62.67.96.76.27.24.57.27.85.3.05,0,.13.02.24-.03.46.04,1,.05,1.41-.24.33-.13.63-.39.85-.77.24-.35.4-.86.71-.95.3.1.61.11.97.26h.12c.12.04.26.03.47.04.92.11,1.65-.61,1.98-1.71,1.41.84,2.41-.11,3.06-1.03.04-.06.3-.26.4-.43.1.06.19.05.28.04.32-.01.62-.1.97-.01.14.06.46-.07.76-.22.28-.16.53-.34.53-.34.52-.27.81-.99.8-1.83,0-.19,0-.43-.04-.65.72-.34,1.99-.01,2.36-.95.04-.07.09-.16.11-.25.12-.22.2-.49.16-.88,0-.04-.02-.07,0-.08.95.07,2,.08,2.37-.66.03-.03.1-.09.07-.2.26-.83.66-1.36,1.68-1.39.51-.08,1.08-.08,1.33-.51.3-.47.51-1.06.3-1.85,1.27.15,2.35-.08,2.77-.91.14-.16.24-.33.31-.52.39-.4.42-1.11.06-1.9-.06-.19-.13-.37-.26-.58.58-.49,1.86-.52,1.9-1.5,0-.07,0-.17,0-.27,0-.01,0-.05.01-.08,1.15-.02,2.35-.19,2.64-.98.11-.17.16-.37.24-.54.33-.43.24-1.15-.16-1.86-.04-.11-.13-.23-.18-.33.89-.52,1.54-.61,1.56-1.93-.32-.64.47-1.03.98-1.27.47-.22,1.01-.38,1.06-.84.16-.52.21-1.11-.25-1.81,1.26-.17,2.21-.66,2.4-1.51.08-.17.1-.37.15-.55.25-.45.06-1.13-.45-1.78-.11-.15-.25-.33-.4-.49.41-.6,1.62-.91,1.42-1.81,0-.08,0-.16-.04-.25-.01-.23-.08-.48-.32-.77-.03-.02-.05-.05-.05-.06.84-.35,1.72-.75,1.7-1.48.02-.04.05-.11-.03-.19-.18-.78-.09-1.37.82-1.75.42-.25.93-.43.95-.86.05-.49.02-1.04-.48-1.65,1.21-.26,2.09-.74,2.2-1.53.07-.17.1-.34.1-.51.21-.43,0-1.04-.59-1.63-.12-.15-.24-.29-.43-.44.41-.56,1.56-.85,1.35-1.7-.01-.06-.04-.15-.08-.23,0-.01-.02-.05,0-.07l-.05-.02c.48-.46,1.16-.83,1.2-1.52.07-1.56-1-2.58-1-2.58-.42-.5-1.09-1.1-1.85-1.58-3.04-1.97-7.36-2.74-8.9-1.63l-.78.56c-1,.39-.86,1.45-.7,2.25l-.18-.07c-1.08.43-1.1,1.36-.88,2.21,0,.07.01.34.02.49-.09.04-.14.09-.2.14-.26.11-.27.39-.62.46-.04,0-.08.01-.08.03-.27.05-.39.18-.55.3-.03.06-.08.13-.11.18-.44.29-.46.78-.46,1.22-.06.24.13.56.33.87-.02,0-.07.03-.09.04-.3.13-.81.16-1.03.34-.32.08-.46.26-.6.42-.01.04-.06.07-.07.17-.22.27-.42.61-.36.99-.03.26.06.56.29.88.19.32.55.67.48.92-.23.13-.41.31-.72.43l-.07.07c-.09.05-.16.13-.28.24-.55.46-.41,1.23.24,2.05-1.45.26-1.42,1.25-1.18,2.16,0,.06-.03.31,0,.46-.11,0-.17.05-.23.09-.22.15-.38.33-.68.41-.27.03-.39.13-.55.23-.06.04-.12.09-.15.16-.4.23-.45.68-.5,1.08-.05.24.13.55.31.86-.03,0-.08.01-.09.03-.33.08-.8.05-1.03.19-.34.01-.47.18-.62.32-.04,0-.06.05-.1.12-.24.23-.42.52-.42.85-.03.24.04.54.23.86.13.31.45.69.39.93-.29.05-.46.18-.75.27,0,0-.1.04-.07.05-.1.04-.2.07-.28.14l-.02.04c-.59.47-.34,1.18-.13,1.75-.24.06-.28.3-.65.26-.01,0-.04.02-.05.02-.27-.02-.4.07-.57.14-.06.03-.13.07-.17.13-.42.16-.52.58-.63.95-.05.18-.08.61.05,1-1.06.08-1.26.84-1.23,1.66-.01.06-.06.3-.08.43-.09,0-.15.03-.21.06-.26.02-.33.25-.67.18-.03-.01-.07-.02-.08,0-.26-.05-.4,0-.57.06-.04.04-.1.08-.14.11-.46.08-.59.49-.7.86-.12.17-.03.51.06.85-.02,0-.07,0-.09,0-.3-.02-.77-.2-1.01-.14-.3-.07-.47.02-.64.1-.02.02-.07.03-.1.11-.27.12-.54.29-.6.61-.1.19-.12.48-.02.84.07.35.26.8.12.96-.24-.01-.46.04-.76,0l-.08.02c-.09,0-.18.02-.32.05-.61.11-.76.73-.54,1.73-1.27-.54-1.61.15-1.8,1.02-.01.05-.15.22-.19.35-.11-.05-1.67-1.9-1.7.14Z" fill="#f9c316"/>
      <path d="M158.83,203.62c-.13-.04-.24.41-.33,1.14-.02.17-.04.37-.06.56-.22-.14-.44-1.12-.64-.6-.02.03-.04.06-.06.13-.06.1-.12.26-.17.59,0,.03-.01.07-.01.07-.18-.65-.35-1.29-.56-1.04-.01,0-.03,0-.05.09-.21.43-.4.54-.55-.19-.09-.31-.15-.73-.28-.61-.15.11-.31.32-.5,1-.09-1.05-.21-1.7-.46-1.57-.05-.01-.1,0-.16.06-.13-.07-.34.32-.57,1.05-.06.16-.11.31-.17.53-.19-.22-.21-1.21-.53-.75-.02.03-.06.09-.09.15,0,0-.02.03-.03.03,0-.95-.02-1.86-.27-1.74-.05-.02-.11.03-.17.04-.13-.08-.38.32-.66.99-.04.1-.09.21-.13.3-.14-.54-.09-1.08-.57-.55-.27.53-.33,0-.36-.37-.02-.33,0-.76-.17-.65-.17.03-.38.19-.73.83.13-1.09.13-1.78-.15-1.69-.05-.02-.12.02-.18.03-.12-.09-.42.28-.79.91-.08.15-.18.32-.28.48-.16-.24,0-1.24-.41-.86-.03.02-.07.04-.11.09-.09.06-.21.18-.39.46-.02.03-.04.06-.04.06.06-.68.13-1.39-.17-1.22-.01,0-.03-.02-.08.07-.37.32-.6.36-.5-.39.02-.34.09-.76-.08-.71-.19.04-.43.16-.84.71.26-1.05.34-1.75.03-1.71-.05-.03-.11-.03-.19,0-.12-.12-.45.18-.9.78-.11.13-.21.26-.34.45-.12-.29.15-1.28-.31-.97-.03.02-.08.06-.13.1,0,0-.03.02-.03.02l-.02.04c-.05-.36.03-.91-.28-.84-.69.16-1.57,1.25-1.57,1.25-.39.44-.92,1.11-1.42,1.84-2.04,2.92-3.93,6.79-3.86,8.02l.03.62c-.13.84.47.61.93.37l-.09.17c-.12.92.35.85.86.56.04-.01.18-.05.26-.07,0,.07,0,.12.01.16-.02.22.13.2.06.5-.01.03-.02.07-.01.07-.05.24-.02.34,0,.47.02.02.05.05.07.08.03.37.28.33.52.28.11.03.33-.18.55-.4,0,.01,0,.06,0,.07-.02.26-.14.73-.1.9-.04.28.02.39.07.5.02,0,.02.05.07.04.09.17.22.32.44.22.13,0,.32-.12.54-.37.22-.22.49-.6.61-.58.02.19.07.33.08.6l.02.05c0,.08.04.13.07.22.14.44.6.19,1.17-.55-.14,1.3.44,1.11.97.71.03-.02.16-.03.25-.09-.01.1,0,.15.02.19.05.17.14.27.15.53-.02.24.03.33.07.46.02.04.04.09.07.1.09.32.35.26.58.21.14-.02.33-.26.52-.5,0,.03,0,.07,0,.07.02.29-.03.74.04.91-.01.31.08.39.16.49,0,.04.03.05.07.06.13.16.29.26.49.16.15-.05.32-.19.52-.48.18-.22.41-.63.54-.66.03.25.11.35.18.58,0,0,.02.08.03.04.02.08.05.15.09.2h.02c.31.38.71-.11,1.01-.54.05.19.19.13.19.48,0,0,.01.03.02.04.01.25.07.33.13.45.02.04.05.09.09.1.13.32.39.22.61.15.11-.04.36-.22.56-.51.2.9.69.67,1.12.22.04-.02.17-.11.24-.15.02.07.05.11.07.15.06.22.2.14.25.46,0,.03,0,.07.02.07.04.24.1.33.17.44.03.02.07.04.1.05.17.34.42.23.65.09.13-.02.28-.3.43-.58,0,.01.02.06.03.07.09.24.14.72.26.87.07.28.18.35.28.43.02,0,.04.04.09.01.17.12.37.21.56.03.14-.05.29-.23.42-.55.14-.28.27-.74.4-.75.1.18.21.29.32.53l.05.04c.04.07.09.11.17.18.32.36.71-.07.98-.99.41,1.24.93.82,1.3.23.03-.03.16-.1.22-.19.03.1.07.13.1.17.13.13.26.2.38.43.09.24.59.11.59.11.25.02.47-.47.58-1.21.03-.17.06-.37.08-.57.34.11.81,1.03,1.11.48.03-.04.06-.07.09-.14.08-.11.16-.28.2-.61,0-.03,0-.07,0-.07.39.61.84,1.22,1.12.86.02,0,.06-.01.06-.11.23-.51.48-.69.95-.07.25.26.51.61.69.45.21-.17.41-.45.42-1.16.59.95,1.14,1.43,1.48,1.13.09-.03.17-.08.23-.17.25-.04.37-.52.31-1.29,0-.17-.01-.34-.05-.57.37.07,1.04.88,1.21.28.01-.04.03-.11.04-.18,0,0,0-.04.02-.04.63.78,1.29,1.43,1.57,1.12.09-.03.15-.13.21-.19.25-.06.3-.58.17-1.31-.01-.1-.04-.23-.06-.33.57.27.97.68,1.17-.1-.09-.59.41-.29.75-.09.3.18.65.46.75.22.17-.2.29-.51.1-1.23.81.78,1.48,1.14,1.74.8.08-.04.13-.14.19-.2.24-.07.21-.6-.03-1.3-.05-.16-.12-.35-.19-.54.35-.05,1.18.57,1.18-.05,0-.04.02-.09.01-.16.03-.13.01-.31-.1-.63-.01-.03-.03-.06-.02-.06.61.37,1.28.74,1.38.33.02-.01.05-.03,0-.12,0-.53.14-.78.82-.42.33.13.71.35.79.13.1-.24.16-.56-.13-1.2.91.62,1.62.89,1.81.51.07-.05.12-.13.15-.22.22-.11.14-.58-.23-1.25-.07-.15-.15-.3-.28-.5.36-.07,1.26.43,1.17-.17,0-.04-.02-.11-.04-.18,0,0,0-.04,0-.04l-.03-.04c.41.01.97.18,1.06-.2.2-.85-.6-2.01-.6-2.01-.3-.51-.81-1.19-1.39-1.85-2.35-2.66-5.74-5.36-6.84-5.73l-.57-.19c-.73-.4-.6.17-.48.64l-.13-.14c-.78-.44-.78-.03-.63.51,0,.04,0,.17.01.24-.06-.04-.1-.05-.15-.06-.19-.11-.2,0-.45-.18-.03-.02-.06-.04-.06-.04-.19-.15-.28-.17-.4-.22-.03,0-.06,0-.08.01-.31-.15-.33.05-.35.25-.05.07.08.34.21.61-.01,0-.05-.03-.06-.04-.21-.14-.56-.46-.71-.52-.22-.17-.32-.18-.41-.2-.01,0-.05-.01-.05.03-.15-.02-.3,0-.26.21-.03.1.03.3.17.6.12.28.34.69.29.75-.16-.1-.29-.14-.49-.29h-.05c-.06-.06-.11-.07-.19-.1-.38-.17-.31.28.06,1.12-.93-.88-.94-.39-.84.24,0,.04-.03.13-.02.24-.07-.08-.11-.09-.14-.11-.14-.08-.24-.09-.43-.26-.16-.18-.24-.22-.34-.28-.04-.02-.08-.04-.1-.03-.25-.18-.29.02-.34.18-.04.09.05.37.14.66-.02-.03-.05-.05-.05-.05-.2-.2-.47-.55-.6-.63-.2-.24-.27-.24-.36-.27-.02-.03-.04-.02-.06,0-.14-.04-.25-.03-.27.16-.02.12,0,.33.09.65.06.26.21.71.17.79-.16-.19-.26-.23-.42-.38,0,0-.05-.05-.04-.02-.05-.05-.11-.1-.16-.12h-.01c-.34-.16-.23.43-.15.92-.12-.13-.15-.02-.34-.3,0,0-.02-.02-.03-.03-.13-.2-.2-.25-.29-.32-.03-.02-.07-.05-.09-.04-.21-.21-.27,0-.34.15-.03.08-.06.35-.02.66-.51-.73-.62-.37-.66.18,0,.03-.04.15-.06.22-.04-.06-.07-.08-.1-.11-.12-.17-.16-.06-.3-.33-.01-.03-.03-.06-.03-.06-.11-.21-.17-.26-.25-.35l-.07-.02c-.2-.26-.27-.07-.34.12-.06.05-.04.35-.02.65,0-.01-.03-.05-.04-.06-.12-.22-.3-.66-.4-.78-.12-.25-.19-.31-.26-.37-.01,0-.03-.03-.05,0-.11-.09-.23-.14-.27.07-.05.07-.08.28-.07.61,0,.3.03.76-.03.81-.09-.15-.17-.24-.28-.46l-.03-.03c-.03-.06-.07-.09-.12-.15-.23-.29-.34.12-.36,1.05-.41-1.21-.6-.77-.76-.17-.01.03-.08.1-.11.2-.04-.1-.37-2.47-.62-.69Z" fill="#f9c316"/>
    </g>
  </g>
</svg>