<?xml version="1.0" encoding="UTF-8"?>
<svg id="Layer_2" data-name="Layer 2" xmlns="http://www.w3.org/2000/svg" viewBox="0 0 108.73 283.39">
  <g id="Layer_1-2" data-name="Layer 1">
    <g>
      <path d="M17.21,155.11c4.16,3.26,8.08,5.22,11.84,6.17,3.62.92,7.11.88,10.51.14,6.21-1.35,8.33-2.32,9.57-2.88,1.19-.54,1.91-.88,3.33-.97h.11c1.55-.09,3.4.23,7.95.99,1.78.29,3.96.68,5.85.97,4.5.74,8.78.74,12.81-.07,3.96-.79,7.77-2.41,11.37-4.91,1.19-.83,2.14-1.69,2.86-2.36,1.33-1.24,2.27-2.12,3.89-2.39,3.89-.68,5.27,1.35,6.42,7.92.72,4.1.63,8.06-.2,11.91-.86,3.85-2.48,7.54-4.89,11.1-3.06,4.55-6.1,7.61-9.1,10.63-4.05,4.07-8.06,8.13-11.8,16.1-1.51,3.22-2.81,6.66-3.92,10.31-1.08,3.6-1.96,7.36-2.63,11.32v47.14c0,2.16-1.78,3.92-3.96,3.92h-27.78c-2.18,0-3.96-1.76-3.96-3.92v-45.91c-2.39-16.59-10.99-27.33-18.53-36.72-8.8-10.96-16.3-20.28-13.1-34.96,1.53-7.02,2.84-9.19,6.96-8.28,1.58.34,2.52,1.24,3.89,2.54.7.65,1.55,1.46,2.5,2.21h0ZM65.75,11.4h-19.23v48.04c.18,6.71-1.87,13.24-5.56,19.65-3.56,6.15-8.65,12.18-14.75,18.15-5.56,7.32-9.5,16.05-10.69,23.89-.65,4.3-.47,8.22.77,11.3,1.1,2.77,3.11,4.91,6.24,6.1,3.15,1.19,7.45,1.49,13.06.56,2.05-.34,4.26-1.17,6.57-2.03,1.37-.52,2.79-1.04,4.23-1.51,12.92-4.16,16.37-2.54,21.28-.25,2.18,1.04,4.77,2.25,9.66,2.75,6.3.65,11.14-.27,14.45-2.95,3.31-2.68,5.36-7.34,6.08-14.14.16-1.53-.02-3.11-.45-4.71-.47-1.76-1.24-3.53-2.21-5.34-3.4-6.35-7.43-10.69-11.35-14.93-6.93-7.5-13.49-14.57-16.55-30.48-2.39-12.36-2.03-29.43-1.71-44.51.05-3.22.11-6.3.16-9.61h0ZM42.56,3.5h27.15c2.18,0,3.96,1.78,3.96,3.96,0,3.51-.11,8.51-.2,13.71-.32,14.68-.65,31.27,1.58,42.89,2.63,13.73,8.44,19.99,14.57,26.61,4.26,4.59,8.65,9.34,12.52,16.57,1.26,2.34,2.25,4.68,2.88,7,.68,2.48.92,5,.68,7.56-.95,9.03-3.96,15.44-8.98,19.5-5.02,4.05-11.77,5.52-20.19,4.64-6.19-.65-9.43-2.16-12.2-3.47-3.24-1.53-5.54-2.61-15.51.61-1.35.43-2.63.92-3.87,1.37-2.7,1.01-5.27,1.96-8.06,2.43-7.09,1.15-12.74.7-17.16-.99-5.36-2.05-8.85-5.79-10.74-10.58-1.78-4.48-2.09-9.79-1.26-15.38,1.4-9.16,5.97-19.34,12.4-27.71h0c.11-.16.25-.29.38-.43,5.7-5.56,10.42-11.1,13.64-16.66,2.99-5.16,4.64-10.31,4.53-15.44-.02-.14-.02-.29-.02-.45V7.46c-.02-2.18,1.73-3.96,3.92-3.96h0ZM27.12,168.86c-4.75-1.22-9.68-3.65-14.77-7.65-.29-.23-.56-.45-.81-.65-2.23,10.94,4.14,18.87,11.62,28.19,8.17,10.18,17.49,21.79,20.17,40.52.07.27.09.56.09.86v42.19h19.86v-43.47h0c0-.2.02-.41.05-.63.74-4.46,1.71-8.69,2.9-12.68,1.19-4.01,2.63-7.79,4.32-11.37,4.3-9.19,8.8-13.71,13.35-18.3,2.75-2.77,5.52-5.56,8.17-9.5,1.82-2.7,3.06-5.52,3.71-8.4.56-2.5.68-5.09.32-7.77-.32.25-.65.5-1.01.74-4.48,3.13-9.28,5.13-14.36,6.15-5,1.01-10.22,1.01-15.62.14-2.84-.47-4.5-.74-5.88-.97-3.85-.65-5.45-.92-6.12-.88h-.02s-.27.11-.65.27c-1.55.7-4.21,1.91-11.19,3.42-4.55.99-9.23,1.04-14.12-.2h0ZM98.46,157.54l.05.07s.09.02.14.05c.68-.23.95-.32.02-.16-.11.02-.18.05-.2.05h0ZM98.46,157.54s0,.05.05.07l-.05-.07h0ZM9.15,158.01c-.99-.23-.65-.07.02.27.09-.16.38-.18-.02-.27h0Z" fill="#f9c215"/>
      <g>
        <path d="M98.95,154.44s-.04.17-.03.46c0,.07,0,.14,0,.22-.04-.06-.1-.44-.09-.24,0,.01,0,.03,0,.05,0,.04,0,.1.01.23,0,.01,0,.03,0,.03-.04-.25-.09-.52-.1-.41,0,0,0,0,0,.04,0,.18,0,.23-.05-.05-.02-.12-.05-.28-.05-.23,0,.05,0,.14.03.41-.07-.41-.12-.66-.13-.59,0,0,0,.01,0,.04-.01-.02,0,.15.04.45,0,.06.02.13.03.22-.02-.07-.1-.46-.08-.25,0,.01,0,.04,0,.06h0c-.07-.36-.13-.71-.14-.63,0,0,0,.02,0,.03-.01-.02,0,.16.05.45,0,.04.01.09.02.13-.04-.19-.08-.4-.06-.15.03.23-.01.03-.04-.1-.03-.12-.06-.28-.05-.22,0,.04,0,.12.05.41-.08-.42-.13-.68-.14-.61,0,0,0,.02,0,.03-.01-.02.01.16.05.44,0,.06.02.14.03.22-.02-.06-.1-.45-.07-.25,0,.01,0,.02,0,.05,0,.04.01.1.03.23,0,.01,0,.03,0,.03-.05-.26-.11-.53-.1-.41,0,0,0,0,0,.04.01.09.01.14,0,.14h0s-.08.01-.08.01h0s0,0,0,0h0s0-.03,0-.05c0-.03,0-.08-.02-.16-.01-.12-.03-.29-.01-.24.02.04.05.13.1.39-.05-.42-.06-.69-.03-.62,0,0,.01,0,.02.03.01-.02.05.14.09.43,0,.06.02.13.03.22,0-.08,0-.47.03-.28,0,.01,0,.04,0,.06h0s0,.03,0,.03c0-.12.01-.32.04-.24.05.19.07.75.07.75,0,.23.01.57.02.92,0,1.42,0,3.14.08,3.55l.04.21c.04.32.08.11.09-.06v.08c.06.34.1.22.11.02,0-.01,0-.05.01-.07,0,.03.01.04.01.05.02.08.02.05.05.17,0,.01,0,.03,0,.03.02.09.03.12.04.16v.02c.05.12.06.06.08,0,.01-.01,0-.13,0-.24v.03c.03.09.07.28.09.33.03.11.04.13.06.16,0,0,0,.01,0,0,.02.04.05.07.06,0,0-.03,0-.1,0-.23,0-.06-.01-.13-.02-.19v-.02s0-.01,0-.01h0s-.07,0-.07,0v-.03s0-.04,0-.04c.01.07.02.11.04.2h0s0,.06.02.08c.03.14.01-.02-.04-.38.09.49.08.34.05.11,0-.01,0-.04,0-.07,0,.04.01.05.01.07.01.06.02.08.04.18.02.09.02.12.03.16,0,.01,0,.03,0,.03.02.11.02.05.02,0,0-.02-.02-.14-.03-.26,0,.01,0,.03,0,.03.02.11.05.28.06.33.02.12.03.13.03.16,0,.01,0,.01,0,.01.01.04.02.06.01,0,0-.04-.01-.11-.03-.24-.01-.1-.04-.28-.04-.31.02.09.02.12.04.2,0,0,0,.03,0,.01,0,.03.01.05.01.07h0c.03.11,0-.12-.03-.31.01.07,0,.03.03.16h0c.02.11.02.13.03.17,0,.01,0,.03,0,.03.02.11.02.05.01,0,0-.02-.01-.11-.03-.24.06.33.05.21.02,0,0-.01,0-.05,0-.08,0,.03,0,.04,0,.05.01.08,0,.04.03.16,0,.01,0,.03,0,.03.02.09.02.12.03.16h0c.02.14.02.07,0,.01,0-.01-.02-.13-.03-.24,0,0,0,.03,0,.03.01.09.04.28.05.33.02.11.02.13.03.16,0,0,0,.01,0,0,0,.04.01.07,0,0,0-.02-.01-.1-.03-.23-.02-.12-.04-.3-.04-.31,0,.07.01.11.03.2h0s0,.05,0,.08c.02.14,0-.03-.05-.39.06.49.04.33,0,.1,0-.01,0-.04-.02-.07,0,.04,0,.05,0,.07,0,.06,0,.08,0,.18,0,.09-.02.06-.02.06-.02.02,0-.17-.08-.45-.01-.07-.03-.14-.04-.22-.06.06-.17.45-.25.23,0-.01-.19-.05-.27-.09-.31-.1-.62-.31-.78-.58,0-.02-.02-.05-.04-.06-.11-.04-.22-.1-.33-.16l-.15-.1-.07-.05s-.09-.09-.13-.14c-.19-.22-.4-.58-.49-1.07-.09-.49,0-1.08.21-1.49.1-.21.21-.38.33-.52.06-.07.11-.13.17-.19l.08-.08s0-.01.01-.02c0-.03.02-.05.04-.07.03-.04.08-.07.13-.08,0,0,.03-.02.06,0,.13.02.23.03.31-.01.06-.03,0-.07-.03-.21-.04-.12-.09-.27-.05-.24.04.04.1.1.22.35-.16-.39-.25-.63-.21-.56,0,0,0,0,.02.03,0-.02.06.14.17.42.02.06.05.12.08.21-.03-.07-.17-.43-.1-.24,0,.01.01.04.02.06h0c-.13-.34-.26-.67-.23-.6,0,0,0,.02,0,.03,0,.02.05.15.14.43.01.04.03.09.04.12-.07-.18-.15-.38-.07-.14.07.22,0,.03-.05-.1-.04-.12-.1-.27-.08-.21,0,.03.03.12.12.39-.15-.41-.24-.65-.23-.58,0,0,0,.02,0,.03-.01-.02.04.15.13.43.02.06.04.14.07.21-.03-.06-.16-.43-.1-.23,0,.01,0,.02.01.05.01.04.03.1.07.22,0,.01,0,.03,0,.03-.09-.24-.19-.5-.16-.4,0,0,0,0,.01.04.05.17.06.21-.04-.06-.04-.12-.1-.27-.09-.22,0,.05.03.13.11.39-.14-.4-.24-.65-.22-.58,0,0,0,0,0,.03-.01-.02.03.14.12.42.02.06.04.12.07.21-.03-.07-.17-.45-.11-.25,0,.01.01.04.02.06h0s0,.03,0,.03c-.04-.11-.12-.3-.1-.22.04.19.21.71.21.71.07.22.17.54.28.88.44,1.35,1,2.98,1.15,3.36l.08.2c.11.3.06.11.01-.06l.02.07c.12.32.09.21.04.02,0-.01-.01-.05-.02-.07.01.03.02.04.02.05.03.08.02.05.06.16,0,.01,0,.03,0,.03.03.09.04.12.06.16,0,0,0,.02,0,.02.05.12.03.06.02,0,0,0-.03-.12-.07-.23v.03c.04.09.11.27.13.32.04.1.05.13.06.16,0,0,0,.01,0,0,.02.04.03.07.02,0,0-.02-.02-.1-.06-.22-.03-.11-.09-.29-.09-.3.03.06.04.1.08.19h0s.02.05.03.08c.05.13.01-.03-.1-.37.17.47.14.32.08.1,0-.01,0-.03-.02-.07.01.04.02.05.02.06.02.05.03.08.07.17.03.09.04.11.06.15,0,.01.01.03.01.03.04.1.03.05.02,0,0-.02-.04-.13-.07-.25,0,.01,0,.03,0,.03.04.1.1.26.12.32.04.11.05.13.06.15,0,.01,0,.01,0,.01.02.04.03.05.02,0-.01-.04-.03-.11-.07-.23-.03-.1-.08-.27-.09-.3.04.09.05.11.08.19,0,0,.01.03,0,.01.01.03.02.05.03.06h0c.05.1-.02-.12-.07-.3.03.06.02.03.07.15h0c.04.1.05.13.07.16,0,.01.01.03.01.03.05.1.04.04.03,0,0-.02-.03-.11-.06-.23.13.31.11.19.05,0,0-.01,0-.05-.01-.08.01.02.02.04.03.05.04.07.03.04.08.15,0,.01.01.02.01.02.04.09.05.11.07.15,0,0,.01.01.01.01.06.11.05.04.04-.02,0-.01-.03-.13-.07-.24,0,0,.01.02.01.02.04.09.12.26.16.3.06.09.09.11.11.13,0,0,.01,0,.02,0,.04.03.09.04.08-.04.01-.03,0-.11-.04-.24-.01-.06-.05-.13-.06-.19,0-.07.02-.14.06-.16.1.02.19.02.32.05h.04s.08-.01.15-.03c.04,0,.07-.01.1-.03.02-.01.03-.02.04-.02h.02s.12-.12.12-.12c.27-.25.6-.66.8-1.26.21-.59.19-1.33,0-1.85-.16-.52-.46-.89-.61-1.04-.11-.1-.24-.18-.37-.26-.27-.15-.57-.25-.84-.28-.15-.14-.33-.25-.51-.33-.09-.04-.19-.08-.28-.1l-.07-.02h0s-.01-.03-.01-.03c-.03-.05-.07-.07-.11-.07-.08,0-.16.1-.22.22,0,.01-.05.04-.07.08-.03-.04-.11-1-.14-.3Z" fill="#f9c316"/>
        <g>
          <path d="M36.75,215.82c.15.44.49.82.9,1.08.09.06.2.13.31.18.17.65,0,1.43.42,2.03.03.06.07.13.11.18.1.17.22.34.4.47.02,0,.03.02.04.03-.06.64-.17,1.35.12,1.93.01.04.03.11.08.14.33.56.56,1.09.41,1.79-.04.38-.13.74,0,1.12.15.44.34.9.69,1.22-.27.71-.43,1.47-.22,2.21.03.18.07.34.12.5.05.35.19.68.41.96l.06.28.19.04c.06.02.13.04.23.06-.03.11-.05.23-.08.35l-.13.53c-.08.36-.13.72-.03,1.1.01.05.04.13.06.2,0,.01.01.04.01.07-.38.62-.73,1.34-.66,2.09,0,.19.02.36.03.54-.02.49.16,1.01.45,1.38.04.07.09.12.13.18-.19.84-.41,1.19-.16,2.25.23.38.03,1.04-.11,1.46-.12.37-.29.73-.22,1.13.03.5.12,1.01.41,1.41-.43.66-.69,1.42-.62,2.23,0,.17.02.36.03.54-.02.48.16.99.44,1.38.06.09.14.2.22.28-.06.7-.46,1.4-.26,2.14.01.07.02.15.05.21.04.2.1.4.23.59.01.01.03.03.03.04-.26.61-.54,1.29-.43,1.96,0,.04,0,.12.04.16.18.66.22,1.25-.07,1.91-.12.37-.29.72-.24,1.13.05.48.13.99.4,1.4-.42.66-.69,1.42-.62,2.22,0,.19,0,.36.03.54-.02.49.14,1.01.44,1.39.06.11.13.2.22.29-.08.69-.48,1.38-.28,2.15.01.05.04.13.06.2,0,.01.01.04.01.07h.02c-.12.63-.32,1.24-.24,1.96.19,1.59.74,2.2.74,2.2.23.34.57.66.92.84,1.42.73,3.14-.21,3.55-1.76l.21-.79c.32-.71.12-1.64-.05-2.35h.08c.35-.77.23-1.66.03-2.4-.01-.07-.05-.32-.07-.46.03-.07.04-.13.06-.2.08-.2.05-.47.17-.65.01-.01.03-.04.03-.05.1-.15.12-.31.17-.48,0-.07.01-.15.02-.21.13-.43.07-.91.01-1.34,0-.26-.12-.5-.24-.73,0-.01.02-.05.03-.07.1-.23.29-.44.34-.69.11-.19.14-.41.17-.63,0-.04.01-.09,0-.19.04-.35.08-.75,0-1.1-.02-.27-.1-.54-.23-.77-.12-.24-.3-.46-.31-.73.07-.21.11-.45.21-.69v-.09c.04-.08.06-.19.09-.35.14-.67-.02-1.38-.38-1.95.5-.82.34-1.82.12-2.64-.01-.05-.04-.32-.07-.46.04-.05.05-.12.07-.19.06-.24.09-.49.18-.71.09-.15.12-.31.17-.48.01-.07.03-.15.03-.23.11-.41.05-.9,0-1.33-.02-.27-.14-.5-.26-.73.01-.01.03-.05.03-.07.11-.24.28-.44.34-.69.12-.19.14-.43.17-.64.01-.03.01-.08.02-.17.04-.36.06-.75,0-1.1-.04-.27-.11-.54-.24-.77-.1-.24-.29-.46-.31-.73.09-.21.12-.44.21-.69,0,0,.03-.09.01-.09.03-.09.05-.19.07-.31v-.05c.12-.83-.12-1.39-.31-1.81.07-.2.03-.46.17-.64,0-.01.01-.04.01-.05.09-.15.12-.31.16-.48.01-.07.03-.15.03-.23.11-.41.05-.9,0-1.33-.02-.2-.11-.64-.24-.93.17-.39.22-.8.21-1.21,0-.21-.03-.41-.07-.61-.04-.22-.07-.32-.15-.71-.02-.12-.11-.56-.16-.79.01-.12,0-.24,0-.36v-.05s.05.27.05.27c.03-.21-.04-.46.04-.66.01-.02.02-.04.02-.06.07-.16.07-.33.08-.52,0-.07-.02-.15-.02-.22.05-.46-.1-.95-.23-1.38-.05-.26-.21-.49-.37-.7,0-.01.01-.06.01-.07.04-.25.18-.5.18-.77.06-.21.04-.45.02-.68,0-.04,0-.1-.04-.19-.04-.37-.1-.78-.25-1.13-.09-.27-.22-.53-.4-.73-.18-.22-.42-.39-.5-.66,0-.23-.02-.48,0-.75v-.1c0-.09-.02-.2-.04-.37-.05-.71-.4-1.39-.95-1.84.2-.97-.27-1.92-.77-2.64-.03-.05-.15-.3-.24-.42.02-.07,0-.14,0-.21-.04-.25-.11-.51-.1-.75.03-.18-.37-1.14-.37-1.14-.15-.48-.55-.89-.98-1.15-.1-.06-.22-.14-.32-.18-.24-.68-.15-1.52-.68-2.13-.04-.06-.09-.13-.14-.18-.13-.17-.28-.33-.48-.45-.02,0-.04-.01-.04-.03-.05-.68-.1-1.45-.53-2.01-.02-.04-.06-.11-.11-.13-.48-.52-.81-1.03-.89-1.77-.07-.4-.12-.79-.38-1.14-.3-.41-.64-.82-1.09-1.03.02-.81-.2-1.61-.7-2.27-.1-.16-.21-.31-.33-.45-.26-.45-.69-.79-1.16-.94-.12-.06-.23-.1-.35-.12-.34-.62-.41-1.45-1.03-1.97-.04-.04-.11-.09-.17-.13,0-.01-.03-.03-.05-.05-.06-.74-.21-1.55-.72-2.13-.11-.15-.24-.28-.36-.42-.29-.42-.75-.73-1.21-.86-.07-.03-.15-.04-.21-.06-.36-.8-.41-1.2-1.27-1.9-.42-.16-.67-.82-.83-1.23-.14-.37-.23-.76-.54-1.04-.34-.37-.73-.72-1.2-.85-.08-.79-.36-1.55-.91-2.13-.11-.14-.24-.27-.36-.4-.28-.39-.74-.67-1.21-.8-.11-.03-.24-.07-.35-.08-.38-.58-.51-1.37-1.1-1.82-.05-.04-.11-.1-.17-.14-.15-.13-.32-.25-.54-.32-.02,0-.04,0-.05-.02-.17-.63-.33-1.33-.81-1.78-.02-.03-.07-.09-.12-.1-.53-.41-.88-.85-1.02-1.53-.1-.36-.17-.72-.41-1.02-.29-.35-.62-.71-1.06-.88.02-.75-.09-1.49-.53-2.09-.08-.15-.16-.28-.25-.41-.19-.4-.55-.73-.98-.91-.1-.06-.19-.11-.3-.14-.18-.61-.12-1.32-.52-1.88-.03-.04-.08-.1-.12-.14,0-.01-.02-.03-.03-.05h-.02c-.04-.27-.08-.55-.12-.84-.03-.28-.08-.57-.21-.85-.31-.63-.57-1.05-.79-1.31-.22-.27-.39-.37-.39-.37-.3-.25-.67-.48-1.04-.6-1.47-.5-3.15.61-3.16,2.41-.01.3-.02.6,0,.89-.09.84.39,1.78.85,2.42l-.07.03c-.04.92.47,1.76.99,2.39.04.06.19.29.27.41,0,.07.03.14.05.21.03.23.19.46.18.69,0,.02,0,.05,0,.06-.01.18.04.35.09.53.03.07.06.15.09.21.1.47.43.87.71,1.24.15.23.38.39.6.54,0,.01.01.06.01.07.04.26,0,.54.1.79.02.22.12.44.22.64.02.04.04.09.11.17.16.33.37.7.64.96.18.22.4.4.65.52.24.14.52.22.69.44.07.22.19.44.26.7l.05.09c.03.08.08.18.16.33.29.64.87,1.13,1.51,1.36.11.97.86,1.67,1.56,2.18.04.03.23.23.34.32,0,.07.03.13.06.19.11.22.24.44.3.67.02.17.1.32.17.48.03.06.07.13.12.2.17.39.52.74.83,1.04.19.19.42.3.65.4,0,.02.01.06.02.07.06.25.05.52.17.75.02.22.16.42.27.6,0,.03.04.07.09.14.19.31.41.62.68.85.19.19.42.35.66.44.23.12.51.18.69.37.05.22.17.42.26.67,0,0,.03.09.05.08.03.09.07.18.13.28l.03.04c.41.71.93,1.02,1.33,1.23.06.2.24.38.24.6,0,.01.02.04.02.05.01.17.08.31.15.47.03.06.06.13.11.2.16.39.48.74.76,1.05.13.15.46.44.72.59.17.81.74,1.45,1.32,1.93.05.05.22.23.31.32.01.07.04.13.06.19.04.21.22.4.21.62,0,.02,0,.05,0,.06,0,.17.06.32.11.48.03.06.07.13.1.18.12.41.42.77.7,1.09.14.2.37.34.58.47,0,.01,0,.06,0,.07.03.24-.03.51.05.75,0,.21.08.41.16.6.02.03.03.08.09.16.13.31.31.65.53.91.14.21.33.4.55.53.21.15.47.24.61.46.04.21.11.44.14.68l.03.09c.01.08.05.18.1.33.16.64.6,1.17,1.17,1.5-.08.92.43,1.72.95,2.35.03.04.16.27.24.37-.02.07-.69.86.45,1.92Z" fill="#f9c316"/>
          <path d="M53.39,275.3c.06.02.12-.17.16-.45.01-.07.02-.14.03-.22.08.06.16.45.25.24,0-.01.02-.03.03-.05.02-.04.05-.1.07-.23,0-.01,0-.03,0-.03.07.26.15.53.23.41,0,0,.01,0,.02-.04.08-.18.15-.23.22.06.04.12.08.28.13.24.06-.05.12-.14.16-.41.08.42.17.68.26.6.02,0,.04-.01.06-.04.06.02.12-.15.16-.45.01-.07.02-.13.03-.22.08.07.16.47.25.26,0-.01.02-.04.02-.06,0,0,0-.01,0-.01.07.38.16.73.24.66.02,0,.04-.02.06-.03.06.02.12-.16.16-.45,0-.04.01-.09.02-.13.1.19.14.41.26.16.04-.23.12-.03.17.11.04.12.09.29.13.22.06-.03.12-.12.16-.41.08.43.17.69.26.62.02,0,.04-.02.06-.03.06.02.12-.16.16-.44.01-.06.02-.14.03-.22.08.06.16.46.25.26,0-.01.02-.02.02-.05.02-.04.05-.1.07-.23,0-.01,0-.03,0-.03.07.26.15.54.23.43,0,0,.01,0,.02-.04.08-.18.15-.22.22.07.04.12.08.29.13.24.06-.05.12-.13.16-.4.08.42.17.69.26.62.02,0,.04,0,.06-.03.06.02.12-.14.16-.44.01-.06.02-.13.03-.22.08.08.16.48.25.28,0-.01.02-.04.02-.06,0,0,0-.01,0-.01v-.02c.07.12.15.32.23.24.19-.19.26-.74.26-.74.04-.23.08-.57.1-.92.09-1.42-.02-3.14-.21-3.55l-.09-.21c-.08-.32-.19-.12-.27.05v-.08c-.09-.35-.19-.23-.28-.03,0,.01-.04.05-.05.07,0-.03-.02-.04-.02-.06-.02-.08-.05-.05-.08-.17,0-.01,0-.03,0-.03-.02-.1-.04-.12-.06-.17,0,0-.02-.01-.02-.02-.05-.13-.11-.07-.16-.01-.03,0-.06.12-.09.24,0,0,0-.02,0-.03-.03-.1-.05-.29-.08-.34-.02-.11-.05-.14-.07-.17,0,0-.01-.01-.02,0-.04-.04-.09-.08-.13,0-.03.02-.06.1-.09.23-.03.12-.05.3-.09.31-.02-.07-.05-.11-.08-.21h-.01s-.02-.06-.04-.09c-.08-.14-.16.02-.23.38-.1-.5-.21-.34-.31-.12,0,.01-.04.04-.05.07,0-.04-.01-.05-.02-.07-.03-.06-.06-.09-.08-.18-.02-.09-.04-.12-.06-.17,0-.01-.02-.03-.03-.03-.05-.11-.1-.05-.16,0-.03.02-.06.14-.08.26,0-.01,0-.03,0-.03-.03-.11-.05-.28-.08-.34-.02-.12-.05-.14-.07-.17,0-.01,0-.01-.02-.02-.04-.04-.09-.06-.13,0-.03.04-.06.11-.09.24-.03.1-.05.29-.09.31-.02-.09-.05-.12-.08-.21,0,0-.01-.03-.01-.01-.01-.03-.02-.06-.04-.07h0c-.1-.12-.16.12-.21.31-.02-.07-.05-.03-.07-.17,0,0,0-.01,0-.01-.02-.09-.04-.12-.06-.16,0-.01-.02-.03-.03-.03-.05-.11-.1-.05-.16,0-.02.02-.08.11-.11.24-.09-.34-.19-.22-.28-.01,0,.01-.04.05-.05.08,0-.03-.02-.04-.02-.05-.02-.08-.05-.04-.08-.16,0-.01,0-.03,0-.03-.02-.09-.04-.12-.06-.16,0,0-.02-.01-.02-.01-.05-.12-.11-.06-.16,0-.03.01-.06.13-.08.25,0,0,0-.02,0-.03-.03-.09-.05-.28-.08-.34-.02-.11-.05-.14-.07-.16,0,0-.01-.01-.02,0-.04-.04-.09-.07-.13,0-.03.02-.06.1-.09.23-.03.12-.05.3-.08.31-.02-.07-.05-.11-.08-.2h-.01s-.02-.06-.04-.08c-.08-.14-.16.03-.23.39-.1-.5-.21-.33-.31-.1,0,.01-.04.04-.05.08,0-.04-.01-.05-.02-.07-.03-.05-.06-.08-.08-.18-.02-.09-.13-.06-.13-.06-.06-.02-.12.17-.16.45-.01.07-.02.14-.03.22-.08-.06-.16-.45-.25-.24,0,.01-.02.03-.03.05-.02.04-.05.1-.07.23,0,.01,0,.03,0,.03-.07-.26-.15-.53-.23-.41,0,0-.01,0-.02.04-.08.18-.15.23-.22-.06-.04-.12-.08-.28-.13-.24-.06.05-.12.14-.16.41-.08-.42-.17-.68-.26-.6-.02,0-.04.01-.06.04-.06-.02-.12.15-.16.45-.01.07-.02.13-.03.22-.08-.07-.16-.47-.25-.26,0,.01-.02.04-.02.06,0,0,0,.01,0,.01-.07-.38-.16-.73-.24-.66-.02,0-.04.02-.06.03-.06-.02-.12.16-.16.45,0,.04-.01.09-.02.13-.1-.19-.14-.41-.26-.16-.04.23-.12.03-.17-.11-.04-.12-.09-.29-.13-.22-.06.03-.12.12-.17.41-.08-.43-.17-.69-.26-.62-.02,0-.04.02-.06.03-.06-.02-.12.16-.16.44-.01.06-.02.14-.03.22-.08-.06-.16-.46-.25-.26,0,.01-.02.02-.03.05-.02.04-.05.1-.07.23,0,.01,0,.03,0,.03-.07-.26-.15-.54-.23-.43,0,0-.01,0-.02.04-.08.18-.15.22-.22-.07-.04-.12-.08-.29-.13-.24-.06.05-.12.13-.16.4-.08-.42-.17-.69-.26-.62-.02,0-.04,0-.06.03-.06-.02-.12.14-.16.44-.01.06-.02.13-.03.22-.08-.08-.16-.48-.25-.28,0,.01-.02.04-.02.06,0,0,0,.01,0,.01v.02c-.07-.12-.15-.32-.23-.24-.19.19-.26.74-.26.74-.04.23-.08.57-.1.92-.09,1.42.02,3.14.21,3.55l.09.21c.08.32.19.12.27-.05v.08c.09.35.19.23.28.03,0-.01.04-.05.05-.07,0,.03.02.04.02.06.02.08.05.05.08.17,0,.01,0,.03,0,.03.02.1.04.12.06.17,0,0,.02.01.03.02.05.13.11.07.16.01.03,0,.06-.12.09-.24,0,0,0,.02,0,.03.03.1.05.29.08.34.02.11.05.14.07.17,0,0,.01.01.02,0,.04.04.09.08.13,0,.03-.02.06-.1.09-.23.03-.12.05-.3.08-.31.03.07.05.11.08.21h.01s.02.06.04.09c.08.14.16-.02.23-.38.1.5.21.34.31.12,0-.01.04-.04.05-.07,0,.04.01.05.02.07.03.06.06.09.08.18.02.09.04.12.06.17,0,.01.02.03.03.03.05.11.1.05.16,0,.03-.02.06-.14.08-.26,0,.01,0,.03,0,.03.03.11.05.28.08.34.02.12.05.14.07.17,0,.01,0,.01.02.02.04.04.09.06.13,0,.03-.04.06-.11.09-.24.03-.1.05-.29.08-.31.02.09.05.12.08.21,0,0,.01.03.01.01.01.03.02.05.04.07h0c.1.12.16-.12.21-.31.02.07.05.03.07.17,0,0,0,.01,0,.01.02.09.04.12.06.16,0,.01.02.03.03.03.05.11.1.05.16,0,.02-.02.08-.11.11-.24.09.34.19.22.28.01,0-.01.04-.05.05-.08,0,.03.02.04.02.05.02.08.05.04.08.16,0,.01,0,.03,0,.03.02.09.04.12.06.16,0,0,.02.01.03.01.05.12.11.06.16,0,.03-.01.06-.13.08-.25,0,0,0,.02,0,.03.03.09.05.28.08.34.02.11.05.14.07.16,0,0,.01.01.02,0,.04.04.09.07.13,0,.03-.02.06-.1.09-.23.03-.12.05-.3.08-.31.03.07.05.11.08.2h.01s.02.06.04.08c.08.14.16-.03.23-.39.1.5.21.33.31.1,0-.01.04-.04.05-.08,0,.04.06,1,.24.31Z" fill="#f9c316"/>
          <path d="M69.75,214.25c.16-.44.15-.97,0-1.42-.03-.11-.07-.23-.12-.34.28-.63.89-1.14.95-1.89.01-.07.03-.14.03-.21.04-.2.05-.4,0-.62,0-.02-.01-.03,0-.05.46-.47.96-.98,1.11-1.62.02-.04.05-.11.02-.16.09-.66.27-1.21.8-1.69.26-.28.55-.52.68-.91.16-.44.3-.92.22-1.4.66-.4,1.23-.92,1.52-1.64.09-.16.16-.31.22-.47.25-.4.33-.92.26-1.38,0-.12-.01-.23-.05-.35.4-.55,1.09-.9,1.31-1.63.02-.05.04-.13.05-.2,0-.01,0-.04.02-.06.66-.29,1.31-.66,1.67-1.27.1-.14.18-.29.27-.43.29-.37.44-.86.43-1.32,0-.07,0-.15,0-.21.66-.51,1.02-.63,1.48-1.57.05-.43.64-.78,1-.99.33-.19.69-.33.9-.66.29-.38.58-.8.64-1.28.76-.18,1.47-.53,1.98-1.15.12-.12.23-.27.35-.4.35-.33.59-.82.66-1.3.02-.11.04-.25.05-.36.54-.46,1.33-.69,1.72-1.39.04-.06.09-.13.12-.19.12-.18.22-.37.26-.6,0-.02,0-.04.01-.05.63-.28,1.32-.62,1.71-1.22.03-.03.09-.09.09-.15.33-.64.71-1.14,1.38-1.5.35-.23.71-.41.96-.79.29-.44.56-.92.6-1.44.77-.31,1.46-.84,1.9-1.59.12-.17.22-.34.31-.52.32-.46.49-1.04.44-1.56,0-.14,0-.26-.03-.39.45-.63,1.16-1.15,1.35-2.03.01-.06.03-.15.04-.23,0-.01,0-.05.02-.07h-.02c.39-.61.85-1.19,1.05-1.99.21-.9.2-1.55.15-1.98-.05-.43-.15-.63-.15-.63-.13-.43-.39-.85-.69-1.11-1.26-1.03-3.09-.35-3.87.86l-.42.63c-.5.52-.61,1.36-.72,2.03l-.07-.03c-.6.51-.85,1.27-1.02,1.96-.02.06-.1.28-.15.4-.05.04-.1.09-.14.13-.17.12-.26.35-.46.43-.02,0-.04.02-.05.03-.15.06-.25.17-.38.28-.04.05-.08.11-.12.16-.32.25-.54.67-.73,1.04-.13.2-.17.46-.21.7-.01,0-.05.03-.06.03-.21.12-.48.17-.67.32-.19.07-.35.23-.5.37-.02.03-.07.06-.11.14-.24.23-.5.51-.66.81-.15.21-.25.46-.3.71-.06.25-.06.53-.22.73-.19.11-.37.26-.6.36l-.07.06c-.07.04-.15.11-.28.2-.54.38-.89,1-1.02,1.65-.92.24-1.5,1.05-1.92,1.8-.03.05-.2.26-.27.38-.07,0-.12.05-.18.09-.21.13-.41.3-.63.38-.17.04-.31.13-.46.23-.06.04-.13.09-.18.14-.38.23-.68.62-.96.97-.18.22-.26.47-.34.72-.02,0-.06.02-.07.03-.25.1-.52.14-.74.29-.22.06-.41.23-.58.37-.03.01-.07.05-.14.12-.29.25-.58.54-.78.86-.16.24-.29.5-.35.77-.09.26-.11.55-.27.78-.22.11-.39.28-.63.43,0,0-.08.06-.07.07-.08.06-.17.12-.26.21l-.04.04c-.64.61-.84,1.23-.95,1.7-.18.13-.32.36-.54.44-.01,0-.03.03-.05.04-.17.07-.29.19-.43.32-.05.05-.11.11-.17.18-.35.29-.6.75-.81,1.16-.1.19-.29.63-.35.95-.73.51-1.14,1.37-1.35,2.15-.03.07-.13.32-.18.45-.06.05-.11.1-.16.15-.18.14-.28.41-.48.52-.02,0-.04.02-.05.04-.16.09-.26.22-.39.37-.04.06-.09.13-.12.19-.33.34-.5.83-.66,1.26-.11.24-.13.53-.13.79-.01,0-.05.04-.06.05-.19.17-.45.29-.62.51-.18.13-.31.33-.44.52-.02.04-.06.08-.09.18-.2.31-.4.68-.49,1.05-.09.27-.14.56-.12.83,0,.28.08.56-.02.82-.15.18-.29.39-.48.59l-.05.09c-.06.07-.11.16-.21.31-.4.59-.52,1.35-.4,2.04-.78.62-.99,1.67-1.05,2.55,0,.06-.08.33-.08.47-.06.04-.09.1-.13.16-.13.22-.24.46-.4.64-.14.12-.43,1.12-.43,1.12-.17.48-.15,1.04.01,1.51.03.11.08.24.13.34-.26.67-.84,1.27-.84,2.07,0,.07-.02.15,0,.23-.02.21,0,.43.07.65,0,.02.02.03.01.05-.41.55-.85,1.17-.9,1.87,0,.04-.03.12,0,.17.02.7-.07,1.31-.5,1.92-.2.35-.44.67-.48,1.1-.06.5-.07,1.04.12,1.5-.54.59-.94,1.33-1.01,2.16-.03.19-.06.41-.07.6-.12.39-.02,1.68.3,1.85.07.11.13.2.22.29-.07.7-.47,1.4-.26,2.17.01.05.04.14.06.2,0,.01.01.04.01.07-.38.63-.73,1.36-.66,2.12,0,.19.02.37.03.54-.02.5.16,1.02.45,1.4.04.07.09.12.13.18-.19.85-.41,1.2-.16,2.27.23.38.03,1.06-.11,1.47-.12.38-.29.74-.23,1.15.03.5.12,1.02.41,1.43-.43.67-.69,1.44-.62,2.25,0,.18.02.36.03.54-.02.49.16,1,.44,1.4.06.1.14.2.22.29-.06.7-.46,1.41-.26,2.16.01.07.02.15.05.22.04.2.1.41.23.6.01.01.03.03.03.04-.26.62-.54,1.3-.43,1.98,0,.04,0,.12.04.16.18.67.22,1.26-.07,1.93-.12.38-.29.72-.24,1.14.05.49.13,1,.4,1.41-.42.67-.69,1.43-.62,2.25,0,.19,0,.36.03.54-.02.5.14,1.02.44,1.4.06.11.13.21.22.29-.08.7-.48,1.4-.28,2.17.01.05.04.14.06.2,0,.01.01.04.01.07h.02c-.12.64-.32,1.26-.24,1.98.19,1.61.74,2.22.74,2.22.23.35.57.67.92.85,1.42.74,3.14-.21,3.55-1.78l.21-.8c.32-.72.12-1.66-.05-2.37h.08c.35-.78.23-1.67.03-2.42-.01-.07-.05-.33-.07-.46.03-.07.04-.13.06-.2.08-.2.05-.47.17-.66.01-.01.03-.04.03-.05.1-.15.12-.31.17-.48,0-.07.01-.15.02-.22.13-.43.07-.92.01-1.35,0-.26-.12-.5-.24-.74,0-.01.02-.06.03-.07.1-.23.28-.44.34-.7.11-.19.14-.42.17-.63,0-.04.01-.09,0-.19.04-.35.08-.76,0-1.11-.02-.27-.1-.54-.23-.78-.12-.25-.3-.46-.31-.74.07-.22.11-.46.21-.7v-.09c.04-.08.06-.19.09-.35.14-.67-.02-1.39-.38-1.97.5-.83.34-1.84.12-2.67-.01-.05-.04-.33-.07-.46.04-.05.05-.12.07-.19.06-.24.09-.5.18-.72.09-.15.12-.31.17-.48.01-.07.03-.15.03-.23.11-.42.05-.91,0-1.34-.02-.27-.14-.5-.26-.73.01-.01.03-.05.03-.07.11-.24.28-.44.34-.7.12-.19.14-.43.17-.65.01-.03.01-.08.02-.18.04-.36.06-.76,0-1.11-.04-.27-.11-.54-.24-.77-.1-.24-.29-.46-.31-.73.09-.22.12-.45.21-.7,0,0,.03-.09.01-.09.03-.09.05-.19.07-.31v-.05c.12-.84-.12-1.41-.31-1.83.07-.2.03-.46.17-.65,0-.01.01-.04.01-.05.09-.15.12-.31.16-.49.01-.07.03-.15.03-.23.11-.42.05-.91,0-1.34-.02-.2-.11-.65-.24-.94.34-.78.22-1.68.01-2.42-.01-.07-.05-.32-.08-.46.03-.07.04-.14.05-.2.09-.14.07-.22.18-.3.01,0,.03-.02.03-.03.12-.11.17-.25.23-.39.01-.06.03-.12.05-.18.19-.37.21-.86.23-1.29.03-.25-.04-.5-.11-.75,0-.01.03-.05.04-.06.14-.2.36-.37.46-.6.14-.16.21-.37.28-.57,0-.04.03-.09.04-.18.11-.32.22-.7.22-1.05.03-.26.01-.53-.06-.78-.06-.26-.19-.51-.14-.76.11-.19.21-.41.36-.62l.04-.09c.04-.07.08-.17.15-.32.29-.6.3-1.32.09-1.95.69-.66.79-1.63.8-2.47,0-.05.05-.31.06-.45.06-.04,1.11-.23.89-1.81Z" fill="#f9c316"/>
          <path d="M52.51,162.54c-.3.07-.59.2-.85.35-.24.13-.53.39-.54.56-.03.09-.06.19-.08.28-.45.14-1.01-.05-1.38.31-.04.03-.08.06-.11.1-.11.08-.21.19-.28.35,0,.02,0,.03-.02.03-.47-.1-.97-.21-1.35.03-.03,0-.08.02-.09.07-.35.31-.72.47-1.22.32-.27-.05-.54-.14-.79-.01-.3.13-.6.31-.79.65-.54-.29-1.1-.41-1.61-.21-.12.03-.23.07-.34.12-.33.06-.63.3-.81.66-.06.08-.1.16-.14.26-.48.03-1.03-.25-1.49.06-.03.02-.08.05-.11.09,0,0-.02.02-.04.02-.48-.28-.98-.55-1.44-.4-.12.02-.22.06-.33.08-.31.03-.6.25-.81.56-.04.04-.07.1-.1.14-.56-.13-.79-.32-1.44-.03-.22.25-.66.07-.93-.06-.24-.11-.47-.27-.72-.21-.31.04-.63.12-.89.4-.41-.44-.86-.72-1.36-.7-.11-.01-.23,0-.33,0-.3-.04-.63.09-.91.35-.07.06-.15.13-.21.2-.43-.12-.81-.58-1.3-.46-.04,0-.1,0-.14.03-.13.02-.27.05-.41.15-.01.01-.02.02-.03.02-.33-.33-.69-.69-1.12-.69-.02,0-.07-.02-.11.01-.44.06-.83.01-1.15-.39-.19-.19-.35-.4-.61-.44-.3-.06-.64-.07-.97.1-.26-.54-.6-.96-1.1-1.09-.11-.04-.21-.08-.32-.1-.28-.15-.64-.12-.98.05-.09.03-.17.06-.26.12-.38-.26-.6-.81-1.13-.85-.04,0-.09,0-.14,0,0,0-.03,0-.04,0v.02c-.31-.3-.57-.65-1.01-.81-.99-.33-1.61-.08-1.61-.08-.31.08-.67.25-.96.49-1.17.93-1.57,2.74-.78,3.68l.4.47c.3.54,1.01.69,1.54.78l-.04.07c.35.56,1,.76,1.58.81.05.01.24.05.34.08.03.05.07.08.11.11.1.14.3.18.38.35,0,.02.02.04.03.04.06.13.16.2.26.3.04.02.1.05.14.08.25.24.61.32.93.38.18.06.4.01.6-.03,0,0,.03.04.04.04.13.15.21.38.37.5.1.15.25.23.4.31.03.01.06.04.13.05.24.13.52.25.8.26.2.04.42.02.62-.05.21-.06.42-.2.61-.15.14.11.3.2.45.34l.07.03c.05.04.13.07.24.13.46.26,1.03.21,1.52-.06.51.61,1.3.58,1.94.44.04,0,.25,0,.35-.03.03.04.08.06.13.08.17.08.36.13.51.24.1.11.22.14.35.2.05.02.11.04.17.04.31.14.68.11,1.01.08.21-.01.39-.12.56-.23,0,.01.04.03.05.03.18.11.33.29.52.35.14.12.33.15.49.17.02.01.06.01.13.01.28.04.58.06.85-.01.21-.04.41-.13.58-.26.18-.11.34-.3.54-.34.17.08.34.1.54.17,0,0,.07.02.07,0,.07.02.15.04.24.05h.04c.64.06,1.05-.23,1.33-.46.16.05.35-.01.5.1,0,0,.03,0,.04,0,.12.08.25.09.39.11.05,0,.12.01.18,0,.33.06.68-.07.99-.17.15-.05.46-.21.64-.38.64.21,1.21-.04,1.69-.36.04-.02.21-.1.3-.15.05.02.1.02.15.02.16.05.34-.03.5.05.01.01.03.02.04.02.12.07.24.07.38.08.05,0,.11-.02.15-.02.33.04.65-.1.94-.24.18-.06.32-.22.45-.37,0,0,.04.01.05.01.18.05.38.19.58.2.16.07.33.05.49.04.03,0,.07,0,.13-.04.26-.03.55-.08.78-.23.18-.08.35-.21.48-.39.14-.17.23-.39.42-.46.17.02.35,0,.55.03h.07c.07,0,.15-.01.27-.02.52-.03.98-.37,1.25-.86.76.25,1.42-.21,1.88-.66.03-.03.2-.13.27-.2.07.01.06.03.08.04.05.04.1.05.14.13.04.07.13.04.13.04.03.01.04-.03.09-.1.11-.07.29-.16.43-.29.07-.06.15-.12.21-.2.45.12.86.58,1.39.46.05,0,.1,0,.15-.03.14-.01.29-.06.44-.16.01-.01.02-.02.03-.02.38.32.8.67,1.28.64.03,0,.08.01.12-.02.48-.1.91-.08,1.32.28.24.16.45.36.75.36.34,0,.71-.02,1.03-.25.39.49.87.83,1.44.85.13.02.25.03.38.03.34.07.72-.03,1.03-.29.08-.05.16-.11.23-.19.46.15.89.62,1.49.5.04,0,.1-.02.16-.04,0,0,.03,0,.05,0,.4.43.89.86,1.45.85.14.02.27,0,.4.01.36.06.76-.09,1.06-.35.05-.03.1-.08.14-.12.6.24.85.48,1.65.27.29-.22.77,0,1.08.15.27.13.54.3.84.24.37-.03.75-.11,1.05-.41.5.43,1.08.67,1.69.57.13,0,.27-.04.4-.06.36,0,.74-.2,1.01-.52.07-.07.14-.16.19-.24.52.02,1.09.35,1.62.09.05-.02.11-.04.15-.07.14-.06.29-.14.41-.29,0-.01.02-.03.03-.03.49.2,1.04.38,1.52.19.03,0,.09-.02.11-.06.45-.26.87-.39,1.42-.21.3.07.59.17.89.05.35-.13.7-.3.93-.65.59.29,1.22.38,1.79.14.14-.04.26-.09.38-.15.37-.09.69-.37.86-.75.06-.09.1-.17.13-.28.52-.09,1.15.09,1.61-.31.03-.03.08-.07.12-.12,0,0,.02-.02.04-.03v-.02c.48-.07.99-.06,1.45-.36,1.02-.67,1.18-1.38,1.18-1.38.13-.32.18-.73.14-1.1-.19-1.5-1.59-2.7-2.68-2.64l-.56.03c-.56-.1-1.03.33-1.4.66l-.03-.07c-.6-.13-1.09.18-1.48.53-.04.02-.18.12-.26.17-.05-.01-.1-.01-.14,0-.15-.03-.31.05-.46-.03-.01-.01-.03-.02-.04-.02-.12-.06-.23-.06-.35-.06-.04,0-.09.02-.14.03-.3-.03-.59.1-.84.24-.16.06-.28.21-.39.36,0,0-.04-.01-.05-.02-.17-.06-.35-.2-.52-.22-.14-.07-.29-.07-.43-.07-.03,0-.06,0-.12.03-.23,0-.49.04-.69.16-.17.06-.32.17-.44.33-.13.15-.24.35-.41.4-.15-.04-.31-.05-.49-.12h-.06c-.06-.02-.13-.02-.24-.03-.45-.07-.88.17-1.2.57-.6-.42-1.22-.19-1.73.08-.03.02-.21.05-.29.1-.04-.04-.08-.05-.13-.06-.16-.04-.33-.06-.48-.15-.1-.09-.21-.11-.32-.14-.04-.01-.1-.02-.15-.02-.28-.1-.59-.03-.86.03-.17.03-.32.15-.47.27,0-.01-.04-.03-.04-.03-.16-.11-.29-.28-.46-.33-.12-.12-.28-.14-.42-.17-.02-.01-.05-.01-.11-.02-.23-.04-.49-.06-.71,0-.18.03-.35.1-.51.23-.16.1-.31.27-.49.29-.14-.1-.28-.14-.45-.23,0,0-.06-.03-.06-.02-.06-.03-.12-.06-.2-.08h-.04c-.53-.15-.92.05-1.22.21-.13-.08-.3-.06-.41-.2,0,0-.03-.01-.03-.02-.09-.1-.19-.14-.3-.2-.04-.02-.09-.04-.15-.05-.26-.14-.58-.11-.87-.11-.13,0-.44.06-.64.16-.45-.41-1.04-.38-1.6-.26-.05,0-.23.02-.33.02-.04-.03-.09-.06-.13-.08-.12-.1-.32-.1-.42-.24,0-.01-.02-.03-.03-.03-.09-.11-.19-.16-.3-.22-.05-.01-.1-.03-.15-.04-.27-.17-.62-.16-.92-.15-.18-.02-.36.07-.54.16,0,0-.03-.03-.04-.03-.14-.12-.26-.33-.42-.41-.11-.13-.26-.18-.41-.23-.03,0-.06-.02-.13-.02-.23-.08-.5-.16-.76-.12-.19,0-.39.04-.57.14-.18.09-.36.24-.55.22-.13-.09-.29-.16-.44-.28l-.06-.02c-.05-.04-.12-.06-.23-.11-.44-.21-.96-.13-1.42.16-.5-.59-1.22-.54-1.86-.4-.04,0-.24,0-.35.03-.02-.02-.08-.29-.32-.47-.17-.1-.46-.19-.8-.2-.34,0-.77.01-1.18.39Z" fill="#f9c316"/>
        </g>
        <g>
          <path d="M70.37,26.61c-.02.46.15.95.43,1.33.06.09.14.19.22.27-.07.66-.47,1.33-.28,2.03.01.06.02.14.05.2.04.19.1.39.23.57.01.01.03.03.03.04-.26.58-.55,1.23-.44,1.87,0,.04,0,.11.04.15.17.63.22,1.19-.07,1.83-.13.36-.29.69-.24,1.08.05.46.14.95.41,1.34-.42.64-.67,1.37-.6,2.14,0,.18.01.35.04.51-.01.47.15.96.46,1.32.07.1.13.19.23.27-.06.67-.44,1.34-.23,2.07.01.05.04.13.07.19,0,.01.01.04.01.06-.36.61-.7,1.31-.61,2.03,0,.18.03.35.05.51,0,.48.2.96.5,1.32.04.06.1.11.14.16-.16.82-.37,1.16-.06,2.17.25.35.08,1-.03,1.41-.1.37-.25.72-.16,1.11.07.48.19.97.51,1.33-.39.67-.58,1.43-.44,2.21.01.17.05.35.08.52.02.47.25.95.58,1.3.07.08.16.18.25.25.02.68-.31,1.41,0,2.1.02.06.04.14.08.2.06.19.15.38.31.54.01.01.03.02.03.04-.18.63-.36,1.33-.12,1.97,0,.04.02.12.06.15.29.61.41,1.18.28,1.88-.04.39-.13.76,0,1.16.15.46.32.94.7,1.27-.24.74-.31,1.55-.04,2.32.05.18.11.35.19.51.13.49.43.94.83,1.21.09.08.18.16.29.21.15.68.02,1.47.46,2.14.03.05.08.12.13.17,0,.01.03.03.03.06h.02c.13.63.18,1.28.54,1.93.85,1.41,1.61,1.71,1.61,1.71.36.21.81.33,1.21.33,1.6-.04,2.64-1.63,2.45-3.07l-.11-.73c.03-.71-.46-1.41-.87-1.93l.07-.03c.08-.78-.29-1.48-.7-2.05-.03-.06-.13-.26-.19-.37,0-.07,0-.13,0-.19.03-.2-.08-.42-.01-.62,0-.02.02-.04.01-.05.05-.15.04-.3.03-.46-.01-.06-.03-.13-.04-.19,0-.4-.14-.81-.3-1.17-.07-.22-.23-.41-.4-.58,0-.01,0-.05.01-.06.04-.22.18-.45.18-.69.07-.19.06-.4.05-.59,0-.04,0-.09-.03-.17-.02-.32-.07-.68-.2-.97-.07-.23-.2-.46-.37-.64-.15-.2-.37-.36-.42-.6.03-.2.04-.43.1-.66v-.09c.01-.08.01-.17.02-.32.03-.62-.21-1.25-.65-1.71.38-.82.12-1.7-.19-2.44-.02-.05-.07-.29-.12-.41.03-.05.04-.12.05-.18.03-.23.03-.46.11-.67.08-.14.1-.3.12-.46,0-.06.02-.14.01-.21.08-.39-.02-.83-.11-1.23-.05-.25-.18-.45-.31-.65.01-.01.02-.05.02-.06.09-.23.25-.43.29-.67.11-.18.11-.41.12-.61.01-.03,0-.08,0-.16.02-.34,0-.7-.07-1.02-.05-.25-.14-.49-.28-.7-.12-.22-.31-.41-.35-.66.08-.2.1-.42.17-.66,0,0,.02-.09,0-.09.02-.09.05-.18.06-.29v-.05c.08-.78-.17-1.3-.38-1.68.06-.19.02-.43.14-.61,0-.01,0-.04.01-.05.09-.14.11-.29.15-.46.01-.06.02-.14.02-.21.1-.39.03-.84-.03-1.24-.03-.19-.13-.6-.26-.86.33-.73.19-1.56-.02-2.26-.01-.06-.06-.3-.08-.43.03-.06.04-.13.05-.19.08-.19.04-.44.16-.62.01-.01.03-.04.03-.05.09-.14.12-.29.16-.45,0-.06,0-.14.01-.2.12-.4.06-.86,0-1.26-.01-.24-.13-.47-.25-.68,0-.01.02-.05.03-.06.1-.21.28-.41.34-.65.11-.18.14-.39.17-.59,0-.04.01-.09,0-.18.04-.33.07-.71,0-1.03-.02-.25-.1-.51-.23-.72-.12-.23-.3-.43-.31-.69.07-.2.11-.43.21-.65v-.09c.04-.08.06-.18.09-.33.14-.63-.01-1.3-.37-1.84.51-.77.36-1.71.14-2.49-.01-.05-.03-.31-.07-.43.04-.05.06-.11.07-.18.06-.23.09-.47.19-.67.1-.14.08-1.08.08-1.08.03-.46-.15-.94-.43-1.32-.06-.09-.14-.19-.22-.27.07-.66.48-1.32.29-2.03-.01-.06-.02-.14-.05-.2-.03-.19-.09-.38-.22-.57-.01-.01-.03-.03-.03-.04.27-.58.55-1.22.44-1.86,0-.04,0-.11-.04-.15-.17-.63-.21-1.19.08-1.82.13-.35.29-.68.25-1.08-.04-.46-.12-.95-.39-1.34.43-.63.7-1.35.63-2.12,0-.18,0-.34-.03-.51.02-.47-.14-.96-.43-1.32-.06-.1-.13-.19-.22-.27.08-.66.48-1.32.29-2.05-.01-.05-.04-.13-.06-.19,0-.01-.01-.04-.01-.06.19-.3.38-.62.51-.95.06-.2.13-.26.14-.63.02-.31,0-.64-.08-.95-.04-.32-.16-.61-.25-.89-.23-.83-.84-1.54-1.43-1.85-.1-.06-.19-.1-.27-.14-.34-.57-.63-.98-1.02-1.33-.39-.36-.91-.67-1.75-.87-.64-.01-1.61-.42-2.31-.54-.41-.13-.71-.29-1.1-.23-.47.03-.95.12-1.34.41-.63-.43-1.35-.69-2.11-.62-.16,0-.34.02-.51.03-.46-.02-.94.16-1.31.44-.09.06-.19.14-.27.22-.66-.06-1.33-.46-2.03-.26-.06.01-.14.02-.2.05-.19.04-.38.1-.56.23-.01.01-.03.03-.04.03-.58-.26-1.22-.54-1.86-.43-.04,0-.11,0-.15.04-.63.18-1.19.22-1.82-.07-.35-.12-.68-.29-1.08-.24-.46.05-.94.13-1.33.4-.63-.42-1.35-.69-2.11-.62-.18,0-.34,0-.51.03-.47-.02-.95.14-1.32.44-.1.06-.19.13-.27.22-.66-.08-1.31-.48-2.04-.28-.05.01-.13.04-.19.06-.01,0-.04.01-.06.01v.02c-.6-.12-1.18-.32-1.86-.24-1.51.19-2.09.74-2.09.74-.33.23-.63.57-.8.92-.69,1.42.2,3.14,1.67,3.55l.75.21c.68.32,1.56.12,2.23-.05v.08c.73.35,1.57.23,2.28.03.06-.01.31-.05.43-.07.06.03.13.04.19.06.19.08.44.05.62.17.01.01.04.03.05.03.14.1.29.12.46.17.06,0,.14.01.2.02.41.13.86.07,1.27.01.24,0,.47-.12.69-.24.01,0,.05.02.06.03.21.1.42.29.66.34.18.11.39.14.6.17.04,0,.09.01.18,0,.33.04.71.08,1.04,0,.26-.02.51-.1.73-.23.23-.12.44-.3.69-.31.2.07.43.11.66.21h.09c.08.04.18.06.33.09.63.14,1.31-.02,1.85-.38.78.5,1.73.34,2.51.12.05-.01.31-.04.43-.07.05.04.11.05.18.07.23.06.47.09.67.18.14.09.29.12.46.17.06.01.14.03.22.03.39.11.85.05,1.26,0,.25-.02.47-.14.69-.26.01.01.05.03.06.03.23.11.42.28.66.34.18.12.41.14.61.17.03.01.08.01.17.02.34.04.71.06,1.04,0l.19-.04c.07-.01.04-.03.07-.05.03-.03.07-.1.1-.15.07-.1.18-.26.28-.26.04.12.09.16.12.28,0,0,.01.03.02.02.01.04.02.08.04.11h.01c.11.22.35.17.61.19-.02.09.05.15-.05.26,0,0,0,.01,0,.02-.08.08-.08.12-.11.18-.01.02-.02.04-.01.06-.05.06-.04.11-.04.17,0,.05.02,0,.03.13.01.11.02.21.03.31.02.19.1.61.23.88-.35.73-.24,1.57-.05,2.27.01.06.05.3.07.43-.03.06-.04.13-.06.19-.08.19-.05.44-.17.62-.01.01-.03.04-.03.05-.1.14-.13.29-.17.45,0,.06-.01.14-.02.2-.13.4-.07.86-.02,1.27,0,.24.12.47.24.69,0,.01-.02.05-.03.06-.1.21-.29.41-.35.65-.11.17-.14.39-.17.59,0,.04-.02.09,0,.18-.05.33-.08.71-.01,1.04.02.25.09.51.22.73.11.23.29.44.3.69-.07.2-.12.43-.21.65l-.02.09c-.03.08-.04.18-.07.33-.15.63,0,1.3.36,1.85-.51.77-.37,1.72-.15,2.5.01.05.03.31.07.44-.04.05-1.01.51-.34,1.93Z" fill="#f9c316"/>
          <path d="M102.71,121.54c-.07.42.06.89.3,1.28.05.09.12.2.19.28-.16.61-.63,1.18-.55,1.86,0,.06,0,.13.01.2,0,.18.03.37.13.56.01.01.02.03.02.04-.35.5-.77,1.01-.79,1.61,0,.03-.03.1,0,.15.01.6-.06,1.13-.52,1.59-.22.27-.46.51-.53.86-.1.4-.17.84-.04,1.27-.62.37-1.09.85-1.33,1.48-.07.14-.12.28-.17.42-.21.35-.28.8-.17,1.23,0,.11.02.21.06.32-.38.47-1.02.73-1.23,1.35-.02.04-.03.11-.05.18,0,0,0,.04-.02.05-.63.17-1.25.4-1.61.88-.1.11-.18.23-.27.34-.3.26-.46.68-.5,1.1-.02.06-.02.13-.02.19-.65.31-1,.3-1.54,1.03-.13.36-.69.51-1.05.56-.33.05-.65.06-.91.26-.34.2-.66.49-.85.88-.68-.16-1.33-.18-1.92.1-.13.05-.27.11-.4.16-.38.1-.72.4-.98.75-.06.08-.13.18-.18.27-.59.1-1.25-.19-1.83.13-.05.02-.12.04-.17.08-.16.06-.33.15-.47.3,0,.01-.02.03-.03.03-.56-.17-1.17-.4-1.73-.23-.03,0-.1,0-.14.05-.56.21-1.07.3-1.66,0-.33-.12-.62-.27-.99-.23-.42.04-.87.12-1.24.38-.57-.46-1.21-.74-1.92-.75-.16-.02-.32-.02-.47-.01-.43-.06-.89.04-1.27.3-.1.05-.2.11-.28.19-.61-.16-1.14-.64-1.83-.57-.05,0-.12.01-.18.03-.01,0-.04,0-.06,0v.02c-.52-.22-.99-.53-1.6-.59-1.36-.15-2.03.2-2.03.2-.35.12-.73.35-1,.63-1.11,1.1-.9,3.05.52,3.9l.72.42c.62.49,1.6.52,2.33.47l-.02.07c.7.49,1.61.51,2.37.42.07,0,.32,0,.46-.01.06.04.13.06.19.08.19.11.46.1.63.25.01.02.04.03.05.03.13.11.29.15.46.21.07.01.15.02.21.04.42.16.9.16,1.34.12.26,0,.51-.1.74-.2.01,0,.05.03.07.03.22.11.43.31.68.37.19.11.42.15.63.18.04,0,.1.02.19,0,.35.05.76.09,1.12,0,.28-.03.55-.11.78-.24.24-.12.46-.32.73-.34.22.06.47.08.72.16h.1c.08.03.19.04.36.05.7.07,1.42-.16,1.95-.62.91.38,1.93.02,2.7-.41.05-.03.32-.12.44-.19.06.03.14.02.21.02.26,0,.52-.06.76-.03.17.04.35.02.53,0,.07,0,.16-.02.24-.04.45-.04.92-.28,1.33-.48.26-.13.44-.34.61-.54.02,0,.06,0,.08,0,.28,0,.55.08.82,0,.23.02.47-.09.7-.17.03,0,.08-.03.18-.07.38-.13.75-.34,1.05-.59.23-.18.45-.39.59-.64.16-.23.26-.51.48-.69.25-.05.46-.17.73-.27,0,0,.1-.04.09-.05.1-.04.19-.08.31-.15l.05-.03c.79-.46,1.09-1.06,1.29-1.49.2-.1.37-.31.61-.36.01,0,.04-.02.05-.03.18-.04.33-.14.49-.25.06-.04.13-.1.19-.16.38-.26.71-.68.96-1.07.12-.18.35-.61.44-.93.77-.45,1.23-1.32,1.46-2.1.03-.07.14-.31.19-.45.06-.05.1-.1.15-.16.17-.14.28-.41.48-.52.02,0,.04-.02.05-.04.16-.09.27-.23.39-.37.04-.06.08-.14.11-.2.31-.35.5-.84.61-1.28.1-.25.09-.53.08-.8,0,0,.04-.04.05-.05.18-.18.44-.32.58-.55.17-.14.28-.36.39-.56.02-.04.05-.09.07-.19.18-.33.32-.72.37-1.09.06-.27.08-.57.02-.83-.04-.27-.16-.54-.1-.81.12-.19.23-.42.39-.63l.04-.09c.05-.07.08-.18.15-.33.29-.63.3-1.39.04-2.02.66-.73.65-1.76.54-2.6,0-.06,0-.33-.02-.47.05-.05.07-.11.09-.18.08-.23.14-.49.26-.69.12-.11.17-1.22.17-1.22.05-.52-.12-1.09-.41-1.5-.07-.1-.15-.21-.23-.3.05-.73.39-1.52.09-2.28-.02-.07-.04-.15-.08-.22-.06-.21-.16-.41-.32-.59-.02-.01-.03-.02-.03-.04.16-.67.28-1.45,0-2.11,0-.04-.03-.12-.08-.16-.34-.63-.56-1.19-.5-1.94,0-.41.03-.8-.17-1.19-.22-.46-.5-.91-.91-1.19.13-.79.04-1.62-.39-2.33-.08-.17-.17-.33-.27-.48-.21-.46-.6-.84-1.05-1.03-.11-.06-.21-.11-.33-.14-.26-.63-.25-1.43-.82-1.98-.04-.04-.1-.1-.16-.14,0-.01-.03-.03-.04-.05.01-.73-.07-1.52-.53-2.12-.1-.16-.22-.29-.32-.43-.25-.43-.69-.75-1.14-.9-.07-.03-.14-.05-.21-.07-.31-.8-.34-1.2-1.16-1.91-.41-.16-.64-.81-.78-1.22-.13-.37-.22-.75-.51-1.02-.34-.36-.72-.7-1.19-.82-.08-.78-.37-1.52-.94-2.07-.11-.13-.25-.25-.37-.37-.3-.37-.76-.63-1.23-.72-.11-.03-.24-.05-.35-.06-.4-.54-.57-1.31-1.2-1.7-.05-.04-.11-.09-.18-.12-.16-.12-.34-.22-.55-.26-.02,0-.04,0-.05-.01-.2-.6-.44-1.27-.95-1.66-.03-.03-.08-.08-.13-.09-.55-.34-.96-.72-1.16-1.37-.14-.34-.24-.69-.53-.94-.33-.3-.71-.59-1.16-.7-.07-.74-.33-1.43-.83-1.94-.1-.13-.21-.25-.33-.35-.26-.36-.68-.61-1.12-.7-.11-.04-.21-.07-.33-.07-.32-.54-.36-1.27-.91-1.71-.04-.03-.1-.08-.15-.11,0,0-.03-.02-.04-.04h-.02c-.24-.51-.33-1.08-.75-1.56-.89-1.08-1.64-1.29-1.64-1.29-.35-.15-.77-.25-1.17-.23-1.55.06-2.73,1.65-2.27,3.21l.22.79c.11.77.78,1.46,1.32,1.93l-.06.04c.16.82.77,1.49,1.38,1.95.05.05.23.22.33.32.02.07.05.13.08.19.05.21.25.4.27.61,0,.02,0,.05.01.06.02.17.09.31.17.47.04.05.08.12.12.18.17.41.52.74.84,1.02.17.18.41.29.65.39,0,.01.02.06.02.07.07.23.06.51.19.73.04.21.16.39.28.57.03.03.05.08.12.14.19.29.43.6.71.79.19.18.42.32.67.39.24.09.52.13.7.31.09.2.21.39.3.63l.05.08c.03.08.09.16.17.29.33.57.91.95,1.54,1.1.16.91.9,1.49,1.58,1.91.04.03.23.2.34.27,0,.06.03.12.06.18.11.2.24.4.3.61.02.16.09.29.17.44.03.06.07.12.12.18.16.36.5.66.79.93.18.17.4.26.62.35,0,.02.01.05.02.06.06.24.04.49.14.71.01.21.14.39.24.56,0,.03.03.07.09.13.18.28.37.57.62.78.18.17.39.31.62.4.21.11.48.16.64.34.04.21.14.39.21.63,0,0,.03.09.04.08.03.09.05.17.11.27l.03.04c.35.67.82.97,1.2,1.17.05.19.21.36.19.58,0,.01.01.04.02.05,0,.16.05.3.1.45.02.06.05.13.09.19.11.37.39.71.64,1.02.12.14.4.44.64.59.07.78.57,1.41,1.07,1.9.04.05.19.23.27.33,0,.07.02.13.04.18.01.2.16.39.12.59,0,.02,0,.04,0,.05-.02.16.01.3.05.45.02.05.05.12.07.18.05.39.29.74.5,1.06.1.2.29.34.48.48,0,.01,0,.05,0,.06,0,.22-.11.46-.08.68-.04.19,0,.38.04.56.01.03.01.08.05.15.06.29.15.62.31.87.1.21.24.4.42.54.17.16.4.28.47.5-.02.19,0,.4-.05.61v.08c0,.07,0,.16,0,.29-.01.56.25,1.09.68,1.51-.4.75-.17,1.5.07,2.18.01.04.04.26.08.37-.05.06-.98.42-.39,1.64Z" fill="#f9c316"/>
          <path d="M18.87,142.25c-.34-.19-.78-.23-1.2-.16-.1.02-.22.04-.32.07-.46-.37-.69-1.01-1.29-1.22-.05-.02-.11-.06-.16-.07-.15-.08-.32-.13-.52-.14-.02,0-.03,0-.04,0-.21-.53-.4-1.1-.85-1.42-.02-.02-.07-.07-.12-.07-.48-.28-.83-.64-.92-1.24-.08-.32-.09-.64-.32-.89-.24-.31-.53-.6-.93-.77.1-.68.08-1.33-.24-1.9-.06-.14-.13-.27-.2-.39-.13-.38-.43-.72-.81-.93-.09-.07-.18-.12-.29-.16-.1-.59.13-1.25-.2-1.83-.02-.04-.06-.1-.1-.16,0-.01-.02-.03-.02-.05.26-.6.51-1.24.36-1.85-.02-.16-.06-.3-.09-.44-.02-.42-.24-.83-.54-1.14-.04-.06-.1-.1-.14-.14.16-.74.36-1.04.11-1.96-.24-.33,0-.92.14-1.27.14-.32.32-.62.29-.98,0-.43-.05-.89-.29-1.27.49-.54.83-1.15.89-1.86.03-.15.03-.32.05-.47.09-.41,0-.89-.21-1.29-.05-.1-.1-.21-.16-.29.18-.6.71-1.12.68-1.81,0-.06,0-.13,0-.2,0-.18-.01-.38-.09-.58,0-.02-.02-.03-.02-.04.41-.46.83-.97.9-1.58.01-.03.03-.1,0-.15.02-.62.13-1.14.6-1.62.23-.28.49-.51.57-.88.1-.43.18-.88.07-1.32.61-.41,1.1-.94,1.34-1.62.07-.15.12-.3.16-.45.19-.4.24-.88.11-1.32-.02-.12-.04-.22-.09-.33.33-.54.96-.93,1.1-1.63.01-.05.02-.13.03-.19,0-.01,0-.04.02-.06h-.02c.35-.47.81-.86,1.04-1.47.25-.68.35-1.2.37-1.56.02-.36-.03-.55-.03-.55-.04-.39-.19-.82-.4-1.14-.86-1.31-2.8-1.47-3.91-.34l-.57.57c-.61.46-.89,1.36-1.03,2.06l-.07-.04c-.65.52-.94,1.35-1.06,2.1-.02.06-.09.31-.12.44-.05.05-.09.1-.13.15-.16.14-.24.4-.42.51-.02,0-.04.02-.05.04-.14.09-.23.23-.34.37-.03.06-.07.13-.1.19-.28.34-.42.8-.53,1.21-.08.24-.07.51-.04.76,0,0-.04.04-.05.05-.17.17-.42.3-.57.51-.17.13-.28.33-.38.52-.01.04-.05.08-.07.18-.16.31-.33.68-.37,1.03-.07.26-.09.54-.03.8.04.27.14.53.07.78-.13.18-.25.39-.41.59l-.04.08c-.05.07-.1.16-.17.31-.32.6-.37,1.33-.16,1.97-.68.67-.78,1.68-.72,2.53,0,.06-.03.32-.02.46-.05.04-.08.11-.11.17-.11.22-.18.47-.31.66-.12.13-.17.28-.25.45-.03.06-.05.14-.07.22-.18.39-.21.89-.21,1.33-.01.27.07.52.16.76-.01.01-.03.05-.03.06-.13.23-.33.41-.41.66-.14.18-.18.42-.22.64-.02.03-.02.08-.03.18-.08.36-.12.76-.07,1.13.02.28.08.56.21.8.1.25.27.48.29.75-.1.22-.12.45-.21.71,0,0-.03.1-.01.1-.03.1-.06.19-.07.32v.06c-.1.86.17,1.44.4,1.85-.06.21,0,.47-.11.67,0,.01,0,.04,0,.06-.08.16-.09.33-.12.51,0,.07,0,.16,0,.24-.06.44.07.94.2,1.38.05.21.22.65.41.92-.18.87.18,1.77.6,2.46.03.07.16.31.22.44,0,.08,0,.15.01.22-.01.23.12.49.07.71,0,.02-.01.05,0,.06-.03.18,0,.35.03.54.02.07.05.15.07.22.07.47.32.94.59,1.33.13.25.34.44.57.6,0,.01,0,.06.01.08.03.26-.02.56.07.83,0,.23.12.46.22.68.02.04.04.1.11.18.16.36.4.74.68,1.03.19.23.44.43.7.55.25.15.54.22.75.43.1.22.24.46.34.72l.06.09c.04.08.11.18.21.33.41.64,1.12,1.08,1.83,1.2.36.98,1.38,1.51,2.25,1.8.06.02.32.15.46.19.03.06.08.11.14.16.19.19.42.35.58.54.05.08.32.24.57.38.26.14.51.24.51.24.47.25,1.05.3,1.54.18.12-.02.25-.05.36-.09.66.32,1.25.93,2.06.95.07,0,.16.02.23,0,.21.02.44.01.66-.07.02,0,.03-.02.05-.01.55.4,1.2.82,1.92.82.04,0,.12.02.17,0,.71-.07,1.3-.04,1.96.32.37.16.72.35,1.15.33.5-.02,1.03-.08,1.45-.34.66.43,1.45.69,2.28.6.19,0,.37-.03.55-.06.51,0,1.02-.2,1.37-.53.1-.07.19-.15.27-.24.7.02,1.43.34,2.17.05.05-.02.13-.05.19-.09.01,0,.04-.02.06-.02.67.3,1.43.54,2.19.35.2-.03.39-.09.57-.14.52-.08,1.02-.38,1.33-.75.06-.05.1-.12.15-.17.89-.03,1.3.08,2.25-.48.29-.34.99-.35,1.42-.36.39,0,.78.03,1.13-.16.44-.2.88-.45,1.14-.86.73.18,1.47.21,2.14-.11.15-.05.3-.13.45-.19.42-.13.81-.45,1.06-.85.06-.09.13-.2.18-.3.62-.16,1.36.05,1.95-.35.06-.03.12-.06.17-.11.16-.09.32-.2.45-.37,0-.02.02-.03.03-.04.61.1,1.27.19,1.82-.05.03,0,.1-.02.13-.07.53-.33,1.03-.46,1.65-.31.34.06.65.18.98.07.39-.11.77-.24,1.08-.55.57.38,1.12.61,1.65.58.12.01.24,0,.35-.01.3.06.63-.05.94-.29.08-.05.16-.09.24-.17.44.19.73.74,1.39.81.05,0,.12.01.18.01.01,0,.04,0,.06.01v-.02c.46.33.9.78,1.59,1,1.54.49,2.34.2,2.34.2.41-.09.83-.28,1.13-.55,1.15-1.1.86-3-.23-3.92l-.57-.48c-.46-.55-1.31-.74-2.03-.88l.03-.07c-.55-.64-1.56-.93-2.45-.97-.08-.01-.37-.06-.53-.06-.07-.04-.14-.07-.22-.1-.21-.13-.53-.16-.73-.3-.01-.02-.04-.03-.06-.04-.16-.12-.35-.17-.55-.24-.08-.01-.17-.02-.25-.03-.5-.17-1.06-.12-1.55-.05-.29,0-.55.15-.79.28-.01,0-.06-.02-.07-.02-.25-.08-.5-.25-.78-.27-.21-.08-.46-.08-.69-.08-.04,0-.1,0-.2.02-.37.02-.79.06-1.14.19-.28.07-.52.21-.73.38-.22.17-.39.39-.66.46-.23-.02-.47,0-.72-.04h-.09c-.08,0-.19.01-.36.03-.69.02-1.32.38-1.76.88-.92-.25-1.8.18-2.49.65-.05.03-.29.14-.4.22-.06-.02-.13-.01-.19,0-.24.02-.48.08-.71.06-.16-.04-.32-.02-.5,0-.07,0-.14.02-.22.05-.42.03-.85.24-1.23.43-.24.11-.41.29-.58.48-.02,0-.06,0-.07,0-.25-.02-.5-.12-.74-.09-.21-.05-.42.01-.62.05-.03,0-.07.01-.16.04-.33.07-.67.18-.95.34-.22.11-.42.27-.57.46-.17.17-.3.4-.52.5-.21-.03-.41,0-.65-.01,0,0-.09,0-.08.01-.09,0-.17,0-.28,0h-.05c-.73.11-1.13.44-1.44.72-.18-.03-.39.06-.57-.04-.01,0-.04,0-.05,0-.14-.07-.28-.07-.43-.08-.06,0-.12,0-.19,0-.34-.05-.79.07-1.15.18-.17.05-.55.19-.79.35-.73-.25-1.5-.05-2.14.21-.06.02-.28.07-.4.1-.06-.02-.12-.03-.18-.04-.18-.07-.42-.01-.59-.13-.01-.01-.04-.03-.05-.02-.13-.09-.28-.11-.43-.14-.06,0-.13,0-.19,0-.38-.11-.8-.05-1.17.02-.22,0-.43.12-.64.24-.01,0-.05-.02-.06-.03-.2-.1-.38-.29-.59-.35-.16-.12-.35-.15-.53-.19-.03,0-.08-.02-.16,0-.29-.06-.63-.12-.93-.07-.23,0-.46.05-.67.16-.22.09-.43.26-.66.23-.17-.09-.37-.17-.55-.29l-.08-.03c-.06-.04-.15-.07-.28-.12-.53-.23-1.13-.2-1.68.03-.55-.65-1.34-.75-2.06-.77-.05,0-.26-.07-.38-.07-.04-.06-.03-1.06-1.38-.98Z" fill="#f9c316"/>
          <path d="M41.63,53.11c.02-.46-.17-.94-.45-1.31-.07-.09-.14-.19-.22-.27.06-.66.45-1.33.24-2.03-.01-.06-.03-.14-.05-.2-.04-.19-.1-.38-.23-.56-.01-.01-.03-.03-.03-.04.26-.58.53-1.23.42-1.87,0-.04,0-.11-.04-.15-.18-.62-.23-1.18.06-1.82.12-.36.28-.68.24-1.08-.05-.46-.14-.94-.41-1.33.42-.63.68-1.36.6-2.12,0-.18-.01-.34-.04-.51.02-.47-.15-.95-.45-1.31-.07-.1-.13-.19-.22-.27.07-.66.47-1.32.26-2.04-.01-.05-.04-.13-.06-.19,0-.01-.01-.04-.01-.06.38-.59.73-1.28.66-1.99,0-.18-.02-.34-.03-.51.02-.47-.16-.95-.45-1.31-.04-.06-.09-.12-.13-.17.19-.8.41-1.13.16-2.13-.23-.36-.03-.99.11-1.39.12-.35.29-.7.22-1.08-.03-.47-.12-.95-.41-1.34.43-.63.69-1.35.62-2.12,0-.17-.02-.34-.03-.51.02-.46-.16-.94-.44-1.31-.06-.09-.14-.19-.22-.27.06-.66.46-1.33.25-2.03-.01-.06-.02-.14-.05-.2-.04-.19-.1-.38-.23-.56-.01-.01-.03-.03-.03-.04.26-.58.54-1.23.43-1.86,0-.04,0-.11-.04-.15-.18-.62-.22-1.18.07-1.82.12-.35.29-.68.24-1.08-.05-.46-.13-.94-.4-1.33.42-.63.69-1.35.62-2.11,0-.18,0-.34-.03-.51.02-.47-.14-.95-.44-1.31-.06-.1-.13-.19-.22-.27.04-.33.16-.66.24-1,.09-.24.14-.2.06-.32,0-.01-.03-.04-.05-.06,0,0-.01-.01,0-.02h-.02c.16-.11.39-.07.4-.22.03-.31.12-.9.12-.9.05-.26.15-.61.23-.96.17-.72.26-1.51-.16-2.15-.39-.64-1.36-1.07-2.47-.73-.37.12-.73.27-1.08.46-.51.21-.99.65-1.31,1.19-.33.54-.52,1.14-.6,1.66l-.07-.03c-.34.49-.53,1.14-.53,1.75v.38s.05.29.05.29c.03.19.08.37.13.55.01.06.05.31.07.43-.03.06-.04.13-.06.19-.08.19-.05.44-.17.62-.01.01-.03.04-.03.05-.1.14-.12.29-.17.46,0,.06-.01.14-.02.2-.13.41-.07.86-.01,1.27,0,.24.12.47.24.69,0,.01-.02.05-.03.06-.1.21-.29.42-.34.66-.11.18-.14.39-.17.6,0,.04-.01.09,0,.18-.04.33-.08.71,0,1.04.02.26.1.51.23.73.12.23.3.44.31.69-.07.2-.11.43-.21.66v.09c-.04.08-.06.18-.09.33-.14.63.02,1.31.38,1.85-.5.78-.34,1.73-.12,2.51.01.05.04.31.07.43-.04.05-.05.11-.07.18-.06.23-.09.47-.18.67-.09.14-.12.29-.17.46-.01.06-.03.14-.03.22-.11.39-.05.85,0,1.26.02.25.14.47.26.69-.01.01-.03.05-.03.06-.11.23-.28.42-.34.66-.12.18-.14.41-.17.61-.01.03-.01.08-.02.17-.04.34-.06.71,0,1.04.04.25.11.51.24.73.1.23.29.43.31.69-.09.2-.12.42-.21.66,0,0-.03.09-.01.09-.03.09-.05.18-.07.29v.05c-.12.79.12,1.32.31,1.72-.07.19-.03.43-.17.61,0,.01-.01.04-.01.05-.09.14-.12.29-.16.46-.01.06-.03.14-.03.22-.11.39-.05.85,0,1.26.02.19.11.61.24.88-.34.74-.22,1.58-.01,2.28.01.06.05.3.08.43-.03.06-.04.13-.05.19-.08.19-.04.44-.16.62-.01.01-.03.04-.03.05-.09.14-.12.29-.16.46,0,.06-.01.14-.01.2-.12.41-.06.86,0,1.27.01.24.13.47.25.69,0,.01-.02.05-.03.06-.09.22-.28.42-.34.66-.11.18-.14.39-.16.6,0,.04-.01.09,0,.18-.04.33-.07.71,0,1.04.02.25.1.51.23.73.12.23.3.43.31.69-.07.2-.11.43-.2.66v.09c-.04.08-.06.18-.08.33-.14.63.03,1.31.39,1.85-.5.79-.33,1.73-.1,2.51.01.05.04.31.08.43-.04.05-.05.11-.07.18-.05.23-.08.47-.18.67-.09.14-.06,1.09-.06,1.09-.02.46.17.94.45,1.31.07.09.14.19.22.27-.06.66-.45,1.33-.24,2.03.01.06.03.14.05.2.04.19.1.38.23.56.01.01.03.03.03.04-.1.23-.2.46-.28.7l-.06.18-.02.09-.02.17c-.02.24-.02.49,0,.73l-.04-.38c0,.13,0,.26.02.38,0,.03,0,.1.04.14.18.55.21,1.07-.13,1.6-.14.3-.34.57-.33.92,0,.41,0,.84.23,1.23-.52.49-.9,1.04-1,1.72-.04.15-.07.3-.09.45-.12.4-.11.86.08,1.27.04.11.07.21.13.31-.27.56-.85.98-.91,1.67,0,.05-.01.12-.01.19,0,.01,0,.04-.01.06-.56.36-1.14.78-1.36,1.39-.07.15-.12.29-.18.43-.21.38-.27.85-.17,1.29,0,.07.03.14.04.2-.54.56-.87.72-1.15,1.66.02.41-.48.81-.79,1.05-.29.21-.6.39-.75.73-.22.39-.41.81-.39,1.28-.71.24-1.31.64-1.7,1.26-.1.12-.18.27-.27.41-.29.33-.43.8-.43,1.27,0,.11,0,.23,0,.34-.45.46-1.16.7-1.45,1.35-.03.05-.07.12-.09.18-.09.17-.16.35-.18.56,0,.02,0,.04,0,.05-.57.26-1.18.54-1.51,1.07-.03.03-.08.08-.07.14-.27.57-.62,1-1.24,1.26-.33.17-.67.28-.89.59-.27.36-.54.75-.61,1.21-.73.15-1.41.45-1.89,1.03-.13.12-.24.24-.34.37-.17.16-.32.35-.42.56-.01.04-.07.13-.13.22-.05.09-.1.18-.14.27-.09.18-.15.36-.2.53-.04.16-.02.24,0,.37-.46.5-1.19.78-1.46,1.52-.02.05-.05.13-.06.2,0,.01-.01.04-.03.06h.02c-.45.46-.98.83-1.3,1.48-.72,1.43-.56,2.23-.56,2.23.02.41.14.85.35,1.19.85,1.33,2.79,1.45,3.89.47l.58-.49c.62-.38.94-1.18,1.17-1.81l.06.05c.67-.38,1.09-1.11,1.34-1.78.03-.05.12-.24.18-.35.04,0,.07,0,.1-.02.06,0,.09-.02.13-.05.09-.07.18-.13.29-.15.02,0,.05,0,.06-.02.17-.03.3-.12.44-.2.05-.04.11-.09.16-.13.38-.19.67-.57.92-.91.17-.18.25-.43.33-.67.01,0,.05-.02.06-.03.22-.09.5-.11.71-.24.2-.05.38-.19.54-.32.03-.03.07-.06.13-.13.26-.22.56-.48.74-.78.16-.2.29-.45.34-.7.08-.25.08-.53.25-.73.19-.11.38-.25.61-.36l.07-.06c.07-.04.15-.11.28-.21.54-.39.88-1.03.96-1.68.9-.28,1.41-1.14,1.74-1.91.02-.05.17-.27.22-.39.06-.02.12-.06.17-.1.19-.15.37-.33.57-.43.16-.06.28-.16.42-.27.05-.04.11-.1.16-.16.33-.26.58-.67.79-1.05.14-.23.18-.48.21-.73.02,0,.05-.03.06-.04.23-.13.48-.19.67-.36.2-.08.36-.27.5-.43.03-.01.06-.06.11-.13.24-.27.47-.59.61-.92.12-.24.2-.51.21-.78.04-.26,0-.54.12-.78.2-.13.33-.31.54-.49,0,0,.07-.07.06-.07.07-.07.14-.13.22-.23l.03-.05c.52-.66.6-1.28.62-1.74.16-.15.24-.39.45-.49,0,0,.03-.03.04-.04.15-.09.25-.22.37-.36.04-.05.09-.12.13-.19.29-.33.44-.8.58-1.22.07-.2.17-.65.16-.97.63-.59.84-1.51.9-2.29.01-.07.06-.33.08-.47.05-.06.08-.12.11-.18.14-.17.19-.45.36-.6.02,0,.04-.03.04-.05.13-.12.2-.27.29-.44.02-.07.05-.15.07-.21.25-.4.29-.92.34-1.37.05-.27-.02-.54-.09-.8,0-.01.03-.05.04-.06.14-.21.36-.4.46-.66.14-.18.21-.42.27-.64,0-.04.03-.1.03-.2.08-.37.18-.79.13-1.18,0-.29-.05-.59-.16-.84-.11-.27-.28-.51-.28-.79.08-.22.12-.48.22-.74v-.1c.04-.09.06-.2.08-.37l.02-.16-.04-.44s.05.04.04.05c0-.14-.03-.29-.07-.44-.07-.29-.2-.57-.37-.82.5-.79.33-1.73.1-2.51-.01-.05-.04-.31-.08-.43.04-.05,1-.53.31-1.94Z" fill="#f9c316"/>
        </g>
        <g>
          <path d="M41.7,70.48c-.16.43-.18.94-.04,1.4.03.11.07.24.11.34-.32.6-.93,1.08-1.05,1.81-.02.06-.04.14-.04.21-.04.19-.07.4-.04.62,0,.02.01.04,0,.05-.49.43-1.03.89-1.24,1.52-.02.03-.05.1-.04.16-.16.64-.38,1.18-.97,1.59-.3.25-.6.46-.77.83-.21.42-.39.9-.39,1.38-.7.32-1.34.79-1.72,1.48-.11.15-.2.29-.28.45-.3.38-.45.89-.44,1.37-.01.12-.02.24,0,.36-.47.51-1.21.81-1.51,1.53-.02.05-.05.13-.08.2,0,.01-.01.04-.03.06-.68.25-1.4.58-1.83,1.19-.12.14-.21.29-.32.43-.34.36-.53.86-.56,1.34-.02.08-.01.15-.02.22-.7.5-1.09.61-1.62,1.56-.08.44-.69.79-1.07.99-.34.19-.71.33-.95.67-.32.38-.61.81-.69,1.3-.77.17-1.49.53-2.02,1.14-.11.11-.22.23-.33.34-.13.12-.21.3-.3.41-.38.48-.53.98-.55,1.5,0,.12-.01.26,0,.38-.47.58-1.24.97-1.5,1.75-.03.07-.07.15-.08.22-.09.2-.15.42-.15.66,0,.02,0,.04,0,.05-.57.41-1.18.89-1.46,1.57-.02.04-.07.11-.05.17-.2.71-.49,1.26-1.07,1.76-.3.29-.62.55-.79.96-.2.49-.37,1.02-.32,1.53-.69.45-1.28,1.09-1.58,1.92-.08.19-.15.36-.2.55-.24.48-.3,1.06-.17,1.56.02.13.04.25.09.37-.36.66-.98,1.23-1.07,2.08,0,.06-.01.15-.01.23,0,.01,0,.05-.01.07h.02c-.32.62-.74,1.19-.87,1.97-.16.86-.13,1.49-.06,1.91.06.41.16.6.16.6.13.41.39.83.69,1.09,1.24,1.05,3.09.43,3.87-.91.13-.23.27-.46.41-.69.49-.58.58-1.5.63-2.21l.07.03c.58-.6.75-1.45.84-2.2.01-.07.07-.31.1-.44.05-.05.09-.11.12-.16.15-.15.22-.41.4-.53.02,0,.04-.02.05-.04.14-.09.23-.23.34-.37.03-.06.07-.13.1-.19.28-.33.42-.79.55-1.19.1-.23.09-.49.09-.75,0,0,.04-.04.05-.05.18-.16.45-.26.61-.46.18-.11.3-.3.42-.47.02-.04.05-.08.08-.16.19-.28.41-.61.5-.95.1-.24.16-.51.16-.77.02-.26-.04-.54.09-.77.17-.15.32-.33.52-.49l.06-.07c.06-.05.13-.14.24-.26.47-.48.68-1.17.69-1.83.86-.41,1.27-1.3,1.55-2.09.02-.05.15-.28.2-.41.06-.02.11-.06.16-.11.19-.16.36-.34.56-.45.15-.04.32-.22.36-.21.02,0,.04,0,.05-.02.02,0,.03,0,.04,0l.13-.1c.09-.07.17-.16.26-.24.16-.17.31-.36.46-.53.18-.21.27-.47.35-.72.02,0,.06-.02.07-.03.25-.1.52-.13.75-.28.22-.05.41-.23.59-.37.03-.01.07-.05.14-.12.29-.24.59-.52.8-.84.17-.23.31-.49.38-.76.1-.26.12-.55.29-.77.22-.1.4-.26.64-.4,0,0,.09-.05.08-.06.09-.05.17-.11.27-.19l.04-.04c.67-.58.89-1.17,1.03-1.63.19-.11.34-.34.57-.4.01,0,.04-.03.05-.03.17-.06.3-.17.46-.28.06-.04.12-.1.18-.17.37-.27.65-.7.9-1.08.12-.18.34-.6.43-.92.78-.43,1.26-1.25,1.57-2,.03-.06.16-.3.23-.43.06-.04.12-.09.17-.14.19-.12.33-.38.54-.47.02,0,.05-.02.05-.03.17-.07.29-.19.43-.32.05-.06.1-.12.15-.18.37-.3.61-.77.82-1.18.15-.23.19-.52.23-.78.01,0,.05-.04.06-.04.21-.15.5-.24.69-.44.2-.11.35-.31.5-.49.02-.04.07-.08.11-.17.24-.29.49-.65.62-1.02.13-.26.21-.55.22-.83.03-.29-.02-.58.11-.84.17-.17.34-.37.54-.56l.06-.08c.06-.06.13-.16.24-.3.47-.57.66-1.36.6-2.06.84-.6,1.13-1.67,1.25-2.59.01-.06.09-.34.11-.49.06-.04.1-.1.14-.17.15-.23.27-.48.44-.66.14-.12.47-1.17.47-1.17.18-.5.17-1.1.02-1.59-.04-.12-.08-.25-.13-.36.26-.71.83-1.38.81-2.22,0-.07,0-.16,0-.24,0-.23-.02-.46-.1-.68-.01-.02-.02-.03-.02-.05.38-.61.76-1.32.75-2.08,0-.04.02-.13-.02-.18-.08-.75-.09-1.39.25-2.11.14-.41.31-.79.28-1.26-.04-.53-.14-1.1-.42-1.51.42-.63.68-1.45.6-2.26,0-.19-.01-.37-.03-.55.02-.51-.15-1.03-.45-1.42-.07-.11-.13-.21-.22-.29.07-.71.47-1.42.26-2.21-.01-.06-.04-.14-.06-.21,0-.01-.01-.04-.01-.07.38-.64.73-1.38.66-2.15,0-.19-.02-.37-.03-.55.02-.51-.16-1.03-.45-1.42-.04-.07-.09-.12-.13-.18.19-.86.41-1.22.16-2.3-.23-.39-.03-1.07.11-1.5.12-.38.29-.75.23-1.16-.03-.51-.12-1.03-.41-1.45.43-.68.69-1.46.62-2.28,0-.18-.02-.37-.03-.55.02-.49-.16-1.02-.44-1.42-.06-.1-.14-.21-.22-.29.06-.71.46-1.43.26-2.19-.01-.07-.02-.15-.05-.22-.04-.21-.1-.41-.23-.61-.01-.01-.03-.03-.03-.04.26-.63.54-1.32.43-2.01,0-.04,0-.12-.04-.17-.18-.68-.22-1.28.07-1.96.12-.38.29-.74.24-1.16-.05-.5-.13-1.02-.4-1.43.42-.68.69-1.46.62-2.28,0-.19,0-.37-.03-.55.02-.51-.14-1.03-.44-1.42-.06-.11-.13-.21-.22-.29.08-.71.48-1.42.28-2.2-.01-.06-.04-.14-.06-.21,0-.01-.01-.04-.01-.07h-.02c.12-.65.32-1.28.24-2.01-.19-1.63-.74-2.26-.74-2.26-.23-.35-.57-.68-.92-.87-1.42-.75-3.14.21-3.55,1.8l-.21.81c-.32.73-.12,1.69.05,2.41h-.08c-.35.79-.23,1.7-.03,2.46.01.07.05.33.07.47-.03.07-.04.14-.06.21-.08.2-.05.48-.17.67-.01.01-.03.04-.03.05-.1.15-.12.31-.17.49,0,.07-.01.15-.02.22-.13.44-.07.93-.01,1.38,0,.26.12.51.24.75,0,.01-.02.06-.03.07-.1.23-.28.45-.34.71-.11.19-.14.42-.17.64,0,.04-.01.1,0,.19-.04.36-.08.77,0,1.13.02.28.1.55.23.79.12.25.3.47.31.75-.07.22-.11.47-.21.71v.1c-.04.08-.06.19-.09.36-.14.69.02,1.42.38,2-.5.84-.34,1.87-.12,2.71.01.06.04.33.07.47-.04.05-.05.12-.07.19-.06.25-.09.51-.18.73-.09.15-.12.31-.17.49-.01.07-.03.15-.03.23-.11.42-.05.92,0,1.36.02.28.14.51.26.75-.01.01-.03.05-.03.07-.11.25-.28.45-.34.71-.12.19-.14.44-.17.66-.01.03-.01.08-.02.18-.04.37-.06.77,0,1.13.04.28.11.55.24.79.1.25.29.47.31.75-.09.22-.12.45-.21.71,0,0-.03.1-.01.1-.03.1-.05.19-.07.32v.05c-.12.85.12,1.43.31,1.86-.07.21-.03.47-.17.66,0,.01-.01.04-.01.05-.09.15-.12.31-.16.49-.01.07-.03.15-.03.23-.11.42-.05.92,0,1.36.02.21.11.66.24.95-.34.79-.22,1.7-.01,2.46.01.07.05.33.08.47-.03.07-.04.14-.05.21-.08.21-.04.48-.16.67-.01.01-.03.04-.03.05-.09.15-.12.31-.16.49,0,.07-.01.15-.01.22-.12.44-.06.93,0,1.37.01.26.13.51.25.74,0,.01-.02.06-.03.07-.06.12-.12.25-.18.38-.07.12-.12.23-.15.35-.11.18-.13.39-.16.6,0,.04-.01.09,0,.18-.05.32-.1.68-.03,1.01.02.25.07.5.19.72.1.23.27.45.26.7-.09.19-.16.41-.28.62l-.02.09c-.04.07-.06.17-.11.31-.23.59-.16,1.27.08,1.86-.63.67-.69,1.59-.68,2.4,0,.05-.04.31-.04.44-.07.04-1.08.2-.89,1.75Z" fill="#f9c316"/>
          <path d="M55.99,136.23c.45-.06.88-.28,1.22-.61.08-.07.17-.16.24-.25.65.02,1.3.36,1.94.18.06-.01.13-.02.19-.05.18-.04.36-.1.53-.21.01-.01.03-.02.04-.02.53.29,1.04.64,1.61.64.03,0,.1.02.14,0,.58-.06,1.1.05,1.56.51.27.23.49.48.87.59.42.11.91.25,1.38.16.43.66.99,1.21,1.85,1.52.19.09.38.15.56.21.51.24,1.12.3,1.63.16.14-.02.26-.04.38-.1.71.33,1.37.93,2.26.95.06,0,.16,0,.24,0,.01,0,.05,0,.08,0,.6.53,1.35,1.04,2.2,1.1.21.04.41.04.6.05.55.1,1.14-.02,1.58-.26.08-.03.14-.08.2-.11.89.28,1.26.53,2.45.32.43-.22,1.16,0,1.63.13.42.13.84.27,1.3.18.56-.06,1.15-.21,1.58-.54.8.33,1.75.47,2.7.17.21-.05.42-.11.63-.19.58-.13,1.13-.5,1.49-.93.09-.1.18-.22.25-.33.8-.24,1.78-.27,2.49-.92.07-.05.15-.11.21-.18.19-.17.37-.36.5-.6,0-.02.01-.04.03-.05.77-.22,1.65-.57,2.18-1.26.04-.04.11-.11.12-.17.47-.72.89-1.3,1.62-1.79.36-.31.76-.57.98-1.04.28-.53.5-1.13.48-1.68.73-.52,1.35-1.27,1.61-2.19.08-.21.14-.41.18-.61.21-.54.22-1.17.05-1.66-.03-.14-.07-.26-.13-.37.28-.73.84-1.41.8-2.29,0-.06,0-.15-.02-.23,0-.01,0-.05,0-.08h-.02c.25-.67.55-1.32.56-2.11,0-.46-.02-.79-.06-1.17-.04-.38-.12-.67-.19-.9-.15-.45-.3-.64-.3-.64-.24-.42-.6-.78-.97-.96-.75-.35-1.52-.16-2.14.22-.63.39-1.12.97-1.37,1.6l-.28.68c-.39.65-.32,1.56-.28,2.26h-.08c-.47.65-.52,1.49-.51,2.21,0,.06-.03.31-.04.44-.04.05-.07.11-.1.17-.13.16-.17.4-.34.53-.02,0-.04.03-.04.04-.13.1-.2.23-.3.37-.03.06-.06.12-.08.18-.24.33-.35.74-.44,1.12-.08.22-.07.45-.05.69,0,0-.04.03-.05.04-.17.15-.42.22-.58.39-.17.09-.28.25-.4.39-.02.03-.05.06-.08.13-.18.23-.39.49-.49.76-.1.2-.18.41-.19.64-.03.23,0,.49-.15.66-.17.09-.33.21-.54.27l-.06.04c-.07.03-.14.08-.25.15-.49.25-.8.71-1,1.27-.84-.05-1.43.45-2.02.91-.04.02-.24.14-.34.21-.06-.02-.12-.02-.18-.01-.21.02-.43.06-.64.01-.15-.06-.29-.05-.44-.05-.06,0-.13,0-.2.02-.37-.03-.76.12-1.13.23-.23.07-.41.21-.6.35-.01-.01-.05-.02-.06-.02-.23-.08-.42-.22-.66-.26-.18-.11-.39-.1-.59-.12-.03-.01-.07,0-.16,0-.33-.03-.68-.03-1,.04-.25.04-.49.12-.71.25-.22.11-.43.28-.69.3-.2-.1-.41-.13-.65-.23,0,0-.09-.03-.09-.02-.09-.03-.17-.07-.29-.09h-.05c-.77-.17-1.34,0-1.75.16-.18-.09-.43-.08-.59-.23-.01,0-.04-.02-.05-.02-.12-.11-.27-.16-.43-.22-.06-.02-.13-.05-.21-.06-.36-.17-.81-.18-1.21-.21-.19,0-.6-.01-.88.06-.61-.49-1.39-.59-2.09-.62-.06-.01-.29-.05-.42-.07-.05-.05-.1-.08-.15-.11-.14-.14-.38-.19-.5-.37,0-.02-.02-.04-.03-.04-.09-.14-.21-.22-.34-.32-.05-.03-.12-.06-.18-.09-.32-.28-.75-.41-1.18-.54-.24-.1-.53-.1-.79-.1,0,0-.04-.04-.05-.05-.17-.19-.3-.45-.54-.62-.14-.18-.36-.31-.57-.43-.04-.02-.09-.05-.2-.08-.35-.19-.77-.4-1.2-.47-.31-.09-.63-.13-.95-.08-.32.03-.62.12-.93.04-.24-.13-.51-.24-.78-.4l-.11-.04c-.09-.05-.22-.09-.41-.15-.79-.29-1.7-.21-2.4.11-.96-.54-2.17-.36-3.07-.05-.06.02-.36.07-.51.13-.06-.03-.14-.04-.22-.05-.28-.02-.57-.03-.82-.09-.17-.07-1.27.14-1.27.14-.54.06-1.04.37-1.4.73-.09.08-.19.18-.25.28-.75.09-1.57-.09-2.29.29-.07.03-.15.06-.21.11-.2.09-.39.21-.54.39-.01.02-.02.03-.03.04-.69-.07-1.47-.15-2.11.17-.04.01-.12.04-.15.09-.61.38-1.19.6-1.95.55-.41.02-.8-.02-1.2.18-.46.22-.94.48-1.25.88-.79-.16-1.67-.13-2.39.22-.18.06-.34.14-.5.22-.47.16-.89.48-1.14.89-.08.1-.14.19-.19.3-.67.15-1.41-.02-2.02.36-.04.02-.11.07-.16.11-.01,0-.03.02-.06.03-.32-.11-.65-.22-.96-.29-.29-.07-.63-.09-.99,0-.18.02-.34.08-.5.11-.47.04-.93.28-1.26.6-.06.05-.11.1-.15.15-.82-.12-1.15-.31-2.13-.01-.35.25-.98.05-1.35-.09-.34-.14-.66-.3-1.02-.27-.45.01-.9.05-1.3.29-.54-.5-1.11-.87-1.77-.96-.14-.04-.29-.05-.43-.08-.37-.13-.8-.08-1.19.06-.09.03-.2.07-.3.12-.5-.29-.78-.88-1.33-1.02-.05-.02-.11-.04-.16-.05-.14-.06-.3-.1-.5-.09-.02,0-.03,0-.04,0-.21-.5-.34-1.03-.73-1.32-.02-.02-.06-.07-.1-.07-.44-.26-.73-.64-.71-1.21-.02-.31.02-.6-.14-.88-.18-.33-.39-.68-.75-.92.25-.64.38-1.28.22-1.93-.02-.15-.05-.3-.09-.44-.03-.42-.22-.84-.54-1.16-.07-.09-.14-.18-.23-.25.06-.64.45-1.25.29-1.95-.01-.05-.03-.12-.05-.19,0-.01-.01-.04,0-.06h-.02c.16-.58.4-1.12.4-1.78,0-.74-.1-1.29-.2-1.64-.1-.36-.21-.53-.21-.53-.18-.36-.43-.74-.74-.98-1.22-1.01-3.14-.47-3.83,1.15-.12.27-.22.54-.34.82-.42.73-.33,1.78-.2,2.56h-.08c-.4.82-.3,1.84-.07,2.66.01.08.07.36.09.51-.02.08-.04.15-.05.23-.07.23,0,.53-.11.76-.01.02-.02.05-.02.06-.08.18-.08.36-.1.57,0,.08,0,.17.01.25-.06.51.09,1.07.26,1.56.08.3.25.55.43.79,0,.01,0,.07,0,.08-.02.28-.14.58-.09.9-.04.25.02.53.09.79.02.05.03.11.08.22.11.42.29.91.56,1.28.17.3.41.57.67.76.26.21.56.35.76.62.09.27.25.53.36.84l.06.1c.04.1.12.21.24.39.46.75,1.29,1.29,2.08,1.43.52,1.04,1.76,1.58,2.77,1.76.07.01.38.12.55.14.05.06.12.11.19.15.25.15.53.29.75.45.14.14.32.23.51.33.07.04.16.07.26.1.45.24,1.04.31,1.54.35.32.03.6-.03.88-.12.01.02.06.04.07.04.26.14.47.35.76.44.2.14.48.19.73.23.03.02.09.02.2.03.42.08.86.11,1.26.06.31-.02.61-.11.87-.23.27-.1.51-.29.81-.32.24.09.49.11.78.18,0,0,.1.02.1,0,.1.02.21.04.34.05h.06c.93.05,1.53-.24,1.96-.49.23.05.5-.03.71.08.01,0,.05,0,.06,0,.17.07.35.08.54.09.07,0,.16,0,.25,0,.46.04.96-.09,1.49-.25.24-.07.73-.27,1.01-.48.96.11,1.88-.31,2.56-.76.06-.03.31-.16.44-.23.08,0,.15,0,.22-.02.23,0,.48-.13.71-.08.02,0,.05.01.06,0,.18.04.34,0,.53-.02.07-.02.15-.04.21-.06.45-.04.92-.28,1.29-.47.24-.1.42-.29.6-.47.01,0,.06,0,.07,0,.25.01.51.12.76.09.21.04.43-.01.64-.05.04-.01.09-.02.18-.06.34-.08.72-.18,1.03-.37.24-.11.47-.28.65-.46.19-.18.34-.42.59-.51.22,0,.46-.03.72,0h.09c.08-.01.19-.03.35-.05.67-.06,1.3-.39,1.74-.9.91.27,1.8-.11,2.52-.51.05-.02.3-.1.41-.16.06.04.71.84,1.95-.04Z" fill="#f9c316"/>
          <path d="M71.39,69.93c-.1-.46-.4-.9-.78-1.2-.09-.07-.19-.16-.29-.22-.13-.68.13-1.45-.23-2.12-.03-.06-.05-.14-.09-.2-.08-.19-.18-.37-.35-.53-.02-.01-.03-.02-.03-.03.11-.65.28-1.36.05-1.99,0-.04-.02-.12-.07-.15-.3-.61-.43-1.19-.24-1.88.07-.39.18-.75.07-1.15-.11-.47-.25-.96-.57-1.33.34-.71.5-1.49.36-2.28-.02-.19-.04-.36-.08-.53-.03-.5-.25-.99-.57-1.34-.07-.1-.15-.19-.24-.27.02-.71.36-1.43.1-2.18-.02-.05-.05-.13-.07-.2,0-.01-.02-.04-.02-.07.34-.65.65-1.4.54-2.15,0-.19-.04-.36-.06-.54,0-.5-.2-1.01-.51-1.38-.04-.07-.1-.12-.14-.17.16-.86.36-1.21.08-2.28-.25-.38-.06-1.06.07-1.48.12-.38.27-.75.21-1.16-.04-.5-.14-1.02-.43-1.43.42-.68.68-1.45.61-2.27,0-.18-.02-.37-.04-.54.01-.49-.16-1.01-.45-1.41-.06-.1-.14-.21-.22-.29.06-.71.45-1.42.26-2.18-.01-.07-.02-.15-.05-.22-.04-.21-.1-.41-.23-.61-.01-.01-.03-.03-.03-.04.27-.62.54-1.31.44-2,0-.04,0-.12-.04-.16-.17-.67-.2-1.28.09-1.95.13-.38.3-.73.26-1.15-.04-.49-.11-1.02-.38-1.44.43-.67.71-1.44.67-2.26,0-.19,0-.37-.02-.55.03-.5-.12-1.03-.41-1.43-.06-.11-.12-.21-.21-.3.09-.71.51-1.41.32-2.2-.01-.06-.04-.14-.06-.21,0-.01-.01-.04-.01-.07h-.02c.13-.65.34-1.27.27-2.01-.16-1.64-.71-2.27-.71-2.27-.22-.36-.55-.69-.91-.88-1.41-.77-3.14.17-3.58,1.75l-.23.81c-.33.73-.15,1.68.01,2.41h-.08c-.36.78-.26,1.69-.08,2.45,0,.07.04.33.06.47-.03.07-.04.14-.06.2-.09.2-.06.48-.18.67-.01.01-.03.04-.03.05-.1.15-.13.31-.18.49,0,.07-.01.15-.02.22-.14.44-.09.93-.04,1.38,0,.26.11.51.23.75,0,.01-.02.06-.03.07-.1.23-.29.45-.35.71-.11.19-.15.42-.18.64,0,.04-.02.1,0,.19-.05.36-.09.77-.02,1.13.02.28.09.56.22.79.11.25.29.48.3.75-.07.22-.12.47-.22.71l-.02.1c-.03.08-.04.19-.08.36-.15.69,0,1.42.37,2.01-.51.85-.35,1.87-.13,2.72.01.06.03.33.07.47-.04.05-.06.12-.07.19-.06.25-.09.51-.18.73-.09.15-.12.32-.16.5-.01.07-.03.15-.03.24-.11.43-.05.93,0,1.37.03.28.14.51.26.75-.01.01-.03.06-.03.07-.1.25-.28.46-.33.72-.12.19-.13.44-.16.67-.01.03-.01.08-.01.18-.04.38-.05.78.02,1.14.04.28.13.56.26.79.11.25.3.47.33.75-.09.22-.11.46-.19.73,0,0-.02.1-.01.1-.02.1-.05.2-.06.32v.06c-.09.86.17,1.45.38,1.87-.06.21-.01.47-.14.67,0,.01,0,.04-.01.06-.09.16-.11.32-.14.51-.01.07-.02.15-.02.24-.09.44,0,.94.08,1.38.04.21.15.66.3.95-.29.83-.09,1.75.16,2.5.02.07.08.33.11.47-.02.07-.03.14-.04.21-.06.22,0,.49-.1.7-.01.02-.02.04-.02.06-.08.16-.09.33-.12.52,0,.07,0,.16,0,.23-.08.46.02.96.14,1.4.04.27.19.51.33.73,0,.01-.02.06-.02.07-.07.25-.23.49-.25.77-.08.21-.08.45-.09.68,0,.04,0,.1.02.2,0,.37.04.8.17,1.16.06.28.18.55.35.77.15.24.36.43.42.71-.03.23-.03.49-.07.76v.1c0,.09,0,.2,0,.38-.02.73.28,1.45.78,1.96-.29.96.05,1.97.51,2.76.03.05.12.32.19.45-.02.06-.02.14-.02.21.01.26.05.53.02.78-.03.09.04.39.1.67.07.28.16.53.16.53.14.5.47.98.87,1.29.09.08.2.16.3.22.15.73.06,1.57.51,2.25.04.06.08.14.12.2.11.19.24.37.43.51.02,0,.04.02.04.03,0,.7.04,1.49.42,2.11.02.04.05.12.1.15.45.58.77,1.13.82,1.9.05.42.09.83.34,1.21.29.44.62.89,1.07,1.15,0,.82.19,1.68.71,2.39.11.17.22.33.35.47.28.46.72.84,1.2,1.01.12.06.23.1.36.12.37.64.47,1.5,1.14,2.03.04.04.12.09.18.13,0,.01.04.03.05.05.1.77.3,1.6.87,2.18.13.16.26.29.39.43.32.43.82.72,1.29.84.08.03.15.04.22.06.43.81.52,1.21,1.44,1.88.44.14.75.79.94,1.2.17.37.3.76.63,1.02.37.35.79.68,1.29.79.15.79.48,1.54,1.08,2.09.12.13.26.25.39.38.31.37.78.63,1.26.73.11.03.24.06.35.07.42.56.58,1.35,1.2,1.77.05.04.11.1.17.13.16.13.33.24.55.3.02,0,.04,0,.05.01.18.64.39,1.32.87,1.77.02.03.07.09.13.1.53.4.92.84,1.06,1.53.11.37.17.73.43,1.04.31.36.65.72,1.09.9,0,.77.15,1.52.6,2.15.09.16.18.29.29.43.22.42.59.77,1.03.95.11.06.21.11.32.14.24.62.17,1.36.63,1.92.03.04.08.1.13.14,0,.01.03.03.04.05h.02c.12.57.12,1.14.4,1.7.31.62.59,1.02.82,1.28.22.26.38.36.38.36.28.24.66.47,1.03.59.74.24,1.52.14,2.13-.31.61-.44,1.02-1.24,1-2.16,0-.31-.02-.62-.04-.93.07-.88-.49-1.82-.96-2.47l.07-.03c-.02-.93-.56-1.78-1.11-2.4-.04-.06-.21-.28-.3-.4-.01-.08-.03-.14-.05-.21-.03-.23-.2-.46-.19-.7,0-.02,0-.05,0-.06,0-.18-.05-.35-.11-.53-.03-.06-.07-.14-.1-.21-.12-.46-.44-.89-.73-1.25-.15-.23-.39-.39-.62-.54,0-.01-.01-.06-.02-.07-.05-.26-.02-.55-.12-.81-.02-.23-.13-.45-.24-.66-.02-.04-.05-.09-.11-.17-.18-.33-.39-.72-.68-.98-.19-.22-.42-.41-.67-.54-.25-.14-.54-.22-.71-.44-.08-.22-.2-.46-.28-.72l-.05-.09c-.03-.08-.09-.18-.17-.34-.33-.65-.94-1.14-1.6-1.37-.17-.99-.98-1.69-1.72-2.18-.05-.03-.25-.23-.37-.31,0-.07-.04-.13-.08-.19-.13-.22-.28-.44-.36-.67-.03-.18-.12-.32-.21-.48-.04-.06-.08-.13-.14-.19-.21-.4-.59-.72-.93-1.02-.21-.19-.45-.28-.7-.38,0-.02-.02-.06-.03-.07-.09-.25-.1-.52-.23-.75-.04-.22-.19-.41-.32-.59,0-.03-.04-.07-.11-.14-.22-.3-.48-.6-.76-.82-.21-.18-.45-.32-.7-.41-.24-.11-.53-.15-.73-.34-.07-.22-.2-.41-.31-.66,0,0-.04-.09-.05-.08-.04-.09-.08-.18-.15-.28l-.04-.04c-.47-.69-1-.97-1.42-1.16-.08-.2-.27-.37-.29-.59,0-.01-.02-.04-.02-.05-.02-.17-.1-.31-.17-.47-.03-.06-.07-.13-.12-.19-.17-.39-.52-.71-.82-1.01-.14-.14-.47-.43-.74-.57-.2-.8-.78-1.43-1.36-1.9-.05-.05-.22-.23-.32-.32-.01-.07-.04-.13-.06-.19-.04-.21-.21-.41-.21-.62,0-.02,0-.05,0-.06,0-.17-.06-.31-.11-.48-.03-.06-.07-.12-.1-.18-.13-.41-.4-.78-.66-1.1-.13-.21-.35-.35-.57-.48,0-.01,0-.06,0-.07-.03-.23.03-.5-.03-.75.01-.21-.06-.41-.13-.61-.02-.03-.03-.09-.08-.16-.11-.31-.27-.66-.48-.93-.13-.22-.31-.42-.52-.56-.2-.16-.46-.27-.58-.5-.02-.22-.09-.44-.09-.69l-.02-.09c0-.08-.03-.18-.06-.34-.11-.65-.54-1.21-1.07-1.6.21-.94-.29-1.76-.75-2.46-.03-.05-.13-.29-.2-.4.03-.07.79-.8-.27-2Z" fill="#f9c316"/>
          <path d="M56.06,8.42c-.05-.02-.11.17-.15.45-.01.07-.02.14-.03.22-.08-.06-.16-.45-.24-.24,0,.01-.02.03-.02.05-.02.04-.04.1-.07.23,0,.01,0,.03,0,.03-.07-.26-.14-.53-.22-.41,0,0-.01,0-.02.04-.07.18-.14.23-.21-.06-.04-.12-.08-.28-.13-.24-.05.05-.11.14-.15.41-.07-.42-.16-.68-.25-.6-.02,0-.04.01-.06.04-.05-.02-.11.15-.15.45-.01.07-.02.13-.03.22-.08-.07-.15-.47-.24-.26,0,.01-.01.04-.02.06,0,0,0,.01,0,.01-.07-.38-.15-.73-.23-.66-.02,0-.04.02-.06.03-.05-.02-.11.16-.15.45,0,.04-.01.09-.02.13-.09-.19-.13-.41-.25-.16-.04.23-.12.03-.16-.11-.04-.12-.08-.29-.13-.22-.05.03-.11.12-.16.41-.07-.43-.16-.69-.25-.62-.02,0-.04.02-.06.03-.05-.02-.11.16-.15.44-.01.06-.02.14-.03.22-.08-.06-.15-.46-.24-.26,0,.01-.02.02-.02.05-.02.04-.04.1-.07.23,0,.01,0,.03,0,.03-.07-.26-.14-.54-.22-.43,0,0-.01,0-.02.04-.07.18-.14.22-.21-.07-.04-.12-.08-.29-.13-.24-.05.05-.11.13-.15.4-.07-.42-.16-.69-.25-.62-.02,0-.04,0-.06.03-.05-.02-.11.14-.15.44-.01.06-.02.13-.03.22-.08-.08-.15-.48-.24-.28,0,.01-.01.04-.02.06,0,0,0,.01,0,.01v.02c-.07-.12-.14-.32-.22-.24-.18.19-.24.74-.24.74-.04.23-.07.57-.09.92-.08,1.42.02,3.14.19,3.55l.09.21c.08.32.18.12.26-.05v.08c.09.35.18.23.27.03,0-.01.04-.05.05-.07,0,.03.01.04.02.06.02.08.05.05.07.17,0,.01,0,.03,0,.03.02.1.03.12.05.17,0,0,.02.01.02.02.05.13.1.07.15.01.03,0,.06-.12.08-.24,0,0,0,.02,0,.03.02.1.05.29.08.34.02.11.05.14.07.17,0,0,.01.01.02,0,.04.04.08.08.12,0,.03-.02.06-.1.08-.23.03-.12.05-.3.08-.31.02.07.05.11.08.21h.01s.02.06.04.09c.07.14.15-.02.22-.38.09.5.2.34.29.12,0-.01.04-.04.05-.07,0,.04.01.05.02.07.03.06.05.09.08.18.02.09.03.12.05.17,0,.01.02.03.03.03.05.11.1.05.15,0,.03-.02.06-.14.08-.26,0,.01,0,.03,0,.03.03.11.05.28.08.34.02.12.05.14.07.17,0,.01,0,.01.02.02.04.04.08.06.12,0,.03-.04.06-.11.08-.24.03-.1.05-.29.08-.31.02.09.05.12.08.21,0,0,.01.03.01.01.01.03.02.06.03.07h0c.09.12.15-.12.2-.31.02.07.05.03.07.17,0,0,0,.01,0,.01.02.09.03.12.05.16,0,.01.02.03.03.03.05.11.1.05.15,0,.02-.02.07-.11.1-.24.09.34.18.22.27.01,0-.01.04-.05.05-.08,0,.03.01.04.02.05.02.08.05.04.07.16,0,.01,0,.03,0,.03.02.09.03.12.05.16,0,0,.02.01.02.01.05.12.1.06.15,0,.03-.01.05-.13.08-.25,0,0,0,.02,0,.03.03.09.05.28.08.34.02.11.05.14.07.16,0,0,.01.01.02,0,.04.04.08.07.12,0,.03-.02.06-.1.08-.23.03-.12.05-.3.08-.31.02.07.05.11.08.2h.01s.02.06.04.08c.07.14.15-.03.22-.39.09.5.2.33.29.1,0-.01.04-.04.05-.08,0,.04.01.05.02.07.03.05.05.08.08.18.02.09.13.06.13.06.05.02.11-.17.15-.45.01-.07.02-.14.03-.22.08.06.16.45.24.24,0-.01.02-.03.02-.05.02-.04.04-.1.07-.23,0-.01,0-.03,0-.03.07.26.14.53.22.41,0,0,.01,0,.02-.04.07-.18.14-.23.21.06.04.12.08.28.13.24.05-.05.11-.14.15-.41.07.42.16.68.25.6.02,0,.04-.01.06-.04.05.02.11-.15.15-.45.01-.07.02-.13.03-.22.08.07.15.47.24.26,0-.01.01-.04.02-.06,0,0,0-.01,0-.01.07.38.15.73.23.66.02,0,.04-.02.06-.03.05.02.11-.16.15-.45,0-.04.01-.09.02-.13.09.19.13.41.25.16.04-.23.12-.03.16.11.04.12.08.29.13.22.05-.03.11-.12.16-.41.07.43.16.69.25.62.02,0,.04-.02.06-.03.05.02.11-.16.15-.44.01-.06.02-.14.03-.22.08.06.15.46.24.26,0-.01.02-.02.02-.05.02-.04.04-.1.07-.23,0-.01,0-.03,0-.03.07.26.14.54.22.43,0,0,.01,0,.02-.04.07-.18.14-.22.21.07.04.12.08.29.13.24.05-.05.11-.13.15-.4.07.42.16.69.25.62.02,0,.04,0,.06-.03.05.02.11-.14.15-.44.01-.06.02-.13.03-.22.08.08.15.48.24.28,0-.01.02-.04.02-.06,0,0,0-.01,0-.01v-.02c.07.12.14.32.22.24.18-.19.24-.74.24-.74.04-.23.07-.57.09-.92.08-1.42-.02-3.14-.19-3.55l-.09-.21c-.08-.32-.18-.12-.26.05v-.08c-.08-.35-.18-.23-.27-.03,0,.01-.04.05-.05.07,0-.03-.01-.04-.02-.06-.02-.08-.05-.05-.07-.17,0-.01,0-.03,0-.03-.02-.1-.03-.12-.05-.17,0,0-.02-.01-.02-.02-.05-.13-.1-.07-.15-.01-.03,0-.06.12-.08.24,0,0,0-.02,0-.03-.03-.1-.05-.29-.08-.34-.02-.11-.05-.14-.07-.17,0,0-.01-.01-.02,0-.04-.04-.08-.08-.12,0-.03.02-.06.1-.08.23-.03.12-.05.3-.08.31-.02-.07-.05-.11-.08-.21h-.01s-.02-.06-.04-.09c-.07-.14-.15.02-.22.38-.09-.5-.2-.34-.29-.12,0,.01-.04.04-.05.07,0-.04-.01-.05-.02-.07-.03-.06-.05-.09-.08-.18-.02-.09-.03-.12-.05-.17,0-.01-.02-.03-.03-.03-.05-.11-.1-.05-.15,0-.03.02-.05.14-.08.26,0-.01,0-.03,0-.03-.03-.11-.05-.28-.08-.34-.02-.12-.05-.14-.07-.17,0-.01,0-.01-.02-.02-.04-.04-.08-.06-.12,0-.03.04-.06.11-.08.24-.03.1-.05.29-.08.31-.02-.09-.05-.12-.08-.21,0,0-.01-.03-.01-.01-.01-.03-.02-.05-.03-.07h0c-.09-.12-.15.12-.2.31-.02-.07-.05-.03-.07-.17,0,0,0-.01,0-.01-.02-.09-.03-.12-.05-.16,0-.01-.02-.03-.03-.03-.05-.11-.1-.05-.15,0-.02.02-.07.11-.1.24-.09-.34-.18-.22-.27-.01,0,.01-.04.05-.05.08,0-.03-.01-.04-.02-.05-.02-.08-.05-.04-.07-.16,0-.01,0-.03,0-.03-.02-.09-.03-.12-.05-.16,0,0-.02-.01-.02-.01-.05-.12-.1-.06-.15,0-.03.01-.05.13-.08.25,0,0,0-.02,0-.03-.03-.09-.05-.28-.08-.34-.02-.11-.05-.14-.07-.16,0,0-.01-.01-.02,0-.04-.04-.08-.07-.12,0-.03.02-.06.1-.08.23-.03.12-.05.3-.08.31-.02-.07-.05-.11-.08-.2h-.01s-.02-.06-.04-.08c-.07-.14-.15.03-.22.39-.09-.5-.2-.33-.29-.1,0,.01-.04.04-.05.08,0-.04-.06-1-.23-.31Z" fill="#f9c316"/>
        </g>
        <g>
          <path d="M66.2,162.51c.46.09,1-.02,1.42-.25.1-.05.22-.12.31-.19.67.14,1.34.6,2.09.45.07,0,.15-.01.22-.04.2-.02.41-.08.6-.2.01-.01.03-.02.04-.02.59.29,1.28.58,1.95.47.04,0,.12,0,.16-.04.66-.19,1.24-.25,1.93,0,.38.1.75.24,1.17.15.49-.09,1-.24,1.37-.57.72.33,1.55.45,2.35.22.19-.04.36-.09.53-.15.5-.09.98-.38,1.28-.77.09-.09.17-.18.22-.29.7-.12,1.5.05,2.17-.41.05-.03.12-.08.17-.13.01,0,.03-.03.06-.03.73.14,1.56.19,2.25-.19.18-.08.33-.17.49-.26.47-.2.87-.59,1.08-1.03.04-.07.07-.14.1-.2.84-.22,1.27-.21,2.07-.98.21-.4.88-.58,1.31-.7.39-.11.78-.17,1.11-.49.41-.34.79-.75.94-1.24.81-.1,1.6-.46,2.12-1.04.12-.11.22-.24.33-.35.32-.27.49-.65.51-1.04,0-.09.01-.19.01-.29.42-.22.79.04.98-.23.02-.02.05-.04.07-.07.08-.05.16-.14.28-.28,0-.01.01-.03.02-.03.49.17.8.48.94.39,0,0,.01,0,.03-.03.12-.16.33-.12.2.16-.06.15-.17.23-.04.36.14.12.34.33.7.48-.21.56-.31,1.16-.08,1.75.03.15.08.28.13.42.08.39.32.79.68,1.05.08.08.16.15.27.2.04.63-.24,1.3.05,1.9.02.04.05.11.09.16,0,.01.02.03.02.05h.02c-.04.55-.19,1.08-.05,1.67.3,1.31.84,1.83.84,1.83.24.29.57.57.92.73,1.4.68,3.17-.13,3.52-1.73l.17-.8c.27-.74-.02-1.66-.3-2.33h.08c.24-.83-.04-1.69-.37-2.35-.02-.06-.11-.3-.16-.43.01-.07.01-.14.01-.21.04-.21-.05-.46.03-.67.01-.02.02-.05.01-.06.06-.17.05-.33.05-.52-.01-.07-.02-.15-.04-.22.03-.45-.19-.95-.38-1.37-.1-.27-.3-.49-.49-.69,0-.01,0-.07,0-.08,0-.28.06-.58,0-.89.02-.25-.12-.54-.22-.8-.03-.05-.05-.12-.12-.22-.23-.44-.53-.95-1.02-1.35-.31-.33-.75-.55-1.12-.68-.41-.11-.79-.15-1.18-.29-.29-.19-.63-.37-1-.53l-.15-.05c-.12-.05-.31-.12-.53-.16-1.03-.27-1.92.04-2.51.49-.56-.17-1.25-.07-1.85.2-.61.27-1.1.69-1.44,1.08-.05.05-.3.26-.39.39-.07,0-.14.04-.21.08-.24.13-.47.29-.7.36-.17.03-.32.12-.47.2-.06.03-.13.08-.18.13-.38.2-.63.52-.87.8-.15.17-.22.38-.3.6-.02,0-.05,0-.06.02-.22.05-.46.02-.66.1-.19,0-.36.11-.51.19-.03,0-.06.03-.12.07-.25.14-.51.29-.73.51-.17.16-.32.35-.41.56-.12.2-.18.46-.36.6-.21.01-.39.09-.62.13,0,0-.08.02-.08.03-.08.02-.17.03-.26.07l-.04.02c-.67.25-.99.67-1.22,1.01-.18.02-.37.14-.57.09-.01,0-.04,0-.05,0-.15-.03-.29,0-.44.02-.06.01-.13.02-.19.05-.36.05-.72.25-1.03.44-.15.08-.47.3-.65.5-.73-.09-1.4.24-1.95.61-.05.03-.25.12-.36.17-.06-.01-.12-.01-.18,0-.19-.04-.4.05-.58-.03-.01-.01-.04-.02-.05-.02-.14-.06-.28-.06-.43-.07-.06,0-.12.02-.18.02-.38-.05-.77.09-1.11.21-.21.04-.39.2-.57.34-.01,0-.05-.02-.06-.02-.21-.07-.41-.23-.63-.26-.17-.09-.36-.1-.54-.11-.03,0-.08,0-.16.01-.3-.02-.63-.01-.92.08-.22.04-.45.13-.64.27-.2.12-.38.32-.61.33-.19-.07-.39-.1-.6-.2h-.08c-.07-.04-.16-.06-.3-.09-.57-.14-1.18,0-1.69.34-.69-.54-1.54-.45-2.29-.31-.05,0-.28,0-.41.03-.04-.05-.1-.07-.15-.09-.2-.08-.42-.14-.59-.26-.06-.06-.31-.11-.54-.15-.25-.04-.48-.07-.48-.07-.44-.09-.94.01-1.35.24-.1.05-.21.11-.3.18-.63-.16-1.22-.66-1.94-.57-.06,0-.14,0-.21.02-.19,0-.39.04-.58.14-.01.01-.03.02-.04.02-.52-.35-1.11-.72-1.74-.71-.04,0-.11-.02-.16.01-.64.08-1.19.03-1.77-.35-.33-.18-.63-.39-1.03-.4-.47-.02-.97-.01-1.41.21-.59-.5-1.35-.86-2.31-.82-.22,0-.43,0-.65.03-.38,0-.39.03-.86.14-.34.1-.57.25-.8.44-.13.09-.23.17-.32.28-.89.09-1.92.09-2.51.59-.04.03-.1.09-.15.14-.01,0-.03.03-.05.04-.72-.09-1.34-.19-1.9.09-.14.05-.27.13-.4.19-.39.12-.75.43-.98.8-.04.05-.07.12-.11.17-.77.03-1.11-.09-1.96.4-.27.31-.9.27-1.3.22-.36-.04-.71-.12-1.05.02-.43.14-.86.32-1.16.68-.71-.28-1.31-.43-1.95-.26-.14.02-.29.06-.42.09-.39.03-.78.25-1.08.55-.07.07-.16.15-.22.24-.58-.03-1.16-.41-1.76-.23-.05.01-.12.02-.18.04-.17.03-.33.08-.5.21-.01.01-.02.02-.04.02-.49-.3-1-.62-1.55-.6-.03,0-.1-.02-.14.02-.56.08-1.05.04-1.51-.37-.27-.19-.5-.43-.84-.47-.39-.06-.81-.11-1.22.04-.39-.58-.86-1.04-1.49-1.25-.14-.07-.28-.11-.42-.15-.36-.19-.81-.23-1.23-.11-.11.02-.21.04-.32.09-.49-.35-.81-.97-1.47-1.14-.05-.01-.12-.03-.18-.04,0,0-.04,0-.06-.02v.02c-.41-.38-.74-.84-1.3-1.11-1.24-.61-2-.51-2-.51-.38,0-.81.09-1.16.27-1.4.7-1.81,2.6-.8,3.84l.52.62c.4.67,1.29,1.01,1.98,1.23l-.04.06c.48.7,1.32,1.04,2.07,1.21.07.02.31.1.44.15.05.05.1.1.15.14.14.16.4.25.52.44,0,.02.02.04.04.05.09.15.23.24.37.36.06.03.13.07.19.1.35.29.83.43,1.27.54.25.09.52.06.78.04,0,0,.04.04.05.05.18.17.33.42.56.56.15.17.37.27.57.36.04.01.09.04.19.06.34.15.74.29,1.11.31.28.04.57.04.84-.04.28-.06.53-.19.81-.15.21.11.44.19.68.33l.09.03c.08.04.19.07.35.12.68.24,1.46.15,2.06-.18.83.55,1.9.39,2.74.12.05-.02.33-.06.47-.1.06.04.13.05.2.06.25.03.52.04.75.11.16.08.33.08.52.1.07,0,.16.01.24,0,.45.05.94-.09,1.37-.22.27-.08.48-.24.68-.4.02.01.06.02.07.01.25.06.47.19.72.19.2.08.43.05.64.03.03,0,.08,0,.17-.02.35-.04.72-.1,1.04-.25.24-.1.48-.23.66-.41.2-.16.36-.39.61-.48.22.04.45,0,.71.02,0,0,.1,0,.09-.01.1,0,.19,0,.31-.01h.05c.82-.13,1.3-.52,1.63-.83.21,0,.44-.11.67-.05.01,0,.04,0,.06,0,.17.04.34.01.52-.01.07,0,.15-.02.23-.05.44-.05.9-.29,1.29-.52.19-.11.56-.37.74-.6.4,0,.74-.09.98-.2.25-.11.4-.24.58-.38.03-.02.16-.09.24-.12.04.02.09.03.13.04.17.07.25.01.33.14.02.01.07.03.09.02.03.01.06.02.11.03l.04.03s.05.03.08.04c.05.02.11.04.16.06.04,0,.1.01.14.02.28.13.64.09.99.06.21.01.42-.08.63-.17,0,0,.04.03.05.03.18.12.34.33.55.42.15.13.34.19.53.25.04,0,.08.03.17.03.3.09.66.18.99.15.25.02.51-.02.74-.11.24-.08.47-.23.72-.2.19.1.4.18.61.31l.08.03c.07.04.17.07.31.12.6.24,1.29.19,1.87-.09.69.62,1.63.61,2.43.51.05,0,.3.01.44,0,.05.05.34,1.07,1.86.61Z" fill="#f9c316"/>
          <path d="M75.21,205.84c-.23.42-.27.95-.16,1.42.02.11.05.24.09.34-.33.59-.96,1.07-1.04,1.81-.01.06-.03.14-.03.21-.04.2-.05.4,0,.62,0,.02.01.03,0,.05-.46.45-.95.97-1.07,1.62-.01.04-.04.11-.02.16-.05.66-.2,1.21-.68,1.73-.23.3-.5.57-.58.97-.1.46-.17.96-.02,1.41-.59.49-1.06,1.13-1.2,1.9-.05.17-.09.34-.11.51-.15.46-.11.98.09,1.41.04.12.08.22.15.32-.24.63-.78,1.18-.75,1.95,0,.05,0,.14.02.2,0,.01,0,.04,0,.07-.51.5-1,1.1-1.08,1.83-.04.18-.05.35-.07.51-.12.47-.04.99.18,1.4.03.07.07.13.1.19-.17.38-.33.64-.43.94-.05.15-.09.31-.11.49-.02.2-.01.33-.04.85.02.16.08.35.08.55.01.19,0,.26-.02.4-.04.25-.12.5-.19.7-.12.35-.29.69-.22,1.06.03.46.12.94.41,1.32-.43.62-.69,1.33-.62,2.09,0,.16.02.34.03.5-.02.45.16.93.44,1.3.06.09.14.19.22.27-.06.65-.46,1.31-.25,2,.01.06.02.14.05.2.04.19.1.38.23.56.01.01.03.03.03.04-.26.57-.54,1.21-.43,1.84,0,.04,0,.11.04.15.18.62.22,1.17-.07,1.79-.12.35-.29.67-.24,1.06.05.45.13.93.4,1.31-.42.62-.69,1.33-.62,2.08,0,.18,0,.34.03.5-.02.46.14.94.44,1.3.06.1.13.19.22.27-.08.65-.48,1.3-.28,2.01.01.05.04.13.06.19,0,.01.01.04.01.06h.02c-.12.59-.32,1.17-.24,1.84.19,1.49.74,2.06.74,2.06.23.32.57.62.92.79,1.42.68,3.14-.19,3.55-1.65l.21-.74c.32-.67.12-1.54-.05-2.2h.08c.35-.72.23-1.55.03-2.25-.01-.06-.05-.3-.07-.43.03-.06.04-.12.06-.19.08-.19.05-.44.17-.61.01-.01.03-.04.03-.05.1-.14.12-.29.17-.45,0-.06.01-.14.02-.2.13-.4.07-.85.01-1.26,0-.24-.12-.47-.24-.68,0-.01.02-.05.03-.06.1-.21.28-.41.34-.65.11-.17.14-.39.17-.59,0-.04.01-.09,0-.18.04-.33.08-.7,0-1.03-.02-.25-.1-.5-.23-.72-.12-.23-.3-.43-.31-.68.07-.2.11-.43.21-.65v-.09c.04-.08.06-.18.09-.33.14-.63-.02-1.29-.38-1.83.5-.77.34-1.7.12-2.47-.01-.05-.04-.3-.07-.43.04-.05.05-.11.07-.18.06-.23.09-.46.18-.66.09-.14.12-.29.17-.45.01-.06.03-.14.03-.21.11-.39.05-.84,0-1.24-.02-.25-.14-.47-.26-.68.01-.01.03-.05.03-.06.11-.22.28-.41.34-.65.12-.17.14-.4.17-.6.01-.03.01-.08.02-.16.04-.34.06-.7,0-1.03-.04-.25-.11-.5-.24-.72-.05-.11-.12-.22-.19-.33-.06-.11-.11-.25-.12-.25l.11-.07s.03-.02.05-.04c.03-.05.05-.1.08-.16,0,0,.04-.08.03-.08.04-.08.08-.16.12-.26v-.05c.26-.72.13-1.27,0-1.68.1-.17.11-.4.28-.54,0-.01.02-.03.02-.04.12-.11.18-.25.25-.4.03-.06.06-.13.07-.2.19-.35.22-.79.26-1.18.02-.18.02-.6-.05-.88.49-.61.56-1.41.54-2.12,0-.06.02-.3.03-.42.04-.05.07-.11.1-.16.13-.15.15-.4.31-.53.02,0,.04-.03.04-.04.13-.1.19-.24.27-.38.02-.06.05-.13.07-.18.23-.34.29-.78.34-1.16.05-.22,0-.46-.04-.7,0,0,.04-.04.04-.05.15-.17.39-.3.51-.5.15-.13.24-.31.33-.49.01-.03.04-.08.05-.16.14-.28.28-.62.31-.94.06-.24.06-.49,0-.73-.04-.24-.15-.49-.07-.72.13-.16.24-.35.41-.52l.04-.07c.05-.06.1-.14.17-.27.34-.51.42-1.17.27-1.78.74-.5.94-1.38,1.03-2.15,0-.05.09-.28.1-.41.06-.03.09-.08.13-.13.14-.17.26-.37.43-.5.14-.08.5-.89.5-.89.2-.38.25-.86.15-1.3-.02-.11-.04-.23-.08-.33.33-.53,1-.88,1.13-1.56.02-.06.05-.12.05-.19.06-.17.09-.36.07-.57,0-.02-.01-.03,0-.04.5-.34,1.05-.7,1.28-1.26.02-.03.06-.09.05-.14.18-.58.43-1.05,1.01-1.36.29-.2.6-.35.78-.67.22-.37.42-.78.43-1.23.69-.2,1.32-.54,1.73-1.13.11-.12.2-.25.29-.38.3-.32.49-.76.5-1.22.02-.12.03-.22.01-.34.49-.41,1.2-.59,1.54-1.24.03-.04.06-.11.08-.18,0,0,.02-.04.03-.05.67-.15,1.39-.37,1.83-.92.12-.12.22-.26.33-.38.34-.32.56-.79.6-1.25.02-.07.02-.15.02-.21.7-.43,1.09-.52,1.61-1.44.08-.43.67-.75,1.04-.96.34-.18.69-.34.91-.67.3-.39.56-.82.6-1.31.75-.21,1.44-.63,1.88-1.3.11-.13.21-.29.3-.44.31-.37.48-.88.47-1.36,0-.11,0-.25-.01-.36.45-.51,1.18-.86,1.42-1.57.03-.06.06-.13.08-.2.08-.19.14-.39.14-.62,0-.02,0-.04,0-.05.55-.37,1.15-.82,1.4-1.46.02-.04.06-.11.05-.16.18-.67.42-1.21.99-1.69.29-.28.58-.53.73-.94.17-.47.3-.99.21-1.48.65-.46,1.19-1.11,1.39-1.93.07-.18.12-.36.15-.54.18-.48.17-1.05,0-1.5-.03-.12-.07-.24-.14-.34.26-.66.81-1.29.76-2.11,0-.06-.01-.14-.02-.22,0-.01,0-.04,0-.07h-.02c.23-.62.53-1.22.54-1.97,0-1.67-.55-2.31-.55-2.31-.21-.36-.54-.69-.89-.88-1.41-.73-3.12.16-3.63,1.45l-.27.67c-.38.58-.29,1.39-.23,2.03h-.08c-.45.59-.5,1.33-.47,2,0,.06-.02.28-.03.4-.04.05-.07.1-.1.15-.13.14-.16.38-.32.49-.02,0-.04.02-.04.04-.13.09-.2.21-.28.34-.02.05-.05.12-.07.17-.24.31-.32.71-.39,1.08-.06.21-.04.44,0,.67,0,0-.04.04-.05.04-.16.15-.41.24-.54.42-.16.1-.26.27-.37.42-.01.03-.05.07-.07.14-.16.25-.34.54-.4.85-.08.21-.12.45-.1.69,0,.24.07.49-.03.7-.15.13-.29.29-.48.42l-.05.06c-.06.05-.11.12-.21.22-.42.42-.6,1.03-.58,1.65-.82.33-1.2,1.15-1.44,1.87-.02.05-.14.25-.19.37-.06.01-.11.05-.15.09-.17.14-.33.3-.53.39-.15.05-.26.14-.39.24-.05.04-.1.09-.15.14-.32.22-.54.59-.74.92-.13.2-.17.43-.22.66-.02,0-.05.02-.06.03-.22.09-.47.12-.66.25-.2.05-.35.2-.5.32-.03,0-.06.04-.11.11-.25.21-.49.46-.66.73-.14.2-.24.43-.29.67-.07.23-.08.5-.23.69-.2.08-.37.21-.59.32,0,0-.08.04-.07.05-.08.04-.16.08-.24.15l-.03.03c-.61.46-.81,1-.94,1.41-.18.08-.32.28-.54.31-.01,0-.03.02-.04.03-.16.03-.29.12-.43.2-.05.03-.12.08-.17.13-.35.2-.63.56-.88.89-.12.15-.35.52-.45.8-.76.29-1.27,1-1.61,1.66-.04.06-.17.27-.25.38-.06.03-.12.07-.17.11-.19.09-.34.31-.55.36-.02,0-.05.01-.05.02-.17.05-.29.15-.44.25-.05.05-.1.1-.15.15-.37.23-.64.64-.86,1.01-.16.2-.22.46-.27.71-.01,0-.05.03-.06.03-.21.12-.49.16-.7.33-.2.08-.36.25-.51.4-.02.03-.07.07-.12.15-.25.25-.52.56-.66.89-.14.23-.23.5-.26.76-.04.27-.01.55-.15.78-.18.14-.34.31-.56.46l-.06.07c-.07.05-.14.13-.25.26-.48.49-.72,1.18-.68,1.85-.85.45-1.19,1.4-1.36,2.22-.01.05-.11.3-.14.43-.06.02-1.16.03-1.17,1.66Z" fill="#f9c316"/>
          <path d="M40.5,277.16c-.23,0-.46.03-.68.11-.11.04-.22.09-.32.15-.09.06-.08.12-.13.19-.04.07-.09.15-.13.21-.29-.11-.34-.54-.63-.51-.03,0-.06,0-.09,0-.07-.02-.18-.01-.32.01-.01,0-.03,0-.03,0,.01-.37.18-.64.03-.79,0-.01,0-.03-.05-.04-.11-.08-.17-.17-.18-.3,0-.29.06-.59.2-.9.12-.35.28-.68.24-1.06-.05-.45-.14-.93-.41-1.31.42-.62.68-1.34.6-2.09,0-.18-.01-.34-.04-.5.02-.46-.15-.94-.45-1.3-.07-.1-.13-.19-.22-.27.07-.65.47-1.3.26-2.02-.01-.05-.04-.13-.06-.19,0-.01-.01-.04-.01-.06.38-.59.73-1.26.66-1.96,0-.18-.02-.34-.03-.5.02-.46-.16-.94-.45-1.3-.04-.06-.09-.11-.13-.16.19-.79.41-1.11.16-2.11-.23-.35-.03-.98.11-1.37.12-.35.29-.69.22-1.06-.03-.46-.12-.94-.41-1.32.43-.62.69-1.33.62-2.09,0-.16-.02-.34-.03-.5.02-.45-.16-.93-.44-1.3-.06-.09-.14-.19-.22-.27.06-.65.46-1.31.25-2-.01-.06-.02-.14-.05-.2-.04-.19-.1-.38-.23-.56-.01-.01-.03-.03-.03-.04.26-.57.54-1.21.43-1.84,0-.04,0-.11-.04-.15-.18-.62-.22-1.17.07-1.79.12-.35.29-.67.24-1.06-.05-.45-.13-.93-.4-1.31.42-.62.69-1.33.62-2.08,0-.18,0-.34-.03-.5.02-.46-.14-.94-.44-1.3-.06-.1-.13-.19-.22-.27.08-.65.48-1.3.28-2.01-.01-.05-.04-.13-.06-.19,0-.01-.01-.04-.01-.06h-.02c.12-.59.32-1.17.24-1.84-.19-1.49-.74-2.06-.74-2.06-.23-.32-.57-.62-.92-.79-1.42-.68-3.14.19-3.55,1.65l-.21.74c-.32.67-.12,1.54.05,2.2h-.08c-.35.72-.23,1.55-.03,2.25.01.06.05.3.07.43-.03.06-.04.13-.06.19-.08.19-.05.44-.17.61-.01.01-.03.04-.03.05-.1.14-.12.29-.17.45,0,.06-.01.14-.02.2-.13.4-.07.85-.01,1.26,0,.24.12.47.24.68,0,.01-.02.05-.03.06-.1.21-.29.41-.34.65-.11.17-.14.39-.17.59,0,.04-.01.09,0,.18-.04.33-.08.7,0,1.03.02.25.1.5.23.72.12.23.3.43.31.68-.07.2-.11.43-.21.65v.09c-.04.08-.06.18-.09.33-.14.63.02,1.29.38,1.83-.5.77-.34,1.7-.12,2.47.01.05.04.3.07.43-.04.05-.05.11-.07.18-.06.23-.09.46-.18.66-.09.14-.12.29-.17.45-.01.06-.03.14-.03.21-.11.39-.05.84,0,1.24.02.25.14.47.26.68-.01.01-.03.05-.03.06-.11.22-.28.41-.34.65-.12.17-.14.4-.17.6-.01.03-.01.08-.02.16-.04.34-.06.7,0,1.03.04.25.11.5.24.72.1.23.29.43.31.68-.09.2-.12.41-.21.65,0,0-.03.09-.01.09-.03.09-.06.18-.07.29v.05c-.12.78.12,1.31.31,1.7-.07.19-.03.43-.17.6,0,.01-.01.04-.01.05-.09.14-.12.29-.16.45-.01.06-.03.14-.03.21-.11.39-.05.84,0,1.24.02.19.11.6.24.87-.34.73-.22,1.56-.01,2.25.01.06.05.3.08.43-.03.06-.04.13-.05.19-.08.19-.04.44-.16.61-.01.01-.03.04-.03.05-.09.14-.12.29-.16.45,0,.06-.01.14-.01.2-.12.4-.06.85,0,1.26.01.24.13.47.25.68,0,.01-.02.05-.03.06-.09.21-.28.41-.34.65-.11.17-.14.39-.16.59,0,.04-.01.09,0,.18-.04.33-.07.7,0,1.03.02.25.1.5.23.72.12.24.29.36.33.86-.05.35-.03.74-.04,1.15l.03.15c0,.14.03.31.1.58.24,1.12,1.11,2.09,2.02,2.41.59,1.3,2.33,1.98,3.63,1.88.09,0,.51.02.72-.01.07.04.21.06.27.08.23.05.46.08.66.18.14.09,1.07.06,1.07.06.45.02.93-.17,1.3-.45.09-.07.19-.14.27-.22.65.06,1.31.45,2.01.24.06-.01.14-.03.2-.05.19-.04.38-.1.55-.23.01-.01.03-.03.04-.03.58.26,1.21.53,1.84.41.04,0,.11,0,.15-.04.62-.18,1.17-.23,1.79.06.35.12.68.28,1.06.23.45-.05.93-.14,1.31-.41.62.42,1.34.68,2.09.6.18,0,.34-.01.5-.04.46.02.94-.15,1.3-.45.1-.07.19-.13.27-.22.65.07,1.3.47,2.02.26.05-.01.13-.04.19-.06.01,0,.04-.01.06-.01.59.38,1.26.73,1.96.66.18,0,.34-.02.5-.03.46.02.94-.16,1.3-.45.06-.04.11-.09.16-.13.79.19,1.11.41,2.11.16.35-.23.98-.03,1.37.11.35.12.69.29,1.06.22.12,0,.23-.02.35-.04l.41-.08c.39-.07.75-.21,1.04-.4,1.1.26,2.52-.05,3.54-1.01.23-.19.45-.43.64-.66.58-.6.9-1.47.89-2.17,0-.17-.01-.36-.04-.51.46-.93.84-2.38.63-2.85-.01-.06-.02-.14-.05-.2-.04-.19-.1-.38-.23-.56-.01-.01-.03-.03-.03-.04.26-.57.54-1.21.43-1.84,0-.04,0-.11-.04-.15-.18-.62-.22-1.17.07-1.79.12-.35.29-.67.24-1.06-.05-.45-.13-.93-.4-1.31.42-.62.69-1.33.62-2.08,0-.18,0-.34-.03-.5.02-.46-.14-.94-.44-1.3-.06-.1-.13-.19-.22-.27.08-.65.48-1.3.28-2.01-.01-.05-.04-.13-.06-.19,0-.01-.01-.04-.01-.06h-.02c.12-.59.32-1.17.24-1.84-.19-1.49-.74-2.06-.74-2.06-.23-.32-.57-.62-.92-.79-1.42-.68-3.14.19-3.55,1.65l-.21.74c-.32.67-.12,1.54.05,2.2h-.08c-.35.72-.23,1.55-.03,2.25.01.06.05.3.07.43-.03.06-.04.12-.06.19-.08.19-.05.44-.17.61-.01.01-.03.04-.03.05-.1.14-.12.29-.17.45,0,.06-.01.14-.02.2-.13.4-.07.85-.01,1.26,0,.24.12.47.24.68,0,.01-.02.05-.03.06-.1.21-.29.41-.34.65-.11.17-.14.39-.17.59,0,.04-.01.09,0,.18-.04.33-.08.7,0,1.03.02.25.1.5.23.72.12.23.3.43.31.68-.07.2-.11.43-.21.65v.09c-.04.08-.06.18-.09.33-.14.63.02,1.29.38,1.83-.25.39-.34.81-.33,1.24,0,.14.07.28.14.45,0,.02,0,.12,0,.18-.05,0-.07.01-.09.03-.09.05-.16.11-.28.1-.1-.02-.15,0-.22,0-.02,0-.04.01-.06.02-.15,0-.22.1-.3.2-.05.06-.07.18-.11.32,0-.01-.03-.02-.03-.02-.1-.08-.19-.25-.26-.29-.07-.13-.05-.13-.32-.16-.03-.01-.08-.01-.16-.02-.34-.04-.7-.06-1.03,0-.25.04-.5.11-.72.24-.23.1-.43.29-.68.31-.2-.09-.41-.12-.65-.21,0,0-.09-.03-.09-.01-.09-.03-.18-.06-.29-.07h-.05c-.78-.12-1.31.12-1.7.31-.19-.07-.43-.03-.6-.17-.01,0-.04-.01-.05-.01-.14-.09-.29-.12-.45-.16-.06-.01-.14-.03-.21-.03-.39-.11-.84-.05-1.24,0-.19.02-.6.11-.87.24-.73-.34-1.56-.22-2.25-.01-.06.01-.3.05-.43.08-.06-.03-.13-.04-.19-.05-.19-.08-.44-.04-.61-.16-.01-.01-.04-.03-.05-.03-.14-.09-.29-.12-.45-.16-.06,0-.14-.01-.2-.01-.4-.12-.85-.06-1.26,0-.24.01-.47.13-.68.25-.01,0-.05-.02-.06-.03-.21-.09-.41-.28-.65-.34-.17-.11-.39-.14-.59-.16-.04,0-.09-.01-.18,0-.33-.04-.7-.07-1.03,0-.25.02-.5.1-.72.23-.23.12-.43.3-.68.31-.2-.07-.43-.11-.65-.2h-.09c-.08-.04-.18-.06-.33-.08-.63-.14-1.29.03-1.82.39-.78-.5-1.71-.33-2.47-.1-.05.01-.3.04-.43.08-.05-.04-.52-1-1.91-.31Z" fill="#f9c316"/>
          <path d="M14.26,185.31c-.25-.36-.67-.63-1.11-.75-.1-.03-.23-.06-.33-.08-.33-.55-.36-1.3-.91-1.73-.04-.04-.1-.1-.15-.13-.13-.13-.29-.24-.5-.31-.02,0-.03,0-.04-.02-.08-.61-.18-1.27-.6-1.71-.02-.03-.06-.09-.11-.1-.47-.4-.75-.84-.81-1.49-.05-.35-.08-.68-.28-.98-.23-.35-.51-.7-.91-.9.09-.7.09-1.4-.25-2-.06-.15-.13-.28-.21-.41-.16-.39-.44-.74-.83-.95-.09-.07-.18-.12-.29-.16-.13-.59.05-1.26-.29-1.84-.02-.04-.07-.1-.1-.15,0-.01-.02-.03-.03-.05.23-.61.41-1.26.26-1.86-.02-.15-.07-.29-.11-.43-.04-.41-.32-.79-.62-1.08-.04-.05-.1-.09-.14-.13.14-.73.32-1.02.01-1.9-.23-.31-.02-.89.12-1.23.13-.31.28-.61.24-.94,0-.42-.04-.85-.29-1.22.48-.52.79-1.11.86-1.79.03-.14.03-.3.05-.45.09-.4-.01-.86-.23-1.25-.05-.1-.1-.21-.16-.3.2-.61.72-1.13.69-1.8,0-.06,0-.13,0-.2,0-.18,0-.36-.09-.55,0-.01-.02-.03-.02-.04.39-.45.82-.9.89-1.41.01-.03.03-.09,0-.13,0-.54.16-.95.58-1.12.1-.07.21-.06.29-.1.04-.01.08-.04.1-.06.02,0,.03,0,.03-.02,0-.1-.04-.14-.1-.43.32.32.18.63.53.57.08.01.15,0,.25,0,.14.04.3.03.45-.02.12-.05.22-.14.34-.26.06-.05.12-.09.18-.17.25.19.25.65.77.82.04.01.1.03.15.04,0,0,.03,0,.04.02h.01c.29.38.5.89,1.1,1.32,1.35.94,2.16.91,2.16.91.4.05.85,0,1.21-.16,1.4-.65,1.78-2.61,1.04-3.82l-.38-.62c-.25-.62-1-1.1-1.69-1.47l.05-.06c-.37-.8-1.43-1.44-2.46-1.64-.09-.03-.42-.11-.6-.15-.08-.05-.16-.09-.24-.13-.24-.16-.59-.19-.76-.35-.01-.02-.04-.04-.06-.04-.15-.12-.34-.19-.53-.26-.09-.01-.19-.03-.28-.04-.53-.19-1.24-.15-1.92,0-.42.07-.78.27-1.08.51-.02,0-.09,0-.11,0-.38.02-.76.02-1.16.18-.33.05-.65.29-.95.5-.05.05-.14.09-.24.21-.22.19-.45.41-.65.65-.17.22-.31.45-.42.67-.2.33-.27.66-.31.98-.05.33.04.62-.09.91-.17.2-.3.43-.48.64l-.05.09c-.06.07-.11.18-.2.33-.36.63-.42,1.39-.21,2.03-.7.67-.77,1.66-.72,2.48,0,.06-.04.31-.02.45-.05.04-.07.11-.1.17-.1.23-.17.47-.3.67-.12.13-.18.28-.25.45-.03.06-.05.14-.07.22-.18.4-.22.89-.23,1.33,0,.28.09.52.19.77-.01.01-.03.05-.03.06-.13.23-.32.42-.4.67-.14.18-.18.43-.23.64-.02.03-.02.08-.03.18-.09.37-.09.78-.04,1.14.03.28.11.56.24.8.1.25.28.47.31.74-.1.22-.13.45-.18.72,0,0-.02.1,0,.1-.02.1-.04.2-.04.32v.06c-.04.87.24,1.43.47,1.83-.03.21.04.46-.06.67,0,.01,0,.04,0,.06-.07.16-.07.33-.08.52,0,.07,0,.16.01.24-.03.44.09.94.26,1.35.07.2.27.62.47.87-.07.43,0,.86.11,1.27.15.4.36.77.58,1.09.03.06.16.29.22.41,0,.07,0,.14.01.21,0,.22.11.47.07.69,0,.02,0,.05,0,.06-.03.17,0,.33.04.51.02.06.05.14.07.21.06.45.31.88.54,1.26.11.24.33.4.54.56,0,.01,0,.06,0,.07.02.24-.06.52.01.77-.01.22.07.44.14.64.02.04.03.09.08.17.12.34.29.71.53.97.16.22.36.42.58.55.22.15.49.24.63.47.04.22.13.45.18.69l.04.09c.02.08.06.18.13.33.24.63.75,1.14,1.37,1.4.05.94.73,1.66,1.38,2.16.04.03.21.23.32.31,0,.06.02.12.05.18.09.22.22.43.26.66,0,.17.61.92.61.92.27.38.71.65,1.17.77.11.03.23.06.34.08.35.56.46,1.33,1.06,1.75.05.04.11.09.17.13.15.13.32.24.53.29.02,0,.04,0,.04.01.16.62.35,1.28.83,1.71.02.03.07.09.13.09.53.37.91.77,1.08,1.44.12.35.2.7.48.97.32.32.68.64,1.13.76.06.74.3,1.46.81,2,.1.14.21.26.33.37.27.37.69.64,1.14.73.11.04.22.07.33.07.33.56.39,1.3.98,1.74.04.03.11.08.16.11,0,.01.03.02.05.04.03.69.12,1.42.58,1.94.1.14.21.25.31.38.24.38.65.66,1.08.78.07.03.14.04.2.06.28.74.26,1.12.99,1.79.38.16.54.78.62,1.17.07.35.09.72.33.99.26.36.57.71,1,.88-.08.74,0,1.45.41,2.05.07.14.17.27.26.4.18.39.53.72.95.9.1.05.21.1.31.13.23.59.15,1.32.59,1.84.04.05.08.11.12.16.11.15.24.29.43.39.02,0,.03.01.04.02-.01.61-.02,1.26.28,1.78.01.03.04.1.09.12.38.48.61.96.55,1.61-.01.36-.07.7.09,1.03.18.39.4.79.78,1.05-.2.68-.31,1.41-.05,2.07.04.16.09.3.16.45.1.42.37.82.73,1.08.08.08.16.15.27.2.06.62-.2,1.3.15,1.92.02.04.06.11.1.16,0,.01.02.03.02.06h.02c-.02.57-.13,1.14.06,1.75.1.32.24.68.34.81.1.11.17,0,.26.25.16.33.3.47.3.47.23.32.57.62.92.79.71.34,1.49.29,2.15-.02.33-.16.63-.38.87-.66.12-.14.23-.29.32-.45.04-.08.09-.16.12-.25.04-.1.07-.26.09-.4.03-.2.02-.38.03-.55l.04-.4c.2-.73-.15-1.6-.43-2.24h.08c.2-.82-.12-1.64-.47-2.3-.02-.06-.12-.29-.17-.42.01-.07.01-.14.01-.2.04-.21-.06-.46.01-.66.01-.02.02-.04.01-.06.05-.16.04-.32.04-.5-.01-.06-.03-.14-.04-.21.01-.44-.17-.88-.34-1.27-.08-.24-.25-.44-.42-.62,0-.01,0-.06,0-.07.02-.24.14-.49.11-.75.05-.21,0-.43-.04-.64-.01-.04-.02-.09-.06-.18-.07-.34-.16-.73-.34-1.03-.1-.25-.27-.47-.47-.63-.2-.18-.44-.32-.55-.56-.01-.22-.06-.45-.05-.71l-.02-.09c0-.08-.03-.19-.06-.34-.09-.67-.55-1.24-1.1-1.6.14-.94-.41-1.77-.98-2.38-.03-.04-.17-.27-.26-.37.01-.06,0-.13-.02-.19-.05-.23-.14-.47-.14-.7.02-.17-.02-.33-.07-.49-.02-.06-.04-.14-.08-.21-.1-.41-.37-.8-.62-1.14-.15-.22-.36-.36-.56-.5,0-.02,0-.06,0-.07-.01-.26.04-.51-.04-.75.01-.22-.09-.43-.18-.62,0-.03-.03-.07-.07-.15-.14-.33-.32-.66-.55-.92-.16-.21-.37-.39-.6-.51-.21-.14-.48-.22-.64-.43-.03-.22-.13-.43-.19-.68,0,0-.03-.09-.04-.08-.03-.09-.05-.18-.1-.29l-.03-.04c-.34-.74-.85-1.05-1.24-1.28-.05-.2-.22-.38-.21-.61,0-.01-.01-.04-.02-.05,0-.17-.07-.32-.13-.48-.03-.06-.06-.13-.1-.19-.14-.39-.46-.73-.74-1.04-.13-.14-.45-.44-.72-.58-.17-.8-.78-1.4-1.37-1.84-.05-.04-.23-.21-.32-.3-.02-.07-.05-.13-.07-.18-.05-.2-.24-.38-.25-.59,0-.02,0-.05,0-.06-.01-.17-.08-.31-.15-.46-.04-.05-.08-.12-.11-.17-.15-.4-.48-.72-.79-1-.16-.18-.39-.29-.62-.39,0-.01-.01-.05-.02-.07-.06-.23-.04-.5-.14-.72-.03-.21-.14-.39-.24-.57-.02-.03-.04-.08-.11-.14-.17-.28-.38-.6-.65-.8-.18-.18-.4-.33-.63-.42-.23-.1-.5-.15-.67-.33-.07-.2-.18-.4-.25-.63l-.04-.08c-.03-.08-.08-.16-.15-.3-.28-.57-.83-.99-1.44-1.17-.08-.91-.79-1.53-1.43-1.98-.04-.03-.21-.21-.32-.29,0-.07.47-1.01-.89-1.67Z" fill="#f9c316"/>
        </g>
      </g>
    </g>
  </g>
</svg>