<?xml version="1.0" encoding="UTF-8"?>
<svg id="Layer_2" data-name="Layer 2" xmlns="http://www.w3.org/2000/svg" viewBox="0 0 200.7 281.67">
  <g id="Layer_1-2" data-name="Layer 1">
    <g>
      <path d="M100.53,3.03c21.22,0,38.42,17.2,38.42,38.42s-17.2,38.42-38.42,38.42-38.42-17.2-38.42-38.42c0-21.22,17.2-38.42,38.42-38.42h0ZM59.8,177.57l30.52,30.93-22.49,22.49,18.03,18.5,6.14,6.3c10.52,13.9-5.25,30.41-18.95,18.95l-40.01-40.84c-6.06-8.39-7.85-17.49-1.66-27.92l28.41-28.41h0ZM141.24,177.57l-30.5,30.95,22.49,22.49-18.03,18.5-6.14,6.3c-10.52,13.9,5.25,30.41,18.95,18.95l40.01-40.84c6.06-8.39,7.85-17.49,1.66-27.92l-28.44-28.44h0ZM191.9,167.39h0c-6.26,4.51-14.24,2.42-19.56-3.16l-30.66-32.14v29.24H59.29v-29.15l-30.57,32.05c-5.32,5.58-13.32,7.67-19.56,3.16h0c-6.26-4.51-8.68-14.2-3.16-19.56l40.26-39.11c6.55-6.37,19.15-21.44,27.65-21.44h53.94c7.96,0,20.3,14.96,26.93,21.44l40.26,39.11c5.54,5.36,3.09,15.05-3.14,19.56h0Z" fill="#f9c215" fill-rule="evenodd"/>
      <g>
        <g>
          <path d="M138.7,151.16c-.02.09.17.19.45.26.07.02.14.03.22.05-.06.13-.45.26-.24.4.01.01.03.03.05.04.04.04.1.08.23.11.01,0,.03,0,.03,0-.26.11-.53.24-.41.37,0,0,0,.02.04.03.18.12.23.23-.06.36-.12.07-.28.13-.24.21.05.09.14.18.41.26-.42.12-.68.27-.6.42,0,.03.01.07.04.1-.02.09.15.19.45.26.07.02.13.04.22.05-.07.13-.47.26-.26.4.01.01.04.03.06.04h.01c-.38.13-.73.26-.66.4,0,.03.02.07.03.1-.02.09.16.19.45.26.04,0,.09.02.13.03-.19.16-.41.22-.16.42.23.07.03.19-.11.27-.12.07-.29.14-.22.21.03.09.12.19.41.26-.43.12-.69.27-.62.42,0,.03.02.07.03.1-.02.09.16.19.44.26.07.02.14.03.22.05-.06.13-.46.26-.26.4.01.01.02.03.05.04.04.03.1.08.23.1.01,0,.03,0,.03,0-.26.03-.54.02-.43.05,0,0,0,0,.04,0,.18.04.22.08-.07.04-.12-.02-.29-.06-.24-.04.08.03.17.07.4.16-.42-.13-.69-.25-.62-.22l.03.02c.08.05.19.11.44.26.07.04.13.08.22.14-.08-.01-.48-.26-.28-.12.01.01.04.03.06.05h.01s.02.02.02.02c-.12-.06-.32-.22-.24-.14.3.3.74.73.74.73.23.24.57.59.92.95,1.42,1.51,3.14,3.13,3.55,2.99l.21-.05c.32.05.12-.42-.05-.75l.08.06c.35.01.23-.37.03-.71-.01-.03-.05-.13-.07-.18.03,0,.04-.02.06-.03.08-.01.05-.12.17-.11.01,0,.03,0,.03,0,.1,0,.12-.03.17-.07l.02-.06c.13-.08.07-.27.01-.43,0-.09-.12-.21-.24-.33,0,0,.03-.01.03-.01.1-.03.29-.04.34-.1.11-.03.14-.09.17-.16,0-.01.01-.03,0-.06.04-.11.08-.24,0-.38-.02-.1-.1-.21-.23-.31-.12-.1-.3-.2-.31-.29.07-.06.11-.13.21-.19v-.03s.06-.06.09-.11c.14-.2-.02-.49-.38-.62.5-.15.34-.34.12-.49-.01-.01-.04-.06-.07-.09.04,0,.05-.02.07-.03.06-.04.09-.09.18-.13.09-.03.12-.06.17-.09.01-.01.03-.03.03-.04.11-.08.05-.17,0-.25-.02-.05-.14-.09-.26-.14.01,0,.03-.01.03-.01.11-.04.28-.08.34-.13.12-.03.14-.08.17-.12.01,0,.01-.02.02-.03.04-.07.06-.14,0-.2-.04-.05-.11-.1-.24-.14-.1-.05-.29-.09-.31-.14.09-.04.12-.08.21-.13,0,0,.03-.02.01-.02.03-.02.05-.03.07-.06h0c.12-.16-.12-.27-.31-.35.07-.04.03-.08.17-.12h.01c.09-.04.12-.07.16-.1.01-.01.03-.03.03-.04.11-.08.05-.17,0-.25-.02-.04-.11-.12-.24-.17.34-.14.22-.31.01-.45-.01-.01-.05-.06-.08-.08.03-.01.04-.03.05-.04.08-.04.04-.09.16-.12.01,0,.03,0,.03,0,.09-.03.12-.06.16-.09v-.04c.14-.08.08-.17.01-.25-.01-.05-.13-.09-.25-.14,0,0,.02-.01.03-.01.09-.04.28-.08.34-.13.11-.03.14-.08.16-.12,0,0,.01-.02,0-.04.04-.06.07-.14,0-.2-.02-.05-.1-.1-.23-.14-.12-.05-.3-.09-.31-.14.07-.04.11-.08.2-.13v-.02s.06-.03.08-.06c.14-.12-.03-.26-.39-.36.5-.15.33-.34.1-.49-.01-.01-.04-.06-.08-.09.04,0,.05-.02.07-.03.05-.04.08-.09.18-.13.09-.03.06-.21.06-.21.02-.09-.17-.19-.45-.26-.07-.02-.14-.03-.22-.05.06-.13.45-.26.24-.4-.01-.01-.03-.03-.05-.04-.04-.04-.1-.08-.23-.11-.01,0-.03,0-.03,0,.26-.11.53-.24.41-.37,0,0,0-.02-.04-.03-.18-.12-.23-.23.06-.36.12-.07.28-.13.24-.21-.05-.09-.14-.18-.41-.26.42-.12.68-.27.6-.42,0-.03-.01-.07-.04-.1.02-.09-.15-.19-.45-.26-.07-.02-.13-.04-.22-.05.07-.13.47-.26.26-.4-.01-.01-.04-.03-.06-.04h-.01c.38-.13.73-.26.66-.4,0-.03-.02-.07-.03-.1.02-.09-.16-.19-.45-.26-.04,0-.09-.02-.13-.03.19-.16.41-.22.16-.42-.23-.07-.03-.19.11-.27.12-.07.29-.14.22-.21-.03-.09-.12-.19-.41-.26.43-.12.69-.27.62-.42,0-.03-.02-.07-.03-.1.02-.09-.16-.19-.44-.26-.07-.02-.14-.03-.22-.05.06-.13.46-.26.26-.4-.01-.01-.02-.03-.05-.04-.04-.04-.1-.08-.23-.11-.01,0-.03,0-.03,0,.26-.11.54-.24.43-.37,0,0,0-.02-.04-.03-.18-.12-.22-.23.07-.36.12-.07.29-.13.24-.21-.05-.09-.13-.19-.4-.26.42-.12.69-.26.62-.41,0-.03,0-.07-.03-.1.02-.09-.14-.19-.44-.26-.06-.02-.13-.04-.22-.05.08-.13.48-.26.28-.4-.01-.01-.04-.03-.06-.04,0,0-.01,0-.01-.01h-.02c.12-.12.32-.23.24-.36-.19-.3-.74-.41-.74-.41-.23-.06-.57-.12-.92-.16-1.42-.14-3.14.04-3.55.33l-.21.15c-.32.13-.12.31.05.44h-.08c-.35.14-.23.31-.03.45.01.01.05.06.07.09-.03.01-.04.02-.06.04-.08.04-.05.09-.17.12-.01,0-.03,0-.03,0-.1.03-.12.06-.17.09l-.02.04c-.13.08-.07.17-.01.25,0,.05.12.09.24.14,0,0-.03.01-.03.01-.1.04-.29.08-.34.13-.11.03-.14.08-.17.12,0,0-.01.02,0,.04-.04.06-.08.14,0,.2.02.05.1.1.23.14.12.05.3.09.31.14-.07.04-.11.08-.21.13v.02s-.06.03-.09.06c-.14.12.02.26.38.36-.5.15-.34.34-.12.49.01.01.04.06.07.09-.04,0-.05.02-.07.03-.06.04-.09.09-.18.13-.09.03-.12.06-.17.09-.01.01-.03.03-.03.04-.11.08-.05.17,0,.25.02.05.14.09.26.14-.01,0-.03.01-.03.01-.11.04-.28.08-.34.13-.12.03-.14.08-.17.12-.01,0-.01.02-.02.03-.04.07-.06.14,0,.2.04.05.11.1.24.14.1.05.29.09.31.14-.09.04-.12.08-.21.13,0,0-.03.02-.01.02-.03.02-.05.03-.07.06h0c-.12.16.12.27.31.35-.07.04-.03.08-.17.12h-.01c-.09.04-.12.07-.16.1-.01.01-.03.03-.03.04-.11.08-.05.17,0,.25.02.04.11.12.24.17-.34.14-.22.31-.01.45.01.01.05.06.08.08-.03.01-.04.02-.05.04-.08.04-.04.09-.16.12-.01,0-.03,0-.03,0-.09.03-.12.06-.16.09v.04c-.14.08-.08.17-.01.25.01.05.13.09.25.14,0,0-.02.01-.03.01-.09.04-.28.08-.34.13-.11.03-.14.08-.16.12,0,0-.01.02,0,.04-.04.06-.07.14,0,.2.02.05.1.1.23.14.12.05.3.09.31.14-.07.04-.11.08-.2.13v.02s-.06.03-.08.06c-.14.12.03.26.39.36-.5.15-.33.34-.1.49.01.01.04.06.08.09-.04,0-1,.1-.31.38Z" fill="#f9c316"/>
          <path d="M100.2,158.35c-.36-.02-.74.17-1.04.45-.07.07-.15.14-.21.22-.52-.06-1.05-.45-1.6-.24-.05.01-.11.03-.16.05-.15.04-.3.1-.44.23-.01.01-.02.03-.03.03-.46-.26-.97-.53-1.47-.41-.03,0-.09,0-.12.04-.49.18-.93.23-1.43-.06-.28-.12-.54-.28-.85-.24-.36.05-.74.14-1.05.41-.5-.42-1.07-.68-1.67-.6-.14,0-.27.01-.4.04-.37-.02-.75.15-1.04.45-.08.07-.15.13-.21.22-.52-.07-1.04-.47-1.61-.26-.04.01-.1.04-.15.06-.01,0-.03.01-.05.01-.47-.38-1.01-.73-1.57-.66-.14,0-.27.02-.4.03-.37-.02-.75.16-1.04.45-.05.04-.09.09-.13.13-.63-.19-.89-.41-1.68-.16-.28.23-.78.03-1.09-.11-.28-.12-.55-.29-.85-.22-.37.03-.75.12-1.06.41-.5-.43-1.07-.69-1.67-.62-.13,0-.27.02-.4.03-.36-.02-.74.16-1.04.44-.07.06-.15.14-.21.22-.52-.06-1.05-.46-1.6-.26-.05.01-.11.02-.16.05-.15.04-.3.1-.44.23-.01.01-.02.03-.03.03-.46-.26-.97-.54-1.47-.43-.03,0-.09,0-.12.04-.49.18-.94.22-1.43-.07-.28-.12-.54-.29-.85-.24-.36.05-.74.13-1.05.4-.5-.42-1.06-.69-1.67-.62-.14,0-.27,0-.4.03-.37-.02-.75.14-1.04.44-.08.06-.15.13-.21.22-.52-.08-1.04-.48-1.61-.28-.04.01-.1.04-.15.06-.01,0-.03.01-.05.01v.02s-.35-.1-.35-.1l-.08-.03v-.03s-.02-.05-.02-.05c-.02-.06-.02-.09-.06-.04-.12.19-.7.74-.7.74-.25.23-.64.57-1.05.92-.83.71-1.7,1.49-2.02,2.15-.34.66-.09,1.19.72,1.4l.85.21c.37.16.9.19,1.42.16.26-.02.52-.05.76-.08.23-.04.31-.08.46-.13v.08c.58.35,1.24.23,1.8.03.05-.01.24-.05.34-.07.05.03.1.04.15.06.15.08.35.05.49.17,0,.01.03.03.04.03.11.1.23.12.36.17.05,0,.11.01.16.02.32.13.68.07,1,.01.19,0,.37-.12.55-.24,0,0,.04.02.05.03.17.1.33.29.52.34.14.11.31.14.47.17.03,0,.07.01.14,0,.26.04.56.08.82,0,.2-.02.4-.1.58-.23.18-.12.34-.3.55-.31.16.07.34.11.52.21h.07c.06.04.14.06.26.09.5.14,1.03-.02,1.46-.38.62.5,1.36.34,1.98.12.04-.01.24-.04.34-.07.04.04.09.05.14.07.18.06.37.09.53.18.11.09.23.12.36.17.05.01.11.03.17.03.31.11.67.05.99,0,.2-.02.37-.14.54-.26,0,.01.04.03.05.03.18.11.33.28.52.34.14.12.32.14.48.17.02.01.06.01.13.02.27.04.56.06.82,0,.2-.04.4-.11.57-.24.18-.1.34-.29.54-.31.16.09.33.12.52.21,0,0,.07.03.07.01.07.03.14.06.23.07h.04c.62.12,1.05-.12,1.36-.31.15.07.34.03.48.17,0,0,.03.01.04.01.11.09.23.12.36.16.05.01.11.03.17.03.31.11.67.05.99,0,.15-.02.48-.11.69-.24.58.34,1.24.22,1.8.01.05-.01.24-.05.34-.08.05.03.1.04.15.05.15.08.35.04.49.16.01.01.03.03.04.03.11.09.23.12.36.16.05,0,.11.01.16.01.32.12.68.06,1,0,.19-.01.37-.13.54-.25,0,0,.04.02.05.03.17.09.33.28.52.34.14.11.31.14.47.16.03,0,.07.01.14,0,.26.04.56.07.82,0,.2-.02.4-.1.57-.23.18-.12.34-.3.54-.31.16.07.34.11.52.2h.07c.06.04.14.06.26.08.5.14,1.03-.03,1.46-.39.62.5,1.36.33,1.98.1.04-.01.24-.04.34-.08.04.04.09.05.14.07.18.05.37.08.53.18.11.09.86.06.86.06.36.02.74-.17,1.04-.45.07-.07.15-.14.21-.22.52.06,1.05.45,1.6.24.05-.01.11-.03.16-.05.15-.04.3-.1.44-.23.01-.01.02-.03.03-.03.46.26.97.53,1.47.41.03,0,.09,0,.12-.04.49-.18.93-.23,1.43.06.28.12.54.28.85.24.36-.05.74-.14,1.05-.41.5.42,1.07.68,1.67.6.14,0,.27-.01.4-.04.37.02.75-.15,1.04-.45.08-.07.15-.13.21-.22.52.07,1.04.47,1.61.26.04-.01.1-.04.15-.06.01,0,.03-.01.05-.01.47.38,1.01.73,1.57.66.14,0,.27-.02.4-.03.37.02.75-.16,1.04-.45.05-.04.09-.09.13-.13.63.19.89.41,1.68.16.28-.23.78-.03,1.09.11.28.12.55.29.85.22.37-.03.75-.12,1.06-.41.5.43,1.07.69,1.67.62.13,0,.27-.02.4-.03.36.02.74-.16,1.04-.44.07-.06.15-.14.21-.22.52.06,1.05.46,1.6.26.05-.01.11-.02.16-.05.15-.04.3-.1.44-.23.01-.01.02-.03.03-.03.46.26.97.54,1.47.43.03,0,.09,0,.12-.04.49-.18.94-.22,1.43.07.28.12.54.29.85.24.36-.05.74-.13,1.05-.4.5.42,1.06.69,1.67.62.14,0,.27,0,.4-.03.37.02.75-.14,1.04-.44.08-.06.15-.13.21-.22.52.08,1.04.48,1.61.28.04-.01.1-.04.15-.06.01,0,.03-.01.05-.01v-.02s.35.1.35.1l.09.03.17.03.34.05c.46.06.95.09,1.46.04,2.26-.19,2.6-.74,2.6-.74.27-.23.35-.57.21-.92-.28-.71-1.23-1.49-2.05-2.15-.85-.66-1.52-1.19-1.88-1.4-.13-.07-.24-.14-.34-.21-.16-.16-.25-.19-.35-.16-.05.02-.1.05-.15.08-.07.04-.27.08-.38.13v-.08c-.58-.35-1.24-.23-1.8-.03-.05.01-.24.05-.34.07-.05-.03-.1-.04-.15-.06-.15-.08-.35-.05-.49-.17,0-.01-.03-.03-.04-.03-.11-.1-.23-.12-.36-.17-.05,0-.11-.01-.16-.02-.32-.13-.68-.07-1-.01-.19,0-.37.12-.55.24,0,0-.04-.02-.05-.03-.17-.1-.33-.29-.52-.34-.14-.11-.31-.14-.47-.17-.03,0-.07-.01-.14,0-.26-.04-.56-.08-.82,0-.2.02-.4.1-.58.23-.18.12-.34.3-.55.31-.16-.07-.34-.11-.52-.21h-.07c-.06-.04-.14-.06-.26-.09-.5-.14-1.03.02-1.46.38-.62-.5-1.36-.34-1.98-.12-.04.01-.24.04-.34.07-.04-.04-.09-.05-.14-.07-.18-.06-.37-.09-.53-.18-.11-.09-.23-.12-.36-.17-.05-.01-.11-.03-.17-.03-.31-.11-.67-.05-.99,0-.2.02-.37.14-.54.26,0-.01-.04-.03-.05-.03-.18-.11-.33-.28-.52-.34-.14-.12-.32-.14-.48-.17-.02-.01-.06-.01-.13-.02-.27-.04-.56-.06-.82,0-.2.04-.4.11-.57.24-.18.1-.34.29-.54.31-.16-.09-.33-.12-.52-.21,0,0-.07-.03-.07-.01-.07-.03-.14-.05-.23-.07h-.04c-.62-.12-1.05.12-1.36.31-.15-.07-.34-.03-.48-.17,0,0-.03-.01-.04-.01-.11-.09-.23-.12-.36-.16-.05-.01-.11-.03-.17-.03-.31-.11-.67-.05-.99,0-.15.02-.48.11-.69.24-.58-.34-1.24-.22-1.8-.01-.05.01-.24.05-.34.08-.05-.03-.1-.04-.15-.05-.15-.08-.35-.04-.49-.16-.01-.01-.03-.03-.04-.03-.11-.09-.23-.12-.36-.16-.05,0-.11-.01-.16-.01-.32-.12-.68-.06-1,0-.19.01-.37.13-.54.25,0,0-.04-.02-.05-.03-.17-.09-.33-.28-.52-.34-.14-.11-.31-.14-.47-.16-.03,0-.07-.01-.14,0-.26-.04-.56-.07-.82,0-.2.02-.4.1-.57.23-.18.12-.34.3-.54.31-.16-.07-.34-.11-.52-.2h-.07c-.06-.04-.14-.06-.26-.08-.5-.14-1.03.03-1.46.39-.62-.5-1.36-.33-1.98-.1-.04.01-.24.04-.34.08-.04-.04-.41-1-1.53-.31Z" fill="#f9c316"/>
          <path d="M62.27,151.06c.02-.09-.17-.18-.45-.26-.07-.02-.14-.03-.22-.05.06-.13.45-.26.24-.4-.01-.01-.03-.03-.05-.04-.04-.04-.1-.07-.23-.11-.01,0-.03,0-.03,0,.26-.11.53-.24.41-.36,0,0,0-.02-.04-.03-.18-.12-.23-.23.06-.36.12-.07.28-.13.24-.21-.05-.09-.14-.18-.41-.26.42-.12.68-.26.6-.41,0-.03-.01-.07-.04-.1.02-.09-.15-.19-.45-.26-.07-.02-.13-.04-.22-.05.07-.13.47-.26.26-.4-.01-.01-.04-.03-.06-.04h-.01c.38-.13.73-.26.66-.4,0-.03-.02-.07-.03-.1.02-.09-.16-.19-.45-.26-.04,0-.09-.02-.13-.03.19-.16.41-.22.16-.42-.23-.07-.03-.19.11-.27.12-.07.29-.14.22-.21-.03-.09-.12-.19-.41-.26.43-.12.69-.26.62-.41,0-.03-.02-.07-.03-.1.02-.09-.16-.18-.44-.26-.07-.02-.14-.03-.22-.05.06-.13.46-.26.26-.4-.01-.01-.02-.03-.05-.04-.04-.04-.1-.07-.23-.11-.01,0-.03,0-.03,0,.26-.11.54-.24.43-.36,0,0,0-.02-.04-.03-.18-.12-.22-.23.07-.36.12-.07.29-.13.24-.21-.05-.09-.13-.18-.4-.26.42-.12.69-.26.62-.41,0-.03,0-.07-.03-.1.02-.09-.14-.19-.44-.26-.06-.02-.13-.04-.22-.05.08-.13.48-.26.28-.4-.01-.01-.04-.03-.06-.04h-.01s-.02-.01-.02-.01c.12-.12.32-.23.24-.36-.19-.3-.74-.41-.74-.41-.23-.06-.57-.12-.92-.16-1.42-.14-3.14.04-3.55.33l-.21.15c-.32.13-.12.31.05.44h-.08c-.35.14-.23.31-.03.45.01.01.05.06.07.08-.03.01-.04.02-.06.04-.08.04-.05.09-.17.12-.01,0-.03,0-.03,0-.1.03-.12.06-.17.09l-.02.04c-.13.08-.07.17-.01.25,0,.05.12.09.24.14,0,0-.03.01-.03.01-.1.04-.29.08-.34.13-.11.03-.14.08-.17.12,0,0-.01.02,0,.03-.04.06-.08.14,0,.2.02.05.1.1.23.14.12.05.3.09.31.14-.07.04-.11.08-.21.13v.02s-.06.03-.09.06c-.14.12.02.26.38.36-.5.15-.34.34-.12.49.01.01.04.06.07.08-.04,0-.05.02-.07.03-.06.04-.09.09-.18.13-.09.03-.12.06-.17.09-.01.01-.03.03-.03.04-.11.08-.05.17,0,.25.02.05.14.09.26.13-.01,0-.03.01-.03.01-.11.04-.28.08-.34.13-.12.03-.14.08-.17.12-.01,0-.01.02-.02.03-.04.07-.06.14,0,.2.04.05.11.1.24.14.1.05.29.09.31.14-.09.04-.12.08-.21.13,0,0-.03.02-.01.02-.03.02-.05.03-.07.06h0c-.12.16.12.27.31.35-.07.04-.03.08-.17.12h-.01c-.09.04-.12.07-.16.1-.01.01-.03.03-.03.04-.11.08-.05.17,0,.25.02.04.11.12.24.17-.34.14-.22.31-.01.45.01.01.05.06.08.08-.03.01-.04.02-.05.04-.08.04-.04.09-.16.12-.01,0-.03,0-.03,0-.09.03-.12.06-.16.09v.04c-.14.08-.08.17-.01.25.01.05.13.09.25.13,0,0-.02.01-.03.01-.09.04-.28.08-.34.13-.11.03-.14.08-.16.12,0,0-.01.02,0,.03-.04.06-.07.14,0,.2.02.05.1.1.23.14.12.04.3.08.31.13-.07.04-.11.08-.2.13v.02s-.06.03-.08.06c-.14.12.03.26.39.36-.5.15-.33.34-.1.49.01.01.04.06.08.08-.04,0-.05.02-.07.03-.05.04-.08.09-.18.13-.09.03-.06.21-.06.21-.02.09.17.18.45.26.07.02.14.03.22.05-.06.13-.45.26-.24.4.01.01.03.03.05.04.04.04.1.07.23.11.01,0,.03,0,.03,0-.26.11-.53.24-.41.36,0,0,0,.02.04.03.18.12.23.23-.06.36-.12.07-.28.13-.24.21.05.09.14.18.41.26-.42.12-.68.26-.6.41,0,.03.01.07.04.1-.02.09.15.19.45.26.07.02.13.04.22.05-.07.13-.47.26-.26.4.01.01.04.03.06.04h.01c-.38.13-.73.26-.66.4,0,.03.02.07.03.1-.02.09.16.19.45.26.04,0,.09.02.13.03-.19.16-.41.22-.16.42.23.07.03.19-.11.27-.12.07-.29.14-.22.21.03.09.12.19.41.26-.43.12-.69.26-.62.41,0,.03.02.07.03.1-.02.09.16.18.44.26.07.02.14.03.22.05-.06.13-.46.26-.26.4.01.01.02.03.05.04.04.05.1.06.23.13.01,0,.03.01.03.01-.26.2-.54.46-.43.68,0,.01,0,.04.04.05.18.21.22.38-.07.67-.12.16-.29.32-.24.46.05.16.13.32.4.36-.42.37-.69.78-.62,1.05,0,.07,0,.13.03.18-.02.19.14.3.44.26.06,0,.13,0,.22-.03-.08.27-.48.78-.28.91.01.01.04.02.06.03,0,0,.01,0,.01.01h.02c-.12.28-.32.67-.24.86.19.42.74.08.74.08.23-.11.57-.34.92-.64,1.42-1.24,3.14-3.21,3.55-3.65l.21-.24c.32-.32.12-.19-.05-.12l.08-.06c.35-.3.23-.25.03-.18-.01,0-.05,0-.07.01.03-.02.04-.03.06-.05.08-.06.05-.06.17-.13.01,0,.03-.02.03-.02.09-.06.12-.08.17-.11l.02-.02c.13-.08.07-.07.01-.07,0,0-.12.03-.24.06,0,0,.02-.01.03-.01.1-.05.27-.12.34-.16.11-.04.14-.06.17-.08,0,0,.01,0,0,0,.04-.02.08-.04,0-.03-.02,0-.1,0-.23.02-.12.01-.3.03-.31.02.07-.02.11-.04.21-.07h.01s.04-.02.07-.03c.14-.05-.02-.04-.38-.09.5-.15.34-.34.12-.49-.01-.01-.04-.06-.07-.08.04,0,.05-.02.07-.03.06-.04.09-.09.18-.13.09-.03.12-.06.17-.09.01-.01.03-.03.03-.04.11-.08.05-.17,0-.25-.02-.05-.14-.09-.26-.13.01,0,.03-.01.03-.01.11-.04.28-.08.34-.13.12-.03.14-.08.17-.12.01,0,.01-.02.02-.03.04-.07.06-.14,0-.2-.04-.05-.11-.1-.24-.14-.1-.05-.29-.09-.31-.14.09-.04.12-.08.21-.13,0,0,.03-.02.01-.02.03-.02.05-.03.07-.06h0c.12-.16-.12-.27-.31-.35.07-.04.03-.08.17-.12h.01c.09-.04.12-.07.16-.1.01-.01.03-.03.03-.04.11-.08.05-.17,0-.25-.02-.04-.11-.12-.24-.17.34-.14.22-.31.01-.45-.01-.01-.05-.06-.08-.08.03-.01.04-.02.05-.04.08-.04.04-.09.16-.12.01,0,.03,0,.03,0,.09-.03.12-.06.16-.09v-.04c.14-.08.08-.17.01-.25-.01-.05-.13-.09-.25-.13,0,0,.02-.01.03-.01.09-.04.28-.08.34-.13.11-.03.14-.08.16-.12,0,0,.01-.02,0-.03.04-.06.07-.14,0-.2-.02-.05-.1-.1-.23-.14-.12-.04-.3-.09-.31-.13.07-.04.11-.08.2-.13v-.02s.06-.03.08-.06c.14-.12-.03-.26-.39-.36.5-.15.33-.34.1-.49-.01-.01-.04-.06-.08-.08.04,0,1-.1.31-.38Z" fill="#f9c316"/>
          <path d="M6.57,159.05c-.15-.44-.45-.86-.81-1.17-.09-.08-.19-.16-.29-.23-.07-.71.23-1.42.02-2.11-.02-.06-.03-.14-.06-.21-.05-.19-.08-.38-.2-.58-.01-.01-.02-.03-.02-.04.28-.59.68-1.13.72-1.74.01-.03.04-.1,0-.15-.02-.63.21-1.15.72-1.53.3-.2.58-.36.74-.67.12-.17.24-.34.33-.54.05-.1.08-.2.12-.31.05-.12.11-.26.15-.39.86-.26,1.7-.71,2.34-1.43.16-.16.3-.31.44-.47.44-.4.76-.95.88-1.48.05-.14.08-.26.09-.4.65-.53,1.52-.83,2.04-1.61.04-.05.09-.14.13-.21.01-.01.03-.04.05-.07.8-.25,1.67-.6,2.26-1.28.16-.16.3-.32.44-.47.44-.4.75-.96.88-1.48.03-.08.04-.17.06-.24.86-.56,1.31-.7,2.04-1.77.16-.48.88-.89,1.33-1.14.41-.22.83-.41,1.13-.79.4-.44.78-.93.93-1.47.87-.25,1.71-.69,2.35-1.42.15-.14.3-.32.44-.47.43-.39.74-.94.88-1.48.04-.13.08-.27.09-.4.64-.54,1.52-.84,2.02-1.61.05-.06.11-.14.15-.22.15-.19.28-.41.35-.66,0-.02,0-.04.02-.05.71-.32,1.48-.7,1.99-1.34.04-.03.1-.1.11-.16.44-.68.92-1.2,1.69-1.55.41-.22.82-.39,1.14-.78.38-.44.76-.93.92-1.46.86-.25,1.7-.69,2.35-1.41.16-.15.31-.31.44-.47.44-.4.77-.94.89-1.47.05-.14.09-.26.09-.4.65-.52,1.52-.82,2.04-1.6.04-.05.09-.14.13-.21.01-.01.03-.04.05-.06h-.01c.62-.46,1.3-.82,1.85-1.48,1.24-1.47,1.38-2.37,1.38-2.37.14-.45.18-.96.09-1.37-.36-1.63-2.37-2.08-3.99-1.08l-.83.51c-.84.37-1.5,1.29-1.99,2l-.05-.06c-.9.4-1.59,1.22-2.09,1.99-.05.06-.24.31-.34.43-.08.04-.14.08-.21.13-.23.11-.44.36-.68.42-.02,0-.05.01-.06.02-.19.05-.35.17-.53.28-.06.05-.14.11-.2.17-.46.27-.83.71-1.16,1.11-.21.22-.34.51-.46.78-.01,0-.06.03-.08.04-.26.12-.58.16-.83.33-.24.08-.45.25-.66.4-.04.03-.09.07-.16.16-.33.26-.7.57-.95.92-.22.24-.39.52-.5.81-.13.29-.19.6-.41.83-.23.13-.47.3-.74.43l-.09.07c-.09.05-.19.13-.35.24-.67.46-1.18,1.17-1.41,1.91-1.06.33-1.81,1.27-2.35,2.12-.04.05-.25.29-.34.43-.07.02-.14.06-.21.11-.25.16-.49.35-.74.46-.19.05-.35.17-.53.28-.07.05-.15.1-.22.17-.43.27-.81.71-1.15,1.11-.21.24-.33.52-.45.79-.02,0-.06.03-.08.04-.28.12-.58.16-.83.34-.24.07-.46.26-.67.42-.03.01-.08.06-.16.13-.34.27-.69.58-.95.92-.21.25-.38.53-.49.82-.14.28-.2.59-.41.83-.25.11-.47.28-.74.43,0,0-.1.06-.09.07-.1.06-.2.12-.31.21l-.05.04c-.79.61-1.12,1.25-1.34,1.74-.22.12-.41.36-.67.42-.01,0-.04.03-.06.03-.19.05-.35.17-.53.28-.07.05-.15.1-.22.17-.43.27-.81.72-1.14,1.11-.16.19-.48.62-.63.95-.9.4-1.58,1.23-2.07,2-.05.06-.24.31-.34.44-.08.04-.14.08-.21.13-.23.11-.43.36-.68.43-.02,0-.05.01-.06.03-.19.06-.35.17-.53.29-.06.05-.13.12-.19.17-.45.27-.83.72-1.15,1.12-.21.22-.34.51-.45.78-.01,0-.06.03-.08.04-.27.13-.56.14-.85.36-.27.14-.54.39-.79.63-.04.05-.11.1-.2.22-.42.37-.77.93-1.03,1.43-.23.36-.35.79-.39,1.17-.06.4-.04.77-.19,1.15-.17.28-.33.62-.53.94l-.06.13c-.06.11-.14.26-.22.5-.17.48-.27,1.01-.29,1.52.01.51.12,1,.27,1.42-.3.6-.32,1.27-.29,1.95.08.66.27,1.31.49,1.86.03.07.14.44.22.62-.02.08-.01.18,0,.28.03.35.09.71.11,1.02-.03.23.48,1.58.51,1.56.27.64.72,1.23,1.26,1.56.12.08.26.17.39.23.2.44.37.9.6,1.35.21.46.47.9.9,1.22.07.06.15.14.23.2.21.19.43.37.71.46.02,0,.05,0,.06.02.21.39.44.8.72,1.19.28.38.65.7,1.06.96.04.04.13.11.2.11.88.39,1.56.82,2.31,1.49.21.18.42.36.64.52.23.15.49.27.78.36.68.23,1.44.33,2.07.2.83.62,1.96,1.04,3.16.99.28.02.54,0,.79-.04.36,0,.73-.06,1.07-.16.33-.12.64-.28.88-.47.14-.09.26-.17.36-.28.96-.1,2.02.03,2.97-.52.07-.04.17-.1.25-.15.02,0,.05-.03.08-.05.47.01.97,0,1.49-.09.5-.1,1-.29,1.45-.56.24-.12.43-.28.63-.42.3-.18.58-.4.82-.64.22-.26.41-.54.53-.8.05-.09.08-.17.12-.25.53-.25.89-.45,1.26-.7.38-.25.73-.58,1.15-1.18.23-.55.91-.97,1.36-1.23.4-.24.81-.44,1.1-.83.39-.45.75-.96.87-1.51.86-.28,1.68-.76,2.3-1.5.15-.15.28-.33.42-.49.41-.4.71-.97.83-1.51.03-.13.06-.27.08-.4.62-.56,1.49-.9,1.96-1.68.05-.07.1-.14.14-.22.14-.2.26-.42.32-.67,0-.02,0-.04.01-.05.7-.35,1.46-.75,1.93-1.41.03-.03.1-.1.11-.17.42-.69.87-1.24,1.63-1.62.4-.24.8-.42,1.11-.82.37-.45.73-.95.87-1.49.85-.28,1.67-.76,2.29-1.5.16-.16.29-.32.42-.49.43-.41.73-.97.83-1.51.04-.14.08-.27.08-.4.63-.55,1.49-.87,1.98-1.68.04-.06.08-.14.12-.22.01-.01.02-.04.05-.07h-.01c.61-.48,1.26-.87,1.79-1.55,1.18-1.51,1.29-2.42,1.29-2.42.12-.46.14-.97.03-1.37-.42-1.61-2.44-1.99-4.03-.92l-.81.54c-.82.4-1.45,1.35-1.91,2.08l-.05-.05c-.89.43-1.54,1.28-2.01,2.06-.05.07-.23.31-.33.45-.08.04-.14.09-.21.14-.23.12-.42.37-.67.45-.02,0-.05.02-.06.03-.19.06-.34.18-.52.3-.06.05-.13.12-.19.17-.45.28-.81.74-1.12,1.16-.2.23-.32.52-.43.8-.01,0-.06.03-.07.04-.26.13-.57.18-.82.36-.23.09-.44.26-.64.43-.03.03-.09.07-.16.16-.32.27-.68.6-.91.95-.21.25-.37.54-.47.82-.12.29-.17.61-.38.85-.23.14-.46.32-.73.46l-.09.07c-.09.05-.19.13-.34.25-.66.48-1.13,1.21-1.34,1.96-1.05.37-1.76,1.34-2.27,2.21-.04.06-.24.3-.33.45-.07.02-.14.07-.2.11-.24.17-.47.37-.72.49-.19.06-.34.18-.52.3-.07.05-.14.11-.21.18-.42.28-.78.74-1.1,1.15-.21.25-.31.53-.42.81-.02,0-.06.03-.07.04-.28.13-.57.19-.82.37-.24.08-.45.28-.65.44-.03.01-.08.06-.16.14-.33.28-.67.61-.91.96-.2.26-.36.55-.46.83-.12.28-.18.61-.36.81-.23.09-.42.23-.66.36,0,0-.09.05-.08.06-.09.05-.17.1-.28.16l-.04.03c-.71.48-1.03,1-1.28,1.41-.2.07-.4.25-.64.23-.01,0-.04.01-.05.02-.18,0-.33.06-.5.12-.06.02-.14.05-.21.1-.42.1-.81.38-1.18.61-.17.1-.54.35-.76.58-.42-.02-.83.04-1.21.19-.39.1-.75.28-1.09.45-.06.02-.3.1-.43.14-.07-.02-.14-.02-.2-.03-.2-.04-.46.02-.64-.1-.01-.01-.04-.03-.05-.02-.14-.09-.3-.11-.46-.14-.06,0-.14,0-.2,0-.39-.15-.83-.08-1.23-.08-.23-.03-.47.06-.7.14-.01,0-.05-.03-.06-.04-.19-.13-.33-.38-.54-.49-.13-.15-.33-.2-.49-.31-.03-.01-.07-.04-.15-.06-.27-.16-.6-.28-.9-.37-.22-.09-.47-.13-.73-.1-.25-.01-.51.02-.74-.1-.13-.17-.31-.31-.43-.54l-.06-.07c-.04-.07-.11-.14-.21-.26-.21-.25-.46-.44-.73-.63-.27-.18-.6-.28-.91-.38-.16-.94-.85-1.57-1.45-2.17-.04-.04-.19-.26-.29-.36,0-.09.6-.89-.53-1.95Z" fill="#f9c316"/>
          <path d="M101.11,90.27c.58.02,1.19-.17,1.66-.45.11-.07.24-.14.34-.22.84.06,1.68.45,2.57.24.08-.01.18-.03.26-.05.24-.04.48-.1.71-.23.02-.01.03-.03.05-.03.74.26,1.55.53,2.36.41.05,0,.14,0,.19-.04.79-.18,1.5-.23,2.3.06.45.12.86.28,1.36.24.58-.05,1.19-.14,1.68-.41.8.42,1.71.68,2.68.6.23,0,.43-.01.64-.04.59.02,1.21-.15,1.66-.45.13-.07.24-.13.34-.22.83.07,1.67.47,2.58.26.06-.01.16-.04.24-.06.02,0,.05-.01.08-.01.75.38,1.61.73,2.52.66.23,0,.43-.02.64-.03.59.02,1.21-.16,1.66-.45.08-.04.15-.09.21-.13.62.23.8.47,1.78.49.4-.12.95.32,1.26.62.29.27.53.58.92.73.46.22.97.42,1.5.43.37.75.89,1.44,1.65,1.92.15.12.33.22.49.34.41.35.97.57,1.5.64.12.02.27.04.39.04.57.57.92,1.39,1.69,1.82.07.04.14.1.22.13.2.13.41.24.66.3.02,0,.04,0,.05.01.35.68.73,1.42,1.37,1.89.03.03.1.1.16.1.68.41,1.2.87,1.55,1.63.22.4.39.8.77,1.12.43.37.92.75,1.45.9.25.86.68,1.69,1.39,2.34.15.16.3.31.46.44.39.44.93.77,1.47.9.14.05.26.09.4.1.52.66.81,1.54,1.6,2.07.05.04.14.09.22.13.01.01.04.03.07.05h.01c.45.62.84,1.3,1.54,1.88,1.51,1.21,2.42,1.32,2.42,1.32.45.12.97.15,1.37.05,1.62-.41,2.01-2.42.96-4.02l-.53-.81c-.39-.82-1.28-1.43-1.99-1.92l.06-.05c-.39-.89-1.2-1.58-1.96-2.08-.06-.05-.3-.24-.43-.35-.04-.08-.08-.14-.12-.21-.1-.23-.35-.44-.42-.69,0-.02-.01-.05-.02-.07-.05-.19-.16-.35-.28-.53-.05-.06-.11-.14-.17-.2-.26-.46-.71-.84-1.11-1.18-.22-.22-.51-.35-.78-.47,0-.01-.03-.06-.04-.08-.12-.26-.16-.58-.34-.84-.08-.24-.25-.46-.41-.66-.03-.04-.07-.09-.16-.17-.27-.33-.59-.7-.94-.96-.25-.22-.54-.39-.83-.5-.29-.13-.61-.18-.85-.41-.14-.23-.32-.47-.46-.74l-.07-.09c-.05-.09-.14-.19-.26-.35-.49-.67-1.25-1.16-2.01-1.36-.4-1.06-1.45-1.76-2.37-2.25-.06-.04-.33-.23-.49-.31-.03-.07-.08-.14-.14-.2-.2-.24-.42-.46-.58-.7-.09-.19-.23-.34-.38-.51-.06-.06-.13-.14-.21-.2-.36-.41-.88-.74-1.37-1.01-.3-.18-.6-.26-.92-.32,0-.02-.04-.06-.06-.07-.2-.26-.32-.55-.58-.78-.15-.23-.42-.41-.65-.59-.02-.03-.08-.07-.19-.13-.42-.27-.86-.56-1.34-.71-.36-.13-.72-.23-1.09-.23-.37-.04-.7,0-1.08-.09-.27-.18-.55-.34-.92-.51,0,0-.13-.06-.14-.05-.13-.06-.26-.12-.44-.18l-.08-.02c-.64-.18-1.21-.24-1.73-.18-.56.03-.76.16-1.04.25-.24-.07-.55-.03-.77-.17-.02,0-.05-.01-.06-.01-.18-.09-.37-.12-.58-.16-.08-.01-.18-.03-.27-.03-.5-.11-1.08-.05-1.59,0-.24.02-.77.11-1.11.24-.93-.34-1.99-.22-2.88-.01-.08.01-.39.05-.55.08-.08-.03-.16-.04-.24-.05-.24-.08-.56-.04-.79-.16-.02-.01-.05-.03-.06-.03-.18-.09-.37-.12-.58-.16-.08,0-.18-.01-.26-.01-.51-.12-1.09-.06-1.61,0-.31.01-.6.13-.87.25-.01,0-.07-.02-.08-.03-.27-.09-.53-.28-.83-.34-.22-.11-.5-.14-.75-.16-.05,0-.11-.01-.23,0-.42-.04-.9-.07-1.32,0-.32.02-.64.1-.92.23-.29.12-.55.3-.87.31-.26-.07-.55-.11-.83-.2h-.11c-.1-.04-.22-.06-.42-.08-.8-.14-1.66.03-2.34.39-.99-.5-2.19-.33-3.17-.1-.06.01-.39.04-.55.08-.06-.04-.14-.05-.22-.07-.29-.05-.59-.08-.85-.18-.18-.09-1.37-.06-1.37-.06-.58-.02-1.19.17-1.66.45-.11.07-.24.14-.34.22-.84-.06-1.68-.45-2.57-.24-.08.01-.18.03-.26.05-.24.04-.48.1-.71.23-.02.01-.03.03-.05.03-.74-.26-1.55-.53-2.36-.41-.05,0-.14,0-.19.04-.79.18-1.5.23-2.3-.06-.45-.12-.86-.28-1.36-.24-.58.05-1.19.14-1.68.41-.8-.42-1.71-.68-2.68-.6-.23,0-.43.01-.64.04-.59-.02-1.21.15-1.66.45-.13.07-.24.13-.34.22-.83-.07-1.67-.47-2.58-.26-.06.01-.16.04-.24.06-.02,0-.05.01-.08.01-.75-.38-1.61-.73-2.52-.66-.23,0-.43.02-.64.03-.3,0-.6.03-.88.11-.28.08-.53.19-.87.35-.11.04-.19.1-.28.15-1.33-.08-1.97-.18-3.36.54-.44.39-1.38.55-1.95.67-.53.1-1.03.19-1.49.5-.57.36-1.12.78-1.4,1.31-.97.09-1.94.45-2.74,1.12-.19.13-.36.29-.53.44-.51.36-.91.9-1.11,1.43-.05.13-.11.27-.14.4-.71.5-1.64.77-2.2,1.53-.05.06-.12.14-.17.21-.16.19-.31.41-.39.66,0,.02,0,.04-.02.05-.73.31-1.54.68-2.06,1.33-.04.03-.11.1-.12.16-.47.69-.95,1.22-1.74,1.58-.41.23-.83.41-1.16.81-.39.45-.76.95-.91,1.49-.86.28-1.7.75-2.33,1.5-.16.16-.3.32-.43.49-.43.41-.74.97-.84,1.51-.04.14-.08.26-.08.4-.64.55-1.49.86-1.98,1.65-.04.05-.08.14-.12.21-.01.01-.02.04-.05.06h.01c-.6.46-1.26.83-1.78,1.46-1.22,1.45-1.37,2.37-1.37,2.37-.14.45-.18.96-.09,1.37.36,1.63,2.37,2.08,3.99,1.08l.83-.51c.84-.37,1.53-1.34,2-2.07l.05.05c.9-.43,1.56-1.28,2.04-2.06.05-.07.23-.31.33-.45.08-.04.14-.09.21-.13.23-.11.42-.37.67-.45.02,0,.05-.01.06-.03.19-.06.34-.18.52-.3.06-.05.13-.12.19-.17.45-.28.81-.73,1.12-1.14.21-.22.33-.51.44-.79.01,0,.06-.03.07-.04.26-.12.57-.17.82-.35.23-.08.44-.25.64-.41.03-.03.09-.07.16-.16.32-.26.68-.57.92-.91.21-.24.38-.51.49-.8.12-.28.18-.59.4-.82.23-.12.46-.29.73-.41l.09-.06c.09-.04.19-.12.35-.23.67-.43,1.17-1.11,1.42-1.83,1.05-.27,1.81-1.13,2.4-1.91.04-.05.27-.26.36-.39.07,0,.14-.04.21-.08.25-.13.5-.29.75-.36.19-.03.35-.11.53-.2.07-.03.15-.08.22-.13.44-.18.84-.56,1.21-.86.23-.18.38-.43.53-.67.02,0,.06,0,.08-.02.28-.05.56-.02.82-.12.23,0,.46-.11.67-.2.03,0,.08-.03.17-.08.35-.15.71-.32,1-.53.23-.14.44-.33.6-.55.18-.18.31-.43.56-.56.23.02.44-.01.7,0,0,0,.09,0,.09-.01.09,0,.18.02.28,0h.05c.38-.06.64-.1.88-.22.23-.07.38-.2.61-.3.24.07.55.03.77.17.02,0,.05.01.06.01.18.09.37.12.58.16.08.01.18.03.27.03.5.11,1.08.05,1.59,0,.24-.02.77-.11,1.11-.24.93.34,1.99.22,2.88.01.08-.01.39-.05.55-.08.08.03.16.04.24.05.24.08.56.04.79.16.02.01.05.03.06.03.18.09.37.12.58.16.08,0,.18.01.26.01.51.12,1.09.06,1.61,0,.31-.01.6-.13.87-.25.01,0,.07.02.08.03.27.09.53.28.83.34.22.11.5.14.75.16.05,0,.11.01.23,0,.42.04.9.07,1.32,0,.32-.02.64-.1.92-.23.29-.12.55-.3.87-.31.26.07.55.11.83.2h.11c.1.04.22.06.42.08.8.14,1.66-.03,2.34-.39.99.5,2.19.33,3.17.1.06-.01.39-.04.55-.08.06.04.66,1,2.45.31Z" fill="#f9c316"/>
          <path d="M194.18,159.84c-.2.42-.24.95-.2,1.43.01.11.02.25.05.36-.19.31-.5.53-.77.78-.26.26-.51.51-.68.85-.03.06-.08.13-.1.2-.1.18-.17.39-.22.6,0,.02,0,.04-.01.05-.32.13-.64.26-.93.43-.31.14-.59.31-.81.56-.03.02-.09.07-.1.13-.43.49-.9.89-1.61.89-.37.07-.73.03-1.07.2-.39.23-.83.39-1.14.77-.72-.27-1.41-.45-2.14-.36-.17,0-.33,0-.5.02-.46-.02-.94.08-1.36.32-.11.05-.22.1-.32.18-.34-.11-.65-.31-.97-.47-.32-.17-.64-.35-1.04-.36-.06,0-.14,0-.21,0-.01,0-.04,0-.07-.02-.22-.3-.46-.6-.72-.85-.25-.28-.54-.51-.88-.64-.16-.1-.31-.17-.47-.25-.41-.26-.92-.41-1.41-.41-.08,0-.16,0-.23,0-.56-.7-.69-1.06-1.65-1.66-.43-.07-.86-.85-1.1-1.29-.22-.41-.4-.83-.78-1.14-.44-.41-.92-.79-1.47-.94-.24-.87-.68-1.71-1.39-2.37-.14-.15-.32-.3-.47-.44-.38-.43-.94-.75-1.47-.9-.13-.04-.27-.08-.4-.09-.53-.65-.83-1.53-1.59-2.03-.06-.05-.14-.11-.21-.15-.19-.15-.41-.28-.66-.36-.02,0-.04,0-.05-.02-.32-.71-.68-1.49-1.32-2-.03-.04-.1-.11-.16-.11-.67-.45-1.19-.93-1.54-1.71-.22-.41-.39-.82-.77-1.15-.43-.39-.92-.77-1.45-.94-.24-.87-.68-1.71-1.39-2.36-.15-.16-.3-.31-.47-.44-.39-.45-.94-.78-1.47-.9-.14-.05-.26-.09-.4-.1-.52-.66-.8-1.53-1.58-2.06-.05-.04-.14-.09-.21-.13-.01-.01-.04-.03-.06-.05h-.01c-.44-.61-.8-1.29-1.45-1.85-1.46-1.25-2.36-1.4-2.36-1.4-.45-.14-.96-.19-1.37-.1-1.63.34-2.1,2.35-1.11,3.98l.5.83c.36.84,1.28,1.51,1.98,2.01l-.06.05c.39.91,1.21,1.6,1.97,2.11.06.05.3.24.43.35.04.08.08.14.13.21.11.23.35.44.42.69,0,.02.01.05.02.07.05.19.16.35.28.53.05.06.11.14.17.2.26.46.7.84,1.1,1.17.22.22.5.35.78.47,0,.01.03.06.04.08.12.26.16.58.33.84.08.24.24.45.4.66.03.04.07.09.15.17.26.33.57.7.91.96.24.22.52.4.8.51.29.13.6.19.83.42.13.23.29.47.42.75l.07.09c.05.09.12.19.24.35.45.68,1.16,1.19,1.89,1.43.32,1.06,1.26,1.82,2.1,2.37.05.04.29.26.43.35.01.07.06.14.1.21.16.25.35.49.45.74.05.19.16.35.28.53.04.07.1.15.17.22.26.44.71.82,1.1,1.16.24.22.51.34.79.45,0,.02.02.06.04.08.12.28.16.58.33.84.07.24.25.47.41.67.01.03.06.08.13.16.27.34.58.69.91.95.25.21.53.39.81.5.28.14.57.19.85.43.14.27.34.51.53.81,0,0,.07.11.08.1.07.11.14.22.26.34l.06.05c.39.41.78.7,1.14.91.37.19.71.3.99.39.18.21.48.4.63.64.01.01.04.04.05.05.12.19.29.33.48.49.07.06.16.13.25.19.44.4,1.08.64,1.63.87.27.09.88.26,1.29.29.43.37.99.58,1.55.76.57.15,1.16.19,1.68.21.1,0,.46.02.65.02.09.04.18.07.27.09.27.12.65.15.92.27.02.01.06.03.07.03.21.11.44.14.69.2.1,0,.22.02.31.03.63.12,1.35.03,1.98-.1.37-.06.71-.24,1.02-.4.02,0,.08,0,.1.01.35.05.69.13,1.08.1.3.03.64-.02.96-.09.06-.02.14-.04.27-.1.5-.15,1.11-.31,1.54-.62.35-.2.68-.45.92-.72.27-.26.42-.61.75-.82.3-.12.62-.25.96-.39l.12-.07c.11-.05.24-.14.44-.26.88-.48,1.49-1.37,1.78-2.18,1.15-.54,1.91-1.81,2.28-2.93.03-.07.19-.41.25-.6.07-.05.13-.12.19-.2.23-.26.39-.59.6-.82.09-.08.27-.44.43-.79.15-.35.25-.7.25-.7.12-.32.2-.68.23-1.02.01-.35-.03-.69-.1-1-.03-.14-.07-.31-.13-.43.25-.92.79-1.89.59-2.98,0-.1-.02-.21-.04-.31-.02-.29-.12-.58-.26-.84-.01-.02-.03-.04-.03-.06.22-.88.31-1.95-.06-2.9-.02-.06-.05-.17-.11-.22-.25-.44-.42-.87-.61-1.29-.2-.42-.35-.87-.46-1.39-.2-.54-.37-1.08-.78-1.59-.51-.52-1.15-1.11-1.69-1.25-.28-.86-.76-1.68-1.5-2.3-.16-.16-.32-.3-.49-.42-.41-.43-.97-.73-1.51-.83-.14-.04-.27-.08-.4-.08-.55-.63-.87-1.49-1.67-1.99-.05-.04-.14-.09-.22-.12-.01-.01-.04-.02-.07-.05-.27-.79-.65-1.65-1.34-2.23-.16-.16-.33-.29-.48-.42-.41-.43-.98-.73-1.5-.84-.09-.03-.17-.04-.24-.05-.59-.84-.74-1.29-1.83-1.99-.49-.15-.92-.85-1.18-1.3-.24-.4-.43-.82-.82-1.11-.45-.39-.95-.75-1.5-.89-.27-.86-.74-1.69-1.48-2.31-.15-.15-.33-.29-.48-.42-.4-.42-.97-.72-1.5-.84-.13-.03-.27-.07-.4-.08-.55-.63-.89-1.5-1.66-1.97-.07-.05-.14-.11-.22-.14-.2-.14-.42-.27-.67-.33-.02,0-.04,0-.05-.02-.34-.7-.74-1.46-1.39-1.95-.03-.03-.1-.1-.17-.11-.69-.42-1.23-.89-1.6-1.65-.23-.4-.42-.81-.81-1.12-.45-.37-.95-.74-1.49-.88-.28-.86-.74-1.68-1.48-2.31-.16-.16-.32-.3-.48-.43-.41-.43-.96-.74-1.5-.84-.14-.04-.26-.08-.4-.08-.54-.64-.86-1.5-1.66-2-.05-.04-.14-.09-.22-.12-.01-.01-.04-.02-.07-.05h-.01c-.46-.6-.84-1.26-1.52-1.79-1.5-1.2-2.41-1.31-2.41-1.31-.45-.12-.97-.15-1.37-.05-1.62.41-2.01,2.42-.96,4.02l.53.81c.39.83,1.33,1.46,2.06,1.93l-.05.05c.42.89,1.27,1.55,2.05,2.03.07.05.31.23.44.33.04.08.09.14.13.21.11.23.37.43.44.67,0,.02.01.05.03.06.06.19.18.35.3.52.05.06.12.13.17.19.28.45.74.81,1.15,1.13.23.21.52.33.79.44,0,.01.03.06.04.08.13.26.18.57.36.82.08.23.26.44.42.65.03.03.07.09.16.16.27.32.59.68.95.92.25.21.53.38.82.48.29.12.6.17.84.39.14.23.31.46.45.73l.07.09c.05.09.13.19.25.34.48.66,1.2,1.14,1.95,1.36.36,1.05,1.33,1.77,2.19,2.29.05.04.3.24.44.33.02.07.06.14.11.21.17.24.37.48.48.72.06.19.18.34.3.52.05.07.11.14.18.21.28.43.74.79,1.14,1.11.25.21.53.32.81.42,0,.02.03.06.04.08.13.28.18.57.36.82.08.24.27.46.44.66.01.03.06.08.14.16.28.33.6.67.95.92.26.2.54.37.83.47.28.13.6.18.84.39.12.25.29.46.45.73,0,0,.06.1.07.09.06.1.12.2.22.31l.05.05c.63.78,1.28,1.08,1.78,1.29.12.22.37.4.44.66,0,.01.03.04.04.05.06.19.18.35.3.52.05.07.11.14.18.21.28.43.74.79,1.14,1.11.19.15.63.46.97.6.43.89,1.28,1.54,2.06,2.02.07.05.31.23.45.33.04.08.09.14.13.21.12.23.37.42.45.67,0,.02.02.05.03.06.06.19.18.34.3.52.05.06.12.13.17.19.28.45.74.81,1.16,1.12.23.21.52.32.8.43,0,.01.03.06.04.08.06.13.11.27.16.41.03.07.05.14.09.21.01.06.03.11.06.16.02.19.12.35.22.49.02.02.04.06.1.11.16.23.27.53.51.71.16.15.29.33.5.44.18.13.47.21.54.44,0,.2.02.42,0,.64v.08c0,.07.03.16.02.31-.02.3.06.58.17.86.09.29.24.56.45.82-.23.4-.35.81-.36,1.23-.07.42,0,.86.03,1.27,0,.05-.04.31-.03.45-.03.02-.3.09-.52.34-.27.24-.43.66-.4,1.45Z" fill="#f9c316"/>
        </g>
        <g>
          <path d="M121.17,223.18c.08.1.3.06.57-.07.06-.03.14-.07.21-.11.09.17-.06.57.22.56.02,0,.04,0,.08,0,.06,0,.15,0,.27-.06.01,0,.03-.01.03-.01-.07.29-.14.61.06.65,0,0,.02.02.06,0,.25,0,.39.07.31.39-.02.15-.07.33.04.37.12.05.28.08.55-.04-.17.42-.22.74-.02.83.03.04.07.06.12.07.08.1.29.08.57-.07.07-.03.13-.06.21-.11.07.18-.08.58.21.58.02,0,.05,0,.08,0,0,0,.02,0,.02,0-.15.38-.27.76-.08.85.03.04.08.05.12.07.08.1.3.07.57-.07.04-.02.09-.04.12-.06.02.29-.07.51.3.52.23-.1.21.17.19.34-.02.16-.07.34.05.37.11.07.27.1.55-.03-.18.43-.23.75-.04.85.03.03.08.05.12.07.07.1.29.07.57-.06.06-.03.14-.06.21-.1.08.17-.07.58.21.57.02,0,.04,0,.07,0,.06.01.14,0,.27-.06.01,0,.03-.01.03-.01-.07.3-.14.61.06.66,0,0,.02.02.06,0,.25,0,.38.07.3.4-.02.16-.07.33.04.38.07,0,.11-.07.35-.23-.3.29-.54.44-.48.4h.03s.13-.08.44-.2c.07-.02.14-.05.23-.08-.05.06-.46.21-.23.16.02,0,.05,0,.07-.01,0,0,.01,0,.02,0h.02c-.11.05-.35.1-.24.09.25-.02,1.03-.02,1.03-.02.34,0,.83.02,1.32.02,1.02.02,2.15.04,2.99-.05.85-.08,1.41-.28,1.45-.53l.04-.26c.19-.27-.36-.53-.76-.68l.09-.02c.16-.33-.27-.59-.69-.73-.03-.02-.15-.08-.21-.11,0-.03,0-.06,0-.08.02-.1-.09-.16-.03-.28,0-.01.01-.03,0-.03.04-.09.02-.16,0-.23-.02-.02-.04-.05-.05-.08-.02-.2-.23-.33-.42-.43-.09-.08-.26-.09-.42-.09,0,0,0-.03,0-.04,0-.13.09-.32.05-.44.02-.13-.03-.23-.08-.32-.01-.01-.02-.04-.06-.06-.08-.14-.1-.2-.22-.23-.07-.03-.17-.03-.3.02-.13.04-.3.13-.35.08.01-.09,0-.16.02-.27v-.03s-.01-.06-.02-.11c-.02-.22-.27-.24-.63-.08.21-.51-.09-.57-.4-.56-.02,0-.08-.03-.14-.03.02-.04.02-.06.01-.08,0-.08-.03-.15,0-.26.04-.09.03-.14.03-.2,0-.02,0-.05-.02-.06,0-.15-.13-.2-.24-.25-.07-.03-.19,0-.31.05,0-.01,0-.03,0-.03.03-.12.12-.28.11-.37.05-.12.02-.17,0-.23,0-.01,0-.02-.02-.04-.03-.1-.09-.18-.2-.2-.07-.02-.18-.02-.31.03-.12.03-.29.12-.35.09.03-.11,0-.17.02-.27,0,0,0-.04,0-.03,0-.04,0-.07,0-.11h0c-.07-.24-.34-.18-.55-.12.01-.08-.06-.11,0-.23v-.02c.04-.09.03-.14.03-.2,0-.02,0-.05-.02-.06,0-.15-.13-.2-.24-.24-.05-.02-.2-.04-.34,0,.1-.38-.15-.46-.43-.45-.02,0-.1-.02-.14-.03,0-.03,0-.05,0-.08.02-.09-.05-.12,0-.24,0-.01,0-.03,0-.03.04-.09.03-.14.03-.2l-.03-.05c0-.17-.12-.21-.25-.24-.05-.04-.18,0-.31.04,0,0,0-.03,0-.03.03-.11.12-.28.11-.36.04-.11.02-.17,0-.23,0,0,0-.03-.03-.04-.03-.09-.09-.19-.2-.2-.07-.03-.17-.03-.3.02-.13.04-.3.13-.35.09,0-.09,0-.16.02-.27v-.03s-.01-.06-.02-.11c-.02-.22-.27-.23-.63-.08.2-.5-.1-.57-.41-.55-.02,0-.08-.03-.14-.03.02-.04.02-.06.01-.08,0-.08-.03-.15,0-.25.04-.09-.16-.25-.16-.25-.08-.1-.3-.06-.57.07-.06.03-.14.07-.21.11-.09-.17.06-.57-.22-.56-.02,0-.04,0-.08,0-.06,0-.15,0-.27.06-.01,0-.03.01-.03.01.07-.29.14-.61-.06-.65,0,0-.02-.02-.06,0-.25,0-.39-.07-.31-.39.02-.15.07-.33-.04-.37-.12-.05-.28-.08-.55.04.17-.42.22-.74.02-.83-.03-.04-.07-.06-.12-.07-.08-.1-.29-.08-.57.07-.07.03-.13.06-.21.11-.07-.18.08-.58-.21-.58-.02,0-.05,0-.08,0,0,0-.02,0-.02,0,.15-.38.27-.76.08-.85-.03-.04-.08-.05-.12-.07-.08-.1-.3-.07-.57.07-.04.02-.09.04-.12.06-.02-.29.07-.51-.3-.52-.23.1-.21-.17-.19-.34.02-.16.07-.34-.05-.37-.11-.07-.27-.1-.55.03.18-.43.23-.75.04-.85-.03-.03-.08-.05-.12-.07-.07-.1-.29-.07-.57.06-.06.03-.14.06-.21.1-.08-.17.07-.58-.21-.57-.02,0-.04,0-.07,0-.06-.01-.14,0-.27.05-.01,0-.03.01-.03.01.07-.3.14-.61-.06-.66,0,0-.02-.02-.06,0-.24,0-.38-.07-.3-.4.02-.16.07-.33-.04-.38-.12-.06-.27-.09-.54.03.18-.42.23-.75.04-.85-.03-.04-.07-.06-.12-.08-.07-.11-.28-.08-.56.06-.07.03-.13.05-.21.1-.07-.18.08-.59-.2-.59-.02,0-.05,0-.08,0,0,0-.02,0-.02,0h-.01c-.03-.18,0-.44-.19-.51-.42-.16-.93.12-.93.12-.22.1-.52.28-.8.5-1.14.87-2.18,2.26-2.19,2.83v.29c-.1.36.21.38.46.39l-.05.05c-.1.38.14.46.42.46.02,0,.09.02.13.03,0,.03,0,.05,0,.08-.02.1.05.12,0,.24,0,.01,0,.03,0,.03-.04.09-.03.14-.03.21l.03.05c-.01.17.12.22.24.25.05.04.18,0,.3-.04,0,0,0,.03,0,.03-.03.11-.12.28-.12.37-.04.11-.02.17,0,.23,0,0,0,.03.03.04.03.09.08.19.2.2.07.03.17.03.3-.02.13-.04.3-.13.35-.09-.01.09,0,.16-.02.27v.03s.01.06.02.11c.02.22.27.24.63.08-.21.51.09.57.4.56.02,0,.08.03.13.03-.02.04-.02.06-.01.08,0,.08.03.15,0,.26-.04.09-.03.14-.03.2,0,.02,0,.05.02.06,0,.15.13.2.24.25.07.03.19,0,.31-.05,0,.01,0,.03,0,.03-.03.12-.12.28-.11.37-.05.12-.02.17,0,.23,0,.01,0,.02.02.04.03.1.09.18.2.2.07.02.18.02.31-.03.12-.03.29-.12.35-.09-.03.11,0,.17-.02.27,0,0,0,.04,0,.03,0,.04,0,.07,0,.11h0c.07.24.34.18.55.12-.01.08.06.11,0,.23v.02c-.04.09-.03.14-.03.2,0,.02,0,.05.02.06,0,.15.13.2.24.24.05.02.2.04.34,0-.1.38.15.46.43.45.02,0,.1.02.14.03,0,.03,0,.05,0,.08-.02.09.05.12,0,.24,0,.01,0,.03,0,.03-.04.09-.03.14-.03.2l.03.05c0,.17.12.21.25.24.05.04.18,0,.31-.04,0,0,0,.03,0,.03-.03.11-.12.28-.11.36-.04.11-.02.17,0,.23,0,0,0,.03.03.04.03.09.09.19.2.2.07.03.17.03.3-.02.13-.04.3-.13.35-.09,0,.09,0,.16-.02.27v.03s.01.06.02.11c.02.22.27.23.63.08-.2.5.1.57.41.55.02,0,.08.03.14.03-.02.04-.61.81.16.59Z" fill="#f9c316"/>
          <path d="M103.9,271.69c.17.51.61.94,1.05,1.18.1.06.23.13.33.16.32.66.39,1.54,1.05,2.05.05.05.12.11.18.15.16.15.34.28.58.34.02,0,.04,0,.05.02.12.33.25.68.43,1,.2.31.44.59.75.8.03.03.1.09.15.09.68.32,1.17.69,1.64,1.31.28.32.51.69.96.85.5.21,1.04.4,1.57.3.5.68,1.26,1.19,2.17,1.35.21.04.41.07.61.09.55.14,1.15.04,1.59-.23.12-.05.23-.11.33-.19.37.09.75.18,1.14.27.39.09.8.13,1.21-.03.06-.02.14-.05.21-.09.01,0,.04-.02.07-.02.72.33,1.59.49,2.4.25.2-.06.38-.14.56-.2.54-.14,1.03-.48,1.29-.91.05-.06.09-.13.13-.19.91-.15,1.35-.14,2.22-.89.25-.38.91-.6,1.36-.72.41-.1.81-.2,1.1-.51.4-.38.71-.64,1.06-1.4.73-.13,1.4-.44,1.86-1.01.11-.11.21-.25.32-.37.32-.3.52-.75.56-1.21.01-.11.03-.23.02-.34.49-.41,1.22-.59,1.54-1.21.03-.05.08-.11.1-.17.1-.16.18-.33.21-.55,0-.02,0-.04,0-.04.57-.21,1.2-.46,1.55-.97.03-.03.08-.08.08-.13.29-.55.64-.96,1.26-1.19.33-.15.66-.26.89-.57.27-.35.54-.74.6-1.19.72-.13,1.39-.44,1.86-1.01.12-.12.22-.24.32-.37.33-.31.54-.75.57-1.21.02-.11.04-.22.02-.34.5-.4,1.22-.56,1.56-1.2.03-.04.06-.11.08-.17,0,0,.02-.04.03-.05h-.01c.48-.34,1.02-.59,1.41-1.12.88-1.16.87-1.95.87-1.95.05-.38.02-.83-.12-1.19-.55-1.47-2.37-2.06-3.66-1.35l-.65.37c-.68.24-1.13.98-1.46,1.56l-.05-.05c-.74.26-1.22.92-1.55,1.54-.04.05-.17.24-.24.35-.06.02-.11.06-.17.09-.19.07-.33.27-.54.3-.02,0-.04,0-.05.01-.16.03-.28.11-.42.19-.05.04-.1.09-.15.13-.36.19-.63.54-.86.86-.16.17-.23.41-.29.64-.01,0-.05.02-.06.02-.21.08-.48.08-.68.21-.2.04-.36.17-.52.29-.03.03-.07.05-.12.12-.25.19-.53.43-.7.71-.15.19-.27.42-.33.66-.07.24-.08.51-.24.69-.19.09-.37.22-.59.3l-.07.05c-.07.03-.15.09-.27.18-.53.33-.86.91-.96,1.53-.88.18-1.4.94-1.76,1.63-.03.04-.18.23-.24.35-.06,0-.12.04-.17.07-.19.12-.38.26-.58.33-.16.03-.28.11-.42.2-.05.03-.11.08-.17.13-.34.19-.61.55-.85.86-.15.19-.22.42-.28.65-.02,0-.05.02-.06.02-.11.04-.24.07-.35.08-.07-.03-.1-.07-.16-.06-.13-.05-.32.07-.46.14-.02,0-.06.03-.12.07-.25.13-.48.32-.67.5-.15.14-.28.31-.35.52-.1.19-.14.44-.31.57-.19,0-.36.05-.57.06,0,0-.08,0-.07.02-.08,0-.15.02-.24.05l-.04.02c-.6.19-.89.51-1.12.83-.16,0-.33.07-.51,0,0,0-.03,0-.04,0-.13-.06-.25-.05-.38-.05-.05,0-.11,0-.16.02-.31-.01-.63.08-.92.2-.13.07-.43.19-.62.33-.59-.26-1.17-.15-1.71.03-.05,0-.23.03-.33.04-.04-.03-.09-.05-.14-.07-.13-.09-.33-.07-.43-.22,0-.02-.02-.03-.03-.03-.08-.11-.19-.16-.3-.23-.04-.01-.1-.03-.14-.04-.26-.16-.58-.23-.88-.24-.17-.03-.36.01-.56.06,0,0-.03-.04-.03-.04-.11-.15-.18-.38-.31-.49-.07-.14-.19-.25-.3-.34-.02-.01-.05-.04-.11-.06-.19-.14-.41-.29-.64-.37-.16-.08-.36-.11-.57-.09-.2,0-.43.04-.59-.07-.07-.15-.2-.27-.25-.47l-.04-.06c-.02-.06-.07-.12-.13-.22-.26-.4-.67-.66-1.24-.73.02-.4-.11-.7-.31-.95-.17-.27-.43-.49-.68-.68-.03-.03-.14-.19-.21-.26.02-.05,0-.1,0-.15-.03-.18-.1-.35-.06-.53.05-.14-.24-.78-.24-.78-.09-.33-.36-.62-.72-.82-.08-.05-.17-.11-.26-.15-.02-.26.04-.54.06-.81.05-.27.07-.54-.06-.8-.02-.05-.04-.11-.07-.15-.05-.15-.11-.29-.24-.43-.01,0-.03-.02-.03-.03.23-.48.53-.95.46-1.45,0-.03,0-.09-.03-.12-.1-.5-.1-.97.3-1.39.19-.24.41-.44.44-.75.07-.35.12-.73-.03-1.12.6-.31,1.03-.71,1.27-1.26.07-.12.13-.24.17-.37.19-.32.26-.73.19-1.14,0-.11-.02-.2-.06-.31.09-.1.21-.21.31-.27.09-.06.15-.05.21-.05.24-.13.54-.37.7-.68.03-.04.06-.11.08-.18,0,0,.02-.04.03-.05.67-.14,1.37-.36,1.8-.9.12-.12.21-.25.32-.37.33-.31.52-.77.56-1.21.02-.07.01-.14.02-.21.67-.41,1.05-.48,1.54-1.35.07-.41.64-.7,1-.87.33-.16.67-.28.88-.58.29-.35.55-.74.6-1.2.73-.13,1.4-.44,1.86-1.01.11-.11.21-.25.32-.37.32-.3.52-.76.56-1.21.01-.11.03-.23.02-.34.49-.41,1.21-.59,1.54-1.21.03-.05.08-.11.1-.17.1-.16.18-.33.21-.55,0-.02,0-.04,0-.04.57-.22,1.2-.46,1.55-.98.03-.03.08-.08.08-.13.29-.55.63-.97,1.26-1.2.33-.16.66-.27.89-.57.27-.35.53-.74.6-1.19.72-.14,1.39-.44,1.86-1.01.12-.12.22-.24.32-.37.33-.31.54-.75.56-1.21.02-.12.04-.22.02-.34.5-.4,1.22-.57,1.56-1.2.03-.04.06-.11.08-.17,0,0,.02-.04.03-.05h-.01c.24-.17.49-.33.74-.49.12-.09.24-.18.35-.28.2-.19.42-.42.61-.65,1.81-2.13,1.78-2.89,1.78-2.89.1-.43-.02-.79-.34-.97-.63-.37-1.88-.22-2.94-.07-1.08.17-1.96.3-2.37.43-.15.05-.28.09-.41.11-.11,0-.19.02-.25.04-.08.05-.05.01-.21.2-.24.29-.43.62-.59.91l-.05-.05c-.74.26-1.21.92-1.54,1.54-.04.05-.17.24-.24.35-.06.02-.11.06-.17.09-.19.07-.33.27-.54.31-.02,0-.04,0-.05.02-.16.03-.28.11-.42.2-.05.04-.1.09-.15.13-.36.19-.63.54-.86.86-.16.17-.23.41-.29.64-.01,0-.05.02-.06.02-.21.08-.48.09-.68.21-.2.04-.36.17-.52.29-.03.03-.07.05-.12.12-.25.2-.53.43-.7.71-.15.19-.27.42-.32.66-.07.24-.08.51-.24.69-.18.09-.37.22-.59.31l-.07.05c-.07.03-.15.09-.27.18-.52.34-.86.91-.96,1.54-.88.18-1.4.94-1.76,1.63-.03.04-.18.23-.24.35-.06,0-.12.04-.17.07-.19.12-.38.26-.58.33-.16.03-.28.11-.42.2-.05.03-.11.08-.17.13-.34.19-.61.55-.84.86-.15.19-.22.42-.28.65-.02,0-.05.02-.06.02-.23.08-.48.09-.68.21-.2.04-.37.18-.52.3-.03,0-.06.04-.12.1-.26.2-.52.44-.7.72-.14.2-.26.43-.31.67-.08.23-.09.5-.24.69-.2.07-.37.2-.59.31,0,0-.08.04-.07.05-.08.04-.16.08-.24.15l-.03.03c-.61.46-.8.99-.93,1.4-.18.08-.31.27-.53.3-.01,0-.03.02-.04.03-.16.03-.28.11-.42.2-.05.03-.11.08-.17.13-.34.19-.6.55-.84.86-.11.15-.33.5-.41.77-.37.13-.67.36-.92.64l-.25.29c-.11.12-.22.27-.28.4-.14.26-.2.43-.27.62-.03.06-.15.3-.21.43-.06.04-.11.09-.16.14-.19.12-.31.37-.51.48-.02,0-.04.02-.05.03-.16.08-.27.22-.4.36-.04.06-.09.13-.13.19-.34.33-.53.82-.66,1.27-.11.25-.11.54-.1.8,0,0-.04.04-.05.05-.19.18-.43.33-.58.57-.17.15-.28.38-.39.59-.02.04-.05.09-.07.19-.17.35-.29.78-.32,1.17-.05.3-.06.6.03.87.07.29.21.55.17.84-.1.22-.2.46-.31.72l-.02.1c-.03.09-.06.2-.1.38-.22.73-.03,1.54.35,2.13-.46.92-.14,2.04.29,2.86.03.05.1.34.19.47-.01.03-.21.24-.26.62-.06.38.04.96.69,1.59Z" fill="#f9c316"/>
          <path d="M176.48,218.08c0-.5-.18-1.03-.53-1.39-.08-.09-.17-.19-.25-.26-.03-.69.3-1.48-.08-2.17-.03-.06-.05-.14-.09-.2-.08-.19-.18-.38-.35-.53-.02-.01-.03-.02-.03-.03.15-.66.17-1.38-.11-2-.01-.04-.03-.12-.08-.14-.34-.59-.63-1.09-.59-1.82-.02-.39.02-.79-.21-1.14-.25-.42-.54-.84-.96-1.08.12-.79-.06-1.55-.5-2.22-.07-.13-.24-.41-.38-.62l-.15-.28c-.07-.08-.15-.15-.23-.22-.16-.14-.33-.26-.5-.38-.21-.1-.43-.16-.66-.17-.12-.02-.22-.04-.34-.02-.39-.5-.56-1.22-1.2-1.57-.04-.03-.11-.06-.17-.08,0,0-.04-.02-.05-.03-.13-.67-.35-1.38-.88-1.81-.12-.12-.25-.22-.37-.32-.3-.33-.76-.53-1.21-.57-.07-.02-.14-.01-.21-.02-.4-.68-.47-1.05-1.33-1.55-.41-.08-.69-.65-.86-1.01-.15-.33-.27-.67-.57-.89-.34-.29-.73-.56-1.19-.62-.12-.73-.42-1.4-.99-1.87-.11-.11-.25-.22-.37-.32-.29-.32-.75-.52-1.2-.57-.11-.01-.23-.03-.34-.03-.4-.49-.57-1.22-1.19-1.55-.05-.03-.11-.08-.17-.1-.16-.1-.33-.19-.54-.22-.02,0-.04,0-.04,0-.21-.58-.45-1.21-.96-1.56-.03-.03-.08-.08-.13-.08-.55-.3-.96-.64-1.18-1.28-.15-.33-.26-.66-.56-.9-.34-.28-.73-.54-1.18-.61-.13-.72-.43-1.4-.99-1.87-.12-.12-.24-.23-.37-.32-.3-.33-.75-.55-1.2-.58-.11-.02-.22-.04-.34-.03-.39-.5-.55-1.22-1.18-1.58-.04-.03-.11-.06-.17-.09,0,0-.03-.02-.05-.03h-.01c-.32-.47-.57-1.01-1.09-1.41-1.16-.89-1.94-.89-1.94-.89-.38-.06-.83-.03-1.19.11-1.47.53-2.09,2.35-1.38,3.64l.36.66c.23.68.97,1.14,1.54,1.47l-.06.05c.25.74.9,1.23,1.52,1.56.05.04.24.17.34.24.02.06.06.12.09.17.07.19.27.33.3.54,0,.02,0,.04.01.05.03.16.11.28.19.43.04.05.09.1.13.15.18.36.54.63.85.87.17.16.41.23.64.3,0,.01.02.05.02.06.08.21.08.48.2.69.04.2.17.36.28.52.03.03.05.07.12.12.19.25.43.54.7.71.19.16.41.28.65.33.24.07.51.08.69.25.09.19.21.37.3.59l.05.07c.03.07.09.15.17.27.33.53.9.87,1.52.98.17.88.92,1.41,1.61,1.78.04.03.23.18.35.24,0,.06.04.12.07.17.11.19.26.38.33.58.03.16.11.28.19.43.03.05.07.11.12.17.19.34.54.61.85.86.19.16.42.22.65.28,0,.02.02.05.02.06.08.23.08.48.2.68.03.2.18.37.29.53,0,.03.04.06.1.12.2.26.44.52.71.7.2.15.43.26.66.32.23.08.5.09.69.25.07.2.2.37.3.59,0,0,.04.08.05.07.04.08.08.16.15.25l.03.03c.45.61.98.81,1.38.94.08.18.27.31.29.53,0,.01.02.03.02.04.03.16.11.28.19.42.03.05.07.11.13.17.19.34.54.61.85.85.15.11.49.33.77.42.26.74.91,1.22,1.53,1.55.05.04.24.17.35.24.02.06.06.11.09.17.04.09.1.18.17.26.02.04.01.06-.02.12,0,.01-.01.02-.01.02-.05.08-.07.1-.09.17l.02.06c.04.33.3.68.52.95.11.18.32.3.5.42,0,.01,0,.05,0,.06,0,.21-.1.45-.07.66-.03.18.02.36.06.53.01.03.02.07.06.14.09.27.19.57.35.81.1.19.24.36.43.49.18.14.41.24.5.44,0,.18.01.38-.03.6v.08c0,.07,0,.16.02.29.02.55.34,1.03.77,1.4-.18.38-.19.74-.11,1.09.05.35.19.69.34,1,.02.04.07.25.12.35-.03.05-.04.1-.05.15-.04.19-.07.4-.16.57-.09.12-.03.89-.03.89-.02.37.13.77.41,1.1.06.08.14.17.21.24-.08.56-.59,1.06-.44,1.68,0,.05.01.12.02.18,0,.17.03.34.13.51.01.01.02.03.02.04-.36.44-.72.9-.78,1.44,0,.03-.03.09,0,.14.03.56-.07,1.04-.55,1.45-.22.24-.47.44-.55.77-.12.38-.21.79-.1,1.21-.59.33-1.14.74-1.38,1.35-.07.13-.13.27-.19.4-.23.34-.31.79-.22,1.22,0,.11.02.22.06.32-.18.23-.46.41-.69.61-.12.1-.23.21-.33.33-.09.12-.19.29-.18.36,0,.03.01.05.02.08,0,0,0,.02,0,.02-.05-.01-.08-.05-.15-.04l-.25.07c-.17.05-.33.11-.49.18-.31.14-.6.33-.81.6-.12.12-.21.25-.32.37-.33.31-.52.77-.56,1.21-.02.07-.01.14-.02.21-.67.41-1.05.48-1.54,1.35-.07.41-.64.7-1,.87-.33.16-.67.27-.88.58-.29.35-.55.74-.6,1.2-.73.13-1.4.44-1.86,1.01-.11.11-.21.25-.32.37-.32.3-.52.75-.56,1.21-.01.11-.03.23-.02.34-.49.41-1.22.59-1.54,1.21-.03.05-.08.11-.1.17-.1.16-.18.33-.21.55,0,.02,0,.04,0,.04-.57.21-1.2.46-1.55.97-.03.03-.08.08-.08.13-.29.55-.64.96-1.26,1.19-.33.15-.66.26-.89.57-.27.35-.54.74-.6,1.19-.72.13-1.39.44-1.86,1.01-.12.12-.22.24-.32.37-.33.31-.54.75-.57,1.21-.02.11-.04.22-.02.34-.5.4-1.22.56-1.56,1.2-.03.04-.06.11-.08.17,0,0-.02.04-.03.05h.01c-.48.34-1.02.59-1.41,1.12-.88,1.16-.87,1.95-.87,1.95-.05.38-.02.83.12,1.19.55,1.47,2.37,2.06,3.66,1.35l.65-.37c.68-.24,1.13-.98,1.46-1.56l.05.05c.74-.26,1.22-.92,1.55-1.54.04-.05.17-.24.24-.35.06-.02.11-.06.17-.09.19-.07.33-.27.54-.3.02,0,.04,0,.05-.01.16-.03.28-.11.42-.19.05-.04.1-.09.15-.13.36-.19.63-.54.86-.86.16-.17.23-.41.29-.64.01,0,.05-.02.06-.02.21-.08.48-.08.68-.21.2-.04.36-.17.52-.29.03-.03.07-.05.12-.12.25-.19.53-.43.7-.71.15-.19.27-.42.33-.66.07-.24.08-.51.24-.69.19-.09.37-.22.59-.3l.07-.05c.07-.03.15-.09.27-.18.53-.33.86-.91.96-1.53.88-.18,1.4-.94,1.76-1.63.03-.04.18-.23.24-.35.06,0,.12-.04.17-.07.19-.12.38-.26.58-.33.16-.03.28-.11.42-.2.05-.03.11-.08.17-.13.34-.19.61-.55.85-.86.15-.19.22-.42.28-.65.02,0,.05-.02.06-.02.23-.08.48-.09.68-.21.2-.04.37-.18.53-.3.03,0,.06-.04.12-.1.26-.2.52-.44.7-.71.14-.2.26-.43.31-.67.08-.23.09-.5.24-.69.2-.07.37-.2.59-.31,0,0,.08-.04.07-.05.08-.04.16-.08.24-.15l.03-.03c.61-.46.8-.99.93-1.39.18-.08.31-.27.53-.3.01,0,.03-.02.04-.03.16-.03.28-.11.42-.2.05-.03.11-.08.17-.13.34-.19.61-.55.84-.86.06-.07.14-.2.22-.34.08-.15.13-.27.27-.51.3-.14.52-.44.67-.58.14-.14.26-.3.37-.47.21-.34.37-.71.48-1.07.03-.06.12-.3.17-.42.06-.04.1-.09.15-.14.17-.12.28-.37.48-.46.02,0,.04-.02.05-.03.16-.07.26-.2.39-.32.04-.05.08-.12.12-.18.31-.31.48-.77.63-1.18.11-.23.13-.49.11-.75,0,0,.04-.04.05-.05.18-.16.44-.28.6-.49.18-.13.3-.32.41-.51.02-.04.05-.08.08-.17.19-.3.35-.69.41-1.05.08-.27.1-.55.06-.81-.02-.27-.12-.53-.06-.8.13-.19.24-.41.4-.62l.04-.09c.05-.07.09-.17.17-.32.34-.62.3-1.4.07-2.03.65-.73.63-1.81.46-2.66,0-.06-.02-.33-.05-.47.02-.03.28-.15.45-.48.18-.32.27-.86-.12-1.62Z" fill="#f9c316"/>
          <path d="M123.75,191.06c-.12.1-.11.35,0,.65.02.07.06.15.09.22-.2.12-.65.02-.67.33,0,.02-.02.05-.01.09-.02.07-.02.17.03.3,0,.01.01.02,0,.03-.33-.04-.68-.07-.75.17,0,0-.03.03,0,.07-.02.28-.13.45-.49.41-.17,0-.37-.03-.43.1-.08.15-.13.33-.03.62-.45-.14-.81-.14-.95.1-.04.04-.08.09-.1.15-.13.1-.13.34,0,.64.02.07.05.14.09.22-.21.11-.65,0-.69.32,0,.02,0,.06,0,.09,0,0,0,.02,0,.02-.41-.12-.83-.2-.96.03-.04.04-.07.1-.1.15-.13.1-.12.35,0,.64.01.04.04.09.05.13-.33.06-.57,0-.63.42.08.25-.22.27-.42.27-.17,0-.37-.03-.42.11-.09.14-.15.32-.04.62-.46-.15-.82-.15-.96.09-.04.04-.07.1-.1.15-.13.1-.12.35,0,.64.02.07.05.15.09.22-.21.12-.65,0-.68.33,0,.02-.02.05-.01.09-.02.07-.02.17.03.3,0,.01.01.02,0,.03-.33-.04-.68-.07-.76.16,0,0-.03.03-.01.06-.03.28-.13.45-.49.4-.18,0-.37-.03-.44.1-.08.15-.14.33-.04.61-.45-.14-.82-.15-.96.09-.05.04-.08.09-.1.15-.13.1-.13.34,0,.64.02.07.04.14.09.22-.22.11-.66,0-.7.31,0,.02,0,.06,0,.09,0,0,0,.02,0,.02h.01c-.23.08-.52.08-.63.31-.23.51.02,1.04.02,1.04.08.24.25.55.46.84.84,1.17,2.29,2.16,2.94,2.08l.34-.04c.39.06.47-.3.51-.59l.05.05c.43.06.55-.23.58-.55,0-.02.04-.11.06-.16.04,0,.06,0,.09,0,.11.01.14-.08.27-.03.01,0,.03.01.03,0,.1.03.16.02.23,0,.02-.01.04-.03.06-.04.19-.01.26-.17.32-.31.05-.07.03-.2,0-.34,0,0,.03,0,.03,0,.12.01.3.1.4.08.12.03.19,0,.27-.03,0,0,.03-.01.05-.04.11-.05.23-.12.26-.26.05-.08.05-.2.02-.34-.03-.14-.11-.32-.05-.39.1,0,.19-.03.31-.02h.03s.07-.03.13-.04c.26-.06.31-.34.18-.73.55.16.67-.19.7-.54,0-.02.05-.1.05-.16.04.02.07.01.09,0,.1-.02.18-.06.29-.04.1.03.16.01.23,0,.03,0,.05-.01.07-.03.18-.02.25-.18.31-.31.05-.08.02-.22-.01-.35.01,0,.03,0,.03,0,.13.02.3.1.4.07.13.04.2,0,.27-.03.02,0,.03,0,.05-.03.12-.05.22-.13.25-.26.04-.09.04-.21,0-.35-.02-.13-.1-.31-.05-.39.12.02.19-.02.31-.02,0,0,.04,0,.03-.01.04,0,.08,0,.12-.02h.01c.28-.13.24-.42.2-.66.1,0,.13-.09.27-.03,0,0,.02,0,.02,0,.1.03.16.01.23,0,.03,0,.05-.01.07-.03.18-.02.24-.18.31-.31.03-.06.07-.23.04-.39.42.06.54-.24.57-.56,0-.02.04-.11.05-.16.03,0,.06,0,.09,0,.1,0,.14-.08.27-.04.01,0,.03,0,.03,0,.1.03.16.01.23,0,.02-.01.04-.03.06-.04.19-.01.26-.17.31-.32.05-.07.02-.21,0-.34,0,0,.03,0,.03,0,.12.01.3.09.4.07.12.03.19,0,.26-.03,0,0,.03-.01.04-.04.11-.05.23-.13.25-.26.04-.08.05-.2.01-.34-.03-.14-.11-.32-.05-.39.1,0,.18-.03.31-.02h.03s.07-.03.13-.05c.25-.06.3-.35.17-.74.55.15.66-.19.69-.55,0-.02.05-.1.05-.16.04.02.07,0,.09,0,.1-.02.17-.06.29-.04.1.03.31-.23.31-.23.12-.1.11-.35,0-.65-.02-.07-.06-.15-.09-.22.2-.12.65-.02.67-.33,0-.02.02-.05.01-.09.02-.07.02-.17-.03-.3,0-.01-.01-.02,0-.03.33.04.68.07.75-.17,0,0,.03-.03,0-.07.02-.28.13-.45.49-.41.17,0,.37.03.43-.1.08-.15.13-.33.03-.62.45.14.81.14.95-.1.04-.04.08-.09.1-.15.13-.1.13-.34,0-.64-.02-.07-.05-.14-.09-.22.21-.11.65,0,.69-.32,0-.02,0-.06,0-.09,0,0,0-.02,0-.02.41.12.83.2.96-.03.05-.04.07-.1.1-.15.13-.1.12-.35,0-.64-.01-.04-.04-.09-.05-.13.33-.06.57,0,.63-.42-.08-.25.22-.27.42-.27.17,0,.37.03.42-.11.09-.14.15-.32.04-.62.46.15.82.15.96-.09.04-.04.07-.1.1-.15.13-.1.12-.35,0-.64-.02-.07-.05-.15-.09-.22.21-.12.65,0,.68-.33,0-.02.02-.05.01-.09.02-.07.02-.17-.03-.3,0-.01-.01-.03,0-.03.33.04.68.07.76-.16,0,0,.03-.03.01-.06.03-.28.13-.45.49-.4.18,0,.37.03.44-.1.08-.15.14-.33.04-.61.45.14.82.15.96-.09.05-.04.08-.09.1-.15.13-.1.13-.34,0-.64-.02-.07-.04-.14-.09-.22.22-.11.66,0,.7-.31,0-.02,0-.06,0-.09,0,0,0-.02,0-.02h-.01c.23-.08.52-.08.63-.31.24-.51-.02-1.04-.02-1.04-.08-.24-.25-.55-.46-.84-.84-1.17-2.28-2.16-2.94-2.08l-.34.04c-.39-.06-.47.3-.51.59l-.05-.05c-.43-.06-.55.23-.58.55,0,.02-.04.11-.06.16-.04,0-.06,0-.09,0-.11-.01-.14.08-.27.03-.01,0-.03-.01-.03,0-.1-.03-.16-.02-.23,0-.02.01-.04.03-.06.04-.19.01-.26.17-.32.31-.05.07-.03.2,0,.34,0,0-.03,0-.03,0-.12-.01-.3-.1-.4-.08-.12-.03-.19,0-.27.03,0,0-.03.01-.05.04-.11.05-.23.12-.26.26-.05.08-.05.2-.02.34.03.14.11.32.05.39-.1,0-.19.03-.31.02h-.03s-.07.03-.13.04c-.26.06-.31.34-.18.73-.55-.16-.67.19-.7.54,0,.02-.05.1-.05.16-.04-.02-.07-.01-.09,0-.1.02-.18.06-.29.04-.1-.03-.16-.01-.23,0-.03,0-.05.01-.07.03-.18.02-.25.18-.31.31-.05.08-.02.22.01.35-.01,0-.03,0-.03,0-.13-.02-.3-.1-.4-.07-.13-.04-.2,0-.27.03-.02,0-.03,0-.05.03-.12.05-.22.13-.25.26-.04.09-.04.21,0,.35.02.13.1.31.05.39-.12-.02-.19.02-.31.02,0,0-.04,0-.03.01-.04,0-.08,0-.12.02h-.01c-.28.13-.24.42-.2.66-.1,0-.13.09-.27.03,0,0-.02,0-.02,0-.1-.03-.16-.01-.23,0-.03,0-.05.01-.07.03-.17.02-.24.18-.31.31-.03.06-.07.23-.04.39-.42-.06-.54.24-.57.56,0,.02-.04.11-.05.16-.03,0-.06,0-.09,0-.1,0-.14.08-.27.04-.01,0-.03,0-.03,0-.1-.03-.16-.01-.23,0-.02.01-.04.03-.06.04-.19.01-.26.17-.31.32-.05.07-.02.21,0,.34,0,0-.03,0-.03,0-.12-.01-.3-.09-.4-.07-.12-.03-.19,0-.26.03,0,0-.03.01-.04.04-.11.05-.23.13-.25.26-.04.08-.05.2-.01.34.03.14.11.32.05.39-.1,0-.18.03-.31.02h-.03s-.07.03-.13.05c-.25.06-.3.35-.17.74-.55-.15-.66.19-.69.55,0,.02-.05.1-.05.16-.04-.02-.84-.57-.69.27Z" fill="#f9c316"/>
        </g>
        <g>
          <path d="M78.12,216.49c-.1.08-.06.3.07.57.03.06.07.14.11.21-.17.09-.57-.06-.56.22,0,.02,0,.04,0,.08,0,.06,0,.15.06.27,0,.01.01.03.01.03-.29-.07-.61-.14-.65.06,0,0-.02.02,0,.06,0,.25-.07.39-.39.31-.15-.02-.33-.07-.37.04-.05.12-.08.28.04.55-.42-.17-.74-.22-.83-.02-.04.03-.06.07-.07.12-.1.08-.08.29.07.57.03.07.06.13.11.21-.18.08-.58-.08-.58.21,0,.02,0,.05,0,.08,0,0,0,.02,0,.02-.38-.15-.76-.27-.85-.08-.04.03-.05.08-.07.12-.1.08-.07.3.07.57.02.04.04.09.06.12-.29.02-.51-.07-.52.3.1.23-.17.21-.34.19-.16-.02-.34-.07-.37.05-.07.11-.1.27.03.55-.43-.18-.75-.23-.85-.04-.03.03-.05.08-.07.12-.1.07-.07.29.06.57.03.06.06.14.1.21-.17.08-.58-.07-.57.21,0,.02,0,.04,0,.07-.01.06,0,.14.05.27,0,.01.01.03.01.03-.3-.07-.61-.14-.66.06,0,0-.02.02,0,.06,0,.25-.07.38-.4.3-.16-.02-.33-.07-.38.04-.06.12-.09.27.03.54-.42-.18-.75-.23-.85-.04-.04.03-.06.07-.08.12-.11.07-.08.28.06.56.03.06.05.13.1.21-.18.07-.59-.08-.59.2,0,.02,0,.05,0,.08,0,0,0,.02,0,.02h.01c-.2.05-.46.01-.53.2-.16.42.12.93.12.93.1.22.28.52.5.8.87,1.14,2.26,2.18,2.83,2.19h.29c.36.1.38-.21.39-.46l.05.05c.38.1.46-.14.46-.42,0-.02.02-.09.03-.13.03,0,.05,0,.08,0,.1.02.12-.05.24,0,.01,0,.03,0,.03,0,.09.04.14.03.21.03l.05-.03c.17.01.22-.12.25-.24.04-.05,0-.18-.04-.3,0,0,.03,0,.03,0,.11.03.28.12.37.12.11.04.17.02.23,0,0,0,.03,0,.04-.03.09-.03.19-.08.2-.2.03-.07.03-.17-.02-.3-.04-.13-.13-.3-.08-.35.09.01.16,0,.27.02h.03s.06-.01.11-.02c.22-.02.24-.27.08-.63.51.21.57-.09.56-.4,0-.02.03-.08.03-.14.04.02.06.02.08.01.08,0,.15-.03.26,0,.09.04.14.03.2.03.02,0,.05,0,.06-.02.15,0,.2-.13.25-.24.03-.07,0-.19-.05-.31.01,0,.03,0,.03,0,.12.03.28.12.37.11.12.05.17.02.23,0,.01,0,.02,0,.04-.02.1-.04.18-.09.2-.2.02-.07.02-.18-.03-.31-.03-.12-.12-.29-.09-.35.11.03.17,0,.27.02,0,0,.04,0,.03,0,.04,0,.07,0,.11,0h.01c.23-.08.17-.35.11-.56.08.01.11-.06.23,0h.02c.09.04.14.03.2.03.02,0,.05,0,.06-.02.15,0,.2-.13.24-.24.02-.05.04-.2,0-.34.38.1.46-.15.45-.43,0-.02.02-.1.03-.14.03,0,.05,0,.08,0,.09.02.12-.05.24,0,.01,0,.03,0,.03,0,.09.04.14.03.2.03l.05-.03c.17,0,.21-.12.24-.25.04-.05,0-.18-.04-.31,0,0,.03,0,.03,0,.11.03.28.12.36.11.11.04.17.02.23,0,0,0,.03,0,.04-.03.09-.03.19-.09.2-.2.03-.07.03-.17-.02-.3-.04-.13-.13-.3-.09-.35.09,0,.16,0,.27.02h.03s.06-.01.11-.02c.22-.02.23-.27.08-.63.5.2.57-.1.55-.41,0-.02.03-.08.03-.14.04.02.06.02.08.01.08,0,.15-.03.25,0,.09.04.25-.17.25-.17.1-.08.06-.3-.07-.57-.03-.06-.07-.14-.11-.21.17-.09.57.06.56-.22,0-.02,0-.04,0-.08,0-.06,0-.15-.06-.27,0-.01-.01-.03-.01-.03.29.07.61.14.65-.06,0,0,.02-.02,0-.06,0-.25.07-.39.39-.31.15.02.33.07.37-.04.05-.12.08-.28-.04-.55.42.17.74.22.83.02.04-.03.06-.07.07-.12.1-.08.08-.29-.07-.57-.03-.07-.06-.13-.11-.21.18-.07.58.08.58-.21,0-.02,0-.05,0-.08,0,0,0-.02,0-.02.38.15.76.27.85.08.04-.03.05-.08.07-.12.1-.08.07-.3-.07-.57-.02-.04-.04-.09-.06-.12.29-.02.51.07.52-.3-.1-.23.17-.21.34-.19.16.02.34.07.37-.05.07-.11.1-.27-.03-.55.43.18.75.23.85.04.03-.03.05-.08.07-.12.1-.07.07-.29-.06-.57-.03-.06-.06-.14-.1-.21.17-.08.58.07.57-.21,0-.02,0-.04,0-.07.01-.06,0-.14-.05-.27,0-.01-.01-.03-.01-.03.3.07.61.14.66-.06,0,0,.02-.02,0-.06,0-.25.07-.38.4-.3.16.02.33.07.38-.04.13-.2.25-.44.18-.75.55.05,1.06-.09,1.29-.41.07-.07.12-.14.17-.21.2-.17.23-.43.07-.69-.03-.06-.06-.12-.13-.19.3-.19.97-.3,1.02-.62,0-.02,0-.06,0-.09,0,0,0-.02,0-.03h-.02c.34-.18.81-.36.96-.62.33-.6-.23-.82-.23-.82-.2-.12-.57-.23-1.02-.28-.89-.11-2.04-.07-3.01-.03-.98.04-1.76.07-2.09.11l-.33.03c-.45,0-.24.07-.1.17l-.09-.02c-.44-.05-.34.02-.19.15,0,0,.03.04.04.06-.03,0-.05,0-.07-.01-.09-.02-.08,0-.2-.04-.01,0-.03-.01-.03-.01-.1-.04-.13-.04-.18-.06h-.03c-.13-.04-.1,0-.07.06,0,.02.08.09.16.18,0,0-.03-.01-.03-.01-.09-.05-.25-.16-.3-.18-.09-.06-.12-.08-.15-.09,0,0-.01,0,0,0-.02-.04-.17.06-.17.16-.03.07-.03.17.02.3.04.13.13.3.08.35-.09-.01-.16,0-.27-.02h-.03s-.06.01-.11.02c-.22.02-.24.27-.08.63-.51-.2-.57.09-.56.4,0,.02-.03.08-.03.14-.04-.02-.06-.02-.08-.01-.08,0-.15.03-.26,0-.09-.04-.14-.03-.2-.03-.02,0-.05,0-.06.02-.15,0-.2.13-.25.24-.03.07,0,.19.05.31-.01,0-.03,0-.03,0-.12-.03-.28-.12-.37-.11-.12-.05-.17-.02-.23,0-.01,0-.02,0-.04.02-.1.04-.18.09-.2.2-.02.08-.02.18.03.31.03.12.12.29.09.35-.11-.03-.17,0-.27-.02,0,0-.04,0-.03,0-.04,0-.07,0-.11,0h-.01c-.23.08-.17.35-.11.56-.08-.01-.11.06-.23,0h-.02c-.09-.04-.14-.03-.2-.03-.02,0-.05,0-.06.02-.15,0-.2.13-.24.24-.02.05-.04.2,0,.34-.38-.1-.46.15-.45.43,0,.02-.02.1-.03.14-.03,0-.05,0-.08,0-.09-.02-.12.05-.24,0-.01,0-.03,0-.03,0-.09-.04-.14-.03-.2-.03l-.05.03c-.17,0-.21.12-.24.25-.04.05,0,.18.04.31,0,0-.03,0-.03,0-.11-.03-.28-.12-.36-.11-.11-.04-.17-.02-.23,0,0,0-.03,0-.04.03-.09.03-.19.09-.2.2-.03.07-.03.17.02.3.04.13.13.3.09.35-.09,0-.16,0-.27-.02h-.03s-.06.01-.11.02c-.22.02-.23.27-.08.63-.5-.2-.57.1-.55.41,0,.02-.03.08-.03.14-.04-.02-.81-.61-.59.16Z" fill="#f9c316"/>
          <path d="M90.31,271.72c-.2.27-.31.64-.29,1.05,0,.1,0,.21.02.31-.42.33-1.04.4-1.34.87-.03.04-.07.09-.09.14-.09.12-.17.27-.22.45,0,.02,0,.03-.01.04-.27.02-.54.03-.78.09-.25.04-.48.11-.67.27-.03.01-.08.04-.09.09-.35.34-.75.59-1.29.44-.29-.05-.55-.1-.83-.02-.32.1-.64.29-.9.57-.26-.19-.52-.32-.78-.42-.26-.11-.52-.16-.8-.12-.13,0-.25-.02-.37,0-.34-.05-.71.09-1.03.31-.09.05-.17.1-.25.18-.51-.15-.87-.71-1.47-.67-.04,0-.11,0-.16,0,0,0-.03,0-.05,0-.3-.54-.63-1.03-1.13-1.24-.12-.07-.24-.1-.36-.15-.31-.18-.71-.26-1.12-.17-.07,0-.13.03-.19.04-.22-.25-.34-.49-.51-.67-.09-.1-.18-.18-.31-.27-.12-.08-.32-.18-.38-.16-.05.12-.3-.13-.42-.31-.14-.2-.25-.44-.33-.62-.15-.33-.26-.68-.56-.89-.34-.3-.73-.57-1.19-.63-.11-.73-.41-1.41-.97-1.88-.11-.11-.24-.22-.36-.32-.29-.33-.74-.53-1.2-.59-.11-.02-.23-.03-.34-.03-.4-.49-.56-1.23-1.18-1.57-.05-.03-.11-.08-.17-.1-.15-.1-.33-.19-.54-.22-.02,0-.04,0-.04,0-.2-.58-.44-1.21-.94-1.57-.03-.03-.08-.08-.13-.08-.54-.3-.95-.65-1.17-1.29-.15-.33-.25-.67-.55-.9-.34-.28-.73-.55-1.18-.62-.12-.72-.41-1.4-.97-1.88-.12-.12-.23-.23-.36-.33-.3-.34-.74-.55-1.19-.59-.11-.03-.22-.04-.34-.03-.39-.51-.54-1.23-1.17-1.59-.04-.03-.11-.06-.17-.09,0,0-.03-.02-.05-.04h-.01c-.32-.48-.56-1.02-1.07-1.42-1.15-.9-1.93-.91-1.93-.91-.38-.06-.83-.03-1.19.1-1.48.52-2.11,2.33-1.42,3.63l.35.66c.23.69.96,1.15,1.53,1.49l-.06.05c.24.74.89,1.24,1.5,1.58.05.04.24.17.34.25.02.06.05.12.09.17.07.19.26.34.29.54,0,.02,0,.04.01.05.02.16.11.29.19.43.04.05.09.1.12.15.18.37.53.64.84.88.17.16.41.24.63.31,0,.01.02.05.02.06.07.21.07.48.2.69.04.2.16.36.28.52.03.03.05.07.12.12.19.26.42.54.7.71.19.16.41.28.65.34.24.08.51.09.68.26.09.19.21.37.29.6l.05.07c.03.07.09.15.17.28.32.53.89.88,1.51,1,.16.89.91,1.42,1.59,1.79.04.03.23.18.34.25,0,.06.04.12.07.17.11.2.25.38.32.59.03.16.11.28.19.43.03.05.07.12.12.17.18.35.53.62.84.86.19.16.42.22.65.29,0,.02.01.05.02.06.07.23.08.48.2.69.03.21.17.37.29.53,0,.03.04.06.1.12.2.26.43.53.7.71.2.15.42.27.66.33.23.08.5.1.68.25.04.1.17.29.27.42.11.12.22.24.29.35,0,0,.06.08.07.07.06.08.12.16.21.25l.04.03c.6.63,1.24.77,1.71.83.14.17.38.28.47.5,0,0,.03.03.04.04.08.17.22.27.36.39.06.05.13.1.2.14.35.3.82.51,1.27.64.21.06.69.17,1.01.16.31.33.75.49,1.18.62.43.13.88.16,1.3.13.07,0,.35.02.5.02.07.04.14.07.2.1.2.13.5.11.69.26.01.02.04.03.06.03.15.11.33.16.52.22.07.01.16.03.24.04.47.16,1.03.08,1.51.02.29,0,.55-.17.8-.3.01,0,.06.02.08.02.26.07.52.23.82.26.23.07.49.05.74.03.05,0,.11,0,.21-.04.4-.02.87-.11,1.23-.31.29-.11.56-.27.76-.48.22-.21.37-.47.64-.6.25-.04.51-.08.79-.13l.1-.04c.09-.02.21-.06.38-.12.75-.2,1.34-.82,1.65-1.45.5-.07.97-.32,1.35-.65.36-.35.67-.76.9-1.16.03-.05.21-.29.28-.42.07-.02.13-.06.19-.11.21-.16.43-.34.64-.48.17-.07.81-.98.81-.98.3-.45.45-1.02.4-1.53-.01-.12-.03-.26-.06-.38.4-.61,1.06-1.18,1.15-2,.02-.07.03-.16.02-.24.03-.22.03-.45-.04-.68,0-.02-.02-.03-.01-.05.45-.54.84-1.23.87-1.96,0-.04.02-.13-.02-.18-.09-.73-.07-1.34.21-2.06.14-.4.3-.79.2-1.24-.08-.52-.21-1.08-.57-1.46.14-.38.26-.8.27-1.22,0-.42-.06-.85-.21-1.26-.05-.2-.12-.38-.21-.55-.17-.51-.5-.98-.94-1.23-.11-.08-.21-.14-.33-.18-.23-.68-.2-1.53-.79-2.11-.04-.04-.1-.1-.16-.15,0-.01-.03-.03-.05-.05,0-.38-.03-.78-.14-1.15-.05-.19-.12-.37-.21-.55-.04-.09-.09-.17-.15-.26-.06-.09-.15-.21-.23-.31-.08-.14-.21-.24-.32-.35l-.25-.23c-.3-.33-.75-.54-1.2-.59-.07-.02-.14-.02-.2-.02-.39-.68-.46-1.06-1.31-1.57-.41-.08-.68-.66-.85-1.02-.15-.33-.26-.68-.56-.89-.34-.3-.72-.57-1.19-.63-.11-.73-.41-1.41-.96-1.88-.11-.11-.24-.22-.36-.33-.29-.33-.74-.53-1.2-.59-.11-.02-.23-.03-.34-.03-.4-.5-.56-1.23-1.17-1.57-.05-.04-.11-.08-.17-.1-.15-.1-.33-.19-.54-.22-.02,0-.04,0-.04,0-.2-.58-.43-1.21-.94-1.57-.03-.03-.08-.08-.13-.08-.54-.31-.95-.66-1.16-1.29-.15-.33-.25-.67-.55-.91-.34-.28-.72-.55-1.18-.63-.12-.72-.41-1.4-.96-1.88-.12-.12-.23-.23-.36-.33-.3-.34-.74-.56-1.19-.59-.11-.03-.22-.04-.34-.03-.38-.51-.54-1.23-1.16-1.59-.04-.03-.11-.06-.17-.09,0,0-.03-.02-.05-.04h-.01c-.31-.48-.56-1.02-1.07-1.43-1.14-.9-1.93-.91-1.93-.91-.38-.06-.83-.04-1.19.09-1.48.52-2.12,2.33-1.43,3.62l.35.66c.22.69.96,1.15,1.53,1.49l-.06.05c.24.74.89,1.24,1.5,1.58.05.04.24.17.34.25.02.06.05.12.09.17.07.19.26.34.29.54,0,.02,0,.04.01.05.02.16.1.29.18.43.04.05.09.1.12.15.18.37.53.64.84.88.17.16.4.24.63.31,0,.01.02.05.02.06.07.21.07.48.19.69.04.2.16.37.28.52.03.03.05.07.12.12.19.26.42.54.7.72.19.16.41.28.65.34.24.08.51.09.68.26.09.19.21.37.29.6l.05.07c.03.07.09.15.17.28.32.53.89.88,1.51,1,.16.89.91,1.42,1.59,1.8.04.03.23.18.34.25,0,.06.04.12.07.17.11.2.25.38.32.59.03.16.11.29.19.43.03.05.07.12.12.17.18.35.53.62.84.87.19.16.42.23.64.29,0,.02.01.05.02.06.07.23.08.48.2.69.03.21.17.37.29.53,0,.03.04.06.1.12.2.27.43.53.7.71.2.15.42.27.66.33.23.09.5.1.68.26.07.21.19.37.29.6,0,0,.04.08.05.07.04.08.08.16.14.25l.03.04c.44.62.97.82,1.37.96.08.18.27.32.29.53,0,.01.02.03.02.04.03.16.11.29.19.43.05.07,0,.05.03.07-.09.06.25.45.46.67.11.11.38.34.59.47,0,.35.11.65.28.91.15.27.35.51.56.73.03.04.15.2.22.29,0,.06,0,.11,0,.16-.03.17.08.35.01.52,0,.01-.02.04-.01.05-.05.13-.04.25-.03.39.01.05.03.1.04.15-.04.34.1.65.25.94.06.17.19.33.34.47,0,0-.02.04-.02.05-.07.18-.23.36-.25.54-.08.14-.11.31-.12.46,0,.03,0,.07,0,.13-.03.24-.02.52.04.76.02.18.09.37.22.54.12.18.28.34.27.54-.09.15-.15.31-.26.47l-.02.06c-.03.06-.06.12-.11.23-.22.44-.16.94.05,1.44-.64.42-.75,1.09-.82,1.73,0,.04-.07.23-.08.33-.03,0-.3-.03-.55.07-.26.11-.46.36-.51.97Z" fill="#f9c316"/>
          <path d="M30.89,215.26c.1-.37-.02-.8-.22-1.18-.04-.09-.09-.19-.15-.28.23-.54.72-.97.75-1.6,0-.06.02-.12.01-.18.02-.17.02-.34-.05-.54,0-.02-.02-.03-.01-.04.21-.19.42-.39.6-.61.2-.21.35-.45.41-.73.01-.03.04-.09.02-.14.06-.57.22-1.05.76-1.4.26-.21.55-.4.65-.7.02-.09,0-.15-.01-.21,0-.04-.03-.07-.03-.13.04-.11.07-.22.08-.33.72-.13,1.39-.44,1.86-1.01.12-.12.22-.24.32-.37.33-.31.54-.75.57-1.21.02-.12.04-.22.02-.34.5-.39,1.22-.56,1.57-1.2.03-.04.06-.11.08-.17,0,0,.02-.04.03-.05.67-.13,1.38-.35,1.81-.88.12-.12.22-.25.32-.37.33-.3.53-.76.57-1.21.02-.07.01-.14.02-.21.68-.4,1.05-.47,1.55-1.33.08-.41.65-.69,1.01-.86.33-.15.67-.27.89-.57.29-.34.56-.73.62-1.19.73-.12,1.4-.42,1.87-.99.11-.11.22-.25.32-.37.32-.29.53-.75.57-1.2.01-.11.03-.23.03-.34.49-.4,1.22-.57,1.55-1.19.03-.05.08-.11.1-.17.1-.16.19-.33.22-.54,0-.02,0-.04,0-.04.58-.21,1.21-.45,1.56-.96.03-.03.08-.08.08-.13.3-.55.65-.96,1.28-1.18.33-.15.66-.26.9-.56.28-.34.54-.73.61-1.18.72-.13,1.4-.43,1.87-.99.12-.12.23-.24.32-.37.33-.3.55-.75.58-1.2.02-.11.04-.22.03-.34.5-.39,1.22-.55,1.58-1.18.03-.04.06-.11.09-.17,0,0,.02-.03.03-.05h-.01c.25-.17.49-.33.75-.48.11-.07.28-.21.32-.24.01,0,.02-.01.02-.04-.06-.21-.03-1.02-.03-1.02.02-.34.07-.87.12-1.42.1-1.11.18-2.3-.11-2.94-.27-.66-.94-.75-1.81-.17l-.91.61c-.23.11-.46.28-.69.47-.11.1-.23.2-.34.31-.11.1-.24.24-.28.29-.24.29-.44.61-.6.9l-.05-.06c-.74.25-1.23.9-1.56,1.52-.04.05-.17.24-.24.34-.06.02-.12.06-.17.09-.19.07-.33.27-.54.3-.02,0-.04,0-.05.01-.16.03-.28.11-.43.19-.05.04-.1.09-.15.13-.36.18-.63.54-.87.85-.16.17-.23.41-.3.64-.01,0-.05.02-.06.02-.21.08-.48.08-.69.2-.2.04-.36.17-.52.28-.03.03-.07.05-.12.12-.25.19-.54.43-.71.7-.16.19-.28.42-.33.65-.07.24-.08.51-.25.69-.19.09-.37.21-.59.3l-.07.05c-.07.03-.15.09-.27.17-.53.33-.87.9-.98,1.52-.88.17-1.41.92-1.78,1.61-.03.04-.18.23-.24.35-.06,0-.12.04-.17.07-.19.11-.38.26-.58.33-.16.03-.28.11-.43.19-.05.03-.11.07-.17.12-.34.19-.61.54-.86.85-.16.19-.22.42-.29.65-.02,0-.05.02-.06.02-.23.08-.48.08-.68.2-.2.03-.37.18-.53.29-.03,0-.06.04-.12.1-.26.2-.52.44-.7.71-.15.2-.27.43-.32.66-.08.23-.09.5-.25.69-.2.07-.37.2-.59.3,0,0-.08.04-.07.05-.08.04-.16.08-.25.15l-.03.03c-.61.45-.81.98-.94,1.38-.18.08-.32.27-.53.29-.01,0-.03.02-.04.02-.16.03-.28.11-.42.19-.05.03-.11.07-.17.13-.34.19-.61.54-.85.85-.11.15-.33.49-.42.77-.74.26-1.22.91-1.55,1.53-.04.05-.17.24-.24.35-.06.02-.11.06-.17.09-.19.07-.33.27-.54.3-.02,0-.04,0-.05.02-.16.03-.28.11-.42.19-.05.04-.1.09-.15.13-.36.19-.63.54-.86.86-.16.17-.23.41-.29.64-.01,0-.05.02-.06.02-.22.09-.46.06-.71.23-.15.08-.31.18-.46.3-.15.11-.31.24-.39.41-.04.06-.09.14-.15.27-.07.11-.15.23-.22.35l-.15.24c-.09.16-.17.33-.22.5-.11.25-.17.52-.16.78-.02.26.06.54-.04.79-.15.16-.29.36-.48.54l-.05.08c-.06.06-.12.15-.21.29-.43.54-.51,1.3-.37,1.95-.78.59-.91,1.64-.91,2.49,0,.06-.05.32-.05.46-.05.04-.08.11-.11.17-.1.23-.18.48-.32.67-.12.13-.29,1.14-.29,1.14-.08.49.04,1.04.28,1.47.05.1.12.22.19.31-.14.68-.52,1.4-.35,2.15.01.07.02.15.05.22.05.2.12.41.26.59.01.01.03.03.03.04-.22.62-.48,1.35-.25,2.02,0,.04.02.12.06.16.26.64.39,1.21.28,1.93-.04.4-.13.79.03,1.19.19.46.42.93.8,1.24-.22.77-.14,1.58.21,2.32.06.18.15.33.25.48.19.46.56.86.99,1.07.1.07.2.13.32.15.26.63.23,1.43.78,1.98.04.04.1.09.16.14,0,.01.03.03.04.05,0,.7.05,1.53.54,2.09.1.15.22.28.33.42.13.21.3.39.5.53.13.12.26.22.41.34.17.1.34.17.5.23.1.05.15.02.22.04.4.68.46,1.06,1.32,1.57.41.08.68.66.85,1.02.15.33.26.68.56.89.34.3.73.57,1.19.63.11.73.41,1.41.97,1.88.11.11.24.22.36.32.29.33.74.53,1.2.59.11.02.23.03.34.03.4.49.56,1.23,1.18,1.57.05.03.11.08.17.1.15.1.33.19.54.22.02,0,.04,0,.04,0,.2.58.44,1.21.94,1.57.03.03.08.08.13.08.54.3.95.65,1.17,1.29.15.33.25.67.55.9.34.28.73.55,1.18.62.12.72.41,1.4.97,1.88.12.12.23.23.36.33.3.34.74.55,1.19.59.11.03.22.04.34.03.39.51.54,1.23,1.17,1.59.04.03.11.06.17.09,0,0,.03.02.05.04h.01c.32.48.56,1.02,1.07,1.42,1.15.9,1.93.91,1.93.91.38.06.83.03,1.19-.1,1.48-.52,2.11-2.33,1.42-3.63l-.35-.66c-.23-.69-.96-1.15-1.53-1.49l.06-.05c-.24-.74-.89-1.24-1.5-1.58-.05-.04-.24-.17-.34-.25-.02-.06-.05-.12-.09-.17-.07-.19-.26-.34-.29-.54,0-.02,0-.04-.01-.05-.02-.16-.11-.29-.19-.43-.04-.05-.09-.1-.12-.15-.18-.37-.53-.64-.84-.88-.17-.16-.41-.24-.63-.31,0-.01-.02-.05-.02-.06-.07-.21-.07-.48-.2-.69-.04-.2-.16-.36-.28-.52-.03-.03-.05-.07-.12-.12-.19-.26-.42-.54-.7-.71-.19-.16-.41-.28-.65-.34-.24-.08-.51-.09-.68-.26-.09-.19-.21-.37-.29-.6l-.05-.07c-.03-.07-.09-.15-.17-.28-.32-.53-.89-.88-1.51-1-.16-.89-.91-1.42-1.59-1.79-.04-.03-.23-.18-.34-.25,0-.06-.04-.12-.07-.17-.11-.2-.25-.38-.32-.59-.03-.16-.11-.29-.19-.43-.03-.05-.07-.12-.12-.17-.18-.35-.53-.62-.84-.86-.19-.16-.42-.22-.65-.29,0-.02-.01-.05-.02-.06-.07-.23-.08-.48-.2-.69-.03-.21-.17-.37-.29-.53,0-.03-.04-.06-.1-.12-.2-.26-.43-.53-.7-.71-.2-.15-.42-.27-.66-.33-.23-.08-.5-.1-.68-.25-.07-.2-.19-.37-.29-.6,0,0-.04-.08-.05-.07-.04-.08-.08-.16-.15-.25l-.03-.04c-.22-.31-.46-.52-.7-.66-.12-.07-.24-.13-.35-.18-.06,0-.11.03-.17.04.02-.04,0-.08-.02-.13-.03-.08-.07-.18-.06-.28,0-.01-.01-.03-.01-.04,0-.16-.05-.28-.09-.43-.02-.05-.05-.12-.08-.17-.11-.35-.38-.65-.6-.93-.11-.13-.38-.4-.61-.53-.06-.72-.47-1.31-.95-1.75-.04-.04-.17-.21-.23-.31,0-.06,0-.12-.02-.17,0-.18-.12-.37-.07-.56,0-.02.01-.04,0-.05.04-.15,0-.28-.01-.42-.02-.05-.04-.11-.06-.16-.01-.37-.2-.7-.38-1-.08-.19-.27-.33-.44-.46,0-.01,0-.05.01-.06.04-.2.17-.42.16-.63.06-.17.04-.35.02-.52,0-.03,0-.07-.04-.14-.05-.27-.06-.58-.2-.83-.07-.2-.19-.38-.36-.53-.16-.16-.37-.3-.41-.51.05-.18.06-.37.13-.57v-.07c.02-.07.03-.15.04-.28.06-.53-.09-1.06-.5-1.49.48-.66.35-1.41.17-2.08,0-.04,0-.26-.03-.37.02-.02.28-.1.47-.33.18-.23.28-.59.07-1.22Z" fill="#f9c316"/>
          <path d="M73.05,195.24c.12.15.39.16.71.07.07-.02.16-.04.24-.08.15.24.07.71.42.77.03.01.06.02.1.02.08.03.18.04.33,0,.01,0,.03-.01.03,0-.01.35-.02.73.25.84.01.01.03.03.07.02.31.06.51.19.49.58.02.19,0,.4.15.48.17.1.37.18.68.1-.11.48-.08.88.19,1.05.05.05.11.09.17.13.13.15.39.18.71.07.08-.02.15-.04.24-.08.14.25.05.72.41.79.02,0,.06.01.1.01,0,0,.02,0,.03.01-.1.44-.15.89.11,1.05.05.05.12.09.17.13.12.15.39.17.7.07.05,0,.1-.03.14-.04.09.37.04.62.51.74.27-.06.31.27.33.49.02.19,0,.41.15.48.16.12.37.2.68.11-.12.49-.1.89.17,1.06.05.05.12.09.17.13.12.15.39.17.7.08.07-.02.16-.04.24-.08.15.24.06.71.41.78.03.01.06.02.1.03.08.03.18.04.33,0,.01,0,.03-.01.03,0-.02.36-.02.74.24.85.01.01.03.03.07.02.31.06.5.2.48.58.01.19,0,.4.14.49.17.1.37.19.68.11-.12.48-.1.88.17,1.06.05.05.11.1.17.13.18.21.24.05.5-.12.06-.04.11-.08.19-.12-.01.1-.36.32-.15.24.02,0,.04-.01.07-.02h.01s.02-.01.02-.01c-.09.08-.3.15-.19.14.24-.03,1.03-.01,1.03-.01.36.01.85.03,1.35.05,1.04.05,2.18.08,2.99-.04.81-.12,1.27-.41,1.19-.79l-.09-.4c.05-.4-.63-.81-1.11-1.06l.08-.03c0-.5-.57-.91-1.07-1.12-.04-.02-.19-.12-.26-.17,0-.05-.03-.09-.05-.13-.02-.14-.19-.26-.17-.41,0-.01,0-.03,0-.03.03-.11,0-.17-.01-.25l-.05-.07c-.03-.21-.2-.31-.36-.39-.08-.07-.23-.05-.37-.04,0,0,0-.03,0-.04,0-.13.08-.32.05-.43.03-.13-.02-.21-.05-.29-.01-.01-.02-.04-.05-.05-.06-.13-.15-.26-.3-.31-.09-.06-.22-.08-.38-.06-.15.01-.34.08-.42.01-.01-.11-.05-.21-.04-.34l-.02-.04s-.02-.08-.05-.15c-.08-.29-.4-.37-.81-.28.13-.58-.26-.75-.65-.82-.02,0-.11-.07-.18-.08.01-.04,0-.07,0-.1-.03-.11-.08-.2-.07-.33.03-.11,0-.17-.02-.25,0-.03-.02-.06-.04-.08-.04-.19-.21-.29-.36-.38-.09-.06-.24-.04-.38-.02,0-.01,0-.03,0-.04.01-.14.08-.32.05-.43.03-.14-.02-.22-.06-.3,0-.02-.01-.03-.04-.06-.07-.13-.16-.25-.31-.31-.1-.05-.23-.07-.39-.04-.14,0-.33.07-.42.01,0-.13-.03-.21-.05-.34,0,0,0-.05-.02-.04,0-.05-.01-.09-.04-.14v-.02c-.16-.31-.49-.31-.74-.29,0-.1-.1-.15-.06-.3,0,0,0-.02,0-.02.03-.11,0-.17-.02-.25,0-.03-.02-.06-.04-.08-.04-.19-.21-.29-.37-.37-.07-.04-.26-.1-.43-.09.03-.46-.31-.62-.66-.68-.03-.01-.13-.05-.18-.08,0-.04,0-.07-.02-.09,0-.11-.1-.16-.06-.3,0-.01,0-.03,0-.03.03-.11,0-.17-.02-.25-.02-.02-.03-.05-.05-.07-.03-.21-.21-.3-.37-.38-.08-.06-.23-.05-.38-.03,0,0,0-.03,0-.04,0-.13.08-.32.05-.43.02-.13-.02-.21-.06-.29-.01-.01-.02-.04-.05-.05-.07-.13-.16-.26-.31-.31-.09-.06-.22-.08-.38-.05-.15.01-.34.08-.42.01-.01-.11-.05-.2-.05-.34l-.02-.04s-.02-.08-.05-.15c-.09-.29-.4-.37-.82-.27.12-.58-.27-.75-.66-.81-.02,0-.12-.06-.18-.08.01-.04,0-.07,0-.1-.03-.11-.08-.2-.07-.32.03-.11-.27-.37-.27-.37-.12-.15-.39-.16-.71-.07-.07.02-.16.04-.24.08-.15-.24-.07-.71-.42-.77-.03-.01-.06-.02-.1-.02-.08-.03-.18-.04-.33,0-.01,0-.03.01-.03,0,.01-.35.02-.73-.25-.84-.01-.01-.03-.03-.07-.02-.31-.06-.51-.19-.49-.58-.02-.19,0-.4-.15-.48-.17-.1-.37-.18-.68-.1.11-.48.08-.88-.19-1.05-.05-.05-.11-.09-.17-.13-.13-.15-.39-.18-.71-.07-.08.02-.15.04-.24.08-.14-.25-.05-.72-.41-.79-.02,0-.06-.01-.1-.01,0,0-.02,0-.03,0,.1-.44.15-.89-.11-1.05-.05-.05-.12-.09-.17-.13-.12-.15-.39-.17-.7-.07-.05,0-.1.03-.14.04-.09-.37-.04-.62-.51-.74-.27.06-.31-.27-.33-.49-.02-.19,0-.41-.15-.48-.16-.12-.37-.2-.68-.11.12-.49.1-.89-.17-1.06-.05-.05-.12-.09-.17-.13-.12-.15-.39-.17-.7-.08-.07.02-.16.04-.24.08-.15-.24-.06-.71-.41-.78-.03-.01-.06-.02-.1-.03-.08-.03-.18-.04-.33,0-.01,0-.03.01-.03,0,.02-.36.02-.74-.24-.85-.01-.01-.03-.03-.07-.02-.31-.06-.5-.2-.48-.58-.01-.19,0-.4-.14-.49-.17-.1-.37-.19-.68-.11.12-.48.1-.88-.17-1.06-.05-.05-.11-.1-.17-.13-.03-.04-.07-.07-.12-.09-.05-.03-.16-.1-.24-.13-.18-.08-.38-.11-.57-.09-.1,0-.19,0-.28.03-.29-.4-.45-1.13-.95-1.36-.03-.02-.09-.03-.13-.04,0,0-.03,0-.04-.02v.02c-.28-.44-.54-1-.95-1.29-.91-.65-1.24-.2-1.24-.2-.18.14-.34.46-.42.88-.16.84-.11,2.02-.05,3.02.07,1.01.12,1.82.17,2.17l.05.35c0,.45.11.28.26.19l-.03.08c-.07.42.02.35.22.27.01,0,.06,0,.09-.01-.01.03-.01.05-.02.06-.04.08.01.08-.06.19,0,.01-.02.02-.02.02-.03.11,0,.17.01.25l.05.07c.03.21.2.31.36.39.08.07.23.05.37.04,0,0,0,.03,0,.04,0,.13-.08.32-.05.43-.03.13.02.21.05.29.01.01.02.04.05.05.06.13.15.26.3.31.09.06.22.08.38.06.15-.01.34-.08.42-.01.01.11.05.21.04.34l.02.04s.02.08.05.15c.08.29.4.37.81.28-.13.58.26.75.65.82.02,0,.11.07.18.08-.01.04,0,.07,0,.1.03.11.08.2.07.33-.03.11,0,.17.02.25,0,.03.02.06.04.08.04.19.21.29.36.38.09.06.24.04.38.02,0,.01,0,.03,0,.04-.01.14-.08.32-.05.43-.03.14.02.22.06.3,0,.02.01.03.04.06.07.13.16.25.31.31.1.05.23.07.39.04.14,0,.33-.07.42-.01,0,.13.03.21.05.34,0,0,0,.05.02.04,0,.05.01.09.04.14v.02c.16.31.49.31.74.29,0,.1.1.15.06.3,0,0,0,.02,0,.02-.03.11,0,.17.02.25,0,.03.02.06.04.08.04.19.21.29.37.37.07.04.26.1.43.09-.03.46.31.62.66.68.03.01.13.05.18.08,0,.04,0,.07.02.09,0,.11.1.16.06.3,0,.01,0,.03,0,.03-.03.11,0,.17.02.25.02.02.03.05.05.07.03.21.21.3.37.38.08.06.23.05.38.03,0,0,0,.03,0,.04,0,.13-.08.32-.05.43-.02.13.02.21.06.29.01.01.02.04.05.05.07.13.16.26.31.31.09.06.22.08.38.05.15-.01.34-.08.42-.01.01.11.05.2.05.34l.02.04s.02.08.05.15c.09.29.4.37.82.27-.12.58.27.75.66.81.02,0,.12.06.18.08-.01.04-.56.86.35.79Z" fill="#f9c316"/>
        </g>
        <g>
          <path d="M135.94,41.84c-.04.49.11,1.01.38,1.42.06.1.13.21.21.3-.12.72-.47,1.41-.42,2.17,0,.07,0,.15.02.22,0,.21.04.42.14.63.01.02.02.03.02.04-.35.59-.72,1.23-.71,1.92,0,.04-.02.12,0,.17,0,.69-.1,1.29-.54,1.88-.21.34-.46.63-.51,1.06-.05.5-.2.99-.06,1.47-.63.51-1.13,1.13-1.34,1.92-.06.18-.14.34-.19.51-.23.44-.3.97-.2,1.45.01.13.03.24.07.36-.38.61-1,1.08-1.26,1.83-.02.05-.04.14-.05.21,0,.01-.01.04-.02.06-.66.36-1.33.78-1.66,1.47-.09.16-.18.32-.28.46-.31.39-.48.9-.48,1.38-.01.08,0,.15,0,.22-.69.56-.99.75-1.55,1.69-.08.44-.7.81-1.08,1.02-.35.2-.7.35-.93.7-.35.36-.67.77-.78,1.26-.8.13-1.5.47-2.09,1.02-.14.1-.28.23-.41.35-.4.27-.7.72-.85,1.19-.04.11-.08.24-.1.35-.59.4-1.42.44-1.95.99-.05.05-.12.1-.16.16-.16.14-.3.3-.4.51,0,.02-.01.04-.02.04-.67.1-1.37.24-1.94.61-.04.02-.11.05-.13.1-.52.45-1.05.75-1.77.78-.39.05-.76.06-1.14.23-.44.21-.89.46-1.18.86-.78-.18-1.54-.11-2.31.11-.18.04-.35.1-.51.16-.48.1-.93.39-1.24.77-.09.09-.17.18-.23.29-.7.14-1.47-.22-2.19.11-.05.02-.13.06-.19.09-.01,0-.04.02-.07.02v.02c-.65-.03-1.27-.1-1.98.03-1.58.26-2.19.85-2.19.85-.34.25-.67.6-.86.96-.78,1.46.21,3.13,2.05,3.45l.93.16c.86.32,1.92-.08,2.7-.37v.08c.94.19,1.97-.02,2.76-.44.07-.03.35-.14.5-.2.08,0,.16,0,.24,0,.24.02.54-.09.78-.02.02,0,.05.02.07.01.19.05.38.03.59.02.08-.01.17-.03.25-.05.52-.01,1.06-.17,1.51-.42.28-.11.51-.32.72-.52.01,0,.07,0,.08,0,.28,0,.58.09.88.04.24.03.51-.04.75-.1.04-.02.11-.02.21-.07.4-.1.87-.22,1.2-.48.28-.16.53-.36.72-.6.21-.23.36-.5.64-.65.25-.05.53-.13.82-.17l.11-.03c.1-.02.22-.06.4-.11.78-.2,1.4-.84,1.78-1.48,1.07-.08,2.03-.78,2.64-1.57.04-.05.28-.25.38-.38.07,0,.14-.04.22-.07.26-.12.51-.28.77-.35.19-.03.36-.12.55-.21.07-.04.16-.08.23-.14.47-.19.85-.63,1.2-1,.22-.23.34-.5.46-.77.02,0,.06-.02.08-.03.28-.11.57-.14.83-.3.25-.06.47-.24.67-.39.03-.01.08-.05.16-.13.35-.25.65-.6.9-.94.19-.26.35-.55.43-.84.12-.28.15-.59.34-.84.24-.12.44-.3.7-.47,0,0,.09-.06.08-.07.09-.07.2-.12.29-.23l.04-.05c.68-.71.89-1.39,1.03-1.89.2-.15.34-.41.58-.51.01,0,.04-.03.05-.04.18-.08.32-.22.47-.36.06-.06.13-.12.18-.2.35-.35.59-.88.82-1.34.1-.22.3-.71.36-1.06.38-.3.69-.69.91-1.12.2-.44.34-.91.43-1.35.02-.08.12-.36.16-.52.06-.06.1-.12.15-.19.18-.18.28-.48.48-.62.02,0,.04-.03.05-.05.16-.12.27-.28.39-.45.04-.07.08-.15.12-.22.3-.42.43-.99.55-1.49.09-.29.08-.6.06-.89,0-.01.04-.05.05-.06.18-.22.44-.39.6-.66.18-.17.3-.42.41-.65.02-.04.04-.1.06-.21.15-.39.3-.85.33-1.27.06-.32.06-.65,0-.94-.04-.31-.16-.6-.09-.9.13-.23.24-.49.4-.75.02-.03.02-.07.03-.11.04-.09.07-.21.13-.39.26-.76.22-1.63-.04-2.33.31-.45.5-.97.54-1.5.02-.54-.05-1.08-.14-1.57,0-.06-.02-.38-.05-.54.04-.06.06-.14.08-.22.07-.28.11-.58.22-.83.12-.17.11-1.35.08-1.35-.01-.57-.22-1.17-.53-1.61-.07-.11-.16-.23-.24-.32,0-.8.42-1.68.04-2.51-.02-.08-.05-.17-.09-.24-.07-.23-.17-.45-.33-.65-.02-.01-.03-.03-.03-.04.15-.74.29-1.58.06-2.34,0-.05-.02-.14-.07-.18-.37-.71-.58-1.36-.5-2.19,0-.46.06-.9-.11-1.36-.17-.54-.51-1.07-.92-1.43.13-.87.06-1.81-.34-2.68-.07-.21-.18-.39-.29-.57-.24-.54-.65-1.01-1.12-1.28-.11-.09-.22-.16-.34-.2-.29-.76-.27-1.69-.94-2.35-.04-.05-.11-.12-.18-.17,0-.01-.04-.03-.05-.06-.05-.81-.2-1.74-.73-2.46-.11-.2-.26-.35-.39-.5-.34-.48-.85-.87-1.34-1.05-.08-.04-.16-.06-.23-.09-.45-.89-.47-1.41-1.52-2.16-.47-.17-.84-.89-1.07-1.34-.21-.41-.38-.84-.74-1.15-.46-.37-.97-.72-1.51-.83-.29-.83-.77-1.67-1.56-2.22-.16-.13-.36-.24-.53-.36-.45-.36-1.04-.58-1.58-.63-.13-.01-.28-.03-.4-.02-.6-.56-1.09-1.32-1.95-1.6-.07-.03-.16-.07-.24-.09-.22-.09-.46-.16-.71-.16-.02,0-.04,0-.05,0-.48-.59-1.02-1.28-1.8-1.5-.04-.02-.13-.06-.19-.05-.78-.18-1.42-.44-2.01-1.04-.35-.31-.65-.64-1.14-.75-.56-.16-1.16-.29-1.7-.19-.6-.65-1.35-1.28-2.31-1.42-.22-.06-.42-.1-.63-.13-.57-.17-1.2-.16-1.7.02-.14.03-.26.07-.37.13-.76-.31-1.52-.76-2.44-.72-.07,0-.16.01-.25.03-.02,0-.05,0-.08,0v.02c-.72-.21-1.42-.57-2.27-.55-1.91.09-2.63.61-2.63.61-.41.21-.78.53-.99.87-.82,1.38.24,3.15,1.8,3.65l.81.25c.71.31,1.67.3,2.42.24v.08c.72.48,1.64.43,2.42.45.07,0,.33.03.47.05.06.04.12.08.19.11.18.13.46.17.61.33,0,.02.03.04.05.04.12.13.27.2.43.28.06.02.14.05.21.07.38.24.89.27,1.31.39.25.08.52.06.78.03,0,0,.05.04.05.05.19.17.33.42.55.56.14.17.35.27.54.37.04.01.08.05.18.07.31.17.69.31,1.03.42.25.1.53.15.8.13.27,0,.55-.07.8.05.17.16.37.3.55.49l.08.05c.06.06.15.12.29.22.56.41,1.22.69,1.92.67.46.88,1.43,1.21,2.21,1.57.05.02.29.17.42.22.02.07.07.12.11.17.16.19.36.37.47.58.06.16.18.28.29.42.05.05.1.11.17.16.28.32.67.61,1.03.87.22.17.47.24.72.31,0,.02.02.06.03.07.11.25.14.51.29.72.06.21.23.39.37.55.01.03.05.06.12.13.25.27.47.59.76.8.21.18.45.32.7.41.24.11.53.15.73.34.08.22.21.41.32.66,0,0,.04.09.05.08.05.09.09.17.15.28l.03.04c.41.75.94,1.06,1.35,1.29.07.2.25.39.26.62,0,.01.02.04.02.05.01.17.09.32.16.48.03.06.07.14.11.2.13.42.43.8.7,1.15.13.16.43.5.7.68.06.43.24.8.45,1.16.19.37.44.7.7,1,.04.06.19.27.27.39,0,.07.02.14.04.21.02.22.17.45.14.67,0,.02,0,.05,0,.06-.02.17.02.33.06.5.03.06.06.14.08.2.05.45.26.88.47,1.27.1.24.29.43.48.61,0,.01,0,.06,0,.07,0,.25-.11.51-.08.77-.04.21.01.43.06.64.02.04.01.09.05.18.04.35.11.75.27,1.07.09.25.23.5.42.69.17.21.41.38.49.64-.01.23,0,.47-.02.73,0,.03,0,.06,0,.1-.01.09-.01.2-.02.36-.04.69.23,1.37.69,1.89-.19.45-.18.91-.13,1.37.03.46.15.91.29,1.32.02.05.05.33.1.46-.06.07-.93.59-.24,2.08Z" fill="#f9c316"/>
          <path d="M65.12,41.05c.04-.49-.11-1.01-.38-1.42-.06-.1-.13-.21-.21-.3.12-.72.47-1.41.42-2.17,0-.07,0-.15-.02-.22,0-.21-.04-.42-.14-.63-.01-.02-.02-.03-.02-.04.35-.59.72-1.23.71-1.92,0-.04.02-.12,0-.17,0-.69.1-1.29.54-1.88.21-.34.46-.63.51-1.06.05-.5.2-.99.06-1.47.63-.51,1.13-1.13,1.34-1.92.06-.18.14-.34.19-.51.23-.44.3-.97.2-1.45-.01-.13-.03-.24-.07-.36.38-.61,1-1.08,1.26-1.83.02-.05.04-.14.05-.21,0-.01.01-.04.02-.06.66-.36,1.33-.78,1.66-1.47.09-.16.18-.32.28-.46.32-.39.48-.9.48-1.38.01-.08,0-.15,0-.22.69-.56.99-.75,1.55-1.69.08-.44.7-.81,1.08-1.02.35-.2.7-.35.93-.7.35-.36.67-.77.78-1.26.8-.13,1.5-.47,2.09-1.02.14-.1.28-.23.41-.35.4-.27.7-.72.85-1.19.04-.11.08-.24.1-.35.59-.4,1.42-.44,1.95-.99.05-.05.11-.1.16-.16.16-.14.3-.3.4-.51,0-.02.01-.04.02-.04.67-.1,1.37-.24,1.94-.61.04-.02.11-.05.13-.1.52-.45,1.05-.75,1.77-.78.39-.05.76-.06,1.14-.23.44-.21.89-.46,1.18-.86.78.18,1.54.11,2.31-.11.18-.04.35-.1.51-.16.48-.1.93-.39,1.24-.77.09-.09.17-.18.23-.29.7-.14,1.47.22,2.19-.11.05-.02.13-.06.19-.09.01,0,.04-.02.07-.02v-.02c.65.03,1.27.1,1.98-.03,1.58-.26,2.19-.85,2.19-.85.34-.25.67-.6.86-.97.78-1.46-.21-3.13-2.05-3.45l-.93-.16c-.86-.32-1.92.08-2.7.37v-.08c-.94-.19-1.97.02-2.76.44-.07.03-.35.14-.5.2-.08,0-.16,0-.24,0-.24-.02-.54.09-.78.02-.02,0-.05-.02-.07-.01-.19-.05-.38-.03-.59-.02-.08.01-.17.03-.25.05-.52.01-1.06.17-1.51.42-.28.11-.51.32-.72.52-.01,0-.07,0-.08,0-.28,0-.58-.09-.88-.04-.24-.03-.51.04-.75.1-.04.02-.11.02-.21.07-.4.1-.87.22-1.2.48-.28.16-.53.36-.72.6-.21.23-.36.5-.64.65-.25.05-.53.13-.82.17l-.11.03c-.1.02-.22.06-.4.11-.78.2-1.4.84-1.78,1.48-1.07.08-2.03.78-2.64,1.57-.04.05-.28.25-.38.38-.07,0-.14.04-.21.07-.26.12-.51.28-.77.35-.19.03-.36.12-.55.21-.07.04-.16.08-.23.14-.47.19-.85.63-1.2,1-.22.23-.34.5-.46.77-.02,0-.06.02-.08.03-.28.11-.57.14-.83.3-.25.06-.47.24-.67.39-.03.01-.08.05-.16.13-.35.25-.65.6-.9.94-.19.26-.35.55-.43.84-.12.28-.15.59-.34.84-.24.12-.44.3-.7.47,0,0-.09.06-.08.07-.09.07-.2.12-.29.23l-.04.05c-.68.71-.89,1.39-1.03,1.89-.2.15-.34.41-.58.51-.01,0-.04.03-.05.04-.18.08-.32.22-.47.36-.06.06-.13.12-.18.2-.35.35-.59.88-.82,1.34-.1.22-.3.71-.36,1.06-.38.3-.69.69-.91,1.12-.2.44-.34.91-.43,1.35-.02.08-.12.36-.16.52-.06.06-.1.12-.15.19-.18.18-.28.48-.48.62-.02,0-.04.03-.05.05-.16.12-.27.28-.39.45-.04.07-.08.15-.12.22-.3.42-.43.99-.55,1.49-.09.29-.08.6-.06.89,0,.01-.04.05-.05.06-.18.22-.44.39-.6.66-.18.17-.3.42-.41.65-.02.04-.05.1-.06.21-.15.39-.3.85-.33,1.27-.06.32-.06.65,0,.94.04.31.16.6.09.9-.13.23-.24.49-.4.75-.02.03-.02.07-.03.11-.04.09-.07.21-.13.39-.26.76-.22,1.63.04,2.33-.31.45-.5.97-.54,1.5-.02.54.05,1.08.14,1.57,0,.06.02.38.05.54-.04.06-.06.14-.08.22-.07.28-.11.58-.22.83-.12.17-.11,1.35-.08,1.35.01.57.22,1.17.53,1.61.07.11.16.23.24.32,0,.8-.42,1.68-.04,2.51.02.08.05.17.09.24.07.23.17.45.33.65.02.01.03.03.03.04-.15.74-.29,1.58-.06,2.34,0,.05.02.14.07.18.37.71.58,1.36.5,2.19,0,.46-.06.9.11,1.36.17.54.51,1.07.92,1.43-.13.87-.06,1.81.34,2.68.07.21.18.39.29.57.24.54.65,1.01,1.12,1.28.11.09.22.16.34.2.29.76.27,1.69.94,2.35.04.05.11.12.18.17,0,.01.04.03.05.06.05.81.2,1.74.73,2.46.11.2.26.35.39.5.34.48.85.87,1.34,1.05.08.04.16.06.23.09.45.89.47,1.41,1.52,2.16.47.17.84.89,1.07,1.34.21.41.38.84.74,1.15.46.37.97.72,1.51.83.29.83.77,1.67,1.56,2.22.16.13.36.24.53.36.45.36,1.04.58,1.58.63.13.01.27.03.4.02.6.56,1.09,1.32,1.95,1.6.07.03.16.07.24.09.22.09.46.16.71.16.02,0,.04,0,.05,0,.48.59,1.02,1.28,1.8,1.5.04.02.13.06.19.05.78.18,1.42.44,2.01,1.04.35.31.65.64,1.14.75.56.16,1.16.29,1.7.19.6.65,1.35,1.28,2.31,1.42.22.06.42.1.63.13.57.17,1.2.16,1.7-.02.14-.03.26-.07.37-.13.76.31,1.52.76,2.44.72.07,0,.16-.01.25-.03.02,0,.05,0,.08,0v-.02c.72.21,1.42.57,2.27.55,1.91-.09,2.63-.61,2.63-.61.41-.21.78-.53.99-.87.82-1.38-.24-3.15-1.8-3.65l-.81-.25c-.71-.31-1.67-.3-2.42-.24v-.08c-.72-.48-1.64-.43-2.42-.45-.07,0-.33-.03-.47-.05-.06-.04-.12-.08-.19-.11-.18-.13-.46-.17-.61-.33,0-.02-.03-.04-.05-.04-.12-.13-.27-.2-.43-.28-.06-.02-.14-.05-.21-.07-.38-.24-.89-.27-1.31-.39-.25-.08-.52-.06-.78-.03,0,0-.05-.04-.05-.05-.19-.17-.33-.42-.55-.56-.14-.17-.35-.27-.54-.37-.04-.01-.08-.05-.18-.07-.31-.17-.69-.31-1.03-.42-.25-.1-.53-.15-.8-.13-.27,0-.55.07-.8-.05-.17-.16-.37-.3-.55-.49l-.08-.05c-.06-.06-.15-.12-.29-.22-.55-.41-1.22-.69-1.92-.67-.46-.88-1.43-1.21-2.21-1.57-.05-.02-.29-.17-.42-.22-.02-.07-.07-.12-.11-.17-.16-.19-.36-.37-.47-.58-.06-.16-.18-.28-.29-.42-.05-.05-.1-.11-.17-.16-.28-.32-.67-.61-1.03-.87-.22-.17-.47-.24-.72-.31,0-.02-.02-.06-.03-.07-.11-.25-.14-.51-.29-.72-.06-.21-.23-.39-.37-.55-.01-.03-.05-.06-.12-.13-.25-.27-.47-.59-.76-.8-.21-.18-.45-.32-.7-.41-.24-.11-.53-.15-.73-.34-.08-.22-.21-.41-.32-.66,0,0-.04-.09-.05-.08-.05-.09-.09-.17-.15-.28l-.03-.04c-.41-.75-.94-1.06-1.35-1.29-.07-.2-.25-.39-.26-.62,0-.01-.02-.04-.02-.05-.01-.17-.09-.32-.16-.48-.03-.06-.07-.14-.11-.2-.13-.42-.43-.8-.7-1.15-.13-.16-.43-.5-.7-.68-.06-.43-.24-.8-.45-1.16-.19-.37-.44-.7-.7-1-.04-.06-.19-.27-.27-.39,0-.07-.02-.14-.04-.21-.02-.22-.17-.45-.14-.67,0-.02,0-.05,0-.06.02-.17-.02-.33-.06-.5-.03-.06-.06-.14-.08-.2-.05-.45-.26-.88-.47-1.27-.1-.24-.29-.43-.48-.61,0-.01,0-.06,0-.07,0-.25.11-.51.08-.77.04-.21-.01-.43-.06-.64-.02-.04-.01-.09-.05-.18-.04-.35-.11-.75-.27-1.07-.09-.25-.23-.5-.42-.69-.17-.21-.41-.38-.49-.64.01-.23,0-.47.02-.73,0-.03,0-.06,0-.1.02-.09.01-.2.02-.36.04-.69-.23-1.37-.69-1.89.19-.45.18-.91.13-1.37-.03-.46-.15-.91-.29-1.32-.02-.05-.05-.33-.1-.46.06-.07.93-.59.24-2.08Z" fill="#f9c316"/>
        </g>
      </g>
    </g>
  </g>
</svg>