<?xml version="1.0" encoding="UTF-8"?>
<svg id="Layer_2" data-name="Layer 2" xmlns="http://www.w3.org/2000/svg" viewBox="0 0 246.46 276.46">
  <g id="Layer_1-2" data-name="Layer 1">
    <g>
      <path d="M196.59,0c-9.42,0-17.06,7.64-17.06,17.06s7.64,17.06,17.06,17.06,17.06-7.64,17.06-17.06S206.01,0,196.59,0ZM196.59,26.54c-5.24,0-9.48-4.24-9.48-9.48s4.24-9.48,9.48-9.48,9.48,4.24,9.48,9.48-4.24,9.48-9.48,9.48Z" fill="#f9c215"/>
      <path d="M46.3,73.6c-2.11,0-4.2.44-6.12,1.31-8.53,3.79-12.23,14.79-8.25,24.65,2.61,6.96,9.14,11.68,16.57,11.96,2.11,0,4.2-.44,6.12-1.31,8.53-3.79,12.23-14.79,8.25-24.55-2.58-7-9.12-11.75-16.57-12.06ZM51.53,103.29c-.95.43-1.99.65-3.03.64-4.33-.35-8.05-3.23-9.48-7.34-2.41-5.88-.44-12.65,4.3-14.77.95-.43,1.99-.65,3.03-.64,4.34.36,8.05,3.24,9.48,7.36,2.41,5.92.44,12.63-4.3,14.75Z" fill="#f9c215"/>
      <path d="M79.63,268.88v-7.58c0-.34-.04-.67-.09-1,2.39-1.33,3.87-3.85,3.89-6.58v-7.58c0-4.19-3.4-7.58-7.58-7.58h-9.06l6.26-59.51c.58-.82.9-1.8.91-2.81v-51.96c-.13-5.6-2.95-10.8-7.58-13.95-1.63,2.08-3.61,3.86-5.84,5.27,3.37,1.63,5.59,4.95,5.84,8.68v49.82h-34.13v-49.82c.17-3.35,2-6.39,4.87-8.11-2.32-1.26-4.44-2.88-6.28-4.78-3.85,3.19-6.11,7.9-6.18,12.89v51.96c.02,1.52.71,2.96,1.9,3.92v58.39h-15.17c-4.19,0-7.58,3.4-7.58,7.58v7.58c0,.34.04.67.09,1-2.39,1.33-3.87,3.85-3.89,6.58v7.58c0,4.19,3.4,7.58,7.58,7.58h64.46c4.19,0,7.58-3.4,7.58-7.58ZM56.15,181.67h8.99l-5.99,56.88h-6.65l3.66-56.88ZM34.13,181.67h14.43l-3.66,56.88h-10.77v-56.88ZM11.38,246.13h64.46v7.58H11.38v-7.58ZM7.58,268.88v-7.58h64.46v7.58H7.58Z" fill="#f9c215"/>
      <path d="M174.42,199.94h64.46c4.19,0,7.58-3.4,7.58-7.58v-7.58c-.02-2.73-1.5-5.25-3.89-6.58.05-.33.09-.67.09-1v-7.58c0-4.19-3.4-7.58-7.58-7.58h-15.17v-58.39c1.18-.96,1.87-2.4,1.9-3.92v-51.96c-.07-4.99-2.33-9.71-6.18-12.89-1.84,1.9-3.95,3.51-6.28,4.78,2.88,1.72,4.7,4.77,4.87,8.11v49.82h-34.13v-49.82c.24-3.73,2.47-7.05,5.84-8.68-2.23-1.41-4.21-3.19-5.84-5.27-4.63,3.16-7.45,8.35-7.58,13.95v51.96c.01,1.01.33,1.98.91,2.81l6.26,59.51h-9.06c-4.19,0-7.58,3.4-7.58,7.58v7.58c.02,2.73,1.5,5.25,3.89,6.58-.05.33-.09.67-.09,1v7.58c0,4.19,3.4,7.58,7.58,7.58ZM193.96,162.03h-6.65s-5.99-56.88-5.99-56.88h8.99s3.66,56.88,3.66,56.88ZM212.33,162.03h-10.77s-3.66-56.88-3.66-56.88h14.43v56.88ZM235.08,177.19h-64.46v-7.58h64.46v7.58ZM174.42,192.36v-7.58h64.46v7.58h-64.46Z" fill="#f9c215"/>
      <path d="M188.77,193.04h-18.14c-3.98-.01-7.29,3.05-7.58,7.01,2.69,1.16,5.23,2.62,7.58,4.36v-3.79h64.46v7.58h-5.69s-54.49,0-54.47,0c.61.63,1.19,1.27,1.74,1.9,1.49,1.77,2.83,3.68,3.98,5.69h48.74v7.58h-45.35c.78,2.47,1.3,5.01,1.55,7.58h43.79c4.19,0,7.58-3.4,7.58-7.58v-7.85c3.34-.86,5.68-3.87,5.69-7.32v-7.58c0-4.19-3.4-7.58-7.58-7.58h-5.69M203.44,193.04h-7.05M221.81,193.04h-10.77" fill="#f9c215"/>
      <path d="M117.54,234.75c0,16.75,13.58,30.33,30.33,30.33s30.33-13.58,30.33-30.33-13.58-30.33-30.33-30.33-30.33,13.58-30.33,30.33ZM147.88,212c12.56,0,22.75,10.19,22.75,22.75s-10.19,22.75-22.75,22.75-22.75-10.19-22.75-22.75,10.19-22.75,22.75-22.75Z" fill="#f9c215"/>
      <path d="M81.34,230.96c1.05,0,1.9-.85,1.9-1.9v-.49c.28-.07.55-.16.82-.27,2.27-.8,3.52-3.23,2.84-5.55-.83-2.52-3.17-3.18-4.87-3.65-1.03-.28-2.01-.56-2.33-1.08-.17-.29-.17-.65,0-.95.39-.59,1.55-.72,2.45-.56.3.06.59.19.84.37.86.6,2.04.38,2.64-.48.6-.86.38-2.04-.48-2.64h0c-.56-.39-1.18-.68-1.84-.86v-.91c0-1.05-.85-1.9-1.9-1.9s-1.9.85-1.9,1.9v.86c-1.21.3-2.27,1.03-2.98,2.06-.99,1.56-.99,3.54,0,5.1,1.11,1.78,3.01,2.31,4.54,2.74s2.11.64,2.28,1.17-.46.79-.68.87c-1.07.38-2.27.14-3.11-.63-.74-.74-1.94-.74-2.68,0-.74.74-.74,1.94,0,2.68.03.03.07.06.1.09.73.68,1.61,1.19,2.56,1.49v.64c0,1.01.79,1.85,1.8,1.9Z" fill="#f9c215"/>
      <path d="M238.88,253.71v-7.58c0-4.19-3.4-7.58-7.58-7.58h-45.69c-.26,2.57-.78,5.12-1.55,7.58h47.24v7.58h-50.64c-1.57,2.75-3.48,5.3-5.69,7.58h50.64v7.58h-61.31c-3.16,1.53-6.53,2.61-9.99,3.2,1.24,2.66,3.91,4.37,6.84,4.38h64.46c4.19,0,7.58-3.4,7.58-7.58v-7.85c3.34-.86,5.68-3.87,5.69-7.32Z" fill="#f9c215"/>
      <path d="M146.83,239.05c2.37.78,2.73,1.04,2.9,1.69.1.54-.17,1.08-.66,1.31-1.15.42-2.44.06-3.2-.89-1.4-1.57-3.81-1.71-5.38-.3-1.57,1.4-1.71,3.81-.3,5.38,1.06,1.16,2.35,2.09,3.79,2.71v.97c0,2.09,1.7,3.79,3.79,3.79s3.79-1.7,3.79-3.79v-.7c.28-.11.57-.23.85-.36,3.76-1.84,5.69-6.08,4.61-10.12-1.31-4.72-5.23-6.01-7.83-6.88-1.78-.59-2.65-.93-2.98-1.55-.27-.57-.27-1.23,0-1.8.45-.8,1.8-.72,2.45-.59.29.08.56.23.78.44,1.62,1.32,4.01,1.08,5.33-.55,1.31-1.61,1.08-3.98-.52-5.31-.78-.64-1.65-1.16-2.58-1.54v-1.37c0-2.09-1.7-3.79-3.79-3.79s-3.79,1.7-3.79,3.79v1.35c-1.88.71-3.45,2.05-4.46,3.79-1.52,2.82-1.52,6.21,0,9.02,1.58,2.68,4.18,4.6,7.2,5.31Z" fill="#f9c215"/>
      <line x1="224.45" y1="227.13" x2="224.45" y2="243.1" fill="#f9c215" stroke="#000" stroke-miterlimit="10" stroke-width="7"/>
    </g>
  </g>
</svg>