<?xml version="1.0" encoding="UTF-8"?>
<svg id="Layer_2" data-name="Layer 2" xmlns="http://www.w3.org/2000/svg" viewBox="0 0 282.8 283.41">
  <g id="Layer_1-2" data-name="Layer 1">
    <g>
      <path d="M40.37,231l-.5-.05c-11.04-.95-20.68-6.26-27.35-14.06-6.69-7.84-10.43-18.18-9.62-29.22,0-.18.02-.41.05-.59.95-11.04,6.26-20.68,14.06-27.35,7.91-6.76,18.36-10.5,29.52-9.62l26.77,2.16c26.18-26.18,52.34-52.36,78.52-78.54l-2.16-26.77c-.86-11.18,2.86-21.63,9.62-29.52,6.76-7.89,16.52-13.23,27.65-14.08,11.18-.86,21.63,2.86,29.52,9.62s13.23,16.52,14.08,27.65l.97,12.01,6.42-.23v-.02h.32c11-.23,21.04,3.9,28.52,10.86,7.57,7.07,12.46,17.01,12.84,28.19v.2h.02v.32c.27,11-3.9,21.04-10.86,28.52-7.07,7.57-17.01,12.46-28.21,12.84l-34.83,1.31c-23.88,23.84-47.68,47.68-71.58,71.56l-1.31,34.83c-.41,11.18-5.27,21.13-12.84,28.19-7.57,7.05-17.84,11.22-29.02,10.84-11.18-.41-21.13-5.27-28.19-12.84-7.05-7.57-11.22-17.84-10.84-29.02l.23-6.2-11.78-.99h0ZM85.25,156.62h0l-5.7,5.7c-1.15,1.15-2.79,1.8-4.55,1.69l-29.4-2.37c-8-.63-15.46,2.05-21.09,6.85-5.63,4.82-9.44,11.78-10.07,19.76-.63,7.95,2.03,15.43,6.83,21.09h0c4.78,5.57,11.67,9.35,19.56,10.05l17.75,1.42v.02c3.09.23,5.45,2.86,5.34,5.97l-.45,11.74c-.29,7.98,2.7,15.3,7.75,20.71s12.14,8.92,20.1,9.17c7.95.29,15.3-2.7,20.71-7.75,5.41-5.05,8.9-12.14,9.17-20.12l1.4-36.7c-.05-1.55.5-3.13,1.69-4.33l1.94-1.94c24.31-24.27,48.6-48.53,72.89-72.82l.02.02c.99-.99,2.37-1.62,3.9-1.69l37.11-1.4c7.95-.29,15.1-3.76,20.1-9.17,4.98-5.32,7.91-12.48,7.75-20.3-.02-.2-.02-.43-.02-.63h.02c-.34-7.89-3.81-14.89-9.17-19.92-5.32-4.93-12.48-7.91-20.3-7.75-.2.02-.43.02-.63.02v-.02l-11.31.45c-3.18.27-5.99-2.14-6.22-5.34l-1.42-17.53c-.63-8-4.42-14.96-10.07-19.76-5.63-4.84-13.09-7.48-21.09-6.85-8,.63-14.96,4.42-19.76,10.07-4.82,5.63-7.46,13.11-6.87,21.09l2.34,29.2c.2,1.71-.34,3.47-1.67,4.75h0c-25.48,25.53-51.01,51.08-76.56,76.61h0Z" fill="#f9c215" fill-rule="evenodd"/>
      <g>
        <g>
          <path d="M90.27,271.35c.62.06,1.29-.1,1.79-.39.12-.06.26-.14.36-.22.87.05,1.81.42,2.73.12.08-.02.19-.04.27-.08.25-.06.5-.14.72-.31.02-.02.03-.03.05-.03.8.16,1.72.29,2.54,0,.05,0,.15-.03.2-.08.78-.37,1.5-.57,2.39-.56.5-.02.98,0,1.47-.23.58-.25,1.16-.57,1.53-1.03.95.07,1.97-.12,2.86-.68.22-.11.41-.23.6-.36.57-.3,1.06-.79,1.31-1.3.08-.13.15-.25.18-.39.78-.41,1.73-.62,2.39-1.38.05-.05.11-.14.16-.21.01-.01.03-.04.06-.06.86-.19,1.81-.55,2.48-1.27.18-.17.32-.35.48-.51.48-.43.8-1.06.92-1.6.03-.09.04-.18.06-.25.85-.68,1.32-.89,1.94-2.14.11-.52.75-1.11,1.17-1.48.36-.34.75-.65.97-1.13.28-.58.54-1.2.52-1.8.78-.56,1.43-1.37,1.78-2.37.08-.21.15-.45.22-.67.25-.58.29-1.28.17-1.85-.02-.14-.06-.29-.1-.41.31-.83.93-1.62.92-2.61,0-.09.02-.19,0-.28.02-.26,0-.53-.09-.79-.01-.02-.02-.04-.02-.06.4-.72.78-1.57.76-2.45,0-.05.02-.16-.02-.21-.13-.85-.12-1.64.19-2.39.14-.43.32-.84.29-1.33-.02-.57-.09-1.17-.34-1.66.45-.77.75-1.65.72-2.6.01-.22,0-.43,0-.63.04-.58-.1-1.19-.38-1.65-.06-.13-.12-.24-.21-.34.11-.82.54-1.62.37-2.52,0-.06-.03-.16-.05-.24,0-.02-.01-.05,0-.08h-.02c.15-.74.38-1.46.33-2.3-.12-1.88-.64-2.61-.64-2.61-.21-.41-.54-.79-.88-1.01-1.39-.89-3.15.18-3.63,1.99l-.25.92c-.35.83-.19,1.93-.05,2.76h-.08c-.38.89-.3,1.93-.14,2.81,0,.08.04.38.05.54-.03.08-.05.16-.07.23-.09.23-.07.55-.2.76-.01.02-.03.05-.03.06-.1.17-.14.36-.19.56,0,.08-.02.17-.03.25-.15.5-.11,1.07-.07,1.57,0,.3.1.59.21.86,0,.01-.02.06-.03.08-.11.26-.3.5-.37.8-.12.21-.16.48-.2.73,0,.05-.02.11-.01.22-.06.41-.11.88-.05,1.29.01.32.07.63.19.91.11.3.27.51.26.81-.08.23-.14.48-.25.73l-.03.1c-.04.08-.06.19-.11.36-.2.69-.17,1.45.09,2.13-.33.39-.52.84-.62,1.32-.12.47-.15.96-.16,1.42,0,.06-.07.34-.08.49-.06.04-.09.11-.13.17-.13.23-.24.48-.42.66-.14.11-.23.26-.34.42-.04.06-.08.14-.11.21-.25.37-.42.85-.55,1.29-.09.27-.1.53-.11.81-.02,0-.05.04-.06.05-.21.18-.45.29-.63.5-.2.11-.34.33-.47.51-.03.02-.05.07-.1.15-.22.31-.46.64-.6.99-.11.26-.21.54-.24.81-.06.27-.04.57-.19.82-.22.13-.39.3-.62.46,0,0-.08.06-.07.07-.08.06-.16.12-.25.22l-.03.04c-.65.6-.86,1.21-1.03,1.66-.2.11-.35.34-.59.39-.01,0-.04.02-.05.03-.18.04-.32.14-.48.24-.06.04-.13.09-.19.15-.38.24-.73.6-1.04.95-.14.17-.45.52-.61.81-.85.25-1.53.89-2.08,1.49-.05.05-.26.23-.37.33-.08.01-.14.04-.21.06-.23.04-.45.22-.68.21-.02,0-.05,0-.06,0-.18,0-.34.06-.52.11-.06.03-.14.06-.21.09-.45.11-.87.4-1.26.64-.24.12-.42.35-.6.54-.01,0-.06,0-.08,0-.26,0-.54-.08-.81-.03-.22-.02-.45.04-.67.08-.04.01-.1.02-.18.06-.36.08-.75.2-1.08.37-.26.1-.51.26-.7.45-.21.18-.39.41-.67.49-.24-.02-.49.02-.76-.03h-.1c-.09,0-.2,0-.37,0-.71.01-1.42.26-1.97.71-.93-.4-1.93-.17-2.81.06-.06.01-.34.03-.49.07-.06-.04-.13-.06-.2-.07-.26-.05-.53-.09-.75-.2-.08-.05-.38-.08-.66-.1-.28-.02-.54-.04-.54-.04-.5-.08-1.06.07-1.51.27-.11.05-.24.11-.34.17-.74-.17-1.39-.72-2.2-.71-.07,0-.16-.02-.23-.01-.22-.02-.44-.01-.68.06-.02,0-.04.02-.05.01-.56-.45-1.16-.91-1.86-1.08-.04-.02-.12-.05-.17-.02-.72-.09-1.33-.3-1.85-.87-.3-.29-.56-.58-.96-.76-.47-.2-.98-.39-1.49-.39-.39-.73-.9-1.39-1.61-1.83-.16-.12-.31-.22-.47-.31-.4-.33-.91-.56-1.42-.59-.13-.03-.25-.05-.37-.04-.51-.56-.76-1.36-1.47-1.81-.05-.03-.12-.08-.19-.12,0-.01-.04-.02-.06-.05-.18-.75-.38-1.55-.92-2.12-.11-.16-.24-.29-.36-.43-.3-.42-.74-.76-1.2-.95-.07-.04-.15-.06-.21-.09-.31-.87-.32-1.27-1.06-2.15-.41-.24-.51-.99-.58-1.44-.05-.41-.03-.82-.25-1.19-.22-.47-.47-.95-.89-1.26.2-.81.23-1.63-.02-2.42-.05-.17-.1-.36-.14-.54-.08-.49-.35-.98-.69-1.35-.08-.09-.17-.19-.26-.27-.03-.75.28-1.52.06-2.28-.01-.07-.03-.15-.06-.23-.04-.21-.12-.42-.25-.62-.01-.01-.03-.03-.03-.04.27-.65.55-1.34.48-2.17,0-.05,0-.14-.03-.19-.15-.78-.16-1.47.15-2.25.14-.43.32-.83.29-1.32-.02-.57-.09-1.17-.34-1.66.45-.76.75-1.64.72-2.59.01-.22,0-.42,0-.63.04-.58-.1-1.19-.38-1.64-.06-.13-.12-.24-.21-.34.13-1.01.39-2.49-.32-3.7-.05-.09-.13-.21-.2-.31,0-.02-.04-.06-.06-.11h-.02c-.35-1.05-.84-2.14-1.86-2.98-1.15-.91-2.15-1.19-2.78-1.27-.31-.05-.54-.04-.69-.04-.15,0-.22.02-.22.02-.62.05-1.19.29-1.5.62-.62.64-.5,1.44-.24,2.14.28.7.67,1.32,1.08,1.79.15.16.27.33.39.49.21.55.73.88,1.12,1.29l-.07.03c-.09.65.13,1.11.31,1.69,0,.08.04.38.05.54-.03.08-.05.16-.07.23-.09.23-.07.55-.2.76-.01.02-.03.05-.03.06-.1.17-.14.36-.19.56,0,.08-.02.17-.03.25-.15.5-.11,1.07-.07,1.57,0,.3.1.59.21.86,0,.01-.03.06-.03.08-.11.26-.3.5-.37.8-.12.21-.16.48-.2.73,0,.05-.02.11-.01.22-.06.41-.11.88-.05,1.29.01.32.07.64.19.91.1.29.28.55.27.87-.08.25-.13.53-.24.81l-.02.11c-.03.09-.05.22-.09.41-.18.74-.02,1.75.35,2.44-.48,1.06-.23,2.35.14,3.36.02.07.09.4.15.57-.03.07-.03.16-.03.25-.02.31.02.64-.03.92-.06.2-.05.41-.04.64,0,.09,0,.19.03.29,0,.55.22,1.14.4,1.67.12.33.32.58.52.82,0,.02,0,.07,0,.09-.02.33-.11.63-.05.95-.03.27.06.57.12.84,0,.04.02.1.06.22.13.45.31.93.54,1.33.16.31.39.59.63.81.23.24.5.41.68.71.04.28.15.56.23.88,0,0,.03.12.04.11.03.12.06.24.13.38l.03.06c.44.99,1.03,1.49,1.49,1.81.09.25.29.51.33.77,0,.01.02.05.03.06.03.21.13.39.23.6.04.08.09.17.15.25.23.5.68.94,1.07,1.34.18.19.64.55.97.74.41.97,1.33,1.7,2.16,2.18.07.05.33.24.48.33.05.08.1.14.16.21.14.23.43.42.54.67,0,.02.02.05.04.07.08.2.23.34.39.51.07.06.15.12.21.18.36.44.91.76,1.41,1.02.28.18.6.26.92.32.01.01.05.06.06.07.2.23.33.54.59.76.15.23.4.39.63.55.05.03.1.07.21.12.37.27.83.54,1.28.67.33.13.67.23,1,.23.34.02.67-.04.99.09.23.16.49.34.76.53l.11.06c.09.06.21.12.4.23.77.44,1.72.56,2.52.4.89.77,2.22.91,3.29.83.07,0,.42.03.59.02.05.04.6,1.13,2.59.57Z" fill="#f9c316"/>
          <path d="M155.79,172.25c.41-.39.71-.94.83-1.47.03-.12.07-.27.08-.39.62-.54,1.48-.85,1.95-1.61.05-.06.1-.14.14-.21.14-.19.26-.41.33-.66,0-.02,0-.04.02-.05.69-.33,1.45-.7,1.93-1.34.03-.03.1-.1.11-.16.42-.67.88-1.2,1.63-1.55.4-.22.8-.4,1.11-.78.37-.44.73-.92.87-1.45.85-.26,1.66-.71,2.28-1.43.16-.15.29-.31.42-.47.42-.4.73-.94.83-1.47.04-.14.08-.26.08-.39.63-.53,1.48-.82,1.97-1.6.04-.05.08-.14.12-.21.01-.01.02-.04.05-.06.79-.25,1.63-.6,2.21-1.27.16-.15.28-.32.42-.47.43-.4.72-.95.83-1.47.03-.08.04-.17.05-.24.84-.56,1.28-.7,1.98-1.76.15-.48.85-.89,1.29-1.13.4-.22.81-.41,1.1-.78.39-.44.75-.92.88-1.46.86-.25,1.67-.69,2.29-1.41.15-.14.29-.32.42-.47.41-.39.71-.94.84-1.46.03-.12.07-.27.08-.39.62-.53,1.49-.84,1.96-1.6.05-.06.11-.14.14-.21.14-.19.26-.41.33-.66,0-.02,0-.04.02-.05.69-.32,1.45-.69,1.93-1.33.03-.03.1-.1.11-.16.42-.67.88-1.19,1.64-1.54.4-.22.8-.39,1.11-.77.37-.43.73-.92.88-1.45.85-.25,1.67-.69,2.29-1.41.16-.15.3-.31.42-.47.43-.4.74-.94.84-1.46.04-.14.08-.26.08-.39.63-.52,1.49-.81,1.98-1.59.04-.05.09-.14.12-.21.01-.01.02-.04.05-.06h-.01c.61-.45,1.26-.82,1.8-1.47,1.19-1.46,1.3-2.35,1.3-2.35.12-.45.15-.95.05-1.35-.4-1.61-2.39-2.05-3.98-1.05l-.81.51c-.82.37-1.45,1.28-1.92,1.99l-.05-.06c-.89.4-1.54,1.22-2.02,1.97-.05.06-.23.3-.33.43-.07.04-.14.08-.21.13-.22.11-.42.36-.66.42-.02,0-.05.01-.06.02-.19.05-.34.17-.52.28-.06.05-.13.11-.19.17-.45.26-.81.71-1.12,1.11-.21.22-.33.5-.44.77-.01,0-.06.03-.07.04-.26.12-.57.16-.82.33-.23.08-.44.25-.64.4-.03.03-.09.07-.16.15-.32.26-.68.57-.92.91-.21.24-.38.52-.48.8-.12.28-.17.59-.39.82-.23.13-.46.3-.72.43l-.09.07c-.09.05-.19.13-.34.24-.66.45-1.13,1.16-1.35,1.89-1.04.33-1.76,1.27-2.28,2.11-.04.05-.24.29-.33.43-.07.02-.14.06-.2.11-.24.16-.47.35-.72.46-.19.05-.34.17-.52.28-.07.05-.14.1-.21.17-.42.27-.78.71-1.11,1.1-.21.24-.32.51-.42.79-.02,0-.06.03-.07.04-.28.12-.57.16-.82.34-.24.07-.45.26-.65.42-.03.01-.08.06-.16.13-.33.27-.67.58-.91.91-.2.25-.37.53-.47.81-.13.27-.18.58-.39.82-.24.11-.45.28-.72.43,0,0-.1.06-.09.07-.1.06-.19.12-.3.21l-.05.04c-.77.61-1.08,1.24-1.29,1.73-.22.12-.4.36-.65.42-.01,0-.04.03-.05.03-.19.05-.34.17-.52.28-.07.05-.14.1-.21.17-.42.27-.78.71-1.1,1.1-.15.18-.46.61-.6.94-.88.4-1.53,1.23-2,1.98-.05.06-.23.3-.33.43-.07.04-.14.08-.21.13-.22.11-.42.36-.66.43-.02,0-.05.01-.06.03-.19.06-.34.17-.52.28-.06.05-.13.12-.19.17-.44.27-.8.71-1.11,1.11-.2.22-.32.5-.43.78-.01,0-.06.03-.07.04-.26.12-.56.17-.82.34-.23.08-.44.25-.64.41-.03.03-.09.07-.16.16-.32.26-.67.57-.91.92-.21.24-.37.52-.47.8-.12.28-.17.59-.38.82-.23.13-.46.3-.72.43l-.09.07c-.09.05-.18.13-.34.24-.65.46-1.13,1.17-1.34,1.9-1.04.33-1.75,1.28-2.27,2.12-.04.05-.24.29-.33.43-.07.02-.14.06-.2.11-.24.16-.47.35-.71.46-.19.06-1,.91-1,.91-.41.39-.71.94-.83,1.47-.03.12-.07.27-.08.39-.62.54-1.48.85-1.95,1.61-.05.06-.1.14-.14.21-.14.19-.26.41-.33.66,0,.02,0,.04-.01.05-.69.33-1.45.7-1.93,1.34-.03.03-.1.1-.11.16-.42.67-.88,1.2-1.63,1.55-.4.22-.8.4-1.11.78-.37.44-.73.92-.87,1.45-.85.26-1.66.71-2.28,1.43-.16.15-.29.31-.42.47-.42.4-.73.94-.83,1.47-.04.14-.08.26-.08.39-.63.53-1.48.82-1.97,1.6-.04.05-.08.14-.12.21-.01.01-.02.04-.05.06-.79.25-1.63.6-2.21,1.27-.16.15-.28.32-.42.47-.43.4-.72.95-.83,1.47-.03.08-.04.17-.05.24-.84.56-1.28.7-1.98,1.76-.15.48-.85.89-1.29,1.13-.4.22-.81.41-1.1.78-.39.44-.75.92-.88,1.46-.86.25-1.67.69-2.29,1.41-.15.14-.29.32-.42.47-.41.39-.71.94-.84,1.47-.03.12-.07.27-.08.39-.31.27-.68.48-1.04.71-.18.12-.35.25-.51.39-.2.18-.43.46-.59.74-.07.1-.14.22-.19.33-.18.3-.32.64-.37.99,0,.03,0,.05-.01.07-.74.77-1.41,1.89-1.43,3.09,0,.07-.02.21.01.28.04.64.12,1,.09,1.35-.02.37-.09.73-.25,1.12-.14.44-.32.84-.29,1.33.02.57.09,1.16.34,1.64-.45.77-.75,1.66-.72,2.6-.01.22,0,.42,0,.63-.04.58.1,1.18.38,1.63.06.13.12.24.21.34-.11.81-.54,1.61-.37,2.51,0,.06.03.16.05.24,0,.02.01.05,0,.08h.02c-.15.74-.38,1.45-.33,2.29.12,1.87.64,2.59.64,2.59.21.41.54.79.88,1.01,1.39.89,3.15-.18,3.63-2l.25-.93c.35-.83.19-1.93.05-2.77h.08c.38-.9.3-1.95.14-2.82,0-.08-.04-.38-.05-.54.03-.08.05-.16.07-.24.09-.23.07-.55.2-.77.01-.02.03-.05.03-.06.1-.17.14-.36.19-.56,0-.08.02-.17.03-.25.15-.5.11-1.07.07-1.58,0-.3-.1-.59-.21-.86,0-.01.03-.06.03-.08.11-.27.3-.51.37-.81.12-.22.16-.49.2-.74,0-.05.02-.11.01-.22.06-.41.11-.88.05-1.29-.01-.32-.07-.63-.19-.91-.11-.29-.28-.54-.28-.86.04-.13.07-.24.1-.36.04-.1.07-.17.13-.25l.02-.06c.03-.05.06-.12.1-.22.21-.4.2-.81.11-1.34.18-.05.33-.12.47-.2.14-.09.21-.13.43-.36.37-.38.68-.83.94-1.25.04-.05.24-.29.33-.43.07-.02.14-.06.2-.11.24-.16.47-.35.72-.46.19-.05.34-.17.52-.28.07-.05.14-.1.21-.17.42-.27.78-.71,1.11-1.1.21-.24.32-.51.42-.79.02,0,.06-.03.07-.04.28-.12.57-.16.82-.34.24-.07.45-.26.65-.42.03-.01.08-.06.16-.13.33-.27.67-.58.91-.91.2-.25.37-.53.47-.81.13-.27.18-.58.39-.82.24-.11.45-.28.72-.43,0,0,.1-.06.09-.07.1-.06.19-.12.3-.21l.04-.04c.77-.61,1.08-1.24,1.29-1.73.22-.12.4-.36.65-.42.01,0,.04-.03.05-.03.19-.05.34-.17.52-.28.07-.05.14-.1.21-.17.42-.27.78-.71,1.1-1.1.15-.18.46-.61.6-.94.88-.4,1.53-1.23,2-1.98.05-.06.23-.3.33-.43.07-.04.14-.08.21-.13.22-.11.42-.36.66-.43.02,0,.05-.01.06-.03.19-.06.34-.17.52-.28.06-.05.13-.12.19-.17.44-.27.8-.71,1.11-1.11.2-.22.32-.5.43-.78.01,0,.06-.03.07-.04.26-.12.56-.17.82-.34.23-.08.44-.25.64-.41.03-.03.09-.07.16-.16.32-.26.67-.57.91-.92.21-.24.37-.52.47-.8.12-.28.17-.59.38-.82.23-.13.46-.3.72-.43l.09-.07c.09-.05.18-.13.34-.24.65-.46,1.13-1.17,1.34-1.9,1.04-.33,1.75-1.28,2.27-2.12.04-.05.24-.29.33-.43.07-.02,1.17.25,1.91-1.48Z" fill="#f9c316"/>
          <path d="M242.82,124.48c.42-.02.84-.27,1.13-.61.07-.08.15-.17.2-.26.59-.03,1.27.23,1.85-.11.05-.02.12-.05.17-.09.16-.07.32-.17.44-.34,0-.02.02-.03.03-.03.56.11,1.22.24,1.74-.05.03-.01.1-.03.12-.08.49-.35.95-.53,1.58-.48.34,0,.69.05,1.01-.13.37-.21.74-.47.95-.86.7.15,1.41.07,2.01-.31.14-.08.27-.16.39-.26.39-.2.7-.55.82-.99.05-.1.08-.2.09-.32.54-.25,1.27-.24,1.7-.79.03-.04.07-.1.11-.15,0,0,.02-.03.04-.04.67.01,1.37-.11,1.86-.56.13-.1.24-.21.35-.32.35-.27.57-.7.63-1.12.02-.07.02-.14.03-.2.65-.36,1.06-.39,1.51-1.23.06-.4.61-.66.95-.84.31-.16.64-.28.82-.59.26-.34.47-.76.47-1.21.71-.17,1.3-.57,1.67-1.18.09-.12.16-.28.24-.41.25-.34.36-.82.3-1.26-.01-.1-.03-.23-.06-.33.36-.48,1.03-.81,1.14-1.48.02-.06.04-.12.04-.19.05-.17.08-.36.04-.56,0-.02-.01-.03,0-.04.46-.35.97-.78,1.11-1.36.01-.03.04-.1.02-.15.05-.61.23-1.08.69-1.53.23-.26.49-.5.57-.86.09-.42.14-.88-.02-1.29.59-.43.99-1.03,1.1-1.73.04-.16.06-.32.07-.47.11-.43.04-.9-.19-1.28-.05-.1-.1-.2-.18-.28.17-.58.67-1.12.53-1.82,0-.05-.03-.12-.04-.18,0-.01,0-.04,0-.06h-.02c.18-.54.42-1.06.36-1.69-.05-.7-.25-1.19-.41-1.49-.16-.3-.3-.43-.3-.43-.07-.09-.15-.18-.24-.25v-.2c-.21-.09-.45-.17-.69-.24-.99-.27-2.12-.21-2.83.63v-.12c-.34.25-.59.56-.72.91-.07.19-.14.39-.22.58-.35.51-.17,1.19-.07,1.72h-.08c-.39.52-.36,1.16-.25,1.73,0,.05.01.24.02.34-.03.04-.06.09-.08.13-.11.13-.12.33-.26.43-.02,0-.03.02-.03.03-.11.08-.17.19-.23.31-.01.05-.03.1-.05.15-.18.27-.23.62-.24.93-.04.18.03.38.1.57,0,0-.03.03-.04.04-.14.13-.37.22-.47.38-.14.1-.22.24-.29.38,0,.03-.03.06-.04.13-.12.22-.25.47-.26.73-.04.19-.04.39.03.6.04.2.15.42.08.6-.12.12-.23.26-.38.38l-.04.06s-.09.11-.17.2c-.34.37-.39.9-.27,1.43-.72.3-.92.98-1.04,1.61,0,.04-.09.22-.11.32-.05.01-.09.04-.13.08-.14.11-.27.25-.44.33-.14.04-.22.11-.33.19-.04.03-.08.07-.11.12-.26.18-.42.49-.56.76-.1.17-.09.38-.11.57-.02,0-.05.01-.05.02-.19.07-.42.07-.58.17-.18.03-.3.15-.41.25-.02,0-.05.04-.09.08-.21.16-.4.36-.52.58-.1.17-.17.37-.19.57-.05.2-.02.43-.14.59-.18.04-.31.14-.5.21,0,0-.07.03-.06.04-.07.03-.14.05-.21.1l-.03.03c-.51.31-.64.77-.75,1.11-.16.04-.27.19-.46.17,0,0-.03.01-.04.01-.14,0-.25.05-.37.1-.05.02-.1.05-.14.08-.3.09-.54.35-.75.57-.1.11-.3.37-.4.58-.65.05-1.09.49-1.45.93-.04.04-.17.17-.24.24-.05,0-.1.02-.15.03-.17,0-.32.13-.49.08-.02,0-.04,0-.05,0-.14-.03-.25,0-.38.02-.04.02-.1.04-.14.06-.32.04-.6.23-.85.43-.16.09-.26.27-.36.45-.01,0-.05,0-.06,0-.19-.02-.4-.13-.59-.11-.16-.05-.32,0-.47.03-.03.01-.07.01-.12.05-.24.06-.52.12-.72.28-.17.09-.32.23-.42.41-.12.17-.21.39-.39.46-.17-.02-.34,0-.53-.04h-.07c-.06,0-.14,0-.25.02-.5,0-.93.28-1.24.74-.7-.36-1.33-.04-1.88.27-.04.02-.22.07-.31.13-.04-.03-.09-.04-.14-.04-.18-.02-.36-.03-.53-.11-.12-.08-.82.03-.82.03-.34.03-.69.21-.95.53-.06.07-.14.15-.19.24-.49-.02-1.11-.4-1.67-.17-.05.01-.12.03-.17.06-.16.04-.31.11-.46.25-.01.01-.02.03-.03.03-.5-.24-1.04-.49-1.57-.36-.03,0-.1,0-.13.04-.51.2-.98.26-1.52,0-.3-.11-.58-.26-.91-.2-.38.06-.78.17-1.09.45-.54-.4-1.15-.63-1.79-.54-.15,0-.29.02-.42.05-.39,0-.79.18-1.08.49-.08.07-.15.14-.22.23-.55-.05-1.12-.42-1.71-.2-.04.01-.1.04-.16.07-.01,0-.03.01-.05.01-.51-.36-1.09-.69-1.68-.6-.15,0-.29.03-.42.05-.39,0-.79.19-1.08.49-.05.04-.09.09-.13.14-.67-.17-.95-.37-1.78-.09-.29.25-.83.06-1.16-.06-.3-.11-.59-.26-.91-.19-.39.05-.79.15-1.1.45-.54-.41-1.15-.65-1.79-.56-.14,0-.29.03-.42.05-.38,0-.78.19-1.08.49-.07.07-.15.15-.22.23-.55-.04-1.12-.42-1.7-.19-.05.01-.12.03-.17.06-.16.04-.31.11-.46.25-.01.01-.02.03-.03.03-.49-.24-1.04-.5-1.57-.37-.03,0-.1,0-.13.04-.51.2-.98.26-1.52,0-.3-.11-.58-.27-.91-.21-.38.06-.78.16-1.09.45-.54-.4-1.15-.65-1.78-.56-.15,0-.29.02-.42.05-.39,0-.79.17-1.08.48-.08.07-.16.13-.22.23-.55-.06-1.11-.43-1.71-.21-.06.02-.15.05-.23.08-.02,0-.05.02-.08.02v.02c-.75-.06-1.54-.12-2.34.24-.89.41-1.38.92-1.64,1.27-.26.36-.31.58-.31.58-.18.42-.22.9-.11,1.28.22.77.86,1.24,1.48,1.56.63.31,1.23.52,1.67.51.16,0,.31,0,.45.02.43.16.77-.12,1.13-.33v.08c.14.16.57.2.87.18.32-.02.64-.11.93-.22.05-.01.25-.06.36-.08.05.03.11.04.16.05.16.08.37.03.52.15.01.01.03.03.04.03.12.09.25.12.39.15.05,0,.12,0,.17.01.34.11.72.04,1.06-.03.2-.02.39-.14.57-.26,0,0,.04.02.05.03.18.09.36.27.56.32.15.1.33.13.5.15.03,0,.07.01.15,0,.28.03.6.05.87-.03.21-.03.42-.11.6-.25.19-.12.35-.31.56-.33.17.06.36.1.56.19h.07c.06.04.15.05.28.07.53.12,1.09-.06,1.53-.44.67.48,1.45.29,2.09.04.04-.01.25-.04.36-.09.04.04.1.05.15.06.19.05.39.07.57.16.12.09.25.11.39.15.05.01.12.02.18.02.33.1.71.03,1.05-.03.21-.03.39-.15.56-.28.01.01.04.03.05.03.19.1.36.27.56.32.15.12.34.12.51.15.02.01.06.01.14.01.29.03.6.04.87-.03.21-.04.42-.13.6-.27.19-.11.35-.3.56-.33.17.09.35.11.56.19,0,0,.07.02.07.01.07.02.15.05.25.06h.04c.66.09,1.1-.16,1.42-.37.16.06.36.02.51.15.01,0,.03,0,.04.01.12.09.25.11.39.15.05.01.12.02.18.02.33.1.71.02,1.05-.04.16-.03.51-.13.72-.27.63.32,1.32.17,1.9-.06.05-.01.25-.06.36-.09.05.03.11.04.16.05.16.08.37.03.52.14.01.01.03.03.04.03.12.09.25.11.39.15.05,0,.12,0,.17,0,.34.11.72.03,1.06-.04.2-.02.39-.14.56-.27,0,0,.04.02.05.03.18.09.36.27.56.32.15.1.33.12.5.15.03,0,.07.01.15,0,.28.03.6.05.87-.04.21-.03.42-.12.6-.26.19-.12.35-.31.56-.33.17.06.36.1.56.18h.07c.06.04.15.05.28.07.53.12,1.09-.07,1.52-.45.69.47,1.42.29,2.13.01.05-.02.28-.05.39-.1.04.03.56,1,1.79.15Z" fill="#f9c316"/>
          <path d="M260.54,69.23c-.15-.16-.45-.18-.77-.08-.07.02-.16.05-.24.08-.19-.25-.19-.75-.58-.8-.03,0-.07-.02-.11-.02-.09-.03-.2-.03-.35.02-.01,0-.03.01-.03,0-.05-.37-.13-.78-.44-.86-.01-.01-.04-.03-.08-.01-.35-.03-.58-.15-.66-.55-.06-.2-.11-.42-.29-.48-.21-.08-.45-.14-.75,0-.02-.52-.18-.92-.53-1.05-.07-.05-.15-.08-.23-.1-.19-.13-.47-.11-.77.07-.07.03-.14.07-.22.13-.24-.21-.33-.7-.73-.69-.03,0-.07,0-.11.01,0,0-.02,0-.03,0-.07-.47-.21-.93-.55-1.01-.08-.04-.16-.05-.24-.07-.2-.11-.49-.05-.76.14-.04.02-.09.06-.12.09-.27-.32-.33-.59-.87-.54-.25.15-.44-.16-.57-.35-.11-.17-.21-.38-.41-.39-.22-.04-.47-.04-.74.17-.14-.51-.4-.85-.77-.9-.08-.03-.17-.03-.24-.04-.21-.08-.48.01-.73.25-.06.05-.13.11-.18.18-.28-.14-.5-.6-.87-.49-.03,0-.07,0-.11.02-.1.01-.2.05-.31.16,0,.01-.02.02-.02.02-.21-.31-.46-.64-.78-.6-.02,0-.05-.01-.08.02-.33.11-.59.1-.85-.22-.15-.15-.28-.34-.47-.32-.23.01-.47.06-.69.3-.24-.45-.57-.75-.94-.73-.09-.01-.17,0-.25,0-.23-.05-.47.09-.67.39-.05.06-.1.12-.14.21-.31-.1-.6-.51-.96-.33-.03.01-.06.03-.09.06,0,0-.02.01-.03.01v.02c-.28-.13-.56-.33-.89-.25-.4.1-.66.31-.8.48l-.25.02c-.05.14-.07.25-.07.25-.06.23-.13.57-.18.92-.2,1.27-.03,2.77.76,3.34h-.16c.06.09.12.15.19.19l.31.21c.27.32.62.12.9-.05v.08c.28.36.61.26.91.08.03,0,.13-.04.18-.06.02.03.05.04.07.06.07.09.17.06.23.19,0,.01.01.03.02.03.05.1.1.14.17.19.02,0,.05.02.08.03.15.14.33.1.5.06.1,0,.2-.1.3-.21,0,0,.02.02.02.03.07.1.13.3.21.37.05.12.13.16.21.2.01,0,.03.02.07.01.12.06.26.12.4.06.1,0,.21-.07.32-.18.11-.1.22-.27.32-.25.07.08.15.15.22.26l.03.02s.06.06.11.1c.22.19.51.08.8-.23.19.57.58.5.94.36.02,0,.13,0,.19-.03,0,.04.03.06.05.08.07.08.15.14.2.25.03.11.07.15.12.21.02.02.04.04.07.05.11.15.3.15.47.15.1,0,.22-.08.34-.16,0,.01.01.03.01.03.05.13.06.32.13.41.02.14.1.18.17.24,0,.02.02.02.06.04.11.09.24.15.38.14.11,0,.23-.04.35-.13.12-.06.26-.2.37-.18.04.12.11.18.16.29,0,0,.02.04.03.03.02.04.04.08.08.11h.02c.24.23.53.1.75,0,.04.09.14.1.15.25,0,0,0,.02.01.02,0,.11.05.16.09.23.02.02.04.05.06.06.09.17.28.19.44.21.08,0,.26.01.42-.05.1.44.44.48.79.43.03,0,.13.01.19.02,0,.04.02.06.04.09.02.11.13.13.13.27,0,.01,0,.03,0,.03,0,.11.04.16.07.23l.06.05c.07.19.26.22.43.25.08.04.22,0,.36-.06,0,0,0,.03,0,.04.02.13-.02.33.03.42,0,.13.05.2.1.26.01,0,.02.03.06.04.08.11.19.21.34.22.09.04.22.03.36-.02.14-.04.31-.14.4-.09.02.1.07.19.09.32l.02.03s.03.07.06.13c.12.25.42.29.81.14-.07.59.32.67.7.71.02,0,.11.05.18.06-.01.04,0,.07,0,.1.03.1.08.18.08.31-.02.11.28.32.28.32.12.13.37.13.68.03.07-.02.15-.05.23-.09.15.23.06.68.4.74.03,0,.06.02.09.02.08.03.18.04.32,0,.01,0,.03-.01.03,0-.03.35-.06.72.2.82.01.01.03.03.07.02.29.07.48.21.42.59,0,.19-.05.39.09.47.16.1.33.2.64.16-.18.46-.21.83.03,1.02.04.06.08.1.14.14.09.16.33.22.66.16.08,0,.15-.01.24-.04.09.26-.09.69.23.82.02.01.06.02.09.03,0,0,.02,0,.02.01-.19.4-.36.81-.15,1,.03.06.08.1.12.15.07.17.32.24.64.22.05,0,.1,0,.15,0-.02.37-.14.58.26.82.27.02.2.34.15.53-.05.18-.13.36-.02.47.1.15.26.29.58.31-.3.4-.42.75-.25,1,.02.06.07.12.1.17.04.17.28.28.6.32.07.01.16.02.25.02.04.26-.26.64.02.84.02.02.04.04.07.06.06.06.14.11.29.14.01,0,.03,0,.03,0-.18.3-.36.61-.19.82,0,.01.01.04.05.05.23.19.34.39.12.7-.08.16-.21.32-.13.46.08.16.21.32.51.41-.36.33-.55.65-.45.92,0,.07.03.13.06.19,0,.18.2.34.52.43.07.03.14.05.24.07-.03.27-.4.57-.17.83.01.02.04.04.07.07,0,0,.01.01.02.02h.02c-.09.24-.26.49-.16.74.23.56.8.76.8.76.24.12.58.22.94.28,1.44.23,3.13-.21,3.5-.94l.19-.37c.3-.34.05-.74-.16-1.03h.08c.3-.39.15-.78-.11-1.07-.02-.03-.07-.13-.1-.19.02-.03.03-.07.04-.1.07-.1.01-.21.12-.32.01,0,.02-.02.02-.03.08-.08.1-.16.13-.24,0-.03,0-.07,0-.1.09-.21,0-.42-.1-.6-.03-.11-.17-.19-.3-.27,0,0,.02-.03.02-.03.07-.12.24-.25.27-.38.09-.11.09-.21.1-.32,0-.02,0-.04-.02-.08,0-.16,0-.35-.11-.49-.05-.11-.16-.21-.31-.28-.14-.08-.34-.12-.38-.24.04-.11.05-.23.12-.36v-.04s.02-.09.03-.17c.06-.33-.21-.59-.63-.72.36-.5.08-.89-.27-1.15-.02-.02-.08-.12-.14-.17.03-.04.03-.07.03-.1.01-.12,0-.24.06-.36.06-.1.07-.17.08-.26,0-.03,0-.07,0-.11.04-.22-.1-.4-.22-.56-.07-.1-.22-.15-.37-.2,0-.01.02-.03.01-.04.06-.14.18-.3.18-.42.08-.13.05-.23.03-.34,0-.02,0-.04-.02-.08-.02-.17-.09-.34-.22-.45-.09-.09-.21-.17-.37-.21-.14-.05-.35-.06-.42-.15.04-.13.02-.23.04-.37,0,0,0-.05,0-.04,0-.05.01-.1,0-.16v-.02c-.09-.38-.42-.5-.68-.56.02-.11-.07-.19,0-.33v-.03c.05-.1.04-.18.04-.27,0-.03,0-.07-.03-.1,0-.22-.17-.37-.31-.51-.07-.06-.25-.19-.43-.23.1-.48-.22-.76-.58-.91-.03-.02-.13-.09-.18-.13,0-.04,0-.07,0-.11.02-.12-.08-.2-.03-.34,0-.01.01-.03,0-.04.04-.11.02-.19,0-.27-.01-.03-.03-.06-.04-.09-.01-.23-.2-.37-.37-.49-.08-.09-.24-.1-.4-.11,0,0,0-.03,0-.04.01-.14.1-.33.07-.46.03-.13,0-.23-.05-.33-.01-.02-.02-.04-.05-.07-.07-.15-.17-.31-.33-.38-.1-.08-.24-.12-.4-.12-.16,0-.36.04-.45-.05-.01-.12-.05-.23-.05-.37l-.02-.04s-.03-.09-.06-.16c-.1-.32-.45-.44-.89-.38.11-.62-.34-.83-.76-.92-.03,0-.13-.08-.2-.09,0-.04.52-.92-.47-.86Z" fill="#f9c316"/>
          <path d="M216.35,25.62c-.27-.44-.75-.76-1.22-.91-.11-.04-.24-.08-.36-.1-.39-.6-.57-1.43-1.25-1.87-.06-.04-.12-.1-.19-.13-.17-.13-.36-.24-.59-.29-.02,0-.04,0-.05-.01-.25-.64-.58-1.34-1.17-1.73-.03-.03-.09-.08-.15-.08-.63-.33-1.11-.69-1.48-1.34-.22-.35-.41-.7-.8-.92-.44-.27-.92-.52-1.43-.52-.34-.74-.9-1.39-1.67-1.76-.17-.11-.34-.18-.52-.25-.46-.26-1.01-.39-1.5-.28-.13.01-.25.03-.37.07-.61-.39-1.13-1.03-1.96-1.15-.06,0-.14-.02-.22-.02-.01,0-.04,0-.07-.01-.48-.57-1.09-1.19-1.89-1.34-.19-.06-.38-.09-.56-.13-.5-.17-1.08-.11-1.54.06-.08.02-.15.06-.21.08-.82-.36-1.14-.68-2.29-.59-.43.17-1.09-.13-1.51-.3-.38-.16-.75-.37-1.18-.33-.53.01-1.08.07-1.51.34-.69-.43-1.52-.7-2.37-.57-.19,0-.38.04-.57.06-.52.01-1.04.26-1.42.58-.09.07-.2.16-.27.25-.72.05-1.53-.25-2.26.11-.07.03-.15.06-.21.09-.2.08-.4.18-.56.35-.01.02-.02.03-.04.03-.68-.11-1.45-.2-2.11.11-.04.01-.12.04-.15.09-.62.37-1.19.6-1.94.59-.42.02-.82,0-1.21.22-.46.25-.93.53-1.2.97-.81-.09-1.67.06-2.39.54-.18.09-.34.2-.48.32-.46.26-.85.68-1.03,1.16-.06.12-.11.23-.13.35-.65.34-1.48.45-2.01,1.11-.04.04-.09.12-.13.18-.01,0-.03.04-.05.05v.02c-.57.34-1.23.59-1.73,1.17-.57.64-.85,1.19-.99,1.57-.14.38-.15.59-.15.59-.09.41-.05.89.09,1.26.59,1.49,2.47,1.89,3.73,1.23.21-.12.44-.23.66-.34.67-.21,1.16-.88,1.54-1.41l.05.06c.76-.15,1.29-.71,1.73-1.23.04-.04.21-.2.29-.29.06-.01.12-.03.18-.05.2-.02.38-.18.58-.16.02,0,.04,0,.05,0,.16.01.29-.03.44-.08.05-.03.12-.06.17-.08.39-.07.73-.32,1.03-.55.19-.11.33-.3.46-.5.01,0,.05,0,.06,0,.22,0,.47.09.69.04.19.03.39-.02.57-.06.03-.01.08-.02.15-.06.29-.08.62-.19.88-.36.21-.1.4-.25.55-.44.16-.19.28-.42.5-.5.2,0,.42-.01.64.02h.08c.07,0,.17-.02.31-.03.6,0,1.15-.34,1.57-.78.81.33,1.62.04,2.32-.29.05-.02.28-.06.39-.11.05.04.11.04.17.05.22.03.44.04.64.12.13.08.28.1.43.13.06.01.13.02.2.02.37.1.78,0,1.15-.04.23-.02.43-.14.63-.26.01.01.05.03.06.03.21.11.38.28.6.35.16.13.36.15.55.19.02.01.07.02.15.02.31.05.64.1.94.07.23-.01.47-.07.68-.18.22-.08.43-.23.67-.22.17.12.36.18.57.29,0,0,.08.04.08.03.08.04.15.08.25.12h.05c.68.26,1.21.13,1.61.04.15.11.38.13.5.3,0,0,.03.02.04.02.1.12.22.19.36.27.05.03.11.06.18.09.31.21.73.26,1.09.35.17.04.56.08.84.05.5.57,1.25.74,1.91.84.06.02.28.07.39.1.04.05.09.09.13.12.12.15.34.23.43.42,0,.02.02.04.03.05.07.14.18.23.29.34.05.03.11.07.16.1.26.29.64.45.99.59.2.1.43.13.66.14,0,0,.03.05.03.06.11.19.16.45.31.61.07.17.21.32.34.45.03.02.06.06.13.1.21.21.47.43.75.57.19.13.42.21.66.24.24.04.5.02.68.17.09.18.22.35.32.56l.05.06c.03.07.1.14.18.25.31.51.87.8,1.46.92.13.86.79,1.39,1.42,1.81.04.03.2.2.3.27,0,.06.02.12.04.17.08.2.2.39.22.6,0,.16.51.85.51.85.21.36.59.64,1.02.78.1.04.22.08.32.1.25.57.21,1.29.66,1.78.04.05.08.11.13.15.11.14.25.27.44.37.02,0,.03.01.04.02-.02.61-.03,1.24.27,1.76.01.03.04.1.09.12.38.47.57.97.48,1.6-.01.34-.11.68.03,1.01.16.39.34.8.68,1.09-.27.66-.44,1.34-.26,2.01.02.16.04.31.08.46.02.44.24.82.57,1.18.07.1.15.18.24.25-.02.67-.36,1.37-.09,2.08.02.05.05.13.08.19,0,.01.02.04.02.06-.33.63-.62,1.34-.49,2.06.01.18.05.34.08.51.02.48.24.95.55,1.29.04.06.1.11.14.16-.13.82-.32,1.17.02,2.16.26.34.11,1,0,1.4-.09.37-.23.72-.14,1.1.07.47.2.95.52,1.32-.38.67-.58,1.42-.45,2.18.01.17.05.34.07.51.02.46.24.94.55,1.29.07.09.16.18.24.26,0,.19-.03.29-.05.56-.01.25-.04.5-.03.75.02.52.11,1.05.39,1.52.04.09.1.19.16.27.16.25.32.49.57.66.02.01.04.02.05.04.16.87.58,1.86,1.39,2.45.04.04.13.12.2.13.85.49,1.55.87,2.32,1.53.45.33.91.64,1.54.74.71.1,1.55.08,2.06-.22.51.19.79.35,1.17.45.36.1.74.13,1.12.08.18,0,.34-.02.51-.05.47,0,.95-.18,1.3-.49.1-.07.19-.14.26-.23.67.05,1.35.42,2.07.2.05-.01.13-.04.19-.07.01,0,.04-.01.06-.01v-.02c.61.09,1.2.28,1.88.16,1.51-.25,2.07-.83,2.07-.83.32-.24.61-.59.77-.95.64-1.44-.32-3.13-1.84-3.48l-.77-.18c-.7-.29-1.59-.06-2.27.14v-.08c-.76-.32-1.62-.16-2.32.06-.06.01-.31.06-.44.09-.07-.02-.13-.04-.2-.05-.2-.08-.45-.03-.64-.15-.01-.01-.04-.03-.05-.03-.15-.09-.3-.11-.47-.15-.06,0-.14,0-.21,0-.42-.11-.88-.03-1.3.04-.25.02-.47.14-.69.27-.01,0-.05-.02-.07-.02-.17-.1-.3-.27-.44-.33-.09-.12-.19-.15-.28-.19-.02,0-.04-.02-.08-.02-.15-.06-.31-.15-.49-.13-.13-.02-.27,0-.43.06-.17.06-.36.13-.49.07-.06-.12-.13-.25-.17-.4l-.03-.05c-.01-.05-.04-.1-.08-.18-.14-.34-.44-.51-.92-.64.13-.32.12-.56.07-.79-.03-.11-.08-.22-.13-.34l-.09-.18c-.04-.1-.07-.2-.11-.3-.02-.05-.06-.31-.11-.43.04-.05.05-.12.05-.18.04-.23.05-.48.13-.69.08-.15.1-.3.13-.47,0-.06.02-.14.01-.22.08-.41-.02-.87-.1-1.27-.04-.26-.18-.47-.31-.68.01-.01.02-.05.02-.07.09-.24.25-.44.28-.69.11-.19.1-.42.12-.63.01-.03,0-.08,0-.17.02-.35,0-.72-.09-1.05-.06-.25-.15-.51-.3-.72-.12-.22-.32-.42-.37-.67.08-.21.09-.43.15-.68,0,0,.02-.09,0-.09.02-.09.04-.18.05-.3v-.05c.05-.8-.23-1.33-.46-1.71.05-.2,0-.44.12-.63,0-.01,0-.04,0-.05.08-.15.1-.3.13-.47,0-.07.02-.14.01-.22.08-.41-.02-.86-.1-1.27-.04-.19-.16-.61-.31-.87.28-.77.09-1.61-.17-2.3-.02-.06-.08-.3-.11-.43.02-.07.03-.13.04-.2.06-.21,0-.49.09-.7.01-.02.02-.04.02-.06.08-.16.09-.33.11-.52,0-.07,0-.16,0-.23.07-.47-.08-.97-.21-1.4-.05-.27-.21-.5-.38-.71,0-.01.01-.06.01-.07.04-.25.18-.51.18-.79.06-.22.05-.46.01-.69-.01-.04-.01-.1-.05-.2-.05-.37-.13-.8-.3-1.14-.11-.27-.27-.52-.47-.71-.19-.21-.43-.37-.53-.64-.01-.23-.06-.49-.06-.76l-.02-.1c0-.09-.03-.2-.06-.37-.12-.72-.59-1.35-1.16-1.74.04-.5-.1-.97-.32-1.4-.24-.42-.56-.79-.86-1.11-.04-.05-.2-.28-.31-.38,0-.05.58-1.06-.91-1.98Z" fill="#f9c316"/>
          <path d="M160.53,75.94c-.02.23.14.47.37.74.05.06.11.14.18.21-.18.39-.67.52-.72.92-.01.04-.03.08-.03.12-.04.1-.06.23-.06.41,0,.02,0,.03,0,.04-.55.19-1.24.49-1.6,1.02-.03.03-.08.08-.08.14-.32.58-.69,1.01-1.34,1.26-.34.17-.69.29-.94.61-.29.36-.58.77-.66,1.24-.74.16-1.44.49-1.94,1.09-.13.13-.24.25-.34.39-.35.32-.58.79-.62,1.26-.03.12-.05.23-.04.35-.52.42-1.27.61-1.65,1.28-.03.05-.06.12-.09.18,0,0-.02.04-.04.05-.69.16-1.43.39-1.89.96-.13.13-.23.26-.34.39-.35.32-.57.8-.63,1.26-.02.07-.02.15-.03.21-.71.43-1.09.51-1.64,1.42-.09.42-.69.73-1.07.91-.34.17-.7.29-.93.61-.31.36-.6.77-.67,1.25-.75.14-1.45.48-1.95,1.07-.12.12-.23.26-.34.39-.34.31-.56.79-.63,1.26-.02.11-.04.24-.04.35-.52.43-1.27.63-1.63,1.27-.04.05-.08.12-.11.18-.11.16-.2.35-.24.57,0,.02,0,.04,0,.05-.6.23-1.25.5-1.63,1.03-.03.03-.08.08-.08.14-.32.57-.69,1.01-1.35,1.25-.34.17-.69.28-.94.6-.3.36-.58.77-.67,1.24-.75.15-1.45.48-1.95,1.07-.13.13-.24.25-.34.39-.35.32-.58.78-.63,1.26-.03.12-.05.23-.04.35-.53.42-1.27.6-1.66,1.27-.03.05-.07.12-.09.18,0,0-.02.04-.04.05h.01c-.51.36-1.07.63-1.5,1.18-.95,1.22-.97,2.02-.97,2.02-.07.4-.05.85.07,1.23.5,1.5,2.35,2.09,3.7,1.33l.69-.39c.71-.26,1.2-1.03,1.56-1.63l.05.06c.77-.28,1.29-.97,1.65-1.61.04-.05.18-.25.26-.36.06-.03.12-.06.18-.1.19-.08.35-.28.56-.32.02,0,.05,0,.06-.02.17-.03.3-.12.44-.21.05-.04.11-.09.16-.13.38-.2.67-.57.92-.9.17-.18.25-.43.33-.67.01,0,.05-.02.06-.03.22-.08.5-.09.71-.23.2-.05.38-.18.54-.31.03-.03.07-.05.13-.13.27-.2.56-.45.75-.75.17-.2.3-.44.36-.68.08-.25.1-.53.28-.71.19-.1.39-.23.62-.32l.07-.05c.07-.03.16-.1.29-.19.55-.35.92-.95,1.06-1.6.91-.2,1.48-.99,1.88-1.71.03-.05.19-.24.26-.36.06,0,.12-.04.18-.08.2-.12.4-.27.61-.35.17-.03.29-.12.44-.21.06-.04.12-.08.18-.13.36-.2.65-.57.91-.9.17-.2.24-.44.31-.68.02,0,.06-.02.06-.03.24-.09.5-.1.71-.23.21-.04.39-.19.55-.32.03,0,.06-.04.13-.11.28-.21.55-.47.75-.75.16-.21.29-.45.35-.69.09-.24.11-.52.28-.72.21-.08.39-.21.62-.33,0,0,.08-.04.07-.05.08-.04.17-.09.26-.16l.04-.04c.64-.48.87-1.03,1.01-1.45.18-.09.33-.29.55-.32.01,0,.04-.02.05-.03.17-.03.29-.12.44-.21.06-.04.12-.08.18-.13.36-.2.64-.57.9-.9.12-.15.36-.52.46-.8.76-.28,1.28-.97,1.64-1.62.04-.05.18-.26.26-.36.06-.03.12-.06.17-.1.19-.08.35-.29.56-.33.02,0,.05,0,.06-.02.17-.03.29-.12.44-.21.05-.04.11-.09.16-.14.38-.2.66-.58.91-.91.17-.18.25-.43.32-.67.01,0,.05-.02.06-.03.22-.09.5-.1.71-.23.2-.05.38-.18.54-.31.03-.03.07-.05.13-.13.27-.21.56-.46.74-.75.17-.2.29-.44.36-.69.08-.25.1-.53.27-.72.19-.1.39-.23.62-.33l.07-.05c.07-.03.16-.1.29-.19.28-.18.51-.42.68-.69.09-.14.16-.29.22-.44.07-.16.18-.39.24-.58,1.19-.53,1.84-2.03,1.91-3.22.01-.08.08-.46.08-.65.05-.07.08-.16.12-.25.11-.33.18-.69.29-.99.05-.1.09-.52.07-.91-.02-.38-.06-.66-.05-.64-.02-.46-.24-.93-.56-1.28-.07-.08-.16-.18-.24-.25,0-.67.34-1.39.08-2.07-.02-.06-.04-.14-.07-.2-.05-.19-.13-.38-.28-.54-.01-.01-.03-.02-.03-.04.21-.61.43-1.29.26-1.92,0-.04,0-.12-.05-.15-.23-.61-.32-1.17-.09-1.84.09-.37.23-.72.15-1.11-.09-.46-.21-.94-.52-1.3.36-.67.56-1.42.43-2.19-.01-.18-.04-.34-.08-.51-.02-.48-.23-.95-.56-1.28-.07-.1-.15-.18-.24-.25.02-.67.36-1.37.1-2.08-.02-.05-.05-.13-.08-.19,0-.01-.02-.04-.02-.06.33-.63.62-1.35.5-2.06-.01-.18-.05-.34-.07-.51-.02-.47-.24-.95-.55-1.29-.04-.06-.1-.11-.14-.16.13-.82.32-1.17-.02-2.16-.26-.34-.11-1,0-1.4.09-.37.23-.72.14-1.1-.07-.47-.2-.95-.52-1.32.39-.65.57-1.46.47-2.14,0-.15-.04-.3-.05-.45,0-.41-.19-.84-.47-1.18-.06-.08-.14-.18-.22-.25.05-.61.5-1.2.33-1.85,0-.06-.01-.13-.03-.19-.02-.18-.06-.36-.18-.54-.01-.01-.02-.03-.02-.04.3-.51.68-1.04.65-1.63,0-.03.02-.1-.01-.14-.05-.59-.02-1.11.41-1.6.2-.28.42-.53.48-.88.08-.41.12-.85-.03-1.27.6-.41,1.05-.91,1.26-1.56.06-.14.11-.28.15-.43.19-.37.23-.83.11-1.26-.02-.11-.04-.22-.09-.32.36-.5.97-.83,1.15-1.49.01-.05.03-.12.04-.18,0,0,0-.04.02-.06h-.02c.38-.42.85-.73,1.12-1.28.64-1.21.58-1.96.58-1.96.01-.38-.06-.82-.21-1.17-.61-1.44-2.49-1.96-3.83-.94l-.65.53c-.71.4-1.08,1.34-1.32,2.04l-.06-.04c-.72.5-1.08,1.38-1.25,2.15-.02.07-.11.32-.15.45-.05.05-.1.11-.14.16-.16.15-.25.42-.45.54-.02,0-.04.03-.05.04-.15.1-.26.24-.36.39-.03.06-.07.14-.1.2-.29.37-.44.85-.54,1.3-.08.26-.06.54-.03.8,0,0-.04.05-.05.06-.17.19-.43.34-.56.58-.16.15-.26.38-.35.58-.01.04-.04.09-.06.19-.16.34-.29.74-.31,1.12-.05.28-.04.58.02.84.06.28.2.54.15.81-.11.2-.2.44-.35.67l-.03.09c-.04.08-.07.19-.13.35-.25.67-.2,1.45.12,2.07-.6.8-.48,1.88-.27,2.73.01.06.03.34.07.48-.04.06-.06.12-.07.19-.06.25-.09.52-.17.74-.09.16-.11.33-.14.51-.01.07-.02.16-.02.24-.09.46,0,.93.08,1.33.04.26.18.47.31.68-.01.01-.02.05-.02.07-.09.24-.25.44-.28.69-.11.19-.1.42-.12.63-.01.03,0,.08,0,.17-.02.35,0,.73.09,1.06.06.25.15.51.3.72.12.22.32.42.37.67-.08.21-.09.43-.15.68,0,0-.02.09,0,.09-.02.09-.04.18-.05.3v.05c-.05.81.23,1.33.45,1.72-.05.2,0,.44-.12.63,0,.01,0,.04,0,.05-.08.15-.1.31-.13.48,0,.07-.02.14-.01.22-.08.41.02.87.1,1.27.04.19.16.61.31.87-.28.77-.09,1.61.17,2.31.02.06.08.3.11.43-.02.07-.03.13-.04.2-.07.2,0,.45-.11.64-.01.01-.02.04-.02.05-.08.15-.1.31-.13.48,0,.06,0,.14,0,.21-.09.42,0,.88.1,1.29.03.24.17.47.3.68,0,.01-.02.05-.02.07-.08.23-.25.45-.28.7-.09.19-.1.41-.12.62,0,.04,0,.09.01.18-.02.34-.01.73.09,1.06.05.26.14.51.29.71.14.22.34.41.37.67-.05.21-.07.45-.15.69v.09c-.03.08-.03.18-.05.34-.09.66.13,1.32.54,1.83-.43.84-.19,1.78.1,2.54.02.05.06.31.11.43-.02.03-.26.18-.39.51-.14.28-.14.95.22,1.21Z" fill="#f9c316"/>
          <path d="M88.16,149.49c-.34.32-.56.79-.62,1.26-.02.11-.04.24-.03.35-.51.43-1.27.64-1.63,1.28-.04.05-.08.12-.11.18-.11.16-.2.35-.24.57,0,.02,0,.04,0,.05-.6.24-1.25.51-1.63,1.04-.03.03-.08.08-.08.14-.32.57-.69,1.01-1.34,1.26-.34.17-.69.29-.94.61-.29.36-.58.77-.66,1.24-.75.16-1.45.49-1.94,1.09-.13.13-.24.25-.34.39-.35.32-.58.79-.62,1.26-.03.12-.04.23-.04.35-.41.3-.86.14-1.12.5-.02.02-.05.07-.07.1,0,0-.02.02-.03.02-.47-.22-.83-.49-1.15-.4-.08,0-.17.03-.23.04-.03,0-.34.01-.56.07-.23.06-.45.16-.65.29-.07.03-.12.08-.18.12-.79-.26-1.11-.5-2.14-.33-.38.21-1-.05-1.39-.22-.35-.15-.68-.34-1.07-.31-.48,0-.97.04-1.38.3-.6-.48-1.31-.8-2.09-.79-.17-.02-.35,0-.52,0-.46-.06-.96.08-1.36.34-.1.06-.21.13-.29.2-.66-.12-1.31-.56-2.03-.42-.07,0-.14.01-.21.03-.2.02-.39.07-.58.18-.01.01-.03.02-.04.02-.57-.31-1.19-.63-1.85-.58-.04,0-.12-.01-.16.03-.64.13-1.21.12-1.83-.21-.35-.15-.67-.34-1.07-.33-.47,0-.96.06-1.37.3-.6-.47-1.31-.8-2.08-.79-.18-.02-.35-.02-.52-.01-.47-.06-.97.06-1.36.33-.11.06-.2.11-.29.2-.66-.13-1.29-.58-2.04-.44-.05,0-.13.03-.2.05-.01,0-.04,0-.07,0v.02c-.6-.17-1.17-.42-1.86-.39-.78.03-1.43.2-1.79.34-.38.14-.54.29-.54.29-.36.23-.69.56-.87.92-.7,1.43.27,3.11,1.61,3.59l.69.25c.64.36,1.56.24,2.25.13v.08c.7.4,1.57.36,2.29.22.07,0,.31-.03.44-.04.06.03.12.05.19.07.18.1.45.08.61.22.01.01.04.03.05.03.13.11.28.15.45.2.06.01.14.02.2.03.4.16.87.14,1.29.11.25.01.49-.08.72-.18.01,0,.05.03.06.03.21.11.4.32.64.39.17.12.39.17.59.22.04,0,.09.02.18.02.33.07.71.13,1.05.09.26,0,.52-.06.75-.17.24-.1.46-.26.72-.25.2.09.43.15.65.26l.09.02c.07.03.18.06.33.1.63.19,1.33.09,1.9-.23.75.56,1.72.48,2.52.32.05,0,.31-.01.44-.04.05.04.11.06.17.08.23.07.47.12.67.24.13.11.28.15.45.2.06.02.14.04.22.05.39.14.86.12,1.27.11.26,0,.49-.1.72-.2.01.01.05.03.06.03.22.13.4.32.64.39.17.14.4.17.6.21.02.02.08.02.17.03.34.07.71.12,1.05.08.26-.02.52-.07.75-.18.24-.08.46-.25.72-.25.2.11.41.16.65.26,0,0,.09.03.09.02.09.03.18.07.29.09h.05c.79.18,1.35,0,1.76-.17.19.08.43.07.6.22.01,0,.04.01.05.02.09.11.4.15.63.19.09.01.21.03.32.02.59.1,1.29-.06,1.87-.25.28-.09.86-.36,1.17-.64,1.14-.08,2.23-.97,2.78-1.84.04-.05.18-.26.26-.36.06-.03.12-.06.18-.1.19-.08.35-.29.56-.33.02,0,.05,0,.06-.02.17-.03.3-.12.44-.21.05-.04.11-.09.16-.14.38-.2.66-.58.91-.91.17-.18.25-.43.32-.67.01,0,.05-.02.06-.03.22-.09.5-.1.71-.23.2-.05.38-.19.54-.31.03-.03.07-.05.13-.13.27-.21.56-.46.74-.75.17-.2.29-.44.36-.69.08-.25.1-.52.27-.71.19-.1.39-.23.62-.33l.07-.05c.07-.04.16-.1.29-.19.55-.36.92-.96,1.04-1.6.91-.21,1.47-1,1.87-1.72.03-.05.19-.25.26-.36.06,0,.12-.04.17-.08.2-.12.4-.28.61-.36.17-.03.82-.73.82-.73.34-.32.56-.79.62-1.26.02-.11.04-.24.03-.35.51-.43,1.27-.64,1.63-1.28.04-.05.08-.12.11-.18.11-.16.2-.35.24-.57,0-.02,0-.04,0-.05.6-.24,1.25-.51,1.63-1.04.03-.03.08-.08.08-.14.32-.57.69-1.01,1.34-1.26.34-.17.69-.29.94-.61.29-.36.58-.77.66-1.24.75-.16,1.45-.49,1.94-1.09.13-.13.24-.25.34-.39.35-.32.58-.79.62-1.26.03-.12.05-.23.04-.35.52-.42,1.27-.61,1.65-1.28.03-.05.06-.12.09-.18,0,0,.02-.04.04-.05.69-.16,1.43-.4,1.89-.96.13-.13.23-.26.34-.39.35-.32.57-.8.62-1.26.02-.07.02-.15.03-.21.71-.43,1.1-.52,1.64-1.42.09-.42.69-.73,1.07-.91.34-.17.7-.3.93-.61.31-.36.6-.77.67-1.25.75-.15,1.45-.48,1.95-1.07.12-.12.23-.26.34-.39.34-.31.56-.79.63-1.26.02-.11.04-.24.04-.35.52-.43,1.27-.63,1.63-1.27.04-.05.08-.12.11-.18.11-.16.2-.35.24-.57,0-.02,0-.04,0-.05.6-.23,1.25-.5,1.63-1.03.03-.03.08-.08.08-.14.32-.57.69-1.01,1.35-1.25.34-.17.69-.28.94-.6.3-.36.58-.77.67-1.24.75-.15,1.45-.48,1.95-1.07.13-.12.24-.25.34-.39.35-.32.58-.78.63-1.25.03-.12.05-.23.04-.35.53-.42,1.27-.6,1.66-1.26.03-.05.07-.12.09-.18,0,0,.02-.04.04-.05h-.01c.51-.36,1.07-.63,1.5-1.18.95-1.22.97-2.02.97-2.02.07-.4.05-.85-.07-1.23-.5-1.5-2.35-2.09-3.7-1.33l-.69.39c-.71.26-1.2,1.03-1.56,1.63l-.05-.06c-.77.28-1.29.97-1.65,1.61-.04.05-.18.25-.26.36-.06.03-.12.06-.18.1-.19.08-.35.28-.57.32-.02,0-.05,0-.06.02-.17.03-.3.12-.44.21-.05.04-.11.09-.16.13-.38.2-.67.57-.92.9-.17.18-.25.43-.33.67-.01,0-.05.02-.06.03-.22.08-.5.1-.71.23-.2.05-.38.18-.54.31-.03.03-.07.05-.13.13-.27.21-.56.46-.75.75-.17.2-.3.44-.36.68-.08.25-.1.53-.28.71-.19.1-.39.23-.62.32l-.07.05c-.07.03-.16.1-.29.19-.55.35-.92.95-1.05,1.6-.91.2-1.48.99-1.88,1.71-.03.05-.19.24-.26.36-.06,0-.12.04-.18.08-.2.12-.4.28-.61.35-.17.03-.3.12-.44.21-.06.04-.12.08-.18.13-.36.2-.65.57-.91.9-.17.2-.24.44-.31.68-.02,0-.06.02-.06.03-.24.09-.5.1-.71.23-.21.04-.39.19-.55.32-.03,0-.06.04-.13.11-.28.21-.55.47-.75.75-.16.21-.29.45-.35.69-.09.24-.11.52-.28.71-.21.08-.39.21-.62.33,0,0-.08.04-.07.05-.08.04-.17.09-.26.16l-.04.04c-.65.48-.87,1.03-1.01,1.45-.18.09-.33.29-.55.32-.01,0-.04.02-.05.03-.17.03-.3.12-.44.21-.06.04-.12.08-.18.13-.36.2-.64.58-.9.9-.12.15-.36.52-.46.8-.77.29-1.28.98-1.64,1.62-.04.05-.18.26-.26.36-.06.03-.12.06-.17.1-.19.08-.35.29-.56.33-.02,0-.05,0-.06.02-.17.03-.29.12-.44.21-.05.04-.11.09-.16.14-.38.2-.66.58-.91.91-.17.18-.25.43-.32.67-.01,0-.05.02-.06.03-.22.09-.5.1-.71.23-.2.05-.38.19-.54.31-.03.03-.07.05-.13.13-.27.21-.56.46-.74.75-.17.2-.29.44-.36.69-.08.25-.1.52-.27.71-.19.1-.39.23-.62.33l-.07.05c-.07.04-.16.1-.29.19-.55.36-.92.96-1.04,1.6-.91.21-1.47,1-1.87,1.72-.03.05-.19.25-.26.36-.06,0-1.08-.33-1.6,1.17Z" fill="#f9c316"/>
          <path d="M12.66,199.57c.14.49.46.96.88,1.25.1.07.21.15.31.2.17.7.1,1.53.59,2.16.04.06.08.13.14.18.12.17.27.34.47.46.02,0,.04.01.04.03.03.69.13,1.45.56,2.01.02.04.06.11.11.13.51.5.84,1.01.99,1.74.11.39.18.79.47,1.13.34.38.73.77,1.2.94.11.79.41,1.61,1.06,2.19.13.15.27.28.41.4.35.39.86.66,1.35.72.12.03.24.05.37.04.48.54.75,1.33,1.51,1.69.05.03.13.06.2.09.01,0,.04.02.06.04.27.7.67,1.46,1.37,1.86.16.12.33.2.49.3.42.32.99.45,1.48.42.08,0,.16-.01.22-.01.65.62.88.99,1.99,1.28.46-.04.99.47,1.34.76.31.27.6.57,1.02.68.51.16,1.05.27,1.54.14.52.62,1.22,1.14,2.08,1.29.18.05.38.08.56.12.49.15,1.07.08,1.53-.11.11-.04.24-.1.34-.15.7.18,1.37.72,2.19.59.07,0,.16,0,.23-.02.22-.01.44-.05.65-.16.02-.01.03-.02.04-.02.59.32,1.2.64,1.86.58.04,0,.12.01.16-.03.65-.13,1.22-.12,1.83.21.35.15.66.34,1.07.33.47,0,.96-.06,1.38-.3.6.47,1.31.79,2.08.79.18.02.35.02.52.01.47.06.98-.06,1.37-.33.11-.06.21-.11.29-.2.66.13,1.29.58,2.04.44.05,0,.13-.03.2-.05.01,0,.04,0,.07,0v-.02c.6.17,1.17.42,1.86.39,1.54-.07,2.17-.57,2.17-.57.35-.2.68-.51.88-.85.81-1.36.05-3.15-1.4-3.68l-.74-.27c-.66-.37-1.57-.25-2.26-.13v-.08c-.7-.4-1.56-.35-2.29-.21-.07,0-.31.03-.44.04-.06-.03-.12-.05-.19-.07-.18-.1-.44-.08-.61-.22-.01-.01-.04-.03-.05-.03-.13-.11-.28-.15-.45-.2-.06-.01-.14-.02-.2-.03-.4-.16-.87-.14-1.28-.11-.25-.01-.49.09-.72.18-.01,0-.05-.03-.06-.03-.21-.11-.4-.32-.63-.39-.17-.12-.38-.17-.59-.22-.04,0-.09-.02-.18-.02-.33-.07-.71-.13-1.05-.09-.26,0-.52.06-.75.17-.24.1-.47.26-.72.25-.2-.09-.43-.15-.65-.26l-.09-.02c-.07-.03-.18-.06-.33-.1-.61-.2-1.36-.08-1.87.22-.67-.57-1.52-.54-2.28-.44-.05,0-.28-.03-.41-.01-.04-.05-.09-.08-.15-.1-.2-.1-.41-.18-.57-.31-.1-.12-.23-.18-.37-.26-.05-.03-.12-.06-.18-.08-.32-.21-.74-.24-1.11-.32-.23-.05-.45,0-.68.05,0-.02-.04-.04-.05-.04-.17-.16-.27-.39-.46-.52-.11-.17-.3-.26-.46-.35-.02-.02-.06-.04-.13-.07-.28-.14-.57-.31-.87-.36-.23-.06-.47-.07-.71-.05-.23,0-.48.08-.7,0-.12-.17-.29-.28-.45-.46,0,0-.06-.06-.06-.05-.06-.06-.12-.13-.2-.19l-.04-.02c-.58-.44-1.11-.5-1.52-.53-.11-.15-.33-.23-.39-.44,0,0-.02-.03-.03-.04-.05-.15-.15-.25-.25-.37-.04-.04-.09-.1-.15-.14-.24-.29-.6-.49-.93-.68-.15-.09-.52-.24-.79-.3-.31-.69-.96-1.09-1.57-1.39-.05-.03-.24-.15-.34-.22-.02-.06-.05-.11-.08-.16-.07-.18-.26-.32-.28-.52,0-.02,0-.04-.01-.05-.02-.16-.1-.27-.17-.41-.03-.05-.08-.1-.11-.15-.15-.36-.49-.61-.76-.86-.14-.16-.37-.25-.58-.33,0-.01-.01-.05-.02-.06-.05-.21-.02-.47-.1-.68,0-.19-.1-.37-.19-.53-.02-.03-.04-.07-.09-.13-.15-.26-.3-.57-.53-.77-.14-.18-.34-.32-.55-.42-.21-.12-.46-.18-.59-.38-.03-.2-.11-.39-.13-.62l-.03-.08c0-.07-.04-.16-.08-.3-.16-.57-.57-1.04-1.11-1.33.15-.86-.32-1.57-.77-2.17-.03-.04-.13-.25-.21-.35.02-.06.02-.12,0-.17-.01-.22-.05-.44-.01-.64.03-.07-.03-.31-.1-.54-.06-.22-.12-.43-.12-.43-.08-.41-.38-.79-.73-1.06-.08-.07-.18-.14-.27-.2-.08-.62.21-1.29-.08-1.9-.02-.06-.04-.12-.08-.18-.07-.17-.14-.34-.29-.49-.01-.01-.03-.02-.03-.03.19-.57.42-1.17.29-1.75,0-.04,0-.1-.05-.14-.21-.57-.23-1.1.04-1.67.14-.32.32-.61.29-.98-.04-.42-.06-.87-.3-1.25.46-.54.84-1.14.88-1.83.03-.16.05-.31.06-.46.1-.41.03-.88-.17-1.27-.04-.11-.08-.2-.15-.3.21-.58.79-1.03.79-1.73,0-.05,0-.12,0-.19,0-.01,0-.04,0-.06.55-.39,1.08-.83,1.28-1.44.06-.15.1-.29.15-.43.2-.38.23-.84.12-1.27,0-.07-.04-.14-.05-.2.54-.55.83-.71,1.11-1.62-.03-.41.46-.79.78-1,.28-.2.59-.36.75-.67.23-.36.42-.77.43-1.21.7-.18,1.31-.49,1.74-1.03.1-.11.2-.24.29-.35.31-.27.48-.71.54-1.15.02-.1.03-.22.03-.33.49-.37,1.21-.45,1.58-1.01.04-.05.08-.1.11-.16.12-.14.22-.29.28-.49,0-.02,0-.04.01-.04.58-.12,1.22-.22,1.64-.62.03-.02.09-.06.1-.11.39-.45.81-.76,1.45-.79.34-.04.68-.04.97-.25.35-.22.71-.48.91-.88.7.17,1.38.14,2-.13.15-.05.28-.11.42-.18.4-.12.77-.39.99-.78.07-.09.13-.18.17-.28.61-.07,1.27.15,1.87-.16.04-.02.11-.06.16-.1.01,0,.03-.02.05-.02v-.02c.55,0,1.1.14,1.69-.04,1.32-.34,1.83-.91,1.83-.91.29-.24.56-.59.72-.96.65-1.43-.24-3.16-1.9-3.45l-.83-.13c-.77-.23-1.72.1-2.39.42v-.08c-.87-.2-1.75.15-2.44.53-.07.02-.31.14-.43.2-.07,0-.14,0-.21,0-.22-.02-.48.1-.7.04-.02,0-.05-.01-.06-.01-.18-.05-.34-.02-.53,0-.07.02-.15.04-.22.06-.46.04-.93.25-1.32.49-.24.11-.44.32-.61.51-.01,0-.06,0-.07,0-.26,0-.53-.08-.8-.01-.22-.01-.45.06-.67.13-.04.02-.1.03-.18.08-.35.11-.74.3-1.03.54-.24.16-.46.35-.6.59-.16.23-.26.51-.5.66-.23.06-.47.13-.73.2l-.09.04c-.09.02-.19.07-.34.14-.67.26-1.19.84-1.44,1.49-.99.12-1.72.92-2.19,1.66-.03.05-.23.25-.3.37-.07,0-.13.04-.19.08-.22.13-.43.3-.65.39-.18.04-.32.14-.48.24-.06.04-.13.09-.19.15-.38.24-.68.66-.95,1.03-.17.23-.23.49-.3.75-.02,0-.06.03-.07.04-.24.12-.51.17-.73.35-.22.08-.38.27-.54.44-.03.01-.06.06-.12.14-.27.28-.53.6-.69.95-.13.26-.23.54-.26.81-.06.27-.03.56-.15.81-.2.14-.35.33-.56.51,0,0-.08.07-.06.08-.07.07-.15.14-.23.24l-.03.05c-.52.71-.62,1.35-.62,1.83-.15.16-.24.41-.44.53,0,.01-.03.03-.04.04-.15.1-.25.24-.36.39-.04.06-.09.13-.12.21-.27.36-.43.85-.54,1.3-.05.21-.13.68-.11,1-.58.66-.77,1.6-.75,2.4,0,.07-.03.34-.05.48-.04.06-.08.13-.11.19-.14.18-.15.47-.31.63-.02.01-.03.04-.04.05-.12.13-.19.29-.26.46-.02.07-.04.15-.06.22-.22.42-.22.94-.24,1.4-.03.27.04.54.14.79,0,.01-.03.05-.03.07-.12.23-.33.43-.41.69-.13.19-.18.43-.23.65,0,.04-.02.1-.01.2-.06.37-.12.8-.06,1.17,0,.29.09.58.22.82.12.26.3.49.31.77-.07.23-.1.48-.19.74v.1c-.03.09-.04.2-.06.37-.12.72.14,1.47.56,2.02-.39.92-.07,1.96.34,2.76.02.05.1.33.17.45-.03.05-.86.82.25,2.16Z" fill="#f9c316"/>
        </g>
        <g>
          <path d="M114.92,114.84c.35-.32.57-.81.64-1.28.02-.11.04-.24.04-.35.52-.44,1.29-.65,1.66-1.31.04-.06.08-.12.11-.18.11-.17.21-.35.24-.58,0-.02,0-.04,0-.05.61-.24,1.27-.52,1.66-1.07.03-.03.08-.08.08-.14.33-.58.7-1.03,1.37-1.29.35-.17.7-.3.95-.62.3-.37.59-.78.68-1.26.76-.17,1.47-.51,1.97-1.12.13-.13.24-.26.35-.4.36-.33.59-.8.64-1.28.03-.12.05-.23.04-.35.53-.43,1.29-.63,1.68-1.31.03-.05.07-.12.09-.18,0,0,.02-.04.04-.06.7-.17,1.45-.42,1.92-.99.13-.13.23-.27.35-.4.36-.33.58-.81.64-1.28.02-.07.02-.15.03-.21.72-.45,1.11-.53,1.67-1.45.1-.43.7-.74,1.09-.93.35-.17.71-.31.95-.63.32-.37.61-.78.69-1.27.76-.16,1.48-.5,1.98-1.1.12-.12.24-.27.35-.39.35-.32.58-.8.65-1.27.02-.11.04-.24.04-.35.53-.44,1.29-.65,1.66-1.3.04-.06.08-.12.11-.18.11-.17.21-.35.25-.57,0-.02,0-.04,0-.05.61-.24,1.27-.52,1.66-1.06.03-.03.08-.08.09-.14.33-.58.71-1.02,1.37-1.28.35-.17.7-.29.96-.62.3-.37.59-.78.68-1.26.76-.16,1.47-.5,1.98-1.1.13-.13.25-.26.35-.39.36-.33.6-.8.65-1.27.03-.12.05-.23.04-.35.54-.43,1.29-.62,1.69-1.29.03-.05.07-.12.1-.18,0,0,.02-.04.04-.06h-.01c.52-.37,1.09-.65,1.53-1.2.97-1.24,1-2.05,1-2.05.08-.4.06-.86-.06-1.24-.5-1.51-2.36-2.08-3.73-1.29l-.7.4c-.72.27-1.23,1.06-1.59,1.67l-.05-.06c-.78.29-1.31.99-1.68,1.64-.04.05-.19.26-.27.37-.07.03-.12.06-.18.1-.2.08-.36.29-.57.33-.02,0-.05,0-.06.02-.17.03-.3.12-.45.21-.05.04-.11.09-.16.14-.39.21-.68.58-.94.92-.17.18-.26.43-.34.67-.01,0-.05.02-.07.03-.23.09-.5.1-.72.24-.21.05-.38.19-.55.32-.03.03-.08.05-.13.13-.27.21-.57.47-.76.76-.17.2-.3.44-.37.69-.09.25-.11.53-.29.72-.2.1-.39.24-.63.33l-.08.05c-.08.04-.16.1-.29.19-.56.36-.94.97-1.08,1.62-.93.22-1.5,1.02-1.91,1.75-.03.05-.2.25-.26.37-.07,0-.12.04-.18.08-.21.13-.4.28-.62.36-.17.03-.3.13-.45.22-.06.04-.12.08-.18.14-.37.21-.66.59-.92.92-.17.2-.25.44-.32.69-.02,0-.06.02-.07.03-.24.09-.5.1-.72.24-.21.04-.39.2-.56.33-.03,0-.07.05-.13.11-.28.22-.56.48-.76.76-.16.21-.29.45-.36.7-.09.24-.12.52-.28.72-.22.08-.39.22-.63.34,0,0-.08.05-.07.06-.08.05-.17.09-.26.16l-.04.04c-.66.49-.88,1.05-1.04,1.48-.19.09-.34.29-.56.33-.01,0-.04.02-.05.03-.17.03-.3.13-.45.22-.06.04-.12.08-.18.14-.37.21-.66.59-.92.92-.12.16-.37.53-.47.81-.78.3-1.3,1-1.67,1.65-.04.05-.18.26-.26.37-.07.03-.12.06-.18.1-.2.08-.36.29-.57.34-.02,0-.05,0-.06.02-.17.04-.3.13-.45.22-.05.04-.11.09-.16.14-.38.21-.67.59-.93.93-.17.18-.25.44-.33.68-.01,0-.05.02-.07.03-.22.09-.5.11-.72.24-.21.05-.38.19-.55.32-.03.03-.07.06-.13.13-.27.21-.57.47-.76.76-.17.2-.3.44-.37.7-.08.25-.1.53-.28.72-.2.1-.39.24-.63.34l-.07.06c-.07.04-.16.1-.29.19-.56.37-.94.98-1.07,1.63-.93.22-1.5,1.03-1.9,1.76-.03.05-.2.25-.26.37-.07,0-.12.05-.18.08-.21.13-.4.28-.62.37-.17.04-.84.75-.84.75-.35.32-.57.81-.64,1.28-.02.11-.04.24-.04.35-.52.44-1.29.65-1.66,1.31-.04.06-.08.12-.11.18-.11.17-.21.35-.24.58,0,.02,0,.04,0,.05-.61.24-1.27.52-1.66,1.07-.03.03-.08.08-.08.14-.33.58-.7,1.03-1.37,1.29-.35.17-.7.3-.95.62-.3.37-.59.78-.68,1.26-.76.17-1.47.51-1.97,1.12-.13.13-.24.26-.35.4-.36.33-.59.8-.64,1.28-.03.12-.05.23-.04.35-.53.43-1.29.63-1.68,1.31-.03.05-.07.12-.09.18,0,0-.02.04-.04.06-.7.17-1.45.42-1.92.99-.13.13-.23.27-.35.4-.36.33-.58.81-.64,1.28-.02.07-.02.15-.03.21-.72.45-1.11.53-1.67,1.45-.1.43-.7.74-1.09.93-.35.17-.71.31-.95.63-.32.37-.61.78-.69,1.27-.76.16-1.48.5-1.99,1.1-.12.12-.24.27-.35.39-.35.32-.58.8-.65,1.27-.02.11-.04.24-.04.35-.53.44-1.29.65-1.66,1.3-.04.06-.09.12-.11.18-.11.17-.21.35-.25.57,0,.02,0,.04,0,.05-.61.24-1.27.52-1.66,1.06-.03.03-.08.08-.09.14-.33.58-.71,1.02-1.37,1.28-.35.17-.7.29-.96.62-.3.37-.59.78-.68,1.26-.76.16-1.47.5-1.98,1.1-.13.13-.25.26-.35.39-.36.33-.6.8-.65,1.27-.03.12-.05.23-.04.35-.54.43-1.29.62-1.69,1.29-.03.05-.07.12-.1.18,0,0-.02.04-.04.06h.01c-.52.37-1.09.65-1.53,1.2-.97,1.24-1,2.05-1,2.05-.08.4-.06.86.06,1.24.5,1.51,2.36,2.08,3.73,1.29l.7-.4c.72-.27,1.23-1.06,1.59-1.67l.05.06c.78-.29,1.31-.99,1.68-1.64.04-.05.19-.26.27-.37.07-.03.12-.06.18-.1.2-.08.36-.29.57-.33.02,0,.05,0,.06-.02.17-.03.3-.12.45-.21.05-.04.11-.09.16-.14.39-.21.68-.58.94-.92.17-.18.26-.43.34-.67.01,0,.05-.02.07-.03.23-.09.5-.1.72-.24.21-.05.38-.19.55-.32.03-.03.08-.05.13-.13.27-.21.57-.47.76-.76.17-.2.3-.44.37-.69.09-.25.11-.53.29-.72.2-.1.39-.24.63-.33l.08-.05c.08-.04.16-.1.29-.19.56-.36.94-.97,1.08-1.62.93-.22,1.5-1.02,1.91-1.75.03-.05.2-.25.26-.37.07,0,.12-.04.18-.08.21-.13.4-.28.62-.36.17-.03.3-.13.45-.22.06-.04.12-.08.18-.14.37-.21.66-.59.92-.92.17-.2.25-.44.32-.69.02,0,.06-.02.07-.03.24-.09.5-.1.72-.24.21-.04.39-.2.56-.33.03,0,.07-.05.13-.11.28-.22.56-.48.76-.76.16-.21.29-.45.36-.7.09-.24.12-.52.28-.72.22-.08.39-.22.63-.34,0,0,.08-.05.07-.06.08-.05.17-.09.26-.16l.04-.04c.66-.49.88-1.05,1.04-1.48.19-.09.34-.29.56-.33.01,0,.04-.02.05-.03.17-.03.3-.13.45-.22.06-.04.12-.08.18-.14.37-.21.66-.59.92-.92.12-.16.37-.53.47-.81.78-.3,1.3-1,1.67-1.65.04-.05.18-.26.26-.37.07-.03.12-.06.18-.1.2-.08.36-.29.57-.34.02,0,.05,0,.06-.02.17-.04.3-.13.45-.22.05-.04.11-.09.16-.14.38-.21.67-.59.93-.93.17-.18.25-.44.33-.68.01,0,.05-.02.07-.03.22-.09.5-.11.72-.24.21-.05.38-.19.55-.32.03-.03.07-.06.13-.13.27-.21.57-.47.76-.76.17-.2.3-.44.37-.7.08-.25.1-.53.28-.72.2-.1.39-.24.63-.34l.07-.06c.07-.04.16-.1.29-.19.56-.37.94-.98,1.07-1.63.93-.22,1.5-1.03,1.9-1.76.03-.05.2-.25.26-.37.07,0,1.09.32,1.63-1.2Z" fill="#f9c316"/>
          <path d="M180.13,7.57c.64-.14,1.26-.52,1.72-.89.11-.09.24-.2.34-.3.95-.16,1.98.1,2.95-.26.09-.03.2-.05.29-.08.27-.07.54-.16.79-.32.02-.02.03-.03.05-.03.87.15,1.82.4,2.73.23.06,0,.16,0,.22-.04.9-.17,1.72-.25,2.62.1.51.15.97.31,1.53.33.66.02,1.36-.02,1.95-.2.42.28.88.51,1.36.7.48.21.99.36,1.53.43.25.04.48.11.71.14.65.18,1.36.18,1.94.05.16-.02.3-.04.44-.1.91.34,1.66,1.04,2.71,1.22.07.02.18.04.28.05.02,0,.06,0,.09.02.66.67,1.39,1.39,2.33,1.77.23.11.44.2.66.3.58.33,1.28.49,1.86.52.1.01.19,0,.27.01.9.75,1.15,1.2,2.49,1.81.55.13,1.18.81,1.52,1.29.31.42.59.84,1.05,1.15.52.43,1.1.81,1.7.99.17.48.4.94.68,1.37.27.45.58.87.98,1.24.16.17.34.35.5.52.4.52.99.91,1.53,1.18.13.06.28.13.41.18.54.79.74,1.82,1.47,2.54.06.07.13.16.2.22.17.21.37.41.62.57.02,0,.04.02.05.03.22.85.41,1.79.92,2.55.02.05.07.15.13.18.27.36.51.72.7,1.11.16.39.28.81.32,1.28.1.51.09,1.01.33,1.52.28.59.57,1.22.99,1.66-.11.98-.14,2.03.18,3.06.05.25.1.47.17.7.13.65.39,1.3.76,1.76.09.14.17.25.28.35.05.47-.04.96-.07,1.45-.04.49-.03.97.11,1.54.02.08.05.19.09.29,0,.02.02.06.02.1h.02c-.04.93-.18,1.84,0,2.88.38,2.31,1,3.16,1,3.16.27.48.64.92,1.02,1.16,1.5.95,3.11-.55,3.34-2.86l.12-1.17c.23-1.07-.07-2.41-.33-3.43h.08c.26-1.12,0-2.53-.33-3.64-.03-.1-.13-.49-.18-.69.01-.11,0-.21,0-.32.03-.32-.06-.73,0-1.03,0-.02.01-.07.01-.09.05-.24.03-.49.01-.77-.02-.1-.04-.23-.05-.33,0-.68-.25-1.41-.48-2.04-.11-.38-.31-.72-.53-1.03,0-.02,0-.09,0-.11-.01-.36.07-.73,0-1.13.01-.31-.05-.67-.15-.99-.02-.06-.04-.14-.1-.28-.15-.53-.33-1.14-.61-1.62-.19-.38-.42-.74-.68-1.02-.26-.3-.55-.54-.74-.91-.08-.33-.21-.68-.29-1.06l-.05-.14c-.03-.12-.09-.28-.18-.52-.38-.98-1.05-1.9-1.84-2.45-.12-.68-.42-1.33-.84-1.91-.4-.59-.89-1.11-1.37-1.54-.06-.06-.33-.38-.49-.52-.02-.09-.07-.18-.12-.27-.18-.33-.42-.65-.56-.97-.07-.24-.21-.45-.36-.68-.06-.09-.13-.2-.21-.29-.35-.55-.91-1.07-1.4-1.54-.31-.28-.65-.45-.99-.62,0-.02-.04-.08-.05-.09-.19-.34-.28-.69-.54-1-.13-.28-.41-.55-.64-.8-.02-.04-.08-.1-.19-.19-.39-.42-.86-.82-1.33-1.12-.35-.24-.72-.46-1.09-.56-.37-.15-.75-.2-1.1-.43-.21-.27-.48-.52-.76-.8,0,0-.11-.1-.11-.09-.11-.1-.21-.21-.36-.33l-.07-.05c-1.01-.84-1.92-1.06-2.57-1.23-.23-.22-.61-.37-.8-.63-.02-.01-.05-.04-.07-.05-.16-.19-.37-.34-.59-.5-.09-.06-.19-.13-.3-.19-.53-.39-1.25-.65-1.88-.9-.3-.11-.98-.29-1.43-.34-.49-.4-1.09-.67-1.7-.88-.61-.21-1.24-.34-1.83-.4-.1-.02-.49-.1-.7-.14-.09-.06-.19-.1-.28-.14-.28-.17-.7-.23-.95-.42-.02-.02-.05-.04-.07-.05-.2-.15-.44-.24-.69-.34-.1-.03-.22-.07-.32-.1-.63-.27-1.4-.35-2.07-.42-.4-.06-.8,0-1.17.06-.02,0-.08-.04-.1-.04-.34-.15-.64-.38-1.03-.49-.28-.14-.64-.2-.97-.26-.06,0-.15-.03-.3-.03-.54-.11-1.18-.18-1.74-.13-.43,0-.86.06-1.22.17-.39.1-.73.3-1.15.31-.33-.07-.71-.11-1.09-.2h-.15c-.13-.03-.3-.04-.55-.05-.53-.04-1.07,0-1.59.09-.52.12-1,.3-1.42.53-.67-.19-1.39-.17-2.1-.05-.71.1-1.39.34-1.99.59-.08.03-.49.14-.68.22-.09-.02-.2-.01-.3,0-.38.03-.77.11-1.12.1-.12-.02-.56.08-.97.19-.41.11-.78.24-.78.24-.73.21-1.45.62-1.91,1.12-.12.11-.25.24-.34.36-1.03.3-2.2.4-3.17,1.05-.09.06-.2.12-.28.19-.27.17-.52.37-.72.61-.01.02-.03.04-.04.05-.97.19-2.03.48-2.88,1.1-.05.03-.16.1-.19.17-.79.68-1.52,1.22-2.54,1.58-.56.22-1.08.43-1.57.86-.58.48-1.14,1.08-1.44,1.69-.54.17-1.07.41-1.57.74-.5.32-1,.7-1.41,1.18-.21.21-.39.41-.57.63-.57.53-.96,1.27-1.14,1.9-.06.17-.11.32-.13.47-.74.78-1.75,1.37-2.28,2.47-.04.07-.09.19-.14.29-.01.02-.03.06-.05.09-.87.57-1.82,1.32-2.36,2.38-.15.25-.28.5-.41.74-.42.66-.62,1.48-.66,2.13-.02.11,0,.21-.01.3-.74,1.1-1.21,1.49-1.6,3.13-.03.63-.56,1.53-.91,2.1-.33.51-.64,1.01-.77,1.63-.21.75-.32,1.56-.2,2.25-.69.9-1.17,2.04-1.32,3.31-.04.27-.06.57-.09.85-.15.75-.04,1.58.19,2.22.05.15.11.33.18.46-.13,1.07-.61,2.17-.4,3.33.01.11.02.23.05.34.04.32.1.63.23.92.01.02.03.04.03.06-.11.48-.22.99-.28,1.52-.06.54-.07,1.05.03,1.53,0,.06.01.18.06.23.25.95.37,1.81.16,2.8-.08.56-.2,1.07-.11,1.68.1.7.25,1.44.57,2.01-.34,1-.52,2.13-.36,3.3.02.27.05.53.09.78.04.73.26,1.46.6,1.99.08.15.15.29.25.4,0,1.02-.31,2.06-.02,3.16.02.08.05.19.09.29,0,.02.02.06.02.1h.02c-.04.93-.18,1.84,0,2.88.38,2.31,1,3.16,1,3.16.27.48.64.92,1.02,1.16,1.5.95,3.11-.56,3.34-2.86l.12-1.18c.23-1.07-.07-2.41-.33-3.43h.08c.25-1.16.03-2.45-.25-3.51-.02-.1-.09-.47-.13-.66.02-.1.03-.2.03-.3.06-.3,0-.69.09-.97.01-.02.02-.06.02-.08.08-.22.09-.46.11-.71,0-.1,0-.22,0-.31.08-.63-.04-1.34-.15-1.96-.04-.37-.18-.72-.32-1.05,0-.02.02-.08.02-.1.07-.34.23-.66.26-1.04.09-.28.09-.62.09-.93,0-.06,0-.14-.02-.27,0-.51-.01-1.1-.13-1.61-.05-.39-.16-.78-.32-1.1-.14-.35-.35-.65-.39-1.04.04-.32.06-.67.13-1.03v-.14c.02-.12.02-.28.03-.51.08-.97-.14-1.89-.51-2.68.48-1.14.37-2.49.23-3.64,0-.07,0-.44-.01-.63.05-.07.07-.16.09-.25.09-.32.15-.67.28-.95.12-.19.19-.4.26-.63.03-.09.06-.19.08-.3.18-.54.25-1.2.33-1.78.05-.36-.01-.7-.05-1.03.02-.01.04-.06.05-.08.19-.29.42-.52.56-.84.18-.21.26-.53.38-.8.02-.03.05-.1.08-.22.19-.45.35-.95.44-1.42.09-.35.14-.72.12-1.06.02-.35-.06-.7.06-1.04.2-.24.35-.51.56-.8,0,0,.07-.11.06-.11.07-.11.15-.21.22-.36l.03-.07c.59-.97.7-1.77.82-2.36.19-.21.32-.54.56-.7.01-.01.04-.04.05-.06.17-.13.32-.3.47-.48.06-.07.13-.16.18-.25.38-.43.67-1.02.96-1.53.14-.24.38-.8.51-1.18.46-.33.83-.75,1.16-1.2.34-.44.63-.92.87-1.38.05-.08.25-.36.36-.52.08-.05.15-.11.23-.17.24-.15.46-.45.72-.56.02,0,.06-.02.07-.04.21-.08.38-.21.58-.35.07-.06.15-.14.22-.2.49-.33.92-.83,1.31-1.26.25-.24.41-.56.57-.85.02,0,.07-.03.09-.04.3-.13.64-.17.94-.35.26-.08.51-.26.76-.41.04-.03.11-.07.2-.15.4-.25.84-.56,1.18-.89.28-.22.54-.49.72-.78.21-.28.34-.61.65-.81.29-.1.59-.23.91-.32l.12-.06c.11-.03.24-.1.44-.19.86-.31,1.61-.94,2.16-1.59.62-.03,1.21-.22,1.77-.46.56-.26,1.09-.58,1.58-.88.06-.04.4-.19.56-.29.09,0,1.01.68,2.74-.54Z" fill="#f9c316"/>
          <path d="M236.47,55.45s.02-.17.02-.46c0-.07,0-.14,0-.22.02.06.05.45.07.24,0-.01,0-.03,0-.05,0-.04,0-.1,0-.23,0-.01,0-.03,0-.03.03.26.05.53.07.41,0,0,0,0,0-.04.01-.18.03-.23.06.05.01.12.03.28.04.23.01-.05.02-.14.02-.41.03.42.06.67.08.6,0,0,0-.01.01-.04.01.02.02-.15.02-.45,0-.07,0-.13,0-.22.02.07.06.46.07.26,0-.01,0-.04,0-.06,0,0,0-.01,0-.01.03.38.06.73.08.66,0,0,0-.02.01-.03.01.02.02-.16.02-.45,0-.04,0-.09,0-.13.03.19.05.41.07.15,0-.23.03-.03.04.11.01.12.03.29.04.22.01-.04.02-.12.03-.41.03.43.06.69.08.62,0,0,0-.02.01-.03.01.02.02-.16.02-.45,0-.06,0-.14,0-.22.02.06.06.46.07.25,0-.01,0-.02,0-.05,0-.04,0-.1,0-.23,0-.01,0-.03,0-.03.03.26.05.53.07.42,0,0,0,0,0-.04.01-.18.03-.22.06.06.01.12.03.29.04.24.01-.05.02-.13.03-.41.03.42.06.69.08.62,0,0,0,0,.01-.03.01.02.02-.14.02-.44,0-.06,0-.13,0-.22.02.08.06.47.07.27,0-.01,0-.04,0-.06,0,0,0-.01,0-.01v-.02c.02.12.05.32.06.24.04-.19.04-.74.04-.74,0-.23,0-.57,0-.92-.03-1.42-.12-3.14-.17-3.55l-.03-.21c-.03-.32-.05-.12-.06.05v-.08c-.04-.34-.06-.23-.07-.03,0,.01,0,.05-.01.07,0-.03,0-.04,0-.06,0-.08-.01-.05-.02-.17,0-.01,0-.03,0-.03,0-.1-.01-.12-.02-.17,0,0,0-.01,0-.02-.02-.13-.03-.07-.04-.01,0,0,0,.12-.01.24,0,0,0-.02,0-.03,0-.1-.02-.28-.03-.34,0-.11-.02-.14-.02-.17,0,0,0-.01,0,0-.01-.04-.02-.08-.03,0,0,.02-.01.1-.01.23,0,.12,0,.3,0,.31,0-.07-.02-.11-.03-.21h0s0-.06-.01-.09c-.02-.14-.04.02-.04.39-.04-.5-.06-.34-.08-.11,0,.01,0,.04-.01.07,0-.04,0-.05,0-.07,0-.06-.02-.09-.03-.18,0-.09-.01-.12-.02-.16,0-.01,0-.03,0-.03-.02-.11-.03-.05-.04,0,0,.02,0,.14-.01.26,0-.01,0-.03,0-.03-.01-.11-.02-.28-.03-.34,0-.12-.02-.14-.02-.17,0-.01,0-.01,0-.02-.01-.04-.02-.06-.03,0,0,.04-.01.11-.01.24,0,.1,0,.29,0,.31,0-.09-.02-.12-.03-.21,0,0,0-.03,0-.01,0-.03,0-.05-.01-.07h0c-.03-.11-.03.12-.04.31,0-.07-.01-.03-.02-.17,0,0,0-.01,0-.01,0-.09-.01-.12-.02-.16,0-.01,0-.03,0-.03-.02-.11-.03-.05-.04,0,0,.02-.01.11-.02.24-.03-.34-.05-.22-.07-.01,0,.01,0,.05-.01.08,0-.03,0-.04,0-.05,0-.08-.01-.04-.02-.16,0-.01,0-.03,0-.03,0-.09-.01-.12-.02-.16,0,0,0-.01,0-.01-.02-.12-.03-.06-.04,0,0,.01,0,.13-.01.25,0,0,0-.02,0-.03,0-.09-.02-.28-.03-.34,0-.11-.02-.14-.02-.16,0,0,0-.01,0,0-.01-.04-.02-.07-.03,0,0,.02-.01.1-.01.23,0,.12,0,.3,0,.31,0-.07-.02-.11-.03-.2h0s0-.06-.01-.08c-.02-.14-.04.03-.04.4-.04-.5-.06-.33-.08-.1,0,.01,0,.04-.01.08,0-.04,0-.05,0-.07,0-.05-.02-.08-.03-.18,0-.09-.03-.06-.03-.06-.01-.02-.02.17-.02.46,0,.07,0,.14,0,.22-.02-.06-.05-.45-.07-.24,0,.01,0,.03,0,.05,0,.04,0,.1,0,.23,0,.01,0,.03,0,.03-.03-.26-.05-.53-.07-.41,0,0,0,0,0,.04-.01.18-.03.23-.06-.05-.01-.12-.03-.28-.04-.23-.01.05-.02.14-.02.41-.03-.42-.06-.67-.08-.6,0,0,0,.01-.01.04-.01-.02-.02.15-.02.45,0,.07,0,.13,0,.22-.02-.07-.06-.46-.07-.26,0,.01,0,.04,0,.06,0,0,0,.01,0,.01-.03-.38-.06-.73-.08-.66,0,0,0,.02-.01.03-.01-.02-.02.16-.02.45,0,.04,0,.09,0,.13-.03-.19-.05-.41-.07-.15,0,.23-.03.03-.04-.11-.01-.12-.03-.29-.04-.22-.01.03-.02.12-.03.41-.03-.43-.06-.69-.08-.62,0,0,0,.02-.01.03-.01-.02-.02.16-.02.45,0,.06,0,.14,0,.22-.02-.06-.06-.46-.07-.25,0,.01,0,.02,0,.05,0,.04,0,.1,0,.23,0,.01,0,.03,0,.03-.03-.26-.05-.53-.07-.42,0,0,0,0,0,.04-.01.18-.03.22-.06-.06-.01-.12-.03-.29-.04-.24-.01.05-.02.13-.03.41-.03-.42-.06-.69-.08-.62,0,0,0,0-.01.03-.01-.02-.02.14-.02.44,0,.06,0,.13,0,.22-.02-.08-.06-.47-.07-.27,0,.01,0,.04,0,.06,0,0,0,.01,0,.01v.02c-.02-.12-.05-.32-.06-.24-.04.19-.04.74-.04.74,0,.23,0,.57,0,.92.03,1.42.12,3.14.17,3.55l.03.21c.03.32.05.12.06-.05v.08c.04.34.06.23.07.03,0-.01,0-.05.01-.07,0,.03,0,.04,0,.06,0,.08.01.05.02.17,0,.01,0,.03,0,.03,0,.1.01.12.02.17,0,0,0,.01,0,.02.02.13.03.07.04.01,0,0,0-.12.01-.24,0,0,0,.02,0,.03,0,.1.02.28.03.34,0,.11.02.14.02.17,0,0,0,.01,0,0,.01.04.02.08.03,0,0-.02.01-.1.01-.23,0-.12,0-.3,0-.31,0,.07.02.11.03.21h0s0,.06.01.09c.02.14.04-.02.04-.39.04.5.06.34.08.11,0-.01,0-.04.01-.07,0,.04,0,.05,0,.07,0,.06.02.09.03.18,0,.09.01.12.02.17,0,.01,0,.03,0,.03.02.11.03.05.04,0,0-.02,0-.14.01-.26,0,.01,0,.03,0,.03.01.11.02.28.03.34,0,.12.02.14.02.17,0,.01,0,.01,0,.02.01.04.02.06.03,0,0-.04.01-.11.01-.24,0-.1,0-.29,0-.31,0,.09.02.12.03.21,0,0,0,.03,0,.01,0,.03,0,.05.01.07h0c.03.11.03-.12.04-.31,0,.07.01.03.02.17,0,0,0,.01,0,.01,0,.09.01.12.02.16,0,.01,0,.03,0,.03.02.11.03.05.04,0,0-.02.01-.11.02-.24.03.34.05.22.07.01,0-.01,0-.05.01-.08,0,.03,0,.04,0,.05,0,.08.01.04.02.16,0,.01,0,.03,0,.03,0,.09.01.12.02.16,0,0,0,.01,0,.01.02.12.03.06.04,0,0-.01,0-.13.01-.25,0,0,0,.02,0,.03,0,.09.02.28.03.34,0,.11.02.14.02.16,0,0,0,.01,0,0,.01.04.02.07.03,0,0-.02.01-.1.01-.23,0-.12,0-.3,0-.31,0,.07.02.11.03.2h0s0,.06.01.08c.02.14.04-.03.04-.4.04.5.06.33.08.1,0-.01,0-.04.01-.08,0,.04.05,1,.07.3Z" fill="#f9c316"/>
          <path d="M264.97,65.71c.17.19.49.25.85.2.08-.01.18-.03.27-.05.24.3.22.85.63,1.01.03.02.07.04.12.05.1.05.22.09.39.08.01,0,.03,0,.03,0,.04.42.09.86.41,1.07.01.02.04.05.09.04.36.15.61.37.62.83.04.23.03.47.2.62.2.18.43.34.78.35-.12.54-.07,1.01.23,1.32.06.08.12.15.19.22.14.23.43.36.8.36.09.01.17.02.27,0,.16.35.01.89.41,1.13.03.02.07.04.11.06,0,0,.02.01.03.02-.15.49-.23.98.01,1.3.05.09.11.16.17.23.11.24.4.39.75.43.05.01.11.01.16.02.06.49-.07.76.41,1.15.3.08.28.49.25.75-.02.23-.1.48.05.65.14.23.32.44.68.53-.25.5-.33.96-.13,1.34.03.09.09.17.13.25.07.25.33.44.68.54.08.03.17.05.26.07.07.38-.2.86.12,1.18.02.03.05.07.08.09.07.09.16.18.32.24.01,0,.03,0,.03.01-.14.39-.32.82-.12,1.13,0,.02.02.06.06.07.26.29.39.59.2,1.01-.07.22-.2.44-.11.65.1.24.24.49.55.65-.33.43-.52.87-.39,1.28.01.1.04.19.08.27.02.26.22.5.55.66.07.05.15.09.24.12-.03.38-.39.8-.14,1.18.02.03.05.07.07.1,0,0,.01.02.02.03h.02c-.08.34-.24.69-.14,1.05.24.81.81,1.11.81,1.11.24.17.59.34.94.43,1.42.39,3.15-.13,3.49-1.13l.18-.5c.3-.47.05-1.03-.17-1.43h.08c.29-.51.12-1.04-.13-1.47-.02-.04-.08-.19-.12-.27.02-.04.03-.09.04-.13.06-.13,0-.29.1-.42.01-.01.02-.03.02-.04.08-.1.09-.21.12-.32,0-.04,0-.09,0-.13.08-.28-.02-.57-.12-.82-.04-.15-.18-.28-.33-.39,0,0,.02-.04.02-.05.07-.15.22-.32.25-.48.08-.13.08-.28.08-.41,0-.02,0-.06-.02-.11,0-.22-.02-.47-.14-.67-.05-.16-.18-.3-.34-.41-.15-.12-.36-.2-.41-.36.03-.14.04-.3.09-.47v-.06c.01-.06.01-.12.01-.23.04-.44-.24-.82-.7-1.04.32-.63-.01-1.17-.39-1.57-.02-.03-.1-.17-.17-.24.03-.04.03-.09.02-.13,0-.16-.03-.31.02-.47.06-.12.05-.22.05-.34,0-.04,0-.1-.02-.14.01-.28-.15-.54-.29-.77-.09-.14-.25-.23-.42-.31,0-.01.01-.04,0-.05.04-.18.15-.36.14-.53.06-.15.02-.3,0-.43,0-.02,0-.05-.03-.11-.05-.22-.13-.45-.28-.63-.11-.13-.25-.25-.43-.32-.16-.09-.38-.13-.48-.27.03-.16,0-.3,0-.48,0,0,0-.06-.01-.06,0-.06,0-.13-.02-.2v-.03c-.13-.52-.52-.71-.81-.84,0-.14-.11-.26-.05-.43,0,0,0-.03,0-.04.04-.13.01-.23,0-.34,0-.04-.02-.09-.04-.14-.03-.28-.22-.51-.41-.71-.09-.09-.31-.28-.51-.36.03-.58-.35-.99-.78-1.26-.03-.03-.16-.13-.22-.19,0-.05-.01-.09-.02-.13,0-.15-.13-.26-.09-.43,0-.01,0-.04,0-.04.03-.13,0-.23-.04-.34-.02-.04-.04-.08-.06-.12-.05-.29-.27-.51-.48-.68-.1-.12-.29-.17-.47-.21,0,0,0-.04,0-.05,0-.17.06-.39,0-.55.01-.16-.05-.29-.11-.41-.02-.02-.02-.06-.07-.09-.1-.2-.23-.42-.43-.54-.13-.11-.29-.19-.49-.22-.19-.04-.41-.02-.53-.14-.03-.14-.1-.29-.12-.46l-.03-.05c-.01-.06-.04-.12-.09-.21-.17-.41-.6-.62-1.1-.62.02-.71-.52-1.06-1.05-1.24-.03-.01-.17-.11-.25-.14,0-.05-.02-.09-.04-.13-.07-.14-.16-.27-.19-.43,0-.13-.47-.54-.47-.54-.21-.21-.57-.29-.94-.23-.09.01-.19.03-.28.05-.28-.32-.34-.92-.83-1.04-.04-.02-.09-.04-.13-.04-.12-.05-.26-.08-.43-.05-.01,0-.03.01-.04,0-.13-.43-.29-.91-.68-1.08-.02-.01-.06-.04-.1-.03-.44-.1-.75-.27-.92-.74-.11-.24-.19-.49-.43-.61-.28-.13-.59-.23-.95-.14-.11-.57-.36-1.06-.83-1.26-.1-.06-.2-.11-.3-.14-.26-.17-.62-.19-.97-.05-.09.02-.17.05-.26.1-.32-.29-.51-.83-1.03-.87-.04,0-.09,0-.14,0,0,0-.03,0-.04,0-.16-.51-.39-1.05-.85-1.19-.1-.05-.21-.08-.32-.11-.27-.15-.64-.12-.97.04-.05.02-.11.05-.15.07-.38-.4-.5-.68-1.21-.7-.31.13-.61-.22-.79-.45-.17-.21-.32-.44-.58-.46-.3-.07-.63-.1-.96.09-.24-.54-.61-.96-1.11-1.04-.1-.03-.22-.05-.33-.07-.28-.11-.64-.03-.95.17-.07.05-.16.1-.23.16-.39-.18-.72-.66-1.21-.58-.04,0-.09,0-.14.02-.13,0-.27.04-.41.13-.01.01-.02.02-.03.02-.3-.35-.66-.7-1.09-.68-.02,0-.07-.02-.11.02-.44.09-.8.06-1.15-.3-.21-.16-.39-.35-.66-.35-.31,0-.63.04-.92.27-.34-.49-.79-.81-1.3-.79-.12-.02-.23-.02-.34,0-.31-.05-.64.08-.9.35-.07.06-.14.12-.19.2-.42-.11-.82-.52-1.31-.35-.03.01-.09.03-.13.06,0,0-.03.01-.04.01v.02c-.39-.14-.76-.37-1.2-.28-.98.18-1.35.74-1.35.74-.21.23-.39.56-.49.92-.42,1.42.16,3.14,1.01,3.56l.44.21c.39.32.9.12,1.3-.02v.08c.4.37.88.28,1.3.1.04,0,.18-.03.25-.05.03.03.07.05.1.07.1.09.25.07.34.21,0,.01.02.03.03.03.07.1.15.14.24.19.04,0,.08.02.11.03.22.15.48.12.72.08.14,0,.28-.08.42-.18,0,0,.03.03.03.03.11.11.19.32.32.4.08.12.2.17.31.22.02,0,.05.02.1.02.18.07.38.14.58.09.15,0,.3-.04.45-.15.15-.09.3-.24.44-.22.1.09.22.16.33.28l.05.02s.09.06.17.11c.32.2.73.13,1.12-.14.31.6.87.57,1.36.47.03,0,.18.02.26,0,.02.05.05.07.08.1.11.09.23.16.31.29.05.11.12.17.2.23.03.02.07.05.11.06.18.17.45.18.68.22.14.03.3-.04.45-.11,0,.01.02.04.02.04.09.15.13.35.24.45.05.15.17.21.27.27,0,.02.04.03.08.05.17.11.36.19.55.2.15.02.31,0,.47-.07.16-.05.34-.17.48-.14.07.13.17.21.27.33,0,0,.04.04.04.03.04.04.07.09.12.13h.03c.36.29.73.22,1.02.14.07.11.21.13.24.3,0,0,.02.02.02.02.03.12.1.18.16.26.03.03.06.06.1.08.15.19.41.26.63.32.11.03.36.06.55.02.21.5.69.6,1.13.64.04,0,.18.04.25.06.02.04.04.07.07.1.05.13.2.17.22.32,0,.02,0,.03.01.04.02.12.08.19.14.27.03.02.06.05.09.07.13.22.38.31.6.38.12.07.29.04.46,0,0,0,.01.03.02.04.05.15.04.37.12.49.02.14.11.23.19.32.02.01.03.04.08.06.13.14.28.29.47.34.13.06.29.09.47.05.17-.02.38-.1.5-.02.05.12.13.23.18.38l.03.04s.05.09.1.17c.19.33.59.44,1.06.35.04.66.53.88,1.02,1,.03,0,.15.09.23.11,0,.06-.44.92.6.97Z" fill="#f9c316"/>
          <path d="M253.59,127.47c-.36.15-.69.45-.89.84-.05.09-.1.19-.14.29-.56.16-1.24-.02-1.75.35-.05.03-.11.06-.15.1-.15.09-.29.2-.4.37,0,.02-.01.03-.02.04-.56-.09-1.18-.22-1.68.03-.03,0-.1.03-.12.07-.47.33-.96.45-1.55.29-.33-.06-.63-.14-.96-.05-.38.11-.78.26-1.07.59-.6-.31-1.25-.52-1.89-.37-.15.02-.29.04-.43.08-.4.03-.81.2-1.1.53-.08.07-.16.14-.22.24-.57-.03-1.18-.4-1.86-.17-.05.01-.12.04-.18.07-.01,0-.04.01-.06.01-.56-.36-1.21-.69-1.87-.59-.17,0-.32.03-.47.05-.44,0-.88.19-1.2.49-.06.04-.1.1-.15.14-.75-.17-1.06-.37-1.98-.08-.32.25-.92.06-1.29-.06-.33-.11-.66-.26-1.01-.19-.44.05-.88.15-1.23.46-.6-.41-1.28-.64-1.98-.55-.15,0-.32.03-.47.05-.42,0-.87.19-1.2.49-.08.07-.17.15-.24.23-.61-.04-1.25-.41-1.89-.18-.06.01-.13.03-.19.06-.18.04-.35.11-.51.25-.01.01-.02.03-.03.03-.55-.24-1.16-.49-1.74-.36-.04,0-.11,0-.14.04-.57.2-1.09.26-1.69,0-.33-.11-.64-.26-1.01-.2-.42.06-.87.16-1.22.45-.6-.4-1.28-.64-1.98-.55-.16,0-.32.02-.47.05-.44,0-.88.17-1.2.48-.09.07-.17.14-.24.23-.61-.06-1.24-.43-1.9-.21-.05.01-.12.04-.18.07-.01,0-.04.01-.06.01v.02c-.56-.1-1.11-.28-1.73-.17-1.39.24-1.91.81-1.91.81-.29.24-.56.59-.71.95-.59,1.44.3,3.13,1.68,3.49l.71.19c.64.3,1.45.07,2.07-.13v.08c.69.32,1.47.17,2.12-.05.06-.01.28-.06.4-.09.06.03.12.04.18.05.18.08.41.03.58.15.01.01.04.03.05.03.13.09.27.11.43.15.06,0,.13,0,.19,0,.38.11.8.04,1.18-.03.22-.02.43-.14.63-.26.01,0,.05.02.06.03.2.09.4.27.62.32.17.1.37.12.56.15.04,0,.08.01.17,0,.31.03.66.05.97-.03.24-.03.47-.12.67-.25.21-.12.39-.31.63-.33.19.06.4.1.62.19h.08c.07.04.17.05.31.07.59.12,1.22-.07,1.7-.45.74.47,1.61.28,2.33.03.05-.01.28-.05.4-.09.05.04.11.05.17.06.21.05.44.07.63.16.13.09.27.11.43.15.06.01.13.02.2.02.37.1.79.02,1.17-.04.24-.03.43-.16.63-.28.01.01.05.03.06.02.22.1.4.27.62.32.17.11.38.12.57.14.02.01.07.01.15,0,.32.03.66.04.97-.04.23-.05.47-.13.67-.27.21-.11.39-.3.63-.33.19.09.39.11.62.18,0,0,.08.02.08.01.08.02.17.05.27.06h.05c.73.09,1.22-.16,1.58-.37.18.06.4.02.57.14.01,0,.04,0,.05.01.13.09.27.11.43.15.06.01.13.02.2.02.37.1.79.02,1.17-.04.18-.03.56-.13.81-.27.69.31,1.46.17,2.16-.09.06-.01.3-.07.42-.1.06.02.13.03.19.04.19.07.44.02.63.13.01.01.04.02.05.02.15.09.3.1.47.12.06,0,.14,0,.2,0,.41.08.86-.03,1.26-.14.24-.04.45-.18.65-.33.01,0,.05.01.07.02.22.06.45.21.7.23.19.08.41.07.62.07.04,0,.09,0,.18-.03.34,0,.72-.05,1.03-.2.25-.08.48-.21.66-.38.2-.16.36-.38.6-.45.21.03.44,0,.68.04h.09c.08,0,.18-.01.34-.03.65-.03,1.26-.36,1.66-.88.89.24,1.75-.2,2.38-.71.04-.03.27-.14.37-.22.06.02.13.01.19,0,.23-.03.47-.08.69-.08.16.03,1.02-.37,1.02-.37.42-.17.8-.52,1-.95.05-.1.11-.21.14-.32.6-.24,1.39-.16,1.89-.69.05-.04.11-.09.15-.14.15-.12.28-.27.37-.47,0-.02,0-.04.02-.04.63-.04,1.32-.15,1.79-.58.03-.02.1-.06.11-.11.43-.47.86-.81,1.53-.94.36-.1.72-.15,1.02-.42.34-.31.66-.68.8-1.12.76-.04,1.48-.3,2.01-.85.14-.11.26-.23.36-.35.37-.29.6-.75.66-1.21.03-.12.05-.22.04-.34.53-.38,1.26-.56,1.62-1.22.03-.04.06-.12.09-.18,0,0,.02-.04.03-.05.69-.15,1.4-.43,1.82-1.01.12-.13.21-.27.31-.4.32-.34.48-.84.48-1.3,0-.07,0-.15,0-.21.65-.49,1.01-.63,1.4-1.58.03-.42.55-.81.88-1.06.3-.22.62-.42.78-.77.24-.41.39-.88.35-1.35.7-.31,1.29-.81,1.58-1.53.08-.14.14-.31.21-.47.24-.39.28-.92.19-1.37-.02-.11-.05-.23-.08-.34.34-.56.98-1.01,1.05-1.73.01-.06.03-.14.03-.21.04-.19.05-.39,0-.6,0-.02-.01-.03,0-.04.46-.43.92-.95,1.04-1.59.01-.04.04-.11.02-.16.04-.64.14-1.19.61-1.71.22-.3.48-.57.53-.97.07-.46.11-.95-.06-1.39.56-.51.95-1.17,1.04-1.94.04-.18.06-.34.06-.51.09-.46,0-.98-.24-1.37-.05-.11-.1-.21-.18-.3.18-.63.62-1.25.5-1.99,0-.05-.02-.13-.04-.2,0-.01,0-.04,0-.06h-.02c.17-.58.39-1.16.34-1.84-.04-.76-.26-1.27-.41-1.6-.16-.33-.3-.47-.3-.47-.23-.31-.57-.61-.92-.76-1.42-.63-3.14.23-3.55,1.53-.07.22-.14.45-.22.66-.35.58-.18,1.36-.06,1.96h-.08c-.42.6-.35,1.34-.24,1.97,0,.06,0,.27.01.39-.04.05-.06.1-.08.16-.11.15-.11.38-.25.51-.02,0-.03.03-.03.04-.11.1-.16.23-.22.36-.01.05-.03.12-.05.17-.2.32-.22.72-.23,1.08-.03.21.04.43.11.64,0,0-.03.04-.04.05-.14.16-.37.29-.47.47-.14.12-.22.29-.29.46,0,.03-.03.07-.04.15-.11.26-.22.57-.24.87-.04.22-.03.45.03.67.05.22.17.45.12.67-.12.15-.22.32-.38.48l-.04.07c-.05.05-.09.13-.16.25-.33.47-.35,1.08-.21,1.64-.73.44-.88,1.25-.98,1.96,0,.05-.08.26-.1.37-.06.02-.09.07-.13.11-.14.15-.25.33-.42.44-.14.06-.23.17-.33.27-.04.04-.08.09-.11.15-.26.25-.39.62-.52.96-.09.2-.09.42-.08.64-.02,0-.05.02-.05.03-.2.11-.43.17-.58.31-.18.07-.3.23-.41.36-.02.01-.04.05-.09.11-.2.22-.39.47-.49.75-.09.2-.15.43-.14.66-.02.23.02.47-.09.67-.18.09-.32.22-.51.34,0,0-.07.05-.06.05-.07.05-.13.09-.2.16l-.03.04c-.49.48-.62.97-.68,1.37-.16.09-.26.27-.46.31,0,0-.03.02-.04.03-.15.03-.25.11-.38.19-.05.03-.1.07-.15.12-.31.18-.52.51-.72.81-.09.14-.28.46-.35.72-.69.22-1.09.83-1.41,1.38-.03.05-.16.22-.22.31-.06.02-.11.04-.16.07-.18.05-.31.23-.5.24-.02,0-.04,0-.05,0-.15.01-.27.07-.41.13-.04.03-.1.07-.14.1-.35.13-.61.43-.83.71-.15.15-.24.35-.31.56-.01,0-.05,0-.06.01-.21.04-.46,0-.66.08-.19,0-.35.1-.5.18-.03.02-.07.04-.12.09-.25.13-.54.29-.73.51-.16.14-.3.33-.38.55-.1.21-.14.47-.32.59-.19.04-.38.1-.59.13l-.07.03c-.07.01-.15.05-.28.09-.53.18-.95.6-1.18,1.14-.83-.09-1.46.41-1.97.91-.03.03-.22.15-.3.23-.06,0-.82-.72-1.65.4Z" fill="#f9c316"/>
          <path d="M167.55,168.55c-.32.29-.51.75-.55,1.2-.01.11-.03.23-.02.34-.48.4-1.21.57-1.53,1.18-.03.05-.08.11-.1.17-.1.15-.18.33-.21.54,0,.02,0,.04,0,.04-.57.21-1.19.45-1.54.95-.03.03-.08.08-.07.13-.29.54-.63.95-1.25,1.17-.32.15-.66.25-.89.55-.27.34-.53.72-.59,1.18-.72.13-1.38.43-1.84.99-.12.12-.22.24-.31.36-.33.3-.53.74-.56,1.2-.02.11-.04.22-.02.34-.49.39-1.21.55-1.55,1.18-.03.04-.06.11-.08.17,0,0-.02.03-.03.05-.66.13-1.37.33-1.79.86-.12.12-.21.24-.32.36-.33.3-.52.75-.56,1.19-.02.07-.01.14-.02.2-.67.39-1.04.46-1.53,1.31-.07.41-.64.68-1,.85-.32.15-.67.26-.88.56-.29.34-.55.72-.6,1.18-.72.12-1.39.41-1.85.97-.11.11-.21.24-.32.36-.32.29-.52.74-.56,1.19-.01.11-.03.23-.02.34-.48.4-1.21.56-1.53,1.17-.03.05-.08.11-.1.17-.1.15-.18.33-.21.54,0,.02,0,.04,0,.04-.57.2-1.2.44-1.54.94-.03.03-.08.08-.08.13-.29.54-.63.95-1.26,1.16-.32.15-.66.25-.89.55-.27.34-.54.72-.6,1.17-.72.12-1.39.41-1.85.97-.12.12-.22.23-.32.36-.33.3-.54.74-.57,1.19-.02.11-.04.22-.03.34-.5.38-1.21.54-1.56,1.16-.03.04-.06.11-.08.17,0,0-.02.03-.03.05h.01c-.48.33-1.02.57-1.41,1.08-.87,1.14-.87,1.92-.87,1.92-.06.38-.02.82.12,1.19.54,1.46,2.35,2.09,3.63,1.4l.65-.35c.68-.23,1.13-.96,1.45-1.52l.05.06c.73-.24,1.21-.89,1.54-1.5.04-.05.17-.24.24-.34.06-.02.11-.05.17-.09.19-.07.33-.26.53-.29.02,0,.04,0,.05-.01.16-.03.28-.11.42-.19.05-.04.1-.08.15-.12.36-.18.63-.53.86-.84.16-.17.23-.4.29-.63.01,0,.05-.02.06-.02.21-.07.48-.08.68-.2.19-.04.36-.16.52-.28.03-.03.07-.05.12-.12.25-.19.53-.42.7-.69.15-.19.27-.41.33-.65.07-.24.08-.5.24-.68.18-.09.37-.21.59-.29l.07-.05c.07-.03.15-.09.27-.17.52-.32.86-.89.96-1.51.88-.17,1.39-.91,1.75-1.59.03-.04.18-.23.24-.34.06,0,.11-.04.17-.07.19-.11.37-.25.58-.32.16-.03.28-.11.42-.19.05-.03.11-.07.16-.12.34-.18.61-.53.84-.84.15-.19.22-.41.28-.64.02,0,.05-.01.06-.02.23-.08.48-.08.68-.2.2-.03.37-.17.52-.29.03,0,.06-.04.12-.1.26-.2.52-.43.69-.7.14-.2.26-.42.31-.66.08-.23.09-.49.24-.68.2-.07.37-.19.59-.29,0,0,.08-.04.07-.05.08-.04.16-.08.24-.15l.03-.03c.61-.44.8-.97.93-1.37.18-.08.31-.27.52-.29.01,0,.03-.02.04-.02.16-.03.28-.11.42-.19.05-.03.11-.07.16-.12.34-.18.6-.53.84-.84.11-.14.33-.49.42-.76.73-.25,1.2-.9,1.53-1.51.04-.05.17-.24.24-.34.06-.02.11-.06.17-.09.18-.07.33-.27.53-.3.02,0,.04,0,.05-.01.16-.03.28-.11.42-.19.05-.04.1-.09.15-.13.36-.18.62-.53.85-.85.15-.17.22-.41.29-.63.01,0,.05-.02.06-.02.21-.08.48-.08.68-.2.19-.04.36-.17.51-.28.03-.03.07-.05.12-.12.25-.19.53-.42.69-.7.15-.19.27-.41.32-.65.07-.24.08-.5.24-.68.18-.09.37-.21.58-.29l.07-.05c.07-.03.15-.09.27-.17.52-.33.85-.89.95-1.51.88-.17,1.39-.92,1.74-1.6.02-.04.18-.23.24-.34.06,0,.11-.04.17-.07.19-.11.37-.25.57-.32.16-.03.77-.68.77-.68.32-.29.51-.75.55-1.2.01-.11.03-.23.02-.34.48-.4,1.21-.57,1.53-1.18.03-.05.08-.11.1-.17.1-.15.18-.33.21-.54,0-.02,0-.04,0-.04.57-.21,1.19-.45,1.54-.95.03-.03.08-.08.07-.13.29-.54.63-.95,1.25-1.17.32-.15.66-.25.89-.55.27-.34.53-.72.59-1.18.72-.13,1.38-.43,1.84-.99.12-.12.22-.24.31-.36.33-.3.53-.74.56-1.2.02-.11.04-.22.02-.34.49-.39,1.21-.55,1.55-1.18.03-.04.06-.11.08-.17,0,0,.02-.03.03-.05.66-.13,1.37-.33,1.79-.86.12-.12.21-.24.32-.36.33-.3.52-.75.56-1.19.02-.07.01-.14.02-.2.67-.39,1.04-.46,1.53-1.31.07-.41.64-.68,1-.85.32-.15.67-.26.88-.56.29-.34.55-.72.6-1.18.72-.12,1.39-.41,1.85-.97.11-.11.21-.24.32-.36.32-.29.52-.74.56-1.19.01-.11.03-.23.02-.34.48-.4,1.21-.56,1.53-1.17.03-.05.08-.11.1-.17.1-.15.18-.33.21-.54,0-.02,0-.04,0-.04.57-.2,1.2-.44,1.54-.94.03-.03.08-.08.08-.13.29-.54.63-.95,1.26-1.16.32-.15.66-.25.89-.55.27-.34.54-.72.6-1.17.72-.12,1.39-.41,1.85-.97.12-.12.22-.23.32-.36.33-.3.54-.74.57-1.19.02-.11.04-.22.03-.34.5-.38,1.21-.54,1.56-1.16.03-.04.06-.11.08-.17,0,0,.02-.03.03-.05h-.01c.48-.33,1.02-.57,1.41-1.08.87-1.14.87-1.92.87-1.92.06-.38.02-.82-.11-1.19-.54-1.46-2.35-2.09-3.63-1.4l-.65.35c-.68.23-1.13.96-1.45,1.52l-.05-.06c-.73.24-1.21.89-1.54,1.5-.04.05-.17.24-.24.34-.06.02-.11.05-.17.09-.19.07-.33.26-.53.29-.02,0-.04,0-.05.01-.16.03-.28.11-.42.19-.05.04-.1.08-.15.12-.36.18-.63.53-.86.84-.16.17-.23.4-.29.63-.01,0-.05.02-.06.02-.21.07-.48.08-.68.2-.19.04-.36.16-.52.28-.03.03-.07.05-.12.12-.25.19-.53.42-.7.69-.15.19-.27.41-.33.65-.07.24-.08.5-.24.68-.18.09-.37.21-.59.29l-.07.05c-.07.03-.15.09-.27.17-.52.32-.86.89-.96,1.51-.88.17-1.39.91-1.75,1.59-.03.04-.18.23-.24.34-.06,0-.11.04-.17.07-.19.11-.37.25-.58.32-.16.03-.28.11-.42.19-.05.03-.11.07-.16.12-.34.18-.61.53-.84.84-.15.19-.22.41-.28.64-.02,0-.05.01-.06.02-.23.08-.48.08-.68.2-.2.03-.37.17-.52.29-.03,0-.06.04-.12.1-.26.2-.52.43-.69.7-.14.2-.26.42-.31.66-.08.23-.09.49-.24.68-.2.07-.37.19-.59.29,0,0-.08.04-.07.05-.08.04-.16.08-.24.15l-.03.03c-.61.44-.8.97-.93,1.37-.18.08-.31.27-.52.29-.01,0-.03.02-.04.02-.16.03-.28.11-.42.19-.05.03-.11.07-.16.12-.34.18-.6.53-.84.84-.11.14-.33.49-.42.76-.73.25-1.2.9-1.53,1.51-.04.05-.17.24-.24.34-.06.02-.11.06-.17.09-.18.07-.33.27-.53.3-.02,0-.04,0-.05.01-.16.03-.28.11-.42.19-.05.04-.1.09-.15.13-.36.18-.62.53-.85.85-.15.17-.22.41-.29.63-.01,0-.05.02-.06.02-.21.08-.48.08-.68.2-.19.04-.36.17-.51.28-.03.03-.07.05-.12.12-.25.19-.53.42-.69.7-.15.19-.27.41-.32.65-.07.24-.08.5-.24.68-.18.09-.37.21-.58.29l-.07.05c-.07.03-.15.09-.27.17-.52.33-.85.89-.95,1.51-.88.17-1.39.92-1.74,1.6-.02.04-.18.23-.24.34-.06,0-1.06-.36-1.51,1.07Z" fill="#f9c316"/>
          <path d="M104.48,275.08c-.63.22-1.25.56-1.69,1.01-.11.1-.23.22-.32.33-.97.18-2,.05-2.97.43-.09.03-.2.06-.28.11-.27.09-.53.21-.78.37-.02.02-.03.03-.05.03-.89-.13-1.86-.26-2.77-.08-.06,0-.17.01-.22.06-.89.26-1.73.32-2.66.07-.52-.13-1-.29-1.57-.25-.67.02-1.37.06-1.96.3-.89-.52-1.89-.86-2.99-.99-.25-.04-.49-.07-.73-.08-.66-.15-1.38-.14-1.96.05-.16.03-.3.06-.44.12-.93-.31-1.74-.95-2.8-1.09-.08-.01-.19-.02-.29-.03-.02,0-.06,0-.09-.02-.69-.67-1.49-1.31-2.45-1.67-.23-.1-.46-.18-.69-.26-.6-.31-1.3-.46-1.91-.44-.1,0-.19,0-.27,0-.93-.74-1.23-1.14-2.61-1.71-.58-.07-1.21-.79-1.61-1.22-.34-.4-.63-.84-1.11-1.12-.56-.38-1.14-.79-1.76-.93-.4-.94-.99-1.82-1.79-2.57-.16-.17-.36-.34-.53-.5-.42-.51-1.02-.9-1.59-1.13-.13-.06-.29-.13-.42-.17-.58-.79-.84-1.8-1.59-2.51-.07-.07-.14-.15-.21-.21-.18-.21-.39-.41-.64-.56-.02,0-.04-.02-.05-.03-.27-.85-.48-1.8-1.05-2.54-.03-.05-.08-.15-.14-.18-.58-.71-1.01-1.43-1.12-2.38-.11-.51-.15-1.01-.4-1.52-.3-.59-.63-1.21-1.06-1.65.08-1,.05-2.06-.3-3.09-.06-.25-.12-.47-.2-.7-.15-.65-.43-1.3-.83-1.76-.09-.13-.18-.25-.29-.35-.07-.97.15-1.95-.12-2.97-.02-.07-.05-.18-.09-.27,0-.02-.02-.05-.02-.09h-.02c.02-.87.23-1.72.09-2.69-.08-1.1-.28-1.82-.41-2.37-.14-.53-.27-.76-.27-.76-.21-.52-.53-1.01-.87-1.29-1.38-1.13-3.15.19-3.64,2.49l-.22,1.23c-.18.56-.19,1.21-.12,1.85.06.64.17,1.28.32,1.82h-.08c-.26,1.24.06,2.63.44,3.74.03.1.15.49.21.69,0,.11,0,.21,0,.32-.02.32.09.73.03,1.04,0,.02-.01.07,0,.09-.04.24,0,.5.02.77.02.1.04.23.06.33.03.69.3,1.41.56,2.05.13.38.33.72.57,1.03,0,.02,0,.09,0,.11.03.37-.04.74.04,1.14,0,.32.09.67.19.99.02.06.04.14.11.28.18.53.37,1.14.68,1.62.2.38.45.74.72,1.01.26.3.58.53.79.89.1.33.23.68.33,1.07l.06.14c.03.13.1.28.21.51.41.99,1.14,1.88,1.95,2.41.3,1.36,1.38,2.55,2.38,3.4.06.06.34.37.51.51.02.09.08.18.14.26.21.32.45.64.6.96.09.23.23.45.39.68.06.09.14.19.23.28.39.54.95,1.08,1.49,1.49.33.27.67.44,1.02.6,0,.02.04.08.06.09.2.34.34.67.61.97.15.28.43.54.68.79.03.04.09.1.2.19.43.39.92.78,1.4,1.07.36.24.77.4,1.14.51.38.13.76.18,1.12.4.23.26.52.47.82.76,0,0,.11.1.12.09.11.1.22.2.38.32l.07.05c1.09.75,1.98,1.01,2.67,1.11.25.2.63.35.84.6.02.01.05.04.07.05.17.19.38.33.62.47.09.06.2.12.32.17.56.36,1.29.63,1.95.81.31.09,1,.26,1.46.29.53.35,1.14.6,1.77.79.63.18,1.28.25,1.87.31.11.02.5.08.72.1.1.05.2.08.3.12.29.15.72.2.98.38.02.02.06.04.08.04.21.14.45.23.72.31.1.02.23.05.33.07.65.22,1.43.32,2.12.31.41.03.8-.04,1.17-.12.02,0,.08.03.1.04.35.14.67.34,1.08.42.29.13.65.18,1,.23.06,0,.15.02.3.02.56.07,1.2.09,1.77.02.43-.02.86-.1,1.22-.25.38-.13.72-.33,1.14-.36.34.06.73.07,1.12.13h.15c.13.02.3.01.56.02,1.08.06,2.19-.31,3.02-.79.68.12,1.42.06,2.13-.08.7-.18,1.38-.45,1.98-.72.08-.03.48-.18.67-.28.09.01.2,0,.3-.02.38-.06.78-.15,1.13-.16.25.01,1.74-.55,1.74-.55.73-.25,1.41-.75,1.87-1.24.11-.11.24-.26.32-.38,1.01-.4,2.2-.53,3.13-1.28.09-.06.19-.13.27-.2.26-.18.5-.41.69-.67.01-.02.02-.04.04-.05.97-.25,2.02-.62,2.84-1.3.05-.04.16-.1.19-.17.73-.77,1.47-1.32,2.45-1.78.54-.28,1.08-.49,1.53-.98.54-.54,1.09-1.15,1.35-1.8,1.05-.42,2.08-1.14,2.88-2.15.19-.23.37-.45.53-.68.54-.59.9-1.34,1.02-2,.05-.17.09-.33.09-.49.7-.84,1.67-1.51,2.13-2.66.03-.08.08-.2.11-.3.01-.02.02-.06.05-.1.85-.63,1.71-1.48,2.21-2.59.14-.27.24-.53.35-.79.38-.7.53-1.54.51-2.2,0-.11,0-.21,0-.31.36-.57.6-.99.83-1.45.23-.46.42-1,.54-1.84-.03-.64.47-1.59.76-2.19.28-.54.58-1.06.64-1.71.14-.78.22-1.6.02-2.28.62-.96,1.01-2.15,1.07-3.45.02-.28.01-.58.02-.86.03-.38.02-.78-.04-1.17-.06-.37-.17-.7-.3-1-.06-.14-.13-.31-.21-.43.1-1.03.53-2.06.37-3.17,0-.1-.02-.22-.04-.32-.03-.3-.08-.6-.2-.89-.01-.02-.02-.04-.02-.06.29-.9.61-1.9.53-2.9,0-.06,0-.18-.03-.24-.14-.99-.15-1.86.17-2.84.15-.55.33-1.06.3-1.67-.02-.72-.08-1.48-.33-2.09.46-.97.77-2.08.75-3.28.01-.28.01-.54,0-.8.05-.73-.09-1.5-.36-2.07-.06-.16-.12-.31-.2-.43.12-1.03.55-2.04.4-3.18,0-.08-.03-.2-.05-.3,0-.02-.01-.06,0-.1h-.02c.15-.93.39-1.84.35-2.9-.1-2.37-.62-3.3-.62-3.3-.21-.52-.53-1.01-.87-1.29-1.38-1.14-3.15.19-3.65,2.48l-.26,1.17c-.36,1.05-.21,2.44-.08,3.49h-.08c-.39,1.13-.32,2.45-.16,3.56,0,.1.03.48.05.68-.03.1-.05.2-.07.3-.09.29-.07.69-.21.97-.01.02-.03.06-.03.08-.1.21-.14.45-.19.71,0,.1-.02.22-.03.32-.15.63-.12,1.35-.09,1.99,0,.38.1.75.2,1.09,0,.02-.03.08-.03.1-.11.33-.31.64-.38,1.01-.12.27-.16.61-.2.93,0,.06-.02.14-.01.28-.06.52-.12,1.11-.06,1.63,0,.4.07.8.18,1.15.1.37.27.69.27,1.09-.08.31-.14.67-.25,1.02l-.02.14c-.03.12-.05.28-.09.51-.18.99-.06,2.05.27,2.91-.55,1.2-.44,2.69-.26,3.92,0,.08.02.48.05.68-.04.08-.06.18-.08.27-.07.36-.12.72-.23,1.01-.11.2-.15.42-.21.66-.02.09-.04.2-.05.31-.13.57-.18,1.23-.19,1.83-.01.37.06.7.12,1.03-.02.02-.04.07-.04.09-.16.31-.38.56-.49.89-.15.23-.24.55-.33.83-.02.03-.04.11-.07.23-.15.47-.26,1-.34,1.47-.06.36-.08.74-.04,1.08.02.35.1.69,0,1.05-.18.25-.31.55-.49.85,0,0-.07.11-.05.12-.06.12-.14.23-.21.38l-.03.07c-.5,1.03-.58,1.84-.65,2.45-.18.23-.28.57-.51.75-.01.01-.03.05-.05.06-.18.14-.3.33-.44.52-.05.08-.12.17-.17.27-.34.47-.61,1.07-.86,1.61-.11.26-.33.83-.44,1.23-.84.74-1.42,1.81-1.86,2.76-.05.08-.23.39-.33.55-.08.06-.15.12-.21.19-.23.17-.42.5-.69.61-.02,0-.06.02-.07.04-.2.1-.37.25-.55.4-.06.07-.14.15-.2.22-.46.38-.88.89-1.24,1.37-.23.27-.38.58-.52.89-.02,0-.07.04-.09.05-.29.15-.63.22-.92.43-.25.11-.51.28-.75.46-.04.04-.1.07-.19.17-.38.29-.81.63-1.14.98-.27.25-.51.54-.67.84-.19.3-.33.61-.62.84-.28.12-.57.28-.89.4l-.12.06c-.11.04-.24.11-.44.21-.83.41-1.58,1.04-2.08,1.75-1.24.13-2.36.88-3.31,1.56-.07.04-.39.23-.55.32-.04,0-.32-.16-.78-.14-.46.03-1.11.21-1.96.87Z" fill="#f9c316"/>
          <path d="M7.42,179.58c.23-.61.23-1.34.17-1.94-.02-.14-.04-.31-.07-.44.38-.89,1.14-1.62,1.35-2.63.03-.09.07-.19.08-.29.09-.26.15-.54.15-.83,0-.02,0-.05,0-.06.59-.66,1.31-1.32,1.66-2.18.03-.05.09-.14.08-.21.31-.86.72-1.58,1.48-2.17.38-.36.81-.63,1.11-1.11.35-.56.73-1.14.88-1.75.45-.22.89-.48,1.32-.77.43-.3.81-.67,1.18-1.07.18-.18.34-.35.49-.54.48-.47.9-1.03,1.08-1.61.07-.15.12-.28.14-.43.8-.55,1.76-.86,2.49-1.62.05-.05.13-.14.19-.22.01-.01.04-.04.07-.07.93-.19,1.91-.45,2.75-1.02.22-.13.41-.27.6-.4.58-.33,1.11-.79,1.43-1.3.06-.08.1-.16.15-.23,1.13-.32,1.62-.36,2.86-1.13.38-.43,1.32-.54,1.9-.61.52-.07,1.03-.04,1.53-.26.63-.24,1.27-.49,1.74-.9.98.18,2.03.25,3.08,0,.23-.03.48-.09.71-.14.64-.09,1.3-.32,1.81-.66.12-.08.26-.17.37-.26.96,0,1.93.32,2.93.13.09-.01.2-.02.29-.05.27-.04.55-.1.81-.23.02-.01.04-.03.06-.03.42.15.85.31,1.29.42.43.11.9.18,1.41.17.06,0,.18.02.24-.02.98-.1,1.84-.07,2.79.29.54.17,1.03.37,1.64.37.71.01,1.46-.01,2.08-.24.93.5,2.02.85,3.2.88.27.03.53.04.79.03.72.08,1.48-.02,2.06-.27.16-.05.31-.1.43-.19,1.01.16,1.98.64,3.12.53.08,0,.2-.02.3-.04.02,0,.06,0,.1,0v-.02c.91.19,1.79.47,2.84.47,2.34,0,3.28-.48,3.28-.48.52-.19,1.02-.49,1.31-.82,1.18-1.33-.05-3.15-2.29-3.75l-1.14-.3c-1.02-.4-2.39-.31-3.44-.23v-.08c-1.09-.44-2.4-.42-3.5-.31-.1,0-.47.01-.67.02-.1-.04-.19-.06-.29-.08-.29-.11-.68-.1-.94-.25-.02-.02-.06-.03-.07-.03-.21-.11-.44-.16-.69-.22-.1-.01-.21-.03-.31-.04-.61-.18-1.33-.18-1.96-.17-.37-.02-.74.06-1.08.15-.02,0-.08-.03-.09-.04-.32-.12-.62-.34-.98-.42-.26-.13-.59-.19-.9-.24-.06,0-.14-.03-.27-.02-.51-.09-1.09-.17-1.61-.13-.39,0-.79.03-1.14.14-.36.09-.7.24-1.09.22-.31-.09-.65-.17-1-.29l-.14-.03c-.11-.04-.27-.06-.5-.11-.99-.2-2.16-.12-3.03.24-1.27-.53-2.85-.31-4.1,0-.08.02-.5.08-.7.14-.09-.03-.19-.04-.3-.04-.38-.02-.78-.02-1.12-.06-.24-.06-.49-.05-.77-.05-.11,0-.23,0-.36.02-.66-.03-1.4.18-2.05.36-.41.11-.74.28-1.06.49-.02,0-.09,0-.11,0-.39-.01-.73-.11-1.13-.06-.31-.04-.69.02-1.02.1-.04,0-.13.02-.27.07-.56.13-1.15.28-1.66.52-.39.18-.76.4-1.06.64-.32.23-.58.51-.95.7-.34.04-.68.15-1.08.23,0,0-.15.03-.14.04-.15.03-.29.06-.47.12l-.08.04c-1.23.45-1.93,1.04-2.4,1.53-.31.09-.64.31-.96.33-.02,0-.06.02-.08.03-.25.02-.48.14-.73.24-.1.04-.21.09-.32.16-.62.23-1.24.69-1.76,1.11-.25.2-.79.64-1.06,1.02-.58.22-1.15.56-1.65.96-.49.42-.93.88-1.32,1.33-.08.07-.34.37-.48.53-.1.05-.18.11-.27.17-.29.15-.57.46-.87.56-.02,0-.06.02-.08.04-.23.09-.43.25-.65.41-.08.07-.17.16-.25.23-.58.38-1.06.98-1.46,1.52-.26.3-.44.66-.58,1.01-.02.01-.07.05-.09.06-.3.21-.66.35-.96.62-.27.16-.53.41-.75.67-.04.05-.1.11-.18.24-.36.42-.79.9-1.04,1.4-.22.36-.4.76-.5,1.13-.12.38-.16.76-.37,1.13-.23.25-.47.55-.75.82l-.09.12c-.09.09-.19.23-.34.44-.64.85-1.04,1.92-1.08,2.88-.52.47-.89,1.09-1.16,1.75-.29.65-.45,1.36-.57,2-.02.08-.14.49-.18.69-.07.06-.12.16-.17.25-.17.34-.32.71-.51,1-.08.1-.23.52-.36.92-.11.41-.21.79-.21.79-.22.73-.25,1.55-.08,2.21.03.16.07.34.13.48-.3,1.03-.84,2.07-.8,3.23,0,.1,0,.23.01.33,0,.31.03.62.13.92.01.02.02.04.02.06-.39.96-.68,1.99-.62,3.04,0,.06,0,.19.03.25.18,1.03.2,1.94-.02,2.99-.09.59-.24,1.15-.12,1.79.13.75.28,1.54.65,2.13-.13.54-.21,1.12-.22,1.72,0,.6.09,1.21.25,1.83.05.29.13.56.23.82.19.76.52,1.51,1,1.98.11.14.22.26.34.36.23,1.05.25,2.2.86,3.25.04.07.12.18.18.27,0,.02.04.05.05.09.01.52.05,1.08.15,1.64.12.55.31,1.11.6,1.63.12.27.28.5.42.74.36.7.89,1.33,1.45,1.69.09.07.18.12.25.17.5,1.23.64,1.8,1.78,3.03.55.33.97,1.31,1.29,1.89.28.53.5,1.08.96,1.52.55.56,1.14,1.11,1.8,1.36.21.52.48,1.04.82,1.54.35.48.78.94,1.27,1.35.2.19.45.36.66.53.57.51,1.3.9,1.97,1.03.16.04.34.08.49.09.81.72,1.51,1.66,2.6,2.13.1.05.21.1.31.14.29.14.59.25.91.29.02,0,.05,0,.07.01.68.71,1.49,1.48,2.49,1.86.06.03.17.09.24.08,1,.32,1.86.64,2.71,1.32.49.36.95.68,1.58.87.73.24,1.53.39,2.22.33.43.37.93.68,1.47.94.54.26,1.13.48,1.77.57.29.07.56.11.84.15.76.2,1.6.14,2.24-.05.18-.04.33-.08.47-.15,1.04.21,2.15.74,3.26.63.08,0,.2-.02.3-.04.02,0,.06,0,.1,0v-.02c.91.19,1.79.48,2.84.48,2.34,0,3.28-.47,3.28-.47.52-.19,1.02-.48,1.31-.81,1.19-1.32-.04-3.15-2.27-3.76l-1.14-.31c-1.01-.41-2.39-.32-3.44-.24v-.08c-1.12-.43-2.33-.46-3.38-.37-.09,0-.45-.02-.64-.03-.09-.04-.18-.07-.27-.1-.26-.13-.63-.15-.86-.31-.02-.02-.05-.04-.07-.04-.18-.13-.39-.21-.61-.3-.09-.02-.2-.05-.28-.08-.55-.24-1.2-.33-1.78-.44-.34-.08-.69-.06-1.03-.03-.01,0-.07-.04-.08-.05-.27-.19-.49-.46-.8-.62-.21-.18-.49-.3-.76-.42-.05-.02-.11-.06-.24-.09-.43-.21-.92-.43-1.4-.53-.35-.12-.71-.2-1.05-.2-.35-.03-.7.03-1.04-.12-.23-.19-.51-.38-.77-.61l-.11-.07c-.09-.07-.21-.15-.39-.27-.73-.57-1.67-.87-2.52-.99-.71-1.01-1.91-1.64-2.95-2.14-.07-.04-.37-.24-.55-.32-.03-.08-.1-.14-.16-.21-.23-.24-.47-.5-.64-.76-.09-.2-.24-.36-.4-.55-.06-.07-.14-.15-.22-.22-.35-.46-.87-.87-1.33-1.23-.28-.24-.58-.38-.88-.52,0-.02-.03-.07-.04-.08-.15-.31-.22-.62-.41-.91-.08-.27-.29-.52-.46-.76-.01-.04-.06-.09-.15-.19-.3-.38-.61-.81-.96-1.14-.25-.26-.56-.49-.84-.66-.28-.2-.6-.33-.84-.62-.1-.29-.26-.56-.38-.9,0,0-.05-.12-.06-.11-.05-.12-.1-.24-.18-.39l-.04-.06c-.55-.99-1.1-1.56-1.58-1.94-.08-.27-.27-.57-.28-.85,0-.02-.02-.05-.02-.07-.01-.22-.09-.43-.17-.65-.03-.09-.07-.19-.12-.29-.15-.56-.48-1.12-.78-1.63-.13-.24-.44-.76-.71-1.07-.09-1.11-.62-2.18-1.1-3.09-.04-.09-.18-.4-.26-.58,0-.1-.02-.19-.03-.28,0-.29-.12-.63-.07-.91,0-.02.01-.06,0-.08.04-.22.01-.43,0-.67-.02-.09-.04-.2-.06-.29,0-.6-.19-1.22-.37-1.78-.06-.34-.23-.64-.39-.94,0-.02.01-.08.01-.09.05-.32.18-.63.2-.98.08-.26.08-.57.08-.86,0-.05,0-.13-.02-.25-.02-.47,0-1.01-.11-1.47-.04-.36-.15-.72-.28-1.02-.12-.32-.3-.62-.31-.98.07-.29.1-.62.21-.94l.02-.13c.03-.11.05-.25.09-.47.05-.22.07-.45.08-.68,0-.11,0-.23,0-.34v-.09s0-.02,0-.02h0s0-.24,0-.24v-.02s-.01-.08-.01-.08c-.01-.06-.03-.11-.05-.18-.01-.12-.03-.23-.05-.34-.04-.23-.1-.45-.16-.65.31-.55.46-1.17.57-1.77.09-.61.09-1.24.1-1.8,0-.07.06-.44.06-.63.05-.08,1.11-.5,1.01-2.61Z" fill="#f9c316"/>
        </g>
      </g>
    </g>
  </g>
</svg>