<?xml version="1.0" encoding="UTF-8"?>
<svg id="Layer_2" data-name="Layer 2" xmlns="http://www.w3.org/2000/svg" viewBox="0 0 242.44 282.33">
  <g id="Layer_1-2" data-name="Layer 1">
    <g>
      <polygon points="109.12 176.58 121.46 197.75 109.18 197.75 102.36 183.83 97.18 189.49 97.18 197.75 87.21 197.75 87.21 163.86 97.18 163.86 97.18 176.67 107.64 163.86 120.92 163.86 109.12 176.58" fill="#f9c215" fill-rule="evenodd"/>
      <path d="M138.79,178.45h15.44v14.41c-2.96,2.11-5.57,3.57-7.83,4.33-2.27.76-4.96,1.14-8.08,1.14-3.84,0-6.96-.7-9.38-2.06s-4.29-3.41-5.61-6.13c-1.32-2.72-2-5.81-2-9.34,0-3.7.74-6.91,2.18-9.65,1.46-2.74,3.59-4.8,6.4-6.22,2.2-1.1,5.14-1.64,8.84-1.64s6.24.34,8.01,1.01c1.77.67,3.23,1.73,4.4,3.16,1.17,1.44,2.04,3.23,2.63,5.43l-9.61,1.82c-.4-1.28-1.08-2.27-2.02-2.94-.94-.7-2.15-1.03-3.64-1.03-2.18,0-3.93.79-5.23,2.4-1.3,1.59-1.95,4.13-1.95,7.56,0,3.66.65,6.28,1.97,7.85,1.3,1.57,3.14,2.36,5.5,2.36,1.12,0,2.18-.16,3.19-.49,1.01-.34,2.18-.92,3.48-1.73v-3.16h-6.69v-7.09Z" fill="#f9c215" fill-rule="evenodd"/>
      <g>
        <path d="M239.44,251.61l-31.28-128.57c-6.78-27.87-16.25-43.13-47.17-43.13h-23.81c14.23-6.15,24.19-20.31,24.19-36.78,0-22.13-17.93-40.06-40.06-40.06s-40.06,17.93-40.06,40.06c0,16.5,9.96,30.66,24.19,36.78h-20.98c-30.81,0-43.76,17.33-50.11,43.9L3.82,251.61c-2.78,11.72,12.55,27.22,24.6,27.22h186.45c12.05,0,27.42-15.51,24.57-27.22ZM104.61,43.12c.02-9.22,7.5-16.7,16.7-16.7s16.7,7.47,16.7,16.7-7.47,16.7-16.7,16.7-16.7-7.47-16.7-16.7ZM121.64,238.05c-31.98,0-57.9-25.92-57.9-57.9s25.94-57.9,57.9-57.9,57.9,25.92,57.9,57.9-25.92,57.9-57.9,57.9Z" fill="#f9c215" fill-rule="evenodd"/>
        <g>
          <g>
            <path d="M163.36,34.01c-.11-.5-.42-.99-.81-1.32-.09-.08-.19-.17-.29-.23-.13-.72.08-1.57-.36-2.25-.04-.06-.08-.14-.13-.2-.11-.19-.24-.37-.44-.51-.02,0-.03-.02-.04-.03.02-.69.03-1.47-.32-2.09-.01-.04-.04-.12-.1-.15-.39-.6-.71-1.13-.76-1.88-.06-.41-.07-.81-.31-1.19-.27-.44-.58-.89-1.01-1.15.03-.82-.19-1.64-.69-2.34-.1-.17-.21-.33-.33-.47-.26-.46-.68-.84-1.15-1.01-.12-.05-.24-.1-.36-.12-.38-.63-.5-1.45-1.15-1.98-.04-.04-.12-.09-.18-.13,0-.01-.04-.03-.05-.05-.05-.38-.12-.78-.25-1.16-.14-.37-.36-.7-.66-.98-.13-.15-.28-.27-.41-.4-.34-.41-.85-.69-1.33-.79-.08-.03-.15-.03-.22-.05-.44-.81-.6-1.19-1.6-1.77-.46-.1-.84-.72-1.08-1.13-.22-.35-.38-.76-.77-.97-.45-.29-.94-.55-1.46-.58-.3-.77-.81-1.47-1.55-1.93-.16-.1-.34-.19-.51-.27-.43-.29-1-.42-1.51-.4-.12,0-.26.01-.37.03-.6-.42-1.03-1.21-1.84-1.36-.07-.02-.15-.05-.23-.06-.21-.06-.43-.1-.67-.07-.02,0-.04.01-.05,0-.47-.51-1.01-1.08-1.7-1.29-.04-.02-.12-.06-.17-.04-.7-.17-1.32-.28-1.88-.81-.33-.25-.62-.54-1.06-.65-.5-.13-1.05-.24-1.54-.12-.56-.58-1.29-1.05-2.15-1.2-.2-.05-.38-.09-.57-.11-.52-.15-1.08-.15-1.54.08-.13.05-.24.09-.34.17-.71-.19-1.38-.69-2.23-.62-.06,0-.15.02-.22.03-.01,0-.04,0-.07,0v.02c-.65-.22-1.29-.53-2.06-.46-1.73.1-2.38.62-2.38.62-.37.21-.71.53-.9.88-.74,1.38.22,3.15,1.64,3.64l.73.25c.32.18.71.22,1.09.21.39,0,.77-.01,1.11-.05v.08c.66.45,1.49.46,2.21.37.07,0,.31,0,.44,0,.06.04.12.06.17.09.16.13.42.16.56.32,0,.02.03.04.04.04.11.13.25.19.4.28.06.02.13.05.19.07.35.22.8.28,1.2.32.23.05.48,0,.72-.06,0,0,.04.03.05.04.18.14.31.37.51.51.13.16.32.26.49.36.03.01.08.04.16.06.29.15.62.31.95.35.24.06.5.08.75.03.25-.03.51-.13.75-.05.17.12.35.27.51.45l.07.05c.06.06.14.11.26.21.5.4,1.16.54,1.8.44.48.75,1.33,1.09,2.1,1.3.05.02.28.13.4.16.02.06.07.11.11.15.16.16.35.31.47.5.07.15.18.25.29.37.04.04.1.09.16.13.27.29.64.53.99.72.21.13.45.16.69.2,0,.02.02.05.03.06.11.22.16.47.31.65.06.2.23.34.37.48.01.03.05.06.12.11.25.22.5.47.77.65.21.14.44.25.68.29.23.07.51.07.71.22.08.2.22.37.34.59,0,0,.05.08.05.07.05.08.09.16.16.24l.04.03c.51.57.97.85,1.39.99.08.19.26.34.28.56,0,.01.02.04.02.05.02.16.1.29.18.44.03.06.07.12.12.17.17.36.53.64.82.91.13.13.44.41.7.54.16.79.74,1.36,1.33,1.79.05.04.22.21.32.3,0,.07.03.13.05.19.03.2.19.4.18.61,0,.02,0,.05,0,.06,0,.17.04.31.09.47.03.06.06.12.09.18.1.4.38.75.64,1.05.13.19.35.33.56.45,0,.01,0,.05,0,.07.03.22-.07.5,0,.73-.02.2.04.4.1.59.02.03.02.08.07.16.1.31.23.65.44.9.13.21.31.4.52.54.2.15.47.26.57.48,0,.21.04.44.03.68l.02.09c0,.08.02.18.04.33.08.63.46,1.18.99,1.56-.17.86.15,1.7.58,2.38.02.04.11.28.18.39-.03.06-.02.12-.02.18,0,.23.03.46,0,.67-.05.15.2,1.03.17,1.04.05.44.3.87.64,1.19.08.08.17.16.26.23.04.66-.23,1.35.05,2.01.02.06.03.13.06.19.05.18.12.37.26.53.01.01.03.02.03.04-.23.6-.47,1.24-.32,1.86,0,.04,0,.11.05.15.11.3.18.59.19.89,0,.29-.08.59-.23.89-.14.35-.31.66-.27,1.04.02.45.13.93.34,1.32-.49.58-.82,1.24-.83,1.98-.02.17-.02.33-.03.49-.1.44-.03.93.2,1.33.05.11.09.21.17.3-.19.63-.68,1.17-.69,1.9,0,.05,0,.13.01.2,0,.01,0,.04,0,.06-.53.47-1,1.01-1.15,1.68-.06.16-.09.32-.13.47-.17.42-.15.92,0,1.35.02.07.05.14.07.2-.42.68-.8.86-.94,1.87.07.41-.34.91-.65,1.18-.27.25-.57.47-.69.82-.18.42-.32.87-.24,1.35-.69.32-1.28.76-1.61,1.42-.09.13-.16.29-.23.43-.25.36-.39.83-.37,1.29,0,.11,0,.24.03.34-.44.49-1.1.79-1.4,1.42-.03.06-.07.12-.09.18-.09.17-.16.35-.18.57,0,.02,0,.04,0,.05-.57.26-1.15.58-1.52,1.08-.03.03-.08.08-.08.13-.29.56-.65.99-1.27,1.22-.33.16-.69.23-.93.53-.3.33-.59.7-.69,1.16l-.27.04-.13.03s-.19.1-.29.15c-.36.16-.71.31-1.08.5-.73.37-1.47.82-2.13,1.31-.33.22-.62.44-.89.65-.22.15-.43.3-.62.45l-.27.23-.12.11-.18.12c-.47.31-.82.6-.99.83-.13.13-.22.24-.22.34-1.66.76-4.23,1.63-5.68,2.54-.11.06-.24.16-.34.23-.04.02-.07.05-.14.08h.06c-1.99.82-4.52,1.81-6.15,2.68-.27.15-.53.3-.78.43-.19.11-.32.2-.45.28-.24.17-.37.29-.42.37.97-.12,1.75-.23,2.3-.32.58-.1.87-.15.87-.15,1.28-.22,2.78-.52,4.1-.84,1.34-.32,2.59-.66,3.87-1.04,1.3-.39,2.59-.77,3.9-1.16,1.76-.54,3.55-1.09,5.46-1.67l.07-.02.83-.26c1.09-.32.75-.32.64-.41l.17-.02c.99-.24.86-.31.78-.46,0-.01.02-.07.03-.1.06-.01.1-.02.14-.03.18-.03.21-.08.41-.09.02,0,.05,0,.05,0,.16,0,.23-.02.31-.03l.06-.03c.22-.01.23-.09.27-.2.02-.02.02-.06.01-.11-.02-.04.01-.14-.08-.13-.02.02.05-.01.05-.01.24-.08.53-.09.77-.23.22-.05.42-.19.61-.32.03-.03.08-.06.15-.13.31-.22.65-.48.87-.78.19-.21.33-.48.42-.74.1-.27.13-.56.32-.77.21-.11.41-.27.66-.38l.08-.06c.08-.04.17-.11.31-.22.6-.41.94-1.13,1.06-1.81.47-.17.85-.49,1.15-.86.28-.39.49-.84.65-1.26.02-.05.17-.3.22-.43.07-.02.12-.07.17-.12.19-.17.38-.37.59-.5.17-.07.28-.2.42-.33.05-.05.11-.12.15-.19.33-.31.55-.79.75-1.2.13-.26.16-.52.18-.79.02,0,.05-.03.06-.05.23-.16.48-.26.65-.48.2-.12.33-.34.46-.53.02-.02.05-.07.1-.16.22-.32.43-.69.55-1.05.1-.27.17-.56.14-.84.01-.28-.06-.57.03-.84.18-.17.3-.38.48-.59,0,0,.06-.08.05-.09.06-.08.13-.16.19-.27l.02-.05c.48-.76.44-1.43.4-1.91.13-.18.19-.44.38-.59,0-.01.02-.04.03-.05.14-.12.22-.27.32-.43.04-.06.08-.14.11-.22.26-.38.34-.9.41-1.36.03-.21.07-.7.02-1.02.27-.35.44-.77.54-1.2.07-.43.07-.88.05-1.28,0-.07.01-.34.02-.49.04-.06.07-.13.09-.2.12-.19.14-.48.29-.66.02-.01.03-.04.04-.05.12-.14.18-.3.25-.48.01-.07.03-.16.04-.23.17-.44.17-.96.16-1.43.02-.27-.07-.54-.16-.8,0-.01.03-.06.03-.07.12-.23.34-.44.42-.71.12-.19.15-.43.19-.66,0-.04.02-.1,0-.2.06-.37.1-.8.04-1.18-.01-.29-.08-.58-.2-.83-.1-.26-.29-.49-.32-.77.06-.23.09-.48.17-.74v-.1c.03-.09.04-.2.06-.37.1-.72-.1-1.48-.5-2.05.5-.92.09-1.97-.25-2.79-.02-.05-.09-.33-.15-.47.01-.05.94-.77-.07-2.2Z" fill="#f9c316"/>
            <path d="M79.07,34.83c-.1.51,0,1.08.22,1.53.05.11.11.23.18.33-.16.71-.68,1.41-.57,2.21,0,.07.02.16.04.23.03.22.08.43.2.64.01.02.02.03.02.04-.29.62-.6,1.33-.52,2.05,0,.04,0,.13.03.17.07.35.11.68.1,1.01,0,.33-.04.66-.17,1.02-.11.4-.26.78-.19,1.22.08.51.16,1.05.5,1.45-.34.73-.5,1.58-.33,2.43.02.2.05.38.11.56.08.52.35,1.04.72,1.37.09.1.17.19.27.25.06.73-.19,1.55.24,2.28.03.05.07.13.12.19,0,.01.02.04.03.07-.19.73-.35,1.59-.03,2.34.06.19.15.36.22.53.16.51.51.97.91,1.25.06.05.13.09.18.13.1.92.1,1.32.77,2.27.38.27.45,1.01.54,1.46.07.41.11.82.36,1.18.28.46.61.9,1.06,1.14-.02.82.2,1.65.71,2.35.1.16.22.32.33.47.26.45.75.78,1.22.96.11.04.24.09.36.12.39.63.49,1.5,1.17,1.97.06.05.12.11.19.14.17.14.35.27.58.34.02,0,.04,0,.05.02.22.66.46,1.42,1.06,1.85.03.03.09.09.15.1.62.39,1.08.8,1.38,1.52.19.38.37.73.73,1,.42.31.89.62,1.39.7l.1.29.06.15s.05.05-.04-.03c-.06-.05-.02,0-.03-.02h0s-.02.04-.02.04c-.04.07-.09.12-.13.16-.08.08-.14.1-.1.08,0,0,0,0,.04,0-.02,0,.18-.04.68-.04.13,0,.25,0,.38,0,.02.1-.68.08-.22.16.04,0,.1.02.16.03,0,0,.02,0,.03,0h.04c-.16.02-.64-.06-.38,0,.36.1.65.18.87.24,1.13.32,1.67.48,1.67.48,1.1.33,2.31.68,3.37,1,1.39.41,2.67.78,3.95,1.15,1.28.36,2.42.68,3.56.96,1.13.28,2.25.53,3.31.72,1.05.2,2.04.35,2.76.4h.15c-.1-.11-.23-.24-.37-.38.04-.16-.85-.63-1.89-1.1-1.06-.48-2.31-.98-3.34-1.39l.26.04c-.69-.69-2.88-1.7-4.74-2.45-.15-.07-.72-.32-1.02-.45-.08-.07-.18-.14-.29-.21-.22-.21-.91-.48-.93-.7,0-.02-.02-.05-.04-.06-.08-.18-.28-.35-.48-.55-.09-.07-.21-.16-.3-.23-.49-.5-1.31-1-2.01-1.42-.39-.27-.86-.44-1.25-.59-.02-.02.02.01-.09-.1,0-.01-.01-.03-.01-.03-.09-.22-.12-.49-.26-.69-.06-.2-.19-.36-.32-.51-.03-.03-.05-.07-.13-.12-.21-.25-.46-.52-.76-.68-.2-.15-.42-.28-.66-.34-.24-.08-.51-.1-.69-.27-.09-.19-.21-.38-.3-.61l-.05-.07c-.03-.07-.09-.15-.17-.28-.33-.54-.84-.96-1.47-1.13-.05-.46-.26-.83-.53-1.15-.25-.34-.57-.62-.89-.87-.04-.03-.21-.22-.31-.3,0-.06-.02-.12-.05-.18-.09-.21-.2-.42-.24-.64,0-.16-.06-.31-.11-.47-.02-.06-.05-.13-.09-.2-.11-.39-.39-.73-.64-1.05-.15-.2-.36-.32-.58-.44,0-.02,0-.06,0-.07-.03-.24.05-.5-.02-.73.03-.21-.06-.41-.13-.6,0-.03-.02-.07-.06-.15-.12-.31-.26-.64-.47-.89-.15-.2-.34-.38-.53-.53-.18-.16-.43-.27-.55-.49,0-.22-.05-.43-.07-.68,0,0,0-.09-.02-.09,0-.09-.02-.18-.05-.29l-.02-.05c-.22-.74-.58-1.15-.9-1.46,0-.2-.11-.41-.04-.62,0-.01,0-.04,0-.05.04-.16.02-.31,0-.47,0-.06-.02-.14-.04-.21-.03-.39-.2-.8-.35-1.17-.07-.17-.26-.54-.46-.77.07-.39.02-.77-.09-1.13-.09-.37-.23-.72-.4-1.04-.02-.06-.11-.28-.15-.4.01-.07.02-.13.02-.19.04-.2-.04-.44.05-.62.01-.01.02-.04.02-.05.07-.15.07-.3.08-.46,0-.06,0-.14,0-.2.08-.41-.03-.84-.14-1.23-.04-.23-.18-.44-.32-.64,0-.01.02-.05.02-.06.07-.22.23-.43.26-.66.1-.18.12-.39.14-.59,0-.04.01-.09,0-.17.03-.32.05-.69-.04-1-.03-.24-.12-.49-.26-.7-.13-.22-.32-.42-.31-.67.08-.2.13-.42.24-.64l.02-.09c.03-.07.05-.17.09-.32.17-.61.04-1.27-.3-1.82.49-.73.55-1.63.41-2.42,0-.05,0-.3-.01-.43.05-.04.07-.1.09-.16.09-.21.15-.44.27-.62.1-.12.23-1.03.26-1.02.13-.43.07-.92-.12-1.34-.04-.1-.09-.22-.15-.31.23-.62.73-1.15.75-1.86,0-.06.02-.14.02-.2.03-.19.03-.38-.03-.59,0-.02-.02-.03-.01-.04.44-.46.91-.95,1.02-1.58.01-.04.04-.1.01-.16.02-.65.23-1.17.76-1.61.26-.26.55-.48.67-.85.15-.42.27-.89.19-1.36.66-.35,1.27-.8,1.58-1.47.09-.15.16-.29.23-.44.25-.38.34-.88.29-1.34,0-.12,0-.22-.02-.34.45-.48,1.15-.76,1.42-1.45.02-.05.04-.12.06-.19,0-.01.01-.04.03-.06.32-.12.65-.25.94-.43.3-.17.59-.36.8-.64.12-.13.21-.26.3-.39.32-.32.5-.79.53-1.25.01-.07,0-.15.02-.21.65-.46,1.06-.49,1.61-1.34.1-.41.7-.67,1.07-.83.34-.13.67-.25.93-.52.34-.3.66-.65.79-1.1.76-.03,1.46-.23,2-.72.14-.08.27-.19.4-.28.39-.21.69-.6.85-1.03.04-.1.09-.22.11-.33.6-.27,1.31-.32,1.84-.77.05-.04.11-.08.16-.13.15-.11.29-.25.39-.44,0-.02.01-.03.02-.04.63-.01,1.31-.03,1.82-.4.03-.02.1-.05.12-.1.46-.45.99-.62,1.66-.58.37,0,.72.04,1.06-.13.4-.19.81-.44,1.08-.83.72.25,1.45.34,2.14.1.17-.04.32-.09.46-.15.44-.08.85-.39,1.14-.73.09-.08.16-.15.22-.25.65-.02,1.34.28,2-.02.05-.02.12-.06.18-.09.01,0,.04-.02.06-.02v-.02c.59.02,1.16.13,1.81.04,1.44-.26,1.99-.84,1.99-.84.31-.25.61-.6.78-.96.71-1.45-.19-3.13-1.86-3.46l-.84-.17c-.39-.14-.82-.15-1.25-.09-.43.07-.84.24-1.2.38v-.08c-.86-.22-1.78.04-2.51.35-.07.02-.32.1-.46.14-.07-.01-.15-.02-.22-.02-.22-.03-.49.07-.7,0-.02,0-.05-.02-.06-.01-.17-.05-.34-.04-.53-.04-.07.01-.15.03-.22.04-.47-.01-.96.17-1.38.34-.26.08-.48.25-.68.42-.01,0-.06,0-.08,0-.26-.04-.53-.16-.8-.11-.22-.04-.46.02-.68.07-.04.01-.1.02-.19.07-.36.09-.78.2-1.1.4-.26.12-.51.29-.69.49-.2.2-.35.45-.61.55-.24,0-.48.08-.75.11l-.1.03c-.09.01-.2.05-.36.09-.7.18-1.32.66-1.69,1.24-1.03-.1-1.87.6-2.49,1.25-.04.04-.27.21-.37.31-.07,0-.14.02-.2.04-.25.08-.49.2-.74.24-.18,0-.34.07-.53.13-.07.03-.15.06-.22.1-.44.13-.81.52-1.15.82-.22.19-.34.43-.47.67-.02,0-.06.01-.07.02-.27.07-.54.05-.8.17-.23.02-.45.17-.65.28-.03,0-.08.04-.16.1-.35.19-.67.45-.9.76-.19.22-.35.47-.45.73-.12.25-.17.54-.36.75-.23.08-.43.22-.69.35,0,0-.09.05-.08.06-.09.05-.19.09-.29.17l-.04.04c-.76.49-.94,1.16-1.12,1.6-.19.11-.35.33-.58.39-.01,0-.04.03-.05.03-.17.05-.31.16-.47.27-.06.04-.13.1-.19.16-.38.26-.69.67-.94,1.06-.11.19-.33.62-.4.94-.76.45-1.24,1.29-1.53,2.03-.03.06-.16.3-.23.43-.06.05-.11.1-.16.15-.18.14-.3.4-.5.5-.02,0-.04.02-.05.03-.16.08-.27.21-.41.35-.04.06-.09.13-.13.19-.34.33-.56.8-.74,1.23-.13.24-.16.52-.19.78-.01,0-.05.04-.06.05-.21.16-.46.28-.63.5-.18.13-.31.34-.44.53-.02.04-.06.08-.09.18-.2.32-.42.7-.51,1.07-.1.27-.16.56-.14.84,0,.28.06.56-.04.83-.14.19-.27.41-.45.62l-.05.09c-.06.07-.11.17-.19.32-.38.62-.48,1.4-.34,2.08-.81.66-.87,1.77-.88,2.66,0,.06-.05.34-.05.49-.03.04-1.16.34-.8,2.05Z" fill="#f9c316"/>
            <path d="M46.48,91.52c-.4.4-.67.96-.76,1.48-.02.12-.05.26-.05.38-.54.59-1.34,1-1.69,1.8-.04.07-.08.15-.11.23-.11.21-.2.43-.23.68,0,.02,0,.04,0,.05-.31.21-.66.42-.95.68-.27.27-.52.58-.68.93-.02.04-.07.12-.07.18-.25.74-.57,1.33-1.23,1.83-.33.3-.71.55-.87,1-.22.51-.41,1.07-.39,1.61-.72.47-1.36,1.13-1.73,1.98-.09.19-.16.38-.22.57-.24.51-.33,1.11-.23,1.63.01.14.03.26.07.38-.38.69-1.07,1.25-1.21,2.13,0,.06-.02.16-.02.24,0,.01,0,.05-.01.08-.6.52-1.21,1.16-1.44,1.99-.08.2-.12.39-.18.58-.21.52-.25,1.12-.11,1.62.01.08.05.16.07.23-.46.84-.79,1.15-.9,2.36.1.47-.32,1.13-.59,1.53-.25.36-.5.71-.56,1.16-.11.55-.17,1.12,0,1.63-.6.61-1.07,1.37-1.23,2.26-.05.19-.08.4-.11.58-.14.51-.1,1.09.08,1.57.04.12.09.25.14.35-.24.72-.8,1.38-.79,2.21,0,.07-.01.16,0,.24-.02.22,0,.45.07.68,0,.02.02.04.02.05-.41.59-.85,1.25-.91,1.98-.01.04-.03.13,0,.18,0,.74-.1,1.38-.55,2.02-.22.37-.46.7-.52,1.15-.08.52-.12,1.08.04,1.58-.58.61-1.03,1.35-1.17,2.22-.05.2-.08.39-.11.58-.15.52-.12,1.1.08,1.57.03.13.07.25.14.35-.25.72-.81,1.36-.81,2.22,0,.06,0,.15,0,.23,0,.01,0,.05,0,.07h.02c-.27.65-.63,1.25-.73,2.03-.22,1.73.16,2.51.16,2.51.14.42.38.84.68,1.11,1.19,1.1,3.11.51,3.9-1.04l.41-.79c.49-.68.53-1.72.55-2.51l.07.02c.53-.74.64-1.71.64-2.54,0-.07.03-.35.05-.5.04-.06.07-.13.11-.2.13-.19.17-.49.33-.65.02-.01.04-.04.04-.05.13-.13.2-.3.28-.47.02-.07.05-.15.07-.22.23-.42.3-.95.35-1.42.06-.27,0-.56-.05-.83,0-.01.04-.05.04-.06.15-.22.39-.4.51-.65.15-.17.24-.41.32-.63.01-.04.04-.1.05-.2.13-.36.26-.78.28-1.17.05-.29.04-.59-.03-.87-.05-.29-.17-.56-.11-.85.12-.21.22-.46.38-.69l.04-.1c.05-.08.09-.19.16-.35.31-.68.33-1.47.12-2.16.7-.76.8-1.85.78-2.78,0-.06.05-.35.04-.5.05-.05.08-.11.11-.18.12-.24.21-.51.36-.71.13-.13.2-.3.28-.47.03-.07.06-.15.09-.23.22-.4.29-.91.36-1.37.05-.28,0-.55-.05-.81.02-.01.04-.05.04-.06.17-.22.39-.38.51-.63.17-.16.25-.4.33-.62.02-.02.04-.08.06-.17.14-.36.25-.76.3-1.13.05-.28.06-.57,0-.84-.02-.27-.13-.55-.07-.83.16-.19.26-.41.42-.64,0,0,.06-.09.04-.09.06-.09.11-.17.16-.29l.02-.05c.37-.8.32-1.45.28-1.93.14-.18.2-.44.39-.58,0-.01.02-.04.03-.05.14-.11.23-.26.33-.42.04-.06.08-.14.11-.21.26-.37.37-.87.49-1.31.05-.21.13-.68.11-1,.59-.65.89-1.51,1-2.31.02-.07.09-.33.12-.47.05-.05.09-.11.14-.17.16-.16.24-.43.43-.56.02,0,.04-.03.05-.04.15-.1.24-.24.35-.39.03-.06.07-.14.1-.2.29-.35.49-.81.64-1.23.11-.24.13-.51.13-.78.01,0,.05-.04.06-.05.19-.16.46-.27.63-.48.18-.12.32-.31.45-.49.02-.04.06-.08.09-.17.2-.3.42-.65.56-.98.13-.24.21-.51.22-.78.03-.27,0-.56.14-.8.18-.15.34-.34.56-.49l.06-.07c.07-.05.14-.14.25-.26.46-.52.78-1.17.84-1.85.92-.38,1.39-1.27,1.73-2.09.03-.05.2-.26.26-.39.07-.01.12-.05.18-.1.21-.14.41-.31.62-.41.17-.05.84-.81.84-.81.35-.34.56-.86.64-1.35.03-.11.06-.24.06-.35.58-.43,1.38-.61,1.81-1.26.04-.05.1-.12.13-.18.13-.16.24-.35.31-.58,0-.02,0-.04.01-.05.62-.24,1.39-.36,1.87-.86.03-.02.1-.07.11-.13.44-.53.92-.92,1.62-1.07.38-.12.78-.12,1.12-.37.4-.28.81-.6,1.04-1.04.81.06,1.54-.15,2.28-.49.18-.07.33-.15.49-.24.47-.18.88-.53,1.12-.96.08-.1.14-.2.19-.32.34-.11.71-.14,1.08-.2.37-.05.75-.1,1.09-.32.05-.03.12-.08.18-.12.01,0,.04-.02.06-.03.74.17,1.53.3,2.24,0,.18-.05.35-.13.51-.19.48-.15.97-.38,1.28-.75.06-.05.1-.11.15-.16.9.02,1.29.16,2.31-.31.34-.3,1.05-.27,1.5-.16.41.08.8.2,1.2.09.51-.09,1.02-.24,1.41-.57.74.37,1.53.48,2.36.39.18,0,.38-.03.56-.05.5,0,1.03-.19,1.43-.5.1-.07.21-.15.29-.23.74.04,1.48.4,2.25.17.07-.01.15-.03.23-.06.21-.04.44-.1.64-.23.01-.01.03-.03.04-.03.67.26,1.41.54,2.14.43.04,0,.13,0,.18-.04.72-.18,1.36-.22,2.09.07.41.12.78.29,1.24.24.53-.05,1.08-.13,1.53-.4.18.11.37.2.56.28l.29.12c.05.02.09.03.16.05l.3.04c.8.11,1.68.16,2.55.13.41,0,.79,0,1.15-.03,1.09.02,2.1-.14,2.57-.44.16-.06.28-.13.34-.22,1.41.08,3.45.48,4.71.28.09-.01.21-.04.3-.06.03,0,.06-.01.11-.01l-.03-.02c1.47.12,3.24.32,4.55.24,2.91-.19,2.27-.74,2.27-.74-.08-.23-.64-.57-1.56-.92-1.85-.71-4.83-1.49-7.37-2.15-2.57-.66-4.65-1.19-5.59-1.4l-.93-.21c-1.1-.32-.85-.12-.85.05l-.14-.08c-.94-.35-.9-.23-.98-.03-.02.01-.07.05-.11.07-.05-.03-.09-.04-.13-.06-.15-.08-.22-.05-.38-.17-.01-.01-.04-.03-.04-.03-.11-.1-.18-.12-.25-.17l-.07-.02c-.17-.13-.25-.07-.36-.01.02,0-.38.12-.6.24-.01,0-.06-.02-.07-.03-.25-.1-.48-.29-.75-.34-.2-.11-.45-.14-.68-.17-.04,0-.1-.01-.21,0-.38-.04-.82-.08-1.2,0-.29.02-.59.1-.84.23-.27.12-.5.3-.8.31-.23-.07-.5-.11-.76-.21h-.1c-.09-.04-.2-.06-.38-.09-.73-.14-1.51.02-2.13.38-.91-.49-2.05-.28-2.96-.02-.06.01-.36.05-.51.09-.06-.04-.14-.05-.21-.06-.27-.05-.56-.07-.81-.15-.17-.09-.35-.11-.55-.15-.08-.01-.17-.02-.26-.02-.48-.1-1.02-.01-1.5.11-.3.06-.55.2-.8.35-.02-.01-.06-.02-.08-.02-.28-.08-.53-.22-.82-.25-.22-.1-.5-.08-.75-.08-.03,0-.09,0-.2,0-.42,0-.86.04-1.25.15-.3.07-.6.18-.83.35-.26.16-.47.39-.77.47-.26-.04-.52-.02-.82-.04,0,0-.11,0-.11,0-.11,0-.22-.01-.36,0h-.06c-.96.09-1.55.45-1.97.73-.24-.02-.52.07-.76-.01-.01,0-.05,0-.06,0-.19-.05-.37-.02-.57,0-.08,0-.17.02-.26.05-.49.03-1.01.26-1.47.45-.22.09-.68.33-.95.54-.48-.03-.96.06-1.41.21-.44.17-.85.45-1.21.71-.07.04-.32.19-.46.27-.08,0-.16.02-.24.04-.25.02-.52.17-.77.14-.02,0-.05,0-.07,0-.2-.02-.38.03-.58.07-.07.03-.16.06-.24.08-.51.09-1.02.34-1.42.66-.26.15-.45.4-.63.63-.01,0-.07.01-.08.01-.28.04-.58,0-.87.1-.24.01-.49.12-.73.21-.04.02-.1.04-.2.11-.38.16-.81.37-1.13.63-.25.19-.47.45-.62.71-.17.26-.28.56-.53.75-.24.09-.5.21-.78.3l-.1.05c-.09.03-.2.09-.38.18-.73.34-1.32.95-1.57,1.69-1.04.25-1.83,1.15-2.39,1.95-.04.05-.26.27-.34.41-.06.01-1.15-.23-1.84,1.53Z" fill="#f9c316"/>
            <path d="M11.4,206.99c-.14.51-.09,1.09.09,1.57.04.12.09.25.14.35-.23.73-.79,1.39-.78,2.22,0,.07-.01.16,0,.24-.01.22,0,.45.08.68,0,.02.02.03.02.05-.41.59-.84,1.25-.9,1.99-.01.04-.03.13,0,.18,0,.74-.09,1.38-.54,2.02-.21.37-.46.7-.52,1.15-.07.52-.12,1.09.05,1.58-.57.61-1.02,1.36-1.15,2.23-.05.2-.08.39-.1.58-.14.52-.11,1.1.09,1.57.04.13.08.25.14.35-.25.72-.8,1.37-.8,2.22,0,.06,0,.15.01.23,0,.01,0,.05,0,.07-.53.58-1.05,1.26-1.17,2.07-.05.2-.07.39-.1.58-.14.52-.1,1.11.09,1.57.02.08.06.15.08.22-.4.85-.7,1.16-.72,2.35.13.46-.24,1.12-.48,1.52-.21.37-.46.71-.51,1.15-.09.53-.14,1.1.04,1.59-.59.6-1.03,1.35-1.17,2.22-.05.18-.07.39-.1.58-.14.51-.1,1.09.08,1.57.04.12.09.25.14.35-.24.72-.8,1.38-.79,2.21,0,.07-.01.16,0,.24-.02.22,0,.45.07.68,0,.02.02.04.02.05-.41.59-.85,1.25-.91,1.98-.01.04-.03.13,0,.18,0,.74-.1,1.38-.55,2.02-.22.37-.46.7-.52,1.15-.04.23-.07.61-.07.94,0,.34.02.66.13.95-.52.83-.85,1.89-.73,2.98.01.25.04.49.08.72.03.67.32,1.31.69,1.75.09.12.18.23.29.31.1.87-.04,1.83.46,2.69.03.06.09.15.15.22,0,.02.03.04.04.07h.02c.15.78.27,1.56.71,2.33.51.85,1,1.35,1.35,1.63.35.29.56.38.56.38.41.23.9.37,1.31.36,1.64-.08,2.46-1.91,2.09-3.45-.07-.26-.12-.53-.18-.8-.04-.77-.58-1.51-.97-2.11l.07-.03c.03-.41-.05-.8-.16-1.18-.13-.37-.29-.72-.46-1.05-.02-.06-.12-.29-.17-.41.02-.07.02-.13.03-.2.05-.2-.02-.44.08-.63.01-.01.02-.04.02-.05.07-.15.09-.29.12-.45,0-.06,0-.13,0-.19.08-.39.04-.81-.02-1.19-.02-.23-.09-.44-.19-.65,0,0,.03-.05.03-.06.12-.19.31-.35.41-.55.14-.14.2-.31.26-.48,0-.03.03-.07.03-.15.13-.36.26-.78.28-1.17.05-.29.04-.59-.03-.87-.05-.29-.17-.56-.11-.85.12-.21.22-.46.38-.69l.04-.1c.05-.08.09-.19.16-.35.31-.68.33-1.47.12-2.16.7-.76.8-1.85.78-2.78,0-.06.05-.35.04-.5.05-.05.08-.11.11-.18.12-.24.21-.51.36-.71.13-.13.2-.3.28-.47.03-.07.07-.15.09-.23.21-.41.28-.94.34-1.41.05-.29-.01-.56-.07-.83.02-.01.04-.05.04-.06.17-.23.39-.4.51-.66.16-.17.24-.42.32-.64.02-.03.03-.08.06-.18.13-.37.25-.78.28-1.17.03-.29.03-.6-.04-.87-.04-.28-.16-.55-.12-.84.15-.2.23-.44.38-.69,0,0,.05-.09.04-.1.05-.09.1-.19.15-.31v-.06c.34-.85.25-1.51.17-2,.12-.2.15-.48.32-.64,0-.01.02-.04.03-.05.13-.13.2-.3.28-.47.03-.07.07-.15.09-.23.21-.41.28-.94.34-1.41.03-.22.05-.71,0-1.04.53-.74.63-1.71.62-2.54,0-.07.03-.35.04-.5.04-.06.07-.13.1-.2.13-.19.16-.49.33-.66.02-.01.04-.04.04-.05.13-.13.2-.3.28-.47.02-.07.05-.15.07-.22.23-.43.29-.95.34-1.42.05-.27,0-.56-.05-.83,0-.01.04-.05.04-.06.15-.22.39-.4.5-.66.15-.17.24-.41.32-.63.01-.04.04-.1.05-.2.13-.36.26-.78.28-1.17.04-.29.04-.59-.03-.87-.05-.28-.18-.56-.12-.84.12-.21.22-.46.38-.69l.04-.1c.05-.08.09-.19.16-.35.3-.68.32-1.47.11-2.16.69-.76.79-1.86.77-2.78,0-.06.05-.35.04-.5.05-.05.08-.12.11-.18.11-.24.21-.51.35-.71.13-.13.35-1.2.35-1.2.14-.51.09-1.09-.09-1.57-.04-.12-.09-.25-.15-.35.23-.73.79-1.39.78-2.22,0-.07.01-.16,0-.24.01-.22,0-.45-.08-.68,0-.02-.02-.03-.02-.05.41-.59.84-1.25.9-1.99.01-.04.03-.13,0-.18,0-.74.09-1.38.54-2.02.21-.37.46-.7.52-1.15.07-.52.12-1.09-.05-1.58.57-.61,1.02-1.36,1.15-2.23.05-.2.08-.39.1-.58.14-.52.11-1.1-.09-1.57-.04-.13-.08-.25-.14-.35.25-.72.8-1.36.8-2.22,0-.06,0-.15-.01-.23,0-.01,0-.05,0-.07.53-.58,1.05-1.26,1.17-2.07.05-.2.07-.39.1-.58.14-.52.1-1.11-.09-1.57-.02-.08-.06-.15-.08-.22.4-.85.7-1.16.72-2.35-.13-.46.24-1.12.48-1.52.21-.37.46-.71.51-1.15.09-.53.14-1.1-.04-1.59.59-.6,1.03-1.35,1.17-2.22.05-.18.07-.39.1-.58.14-.51.1-1.09-.08-1.57-.04-.12-.09-.25-.14-.35.24-.72.8-1.38.79-2.21,0-.07.01-.16,0-.24.02-.22,0-.45-.07-.68,0-.02-.02-.04-.02-.05.41-.59.85-1.25.91-1.98.01-.04.03-.13,0-.18,0-.74.1-1.38.55-2.02.22-.37.46-.7.52-1.15.08-.52.12-1.08-.04-1.58.58-.61,1.03-1.35,1.17-2.22.05-.2.08-.39.11-.58.15-.52.12-1.1-.08-1.57-.03-.13-.07-.25-.14-.35.25-.72.81-1.36.81-2.22,0-.06,0-.15,0-.23,0-.01,0-.05,0-.07h-.02c.27-.65.63-1.25.73-2.03.22-1.73-.16-2.51-.16-2.51-.14-.42-.38-.84-.68-1.11-1.19-1.1-3.11-.51-3.9,1.04l-.41.79c-.49.68-.53,1.72-.55,2.51l-.07-.02c-.53.74-.64,1.71-.64,2.54,0,.07-.03.35-.05.5-.04.06-.07.13-.11.2-.13.19-.17.49-.33.65-.02.01-.04.04-.04.05-.13.13-.2.3-.28.47-.02.07-.05.15-.07.22-.23.42-.3.95-.35,1.42-.06.27,0,.56.05.83,0,.01-.04.05-.04.06-.15.22-.39.4-.51.65-.15.17-.24.41-.32.63-.01.04-.04.1-.05.2-.13.36-.27.78-.28,1.17-.05.29-.04.59.03.87.05.28.17.56.11.85-.12.21-.22.46-.38.69l-.04.1c-.05.08-.09.19-.16.35-.31.68-.33,1.47-.12,2.16-.7.76-.8,1.85-.78,2.78,0,.06-.05.35-.04.5-.05.05-.08.11-.11.18-.12.24-.21.51-.36.71-.13.13-.2.3-.28.47-.03.07-.07.15-.09.23-.21.41-.28.94-.34,1.41-.05.29.01.56.07.83-.02.01-.04.05-.04.06-.17.23-.39.4-.51.66-.16.17-.24.42-.32.64-.02.03-.03.08-.06.18-.13.37-.25.78-.28,1.17-.03.29-.03.6.04.87.04.28.16.55.12.84-.15.2-.23.44-.38.69,0,0-.05.09-.04.1-.05.09-.1.19-.15.31v.06c-.34.85-.25,1.51-.17,2-.12.2-.15.48-.32.64,0,.01-.02.04-.03.05-.13.13-.2.3-.28.47-.03.07-.07.15-.09.23-.21.41-.28.94-.34,1.41-.03.22-.05.71,0,1.04-.53.74-.63,1.71-.62,2.54,0,.07-.03.35-.04.5-.04.06-.07.13-.1.2-.13.19-.16.49-.33.66-.02.01-.04.04-.04.05-.13.13-.2.3-.28.47-.02.07-.05.15-.07.22-.23.43-.29.95-.34,1.42-.05.27,0,.56.05.83,0,.01-.04.05-.04.06-.15.22-.39.4-.5.66-.15.17-.24.41-.32.63-.01.04-.04.1-.05.2-.13.36-.26.78-.28,1.17-.04.29-.04.59.03.87.05.28.18.56.12.84-.12.21-.22.46-.38.69l-.04.1c-.05.08-.09.19-.16.35-.3.68-.32,1.47-.11,2.16-.69.76-.79,1.86-.77,2.78,0,.06-.05.35-.04.5-.05.05-1.11.36-.82,2.09Z" fill="#f9c316"/>
            <path d="M62.74,281.82c.53.02,1.08-.17,1.51-.45.1-.07.22-.14.31-.22.76.06,1.53.45,2.34.24.07-.01.16-.03.23-.05.22-.04.44-.1.65-.23.01-.01.03-.03.04-.03.67.26,1.41.53,2.15.41.04,0,.13,0,.18-.04.72-.18,1.36-.23,2.09.06.41.12.79.28,1.24.24.53-.05,1.08-.14,1.52-.41.73.42,1.56.68,2.43.6.2,0,.39-.01.59-.04.54.02,1.1-.15,1.51-.45.12-.07.22-.13.31-.22.76.07,1.51.47,2.35.26.06-.01.15-.04.22-.06.01,0,.04-.01.07-.01.68.38,1.47.73,2.29.66.2,0,.39-.02.58-.03.54.02,1.1-.16,1.51-.45.07-.04.13-.09.19-.13.92.19,1.3.41,2.45.16.41-.23,1.14-.03,1.59.11.41.12.8.29,1.24.22.54-.03,1.1-.12,1.54-.41.72.43,1.55.69,2.43.62.19,0,.39-.02.58-.03.53.02,1.08-.16,1.51-.44.1-.06.22-.14.31-.22.76.06,1.53.46,2.33.26.07-.01.16-.02.23-.05.22-.04.44-.1.65-.23.01-.01.03-.03.04-.03.67.26,1.41.54,2.14.43.04,0,.13,0,.18-.04.72-.18,1.36-.22,2.09.07.41.12.78.29,1.24.24.53-.05,1.08-.13,1.53-.4.72.42,1.55.69,2.43.62.2,0,.39,0,.58-.03.54.02,1.1-.14,1.51-.44.12-.06.22-.13.31-.22.76.08,1.51.48,2.35.28.06-.01.15-.04.22-.06.01,0,.04-.01.07-.01v-.02c.69.12,1.36.32,2.14.24,1.74-.19,2.4-.74,2.4-.74.37-.23.72-.57.92-.92.8-1.42-.23-3.14-1.92-3.55l-.86-.21c-.78-.32-1.8-.12-2.57.05v-.08c-.84-.35-1.81-.23-2.62-.03-.07.01-.35.05-.5.07-.07-.03-.15-.04-.22-.06-.22-.08-.51-.05-.71-.17-.01-.01-.04-.03-.06-.03-.16-.1-.33-.12-.52-.17-.07,0-.16-.01-.23-.02-.47-.13-.99-.07-1.46-.01-.28,0-.54.12-.8.24-.01,0-.06-.02-.07-.03-.25-.1-.48-.29-.75-.34-.2-.11-.45-.14-.68-.17-.04,0-.1-.01-.21,0-.38-.04-.82-.08-1.2,0-.29.02-.59.1-.84.23-.27.12-.5.3-.8.31-.23-.07-.5-.11-.76-.21h-.1c-.09-.04-.2-.06-.38-.09-.73-.14-1.51.02-2.13.38-.9-.5-1.99-.34-2.88-.12-.06.01-.35.04-.5.07-.06-.04-.13-.05-.2-.07-.26-.06-.54-.09-.77-.18-.16-.09-.33-.12-.52-.17-.07-.01-.16-.03-.25-.03-.45-.11-.98-.05-1.45,0-.29.02-.54.14-.79.26-.01-.01-.06-.03-.07-.03-.26-.11-.48-.28-.76-.34-.2-.12-.47-.14-.7-.17-.03-.01-.09-.01-.19-.02-.39-.04-.82-.06-1.2,0-.29.04-.59.11-.84.24-.26.1-.5.29-.79.31-.23-.09-.48-.12-.76-.21,0,0-.1-.03-.1-.01-.1-.03-.2-.05-.34-.07h-.06c-.91-.12-1.52.12-1.98.31-.22-.07-.5-.03-.7-.17-.01,0-.04-.01-.06-.01-.16-.09-.34-.12-.52-.16-.07-.01-.16-.03-.25-.03-.45-.11-.98-.05-1.45,0-.22.02-.7.11-1.01.24-.85-.34-1.81-.22-2.62-.01-.07.01-.35.05-.5.08-.07-.03-.15-.04-.22-.05-.22-.08-.51-.04-.72-.16-.01-.01-.04-.03-.06-.03-.16-.09-.34-.12-.53-.16-.07,0-.16-.01-.23-.01-.47-.12-.99-.06-1.46,0-.28.01-.54.13-.79.25-.01,0-.06-.02-.07-.03-.25-.09-.48-.28-.76-.34-.2-.11-.45-.14-.69-.16-.04,0-.1-.01-.21,0-.38-.04-.82-.07-1.2,0-.29.02-.59.1-.84.23-.26.12-.5.3-.79.31-.23-.07-.5-.11-.76-.2h-.1c-.09-.04-.2-.06-.38-.08-.73-.14-1.51.03-2.12.39-.9-.5-1.99-.33-2.88-.1-.06.01-.35.04-.5.08-.06-.04-.13-.05-.2-.07-.26-.05-.54-.08-.77-.18-.16-.09-1.25-.06-1.25-.06-.53-.02-1.08.17-1.51.45-.1.07-.22.14-.31.22-.76-.06-1.53-.45-2.34-.24-.07.01-.16.03-.23.05-.22.04-.44.1-.65.23-.01.01-.03.03-.04.03-.67-.26-1.41-.53-2.15-.41-.04,0-.13,0-.18.04-.72.18-1.36.23-2.09-.06-.41-.12-.79-.28-1.24-.24-.53.05-1.08.14-1.52.41-.73-.42-1.56-.68-2.43-.6-.2,0-.4.01-.59.04-.54-.02-1.1.15-1.51.45-.12.07-.22.13-.31.22-.76-.07-1.51-.47-2.35-.26-.06.01-.15.04-.22.06-.01,0-.04.01-.07.01-.68-.38-1.47-.73-2.29-.66-.2,0-.39.02-.58.03-.54-.02-1.1.16-1.51.45-.07.04-.13.09-.19.13-.92-.19-1.3-.41-2.45-.16-.41.23-1.14.03-1.59-.11-.41-.12-.8-.29-1.24-.22-.54.03-1.1.12-1.54.41-.72-.43-1.57-.69-2.41-.63-.15,0-.31,0-.45.01-.4-.02-.86.08-1.25.33-.09.06-.2.11-.29.18-.63-.17-1.17-.7-1.89-.69-.06,0-.14-.02-.21-.01-.19-.02-.39-.02-.61.05-.02,0-.03.02-.05.01-.48-.45-.97-.92-1.6-1.09-.04-.02-.11-.05-.16-.03-.65-.1-1.2-.32-1.63-.89-.26-.29-.47-.58-.84-.76-.42-.21-.9-.39-1.38-.4-.31-.71-.75-1.36-1.41-1.79-.14-.12-.28-.22-.43-.31-.37-.31-.84-.53-1.33-.55-.12-.02-.24-.04-.36-.02-.46-.54-.68-1.28-1.34-1.7-.05-.03-.12-.07-.19-.1,0,0-.04-.02-.06-.04h-.01c-.34-.53-.6-1.1-1.11-1.6-1.14-1.08-1.92-1.28-1.92-1.28-.38-.15-.84-.23-1.25-.19-1.6.13-2.54,1.91-1.77,3.63.13.29.25.58.4.86.27.85,1.15,1.55,1.83,2.03l-.06.05c.37.89,1.2,1.54,1.97,1.98.07.04.31.21.45.3.04.07.09.13.14.2.12.22.38.4.46.63,0,.02.02.05.03.06.07.18.2.32.33.48.06.05.13.12.19.17.31.42.81.71,1.25.97.24.17.55.25.84.3,0,.01.04.05.05.07.16.23.27.53.48.74.12.22.34.38.54.54.04.03.09.07.19.12.33.26.73.53,1.14.67.29.14.61.23.92.24.31.03.63-.02.92.11.21.17.43.35.66.54l.1.06c.08.06.19.13.36.23.69.45,1.57.62,2.34.47.79.8,2.07.95,3.11.89.07,0,.4.04.57.01.06.05.14.07.22.1.29.09.61.16.87.28.18.1.39.14.61.19.09.02.19.04.29.04.13.03.28.06.42.07.12,0,.24.01.37,0,.25,0,.5-.03.73-.06.29-.02.54-.14.79-.26.01.01.06.03.07.03.26.11.48.28.76.34.2.12.47.14.7.17.03.01.09.01.19.02.39.04.82.06,1.2,0,.29-.04.59-.11.84-.24.26-.1.5-.29.79-.31.23.09.48.12.76.21,0,0,.1.03.1.01.1.03.2.06.34.07h.06c.91.12,1.52-.12,1.98-.31.22.07.5.03.7.17.01,0,.04.01.06.01.16.09.34.12.52.16.07.01.16.03.25.03.45.11.98.05,1.45,0,.22-.02.7-.11,1.01-.24.85.34,1.81.22,2.62.01.07-.01.35-.05.5-.08.07.03.15.04.22.05.22.08.51.04.72.16.01.01.04.03.06.03.16.09.34.12.53.16.07,0,.16.01.23.01.47.12.99.06,1.46,0,.28-.01.54-.13.79-.25.01,0,.06.02.07.03.25.09.48.28.76.34.2.11.45.14.69.16.04,0,.1.01.21,0,.38.04.82.07,1.2,0,.29-.02.59-.1.84-.23.26-.12.5-.3.79-.31.23.07.5.11.76.2h.1c.09.04.2.06.38.08.73.14,1.51-.03,2.12-.39.9.5,1.99.33,2.88.1.06-.01.35-.04.5-.08.06.04.6,1,2.23.31Z" fill="#f9c316"/>
            <path d="M182.83,281.82c.53.02,1.08-.17,1.51-.45.1-.07.22-.14.31-.22.76.06,1.53.45,2.34.24.07-.01.16-.03.23-.05.22-.04.44-.1.65-.23.01-.01.03-.03.04-.03.67.26,1.41.53,2.15.41.04,0,.13,0,.18-.04.72-.18,1.36-.23,2.09.06.41.12.79.28,1.24.24.53-.05,1.08-.14,1.52-.41.73.42,1.56.68,2.43.6.2,0,.39-.01.59-.04.54.02,1.1-.15,1.51-.45.12-.07.22-.13.31-.22.76.07,1.51.47,2.35.26.06-.01.15-.04.22-.06.01,0,.04-.01.07-.01.68.38,1.47.73,2.29.66.2,0,.39-.02.58-.03.54.02,1.1-.16,1.51-.45.07-.04.13-.09.19-.13.92.19,1.3.41,2.45.16.41-.23,1.14-.03,1.59.11.41.12.8.29,1.24.22.54-.03,1.1-.12,1.54-.41.39.21.69.4,1.22.49.5.09,1.03.14,1.55.03.23-.02.47-.08.7-.11.63-.07,1.25-.37,1.66-.76.1-.09.21-.2.29-.3.85-.14,1.81-.02,2.6-.52.07-.04.16-.09.23-.14.22-.12.42-.27.59-.47.01-.02.02-.04.04-.04.77-.05,1.66-.13,2.33-.61.04-.02.13-.06.16-.12.62-.53,1.21-.9,2.04-1.08.44-.13.89-.2,1.28-.53.46-.36.91-.78,1.13-1.29.89-.12,1.77-.49,2.47-1.16.17-.15.32-.29.46-.45.47-.37.79-.92.92-1.45.05-.13.09-.26.09-.39.63-.52,1.5-.84,1.95-1.66.03-.06.08-.14.11-.22.01-.01.02-.04.04-.07h-.01c.57-.51,1.21-.94,1.66-1.68,1-1.65.9-2.58.9-2.58.02-.47-.07-.96-.26-1.32-.82-1.43-2.81-1.35-4.03-.32-.21.18-.41.37-.64.54-.68.39-1.11,1.24-1.45,1.9l-.06-.05c-.78.36-1.29,1.09-1.69,1.77-.04.06-.2.26-.29.37-.07.03-.13.06-.19.1-.2.08-.38.29-.6.33-.02,0-.05,0-.06.02-.18.03-.32.11-.48.19-.05.04-.12.09-.17.13-.4.19-.74.54-1.04.86-.19.17-.31.41-.43.64-.01,0-.06.02-.07.02-.24.06-.52.03-.76.14-.21.03-.42.13-.61.22-.03.02-.09.04-.16.1-.31.16-.65.35-.91.59-.21.16-.4.36-.53.6-.15.22-.25.48-.48.62-.22.04-.45.13-.71.14l-.09.03c-.08.01-.18.04-.34.09-.65.18-1.21.58-1.6,1.13-.94-.18-1.76.28-2.47.68-.05.02-.29.11-.41.18-.06-.02-.12-.03-.19-.03-.23-.01-.48,0-.69-.06-.15-.06-.3-.07-.46-.1-.06,0-.14-.01-.21,0-.39-.05-.8.03-1.18.08-.22.04-.48.15-.73.27-.01-.01-.06-.03-.07-.03-.26-.11-.48-.28-.76-.34-.2-.12-.47-.14-.7-.17-.03-.01-.09-.01-.19-.02-.39-.04-.82-.06-1.2,0-.29.04-.59.11-.84.24-.26.1-.5.29-.79.31-.23-.09-.48-.12-.76-.21,0,0-.1-.03-.1-.01-.1-.03-.2-.05-.34-.07h-.06c-.91-.12-1.52.12-1.98.31-.22-.07-.5-.03-.7-.17-.01,0-.04-.01-.06-.01-.16-.09-.34-.12-.52-.16-.07-.01-.16-.03-.25-.03-.45-.11-.98-.05-1.45,0-.22.02-.7.11-1.01.24-.84-.34-1.81-.22-2.62-.01-.07.01-.35.05-.5.08-.07-.03-.15-.04-.22-.05-.22-.08-.51-.04-.72-.16-.01-.01-.04-.03-.06-.03-.16-.09-.34-.12-.53-.16-.07,0-.16-.01-.23-.01-.47-.12-.99-.06-1.46,0-.28.01-.54.13-.79.25-.01,0-.06-.02-.07-.03-.25-.09-.48-.28-.76-.34-.2-.11-.45-.14-.69-.16-.04,0-.1-.01-.21,0-.38-.04-.82-.07-1.2,0-.29.02-.59.1-.84.23-.26.12-.5.3-.79.31-.23-.07-.5-.11-.76-.2h-.1c-.09-.04-.2-.06-.38-.08-.73-.14-1.51.03-2.12.39-.9-.5-1.99-.33-2.88-.1-.06.01-.35.04-.5.08-.06-.04-.13-.05-.2-.07-.26-.05-.54-.08-.77-.18-.16-.09-1.25-.06-1.25-.06-.53-.02-1.08.17-1.51.45-.1.07-.22.14-.31.22-.76-.06-1.53-.45-2.34-.24-.07.01-.16.03-.23.05-.22.04-.44.1-.65.23-.01.01-.03.03-.04.03-.67-.26-1.41-.53-2.15-.41-.04,0-.13,0-.18.04-.72.18-1.36.23-2.09-.06-.41-.12-.79-.28-1.24-.24-.53.05-1.08.14-1.52.41-.73-.42-1.56-.68-2.43-.6-.2,0-.39.01-.59.04-.54-.02-1.1.15-1.51.45-.12.07-.22.13-.31.22-.76-.07-1.51-.47-2.35-.26-.06.01-.15.04-.22.06-.01,0-.04.01-.07.01-.68-.38-1.47-.73-2.29-.66-.2,0-.39.02-.58.03-.54-.02-1.1.16-1.51.45-.07.04-.13.09-.19.13-.92-.19-1.3-.41-2.45-.16-.41.23-1.14.03-1.59-.11-.41-.12-.8-.29-1.24-.22-.54.03-1.1.12-1.54.41-.72-.43-1.55-.69-2.43-.62-.19,0-.39.02-.58.03-.53-.02-1.08.16-1.51.44-.1.06-.22.14-.31.22-.76-.06-1.53-.46-2.33-.26-.07.01-.16.02-.23.05-.22.04-.44.1-.65.23-.01.01-.03.03-.04.03-.67-.26-1.41-.54-2.14-.43-.04,0-.13,0-.18.04-.72.18-1.36.22-2.09-.07-.41-.12-.78-.29-1.24-.24-.53.05-1.08.13-1.53.4-.72-.42-1.55-.69-2.43-.62-.2,0-.39,0-.58.03-.54-.02-1.1.14-1.51.44-.12.06-.22.13-.31.22-.76-.08-1.51-.48-2.35-.28-.06.01-.15.04-.22.06-.01,0-.04.01-.07.01v.02c-.69-.12-1.36-.32-2.14-.24-1.74.19-2.4.74-2.4.74-.37.23-.72.57-.92.92-.8,1.42.23,3.14,1.92,3.55l.86.21c.78.32,1.8.12,2.57-.05v.08c.84.35,1.81.23,2.62.03.07-.01.35-.05.5-.07.07.03.15.04.22.06.22.08.51.05.71.17.01.01.04.03.06.03.16.1.33.12.52.17.07,0,.16.01.23.02.47.13.99.07,1.46.01.28,0,.54-.12.8-.24.01,0,.06.02.07.03.25.1.48.29.75.34.2.11.45.14.68.17.04,0,.1.01.21,0,.38.04.82.08,1.2,0,.29-.02.59-.1.84-.23.27-.12.5-.3.8-.31.23.07.5.11.76.21h.1c.09.04.2.06.38.09.73.14,1.51-.02,2.13-.38.9.5,1.99.34,2.88.12.06-.01.35-.04.5-.07.06.04.13.05.2.07.26.06.54.09.77.18.16.09.33.12.52.17.07.01.16.03.25.03.45.11.98.05,1.45,0,.29-.02.54-.14.79-.26.01.01.06.03.07.03.26.11.48.28.76.34.2.12.47.14.7.17.03.01.09.01.19.02.39.04.82.06,1.2,0,.29-.04.59-.11.84-.24.26-.1.5-.29.79-.31.23.09.48.12.76.21,0,0,.1.03.1.01.1.03.2.06.34.07h.06c.91.12,1.52-.12,1.98-.31.22.07.5.03.7.17.01,0,.04.01.06.01.16.09.34.12.52.16.07.01.16.03.25.03.45.11.98.05,1.45,0,.22-.02.7-.11,1.01-.24.84.34,1.81.22,2.62.01.07-.01.35-.05.5-.08.07.03.15.04.22.05.22.08.51.04.72.16.01.01.04.03.06.03.16.09.34.12.52.16.07,0,.16.01.23.01.47.12.99.06,1.46,0,.28-.01.54-.13.79-.25.01,0,.06.02.07.03.25.09.48.28.76.34.2.11.45.14.69.16.04,0,.1.01.21,0,.38.04.82.07,1.2,0,.29-.02.59-.1.84-.23.26-.12.5-.3.79-.31.23.07.5.11.76.2h.1c.09.04.2.06.38.08.73.14,1.51-.03,2.12-.39.9.5,1.99.33,2.88.1.06-.01.35-.04.5-.08.06.04.6,1,2.23.31Z" fill="#f9c316"/>
            <path d="M231.12,204.79c-.11-.52-.42-1.01-.8-1.36-.09-.08-.19-.18-.29-.25-.12-.75.07-1.59-.32-2.33-.03-.07-.06-.15-.1-.22-.09-.2-.2-.4-.38-.57-.02-.01-.03-.02-.04-.04.09-.71.18-1.5-.1-2.18-.01-.04-.03-.13-.08-.16-.34-.65-.54-1.27-.44-2.04.02-.43.09-.83-.06-1.26-.17-.5-.39-1.02-.76-1.38.23-.8.29-1.67.01-2.51-.05-.2-.1-.38-.17-.56-.11-.53-.41-1.03-.8-1.36-.09-.1-.18-.18-.29-.25-.11-.75.09-1.58-.3-2.34-.03-.05-.07-.13-.11-.2,0-.01-.02-.04-.03-.07.21-.75.36-1.6.1-2.38-.05-.2-.12-.38-.17-.56-.11-.53-.42-1.03-.79-1.36-.06-.06-.12-.11-.17-.16-.03-.94.09-1.36-.43-2.42-.33-.35-.3-1.1-.27-1.57.02-.43.09-.84-.07-1.26-.16-.52-.38-1.04-.76-1.4.25-.81.3-1.67.03-2.51-.04-.19-.11-.38-.17-.56-.1-.52-.41-1.02-.79-1.36-.09-.08-.19-.18-.29-.25-.12-.75.08-1.59-.3-2.33-.03-.07-.06-.15-.1-.22-.09-.2-.2-.4-.38-.57-.02-.01-.03-.02-.04-.04.1-.71.19-1.5-.09-2.18,0-.04-.03-.13-.08-.16-.34-.66-.54-1.27-.43-2.05.02-.43.09-.83-.06-1.26-.17-.5-.38-1.02-.75-1.39.24-.8.3-1.67.03-2.51-.05-.2-.1-.38-.17-.56-.11-.53-.4-1.03-.78-1.37-.09-.1-.18-.19-.29-.25-.1-.76.1-1.58-.29-2.35-.03-.05-.07-.13-.11-.2,0-.01-.02-.04-.03-.07h-.02c-.05-.69,0-1.39-.27-2.13-.59-1.64-1.29-2.16-1.29-2.16-.31-.31-.72-.57-1.11-.68-1.57-.44-3,.96-3,2.71v.89c-.13.83.31,1.77.65,2.48l-.07.02c-.14.9.21,1.81.59,2.55.03.07.13.33.19.47,0,.08,0,.15,0,.23-.03.23.07.51,0,.73-.01.02-.02.05-.01.06-.05.18-.04.35-.04.55.01.07.03.16.04.23-.01.48.17.98.33,1.43.07.27.25.5.42.72,0,.01,0,.06,0,.08-.04.26-.16.53-.15.81-.06.22-.03.47,0,.71.01.04,0,.1.05.2.05.38.12.81.28,1.17.09.28.23.55.42.76.18.23.41.42.49.7-.01.24,0,.51-.02.79v.1c0,.09.02.21.03.39.03.74.38,1.46.88,1.98-.28.99.14,2.01.57,2.83.03.05.12.33.19.47-.03.07-.02.14-.02.21,0,.27.04.55,0,.79-.05.18-.04.35-.04.55,0,.07.01.16.03.25,0,.47.18.96.34,1.41.09.28.26.49.44.71,0,.02-.01.06,0,.08-.04.28-.16.53-.15.82-.07.23-.02.49,0,.72,0,.03,0,.09.03.19.05.39.13.81.29,1.17.1.28.25.54.43.76.16.23.4.42.49.7-.04.25,0,.5-.02.79,0,0,0,.11.01.1,0,.11,0,.21.01.34v.06c.12.91.49,1.45.78,1.85-.01.23.09.49,0,.72,0,.01,0,.05,0,.06-.05.18-.04.35-.04.55,0,.07.01.16.03.25,0,.47.18.96.34,1.41.08.21.28.66.47.93-.13.9.22,1.81.61,2.55.03.07.13.33.19.47,0,.08,0,.15,0,.23-.03.23.08.51,0,.73,0,.02-.02.05-.01.06-.05.18-.04.35-.03.55.01.07.03.16.04.23,0,.48.18.98.35,1.42.08.27.25.5.43.71,0,.01,0,.06,0,.08-.03.26-.16.53-.15.82-.06.22-.03.47,0,.7.01.04.01.1.05.2.05.38.12.81.29,1.17.09.28.24.55.42.76.18.23.41.41.49.7-.01.24.01.51-.02.79v.1c0,.09.02.21.03.39.04.74.38,1.46.89,1.97-.27.99.15,2.01.58,2.82.03.05.12.33.19.47-.03.07-.02.14-.02.21,0,.27.05.54.01.79-.05.18.24,1.23.24,1.23.11.52.42,1.01.8,1.36.09.08.19.18.29.25.12.75-.07,1.59.32,2.33.03.07.06.15.1.22.09.2.2.4.38.57.02.01.03.02.04.04-.09.71-.18,1.5.1,2.18.01.04.03.13.08.16.34.65.54,1.27.44,2.04-.02.43-.09.83.06,1.26.17.5.39,1.02.76,1.38-.23.8-.29,1.67,0,2.51.05.2.1.38.17.56.11.53.41,1.03.8,1.36.09.1.18.18.29.25.11.75-.09,1.58.3,2.34.03.05.07.13.11.2,0,.01.02.04.03.07-.21.75-.36,1.6-.1,2.38.05.2.11.38.17.56.11.53.42,1.03.79,1.36.06.06.12.11.17.16.03.94-.09,1.36.43,2.42.33.35.3,1.1.27,1.57-.02.43-.09.84.07,1.26.16.52.38,1.04.76,1.4-.25.81-.3,1.67-.03,2.51.04.19.11.38.17.56.1.52.41,1.02.79,1.36.09.08.19.18.29.25.12.75-.08,1.59.3,2.33.03.07.06.15.1.22.09.2.2.4.38.57.02.01.03.02.04.04-.1.71-.19,1.5.09,2.18.01.04.03.13.08.16.34.66.54,1.27.43,2.05-.02.43-.09.83.06,1.26.17.5.38,1.02.75,1.39-.11.41-.26.66-.3.99-.06.31-.1.62-.02.93,0,.15,0,.29.03.43,0,.4.12.82.39,1.18.06.1.12.19.2.27-.09.3-.25.59-.38.89-.16.3-.27.6-.25.96,0,.05,0,.13,0,.19,0,.01,0,.04,0,.06h.02c-.26.53-.65.99-.8,1.64-.2.72-.24,1.28-.26,1.65,0,.38.05.58.05.58.05.4.18.85.4,1.18.43.68,1.13,1.04,1.89,1.04.76,0,1.58-.38,2.16-1.12.2-.25.38-.52.58-.78.64-.66.84-1.82.9-2.69l.07.02c.6-.81.71-1.96.63-2.9,0-.08,0-.4-.01-.58.03-.08.05-.16.07-.25.1-.25.09-.59.22-.82.01-.02.03-.05.03-.07.09-.19.12-.4.16-.62,0-.09,0-.19.01-.28.12-.56-.02-1.21-.14-1.76-.07-.33-.25-.63-.42-.9,0-.02,0-.08,0-.09.04-.34.16-.56.15-.85.06-.22.03-.47,0-.71-.01-.04,0-.1-.05-.2-.05-.38-.12-.81-.28-1.17-.09-.28-.23-.55-.42-.76-.18-.23-.41-.42-.49-.7.01-.24,0-.51.02-.79v-.1c0-.09-.02-.21-.03-.39-.03-.74-.38-1.46-.88-1.98.28-.99-.14-2.01-.57-2.83-.03-.05-.12-.33-.19-.47.03-.07.02-.14.02-.21,0-.27-.04-.55,0-.79.05-.18.04-.35.04-.55,0-.07-.01-.16-.03-.25,0-.47-.18-.96-.34-1.41-.09-.28-.26-.49-.44-.71,0-.02.01-.06,0-.08.04-.28.16-.53.15-.82.07-.23.02-.49,0-.72,0-.03,0-.09-.03-.19-.05-.39-.13-.81-.29-1.17-.1-.28-.25-.54-.43-.76-.16-.23-.4-.42-.49-.7.04-.25,0-.5.02-.79,0,0,0-.11-.01-.1,0-.11,0-.21-.01-.34v-.06c-.12-.91-.49-1.45-.78-1.85.01-.23-.09-.49,0-.72,0-.01,0-.05,0-.06.05-.18.04-.35.04-.55,0-.07-.01-.16-.03-.25,0-.47-.18-.96-.34-1.41-.08-.21-.28-.66-.47-.93.13-.9-.22-1.81-.61-2.55-.03-.07-.13-.33-.19-.47,0-.08,0-.15,0-.23.03-.23-.08-.51,0-.73,0-.02.02-.05.01-.06.05-.18.04-.35.03-.55-.01-.07-.03-.16-.04-.23,0-.48-.18-.98-.35-1.42-.08-.27-.25-.5-.43-.71,0-.01,0-.06,0-.08.03-.26.16-.53.15-.82.06-.22.03-.47,0-.7-.01-.04-.01-.1-.05-.2-.05-.38-.12-.81-.29-1.17-.09-.28-.24-.55-.42-.76-.18-.23-.41-.42-.49-.7.01-.24-.01-.51.02-.79v-.1c0-.09-.02-.21-.03-.39-.04-.74-.38-1.46-.89-1.97.27-.99-.15-2.01-.58-2.82-.03-.05-.12-.33-.19-.47.03-.07.83-.82-.23-2.24Z" fill="#f9c316"/>
            <path d="M196.02,89.22c-.35-.45-.97-.7-1.49-.82-.13-.03-.27-.06-.4-.06-.55-.59-.91-1.45-1.69-1.88-.07-.04-.16-.08-.24-.11-.22-.11-.45-.2-.71-.22-.02,0-.04,0-.05,0-.42-.62-.92-1.32-1.63-1.69-.04-.03-.12-.08-.18-.08-.71-.34-1.37-.56-1.9-1.21-.32-.32-.61-.66-1.06-.86-.53-.22-1.08-.48-1.64-.39-.54-.67-1.27-1.26-2.18-1.55-.2-.09-.4-.15-.6-.21-.27-.12-.56-.2-.84-.23-.29,0-.58.03-.83.11-.14.03-.27.06-.38.12-.74-.29-1.41-.9-2.31-.95-.06,0-.16,0-.24,0-.01,0-.05,0-.08,0-.6-.6-1.34-1.06-2.21-1.17-.21-.04-.42-.06-.62-.08-.56-.13-1.18-.06-1.65.14-.08.02-.15.06-.22.09-.91-.39-1.28-.62-2.52-.5-.45.19-1.18-.1-1.64-.28-.41-.17-.81-.37-1.27-.36-.57-.04-1.15.03-1.62.31-.72-.45-1.58-.74-2.49-.71-.2,0-.41,0-.61.01-.55-.04-1.13.12-1.57.4-.11.06-.23.14-.32.22-.76-.06-1.53-.46-2.33-.26-.07.01-.16.02-.23.05-.22.04-.44.1-.65.23-.01.01-.03.03-.04.03-.67-.26-1.41-.54-2.14-.43-.04,0-.13,0-.18.04-.72.18-1.36.22-2.09-.07-.41-.12-.78-.29-1.24-.24-.53.05-1.08.13-1.53.4-.18-.11-.37-.2-.56-.28l-.29-.12-.15-.05s0-.03-.01-.04c-.01-.11.02-.16,0-.13,0,0,0,0-.02.03.01-.02-.1.14-.46.44-.1.08-.19.15-.28.22-.11-.08.42-.48.02-.28-.04.02-.09.04-.14.06,0,0-.02,0-.03.01l-.04.02c.1-.12.52-.32.27-.24-.56.19-2.53.74-2.53.74-1.14.31-2.35.64-3.4.92-2.64.71-5.51,1.49-7.31,2.15-1.84.66-2.55,1.19-1.79,1.4l.8.21c.46.32,2.75.12,4.28-.05l-.15.08c.75.35,2.72.23,4.26.03.13-.01.63-.05.89-.07.09.03.2.04.3.06.28.08.8.05,1.05.17.01.01.05.03.08.03.2.1.49.12.8.17.12,0,.28.01.4.02.76.13,1.74.07,2.56.01.58,0,.69-.12.98-.24.01,0,.06.02.07.03.25.1.48.29.75.34.2.11.45.14.68.17.04,0,.1.01.21,0,.38.04.82.08,1.2,0,.29-.02.59-.1.84-.23.27-.12.5-.3.8-.31.23.07.5.11.76.21h.1c.09.04.2.06.38.09.73.14,1.51-.02,2.13-.38.9.5,1.99.34,2.88.12.06-.01.35-.04.49-.07.06.04.13.06.2.08.25.06.52.1.75.21.15.1.32.13.5.18.07.02.15.03.24.04.43.13.94.08,1.4.05.28-.01.53-.12.78-.23.01.01.05.03.07.03.25.12.45.3.71.36.19.13.44.14.66.2.03.02.08.02.18.03.37.08.77.14,1.14.12.28,0,.57-.05.82-.16.26-.08.51-.23.79-.23.21.12.45.17.7.28,0,0,.09.04.1.02.09.04.19.07.31.1h.06c.85.18,1.44.13,1.91,0,.19.11.46.12.62.29.01,0,.04.02.05.02.13.12.29.18.46.25.07.03.14.06.23.07.4.19.9.22,1.34.26.22,0,.67.04.98,0,.68.55,1.56.68,2.36.7.07,0,.33.04.47.06.06.04.12.08.18.11.17.13.45.17.58.37,0,.02.03.04.04.05.1.15.24.23.39.34.06.03.13.07.19.1.35.28.82.4,1.24.51.24.09.51.07.78.05,0,0,.04.04.05.05.17.18.3.41.5.58.11.19.3.32.47.45.03.02.07.06.16.09.28.2.61.42.95.52.24.11.51.17.78.16.27.01.56-.04.8.08.15.16.31.35.46.57l.07.07c.05.07.13.14.24.26.46.5,1.12.77,1.8.81.2.42.48.78.81,1.09.34.3.73.53,1.11.72.05.03.26.19.39.25.01.06.05.12.09.17.14.2.31.39.4.6.04.17.71.91.71.91.3.38.77.64,1.26.75.11.03.25.06.36.08.45.55.53,1.4,1.13,1.89.05.05.11.11.17.15.15.15.32.28.54.36.02,0,.04,0,.05.02.14.67.35,1.35.77,1.91.02.04.06.11.12.12.49.49.84,1.01.93,1.74.08.4.12.77.37,1.13.26.43.56.87.99,1.13-.08.81.03,1.63.45,2.35.09.17.16.34.25.5.18.49.53.92.96,1.18.1.08.2.15.32.2.2.71.11,1.53.6,2.2.03.05.08.12.13.18,0,.01.03.04.03.06-.14.76-.23,1.59.09,2.32.06.19.14.35.21.53.15.5.49.96.9,1.25.06.06.12.1.18.14.07.92-.04,1.34.52,2.35.34.32.34,1.07.33,1.53,0,.42-.05.82.11,1.23.17.51.39,1.01.77,1.36-.24.8-.29,1.65,0,2.47.04.18.12.37.17.55.11.51.41,1.01.79,1.36.09.08.19.18.29.25.12.75-.08,1.59.3,2.33.03.07.06.15.1.22.09.2.2.4.38.57.02.01.03.02.04.04-.1.71-.19,1.5.09,2.18,0,.04.03.13.08.16.34.66.54,1.27.43,2.05-.02.43-.09.83.06,1.26.17.5.38,1.02.75,1.39-.24.8-.3,1.67-.03,2.51.05.2.1.38.17.56.11.53.4,1.03.78,1.37.09.1.18.19.29.25.1.76-.1,1.58.29,2.35.03.05.07.13.11.2,0,.01.02.04.03.07h.02c.05.69,0,1.39.27,2.13.59,1.64,1.29,2.16,1.29,2.16.31.31.72.57,1.11.68,1.57.44,3-.96,3-2.71v-.89c.13-.83-.31-1.77-.65-2.48l.07-.02c.14-.9-.21-1.81-.59-2.55-.03-.07-.13-.33-.19-.47,0-.08,0-.15,0-.23.03-.23-.07-.51,0-.73.01-.02.02-.05.01-.06.05-.18.04-.35.04-.55-.01-.07-.03-.16-.04-.23.01-.48-.17-.98-.34-1.43-.07-.27-.25-.5-.42-.72,0-.01,0-.06,0-.08.04-.26.16-.53.15-.81.06-.22.03-.47,0-.7,0-.04,0-.1-.05-.2-.05-.38-.12-.81-.28-1.17-.09-.28-.23-.55-.42-.76-.18-.23-.41-.42-.49-.7.01-.24,0-.51.02-.79v-.1c0-.09-.02-.21-.03-.39-.03-.74-.38-1.46-.88-1.98.28-.99-.14-2.01-.57-2.83-.03-.05-.12-.33-.19-.47.03-.07.02-.14.02-.21,0-.27-.04-.55,0-.79.05-.18.04-.36.03-.55,0-.07-.01-.16-.03-.25,0-.47-.2-.98-.36-1.43-.1-.28-.27-.5-.45-.72,0-.02.01-.06,0-.08.04-.28.15-.54.14-.83.07-.23.01-.49-.02-.73,0-.03,0-.09-.03-.19-.06-.4-.15-.82-.32-1.18-.12-.28-.28-.55-.47-.76-.18-.23-.42-.41-.53-.69.02-.25-.02-.51-.02-.8,0,0,0-.11-.02-.1,0-.11,0-.22-.03-.35l-.02-.06c-.16-.92-.53-1.46-.88-1.84,0-.23-.13-.49-.07-.73,0-.01,0-.05,0-.06.04-.19,0-.36-.02-.56-.01-.08-.03-.17-.05-.25-.04-.48-.28-.97-.48-1.41-.1-.21-.34-.65-.56-.9.04-.94-.48-1.83-.97-2.53-.04-.07-.18-.32-.26-.45,0-.08-.02-.16-.03-.23,0-.24-.16-.51-.12-.75,0-.02,0-.05,0-.07.03-.19-.02-.37-.05-.57-.02-.07-.05-.16-.08-.23-.1-.49-.39-.97-.66-1.39-.14-.26-.36-.46-.58-.65,0-.01,0-.07,0-.08-.03-.28.04-.58-.04-.87,0-.24-.08-.49-.16-.73-.02-.04-.03-.1-.09-.2-.12-.39-.36-.8-.62-1.12-.18-.26-.4-.49-.65-.66-.24-.19-.53-.31-.69-.57-.06-.25-.17-.51-.23-.8l-.04-.1c-.02-.09-.07-.21-.14-.39-.28-.74-.94-1.32-1.61-1.66-.17-1.06-.91-1.98-1.76-2.53-.05-.04-.28-.26-.41-.36,0-.06.33-1.16-1.35-2.02Z" fill="#f9c316"/>
          </g>
          <path d="M135,43.42c-.04.38.13.78.4,1.13.06.08.12.18.19.25-.16.56-.58,1.06-.56,1.67,0,.06,0,.12,0,.18,0,.17.02.34.11.53.01.01.02.03.02.04-.38.42-.85.82-.92,1.37-.01.03-.04.09-.02.13-.08.54-.21,1.03-.74,1.34-.26.2-.54.34-.67.65-.17.35-.35.7-.32,1.14-.64.19-1.26.41-1.62.93-.11.1-.2.19-.29.3-.3.24-.46.66-.53,1.06-.03.1-.05.2-.05.31-.25.14-.54.22-.82.32-.29.08-.56.19-.77.44-.03.03-.07.09-.11.14,0,0-.02.03-.04.04-.62-.06-1.28-.18-1.76.14-.14.05-.25.11-.38.17-.37.1-.66.44-.88.78-.04.05-.07.11-.1.16-.71-.03-.99-.14-1.79.22-.26.29-.82.16-1.16.01-.3-.11-.58-.26-.9-.18-.39.01-.78.08-1.13.35-.5-.45-1.02-.84-1.63-.85-.13-.04-.27-.05-.4-.07-.35-.12-.78,0-1.16.14-.09.04-.2.08-.28.13-.25-.13-.47-.33-.71-.5-.23-.18-.45-.36-.76-.39-.05-.01-.12-.03-.18-.03-.16-.04-.34-.04-.53,0-.02,0-.03.01-.04,0-.29-.5-.61-.96-1.09-1.2-.02-.02-.07-.06-.12-.05-.52-.16-.94-.41-1.12-.99-.13-.3-.23-.57-.47-.78-.28-.24-.61-.47-1.03-.54.03-.7-.14-1.27-.49-1.76-.07-.12-.15-.23-.24-.33-.19-.32-.5-.59-.89-.73-.09-.05-.18-.09-.3-.11-.2-.53.03-1.18-.37-1.66-.03-.04-.07-.09-.11-.13,0,0-.02-.03-.03-.05h-.02c0-.51.05-1-.13-1.53-.4-1.16-.94-1.63-.94-1.63-.24-.26-.59-.52-.96-.67-.73-.31-1.51-.29-2.15.05-.63.34-1.17,1.02-1.28,1.87l-.08.87c-.23.82.26,1.78.6,2.46l-.07.02c-.05.45.07.89.23,1.31.16.42.4.8.67,1.12.04.06.2.29.28.41,0,.08.03.15.04.22.02.23.17.48.17.71,0,.02,0,.05,0,.06,0,.18.06.35.13.53.03.07.07.15.11.21.13.47.47.9.81,1.24.18.22.43.37.67.5,0,.01.02.06.02.07.07.26.07.56.22.8.06.22.21.43.34.63.03.03.06.09.14.16.22.33.53.66.87.87.24.19.51.33.79.4.27.1.57.1.82.27.14.19.33.39.48.62l.07.07c.05.08.14.16.27.29.54.52,1.32.8,2.03.78.28.42.7.72,1.16.93.45.21.97.27,1.43.32.06,0,.34.09.49.1.04.06.11.1.17.13.24.12.5.22.7.37.13.13.3.2.48.29.07.03.15.07.24.09.42.24.98.23,1.45.26.3.02.57-.06.83-.14.01.02.06.03.07.03.25.12.46.31.74.38.2.13.47.16.71.2.03.01.09.02.2.02.41.07.85.04,1.24-.03.3-.05.6-.14.84-.29.26-.11.48-.35.76-.41.24.06.5.05.79.09,0,0,.11.01.11,0,.11.01.22.02.35.02h.06c.93-.11,1.49-.5,1.87-.81.23,0,.48-.14.72-.08.01,0,.05,0,.06,0,.18.03.36,0,.56-.03.08-.01.17-.03.25-.06.48-.05.94-.37,1.35-.61.19-.13.61-.4.8-.69.91-.14,1.71-.78,2.22-1.45.05-.05.25-.25.36-.36.08-.02.14-.06.21-.09.22-.08.41-.31.65-.36.02,0,.05,0,.06-.02.18-.04.34-.14.51-.24.06-.05.13-.1.19-.15.45-.22.75-.7,1.04-1.09.18-.22.28-.5.35-.77.01,0,.05-.03.07-.04.23-.14.52-.22.73-.41.21-.1.39-.3.56-.48.03-.04.07-.08.13-.17.25-.31.51-.69.66-1.07.13-.28.24-.57.23-.87.02-.3-.04-.6.08-.87.16-.18.32-.41.52-.62l.06-.09c.07-.07.11-.18.21-.34.38-.66.54-1.47.32-2.19.35-.38.58-.86.67-1.36.07-.51.05-1.03,0-1.49,0-.06.03-.36-.02-.51.04-.06.06-.13.08-.2.07-.26.11-.54.22-.78.12-.16.11-1.28.08-1.28,0-.54-.22-1.11-.53-1.5-.07-.1-.17-.2-.26-.28-.07-.74.25-1.6-.18-2.34-.03-.07-.06-.15-.11-.22-.09-.2-.21-.4-.39-.56-.02-.01-.03-.02-.04-.03.07-.71.03-1.51-.32-2.17-.02-.04-.06-.12-.11-.15-.49-.58-.76-1.14-.9-1.91-.11-.41-.17-.83-.46-1.2-.33-.43-.77-.82-1.24-1.01-.09-.85-.52-1.64-1.19-2.26-.15-.14-.31-.27-.47-.38-.41-.38-.93-.67-1.46-.67-.14-.02-.26-.03-.39-.01-.28-.26-.52-.58-.79-.88-.28-.28-.61-.53-1.02-.66-.06-.02-.15-.04-.22-.06-.01,0-.04-.01-.07-.03-.4-.68-1.01-1.33-1.81-1.63-.2-.08-.39-.12-.58-.18-.53-.2-1.12-.26-1.61-.08-.08.02-.16.05-.22.08-.84-.41-1.19-.76-2.4-.67-.45.16-1.15-.14-1.6-.28-.41-.15-.81-.33-1.27-.29-.56.06-1.13.17-1.56.48-.76-.4-1.68-.48-2.57-.27-.19.05-.4.12-.59.18-.54.13-1.07.41-1.39.85-.08.1-.17.21-.23.32-.37.1-.77.13-1.18.19-.4.08-.78.22-1.11.49-.06.04-.14.09-.19.15-.18.13-.36.28-.48.5,0,.02-.01.04-.03.05-.69.13-1.53.26-2.07.81-.04.03-.11.08-.12.14-.49.58-.98,1-1.71,1.3-.39.2-.82.32-1.1.71-.34.44-.67.93-.76,1.44-.76.33-1.56.84-1.97,1.68-.12.18-.21.36-.3.54-.33.47-.45,1.08-.36,1.6,0,.14.02.26.06.38-.43.64-1.04,1.25-1.16,2.13,0,.06-.02.15-.02.23,0,.01,0,.05-.01.08h.02c-.28.65-.69,1.28-.76,2.1-.13,1.83.44,2.53.44,2.53.21.39.53.74.87.94.69.39,1.48.31,2.15.01.69-.3,1.22-.81,1.5-1.43l.31-.62c.37-.54.4-1.28.38-1.91l.07.02c.25-.26.44-.54.54-.86.09-.32.15-.66.2-.97.01-.06.07-.26.1-.37.05-.04.09-.08.12-.12.15-.11.2-.33.39-.4.02,0,.04-.01.05-.02.15-.05.24-.15.35-.25.03-.04.07-.1.1-.14.28-.23.43-.59.6-.89.12-.17.14-.39.16-.62,0,0,.04-.02.05-.03.18-.09.43-.1.62-.21.18-.04.32-.15.46-.26.02-.02.06-.04.1-.11.21-.18.46-.37.62-.61.14-.16.25-.36.3-.58.06-.23.09-.47.26-.61.18-.05.37-.13.58-.17l.07-.03c.07-.02.14-.06.26-.11.53-.17.91-.6,1.15-1.15.84.15,1.45-.33,2.02-.75.04-.03.23-.12.33-.2.05.02.11.02.16.01.21,0,.41-.01.61.04.14.06.27.06.41.06.05,0,.12,0,.18-.02.34,0,.71-.06,1.04-.18.21-.06.37-.2.54-.35.01.01.05.02.06.02.2.1.38.27.58.31.15.11.34.12.51.14.02.01.06.01.14,0,.28.02.58.08.85.03.21-.03.43-.09.62-.21.2-.1.39-.23.61-.23.16.12.33.18.52.29,0,0,.07.04.07.02.07.04.14.08.23.1h.04c.61.28,1.09.16,1.48.07.13.12.34.16.43.34,0,0,.03.02.04.03.08.13.19.2.3.28.04.03.1.07.16.09.27.2.62.34.95.44.15.05.52.1.77.12.18.31.43.52.71.68.28.16.57.3.88.39.05.02.24.11.34.16.03.05.06.1.1.14.07.17.25.29.28.48,0,.02,0,.04.01.05.02.15.1.25.17.37.04.04.08.08.11.12.17.3.44.56.72.76.14.14.37.2.57.27,0,.01,0,.05.01.06.03.21-.02.45.06.64,0,.18.08.34.16.48.02.02.03.06.09.12.1.25.23.53.44.72.12.17.32.29.5.4.18.11.42.19.52.37.01.18.06.37.05.58l.02.07c0,.07.01.15.03.28.04.54.42.98.86,1.33-.16.39-.14.74-.06,1.09.06.35.21.68.38.99.01.04.08.25.12.35-.05.07-.95.49-.26,1.63Z" fill="#f9c316"/>
          <g>
            <path d="M73.88,207.25c-.23-.45-.67-.81-1.11-1.05-.1-.06-.22-.12-.33-.16-.28-.69-.29-1.51-.8-2.13-.04-.06-.09-.13-.14-.18-.12-.18-.27-.34-.47-.47-.02,0-.04-.02-.04-.03-.02-.71-.1-1.45-.45-2.06-.02-.04-.05-.12-.1-.14-.42-.58-.7-1.14-.69-1.89-.01-.41.03-.81-.16-1.21-.21-.46-.46-.94-.86-1.26.2-.8.24-1.63-.06-2.42-.05-.19-.12-.36-.18-.53-.1-.51-.38-.99-.77-1.31-.09-.1-.18-.18-.28-.24-.11-.73.16-1.52-.18-2.28-.02-.05-.06-.13-.1-.2,0-.01-.02-.04-.02-.07.24-.71.48-1.5.32-2.27-.02-.19-.07-.37-.1-.55-.04-.51-.31-1.02-.61-1.39-.04-.07-.1-.12-.14-.17.13-.9.31-1.27-.02-2.37-.24-.39-.06-1.1.07-1.53.11-.39.27-.77.19-1.19-.02-.52-.09-1.05-.37-1.48.45-.69.72-1.46.73-2.3.02-.18,0-.38.01-.56.06-.5-.09-1.04-.32-1.48-.05-.11-.11-.23-.18-.32.16-.72.64-1.4.54-2.19,0-.07,0-.16-.01-.23,0-.21-.02-.43-.12-.65-.01-.02-.02-.03-.02-.05.37-.59.76-1.24.79-1.95.01-.04.03-.12,0-.17-.02-.71.08-1.33.51-1.93.2-.35.46-.65.54-1.08.09-.5.16-1.03.01-1.52.58-.55,1.12-1.2,1.31-2.01.06-.18.11-.36.15-.54.18-.48.24-1.02.1-1.5-.02-.13-.04-.24-.1-.36.34-.65.97-1.16,1.13-1.96.01-.06.02-.14.03-.22,0-.01,0-.04.02-.07h-.02c.38-.56.81-1.06,1.09-1.75.29-.78.39-1.38.42-1.78.02-.41,0-.61,0-.61-.02-.42-.14-.88-.35-1.23-.82-1.39-2.86-1.4-4.06-.01l-.6.71c-.33.29-.57.7-.76,1.13-.17.44-.28.91-.36,1.31l-.07-.03c-.69.66-1,1.65-1.11,2.52-.02.08-.09.36-.13.51-.05.06-.1.13-.14.19-.16.18-.24.48-.43.64-.02,0-.04.03-.05.05-.15.12-.24.29-.34.46-.03.07-.07.16-.1.23-.28.42-.4.97-.51,1.46-.08.28-.07.58-.04.87,0,.01-.04.05-.05.07-.16.22-.41.4-.55.67-.16.18-.26.42-.36.65-.01.04-.04.1-.06.21-.15.38-.32.81-.34,1.23-.05.31-.05.63.02.92.05.3.17.59.11.89-.12.22-.23.48-.38.73l-.04.1c-.05.08-.09.2-.15.38-.28.73-.26,1.58-.02,2.28-.68.85-.62,2.03-.53,2.98,0,.06-.01.37,0,.53-.05.06-.07.13-.09.21-.08.27-.13.56-.24.8-.11.16-.15.34-.21.54-.02.08-.04.17-.05.26-.14.47-.14,1.03-.11,1.53.02.31.12.58.23.85-.01.01-.03.06-.03.08-.12.27-.3.5-.36.79-.13.21-.15.49-.18.74-.01.03-.02.09-.02.2-.06.42-.05.87.02,1.28.04.31.13.62.27.88.11.28.3.52.33.83-.09.25-.11.51-.17.81,0,0-.02.11,0,.11-.02.11-.04.22-.04.36v.06c-.04.97.24,1.6.47,2.06-.05.24.03.52-.08.75,0,.01,0,.05,0,.06-.07.18-.08.37-.09.57,0,.08,0,.17,0,.27-.05.49.08,1.04.19,1.52.06.23.24.72.43,1.02-.17.94.1,1.94.51,2.72.03.07.14.35.19.5,0,.08,0,.16,0,.24-.03.24.08.54.01.78,0,.02-.02.05-.01.07-.05.19-.04.38-.03.58.02.08.04.17.05.24.02.51.23,1.03.43,1.5.09.28.28.52.47.74,0,.01,0,.07,0,.08-.02.28-.12.57-.08.87-.03.24.02.5.08.74.01.04.02.11.07.21.09.4.21.85.41,1.21.12.29.31.55.53.75.21.22.48.39.6.67.03.25.09.53.11.82l.03.11c0,.1.04.22.08.4.17.77.68,1.46,1.28,1.9-.08,1.09.63,2.04,1.26,2.78.04.05.2.31.31.43,0,.07.02.15.04.22.08.27.21.54.25.8,0,.19.61,1.18.61,1.18.26.5.72.91,1.22,1.13.11.06.25.12.36.16.39.69.47,1.62,1.15,2.19.05.06.12.12.18.17.17.17.35.32.58.42.02,0,.04,0,.05.02.2.72.43,1.53,1.01,2.06.03.04.08.11.15.12.62.48,1.05,1,1.33,1.76.19.4.33.81.68,1.15.41.39.85.79,1.38.93.22.83.64,1.66,1.35,2.28.16.15.31.28.47.4.4.41.95.7,1.47.78.13.04.26.06.39.06.54.59.89,1.4,1.69,1.83.05.03.14.07.22.1.01.01.04.02.07.04.3.76.76,1.54,1.48,2.03.17.14.34.24.51.36.44.37,1.05.56,1.57.58.09.01.17,0,.24.01.68.72.88,1.14,2.06,1.58.49.04,1.03.63,1.36,1,.31.32.59.67,1.03.85.52.26,1.07.48,1.62.46.47.73,1.15,1.37,2.01,1.73.18.1.38.17.58.24.5.25,1.12.33,1.65.26.13-.01.27-.03.39-.07.7.4,1.32,1.04,2.19,1.18.08.02.17.04.25.04.23.05.47.08.72.04.02,0,.04-.01.05,0,.57.5,1.23.99,2,1.14.04.02.13.05.19.02.77.09,1.44.22,2.1.71.38.24.73.51,1.2.59.55.11,1.16.14,1.68-.01.65.58,1.46,1.06,2.4,1.15.21.04.42.07.62.08.57.12,1.18.07,1.66-.15.13-.05.25-.1.36-.18.78.18,1.53.67,2.44.59.06,0,.16-.02.24-.04.02,0,.05,0,.08,0v-.02c.72.17,1.41.43,2.25.41.93,0,1.58-.22,1.98-.36.41-.15.59-.29.59-.29.4-.22.77-.55.97-.9.82-1.4-.24-3.15-1.86-3.6-.28-.08-.56-.15-.83-.24-.74-.38-1.73-.25-2.49-.14v-.08c-.77-.42-1.7-.44-2.51-.34-.07,0-.35,0-.49.01-.07-.04-.13-.07-.2-.09-.2-.12-.48-.14-.65-.29-.01-.02-.04-.03-.05-.04-.14-.12-.3-.18-.47-.25-.07-.02-.15-.04-.22-.06-.42-.21-.93-.22-1.38-.27-.26-.05-.54,0-.8.06-.01,0-.05-.04-.06-.04-.21-.15-.39-.38-.63-.5-.16-.15-.39-.23-.6-.31-.04-.01-.09-.04-.19-.05-.34-.14-.73-.29-1.11-.32-.28-.05-.57-.06-.84,0-.28.04-.55.15-.83.09-.19-.14-.42-.26-.63-.43l-.09-.05c-.07-.05-.17-.1-.32-.18-.62-.37-1.38-.42-2.07-.32-.63-.8-1.66-.99-2.54-1.16-.06-.01-.32-.11-.47-.13-.03-.06-.09-.1-.15-.14-.21-.16-.44-.29-.6-.47-.1-.15-.24-.24-.39-.36-.06-.04-.13-.09-.2-.13-.34-.3-.81-.48-1.24-.64-.26-.11-.53-.11-.8-.12,0-.02-.04-.05-.05-.06-.18-.21-.28-.46-.48-.65-.11-.2-.32-.34-.5-.48-.02-.03-.07-.05-.15-.1-.31-.23-.65-.44-1-.57-.27-.1-.54-.2-.81-.21-.27-.05-.56-.02-.81-.15-.14-.2-.32-.35-.5-.57,0,0-.07-.08-.08-.06-.07-.08-.13-.15-.23-.23l-.05-.03c-.65-.59-1.26-.75-1.74-.84-.13-.18-.37-.3-.45-.53,0-.01-.03-.03-.04-.04-.07-.16-.19-.29-.3-.44-.05-.05-.1-.12-.17-.17-.27-.36-.71-.62-1.09-.86-.18-.11-.61-.32-.91-.42-.39-.8-1.18-1.3-1.89-1.67-.06-.04-.28-.19-.4-.28-.03-.07-.07-.13-.11-.19-.1-.2-.33-.37-.39-.59,0-.02-.01-.05-.02-.06-.05-.17-.15-.31-.25-.46-.05-.05-.1-.11-.15-.17-.24-.39-.62-.73-.98-1-.19-.19-.45-.29-.7-.38,0-.01-.02-.06-.03-.07-.1-.24-.11-.52-.25-.75-.05-.22-.18-.42-.31-.6-.03-.03-.05-.08-.13-.15-.2-.3-.46-.64-.75-.86-.2-.2-.45-.35-.7-.46-.25-.12-.53-.19-.71-.4-.09-.22-.21-.44-.29-.7l-.05-.09c-.03-.08-.09-.18-.17-.33-.34-.62-.87-1.15-1.52-1.41-.11-.98-.8-1.76-1.46-2.36-.04-.04-.21-.26-.32-.36,0-.07.53-1-.83-2Z" fill="#f9c316"/>
            <path d="M122.05,125.25c.5.03,1.04-.14,1.46-.42.1-.06.22-.14.31-.22.74.06,1.45.53,2.24.38.07,0,.16-.01.23-.03.22-.02.43-.07.64-.19.02-.01.03-.02.04-.02.63.3,1.3.69,2.01.66.04,0,.13.02.17-.02.71-.1,1.34-.05,1.98.36.37.19.69.41,1.13.44.51.03,1.04.08,1.52-.1.59.58,1.31.96,2.13,1.14.19.06.37.09.55.12.49.16,1.05.14,1.52-.04.13-.03.24-.06.35-.12.68.31,1.24.91,2.07.97.06,0,.15,0,.22,0,.01,0,.04,0,.07.01.48.6,1.05,1.2,1.8,1.42.18.08.36.11.53.18.46.23,1.02.28,1.5.19.08,0,.15-.03.22-.04.73.53.95.89,2.05,1.18.46-.02,1,.46,1.3.8.28.3.52.63.92.79.46.23.98.4,1.48.4.36.74.88,1.39,1.62,1.78.15.11.32.2.47.3.4.31.93.47,1.44.48.12,0,.26,0,.37,0,.56.48.88,1.26,1.62,1.58.06.03.14.08.21.1.19.1.4.18.63.21.02,0,.04,0,.05,0,.32.62.68,1.29,1.28,1.67.03.03.09.08.15.08.64.32,1.1.74,1.41,1.42.19.36.35.71.68,1,.38.33.81.66,1.3.78.18.78.5,1.55,1.09,2.14.12.15.25.28.39.4.33.4.78.71,1.26.84.12.05.23.09.36.1.38.63.54,1.41,1.14,1.96.04.04.11.09.17.14,0,.01.03.03.05.05h.02c.28.6.5,1.22.97,1.8,1.05,1.29,1.87,1.54,1.87,1.54.38.19.84.32,1.24.31,1.6-.01,2.65-1.79,2.03-3.51l-.31-.88c-.16-.87-.96-1.63-1.56-2.19l.06-.04c-.22-.93-.94-1.67-1.63-2.21-.06-.05-.27-.26-.38-.37-.03-.08-.06-.15-.1-.22-.08-.23-.29-.46-.34-.69,0-.02,0-.05-.02-.06-.04-.19-.13-.35-.23-.53-.05-.06-.1-.14-.15-.2-.23-.45-.64-.84-1-1.18-.2-.22-.48-.34-.74-.46,0-.01-.03-.06-.03-.07-.11-.25-.14-.56-.3-.81-.07-.23-.23-.44-.38-.64-.03-.03-.06-.09-.15-.16-.24-.33-.55-.68-.9-.9-.24-.2-.52-.36-.8-.45-.28-.11-.59-.15-.82-.35-.14-.21-.29-.45-.45-.69l-.07-.08c-.05-.08-.13-.17-.26-.32-.49-.61-1.22-1.04-1.95-1.17-.43-.97-1.43-1.58-2.32-1.95-.06-.03-.32-.19-.47-.25-.03-.07-.08-.12-.13-.18-.19-.21-.41-.4-.56-.62-.08-.17-.22-.31-.36-.46-.05-.06-.12-.12-.2-.18-.33-.37-.84-.61-1.28-.84-.27-.15-.56-.19-.84-.24,0-.02-.04-.06-.05-.06-.18-.24-.28-.52-.5-.72-.12-.21-.36-.36-.56-.51-.02-.03-.07-.06-.17-.11-.34-.25-.73-.49-1.11-.64-.29-.12-.59-.22-.89-.22-.3-.04-.61.01-.89-.11-.18-.2-.4-.34-.62-.55,0,0-.08-.07-.09-.06-.08-.07-.17-.15-.29-.22l-.05-.03c-.8-.54-1.52-.57-2.03-.6-.18-.16-.46-.24-.61-.46-.01,0-.04-.03-.05-.04-.12-.16-.27-.26-.44-.38-.07-.04-.15-.09-.23-.12-.4-.28-.95-.43-1.43-.57-.23-.06-.73-.17-1.08-.17-.73-.62-1.75-.82-2.62-.9-.08-.01-.37-.07-.52-.09-.07-.05-.14-.08-.21-.12-.2-.14-.51-.19-.68-.36-.01-.02-.04-.04-.05-.04-.14-.14-.31-.21-.49-.31-.07-.03-.16-.06-.24-.08-.44-.26-1-.35-1.5-.39-.29-.06-.59,0-.88.05-.01,0-.06-.04-.07-.04-.23-.15-.43-.39-.71-.51-.19-.15-.44-.24-.68-.32-.05,0-.1-.03-.22-.04-.39-.11-.85-.23-1.26-.22-.31-.03-.63,0-.92.07-.3.07-.57.19-.88.17-.23-.1-.5-.18-.77-.3l-.11-.03c-.09-.04-.21-.07-.39-.12-.75-.23-1.59-.19-2.28.15-.91-.55-2.08-.53-3.03-.3-.06.01-.37.03-.53.06-.06-.04-.14-.06-.21-.07-.28-.06-.57-.1-.81-.2-.08-.05-.42-.07-.73-.08-.31-.01-.6.01-.6.01-.56,0-1.15.19-1.59.49-.11.07-.23.15-.32.23-.8-.06-1.63-.36-2.47-.09-.08.02-.17.04-.24.07-.23.06-.45.14-.66.28-.01.01-.03.03-.04.03-.72-.21-1.53-.35-2.29-.15-.05,0-.14.02-.18.06-.73.26-1.38.42-2.19.28-.45-.04-.87-.13-1.34,0-.54.13-1.1.37-1.49.74-.83-.22-1.77-.32-2.65.03-.21.06-.4.12-.59.2-.56.14-1.08.46-1.41.87-.1.09-.18.2-.24.31-.78.18-1.66.07-2.43.55-.05.03-.13.09-.2.13-.01,0-.04.03-.07.04-.8-.09-1.71-.11-2.5.28-.2.08-.39.17-.56.27-.53.22-1,.63-1.28,1.07-.05.07-.09.14-.13.2-.97.21-1.42.21-2.4,1-.28.41-1.07.56-1.54.69-.43.11-.88.17-1.25.46-.48.32-.96.68-1.2,1.18-.87.05-1.76.31-2.51.87-.17.11-.33.26-.49.39-.47.31-.85.8-1.05,1.29-.05.12-.11.25-.14.37-.69.41-1.56.63-2.11,1.31-.05.06-.12.12-.16.19-.16.17-.31.36-.39.6,0,.02,0,.04-.02.05-.7.26-1.48.57-1.99,1.16-.04.03-.11.09-.12.15-.45.64-.9,1.15-1.66,1.47-.4.21-.81.36-1.11.75-.36.44-.7.93-.83,1.46-.85.26-1.63.75-2.19,1.5-.15.16-.27.32-.39.49-.4.42-.65.99-.68,1.53-.03.14-.05.27-.03.4-.55.59-1.39.96-1.73,1.81-.03.06-.06.15-.09.23,0,.01-.02.05-.04.07h.02c-.51.54-1.12.99-1.5,1.74-.84,1.67-.75,2.54-.75,2.54,0,.46.11.95.31,1.31.84,1.43,2.8,1.34,4.04.2l.63-.59c.66-.47,1.07-1.37,1.37-2.09l.06.05c.74-.47,1.22-1.28,1.55-2.01.04-.06.17-.3.24-.43.06-.04.12-.08.18-.13.2-.11.34-.37.57-.43.02,0,.05-.01.06-.02.17-.06.31-.16.46-.27.05-.05.11-.11.16-.16.39-.26.68-.68.93-1.06.16-.21.26-.47.34-.73.01,0,.06-.03.07-.03.24-.11.53-.14.75-.29.21-.07.4-.22.57-.36.03-.03.08-.06.14-.14.28-.24.6-.51.82-.81.19-.21.34-.46.43-.72.1-.26.15-.55.35-.75.21-.1.42-.25.68-.34l.08-.05c.08-.03.18-.1.32-.19.63-.35,1.08-.97,1.31-1.63,1.01-.14,1.71-.92,2.27-1.62.04-.04.26-.23.35-.34.07,0,.14-.03.2-.06.24-.1.48-.23.71-.28.18-.01.33-.09.51-.16.06-.03.14-.07.21-.11.42-.16.82-.47,1.17-.76.22-.17.36-.4.51-.63.02,0,.06,0,.07-.01.27-.04.54-.01.79-.1.23,0,.46-.1.67-.19.03,0,.08-.03.17-.08.35-.15.71-.34.99-.57.23-.17.43-.39.58-.6.18-.21.29-.47.54-.62.24-.02.47-.1.74-.15,0,0,.1-.02.09-.03.1-.02.2-.04.32-.08l.05-.03c.82-.3,1.28-.72,1.59-1.09.22-.02.45-.17.68-.13.01,0,.04,0,.06-.01.18.02.34-.02.52-.06.07-.01.15-.03.23-.06.45-.06.89-.3,1.29-.51.19-.1.59-.35.82-.58.88.05,1.72-.35,2.39-.8.06-.03.3-.16.44-.22.08,0,.15,0,.22,0,.23.02.49-.09.71-.03.02,0,.05.01.06.01.17.05.34.03.53.02.07-.01.15-.03.22-.05.46,0,.93-.21,1.35-.36.26-.07.48-.24.68-.41.01,0,.06,0,.07.01.25.04.51.17.78.17.21.06.45.03.67.02.04,0,.1,0,.19-.03.36-.02.78-.06,1.12-.2.27-.07.53-.2.75-.37.23-.16.42-.39.7-.43.23.04.49.05.75.11h.1c.09.02.2.02.37.02.71.05,1.42-.22,1.98-.62.91.45,1.92.16,2.78-.08.06-.01.34-.05.48-.09.06.05.6.97,2.14.27Z" fill="#f9c316"/>
            <path d="M168.99,207.96c-.26.43-.38.98-.36,1.48,0,.12,0,.26.03.37-.46.58-1.15,1.02-1.45,1.75-.03.06-.07.14-.09.21-.09.19-.16.41-.17.64,0,.02,0,.04,0,.05-.58.38-1.21.8-1.57,1.42-.03.03-.08.1-.07.16-.29.65-.62,1.19-1.3,1.54-.35.22-.71.39-.96.75-.3.41-.57.89-.67,1.37-.79.22-1.52.62-2.05,1.27-.14.13-.27.27-.38.41-.39.34-.66.83-.74,1.33-.04.13-.07.24-.07.37-.59.45-1.41.61-1.88,1.3-.03.05-.08.12-.12.19-.01,0-.02.04-.05.06-.74.14-1.56.31-2.13.85-.15.12-.28.25-.42.37-.42.3-.75.74-.91,1.21-.04.07-.05.15-.07.21-.83.36-1.24.39-2.04,1.19-.21.41-.91.62-1.34.73-.4.09-.81.14-1.14.4-.43.29-.85.63-1.08,1.09-.83-.06-1.65.06-2.36.51-.16.09-.33.18-.49.27-.46.19-.87.57-1.13,1-.06.1-.14.22-.18.33-.69.26-1.53.14-2.17.62-.06.04-.13.08-.19.13-.18.11-.36.25-.5.44,0,.02-.02.04-.03.04-.69-.01-1.46-.07-2.09.27-.04.01-.12.04-.15.09-.59.4-1.18.6-1.93.52-.41-.01-.8-.07-1.2.09-.47.18-.97.37-1.32.73-.77-.26-1.58-.32-2.39-.13-.19.03-.37.07-.54.13-.51.07-1,.33-1.35.68-.1.08-.19.15-.26.25-.74.01-1.5-.29-2.27,0-.05.02-.13.06-.2.09-.01,0-.04.02-.07.02v.02c-.67-.07-1.32-.23-2.05-.08-.82.17-1.39.34-1.75.52-.36.17-.52.31-.52.31-.36.24-.69.58-.89.94-.79,1.44.22,3.14,2.02,3.5.3.06.61.13.91.18.83.26,1.89-.02,2.68-.25v.08c.92.26,1.92,0,2.74-.3.08-.02.36-.1.51-.14.08.02.16.02.23.02.24.04.54-.05.77.04.02.01.05.02.06.02.18.06.37.06.57.07.08,0,.17-.02.25-.03.51.03,1.05-.1,1.52-.28.28-.07.53-.25.77-.42.01,0,.07,0,.08,0,.27.04.55.16.85.15.23.06.5.03.75,0,.05-.01.11-.01.21-.05.4-.07.86-.16,1.23-.34.29-.11.57-.27.79-.46.24-.19.42-.43.72-.52.25-.01.53-.06.82-.06l.11-.02c.1,0,.22-.03.4-.06.77-.12,1.51-.51,1.99-1.11,1.05.11,2.09-.42,2.85-1.03.05-.04.32-.18.45-.28.07.01.15,0,.22-.03.27-.06.55-.16.82-.17.19.02.37-.03.58-.08.08-.02.17-.04.25-.09.48-.12.95-.43,1.37-.69.27-.16.45-.39.63-.61.02,0,.07,0,.08-.01.3-.03.58.02.86-.08.25,0,.5-.13.73-.23.03,0,.09-.03.18-.09.39-.17.79-.38,1.11-.64.25-.18.47-.42.63-.67.18-.24.29-.53.54-.72.26-.05.49-.17.79-.26,0,0,.11-.04.1-.05.11-.04.21-.07.34-.13l.05-.03c.86-.45,1.25-1.03,1.53-1.46.23-.08.45-.28.7-.29.01,0,.04-.02.06-.02.2-.02.36-.11.54-.2.07-.04.15-.08.22-.14.44-.21.85-.6,1.21-.95.17-.17.52-.54.68-.86.89-.33,1.6-1.09,2.09-1.81.05-.06.23-.29.33-.42.07-.03.14-.08.2-.12.22-.1.42-.34.66-.4.02,0,.05-.01.06-.02.19-.05.34-.16.52-.27.06-.05.13-.11.19-.16.45-.25.78-.72,1.08-1.11.2-.22.3-.51.4-.78.01,0,.06-.03.07-.04.25-.13.56-.18.8-.35.22-.09.42-.27.6-.44.03-.04.08-.07.14-.16.3-.28.63-.61.84-.97.18-.25.34-.53.4-.83.08-.3.09-.61.28-.86.21-.15.41-.34.66-.51l.08-.08c.08-.06.17-.15.3-.28.6-.52.92-1.32,1.01-2.05.98-.48,1.47-1.55,1.78-2.47.02-.06.17-.33.22-.48.07-.03.12-.09.17-.15.2-.2.37-.44.58-.61.17-.1.71-1.12.71-1.12.29-.48.44-1.07.38-1.61,0-.13-.02-.27-.05-.39.41-.68,1.15-1.23,1.33-2.09.02-.08.05-.17.06-.25.06-.23.1-.47.07-.72,0-.02-.01-.04,0-.05.51-.54,1.12-1.13,1.28-1.9.02-.04.05-.13.03-.19.11-.77.31-1.42.86-2.03.25-.37.54-.69.64-1.17.13-.54.24-1.13.12-1.66.61-.61,1.1-1.39,1.29-2.31.06-.21.11-.41.13-.61.15-.56.12-1.17-.08-1.67-.04-.14-.08-.26-.14-.37.27-.76.78-1.47.74-2.38,0-.06-.01-.16-.02-.24,0-.02,0-.05,0-.08.51-.64.99-1.42,1.02-2.3.03-.22.03-.42.04-.62.09-.57,0-1.18-.27-1.64-.03-.08-.08-.15-.11-.21.27-.95.52-1.34.35-2.57-.22-.45,0-1.2.15-1.68.13-.43.31-.84.26-1.31-.05-.58-.15-1.17-.45-1.63.41-.78.66-1.68.5-2.61-.01-.2-.05-.42-.08-.62-.03-.56-.24-1.14-.58-1.56-.08-.1-.17-.22-.26-.3-.04-.8.25-1.66-.06-2.48-.02-.08-.05-.16-.09-.24-.08-.22-.18-.44-.35-.64-.02-.01-.03-.03-.03-.04.13-.74.27-1.57.01-2.31-.01-.05-.03-.14-.08-.17-.34-.71-.54-1.36-.43-2.18.03-.45.07-.88-.1-1.33-.2-.53-.44-1.08-.83-1.45.21-.86.14-1.78-.21-2.65-.07-.21-.14-.4-.23-.58-.16-.56-.55-1.05-.99-1.35-.11-.09-.21-.17-.33-.23-.21-.78-.15-1.68-.71-2.4-.04-.05-.1-.13-.15-.19,0-.01-.03-.04-.04-.07h-.02c-.2-.7-.29-1.45-.75-2.15-.51-.78-.96-1.26-1.29-1.55-.33-.29-.54-.36-.54-.36-.4-.23-.87-.38-1.28-.39-1.65,0-2.57,1.76-2.18,3.4l.2.85c.03.41.2.81.43,1.18.21.38.47.74.7,1.04l-.07.03c.03.88.51,1.69.97,2.35.04.06.17.3.24.42,0,.08.01.15.03.22,0,.23.14.48.09.7,0,.02-.01.05,0,.06-.03.17,0,.35.01.53.02.07.04.15.06.22.02.47.24.93.44,1.34.09.25.29.46.47.66,0,.01,0,.06,0,.08-.03.26-.15.53-.13.8-.05.22-.01.46.02.68.01.04.01.1.05.19.05.36.15.77.31,1.11.08.27.22.52.4.73.17.22.4.4.47.68-.02.23,0,.49-.04.76v.1c0,.09.01.2.01.37-.02.72.27,1.42.74,1.95-.33.93-.08,1.94.26,2.78.02.05.08.33.13.47-.03.06-.04.13-.05.2-.04.26-.05.53-.13.76-.08.16-.1.33-.13.52,0,.07-.02.16-.01.24-.08.44.03.94.09,1.39.03.28.15.52.28.75-.01.01-.03.06-.03.07-.1.26-.27.47-.32.74-.12.2-.13.45-.15.67-.01.03-.01.08-.01.18-.03.38-.07.78-.02,1.15.03.28.1.56.22.81.1.26.27.49.29.78-.1.22-.14.46-.24.72,0,0-.04.1-.02.1-.03.1-.07.19-.09.32v.06c-.19.86,0,1.47.16,1.93-.09.2-.09.47-.25.65,0,.01-.02.04-.02.05-.11.14-.16.31-.23.48-.02.07-.05.15-.06.23-.16.42-.17.92-.18,1.38-.01.21,0,.68.07,1-.49.74-.5,1.68-.49,2.47,0,.07-.02.34-.03.48-.04.06-.07.13-.1.19-.13.19-.15.47-.31.63-.02.01-.04.03-.04.05-.13.13-.19.28-.27.45-.02.07-.05.15-.07.21-.24.4-.32.9-.38,1.35-.06.26-.02.54.03.8,0,.01-.04.05-.05.06-.15.2-.4.36-.54.59-.16.15-.27.37-.37.57-.01.04-.04.09-.06.18-.16.33-.32.71-.36,1.08-.06.27-.1.56-.06.83.02.28.1.55.01.82-.15.18-.28.4-.46.6l-.05.09c-.06.07-.11.17-.2.31-.4.59-.56,1.32-.47,2.02-.79.59-1.14,1.56-1.32,2.44-.01.06-.12.32-.15.46-.06.04-1.15.02-1.32,1.71Z" fill="#f9c316"/>
          </g>
        </g>
      </g>
      <polygon points="121.46 197.75 109.18 197.75 102.36 183.83 97.18 189.49 97.18 197.75 87.21 197.75 87.21 163.86 97.18 163.86 97.18 176.67 107.64 163.86 120.92 163.86 109.12 176.58 121.46 197.75" fill="#f9c215" fill-rule="evenodd"/>
      <path d="M154.23,178.45v14.41c-2.96,2.11-5.57,3.57-7.83,4.33-2.27.76-4.96,1.14-8.08,1.14-3.84,0-6.96-.7-9.38-2.06s-4.29-3.41-5.61-6.13c-1.32-2.72-2-5.81-2-9.34,0-3.7.74-6.91,2.18-9.65,1.46-2.74,3.59-4.8,6.4-6.22,2.2-1.1,5.14-1.64,8.84-1.64s6.24.34,8.01,1.01c1.77.67,3.23,1.73,4.4,3.16,1.17,1.44,2.04,3.23,2.63,5.43l-9.61,1.82c-.4-1.28-1.08-2.27-2.02-2.94-.94-.7-2.15-1.03-3.64-1.03-2.18,0-3.93.79-5.23,2.4-1.3,1.59-1.95,4.13-1.95,7.56,0,3.66.65,6.28,1.97,7.85,1.3,1.57,3.14,2.36,5.5,2.36,1.12,0,2.18-.16,3.19-.49,1.01-.34,2.18-.92,3.48-1.73v-3.16h-6.69v-7.09h15.44Z" fill="#f9c215" fill-rule="evenodd"/>
      <polygon points="109.12 176.58 121.46 197.75 109.18 197.75 102.36 183.83 97.18 189.49 97.18 197.75 87.21 197.75 87.21 163.86 97.18 163.86 97.18 176.67 107.64 163.86 120.92 163.86 109.12 176.58" fill="#f9c215" fill-rule="evenodd"/>
      <path d="M154.23,178.45v14.41c-2.96,2.11-5.57,3.57-7.83,4.33-2.27.76-4.96,1.14-8.08,1.14-3.84,0-6.96-.7-9.38-2.06s-4.29-3.41-5.61-6.13c-1.32-2.72-2-5.81-2-9.34,0-3.7.74-6.91,2.18-9.65,1.46-2.74,3.59-4.8,6.4-6.22,2.2-1.1,5.14-1.64,8.84-1.64s6.24.34,8.01,1.01c1.77.67,3.23,1.73,4.4,3.16,1.17,1.44,2.04,3.23,2.63,5.43l-9.61,1.82c-.4-1.28-1.08-2.27-2.02-2.94-.94-.7-2.15-1.03-3.64-1.03-2.18,0-3.93.79-5.23,2.4-1.3,1.59-1.95,4.13-1.95,7.56,0,3.66.65,6.28,1.97,7.85,1.3,1.57,3.14,2.36,5.5,2.36,1.12,0,2.18-.16,3.19-.49,1.01-.34,2.18-.92,3.48-1.73v-3.16h-6.69v-7.09h15.44Z" fill="#f9c215" fill-rule="evenodd"/>
    </g>
  </g>
</svg>