<?xml version="1.0" encoding="UTF-8"?>
<svg id="Layer_2" data-name="Layer 2" xmlns="http://www.w3.org/2000/svg" viewBox="0 0 239.54 283.75">
  <g id="Layer_1-2" data-name="Layer 1">
    <g>
      <path d="M148.97,20.21c17.69,75.7,87.43,130.78,87.43,175.45,0,108.17-158.14,113.41-173.55,15.68-12.06-.78-23.72-4.61-33.89-11.14-7.83-5.17-14.25-12.23-18.66-20.51-4.39-8.34-6.88-17.54-7.3-26.95-.99-18.53,4.95-39.4,18.07-59.28l7.43-10.96c14.71-21.53,31.47-46.04,37.95-74.15.79-3.49,4.26-5.69,7.75-4.9,2.44.55,4.35,2.46,4.9,4.9,6.62,27.95,23.36,52.46,38.07,74.03l3,4.52c12.27-20.33,23.18-42.29,28.78-66.56v-.14ZM61.63,198.19v-2.53c0-27.7,26.55-59.05,51.03-96.85l-6.21-9.15c-11.82-17.33-24.85-36.51-33.55-58.29-8.61,21.91-21.73,41.09-33.57,58.44l-7.34,10.82c-11.63,17.49-16.88,35.58-16.04,51.44.31,7.51,2.28,14.85,5.76,21.51,3.41,6.39,8.35,11.82,14.39,15.81,7.69,4.91,16.44,7.92,25.53,8.79ZM95.7,182.89c-.44-4.87,3.15-9.18,8.02-9.62,4.87-.44,9.18,3.15,9.62,8.02.75,11.12,3.68,21.99,8.61,31.99,5.06,9.54,12.74,17.42,22.14,22.73,4.22,2.5,5.61,7.94,3.12,12.15-2.5,4.22-7.94,5.61-12.15,3.12-12.22-6.97-22.19-17.29-28.74-29.73-6-12.07-9.59-25.21-10.55-38.65h-.07Z" fill="#f9c215" fill-rule="evenodd"/>
      <g>
        <g>
          <path d="M115.27,205.12c.14.44.48.84.88,1.09.09.06.2.13.3.17.18.64.07,1.41.51,1.98.04.05.07.12.12.17.11.16.24.31.43.43.02,0,.03.01.04.03,0,.63-.02,1.34.35,1.88.02.03.05.1.1.12.42.5.69.99.7,1.69.05.38.04.76.26,1.1.25.4.53.81.98,1.03-.05.76.08,1.58.55,2.21.09.16.19.3.3.43.24.42.63.77,1.08.91.11.05.22.09.34.11.31.59.33,1.39.93,1.88.04.04.11.08.16.12,0,.01.03.02.05.05.04.71.15,1.5.66,2.04.11.15.23.27.34.4.28.4.72.69,1.18.79.07.03.15.03.21.05.37.75.4,1.17,1.27,1.77.42.12.69.74.85,1.14.16.35.28.71.59.96.36.33.75.64,1.24.71.15.75.49,1.48,1.12,1.96.12.12.27.22.41.33.33.33.82.55,1.29.58.11.01.24.02.36.01.47.48.72,1.24,1.42,1.53.06.03.13.07.19.09.18.09.37.17.59.18.02,0,.04,0,.05,0,.29.58.66,1.2,1.25,1.5.03.02.09.07.15.06.62.25,1.1.54,1.48,1.14.23.31.41.64.78.83.42.22.89.41,1.37.4.32.71.81,1.31,1.51,1.65.15.09.3.17.46.24.24.15.33.18.48.19.15.01.32-.03.5-.07.09,0,.17-.02.27-.06.15.16.24.39.32.61.1.2.19.4.42.52.03.02.08.04.13.06,0,0,.03.01.04.02h.02c.06.19.09.39.15.57.04.2.11.38.24.55.55.77,1.13,1.08,1.13,1.08.28.17.65.35,1,.45.73.2,1.52.14,2.14-.28.62-.4,1.05-1.18.98-2.08-.02-.31-.04-.62-.1-.92.02-.91-.75-1.79-1.35-2.34l.06-.04c-.26-.92-1.08-1.67-1.88-2.04-.07-.04-.32-.2-.46-.28-.04-.07-.1-.13-.16-.18-.15-.2-.43-.35-.55-.57,0-.02-.03-.05-.04-.06-.12-.19-.21-.28-.32-.39-.05-.03-.11-.08-.16-.11-.26-.3-.67-.47-1.03-.62-.2-.11-.44-.12-.68-.14,0,0-.03-.05-.03-.05-.12-.19-.17-.45-.33-.62-.08-.18-.23-.31-.37-.44-.03-.02-.06-.06-.14-.09-.23-.2-.5-.43-.8-.54-.21-.11-.44-.19-.69-.2-.24-.03-.51.02-.7-.12-.11-.17-.26-.33-.37-.53l-.06-.06c-.04-.06-.11-.13-.2-.24-.39-.46-.98-.72-1.6-.75-.26-.84-1.02-1.28-1.72-1.59-.04-.02-.24-.16-.36-.21,0-.06-.04-.11-.08-.16-.12-.19-.26-.36-.34-.56-.03-.16-.11-.27-.2-.41-.03-.05-.08-.11-.13-.16-.19-.32-.54-.57-.84-.81-.18-.15-.41-.21-.64-.27,0-.02-.01-.05-.02-.06-.07-.23-.07-.47-.19-.67-.03-.2-.16-.37-.27-.52,0-.03-.04-.06-.09-.12-.18-.26-.4-.52-.66-.7-.19-.14-.4-.27-.63-.34-.22-.09-.48-.11-.65-.28-.05-.2-.16-.37-.25-.6,0,0-.03-.08-.04-.07-.03-.08-.07-.16-.12-.25l-.03-.04c-.37-.64-.86-.87-1.25-1.04-.06-.18-.22-.34-.21-.55,0-.01-.01-.04-.02-.05,0-.16-.07-.29-.12-.44-.02-.06-.06-.12-.1-.18-.13-.36-.44-.65-.69-.94-.12-.13-.42-.4-.67-.53-.12-.74-.63-1.33-1.16-1.76-.04-.04-.2-.21-.28-.3,0-.06-.03-.12-.05-.18-.02-.19-.18-.38-.16-.58,0-.02,0-.04,0-.05.01-.16-.03-.29-.08-.45-.03-.05-.06-.12-.08-.17-.09-.38-.36-.71-.58-1-.11-.18-.32-.31-.52-.43,0-.01,0-.05,0-.06-.01-.22.07-.46.01-.68.02-.19-.04-.38-.09-.56-.01-.03-.02-.08-.07-.15-.09-.29-.21-.62-.41-.86-.12-.2-.29-.38-.49-.51-.19-.15-.44-.25-.55-.46-.02-.2-.07-.42-.07-.65l-.02-.08c0-.08-.03-.17-.06-.31-.11-.6-.5-1.12-1.04-1.45.18-.87-.28-1.63-.77-2.24-.03-.04-.13-.26-.21-.36.02-.06.01-.12,0-.18-.02-.22-.07-.44-.05-.66.04-.15-.29-.98-.29-.98-.12-.41-.44-.79-.82-1.03-.09-.06-.19-.13-.29-.17-.14-.61.05-1.34-.34-1.91-.03-.05-.06-.12-.11-.17-.09-.16-.2-.32-.37-.44-.02,0-.03-.02-.04-.03.1-.6.19-1.26-.08-1.81,0-.03-.03-.1-.07-.13-.32-.52-.5-1.03-.37-1.68.04-.36.13-.69,0-1.04-.14-.41-.34-.83-.68-1.13.29-.67.4-1.38.2-2.07-.03-.16-.07-.32-.12-.46-.06-.44-.31-.86-.66-1.14-.08-.08-.16-.16-.26-.21-.02-.63.27-1.3-.04-1.95-.02-.05-.05-.11-.09-.17,0-.01-.02-.03-.02-.06.3-.61.57-1.28.42-1.94-.02-.17-.06-.32-.08-.47-.03-.44-.25-.87-.58-1.18-.04-.06-.1-.1-.15-.14.13-.78.32-1.11,0-2.05-.29-.44-.19-1.28-.2-1.8.02-.48.04-.96-.2-1.41-.24-.57-.61-1.11-1.1-1.4-.02-.9-.35-1.89-1.11-2.59-.15-.16-.32-.33-.49-.47-.42-.44-1.04-.73-1.6-.77-.13-.02-.28-.03-.4-.02-.65-.5-1.23-1.29-2.17-1.43-.08-.02-.18-.04-.26-.05-.24-.05-.49-.09-.75-.01-.02,0-.04.02-.05.01-.62-.46-1.42-.9-2.26-.85-.05,0-.15-.01-.2.02-.41.06-.79.1-1.17.12-.38,0-.76-.03-1.19-.11-.47-.07-.94-.15-1.44.03-.59.17-1.16.51-1.53.93-.9-.06-1.94.16-2.73.84-.2.14-.37.28-.53.44-.49.4-.88.97-.96,1.53-.04.14-.07.27-.07.4-.32.28-.65.57-.98.87-.3.32-.6.68-.73,1.16-.02.07-.04.17-.06.25,0,.01-.01.05-.03.08h.02c-.23.33-.46.65-.65,1.01-.2.36-.36.75-.43,1.2-.16,1-.05,1.71.09,2.14.13.44.26.62.26.62.22.41.59.77.94.94.73.35,1.5.17,2.15-.16.32-.17.61-.37.84-.6.26-.22.45-.47.58-.73l.3-.52c.42-.41.4-1.04.48-1.56l.07.03c.52-.34.75-.84.91-1.38.02-.04.11-.2.16-.28.05-.02.09-.04.13-.06.15-.05.26-.19.44-.19.02,0,.04,0,.04,0,.14,0,.23-.05.34-.09.04-.02.09-.05.12-.07.29-.07.51-.29.73-.47.13-.1.23-.26.32-.43,0,0,.04,0,.05,0,.18.02.37.13.55.14.15.06.29.04.42.02.02-.01.06,0,.11-.03.22,0,.46-.06.66-.14.16-.04.32-.15.45-.29.15-.12.28-.31.47-.33.15.05.3.13.45.23l.06.02s.12.05.22.08c.2.11.42.13.64.11.22,0,.46-.09.7-.2.36.66.95.76,1.55.88.04,0,.19.1.29.12,0,.05.03.09.06.13.1.14.21.27.24.44,0,.13.06.22.12.33.02.04.05.09.08.12.09.27.34.45.53.65.13.12.3.17.47.25,0,.01,0,.04,0,.05-.02.19-.09.38-.08.55-.06.16-.01.3.02.42,0,.02.01.05.03.1.02.23.11.43.21.62.07.15.19.29.35.4.12.12.32.23.37.4-.07.11-.08.35-.15.59,0,0-.02.09,0,.09-.02.09-.04.18-.05.29v.05c-.05.79.22,1.3.46,1.68-.05.2.01.43-.1.62,0,.01,0,.04,0,.05-.08.15-.09.3-.12.47,0,.07-.01.14,0,.22-.07.41.05.86.15,1.26.05.19.19.6.35.85-.24.78.02,1.6.33,2.26.02.06.1.29.15.42-.02.07-.02.13-.02.2-.05.2.04.45-.05.64-.01.02-.02.04-.02.05-.07.15-.07.31-.08.48,0,.06.01.14.02.2-.05.43.11.87.25,1.26.06.24.22.44.38.63,0,.01-.01.06-.01.07-.05.23-.19.47-.19.72-.07.2-.04.42-.03.62,0,.04,0,.09.04.18.03.33.09.72.24,1.03.08.25.22.48.4.66.17.2.4.35.47.6-.02.21,0,.45-.03.7v.09c0,.08.01.18.03.34.04.65.39,1.27.88,1.68-.25.9.19,1.76.65,2.43.03.04.13.28.21.39-.02.06-.79.83.34,1.94Z" fill="#f9c316"/>
          <path d="M114.09,228.45c-.23-.36-.64-.63-1.08-.75-.1-.03-.22-.07-.33-.08-.32-.54-.33-1.29-.86-1.73-.04-.04-.09-.1-.15-.13-.13-.13-.28-.25-.48-.32-.02,0-.04,0-.04-.02-.09-.6-.16-1.26-.56-1.71-.02-.03-.05-.09-.11-.1-.45-.41-.78-.84-.81-1.5-.05-.35-.05-.69-.27-.99-.24-.35-.55-.69-.95-.89.11-.72.06-1.44-.32-2.05-.07-.15-.15-.28-.23-.42-.17-.41-.51-.76-.92-.95-.1-.06-.19-.11-.31-.14-.2-.6-.08-1.33-.53-1.89-.03-.04-.08-.1-.13-.14,0-.01-.03-.03-.04-.05.13-.67.2-1.39-.1-1.99-.06-.16-.14-.29-.21-.43-.14-.42-.48-.78-.87-1-.06-.04-.12-.07-.18-.1-.08-.78.02-1.14-.55-1.95-.34-.24-.33-.88-.32-1.28,0-.36.06-.71-.11-1.04-.18-.41-.39-.82-.77-1.08.24-.7.27-1.42.01-2.09-.04-.15-.11-.3-.16-.45-.1-.42-.4-.81-.77-1.07-.09-.06-.19-.14-.28-.19-.1-.62.13-1.33-.24-1.93-.03-.06-.06-.12-.1-.17-.08-.17-.18-.33-.35-.46-.02,0-.03-.02-.03-.03.13-.6.26-1.25.01-1.81,0-.04-.02-.11-.07-.13-.3-.54-.45-1.05-.29-1.69.05-.35.15-.69.03-1.04-.12-.42-.29-.85-.62-1.16.3-.66.45-1.37.28-2.07-.02-.17-.06-.32-.1-.47-.04-.44-.29-.87-.62-1.16-.08-.09-.15-.16-.25-.22,0-.63.31-1.29.02-1.95-.02-.05-.05-.12-.08-.17,0-.01-.02-.03-.02-.06h-.02c.06-.57.2-1.14.05-1.77-.33-1.4-.92-1.9-.92-1.9-.25-.29-.61-.55-.98-.69-1.47-.56-3.12.41-3.41,1.91l-.15.76c-.25.7.05,1.56.29,2.2h-.08c-.26.77-.02,1.59.26,2.26.02.06.09.29.13.42-.02.07-.03.13-.03.2-.05.2.02.44-.07.64-.01.01-.02.04-.02.05-.07.15-.08.31-.09.47,0,.06.01.14.01.2-.06.42.07.87.19,1.26.05.24.21.44.36.64,0,.01-.01.05-.02.07-.06.23-.21.46-.22.71-.07.19-.06.41-.06.62,0,.04,0,.09.03.18.01.33.06.71.2,1.03.07.25.2.48.37.67.16.2.38.37.44.61-.02.21-.03.45-.06.69v.09c0,.08,0,.18.01.34,0,.65.32,1.27.79,1.71-.3.88.1,1.75.51,2.45.02.05.11.29.18.4-.03.06-.02.12-.02.19,0,.23.05.47,0,.69-.05.16-.04.31-.03.48,0,.06.01.14.03.22,0,.41.18.84.35,1.21.1.24.27.41.45.58,0,.02-.01.06,0,.07-.04.25-.15.48-.13.73-.06.21,0,.43.02.63,0,.03,0,.08.04.16.07.34.17.7.34.99.12.23.27.45.47.61.17.18.41.32.51.55-.02.22.03.43.03.69,0,0,0,.09.02.09,0,.09,0,.19.03.3l.02.05c.16.78.56,1.2.89,1.5,0,.2.13.41.07.63,0,.01,0,.04,0,.05-.04.16,0,.32.01.48.01.06.02.14.05.21.04.41.26.81.46,1.17.1.17.34.52.57.72-.02.81.41,1.54.89,2.09.04.05.17.26.25.36,0,.07.01.13.03.2,0,.21.14.42.11.63,0,.02,0,.05,0,.06-.03.17,0,.32.04.49.02.06.05.13.07.19.07.42.33.82.56,1.16.12.22.32.37.52.52,0,.01,0,.06,0,.07.01.24-.08.51,0,.75,0,.21.07.42.15.61.02.03.03.09.09.16.13.32.29.68.52.94.15.22.34.41.56.54.22.14.49.23.63.44.05.21.13.43.17.68l.03.08c.02.08.06.18.11.32.2.63.71,1.13,1.32,1.38.02.93.66,1.66,1.31,2.17.04.04.21.23.31.32,0,.06.02.13.05.19.09.22.2.44.24.66,0,.09.15.32.29.53.15.21.3.4.3.4.26.38.71.66,1.16.79.11.03.23.07.34.08.34.57.47,1.33,1.07,1.76.05.04.11.09.17.13.15.13.32.23.54.29.02,0,.04,0,.04.01.16.62.39,1.28.9,1.7.03.03.08.09.13.09.55.36.94.75,1.18,1.41.15.34.26.7.57.96.35.3.74.61,1.22.69.15.74.49,1.44,1.09,1.94.13.13.26.24.4.33.34.34.81.55,1.28.58.12.02.23.04.35.02.43.51.67,1.24,1.36,1.56.05.02.12.06.19.08,0,0,.04.02.06.03.2.68.5,1.41,1.12,1.8.14.12.29.2.42.3.36.31.86.48,1.32.48.07.01.15,0,.21,0,.52.64.66,1.01,1.63,1.42.42.03.83.56,1.08.9.22.31.42.64.77.81.41.25.87.45,1.35.42.3.7.78,1.33,1.47,1.68.14.09.31.16.46.23.39.25.9.35,1.37.29.11,0,.24-.02.35-.05.13.1.26.21.38.34.13.12.31.27.48.41.33.28.72.51,1.18.57.08.02.18.04.26.05.24.06.5.06.75,0,.02,0,.04-.02.05-.01.31.23.66.46,1.05.61.38.17.8.27,1.22.24.05,0,.15.01.2-.02.83-.13,1.51-.2,2.36-.02.47.07.94.12,1.44-.03.57-.21,1.17-.49,1.51-.95.91.09,1.92-.18,2.73-.83.2-.14.36-.3.52-.45.52-.37.86-.99.97-1.52.04-.14.07-.28.06-.41.6-.58,1.44-1.07,1.71-2.03.02-.06.04-.17.06-.25,0-.01.01-.05.03-.08h-.02c.45-.65.92-1.31,1.07-2.21.15-1,.04-1.71-.09-2.14-.12-.44-.27-.62-.27-.62-.23-.41-.57-.77-.94-.94-.75-.35-1.52-.17-2.15.16-.65.34-1.17.81-1.44,1.33-.08.18-.21.35-.3.52-.4.42-.41,1.03-.47,1.56l-.07-.03c-.55.32-.73.87-.92,1.38-.02.04-.1.21-.15.29-.05.01-.1.04-.14.06-.16.04-.26.19-.43.19-.01,0-.04,0-.04,0-.14-.01-.24.03-.36.07-.04.02-.08.05-.12.08-.29.07-.52.28-.73.47-.14.08-.23.26-.31.44,0,0-.04,0-.05,0-.18-.03-.38-.15-.55-.14-.14-.05-.29-.05-.43-.03-.02,0-.06,0-.11.03-.21.04-.47.02-.66.15-.16.05-.32.13-.45.28-.14.14-.28.32-.46.33-.14-.07-.3-.1-.45-.22l-.06-.02s-.12-.05-.22-.09c-.41-.18-.85-.12-1.34.11-.19-.33-.42-.51-.69-.64-.14-.07-.28-.12-.44-.15-.15-.03-.37-.11-.55-.15-.05-.01-.27-.12-.39-.15-.02-.06-.06-.1-.11-.15-.16-.16-.34-.3-.45-.48-.06-.15-.17-.25-.28-.36-.04-.04-.1-.09-.16-.13-.26-.28-.65-.47-1-.64-.21-.11-.45-.12-.68-.13,0-.02-.03-.05-.04-.05-.12-.21-.17-.45-.33-.62-.07-.19-.24-.32-.38-.45-.01-.02-.05-.05-.12-.1-.24-.22-.51-.43-.8-.55-.22-.11-.46-.18-.7-.19-.24-.04-.5,0-.71-.12-.1-.19-.24-.34-.37-.54,0,0-.05-.07-.06-.06-.05-.07-.1-.14-.18-.22l-.04-.03c-.52-.54-1.07-.64-1.47-.73-.1-.17-.3-.28-.34-.49,0,0-.02-.03-.03-.04-.04-.16-.14-.27-.23-.4-.04-.05-.08-.1-.14-.15-.21-.32-.59-.53-.91-.75-.15-.1-.51-.29-.78-.36-.3-.71-.98-1.12-1.59-1.43-.05-.03-.25-.16-.35-.22-.03-.06-.06-.11-.09-.16-.08-.18-.28-.32-.31-.52,0-.02,0-.04-.02-.05-.03-.16-.12-.27-.2-.41-.04-.04-.09-.1-.13-.14-.18-.36-.53-.61-.84-.84-.17-.15-.4-.22-.63-.28,0-.01-.02-.05-.02-.06-.08-.21-.08-.47-.19-.67-.03-.2-.15-.36-.26-.52-.02-.03-.05-.07-.11-.12-.18-.25-.4-.53-.66-.71-.18-.16-.4-.28-.63-.34-.23-.08-.49-.1-.66-.28-.07-.19-.18-.38-.25-.6l-.04-.07c-.03-.07-.08-.15-.15-.28-.29-.53-.82-.9-1.42-1.07-.07-.89-.77-1.45-1.38-1.91-.04-.03-.2-.21-.3-.28,0-.07.5-.98-.83-1.64Z" fill="#f9c316"/>
        </g>
        <g>
          <path d="M94.88,66.82c-.14-.26-.46-.43-.84-.48-.09-.01-.19-.03-.28-.03-.18-.39-.08-.97-.49-1.24-.03-.03-.07-.06-.11-.08-.1-.08-.22-.15-.39-.18-.02,0-.03,0-.04,0,.02-.45.03-.95-.28-1.25-.01-.02-.04-.06-.08-.06-.36-.25-.59-.53-.56-1.03-.01-.26.01-.52-.16-.72-.2-.23-.43-.45-.8-.52.14-.56.13-1.1-.18-1.48-.06-.1-.12-.19-.2-.26-.14-.27-.44-.45-.82-.5-.09-.02-.18-.04-.28-.04-.15-.4-.03-.97-.45-1.27-.03-.02-.07-.05-.12-.07,0,0-.02-.01-.03-.03.13-.52.22-1.08-.07-1.44-.05-.1-.13-.18-.19-.27-.13-.27-.44-.45-.81-.51-.05-.02-.12-.02-.17-.03-.09-.54,0-.83-.54-1.27-.32-.09-.34-.54-.34-.83,0-.26.04-.53-.14-.72-.18-.25-.4-.48-.77-.56.18-.56.19-1.09-.11-1.49-.05-.09-.12-.18-.19-.27-.12-.27-.43-.45-.8-.53-.08-.02-.18-.04-.28-.05-.14-.41,0-.97-.38-1.28-.03-.03-.06-.07-.1-.09-.09-.09-.2-.17-.37-.21-.02,0-.03,0-.03,0,.06-.45.11-.95-.18-1.26-.01-.02-.03-.07-.08-.07-.34-.28-.56-.57-.48-1.07,0-.26.06-.52-.09-.73-.17-.24-.39-.48-.74-.58.2-.55.23-1.08-.05-1.49-.05-.1-.1-.19-.17-.28-.11-.28-.4-.48-.77-.56-.09-.03-.17-.06-.27-.06-.11-.42.07-.97-.31-1.3-.02-.02-.07-.06-.11-.08,0,0-.02-.02-.03-.03h-.02c-.06-.39-.03-.81-.29-1.17-.58-.79-1.25-.9-1.25-.9-.3-.09-.68-.13-1.05-.09-1.47.17-2.82,1.42-2.77,2.47l.02.54c-.1.54.33.98.67,1.31l-.07.03c-.11.58.24,1.04.61,1.37.03.03.13.16.19.23,0,.05,0,.09,0,.14-.02.15.09.28.03.44,0,.01-.01.03-.01.04-.04.12-.03.23-.02.34.01.04.03.09.04.13,0,.3.19.54.36.76.08.14.25.22.42.3,0,0,0,.04,0,.05-.02.17-.13.37-.11.54-.05.15,0,.29.03.43.01.02.01.06.05.11.06.22.14.46.31.62.1.14.24.26.42.33.17.08.4.12.49.26,0,.15.03.3.02.48v.06c.01.06.03.12.05.23.07.44.42.76.91.9-.21.69.22,1.17.66,1.51.03.02.12.16.2.22-.02.05-.01.09,0,.13.02.16.07.31.05.47-.04.12-.02.23,0,.34,0,.04.02.09.04.14.03.28.22.52.4.73.1.14.27.21.44.27,0,.01,0,.04,0,.05-.02.18-.12.38-.09.54-.05.16,0,.3.05.43,0,.02.01.05.04.1.07.22.17.44.33.6.11.13.26.24.44.3.17.08.39.11.5.24-.02.16.03.3.03.48,0,0,0,.06.02.06,0,.06.01.13.03.2l.02.03c.16.51.53.7.83.83,0,.14.11.26.05.43,0,0,0,.03,0,.04-.04.13-.01.23,0,.34,0,.04.02.09.05.14.03.28.24.51.41.72.08.1.3.29.5.38-.05.59.34,1,.75,1.29.03.03.15.15.21.21,0,.05,0,.09.02.14,0,.15.11.27.07.44,0,.01-.01.04,0,.04-.03.13,0,.23.01.34.02.04.04.08.06.12.03.29.24.52.43.72.09.13.27.2.44.26,0,0,0,.04,0,.05,0,.17-.1.38-.06.54-.03.15.02.29.06.42.01.02.02.06.06.1.08.21.18.44.36.58.11.13.26.23.45.29.18.07.41.09.5.22.01.15.05.3.05.48l.02.06c0,.06.03.12.05.22.1.43.47.72.97.83-.15.7.32,1.14.79,1.45.03.02.14.15.22.2-.02.05,0,.09,0,.13.03.16.09.31.08.47-.03.13.33.64.33.64.15.26.47.44.84.48.09.01.19.03.28.03.18.4.09.98.51,1.25.03.03.07.06.11.08.1.08.22.15.4.18.02,0,.03,0,.04,0-.01.46,0,.96.31,1.25.01.02.04.06.09.06.37.25.61.53.6,1.03.02.26,0,.53.19.72.21.22.45.44.82.5-.12.57-.08,1.11.25,1.49.06.1.13.18.21.26.15.27.47.44.85.47.09.02.18.03.28.02.18.4.09.97.52,1.26.03.02.08.05.12.07,0,0,.02.01.03.03-.1.53-.15,1.1.17,1.45.06.1.14.17.21.26.15.27.48.43.85.46.06.01.12.01.17.02.13.54.07.84.65,1.24.33.06.39.52.41.81.03.26.02.54.21.71.2.24.45.45.83.5-.13.58-.08,1.12.26,1.49.06.09.14.17.21.26.15.26.48.42.85.46.09.01.19.02.28.02.19.39.11.97.53,1.24.03.03.07.06.12.08.1.08.22.15.4.17.02,0,.03,0,.04,0,0,.46,0,.96.33,1.24.01.02.04.06.09.06.38.24.62.51.61,1.01.03.26.01.53.19.71.21.22.45.43.82.49-.12.58-.08,1.11.26,1.49.06.1.13.18.21.26.15.27.47.43.84.46.09.02.18.03.28.02.18.4.09.97.52,1.25.03.02.08.05.12.07,0,0,.02.01.03.03h.02c.12.38.16.81.48,1.12.71.71,1.38.71,1.38.71.31.05.7.02,1.05-.08,1.43-.42,2.53-1.87,2.33-2.9l-.1-.52c.02-.54-.47-.91-.86-1.17l.06-.04c.02-.59-.39-.98-.81-1.24-.03-.03-.15-.14-.22-.19,0-.05-.01-.09-.02-.13,0-.15-.12-.27-.09-.43,0-.01,0-.04,0-.04.03-.13,0-.23-.03-.34-.02-.04-.04-.08-.06-.12-.04-.29-.26-.51-.46-.69-.1-.13-.28-.19-.45-.24,0,0,0-.04,0-.05,0-.17.08-.38.04-.55.03-.16-.03-.29-.08-.42-.01-.02-.02-.06-.06-.1-.08-.2-.2-.43-.38-.56-.11-.12-.27-.22-.46-.26-.18-.06-.41-.07-.51-.2-.02-.15-.07-.29-.07-.47l-.02-.06c0-.06-.03-.12-.06-.22-.12-.42-.5-.69-1-.78.13-.7-.35-1.12-.82-1.41-.03-.02-.14-.14-.22-.19.02-.05,0-.09,0-.13-.04-.15-.1-.3-.09-.46.03-.13,0-.23-.03-.34-.01-.04-.03-.09-.05-.13-.05-.27-.27-.49-.46-.68-.11-.12-.29-.18-.46-.23,0-.01,0-.04,0-.05,0-.18.08-.38.04-.54.04-.16-.03-.29-.08-.42,0-.02-.02-.05-.05-.1-.09-.21-.21-.42-.38-.56-.12-.12-.28-.21-.47-.26-.17-.07-.4-.07-.51-.2,0-.16-.05-.29-.07-.47,0,0,0-.06-.02-.06,0-.06-.02-.13-.05-.2l-.02-.03c-.19-.49-.58-.65-.88-.75-.01-.14-.13-.25-.08-.42,0,0,0-.03,0-.03.03-.13,0-.23-.03-.34-.01-.04-.03-.09-.05-.13-.05-.27-.26-.49-.45-.68-.09-.09-.31-.27-.52-.34.02-.58-.38-.97-.81-1.24-.03-.03-.15-.14-.22-.19,0-.05-.01-.09-.02-.13,0-.15-.12-.26-.09-.43,0-.01,0-.04,0-.04.03-.13,0-.23-.03-.34-.02-.04-.04-.08-.06-.12-.04-.29-.26-.5-.45-.69-.09-.12-.27-.19-.45-.24,0,0,0-.04,0-.05,0-.17.09-.38.05-.54.03-.15-.03-.29-.07-.41-.01-.02-.02-.06-.06-.1-.08-.2-.19-.42-.37-.56-.11-.12-.27-.22-.45-.27-.18-.06-.41-.07-.5-.2-.01-.15-.06-.29-.06-.47l-.02-.06c0-.06-.03-.12-.06-.22-.11-.42-.48-.7-.98-.79.14-.7-.32-1.12-.79-1.42-.03-.02-.14-.15-.22-.2.01-.05.66-.82-.41-1.22Z" fill="#f9c316"/>
          <path d="M42.72,79.51c-.25.34-.35.82-.3,1.27,0,.11.02.23.05.33-.39.48-1.06.77-1.26,1.43-.02.06-.05.12-.06.19-.07.17-.11.35-.1.56,0,.02,0,.03,0,.04-.52.3-1.08.65-1.32,1.2-.02.03-.06.09-.05.14-.18.58-.43,1.04-1,1.37-.29.2-.59.37-.76.7-.2.38-.38.8-.35,1.25-.68.25-1.27.66-1.61,1.29-.09.14-.17.27-.24.41-.26.35-.38.82-.31,1.27,0,.12,0,.22.04.33-.41.47-1.07.75-1.29,1.43-.02.05-.04.12-.05.18,0,0,0,.04-.02.06-.62.25-1.27.58-1.59,1.17-.09.14-.16.28-.24.41-.26.35-.37.83-.32,1.27,0,.07.02.14.02.2-.58.51-.93.64-1.25,1.56,0,.41-.5.78-.81,1.01-.29.2-.6.38-.75.72-.22.4-.39.84-.35,1.3-.69.27-1.28.72-1.62,1.37-.09.13-.16.29-.23.43-.24.37-.33.86-.26,1.31.01.11.03.23.06.34-.37.51-1.04.86-1.21,1.54-.02.06-.05.13-.06.19-.06.18-.09.37-.06.58,0,.02.01.03,0,.05-.49.36-1.03.77-1.23,1.35-.02.03-.05.1-.04.15-.13.61-.36,1.09-.88,1.5-.26.25-.55.45-.68.81-.16.41-.29.87-.21,1.32-.65.35-1.2.85-1.44,1.55-.07.15-.13.3-.18.46-.21.4-.26.9-.13,1.33.02.12.04.22.09.33-.34.54-.95.96-1.03,1.69,0,.05-.01.13-.01.19,0,.01,0,.04-.01.06h.02c-.33.49-.73.93-.9,1.57-.2.7-.18,1.25-.15,1.6.04.36.12.54.12.54.11.37.32.76.6,1.04,1.11,1.1,3.02.9,3.87-.21l.44-.56c.53-.45.65-1.26.73-1.9l.07.03c.57-.48.75-1.23.84-1.89.01-.06.07-.27.1-.39.05-.04.09-.09.12-.13.15-.12.21-.35.39-.44.02,0,.04-.02.04-.03.14-.07.22-.19.32-.31.03-.05.06-.11.09-.16.27-.28.39-.68.49-1.04.09-.2.08-.44.07-.67,0,0,.04-.03.05-.04.18-.13.43-.21.57-.38.17-.09.28-.26.39-.41.02-.03.05-.07.07-.14.17-.25.36-.54.43-.84.08-.22.12-.46.1-.69,0-.24-.07-.49.03-.7.15-.13.29-.29.47-.43l.05-.06c.06-.05.11-.12.21-.23.4-.44.55-1.05.47-1.66.78-.37,1.09-1.18,1.26-1.91.01-.05.11-.26.14-.38.06-.02.1-.06.14-.1.15-.15.29-.32.47-.43.14-.06.24-.16.35-.27.04-.04.09-.09.13-.15.29-.24.46-.62.62-.96.1-.21.11-.44.12-.67.02,0,.05-.02.05-.03.2-.12.44-.16.61-.32.19-.07.31-.23.44-.37.02-.01.05-.05.09-.12.21-.24.39-.51.52-.8.1-.22.17-.46.18-.7.03-.23-.01-.5.1-.7.18-.1.32-.25.52-.39,0,0,.07-.05.06-.06.07-.05.14-.11.21-.19l.03-.04c.51-.54.59-1.09.64-1.5.16-.11.25-.31.46-.38,0,0,.03-.02.04-.03.15-.05.25-.16.37-.26.04-.04.1-.09.14-.15.3-.24.49-.63.66-.97.08-.16.23-.53.26-.81.67-.38,1-1.09,1.2-1.75.02-.06.12-.26.16-.38.06-.03.1-.07.14-.12.17-.1.27-.32.46-.39.02,0,.04-.01.05-.02.15-.05.25-.16.37-.26.04-.05.08-.1.12-.15.31-.24.5-.63.66-.98.12-.19.14-.44.16-.67,0,0,.05-.03.06-.03.19-.11.45-.16.62-.32.18-.08.32-.23.45-.37.02-.03.06-.06.09-.14.21-.23.43-.51.54-.8.11-.21.18-.45.19-.69.02-.24-.02-.5.1-.71.16-.12.32-.27.52-.39l.06-.06c.06-.04.13-.11.23-.22.45-.41.66-1.03.64-1.65.82-.33,1.18-1.15,1.4-1.88.02-.05.13-.26.16-.38.06-.02.1-.06.15-.1.16-.15.31-.32.5-.42.15-.06.62-.81.62-.81.25-.35.36-.82.31-1.27,0-.11-.02-.23-.05-.33.39-.48,1.06-.79,1.26-1.45.02-.06.05-.12.06-.19.07-.17.11-.35.1-.57,0-.02,0-.03,0-.04.52-.31,1.08-.66,1.31-1.23.02-.03.06-.09.05-.14.17-.59.42-1.05.98-1.39.28-.21.59-.38.75-.72.2-.38.37-.81.33-1.27.67-.27,1.25-.7,1.58-1.34.09-.14.17-.28.23-.42.25-.36.36-.83.28-1.28,0-.12-.01-.22-.05-.33.39-.48,1.05-.8,1.24-1.48.01-.05.03-.12.04-.19,0-.01,0-.04.02-.06.61-.27,1.26-.63,1.55-1.23.09-.14.15-.29.22-.43.25-.37.33-.85.26-1.29,0-.07-.02-.14-.03-.2.56-.54.9-.69,1.18-1.63-.03-.41.45-.82.76-1.06.28-.22.58-.42.71-.76.2-.4.35-.84.29-1.29.68-.29,1.24-.75,1.54-1.41.08-.13.14-.29.21-.43.23-.36.3-.85.23-1.3-.01-.11-.03-.23-.07-.33.36-.51,1.02-.86,1.16-1.54.02-.06.04-.13.05-.19.05-.18.09-.36.05-.58,0-.02-.01-.03,0-.04.49-.35,1.02-.76,1.22-1.33.02-.03.05-.09.04-.14.13-.6.34-1.08.87-1.48.26-.24.55-.44.68-.79.16-.41.3-.85.22-1.3.65-.33,1.21-.81,1.47-1.49.08-.15.14-.29.19-.45.22-.39.28-.87.16-1.31-.01-.12-.03-.22-.08-.33.35-.52.98-.9,1.1-1.61,0-.05.02-.13.02-.19,0-.01,0-.04.01-.06h-.02c.35-.47.77-.88.96-1.5.44-1.38.16-2.1.16-2.1-.08-.37-.27-.77-.53-1.07-1.04-1.18-2.92-1.11-3.88-.06l-.49.54c-.55.43-.72,1.25-.82,1.88l-.07-.03c-.59.46-.84,1.2-.95,1.87-.02.06-.08.27-.11.39-.05.04-.09.09-.13.13-.15.12-.23.35-.41.44-.02,0-.04.02-.05.03-.14.07-.23.18-.34.3-.03.05-.07.11-.1.16-.28.28-.41.68-.54,1.04-.1.2-.09.44-.08.67,0,0-.04.03-.05.04-.18.13-.43.21-.58.38-.17.09-.29.26-.4.41-.02.03-.05.07-.08.14-.18.25-.37.54-.45.85-.09.22-.13.46-.11.7,0,.24.08.5-.03.71-.15.13-.29.3-.47.43l-.05.06c-.06.05-.12.12-.21.23-.41.44-.56,1.07-.48,1.68-.78.39-1.06,1.23-1.23,1.96-.01.05-.11.26-.13.38-.06.02-.1.06-.14.11-.15.15-.29.33-.47.45-.15.06-.24.17-.35.28-.04.04-.09.1-.12.16-.28.26-.43.66-.58,1.01-.09.22-.1.45-.1.68-.02,0-.05.03-.05.04-.2.13-.44.19-.6.35-.19.08-.31.25-.43.4-.02.01-.05.05-.09.12-.2.25-.39.53-.49.83-.09.22-.14.46-.13.7-.02.24.04.49-.06.71-.18.11-.31.27-.49.41,0,0-.07.06-.05.06-.07.06-.13.11-.2.19l-.02.04c-.48.56-.54,1.1-.56,1.52-.15.11-.24.32-.44.39,0,0-.03.03-.04.03-.15.06-.24.17-.36.27-.04.04-.09.1-.13.15-.28.25-.45.64-.61.99-.07.16-.21.54-.23.82-.65.4-.96,1.12-1.13,1.78-.02.06-.11.27-.15.38-.05.04-.1.08-.14.12-.16.1-.26.32-.45.4-.02,0-.04.01-.05.02-.15.06-.25.16-.37.27-.04.05-.08.1-.11.15-.31.25-.48.64-.64.99-.11.19-.13.44-.14.67,0,0-.04.03-.05.03-.19.12-.45.17-.61.33-.18.08-.31.23-.44.37-.02.03-.06.06-.09.14-.2.23-.42.51-.53.81-.11.21-.17.45-.17.69-.02.24.03.5-.09.7-.16.12-.31.27-.51.4l-.06.06c-.06.04-.12.11-.23.22-.44.42-.65,1.03-.62,1.64-.82.33-1.17,1.15-1.37,1.88-.02.05-.13.26-.16.38-.06.02-1.1-.15-1.26,1.32Z" fill="#f9c316"/>
          <path d="M17.47,171.63c.16.42.53.78.95.99.1.05.21.11.31.14.21.61.17,1.37.66,1.89.04.05.08.11.14.15.13.15.27.28.47.38.02,0,.04,0,.04.02.05.63.14,1.32.56,1.8.02.03.06.1.11.11.47.43.81.86.92,1.55.1.36.15.72.41,1.02.3.35.66.68,1.1.82.03.75.28,1.48.81,2.03.11.14.23.26.35.37.28.38.73.63,1.19.7.12.03.22.06.34.05.37.54.54,1.27,1.18,1.65.04.03.12.06.18.09,0,0,.04.02.05.04.14.68.38,1.42.96,1.85.13.12.27.22.39.32.34.33.82.51,1.28.53.07.01.15,0,.21.01.48.65.59,1.04,1.54,1.45.42.04.79.58,1.03.92.21.31.38.64.74.81.41.24.87.45,1.35.42.29.68.77,1.31,1.46,1.62.14.08.3.15.45.22.38.24.88.33,1.34.25.11-.02.23-.04.34-.07.53.36.93,1.02,1.64,1.14.06.02.13.04.2.04.18.05.38.08.59.04.02,0,.03-.01.05,0,.39.48.85.99,1.47,1.16.03.02.1.05.15.03.64.08,1.15.25,1.61.76.28.24.51.51.89.61.44.13.91.22,1.36.08.43.6,1.02,1.1,1.76,1.27.17.06.32.1.49.13.43.17.94.14,1.37-.04.11-.03.22-.07.32-.14.59.27,1.11.8,1.85.8.05,0,.13,0,.2-.01.01,0,.04,0,.06,0v-.02c.54.26,1.06.58,1.73.65,1.5.12,2.15-.32,2.15-.32.35-.17.7-.45.92-.77.88-1.3.33-3.11-.88-3.78l-.62-.34c-.53-.44-1.33-.43-1.96-.4l.02-.07c-.55-.51-1.3-.56-1.96-.56-.06,0-.28-.03-.39-.04-.05-.04-.1-.07-.15-.1-.14-.13-.37-.16-.48-.32,0-.02-.02-.04-.03-.04-.09-.13-.21-.2-.34-.29-.05-.02-.11-.05-.17-.07-.3-.23-.71-.3-1.07-.37-.21-.06-.44-.03-.66.02,0,0-.04-.04-.04-.04-.15-.16-.25-.39-.43-.52-.11-.15-.28-.25-.43-.34-.03-.01-.07-.04-.15-.06-.26-.15-.56-.3-.86-.34-.22-.06-.45-.08-.68-.04-.23.03-.47.12-.69.04-.14-.13-.31-.25-.46-.42l-.07-.05c-.05-.05-.13-.11-.24-.19-.45-.37-1.07-.46-1.65-.36-.4-.76-1.22-.99-1.93-1.13-.05-.01-.26-.1-.38-.12-.02-.06-.06-.1-.11-.14-.15-.14-.32-.28-.43-.46-.06-.14-.16-.24-.27-.35-.04-.04-.09-.09-.15-.12-.25-.27-.62-.42-.95-.57-.2-.1-.43-.1-.65-.1,0-.02-.02-.05-.03-.05-.11-.2-.16-.43-.3-.59-.06-.19-.21-.31-.33-.43-.01-.02-.05-.05-.11-.09-.22-.2-.46-.4-.73-.52-.2-.1-.42-.17-.65-.18-.22-.03-.47,0-.67-.12-.08-.18-.21-.32-.33-.52,0,0-.04-.07-.05-.06-.04-.07-.09-.14-.15-.21l-.03-.03c-.45-.53-.96-.64-1.35-.73-.08-.16-.26-.28-.29-.48,0,0-.02-.03-.02-.04-.03-.15-.11-.26-.19-.39-.03-.05-.07-.1-.12-.15-.17-.32-.51-.54-.79-.75-.13-.1-.45-.3-.71-.37-.21-.69-.79-1.14-1.35-1.46-.05-.03-.22-.16-.31-.23-.02-.06-.04-.11-.07-.16-.05-.18-.23-.32-.23-.52,0-.02,0-.04,0-.05,0-.15-.07-.27-.13-.41-.03-.05-.07-.1-.1-.15-.13-.35-.42-.62-.69-.86-.14-.16-.35-.24-.56-.32,0-.01,0-.05-.01-.06-.03-.21.01-.46-.07-.66,0-.19-.09-.35-.17-.51-.02-.03-.03-.07-.09-.13-.12-.26-.28-.55-.51-.74-.15-.17-.33-.31-.54-.4-.21-.1-.46-.16-.58-.34-.04-.19-.11-.37-.13-.6l-.03-.07c-.01-.07-.04-.15-.09-.28-.17-.54-.59-.96-1.14-1.19.12-.84-.4-1.48-.9-2-.03-.04-.15-.23-.23-.31.02-.06,0-.11,0-.17-.04-.2-.1-.41-.08-.61.04-.15-.33-.9-.33-.9-.14-.38-.46-.7-.86-.9-.09-.05-.2-.1-.3-.14-.15-.58,0-1.26-.39-1.78-.03-.05-.06-.11-.11-.15-.09-.15-.21-.29-.38-.4-.02,0-.03-.01-.04-.02.09-.58.17-1.2-.09-1.7,0-.03-.03-.1-.07-.12-.32-.48-.51-.95-.37-1.56.04-.33.12-.65,0-.98-.13-.38-.32-.78-.66-1.05.3-.64.42-1.3.25-1.94-.02-.15-.06-.29-.11-.43-.05-.41-.27-.8-.61-1.08-.08-.08-.15-.15-.25-.21,0-.59.32-1.21.06-1.83-.02-.04-.05-.11-.08-.16,0-.01-.02-.03-.02-.05.33-.55.64-1.17.54-1.8,0-.16-.04-.3-.06-.45,0-.42-.18-.84-.48-1.15-.04-.06-.09-.1-.13-.15.18-.72.36-1.01.12-1.91-.23-.32-.01-.89.13-1.23.13-.31.3-.61.24-.95-.04-.42-.08-.85-.35-1.21.47-.54.77-1.15.74-1.83,0-.15,0-.3,0-.45.06-.4-.07-.85-.31-1.21-.06-.09-.12-.19-.19-.26.14-.58.56-1.13.47-1.77,0-.06,0-.13-.02-.19-.01-.17-.05-.35-.15-.53-.01-.01-.02-.03-.02-.04.34-.48.7-1,.67-1.58,0-.03.02-.1-.02-.14-.07-.58-.01-1.08.38-1.58.18-.29.4-.54.42-.9.03-.41.04-.85-.14-1.25.54-.46.95-1.01,1.05-1.69.04-.15.06-.3.08-.45.11-.4.09-.86-.11-1.25-.04-.11-.08-.2-.15-.29.24-.55.78-1,.77-1.69,0-.05,0-.12-.01-.18,0-.01,0-.04,0-.06h-.02c.27-.49.64-.92.74-1.52.24-1.35-.11-2.03-.11-2.03-.11-.35-.33-.73-.61-.99-1.1-1.08-3.04-.91-3.87.29l-.42.61c-.51.51-.58,1.38-.61,2.04l-.07-.02c-.52.57-.63,1.39-.63,2.09,0,.06-.03.29-.04.42-.04.05-.07.11-.1.16-.13.15-.16.4-.33.53-.02,0-.04.03-.04.04-.13.1-.19.24-.27.38-.02.06-.04.13-.06.19-.22.35-.26.79-.3,1.19-.05.23.01.47.08.7,0,0-.03.04-.04.05-.14.18-.37.32-.48.54-.15.14-.22.34-.29.53,0,.04-.03.08-.04.17-.11.3-.21.66-.2.99-.03.25,0,.5.09.73.07.24.21.47.17.71-.1.18-.2.39-.32.59l-.03.08c-.04.07-.07.16-.12.3-.23.58-.17,1.26.11,1.82-.63.67-.57,1.6-.42,2.37,0,.05,0,.3.03.42-.05.04-.07.1-.09.16-.08.21-.14.44-.25.63-.11.12-.15.27-.21.42-.02.06-.04.13-.05.21-.14.37-.11.82-.08,1.22,0,.25.11.47.21.68-.01.01-.03.05-.03.06-.12.21-.31.39-.38.62-.13.17-.16.39-.2.58-.02.02-.02.07-.02.16-.05.33-.07.69-.02,1.02.03.25.1.5.23.71.1.23.28.43.3.67-.1.2-.13.4-.22.64,0,0-.03.09-.01.09-.03.09-.05.17-.06.28v.05c-.09.76.15,1.28.36,1.66-.06.19-.02.42-.15.59,0,.01,0,.04-.01.05-.09.14-.12.29-.15.45-.01.06-.02.14-.02.21-.09.39,0,.83.07,1.22.04.19.16.59.31.84-.29.75-.06,1.56.22,2.22.02.06.09.29.13.41-.02.07-.02.13-.03.19-.05.2.02.44-.08.63-.01.01-.02.04-.02.05-.07.15-.07.3-.09.47,0,.06.01.14.02.2-.05.42.07.85.22,1.24.06.23.22.43.37.62,0,.01-.01.05-.01.07-.05.23-.2.46-.2.7-.07.19-.05.41-.03.61,0,.04,0,.09.04.17.03.33.09.71.24,1.01.09.24.22.47.4.64.17.19.4.34.48.57-.01.21,0,.44-.02.68v.09c0,.08.02.18.03.33.06.64.4,1.23.93,1.61-.23.89.25,1.72.74,2.35.03.04.15.27.23.37-.01.05-.75.87.45,1.87Z" fill="#f9c316"/>
          <path d="M84.28,146.52c.27-.38.38-.9.34-1.37,0-.11-.02-.24-.04-.35.41-.53,1.11-.9,1.33-1.61.03-.06.06-.13.07-.2.07-.18.13-.38.12-.61,0-.02,0-.04,0-.05.54-.36,1.13-.76,1.39-1.37.02-.03.06-.1.05-.15.2-.63.47-1.14,1.07-1.52.3-.23.62-.42.81-.79.22-.42.42-.88.41-1.36.71-.31,1.33-.77,1.71-1.46.1-.15.19-.3.26-.45.28-.39.42-.89.37-1.37,0-.12,0-.24-.03-.35.44-.52,1.14-.85,1.39-1.58.02-.05.04-.13.06-.2,0-.01.01-.04.03-.06.65-.29,1.34-.67,1.69-1.31.1-.15.18-.3.27-.45.29-.39.42-.9.39-1.36,0-.08,0-.15-.01-.21.62-.57.99-.72,1.36-1.72.01-.44.55-.86.89-1.11.31-.23.64-.43.81-.78.24-.42.45-.88.44-1.37.72-.29,1.35-.75,1.74-1.44.1-.14.18-.3.27-.45.28-.38.41-.89.39-1.37,0-.11,0-.24-.03-.35.43-.52,1.15-.87,1.39-1.58.03-.06.06-.13.08-.2.08-.18.14-.38.14-.61,0-.02,0-.04,0-.05.55-.35,1.15-.74,1.43-1.34.02-.03.07-.1.06-.15.22-.63.5-1.13,1.1-1.51.31-.23.63-.42.82-.78.23-.42.43-.88.43-1.36.71-.3,1.35-.76,1.73-1.45.1-.15.19-.3.27-.45.29-.39.43-.9.39-1.37,0-.12,0-.24-.03-.35.44-.52,1.15-.86,1.4-1.59.02-.05.04-.13.06-.2,0-.01.01-.04.03-.06h-.02c.44-.46.94-.85,1.26-1.48.7-1.4.56-2.21.56-2.21,0-.41-.12-.85-.32-1.19-.8-1.37-2.74-1.55-3.91-.52l-.6.53c-.65.4-.98,1.26-1.22,1.93l-.06-.04c-.7.43-1.08,1.22-1.32,1.92-.03.06-.13.29-.19.41-.06.04-.11.08-.16.13-.18.11-.29.35-.5.43-.02,0-.04.02-.05.03-.16.06-.27.18-.4.29-.04.05-.09.11-.13.16-.34.27-.55.7-.74,1.07-.13.21-.17.47-.2.72-.01,0-.05.03-.06.04-.2.13-.47.19-.66.37-.19.09-.34.26-.48.41-.02.03-.06.07-.1.15-.23.26-.47.56-.6.88-.13.23-.21.49-.23.75-.04.26,0,.54-.14.76-.17.13-.34.3-.55.44l-.06.07c-.07.05-.14.13-.25.24-.48.46-.74,1.12-.75,1.78-.87.38-1.28,1.27-1.54,2.06-.02.05-.15.28-.19.41-.06.02-.11.07-.16.11-.18.16-.34.35-.54.47-.16.06-.27.18-.4.29-.05.05-.1.1-.15.17-.32.27-.54.69-.73,1.06-.13.23-.16.48-.19.73-.02,0-.05.03-.06.04-.22.13-.48.19-.66.37-.2.08-.35.27-.49.42-.03.01-.06.06-.11.13-.23.27-.46.57-.6.89-.12.24-.2.5-.22.75-.05.25-.02.53-.14.76-.2.12-.34.28-.55.44,0,0-.07.06-.06.07-.07.06-.15.12-.23.21l-.03.04c-.55.6-.67,1.19-.74,1.64-.17.12-.28.35-.49.42,0,0-.03.03-.04.04-.16.06-.27.18-.4.29-.05.05-.1.1-.15.17-.32.27-.53.69-.73,1.07-.09.18-.26.58-.31.88-.7.43-1.09,1.22-1.32,1.93-.03.06-.13.29-.19.41-.06.04-.11.09-.15.13-.18.12-.29.36-.49.44-.02,0-.04.02-.05.03-.16.07-.27.18-.4.3-.04.05-.09.11-.13.17-.34.28-.55.71-.73,1.09-.13.21-.16.47-.19.73-.01,0-.05.03-.06.04-.2.13-.47.2-.66.38-.19.09-.34.26-.48.42-.02.03-.06.07-.1.15-.22.26-.47.57-.59.9-.12.23-.21.49-.22.75-.03.26,0,.54-.13.76-.17.14-.34.31-.54.46l-.06.07c-.07.05-.14.13-.24.25-.47.47-.72,1.15-.71,1.81-.86.4-1.25,1.32-1.49,2.12-.02.05-.14.29-.18.42-.06.02-.11.07-.16.12-.17.17-.33.36-.53.49-.16.07-.65.92-.65.92-.27.39-.38.91-.34,1.39,0,.11.02.24.04.35-.41.55-1.12.93-1.32,1.65-.02.06-.05.14-.07.21-.07.19-.12.39-.1.62,0,.02,0,.04,0,.05-.53.38-1.12.81-1.36,1.43-.02.03-.06.1-.05.16-.18.65-.43,1.17-1.01,1.59-.29.25-.61.46-.78.84-.2.43-.37.92-.33,1.4-.69.36-1.29.88-1.62,1.61-.09.16-.17.32-.23.48-.25.42-.35.94-.27,1.42,0,.12.02.24.06.35-.39.57-1.08.97-1.25,1.74-.01.05-.03.14-.04.21,0,.01,0,.04-.02.06-.62.37-1.27.84-1.55,1.53-.09.16-.15.33-.21.49-.24.43-.31.97-.22,1.43,0,.08.03.15.04.21-.54.66-.91.86-1.13,1.93.05.44-.42.95-.72,1.27-.27.28-.57.54-.69.93-.17.47-.29.97-.19,1.46-.65.44-1.22,1.02-1.46,1.8-.07.16-.12.35-.17.51-.2.44-.23.99-.11,1.46.02.11.06.24.1.34-.32.62-.92,1.15-.99,1.92-.01.07-.03.15-.03.22-.03.2-.05.41.01.64,0,.02.02.03.01.05-.46.49-.92,1.06-1.03,1.74-.01.04-.04.12-.02.17-.04.69-.19,1.26-.64,1.83-.22.33-.48.62-.55,1.04-.09.49-.16,1,.01,1.48-.57.55-1.01,1.25-1.14,2.07-.05.19-.08.36-.09.55-.12.5-.06,1.05.16,1.49.04.12.09.23.16.33-.22.68-.72,1.32-.63,2.13,0,.06.02.14.03.21,0,.01,0,.04,0,.07h.02c-.2.63-.51,1.23-.48,1.98.04,1.67.56,2.32.56,2.32.22.36.54.71.89.9,1.41.77,3.11-.12,3.64-1.51l.27-.72c.19-.32.25-.69.25-1.07.02-.38-.02-.77-.06-1.11h.08c.44-.65.42-1.48.38-2.19,0-.06,0-.31.01-.43.04-.06.06-.11.09-.17.12-.17.13-.42.28-.57.02,0,.03-.03.04-.04.12-.11.18-.25.25-.4.02-.06.04-.13.06-.19.22-.36.27-.81.3-1.21.05-.23-.01-.48-.07-.72,0,0,.03-.04.04-.05.14-.18.37-.33.48-.54.15-.14.24-.34.32-.52.01-.04.04-.08.05-.17.13-.3.27-.65.28-.99.05-.25.04-.51-.02-.76-.05-.25-.15-.5-.09-.74.13-.17.24-.37.4-.56l.04-.08c.05-.06.1-.15.17-.29.33-.55.38-1.24.23-1.87.75-.56.91-1.49.98-2.3,0-.05.08-.3.09-.43.06-.03.09-.09.13-.14.14-.19.26-.4.42-.55.14-.09.22-.22.32-.36.04-.05.08-.12.11-.19.25-.32.36-.77.49-1.16.08-.24.06-.49.04-.73.02,0,.05-.04.05-.05.19-.17.43-.27.58-.47.18-.11.29-.31.4-.49.02-.02.04-.06.08-.14.17-.3.35-.62.44-.95.08-.25.12-.51.09-.76,0-.25-.07-.52.02-.76.17-.14.29-.33.47-.51,0,0,.06-.07.05-.07.06-.07.12-.14.19-.23l.02-.05c.46-.66.49-1.24.5-1.69.15-.14.22-.38.42-.47,0,0,.03-.03.04-.04.15-.08.24-.21.35-.34.04-.05.09-.11.13-.18.28-.3.44-.74.59-1.12.07-.18.19-.6.2-.9.64-.5.94-1.3,1.11-2.02.02-.06.1-.3.15-.42.05-.04.1-.09.14-.14.16-.13.26-.37.45-.47.02,0,.04-.02.05-.03.15-.08.25-.2.37-.32.04-.05.08-.12.11-.17.31-.3.49-.73.64-1.12.11-.22.13-.48.13-.73.01,0,.05-.03.06-.04.19-.14.45-.22.62-.41.18-.1.32-.28.44-.44.02-.03.06-.07.09-.15.21-.27.43-.58.54-.91.11-.23.18-.5.18-.75.02-.26-.03-.53.09-.76.16-.14.32-.32.52-.47l.06-.07c.06-.05.13-.13.23-.25.46-.48.67-1.15.65-1.8.84-.42,1.2-1.32,1.43-2.11.02-.05.13-.28.17-.41.06-.02,1.13.08,1.31-1.5Z" fill="#f9c316"/>
        </g>
        <g>
          <path d="M14.14,180.41c-.24-.42-.65-.78-1.09-.98-.1-.05-.22-.11-.33-.14-.3-.64-.27-1.47-.8-2.04-.04-.06-.09-.12-.14-.17-.13-.17-.27-.33-.47-.44-.02,0-.04-.01-.04-.03-.04-.68-.09-1.42-.46-2-.02-.04-.05-.11-.1-.13-.44-.54-.71-1.09-.7-1.82-.03-.4,0-.79-.2-1.16-.22-.44-.49-.89-.88-1.19.17-.78.17-1.59-.14-2.34-.06-.18-.12-.35-.2-.51-.12-.49-.42-.94-.82-1.23-.09-.09-.18-.16-.29-.22-.1-.71.09-1.48-.28-2.2-.02-.05-.07-.13-.11-.19,0-.01-.02-.04-.03-.06.22-.71.42-1.49.21-2.22-.03-.19-.1-.35-.14-.52-.06-.5-.33-.97-.68-1.31-.05-.06-.11-.11-.16-.16.08-.88.22-1.25-.15-2.29-.27-.36-.16-1.05-.05-1.48.09-.39.22-.76.13-1.16-.07-.5-.18-1.01-.5-1.41.39-.7.64-1.49.54-2.3,0-.18-.03-.37-.05-.55,0-.49-.2-1.01-.47-1.41-.06-.1-.14-.21-.22-.29.07-.72.48-1.43.29-2.19-.01-.07-.02-.15-.05-.22-.04-.21-.09-.42-.2-.62-.01-.01-.02-.03-.02-.04.3-.62.62-1.29.55-1.98,0-.04,0-.12-.03-.17-.15-.69-.13-1.3.23-1.95.16-.37.36-.7.36-1.13,0-.5-.03-1.02-.25-1.47.52-.62.9-1.34.95-2.16.03-.19.05-.37.05-.55.09-.5.03-1.04-.19-1.47-.04-.12-.09-.23-.16-.33.21-.69.74-1.31.69-2.12,0-.06-.01-.14-.02-.22,0-.01,0-.04,0-.07h-.02c.26-.61.61-1.18.69-1.91.09-.82.04-1.41-.03-1.81-.06-.39-.15-.58-.15-.58-.13-.4-.36-.81-.65-1.09-1.15-1.11-3.1-.63-3.92.91l-.4.79c-.49.68-.53,1.72-.54,2.5l-.07-.02c-.5.75-.57,1.73-.53,2.56,0,.07-.02.35-.02.5-.04.07-.07.14-.1.2-.12.2-.15.49-.3.67-.02.01-.03.04-.04.05-.12.14-.17.31-.24.49-.02.07-.04.16-.05.23-.2.44-.22.98-.23,1.45-.03.28.04.56.12.82,0,.01-.03.06-.04.07-.13.23-.36.44-.44.71-.13.19-.19.43-.24.67,0,.04-.03.1-.02.21-.08.38-.16.81-.13,1.2,0,.3.04.6.14.86.09.28.24.53.23.82-.08.23-.14.49-.25.74l-.02.1c-.03.09-.05.2-.09.38-.19.72-.07,1.52.25,2.15-.53.88-.38,1.99-.17,2.89.01.06.03.35.07.5-.04.06-.06.13-.07.2-.07.26-.08.54-.17.78-.09.16-.11.34-.15.53-.01.07-.02.16-.02.25-.1.46-.02.99.04,1.46.03.29.16.54.28.79-.01.02-.02.06-.02.07-.09.27-.26.5-.29.78-.11.21-.11.48-.12.72-.01.03,0,.09,0,.19-.02.4,0,.84.1,1.22.06.29.16.59.32.83.13.26.34.48.4.77-.07.25-.07.5-.12.79,0,0-.02.11,0,.11-.01.11-.03.21-.02.35v.06c.02.93.34,1.52.61,1.94-.03.23.05.5-.04.73,0,.01,0,.05,0,.06-.07.18-.06.36-.07.55,0,.08,0,.17.02.25-.02.47.15.99.29,1.45.07.21.27.68.46.95-.15.91.22,1.84.62,2.58.03.07.15.33.21.47,0,.08,0,.15,0,.23-.02.24.1.51.04.74,0,.02-.01.05,0,.06-.04.18-.03.36,0,.56.02.07.04.16.06.23.03.49.25.99.45,1.42.1.26.3.48.5.68,0,.01,0,.06,0,.08,0,.27-.11.55-.07.84-.04.23.03.48.09.71.02.04.02.1.07.2.1.38.23.81.44,1.15.14.27.32.52.54.7.21.21.47.36.59.63.03.24.1.5.12.79l.03.1c.01.09.05.21.09.38.17.74.67,1.39,1.27,1.79-.04,1.04.6,1.97,1.26,2.66.04.05.21.3.31.41,0,.07.02.14.04.22.08.26.2.52.24.77,0,.19.6,1.13.6,1.13.27.47.74.85,1.21,1.06.11.05.24.11.36.14.38.67.49,1.55,1.14,2.09.05.05.12.12.18.16.16.16.35.3.57.39.02,0,.04,0,.05.02.19.7.45,1.46,1,1.98.03.04.08.11.14.12.61.45,1.05.93,1.32,1.67.18.39.32.79.66,1.11.4.37.86.72,1.36.86.2.83.63,1.61,1.33,2.19.15.15.3.27.46.39.39.39.92.67,1.44.71.13.03.26.05.38.04.52.57.86,1.36,1.65,1.75.05.03.14.07.21.09.01,0,.04.02.07.04.31.72.73,1.51,1.45,1.95.17.13.34.22.51.33.43.35,1.01.53,1.53.53.08.01.16,0,.24,0,.67.7.89,1.09,2.02,1.49.48.03,1,.58,1.33.92.29.31.56.65.98.82.49.25,1.04.43,1.57.39.44.73,1.08,1.35,1.91,1.68.17.09.37.16.55.23.47.26,1.07.32,1.58.25.12-.02.26-.04.38-.07.67.38,1.23,1.04,2.07,1.17.07.02.16.04.24.05.22.05.45.08.69.04.02,0,.04-.01.05,0,.53.48,1.14,1.01,1.87,1.17.04.02.12.05.18.03.75.07,1.38.24,1.98.76.35.25.67.51,1.13.61.53.11,1.09.21,1.6.06.59.59,1.33,1.1,2.22,1.25.2.05.39.09.59.11.53.15,1.12.13,1.6-.07.13-.04.25-.08.36-.15.73.23,1.4.8,2.28.74.06,0,.15-.01.23-.02.01,0,.05,0,.08,0v-.02c.67.23,1.31.57,2.11.59,1.78.08,2.51-.41,2.51-.41.4-.18.79-.48,1.02-.81.93-1.33.09-3.14-1.43-3.75l-.78-.33c-.68-.41-1.65-.37-2.4-.34l.02-.08c-.72-.47-1.63-.55-2.42-.51-.07,0-.34-.02-.48-.03-.06-.04-.13-.07-.19-.1-.18-.13-.46-.16-.61-.33,0-.02-.03-.04-.05-.04-.12-.13-.28-.2-.44-.28-.07-.02-.14-.05-.21-.07-.39-.22-.89-.29-1.33-.36-.25-.06-.52-.02-.78.03-.01,0-.05-.04-.06-.04-.2-.16-.35-.39-.59-.52-.15-.16-.36-.26-.56-.35-.04-.01-.09-.04-.18-.06-.33-.15-.71-.3-1.07-.33-.27-.06-.55-.08-.81-.04-.27.03-.54.13-.81.05-.18-.14-.4-.26-.6-.43l-.09-.05c-.07-.06-.16-.11-.31-.19-.59-.38-1.33-.48-2-.36-.59-.8-1.59-1.02-2.45-1.18-.06-.01-.32-.1-.46-.13-.03-.06-.09-.1-.15-.14-.2-.15-.43-.29-.58-.47-.09-.15-.23-.25-.37-.37-.05-.04-.12-.09-.2-.13-.33-.29-.8-.45-1.21-.61-.26-.1-.51-.11-.78-.12,0-.02-.04-.05-.05-.06-.17-.21-.26-.46-.46-.63-.11-.2-.32-.33-.5-.45-.02-.03-.07-.05-.15-.1-.3-.22-.63-.43-.97-.56-.25-.1-.53-.18-.8-.18-.27-.03-.55,0-.79-.12-.14-.2-.32-.34-.49-.55,0,0-.07-.07-.07-.06-.07-.07-.13-.15-.23-.22l-.05-.03c-.65-.54-1.22-.68-1.69-.75-.13-.17-.36-.29-.43-.51,0-.01-.03-.03-.04-.04-.06-.16-.18-.28-.3-.42-.05-.05-.1-.11-.17-.16-.28-.33-.69-.58-1.06-.81-.17-.11-.58-.31-.89-.39-.39-.77-1.15-1.23-1.84-1.58-.06-.04-.28-.18-.4-.25-.03-.06-.07-.12-.12-.18-.1-.19-.32-.36-.37-.57,0-.02-.01-.05-.02-.06-.04-.17-.14-.3-.24-.45-.05-.05-.1-.11-.15-.16-.23-.38-.61-.68-.96-.94-.19-.17-.45-.26-.69-.35,0-.01-.02-.06-.03-.07-.09-.23-.1-.52-.23-.74-.05-.21-.18-.4-.31-.57-.03-.03-.05-.08-.13-.14-.2-.29-.44-.61-.73-.82-.19-.19-.44-.33-.68-.43-.24-.11-.52-.16-.71-.36-.09-.21-.21-.42-.29-.67l-.05-.08c-.03-.08-.08-.17-.16-.32-.3-.62-.88-1.07-1.5-1.33-.1-.96-.78-1.69-1.44-2.25-.04-.04-.21-.25-.31-.35.01-.08.52-.99-.82-1.91Z" fill="#f9c316"/>
          <path d="M36.58,75.94c.3-.42.45-.97.44-1.48,0-.12,0-.26-.02-.38.46-.58,1.21-.99,1.47-1.76.03-.07.07-.14.08-.22.09-.2.15-.41.16-.65,0-.02,0-.04,0-.05.58-.4,1.2-.86,1.5-1.53.02-.04.07-.11.06-.17.24-.69.54-1.24,1.17-1.68.32-.27.66-.49.86-.89.24-.46.46-.97.46-1.48.73-.37,1.39-.92,1.79-1.69.11-.17.2-.33.28-.5.3-.44.45-.99.4-1.5,0-.13,0-.25-.03-.38.45-.59,1.18-1.02,1.44-1.82.02-.06.04-.14.06-.22,0-.01.01-.04.03-.07.67-.37,1.39-.84,1.73-1.58.1-.17.18-.35.27-.51.29-.45.42-1.01.38-1.51,0-.08-.01-.16-.02-.23.63-.68,1.01-.88,1.37-1.99,0-.47.53-.99.87-1.31.31-.29.64-.54.8-.95.23-.48.43-1,.39-1.52.74-.41,1.35-1.01,1.7-1.8.09-.16.17-.35.25-.52.26-.45.37-1.02.32-1.52,0-.12-.02-.26-.05-.37.41-.63,1.12-1.11,1.3-1.92.02-.07.05-.15.06-.23.07-.21.11-.43.08-.67,0-.02-.01-.04,0-.05.53-.47,1.11-1,1.33-1.7.02-.04.06-.12.04-.17.16-.71.41-1.3.97-1.82.28-.31.59-.58.74-1.01.18-.49.34-1.03.28-1.54.68-.47,1.29-1.1,1.58-1.93.08-.19.15-.36.2-.55.23-.48.3-1.06.19-1.56-.01-.13-.03-.25-.08-.37.37-.66,1.03-1.19,1.18-2.03.01-.06.02-.15.03-.22,0-.01,0-.05.02-.07h-.02c.36-.6.79-1.14,1-1.9.45-1.68.18-2.49.18-2.49-.08-.43-.27-.86-.53-1.17-1.07-1.23-3.01-.87-4,.49l-.5.7c-.57.58-.74,1.56-.85,2.31l-.07-.03c-.63.62-.9,1.51-1.02,2.3-.02.07-.09.33-.12.47-.05.05-.09.11-.14.17-.16.16-.24.43-.43.56-.02,0-.04.03-.05.04-.15.1-.24.24-.35.39-.03.06-.07.14-.1.2-.29.36-.44.85-.58,1.28-.11.25-.11.52-.11.79,0,0-.04.04-.05.05-.19.17-.45.3-.62.51-.18.13-.31.33-.43.52-.02.04-.05.08-.09.18-.19.31-.4.68-.49,1.04-.1.26-.15.55-.14.83,0,.28.06.56-.06.82-.16.17-.32.38-.52.56l-.06.08c-.06.06-.13.16-.23.29-.44.56-.64,1.3-.58,2-.83.54-1.17,1.54-1.38,2.41-.02.06-.13.31-.16.46-.06.03-.11.09-.15.14-.17.2-.32.42-.51.57-.16.09-.26.22-.38.37-.05.05-.1.12-.14.2-.3.33-.49.8-.67,1.22-.11.26-.13.53-.14.79-.02,0-.05.04-.06.05-.22.17-.48.26-.66.47-.2.11-.34.32-.48.5-.03.02-.05.07-.1.15-.23.31-.44.65-.57,1-.11.26-.18.55-.19.82-.04.27,0,.56-.11.82-.19.15-.33.34-.54.53,0,0-.07.07-.06.08-.07.07-.15.14-.23.24l-.03.05c-.55.69-.65,1.32-.71,1.8-.17.15-.27.4-.49.5,0,0-.03.03-.04.04-.16.08-.27.21-.4.35-.05.05-.1.12-.15.19-.32.32-.52.79-.72,1.2-.09.19-.26.64-.31.96-.72.52-1.11,1.37-1.34,2.14-.03.07-.13.32-.19.45-.06.05-.11.1-.16.15-.18.14-.3.4-.5.5-.02,0-.05.02-.05.03-.16.08-.28.21-.41.34-.04.06-.09.13-.13.18-.35.31-.57.78-.76,1.19-.14.23-.17.51-.21.78-.01,0-.05.04-.06.04-.21.15-.49.24-.68.43-.2.11-.35.29-.5.47-.02.04-.06.08-.11.17-.23.29-.49.62-.63.97-.14.25-.23.53-.25.8-.04.28-.01.57-.16.81-.18.15-.36.34-.57.5l-.07.08c-.07.06-.14.14-.26.27-.5.51-.77,1.24-.8,1.94-.9.45-1.35,1.42-1.64,2.27-.02.05-.16.3-.21.44-.06.02-.12.08-.17.13-.19.18-.36.39-.56.52-.16.08-.73.97-.73.97-.3.41-.45.96-.45,1.47,0,.12,0,.26.02.37-.46.58-1.21.98-1.48,1.74-.03.07-.07.14-.09.22-.09.2-.16.41-.16.65,0,.02,0,.04,0,.05-.58.39-1.21.84-1.52,1.49-.02.04-.07.11-.06.16-.25.68-.56,1.22-1.19,1.65-.32.26-.67.47-.87.87-.25.45-.48.95-.49,1.46-.74.35-1.41.88-1.83,1.63-.11.16-.21.32-.29.49-.31.43-.48.97-.45,1.47-.01.13-.01.25.01.37-.48.57-1.22.96-1.5,1.75-.02.05-.05.14-.07.21,0,.01-.01.04-.03.07-.69.34-1.41.78-1.8,1.48-.11.16-.2.33-.29.49-.31.42-.46,1.01-.44,1.51,0,.08,0,.16,0,.23-.65.67-1.04.87-1.45,1.98-.03.47-.58.98-.92,1.3-.31.29-.65.54-.82.95-.24.48-.45,1.01-.42,1.53-.75.4-1.37,1.01-1.73,1.81-.09.17-.17.36-.25.53-.27.45-.38,1.03-.33,1.54,0,.12.02.26.05.37-.42.63-1.09,1.15-1.27,1.96-.02.07-.05.15-.06.23-.06.21-.1.44-.08.68,0,.02.01.04,0,.05-.52.48-1.12,1.02-1.31,1.74-.02.04-.06.12-.04.18-.14.73-.36,1.33-.92,1.88-.28.32-.59.6-.73,1.03-.16.5-.29,1.06-.21,1.57-.66.51-1.22,1.18-1.5,2.02-.08.19-.14.37-.19.56-.21.5-.25,1.09-.11,1.58.02.13.04.25.1.37-.33.69-.97,1.26-1.05,2.12,0,.06,0,.15,0,.23,0,.01,0,.05-.01.07h.02c-.32.62-.72,1.2-.88,1.97-.18.86-.19,1.48-.13,1.9.05.42.14.61.14.61.12.42.35.85.64,1.13,1.16,1.13,3.09.62,3.92-.81l.45-.72c.53-.61.64-1.59.7-2.34l.07.03c.56-.66.79-1.55.86-2.34.01-.07.07-.33.1-.47.05-.06.09-.12.12-.18.15-.17.21-.44.39-.58.02,0,.04-.03.04-.04.14-.11.23-.25.33-.41.03-.06.06-.14.09-.2.29-.36.42-.85.54-1.28.09-.25.08-.53.06-.79,0,0,.04-.04.05-.05.18-.18.43-.31.59-.53.17-.14.29-.34.4-.54.02-.04.05-.08.08-.18.18-.32.39-.68.47-1.04.09-.26.14-.55.12-.82,0-.28-.08-.56.03-.82.15-.17.3-.38.49-.57l.05-.08c.06-.06.12-.16.21-.3.41-.57.61-1.29.54-1.99.84-.54,1.14-1.54,1.33-2.4.02-.05.13-.31.16-.45.06-.03.11-.08.15-.14.17-.19.32-.41.51-.56.16-.09.26-.22.38-.36.05-.05.1-.12.14-.19.3-.32.49-.79.66-1.21.11-.26.13-.52.15-.78.02,0,.05-.03.06-.05.22-.16.48-.25.66-.45.2-.11.34-.31.48-.49.03-.02.05-.06.1-.15.23-.3.45-.64.58-.98.11-.26.19-.54.19-.81.04-.27,0-.56.13-.8.2-.14.35-.32.56-.5,0,0,.08-.07.06-.07.08-.07.15-.13.23-.23l.03-.05c.56-.66.68-1.28.75-1.76.17-.14.28-.38.5-.47,0,0,.03-.03.04-.04.16-.08.28-.2.42-.33.05-.05.11-.11.16-.18.34-.3.58-.76.79-1.16.1-.19.29-.63.35-.95.74-.49,1.17-1.34,1.44-2.1.03-.07.15-.31.21-.44.06-.04.11-.09.16-.15.19-.13.32-.39.53-.48.02,0,.05-.02.05-.03.17-.08.28-.2.42-.33.04-.06.1-.12.14-.18.36-.31.59-.77.8-1.18.14-.23.19-.51.23-.78.01,0,.05-.04.06-.04.21-.15.5-.23.69-.42.2-.1.36-.29.51-.46.02-.04.07-.07.11-.16.24-.28.51-.62.65-.97.14-.25.24-.53.27-.8.05-.28.03-.57.18-.81.18-.15.36-.34.59-.49l.07-.07c.07-.05.15-.14.27-.27.52-.51.8-1.23.84-1.93.91-.45,1.37-1.42,1.66-2.27.02-.05.16-.3.21-.44.06-.02,1.16.07,1.47-1.63Z" fill="#f9c316"/>
          <path d="M84.73,33.71c.2.48.57.92,1.02,1.18.1.06.22.14.33.18.27.7.24,1.56.77,2.19.04.06.09.13.14.19.13.18.28.35.48.48.02,0,.04.01.04.03.06.71.11,1.5.55,2.09.02.04.06.12.11.14.48.55.81,1.09.88,1.86.07.41.1.82.35,1.2.28.44.6.89,1.05,1.15-.03.82.13,1.67.61,2.4.09.18.19.34.31.49.24.48.65.88,1.11,1.09.11.07.22.13.34.16.29.69.33,1.52.91,2.14.04.04.1.11.16.16,0,.01.03.03.05.06,0,.77.08,1.62.54,2.28.1.18.21.33.32.48.25.47.69.85,1.14,1.05.07.04.15.07.21.1.29.87.3,1.3,1.1,2.15.41.23.6.95.71,1.4.11.4.17.82.45,1.15.31.43.67.85,1.15,1.07,0,.83.22,1.66.73,2.36.1.16.23.32.34.47.26.45.71.81,1.17,1.01.11.05.24.11.35.14.35.66.42,1.51,1.02,2.07.05.05.11.12.17.17.15.16.32.31.54.41.02,0,.04.01.05.02.14.69.31,1.45.79,1.99.02.04.07.11.13.12.53.49.92.99,1.07,1.75.11.4.18.8.47,1.14.32.4.7.81,1.17,1.02.04.82.27,1.64.8,2.32.11.17.22.32.34.46.28.45.72.81,1.19.98.12.06.23.11.35.13.35.66.43,1.49,1.05,2.05.04.04.11.1.17.14,0,.01.03.03.05.05h.02c.28.61.48,1.27.97,1.85,1.11,1.29,1.93,1.52,1.93,1.52.39.17.87.26,1.27.23,1.61-.16,2.47-1.95,1.89-3.55l-.3-.81c-.16-.81-.89-1.51-1.45-2.04l.06-.04c-.17-.87-.8-1.59-1.4-2.13-.05-.05-.23-.25-.33-.36-.02-.07-.04-.14-.07-.21-.05-.22-.24-.44-.25-.67,0-.02,0-.05,0-.06,0-.18-.08-.34-.15-.52-.03-.06-.08-.14-.11-.2-.15-.45-.48-.84-.78-1.19-.16-.22-.4-.37-.63-.51,0-.01-.01-.06-.02-.07-.05-.25-.02-.54-.12-.8-.02-.22-.13-.44-.23-.65-.02-.04-.04-.09-.11-.17-.17-.33-.38-.7-.64-.97-.17-.22-.39-.42-.64-.55-.24-.15-.52-.24-.68-.48-.07-.23-.17-.46-.23-.73l-.04-.09c-.02-.09-.07-.19-.14-.35-.27-.67-.82-1.21-1.45-1.52-.05-1.01-.75-1.8-1.41-2.41-.04-.04-.21-.27-.32-.37,0-.07-.02-.14-.05-.2-.09-.24-.21-.49-.25-.73,0-.18-.07-.34-.13-.52-.03-.07-.06-.15-.1-.22-.14-.43-.46-.83-.73-1.19-.17-.23-.4-.37-.62-.52,0-.02,0-.06-.01-.07-.04-.27,0-.54-.1-.8,0-.23-.12-.45-.21-.66,0-.03-.03-.08-.08-.16-.16-.35-.36-.7-.61-.98-.18-.22-.39-.42-.63-.56-.22-.17-.49-.27-.66-.5-.03-.24-.13-.46-.2-.73,0,0-.03-.1-.04-.09-.03-.1-.05-.2-.11-.31l-.03-.05c-.35-.81-.85-1.2-1.25-1.48-.05-.22-.22-.43-.2-.66,0-.01-.01-.04-.02-.06,0-.18-.05-.34-.11-.52-.02-.07-.05-.15-.09-.22-.12-.43-.42-.84-.69-1.21-.13-.17-.43-.53-.69-.73-.1-.88-.68-1.62-1.23-2.2-.04-.06-.21-.27-.29-.39,0-.07-.03-.14-.05-.21-.03-.22-.2-.45-.18-.68,0-.02,0-.05,0-.06,0-.18-.05-.34-.1-.52-.03-.06-.06-.14-.09-.2-.11-.45-.4-.87-.67-1.24-.14-.23-.36-.4-.58-.55,0-.01,0-.06,0-.07-.03-.25.03-.54-.04-.8,0-.22-.08-.45-.15-.66-.02-.04-.03-.09-.09-.18-.13-.34-.29-.73-.52-1.02-.15-.24-.34-.45-.57-.61-.22-.17-.49-.29-.62-.54-.04-.23-.12-.47-.15-.74l-.03-.09c-.01-.09-.05-.19-.1-.36-.19-.69-.64-1.29-1.23-1.67.08-1-.51-1.86-1.09-2.54-.04-.05-.18-.29-.27-.4.01-.07,0-.14-.02-.2-.05-.25-.13-.51-.13-.75.02-.18-.42-1.12-.42-1.12-.19-.47-.57-.88-.99-1.14-.1-.06-.22-.14-.32-.18-.23-.69-.19-1.51-.65-2.16-.04-.06-.08-.13-.13-.19-.11-.18-.25-.35-.44-.49-.02,0-.03-.02-.04-.03,0-.69,0-1.45-.37-2.06-.02-.04-.05-.12-.1-.14-.41-.58-.71-1.13-.66-1.88-.01-.41.02-.81-.17-1.2-.21-.46-.47-.93-.87-1.23.17-.79.13-1.62-.19-2.39-.06-.19-.12-.36-.2-.52-.13-.5-.45-.95-.85-1.24-.1-.09-.19-.16-.3-.22-.14-.72.02-1.51-.41-2.22-.03-.05-.08-.12-.12-.18,0-.01-.03-.04-.03-.06.19-.73.35-1.54.08-2.27-.05-.19-.12-.35-.17-.53-.11-.5-.42-.96-.8-1.27-.06-.06-.12-.1-.17-.15-.02-.45,0-.76-.04-1.11-.07-.47-.22-1.01-.67-1.7-.44-.43-.76-1.37-1.05-1.96-.25-.53-.53-1.06-1.04-1.44-.61-.49-1.34-.87-2.01-.9-.67-.85-1.8-1.55-3.1-1.63-.28-.04-.58-.03-.86-.04-.78-.06-1.6.21-2.13.6-.13.09-.27.21-.37.31-1,.17-2.2.25-3.05,1.05-.08.07-.17.15-.24.23-.23.2-.43.45-.56.73,0,.02-.01.05-.03.06-.85.4-1.78,1.06-2.21,2.03-.03.05-.09.16-.08.24-.17.49-.3.95-.47,1.4-.09.22-.16.45-.26.67-.05.11-.1.22-.16.34-.05.09-.1.16-.16.23-.22.35-.46.65-.52,1.08-.08.49-.12,1.02.03,1.5-.58.56-1.03,1.25-1.17,2.07-.05.19-.1.36-.13.54-.17.48-.17,1.03,0,1.5.03.13.06.24.12.35-.28.67-.87,1.23-.91,2.05,0,.06,0,.15,0,.22,0,.01,0,.04,0,.07h.02c-.29.6-.72,1.13-.87,1.86-.36,1.62-.05,2.41-.05,2.41.1.41.31.85.57,1.15,1.08,1.22,3.02.88,3.96-.57l.48-.74c.55-.63.72-1.64.77-2.42l.07.03c.57-.69.74-1.65.78-2.48.01-.07.05-.35.07-.49.05-.06.08-.13.12-.19.14-.18.19-.47.37-.63.02,0,.04-.03.04-.05.14-.13.22-.28.31-.45.03-.07.06-.15.08-.22.25-.41.32-.94.38-1.41.06-.27.01-.56-.04-.83,0-.01.04-.05.04-.06.15-.21.39-.39.52-.64.16-.17.25-.4.33-.62.01-.04.04-.1.05-.2.14-.36.28-.77.3-1.16.05-.29.06-.63-.04-.75-.08-.18-.21-.38-.14-.55.11-.11.23-.23.38-.32l.04-.05s.09-.08.18-.15c.34-.26.47-.67.56-1.19.74.04,1.14-.33,1.63-.69.03-.02.2-.08.28-.14.04.04.09.05.13.05.16.03.33.04.47.14.09.09.19.11.29.17.04.02.09.04.13.04.24.13.52.13.79.16.16.03.33-.03.51-.08,0,.02.02.04.03.04.09.17.12.37.21.5.03.15.13.25.21.34,0,.02.03.04.07.07.13.16.26.32.44.42.12.09.27.16.46.21.16.07.4.09.49.24-.02.16,0,.31-.02.48,0,0,0,.06,0,.06,0,.06-.01.12,0,.2v.03c0,.07.02.13.03.19.02.09.05.19.07.28.06.18.12.35.2.5.15.3.32.53.47.73-.01.23.09.49.01.72,0,.01,0,.05,0,.06-.05.18-.03.35-.03.55,0,.07.01.16.03.25,0,.47.2.96.36,1.4.08.21.28.65.49.91-.08.9.32,1.79.75,2.49.03.07.15.32.22.45,0,.08,0,.15.01.22-.01.23.11.5.05.73,0,.02-.01.05,0,.06-.04.18-.02.36,0,.55.02.07.04.16.05.23.01.49.25.96.47,1.38.1.26.3.47.49.66,0,.01,0,.06,0,.08,0,.26-.11.54-.07.82-.03.23.02.47.07.7.01.04.02.1.07.19.09.37.2.79.4,1.13.12.27.29.52.5.7.21.2.46.36.58.62.02.24.08.5.09.77l.02.1c0,.09.04.2.07.38.14.72.58,1.38,1.14,1.82-.14,1.03.43,1.96,1,2.67.04.05.17.3.27.42-.01.07-.68.95.6,2.15Z" fill="#f9c316"/>
          <path d="M141.21,53.09c.14-.27.09-.63-.07-.96-.04-.08-.08-.17-.14-.25.22-.37.75-.63.73-1.13,0-.04.01-.09,0-.14.01-.13,0-.27-.08-.43,0-.01-.02-.03-.01-.03.38-.25.79-.54.85-.97,0-.02.03-.07,0-.11-.01-.44.08-.8.5-1.08.2-.17.43-.31.48-.57.06-.3.09-.63-.07-.96.54-.23.95-.58,1.06-1.07.04-.11.07-.21.09-.32.13-.28.08-.64-.11-.96-.04-.09-.08-.16-.15-.24.23-.37.74-.64.71-1.16,0-.04,0-.09-.02-.14,0,0,0-.03,0-.04.49-.23.97-.54,1.06-1,.04-.11.05-.22.08-.33.12-.28.06-.64-.13-.96-.02-.05-.06-.1-.09-.15.36-.43.64-.56.62-1.26-.15-.3.18-.63.39-.83.19-.18.42-.34.44-.6.06-.3.08-.63-.11-.96.54-.26.94-.63,1.03-1.12.04-.1.05-.22.07-.33.12-.28.03-.64-.17-.96-.04-.08-.1-.16-.16-.24.05-.1.11-.19.19-.28.07-.08.16-.22.2-.19.09-.02.14-.02.06-.11,0-.01-.02-.03-.04-.05-.03-.04-.07-.1-.18-.22-.01-.01-.02-.02-.02-.02.25.06.48.26.41.11,0,0,0,0-.02-.05-.11-.23-.11-.41.09-.08.09.13.19.36.17.28-.06-.24-.12-.47-.2-.76.24.66.36,1.22.33,1.09v-.07c-.06-.33-.1-.67-.16-1.09-.02-.19-.04-.36-.07-.57.04.09.15.92.13.68,0-.04,0-.09,0-.14,0-.05,0-.13-.01-.2,0,0,0-.03,0-.04v-.06c.04.28.08.9.07.6,0-1.77-.01-2.79-.01-2.79,0-1.05.01-2.34.02-3.6-.01-2.83-.03-5.69-.04-8.32-.04-1.35-.13-2.74-.26-4.09-.13-1.35-.3-2.67-.49-3.69l-.41-2.24c-.22-1.48-.44-2.35-.61-2.71-.18-.37-.31-.22-.41.06l-.05-.64c-.15-.99-.29-1.79-.41-2.4-.1,2.18-.05,6.43.02,9.84,0,.19,0,.64.01,1.13,0,.12,0,.25,0,.37v.18c0,.11,0,.21-.01.3-.03-.02-.05.02-.07.07-.09-.05-.11.58-.23.36-.01-.04-.03-.05-.03-.03-.09-.16-.14.02-.2.16-.01.11-.03.24-.05.34-.16.3-.2,1.53-.23,2.56-.04.53,0,1.39.04,2.16,0,0-.02.03-.03.04-.11.11-.27-.03-.35.33-.11.08-.17.48-.22.85,0,.08-.03.16-.03.39-.09.62-.18,1.43-.19,2.3-.03.6-.02,1.29.03,1.92.02.28.04.58.07.86,0,.2,0,.38-.03.52-.11.14-.21.34-.35.49l-.04.08c-.04.06-.09.16-.16.3-.31.59-.41,1.53-.26,2.29-.66.45-.94,1.9-.8,2.22,0,.03-.02.2-.01.29-.05.02-.07.05-.1.09-.1.12-.17.26-.3.35-.12.06-.18.14-.25.22-.03.03-.06.08-.07.12-.19.2-.22.5-.26.76-.03.16.04.33.11.5-.02,0-.04.02-.04.03-.15.1-.35.16-.45.29-.15.07-.21.2-.28.31-.02.01-.03.04-.05.09-.11.19-.2.41-.21.63-.02.17,0,.34.08.52.05.17.18.36.16.52-.13.09-.2.21-.33.33,0,0-.05.04-.03.05-.04.04-.09.09-.13.15v.03c-.29.43-.19.83-.09,1.13-.11.09-.12.25-.29.31,0,0-.02.02-.02.03-.12.05-.18.13-.25.22-.03.03-.06.07-.07.12-.19.2-.23.49-.27.75-.02.12-.03.4.04.61-.48.32-.54.87-.51,1.35,0,.04-.02.2-.03.28-.04.03-.07.06-.09.09-.12.08-.14.25-.3.31-.02,0-.03.01-.04.02-.12.05-.18.13-.26.21-.02.04-.04.08-.06.12-.21.2-.25.49-.29.75-.04.15.01.33.07.5,0,0-.03.02-.04.03-.14.09-.36.14-.46.27-.14.07-.22.18-.29.29,0,.02-.03.05-.04.11-.12.18-.23.4-.24.62-.04.16-.03.34.04.51.05.18.17.37.12.52-.11.09-.21.21-.35.31l-.03.05s-.08.09-.14.17c-.28.32-.29.78-.08,1.24-.65.27-.73.89-.7,1.44,0,.03-.04.19-.04.28-.05.01-.08.05-.11.08-.11.11-.2.24-.33.32-.12.04-.33.61-.33.61-.13.26-.09.62.08.95.04.08.08.17.14.25-.22.36-.75.6-.74,1.09,0,.04-.01.09,0,.14-.01.13,0,.27.07.42,0,.01.02.03.01.03-.38.24-.81.5-.87.91-.01.02-.03.07,0,.1,0,.44-.11.78-.54,1.03-.21.15-.44.28-.5.53-.08.29-.13.6.02.94-.54.19-.97.5-1.12.96-.05.1-.09.2-.11.31-.15.26-.13.61.04.95.03.09.06.17.13.25-.25.35-.78.55-.8,1.06,0,.03,0,.09,0,.14,0,0,0,.03,0,.04-.51.17-1.01.41-1.15.85-.05.1-.08.21-.12.3-.15.26-.13.62.02.95.02.05.05.11.07.15-.4.37-.69.46-.75,1.15.11.31-.26.58-.49.74-.21.15-.45.27-.51.51-.11.28-.18.6-.03.95-.57.16-1.01.44-1.18.91-.05.09-.08.2-.12.3-.15.25-.14.61,0,.95.03.08.07.18.12.26-.25.34-.79.54-.83,1.03,0,.04-.02.09-.02.14-.03.12-.03.26.03.42,0,.01.02.03.01.03-.41.2-.85.43-.94.84-.01.02-.04.06-.01.1-.04.44-.17.77-.61.99-.22.14-.46.24-.54.49-.1.28-.17.59-.06.94-.57.15-1.02.42-1.21.87-.06.1-.1.19-.13.3-.17.25-.18.6-.03.95.02.09.05.17.11.26-.28.33-.83.5-.88,1,0,.03,0,.09,0,.14,0,0,0,.03,0,.04h.02c-.29.28-.66.5-.8.92-.32.93-.03,1.53-.03,1.53.09.3.29.63.54.91,1,1.1,2.78,1.48,3.61.85l.43-.32c.5-.22.61-.82.68-1.28l.07.04c.54-.24.7-.78.75-1.27.01-.04.05-.2.08-.28.04-.02.08-.05.11-.08.13-.07.18-.23.35-.27.02,0,.04,0,.04-.01.13-.03.2-.1.29-.18.02-.03.05-.07.08-.11.24-.17.34-.46.42-.72.07-.14.04-.33.01-.51,0,0,.04-.02.04-.02.15-.07.38-.1.51-.21.15-.05.25-.16.33-.26.01-.02.04-.04.06-.1.14-.17.29-.37.33-.6.06-.16.07-.34.03-.53-.03-.19-.13-.39-.05-.54.12-.08.23-.19.39-.28l.04-.04s.09-.08.17-.15c.32-.29.39-.76.24-1.24.69-.21.84-.83.87-1.38,0-.04.06-.19.07-.28.05-.01.08-.04.11-.07.12-.1.22-.23.36-.3.13-.04.2-.11.28-.19.03-.03.07-.07.09-.11.22-.17.3-.47.39-.72.06-.16.02-.34-.02-.52.02,0,.04-.02.04-.02.17-.08.38-.11.5-.22.16-.05.24-.17.33-.27.02,0,.04-.04.06-.09.14-.18.26-.39.31-.61.04-.17.05-.35,0-.53-.02-.18-.13-.38-.07-.54.14-.07.23-.19.38-.29,0,0,.05-.04.04-.05.05-.04.1-.08.15-.14l.02-.03c.33-.41.28-.82.23-1.14.12-.08.16-.24.33-.28,0,0,.02-.02.03-.02.13-.04.2-.11.28-.19.03-.03.07-.07.09-.11.22-.18.29-.47.36-.74.03-.12.07-.41.03-.62.51-.28.64-.83.66-1.33,0-.04.04-.2.05-.29.04-.03.07-.06.1-.09.13-.08.17-.24.32-.29.02,0,.04-.01.04-.02.12-.04.19-.12.28-.2.02-.04.05-.08.07-.11.23-.19.3-.48.36-.75.06-.15.01-.33-.03-.51,0,0,.03-.02.04-.03.14-.09.37-.13.49-.25.15-.06.23-.18.31-.28.01-.02.04-.05.05-.11.13-.18.26-.39.28-.62.05-.16.05-.35-.01-.53-.04-.19-.16-.38-.1-.54.12-.09.22-.21.37-.31l.04-.05s.09-.09.15-.17c.3-.32.34-.79.14-1.26.66-.27.76-.9.75-1.46,0-.04.05-.2.04-.29.05-.01,1.06.08.79-1.04Z" fill="#f9c316"/>
          <path d="M167.36,74.49c.22.45.65.82,1.1,1.04.11.05.23.11.34.15.3.66.32,1.49.87,2.06.04.05.1.12.15.17.14.16.29.31.5.42.02,0,.04.01.04.02.09.68.2,1.43.64,1.98.02.04.06.11.12.13.49.5.85,1,.95,1.74.09.4.13.79.39,1.13.3.41.64.82,1.09,1.04,0,.81.17,1.62.66,2.3.1.17.2.32.31.46.25.45.67.81,1.14.99.11.06.22.11.34.14.31.65.35,1.47.94,2.04.04.04.11.1.16.14,0,.01.03.03.05.05.02.75.11,1.57.57,2.2.1.17.21.31.32.46.26.44.69.8,1.15.97.07.04.14.06.21.08.3.84.31,1.26,1.11,2.05.41.2.6.9.72,1.33.1.39.16.8.44,1.11.3.42.67.81,1.14,1,.01.81.22,1.61.73,2.27.1.15.22.3.33.45.25.43.69.77,1.15.96.11.05.23.1.35.13.34.64.41,1.46,1,1.99.05.05.1.11.16.16.15.15.31.29.53.38.02,0,.04,0,.05.02.13.67.29,1.41.77,1.92.02.03.07.1.12.12.52.47.9.95,1.04,1.68.11.39.17.78.45,1.11.32.39.68.78,1.14.97.03.8.25,1.6.77,2.25.11.16.21.31.33.44.27.44.7.78,1.16.94.12.06.22.1.35.12.34.64.41,1.45,1.02,1.99.04.04.11.09.17.14,0,.01.03.03.05.05h.02c.27.59.45,1.23.94,1.79,1.08,1.25,1.89,1.46,1.89,1.46.39.16.85.25,1.25.2,1.6-.18,2.47-1.95,1.92-3.5l-.28-.79c-.15-.79-.85-1.47-1.4-1.97l.06-.04c-.16-.85-.77-1.54-1.36-2.06-.05-.05-.23-.25-.32-.35-.02-.07-.04-.14-.07-.2-.05-.22-.23-.43-.23-.65,0-.02,0-.05,0-.06,0-.18-.07-.33-.14-.5-.03-.06-.07-.13-.11-.19-.14-.44-.47-.82-.76-1.15-.15-.21-.39-.36-.62-.49,0-.01-.01-.06-.02-.07-.05-.25-.01-.53-.11-.78-.02-.22-.12-.43-.22-.63-.02-.03-.04-.09-.11-.16-.16-.32-.37-.68-.63-.94-.17-.22-.39-.4-.63-.53-.23-.14-.51-.23-.67-.45-.06-.22-.16-.45-.22-.71l-.04-.09c-.02-.08-.07-.18-.14-.34-.26-.65-.8-1.17-1.43-1.46-.05-.98-.75-1.74-1.39-2.33-.04-.04-.21-.26-.32-.35,0-.07-.02-.13-.05-.2-.09-.24-.2-.47-.24-.71,0-.18-.07-.33-.13-.5-.03-.06-.06-.14-.1-.21-.14-.42-.46-.8-.74-1.14-.17-.22-.4-.35-.62-.49,0-.02,0-.06-.01-.07-.04-.27,0-.53-.1-.78,0-.23-.12-.44-.22-.64,0-.03-.03-.08-.08-.16-.16-.34-.36-.68-.6-.95-.18-.21-.39-.4-.63-.53-.22-.15-.49-.24-.66-.46-.04-.24-.14-.45-.21-.71,0,0-.03-.1-.04-.09-.03-.1-.06-.19-.11-.3l-.03-.05c-.36-.78-.86-1.14-1.26-1.4-.05-.21-.22-.41-.21-.64,0-.01-.01-.04-.02-.05,0-.18-.06-.33-.12-.5-.02-.07-.05-.14-.1-.21-.13-.42-.44-.81-.71-1.16-.13-.16-.44-.5-.7-.68-.12-.85-.7-1.56-1.27-2.1-.05-.05-.22-.25-.31-.36-.01-.07-.04-.14-.06-.2-.04-.22-.21-.43-.21-.66,0-.02,0-.05,0-.06,0-.18-.06-.33-.12-.5-.03-.06-.07-.14-.1-.2-.12-.44-.42-.83-.7-1.18-.14-.22-.37-.37-.59-.51,0-.01,0-.06-.01-.07-.04-.25.02-.53-.07-.78,0-.22-.1-.43-.18-.64-.02-.04-.04-.09-.1-.17-.14-.33-.33-.7-.57-.97-.16-.22-.37-.42-.6-.56-.23-.15-.5-.25-.65-.48-.05-.22-.14-.46-.18-.72l-.03-.09c-.02-.08-.06-.19-.11-.34-.21-.66-.71-1.21-1.32-1.54.02-.98-.62-1.78-1.23-2.4-.04-.04-.19-.27-.29-.37,0-.07-.01-.13-.03-.2-.07-.24-.17-.48-.2-.72,0-.17-.5-1.06-.5-1.06-.22-.44-.62-.81-1.06-1.03-.1-.05-.22-.11-.33-.15-.28-.66-.28-1.48-.81-2.04-.04-.05-.09-.12-.15-.17-.13-.16-.28-.32-.49-.43-.02,0-.04-.01-.04-.02-.07-.67-.16-1.41-.55-1.97-.02-.04-.05-.11-.11-.13-.46-.52-.77-1.04-.82-1.77-.06-.4-.07-.78-.31-1.14-.26-.42-.57-.84-1.01-1.09.08-.79-.05-1.59-.45-2.3-.08-.17-.16-.33-.26-.48-.2-.46-.57-.86-1-1.08-.11-.07-.21-.13-.32-.17-.23-.67-.17-1.48-.69-2.1-.03-.04-.09-.11-.14-.16,0-.01-.03-.03-.04-.06.08-.74.07-1.53-.28-2.21-.07-.18-.16-.33-.24-.49-.18-.47-.55-.87-.96-1.11-.06-.05-.13-.08-.19-.11-.16-.86-.1-1.27-.75-2.16-.37-.26-.44-.97-.48-1.4-.04-.4-.03-.79-.23-1.15-.21-.46-.48-.91-.9-1.18.16-.79.12-1.6-.23-2.33-.06-.17-.15-.33-.23-.49-.16-.46-.51-.88-.92-1.15-.1-.07-.21-.14-.31-.19-.21-.68-.05-1.49-.49-2.13-.03-.06-.07-.13-.12-.19-.1-.18-.23-.35-.41-.49-.02,0-.03-.02-.04-.03.04-.67.08-1.41-.25-2.02-.01-.04-.04-.12-.09-.14-.39-.57-.62-1.13-.57-1.85,0-.2,0-.39,0-.58-.04-.31-.11-.67-.23-1.02-.28-.82-.61-1.66-1.02-2.12.05-1.4-.15-3.08-.6-4.45-.09-.34-.19-.64-.29-.92-.23-.91-.6-1.59-.95-1.72-.09-.07-.17-.12-.26-.09-.26-1.15-.42-3.48-.9-4.5-.03-.08-.08-.17-.13-.24,0-.03-.03-.05-.04-.1v.05c-.27-1.48-.52-3.29-.91-4.47-.87-2.62-1.17-1.58-1.17-1.58-.17.25-.32,1.04-.39,2.19-.07,1.15-.09,2.58-.08,4.09,0,.76.02,1.51.03,2.27.02.7.03,1.4.05,2.11.07,2.76.13,4.98.18,5.96l.05.98c0,1.2.1.85.24.75l-.03.18c-.04,1.1,0,.88.24.99.02.02.08.08.11.12,0,.08,0,.14,0,.19-.02.23.04.31,0,.57,0,.03-.01.06,0,.06-.04.2-.04.31-.04.44,0,.04.01.08.02.11-.03.34.06.46.17.59.04.1.16.1.29.12,0,0-.01.04-.01.05-.05.19-.17.41-.19.55-.07.14-.07.24-.07.34,0,.02,0,.04.02.07,0,.07,0,.15.02.22,0,.04.02.06.04.1.04.09.08.18.13.26.11.26.28.5.48.69.19.2.44.36.54.62,0,.23.05.48.04.75l.02.1c0,.09.02.2.05.37.09.71.49,1.36,1.03,1.8-.18.98.28,1.92.81,2.63.03.05.15.3.24.42-.02.07,0,.14,0,.21.04.25.1.51.1.75-.03.18,0,.34.03.53.01.07.03.15.06.23.05.44.29.89.5,1.29.12.25.32.43.51.61,0,.02,0,.06,0,.07-.01.27-.1.53-.05.8-.04.23.03.47.09.69,0,.03.02.08.05.18.1.37.22.76.43,1.07.14.24.32.47.54.64.19.19.45.33.58.58,0,.24.07.47.09.75,0,0,.01.1.03.1.01.1.03.2.06.32l.02.05c.23.84.68,1.29,1.03,1.62.02.22.16.45.11.68,0,.01,0,.04,0,.06-.03.18.01.34.05.53.01.07.03.15.07.23.07.44.32.88.56,1.27.11.18.39.56.63.78.03.87.53,1.66,1.04,2.27.04.06.19.28.27.4,0,.07.02.14.04.21.01.22.17.46.14.69,0,.02,0,.05,0,.06-.02.18.02.34.06.52.03.07.06.14.08.21.08.46.34.89.6,1.26.13.23.35.41.56.57,0,.01,0,.06,0,.07.02.25-.05.53.02.79-.01.22.07.45.14.66.02.04.03.09.09.18.12.34.28.73.51,1.02.15.24.34.46.56.61.22.17.48.29.62.54.04.23.11.47.14.74l.03.09c.01.09.05.19.1.36.18.69.69,1.26,1.29,1.61-.04.99.59,1.83,1.2,2.47.04.04.19.28.29.38-.01.07-.61.98.73,2.02Z" fill="#f9c316"/>
          <path d="M227.03,170.4c.19.45.54.85.96,1.09.1.06.21.13.31.17.22.67.13,1.47.61,2.08.04.06.08.13.13.18.11.17.25.33.45.46.02,0,.03.02.04.03,0,.66-.05,1.4.29,1.99.01.04.04.11.09.14.39.56.64,1.1.59,1.82,0,.39-.01.76.15,1.14.18.44.41.9.78,1.2-.21.76-.25,1.54.04,2.28.05.18.11.34.18.5.1.48.36.92.73,1.22.09.09.17.17.28.22.08.69-.16,1.43.2,2.13.02.05.07.12.11.18,0,.01.02.04.03.06-.24.67-.53,1.42-.35,2.12.02.18.07.34.1.51.05.48.29.94.63,1.28.05.06.11.11.15.16-.1.84-.34,1.18-.03,2.19.25.35.08,1.01-.04,1.41-.11.36-.24.7-.2,1.11.02.5.1,1.01.38,1.42-.45.66-.72,1.41-.67,2.21,0,.17.01.36.02.54-.03.48.1.99.36,1.4.06.1.13.21.2.3-.11.69-.55,1.37-.4,2.12,0,.07.01.15.03.22.02.2.07.41.19.61.01.01.02.03.02.04-.3.59-.68,1.23-.64,1.91,0,.04-.02.12.02.16.1.67.07,1.27-.29,1.89-.17.35-.36.67-.38,1.09-.03.48-.03.99.17,1.43-.53.58-.91,1.28-.98,2.07-.03.18-.05.35-.06.53-.12.47-.08,1,.14,1.43.04.12.08.22.15.32-.23.66-.76,1.24-.73,2.03,0,.06,0,.14.02.21,0,.01,0,.04,0,.07h.02c-.25.59-.63,1.12-.73,1.82-.24,1.57.13,2.31.13,2.31.13.4.36.8.63,1.08,1.11,1.13,3.09.75,3.91-.73l.43-.75c.5-.64.59-1.65.6-2.41l.07.02c.51-.71.6-1.66.58-2.47,0-.07.02-.34.03-.49.04-.06.07-.13.1-.19.13-.19.15-.47.32-.64.02-.01.04-.04.04-.05.12-.13.2-.29.27-.47.02-.07.04-.15.05-.22.2-.42.23-.94.25-1.4.04-.27-.03-.54-.11-.8,0-.01.03-.05.04-.06.14-.22.36-.41.46-.67.14-.18.21-.41.28-.63,0-.04.03-.1.04-.2.11-.36.2-.78.17-1.16.01-.29-.03-.58-.13-.84-.08-.27-.24-.52-.21-.8.1-.22.17-.46.29-.7l.03-.1c.04-.08.07-.19.11-.36.22-.69.17-1.46-.17-2.09.56-.82.48-1.89.31-2.77,0-.06-.01-.34-.04-.48.04-.05.06-.12.08-.19.07-.25.12-.52.23-.74.11-.15.14-.32.18-.5.02-.07.03-.15.04-.24.12-.43.07-.95.04-1.4-.02-.28-.13-.53-.24-.77.01-.01.03-.06.03-.07.11-.25.29-.46.36-.73.13-.2.15-.45.18-.68.01-.03.02-.09.02-.18.06-.38.08-.79,0-1.18-.05-.29-.14-.59-.28-.84-.12-.26-.31-.49-.35-.78.08-.24.1-.49.17-.77,0,0,.02-.1,0-.1.02-.1.05-.21.05-.34v-.06c.03-.46-.01-.84-.1-1.16-.11-.31-.25-.57-.38-.78.04-.22-.03-.49.07-.71,0-.01,0-.05,0-.06.07-.17.08-.35.09-.54,0-.07,0-.16,0-.25.05-.46-.08-.98-.2-1.43-.06-.21-.19-.68-.4-.95.16-.88-.17-1.79-.54-2.52-.03-.07-.13-.33-.18-.46.01-.08,0-.15,0-.22.03-.23-.07-.5,0-.73.01-.02.02-.05.01-.06.06-.18.05-.35.03-.54-.02-.07-.03-.16-.05-.22,0-.47-.22-.96-.4-1.38-.09-.26-.27-.48-.45-.68,0-.01,0-.06,0-.08.02-.26.14-.53.11-.81.05-.22,0-.47-.03-.7-.01-.04-.02-.1-.06-.19-.06-.38-.18-.79-.38-1.12-.12-.26-.29-.51-.5-.7-.2-.2-.45-.36-.56-.62-.01-.24-.06-.49-.06-.77l-.02-.1c0-.09-.03-.2-.06-.37-.11-.72-.52-1.38-1.1-1.79.12-.99-.44-1.91-.98-2.61-.03-.05-.17-.3-.26-.41.01-.07,0-.14-.01-.21-.05-.26-.13-.52-.13-.76.03-.19-.45-1.12-.45-1.12-.2-.47-.6-.88-1.03-1.12-.1-.06-.22-.13-.33-.17-.26-.68-.22-1.53-.74-2.14-.04-.06-.09-.13-.14-.18-.13-.17-.29-.33-.49-.44-.02,0-.04-.01-.04-.03-.07-.68-.15-1.44-.58-2.01-.02-.04-.06-.11-.11-.13-.48-.53-.8-1.05-.87-1.81-.07-.41-.1-.8-.36-1.16-.29-.42-.63-.84-1.07-1.07.03-.81-.14-1.63-.61-2.33-.09-.17-.19-.33-.3-.47-.23-.46-.66-.83-1.12-1.02-.11-.06-.22-.12-.34-.14-.3-.66-.33-1.48-.92-2.06-.04-.04-.1-.1-.16-.15,0-.01-.03-.03-.05-.05,0-.75-.08-1.58-.55-2.21-.1-.17-.22-.31-.32-.46-.26-.45-.69-.81-1.14-.99-.07-.04-.14-.06-.21-.09-.29-.84-.3-1.26-1.1-2.07-.41-.21-.59-.91-.71-1.34-.1-.39-.17-.79-.45-1.11-.31-.41-.67-.81-1.14-1.01,0-.81-.22-1.62-.73-2.28-.1-.15-.22-.3-.33-.45-.26-.43-.7-.77-1.16-.95-.11-.05-.24-.1-.35-.12-.34-.63-.42-1.46-1.01-1.99-.05-.05-.1-.11-.16-.16-.15-.15-.31-.29-.53-.38-.02,0-.04,0-.05-.02-.13-.67-.29-1.41-.77-1.93-.02-.03-.07-.1-.12-.12-.53-.47-.9-.95-1.05-1.68-.11-.39-.17-.78-.45-1.11-.32-.39-.68-.78-1.14-.97-.03-.8-.25-1.6-.77-2.25-.11-.16-.22-.3-.34-.44-.27-.43-.7-.78-1.17-.94-.12-.06-.22-.1-.35-.12-.34-.64-.41-1.45-1.02-1.99-.04-.04-.11-.09-.17-.14,0-.01-.03-.03-.05-.05h-.02c-.27-.59-.45-1.23-.94-1.79-1.08-1.25-1.89-1.45-1.89-1.45-.39-.16-.85-.25-1.25-.2-1.6.18-2.47,1.95-1.92,3.5l.28.79c.15.79.85,1.47,1.41,1.97l-.06.04c.16.85.77,1.54,1.36,2.06.05.05.23.25.32.35.02.07.04.14.07.2.05.22.23.43.24.65,0,.02,0,.05,0,.06,0,.18.07.33.14.5.03.06.08.13.11.19.14.43.47.81.77,1.15.16.21.39.35.62.49,0,.01.01.06.02.07.05.25.01.53.11.78.02.22.12.43.22.63.02.03.04.09.11.16.16.32.37.68.63.94.17.22.39.4.63.53.24.14.51.23.67.45.06.22.17.45.22.71l.04.09c.02.08.07.18.14.34.27.65.8,1.17,1.42,1.45.05.98.74,1.75,1.39,2.32.04.04.21.26.32.35,0,.07.02.13.05.2.09.24.21.47.25.71,0,.18.07.33.13.5.03.06.06.14.1.21.14.42.45.8.73,1.15.17.22.39.35.62.49,0,.02,0,.06.01.07.04.27,0,.53.1.78,0,.23.12.44.21.64,0,.03.03.08.08.16.16.33.36.68.61.94.18.21.39.4.63.53.22.16.49.25.65.47.03.24.13.45.2.71,0,0,.03.1.04.09.03.1.05.19.11.3l.03.05c.35.78.85,1.15,1.24,1.41.05.21.22.41.2.64,0,.01.01.04.02.05,0,.18.06.33.12.5.02.07.05.14.1.21.13.42.43.81.7,1.16.13.16.43.51.69.69.11.85.67,1.56,1.24,2.11.04.05.21.25.3.36.01.07.03.14.06.2.03.22.21.43.2.66,0,.02,0,.05,0,.06,0,.18.05.33.1.51.03.06.06.14.09.2.1.44.4.84.66,1.19.14.22.36.38.57.52,0,.01,0,.06,0,.07.03.25-.03.53.05.78,0,.22.09.43.17.63.02.04.03.09.09.17.13.33.31.69.54.97.15.23.34.43.56.58.22.16.48.27.61.51.04.22.11.46.14.72l.03.09c.01.08.05.19.1.34.19.66.67,1.22,1.26,1.57-.06.97.49,1.8,1.06,2.45.03.04.17.28.26.38-.01.07-.67.92.6,1.98Z" fill="#f9c316"/>
          <path d="M196.23,265.24c-.42.23-.76.65-.95,1.1-.05.11-.1.23-.13.34-.63.31-1.45.28-2,.82-.05.04-.12.09-.16.15-.16.13-.31.28-.41.49,0,.02-.01.04-.02.04-.66.07-1.38.15-1.94.53-.04.02-.11.05-.13.11-.51.45-1.03.75-1.75.78-.39.05-.76.07-1.12.27-.42.23-.85.52-1.11.93-.78-.12-1.57-.05-2.28.32-.18.07-.33.14-.49.22-.47.16-.88.5-1.13.91-.08.1-.14.19-.19.31-.68.18-1.45.07-2.11.49-.05.03-.12.08-.17.12-.01,0-.03.03-.06.03-.72-.16-1.5-.27-2.19.04-.18.06-.33.14-.49.2-.48.12-.91.43-1.2.82-.05.06-.09.12-.13.17-.86.05-1.25-.07-2.2.47-.31.32-1.01.28-1.44.24-.39-.03-.78-.1-1.15.05-.47.15-.94.37-1.28.73-.75-.29-1.54-.39-2.31-.17-.17.03-.35.09-.52.14-.47.08-.94.35-1.28.69-.08.08-.18.17-.24.26-.7.05-1.46-.23-2.15.09-.06.02-.14.05-.2.08-.19.07-.38.17-.55.32-.01.01-.02.03-.04.03-.65-.18-1.35-.38-2-.18-.04,0-.12.01-.16.06-.63.25-1.22.39-1.91.15-.38-.09-.74-.23-1.15-.15-.48.09-.97.21-1.36.52-.69-.35-1.46-.58-2.25-.49-.19,0-.36.02-.53.05-.49,0-.99.18-1.36.5-.11.07-.2.14-.28.23-.7-.05-1.39-.46-2.15-.26-.05.01-.13.04-.2.06-.01,0-.04.01-.07.01v.02c-.63-.12-1.24-.3-1.95-.24-1.59.14-2.22.67-2.22.67-.35.22-.69.54-.89.89-.82,1.39.05,3.14,1.67,3.61l.83.24c.74.36,1.73.14,2.47-.03v.08c.81.34,1.75.23,2.53.01.07-.01.34-.06.48-.09.07.02.14.04.21.05.21.07.49.03.69.14.01.01.04.03.06.03.16.09.33.11.51.15.07,0,.16,0,.23,0,.46.11.97.03,1.42-.05.27-.02.52-.16.75-.29.01,0,.06.02.07.02.24.08.48.25.75.28.2.09.45.1.68.11.04,0,.1,0,.2-.01.37.01.8.01,1.16-.09.28-.05.56-.14.79-.3.24-.15.45-.36.73-.4.23.04.49.05.75.12h.1c.09.02.2.02.37.03.72.05,1.45-.19,1.99-.64.93.36,1.95.03,2.77-.33.05-.02.33-.09.46-.15.06.03.13.03.21.04.26.02.53,0,.77.04.17.06.34.06.53.06.07,0,.16,0,.24-.02.45.02.94-.14,1.38-.28.27-.08.49-.24.7-.4.02.01.06.02.07.01.27.05.52.19.79.18.22.07.47.03.7,0,.03,0,.09,0,.18-.03.38-.05.79-.13,1.13-.28.27-.1.53-.25.73-.43.22-.16.4-.39.67-.48.24.04.48,0,.76,0,0,0,.1,0,.1-.01.1,0,.2,0,.33-.02l.05-.02c.88-.13,1.39-.52,1.76-.83.22,0,.47-.1.7-.03.01,0,.04,0,.06,0,.18.05.35.03.54,0,.07,0,.16-.02.24-.05.45-.03.92-.25,1.34-.45.2-.09.61-.32.86-.54.89.07,1.74-.37,2.4-.85.06-.04.3-.17.43-.24.08,0,.15-.01.22-.02.23,0,.48-.14.71-.09.02,0,.05.01.06,0,.18.03.35,0,.54-.03.07-.02.15-.05.22-.07.47-.04.92-.31,1.32-.55.24-.12.44-.33.61-.53.01,0,.06,0,.08,0,.26,0,.54.07.81.02.23.02.46-.05.68-.11.04-.02.1-.03.19-.08.36-.1.76-.26,1.07-.49.25-.15.47-.34.64-.57.18-.22.31-.48.56-.62.23-.04.48-.11.76-.14l.1-.03c.09-.01.2-.05.36-.1.71-.17,1.29-.71,1.65-1.31,1,.02,1.88-.61,2.51-1.26.04-.04.28-.21.38-.31.07,0,.14-.02.2-.04.25-.08.49-.2.74-.24.18,0,1.08-.57,1.08-.57.45-.25.82-.68,1.01-1.16.05-.11.1-.24.13-.35.64-.36,1.49-.45,2.03-1.05.05-.05.12-.11.16-.17.16-.15.3-.32.39-.54,0-.02,0-.04.02-.05.67-.17,1.41-.38,1.92-.9.03-.03.1-.08.11-.13.45-.56.94-.95,1.67-1.17.38-.15.77-.26,1.09-.58.37-.36.74-.77.89-1.26.82-.11,1.6-.46,2.19-1.09.15-.13.28-.27.4-.41.41-.34.7-.83.79-1.32.04-.12.07-.24.07-.36.59-.45,1.38-.7,1.82-1.41.03-.05.07-.13.11-.2.01-.01.02-.04.04-.06.73-.21,1.56-.48,2.04-1.13.14-.15.25-.3.36-.45.37-.38.61-.91.67-1.4.02-.08.02-.16.03-.23.75-.53,1.17-.66,1.69-1.7.08-.46.69-.88,1.07-1.13.35-.23.72-.43.95-.8.3-.44.55-.94.58-1.46.77-.31,1.46-.81,1.92-1.55.11-.15.22-.32.31-.49.3-.42.46-.98.45-1.49,0-.12,0-.26-.02-.38.46-.58,1.21-1,1.47-1.77.03-.07.06-.15.07-.22.08-.2.13-.42.12-.66,0-.02,0-.04,0-.05.55-.42,1.16-.91,1.43-1.59.02-.04.07-.11.05-.17.21-.69.47-1.26,1.05-1.76.29-.3.61-.55.77-.97.2-.48.37-1.01.33-1.51.71-.44,1.26-1.08,1.57-1.89.09-.18.15-.36.21-.54.24-.48.32-1.04.21-1.53-.01-.13-.03-.25-.08-.36.34-.66.98-1.19,1.1-2.03,0-.06.02-.15.02-.22,0-.01,0-.04.01-.07h-.02c.35-.59.8-1.13.97-1.88.36-1.68.04-2.47.04-2.47-.1-.42-.32-.84-.59-1.13-1.11-1.15-3.07-.73-3.95.61l-.45.69c-.51.58-.68,1.5-.77,2.22l-.07-.03c-.6.59-.82,1.46-.9,2.23-.01.07-.08.31-.12.45-.05.05-.09.1-.14.16-.16.15-.24.41-.43.53-.02,0-.04.02-.05.04-.15.09-.24.23-.35.37-.03.06-.07.13-.1.19-.29.33-.44.8-.56,1.21-.1.23-.09.51-.08.77,0,0-.04.04-.05.05-.19.16-.46.26-.62.46-.18.11-.31.3-.44.48-.02.04-.06.08-.09.16-.2.29-.41.62-.5.97-.1.25-.16.52-.15.78-.01.27.06.56-.07.79-.17.15-.33.34-.53.49l-.06.07c-.06.05-.13.14-.24.26-.46.5-.68,1.19-.66,1.87-.82.46-1.27,1.33-1.52,2.15-.02.05-.15.29-.19.42-.06.02-.11.07-.16.12-.18.17-.34.36-.54.49-.16.07-.27.18-.4.3-.05.05-.11.1-.16.17-.34.27-.57.68-.79,1.06-.14.23-.18.48-.22.73-.02,0-.05.03-.06.04-.23.13-.49.18-.68.35-.21.07-.36.26-.51.41-.03.01-.06.06-.11.13-.26.25-.52.53-.69.84-.14.23-.25.48-.29.74-.07.25-.07.53-.22.76-.21.1-.37.26-.6.4,0,0-.08.05-.07.06-.08.05-.16.11-.25.19l-.03.04c-.63.54-.84,1.1-.98,1.54-.19.1-.33.31-.55.36-.01,0-.04.02-.05.03-.17.04-.3.14-.44.24-.05.04-.12.09-.17.15-.35.23-.63.62-.91.95-.12.16-.37.53-.48.82-.79.3-1.32,1.01-1.71,1.66-.04.05-.2.25-.29.36-.07.02-.13.06-.19.09-.2.07-.38.28-.6.31-.02,0-.05,0-.06.02-.17.03-.31.11-.46.2-.05.04-.12.09-.17.13-.4.19-.71.56-.99.89-.18.18-.3.41-.39.65-.01,0-.06.02-.07.02-.24.07-.52.06-.75.17-.21.03-.4.15-.59.26-.03.02-.08.05-.15.12-.29.18-.62.41-.84.69-.19.18-.34.42-.45.65-.12.23-.18.51-.39.67-.21.07-.43.18-.68.24l-.08.04c-.08.02-.17.08-.32.15-.62.28-1.08.84-1.34,1.46-.97.05-1.69.72-2.25,1.37-.04.04-.25.21-.34.32-.07,0-.99-.55-1.89.8Z" fill="#f9c316"/>
          <path d="M93.08,259.08c-.36-.31-.89-.47-1.36-.51-.11-.01-.24-.02-.36-.02-.49-.5-.76-1.26-1.45-1.59-.06-.03-.13-.08-.2-.1-.18-.1-.37-.19-.6-.21-.02,0-.04,0-.05,0-.28-.6-.57-1.28-1.14-1.66-.03-.03-.09-.08-.14-.08-.59-.32-1.06-.7-1.33-1.36-.17-.36-.28-.72-.6-.99-.36-.31-.77-.62-1.25-.73-.15-.76-.47-1.48-1.03-2.05-.12-.14-.24-.27-.37-.38-.3-.39-.76-.66-1.23-.76-.12-.04-.23-.07-.35-.07-.41-.57-.49-1.38-1.12-1.85-.04-.04-.11-.08-.17-.12,0-.01-.03-.02-.05-.05-.08-.73-.23-1.49-.73-2.05-.1-.15-.22-.28-.33-.42-.26-.41-.69-.73-1.14-.88-.07-.03-.14-.05-.21-.07-.3-.81-.35-1.18-1.1-1.95-.39-.2-.56-.87-.66-1.29-.09-.38-.13-.77-.39-1.07-.29-.4-.62-.79-1.05-1.01.06-.79-.06-1.57-.5-2.24-.08-.15-.19-.3-.28-.45-.22-.42-.59-.8-1.01-1.03-.1-.06-.21-.12-.32-.16-.24-.66-.18-1.45-.68-2.03-.04-.06-.08-.12-.14-.17-.12-.17-.26-.32-.46-.44-.02,0-.03-.01-.04-.03,0-.67,0-1.4-.34-1.97-.01-.04-.04-.11-.1-.13-.41-.54-.68-1.07-.66-1.78,0-.39.04-.77-.14-1.14-.2-.44-.45-.88-.84-1.18.19-.76.16-1.53-.1-2.28-.05-.18-.11-.34-.18-.5-.12-.48-.41-.91-.8-1.19-.09-.09-.18-.16-.29-.21-.11-.69.05-1.44-.3-2.13-.02-.05-.07-.12-.11-.18,0-.01-.02-.04-.03-.06h-.02c-.03-.63.03-1.27-.21-1.94-.57-1.49-1.19-1.99-1.19-1.99-.29-.29-.68-.55-1.06-.66-1.52-.47-3.06.78-3.15,2.48l-.02.86c-.14.8.28,1.72.62,2.4l-.07.02c-.16.88.21,1.76.62,2.46.03.07.14.31.2.44,0,.08,0,.15,0,.22-.02.23.09.49.03.71,0,.02-.01.05-.01.06-.05.18-.03.35-.02.54.01.07.03.15.05.22,0,.47.2.95.41,1.36.1.25.29.46.48.66,0,.01,0,.06,0,.08-.01.26-.12.53-.08.8-.04.22.01.46.06.69.01.04.02.1.06.19.08.37.19.78.38,1.11.11.26.3.5.51.68.21.2.46.35.58.61.02.24.08.49.09.76l.02.1c0,.09.04.2.07.37.14.71.57,1.36,1.15,1.76-.09.99.51,1.89,1.09,2.58.04.05.18.29.27.41-.01.07,0,.14.02.21.06.25.14.52.17.76-.01.18.04.34.09.53.02.07.05.15.09.23.11.44.41.87.67,1.25.16.24.37.4.59.56,0,.02,0,.06.01.08.03.28-.03.55.05.82-.01.24.1.47.2.68,0,.03.03.08.08.17.16.35.36.72.61,1.01.18.23.4.43.63.57.22.17.5.27.67.5.04.24.14.47.21.74,0,0,.03.1.04.09.03.1.07.19.13.31l.03.05c.4.8.94,1.17,1.35,1.42.06.22.25.42.25.66,0,.01.02.04.02.05.01.18.08.34.16.52.03.07.07.15.11.22.15.44.53.8.84,1.14.15.16.51.48.79.64.24.86.88,1.56,1.56,2.02.06.05.26.23.37.32.03.07.06.13.1.2.08.21.29.41.33.64,0,.02,0,.05.02.06.03.18.12.33.21.5.04.06.09.13.14.18.2.43.58.79.93,1.09.19.19.46.3.71.4,0,.01.02.06.03.07.1.24.11.53.26.77.06.22.2.42.34.6.03.03.06.08.14.15.22.3.5.64.81.86.21.2.48.34.75.42.27.1.56.13.78.32.12.21.27.42.39.66l.06.08c.04.08.12.17.22.31.42.59,1.07,1.02,1.78,1.13.33.95,1.24,1.53,2.05,1.93.05.03.28.2.42.26.02.07.06.13.11.18.17.2.36.39.48.61.06.17.92.81.92.81.39.33.93.53,1.43.55.12.01.26.02.37,0,.55.49.94,1.23,1.7,1.53.07.03.14.07.21.09.2.09.41.16.64.17.02,0,.04,0,.05,0,.37.6.82,1.23,1.49,1.51.04.02.11.07.17.06.69.23,1.23.53,1.68,1.15.27.32.49.66.9.84.47.22.98.42,1.49.39.4.71.97,1.37,1.76,1.7.18.09.35.17.52.24.46.26,1.02.37,1.51.28.13,0,.25-.02.37-.06.61.41,1.09,1.1,1.92,1.25.06.01.15.03.22.03.01,0,.04,0,.07.02.44.62.98,1.27,1.74,1.55.18.08.36.15.53.21.48.22,1.05.27,1.54.16.08,0,.15-.03.22-.05.75.52,1,.87,2.14,1.06.46-.08,1.05.36,1.41.64.33.25.63.54,1.06.63.51.15,1.04.26,1.55.11.53.62,1.22,1.12,2.06,1.32.18.06.37.1.55.14.48.19,1.06.15,1.54,0,.11-.04.25-.08.35-.13.69.26,1.31.84,2.12.85.07,0,.16.02.23.01.21.02.44.01.66-.07.02,0,.03-.02.05-.02.57.4,1.2.83,1.92.89.04.01.12.03.18,0,.72-.02,1.33.1,1.97.5.36.2.69.43,1.14.46.51.05,1.06.07,1.53-.12.61.56,1.37.93,2.23,1,.2.03.38.05.57.06.52.1,1.08.02,1.52-.21.12-.05.23-.09.33-.17.72.16,1.4.64,2.23.53.06,0,.15-.02.22-.04.01,0,.04,0,.07,0v-.02c.65.19,1.28.48,2.05.44,1.7-.07,2.38-.57,2.38-.57.38-.2.73-.51.94-.85.83-1.37-.06-3.14-1.58-3.68l-.78-.27c-.69-.36-1.64-.25-2.36-.17v-.08c-.73-.43-1.62-.41-2.39-.3-.07,0-.33,0-.47,0-.06-.04-.13-.06-.19-.09-.19-.11-.46-.12-.63-.27-.01-.02-.04-.03-.05-.04-.13-.12-.29-.17-.45-.24-.07-.02-.14-.03-.21-.05-.4-.19-.89-.21-1.33-.21-.25-.03-.52.05-.76.12-.01,0-.05-.03-.06-.04-.21-.14-.38-.36-.62-.47-.16-.14-.38-.21-.58-.28-.04,0-.09-.03-.18-.04-.33-.11-.72-.22-1.08-.21-.27-.03-.55,0-.8.08-.26.07-.51.19-.78.14-.19-.12-.42-.21-.63-.36l-.09-.04c-.07-.05-.17-.08-.32-.15-.62-.29-1.35-.3-2-.07-.67-.7-1.67-.82-2.52-.82-.06,0-.32-.05-.46-.05-.04-.05-.1-.08-.16-.12-.22-.12-.46-.21-.63-.37-.11-.14-.26-.21-.41-.31-.06-.03-.13-.07-.21-.1-.36-.23-.84-.33-1.26-.41-.26-.06-.52-.02-.77.02,0-.02-.04-.04-.05-.05-.19-.18-.33-.4-.55-.53-.14-.17-.35-.27-.55-.37-.02-.02-.07-.04-.16-.07-.32-.17-.68-.32-1.03-.38-.26-.06-.54-.08-.8-.04-.26.01-.53.11-.79.04-.17-.16-.37-.26-.57-.44,0,0-.08-.06-.08-.05-.08-.06-.15-.12-.26-.18l-.05-.02c-.72-.43-1.33-.43-1.79-.41-.16-.14-.41-.21-.53-.4-.01,0-.03-.03-.04-.03-.1-.14-.23-.23-.38-.34-.06-.04-.12-.09-.19-.12-.33-.28-.79-.43-1.2-.56-.19-.06-.63-.17-.94-.17-.56-.63-1.4-.9-2.14-1.07-.07-.02-.31-.1-.44-.14-.05-.06-.1-.1-.15-.14-.14-.16-.39-.26-.5-.45,0-.02-.02-.04-.03-.05-.08-.15-.21-.25-.35-.37-.06-.03-.13-.08-.18-.11-.32-.3-.77-.48-1.16-.65-.22-.12-.49-.14-.75-.15,0-.01-.04-.05-.04-.06-.15-.2-.24-.46-.43-.64-.1-.19-.29-.32-.45-.45-.03-.02-.07-.06-.16-.09-.28-.21-.61-.43-.93-.56-.24-.12-.5-.2-.76-.22-.26-.03-.54,0-.77-.13-.14-.17-.32-.34-.47-.55l-.07-.06c-.05-.07-.13-.14-.25-.25-.49-.46-1.14-.75-1.81-.77-.38-.89-1.28-1.32-2.07-1.62-.05-.02-.27-.17-.4-.22-.02-.07.18-1.13-1.4-1.5Z" fill="#f9c316"/>
        </g>
      </g>
    </g>
  </g>
</svg>